<?xml version="1.0" encoding="utf-8"?>
<svg version="1.1" id="map-svg" xmlns="http://www.w3.org/2000/svg" xmlns:xlink="http://www.w3.org/1999/xlink" x="0px" y="0px" width="768" height="1024" viewBox="0 0 7680 10240" xml:space="preserve">
	<metadata>
		<?xpacket begin="﻿" id="W5M0MpCehiHzreSzNTczkc9d"?>
		<x:xmpmeta xmlns:x="adobe:ns:meta/" x:xmptk="Adobe XMP Core 5.5-c014 79.151739, 2013/04/03-12:12:15">
			<rdf:RDF xmlns:rdf="http://www.w3.org/1999/02/22-rdf-syntax-ns#">
				<rdf:Description rdf:about="" xmlns:xmp="http://ns.adobe.com/xap/1.0/" xmlns:xmpGImg="http://ns.adobe.com/xap/1.0/g/img/" xmlns:xmpTPg="http://ns.adobe.com/xap/1.0/t/pg/" xmlns:stDim="http://ns.adobe.com/xap/1.0/sType/Dimensions#" xmlns:stFnt="http://ns.adobe.com/xap/1.0/sType/Font#" xmlns:xmpG="http://ns.adobe.com/xap/1.0/g/" xmlns:dc="http://purl.org/dc/elements/1.1/" xmlns:xmpMM="http://ns.adobe.com/xap/1.0/mm/" xmlns:stRef="http://ns.adobe.com/xap/1.0/sType/ResourceRef#" xmlns:stEvt="http://ns.adobe.com/xap/1.0/sType/ResourceEvent#">
					<xmpTPg:MaxPageSize rdf:parseType="Resource">
						<stDim:w>10240.000397</stDim:w>
						<stDim:h>7680.000000</stDim:h>
						<stDim:unit>Points</stDim:unit>
					</xmpTPg:MaxPageSize>
					<xmpTPg:NPages>1</xmpTPg:NPages>
					<xmpTPg:HasVisibleTransparency>False</xmpTPg:HasVisibleTransparency>
					<xmpTPg:HasVisibleOverprint>False</xmpTPg:HasVisibleOverprint>
					<xmpTPg:Fonts>
						<rdf:Bag>
							<rdf:li rdf:parseType="Resource">
								<stFnt:fontName>DINPro</stFnt:fontName>
								<stFnt:fontFamily>DIN Pro</stFnt:fontFamily>
								<stFnt:fontFace>Regular</stFnt:fontFace>
								<stFnt:fontType>TrueType</stFnt:fontType>
								<stFnt:versionString>Version 7.504; 2005; Build 1021</stFnt:versionString>
								<stFnt:composite>False</stFnt:composite>
								<stFnt:fontFileName>DINPro.ttf</stFnt:fontFileName>
							</rdf:li>
						</rdf:Bag>
					</xmpTPg:Fonts>
					<xmpTPg:PlateNames>
						<rdf:Seq>
							<rdf:li>Cyan</rdf:li>
							<rdf:li>Magenta</rdf:li>
							<rdf:li>Yellow</rdf:li>
							<rdf:li>Black</rdf:li>
						</rdf:Seq>
					</xmpTPg:PlateNames>
					<xmpTPg:SwatchGroups>
						<rdf:Seq>
							<rdf:li rdf:parseType="Resource">
								<xmpG:groupName>Default Swatch Group</xmpG:groupName>
								<xmpG:groupType>0</xmpG:groupType>
							</rdf:li>
						</rdf:Seq>
					</xmpTPg:SwatchGroups>
					<dc:format>image/svg+xml</dc:format>
				</rdf:Description>
			</rdf:RDF>
		</x:xmpmeta>
		<?xpacket end="w"?>
	</metadata>
	<g id="background">
		<path id="1"/>
		<g id="details">
			<path fill="#F5F5F5" d="M2104.7,2818.8v122.9c0,22.8,10.5,44.4,28.5,58.4c133.2,103.6,726.2,520.5,1637.4,520.5
				c911.2,0,1513.2-417,1648.6-520.5c18.3-14,29-35.7,29-58.8v-122.5c0-40.9-33.1-74-74-74H2178.7
				C2137.8,2744.8,2104.7,2777.9,2104.7,2818.8z"/>
			<text transform="matrix(1 0 0 1 4989.6079 3761.1079)" fill="#8A8A8A" font-family="DINPro, Helvetica, sans-serif" font-size="113.9019px">1</text>
			<text transform="matrix(1 0 0 1 5013.6079 3961.5078)" fill="#8A8A8A" font-family="DINPro, Helvetica, sans-serif" font-size="113.9019px">2</text>
			<text transform="matrix(1 0 0 1 5037.6079 4161.9077)" fill="#8A8A8A" font-family="DINPro, Helvetica, sans-serif" font-size="113.9019px">3</text>
			<text transform="matrix(1 0 0 1 5061.6079 4362.3076)" fill="#8A8A8A" font-family="DINPro, Helvetica, sans-serif" font-size="113.9019px">4</text>
			<text transform="matrix(1 0 0 1 5040.7573 4985.9502)" fill="#8A8A8A" font-family="DINPro, Helvetica, sans-serif" font-size="113.9019px">5</text>
			<text transform="matrix(1 0 0 1 5052.4575 5218.6001)" fill="#8A8A8A" font-family="DINPro, Helvetica, sans-serif" font-size="113.9019px">6</text>
			<text transform="matrix(1 0 0 1 5055.1572 5451.25)" fill="#8A8A8A" font-family="DINPro, Helvetica, sans-serif" font-size="113.9019px">7</text>
			<text transform="matrix(1 0 0 1 5061.6074 5693.8003)" fill="#8A8A8A" font-family="DINPro, Helvetica, sans-serif" font-size="113.9019px">8</text>
			<text transform="matrix(1 0 0 1 5065.9575 5924.3496)" fill="#8A8A8A" font-family="DINPro, Helvetica, sans-serif" font-size="113.9019px">9</text>
			<text transform="matrix(1 0 0 1 5286.7573 6115.1494)" fill="#8A8A8A" font-family="DINPro, Helvetica, sans-serif" font-size="113.9019px">10</text>
			<text transform="matrix(1 0 0 1 5293.7246 6341.9346)" fill="#8A8A8A" font-family="DINPro, Helvetica, sans-serif" font-size="113.9019px">11</text>
			<text transform="matrix(1 0 0 1 5300.6919 6579.5195)" fill="#8A8A8A" font-family="DINPro, Helvetica, sans-serif" font-size="113.9019px">12</text>
			<text transform="matrix(1 0 0 1 5306.459 6812.2002)" fill="#8A8A8A" font-family="DINPro, Helvetica, sans-serif" font-size="113.9019px">13</text>
			<text transform="matrix(1 0 0 1 5069.8262 7084.6001)" fill="#8A8A8A" font-family="DINPro, Helvetica, sans-serif" font-size="113.9019px">14</text>
			<text transform="matrix(1 0 0 1 2504.5488 3761.1079)" fill="#8A8A8A" font-family="DINPro, Helvetica, sans-serif" font-size="113.9019px">1</text>
			<text transform="matrix(1 0 0 1 3504.9873 3160.1604)" fill="#8A8A8A" font-family="DINPro-Bold, Helvetica, sans-serif" font-size="187.017px">Сцена</text>
			<text transform="matrix(1 0 0 1 2486.5488 3961.5078)" fill="#8A8A8A" font-family="DINPro, Helvetica, sans-serif" font-size="113.9019px">2</text>
			<text transform="matrix(1 0 0 1 2468.3235 4161.9077)" fill="#8A8A8A" font-family="DINPro, Helvetica, sans-serif" font-size="113.9019px">3</text>
			<text transform="matrix(1 0 0 1 2450.5488 4362.3076)" fill="#8A8A8A" font-family="DINPro, Helvetica, sans-serif" font-size="113.9019px">4</text>
			<text transform="matrix(1 0 0 1 2468.3237 4985.9502)" fill="#8A8A8A" font-family="DINPro, Helvetica, sans-serif" font-size="113.9019px">5</text>
			<text transform="matrix(1 0 0 1 2464.1985 5218.6001)" fill="#8A8A8A" font-family="DINPro, Helvetica, sans-serif" font-size="113.9019px">6</text>
			<text transform="matrix(1 0 0 1 2450.5486 5451.25)" fill="#8A8A8A" font-family="DINPro, Helvetica, sans-serif" font-size="113.9019px">7</text>
			<text transform="matrix(1 0 0 1 2450.5486 5693.8003)" fill="#8A8A8A" font-family="DINPro, Helvetica, sans-serif" font-size="113.9019px">8</text>
			<text transform="matrix(1 0 0 1 2437.7 5924.3496)" fill="#8A8A8A" font-family="DINPro, Helvetica, sans-serif" font-size="113.9019px">9</text>
			<text transform="matrix(1 0 0 1 2152.7986 6115.1494)" fill="#8A8A8A" font-family="DINPro, Helvetica, sans-serif" font-size="113.9019px">10</text>
			<text transform="matrix(1 0 0 1 2146.3582 6341.9346)" fill="#8A8A8A" font-family="DINPro, Helvetica, sans-serif" font-size="113.9019px">11</text>
			<text transform="matrix(1 0 0 1 2141.3931 6579.5195)" fill="#8A8A8A" font-family="DINPro, Helvetica, sans-serif" font-size="113.9019px">12</text>
			<text transform="matrix(1 0 0 1 2139.2 6812.2002)" fill="#8A8A8A" font-family="DINPro, Helvetica, sans-serif" font-size="113.9019px">13</text>
			<text transform="matrix(1 0 0 1 2368.7671 7084.6001)" fill="#8A8A8A" font-family="DINPro, Helvetica, sans-serif" font-size="113.9019px">14</text>
		</g>
	</g>
	<g id="labels">
		<text dataSectorId="1">Сектор #1</text>
	</g>
</svg>
