<?xml version="1.0" encoding="utf-8"?>
<!-- Generator: Adobe Illustrator 17.0.0, SVG Export Plug-In . SVG Version: 6.00 Build 0)  -->
<!DOCTYPE svg PUBLIC "-//W3C//DTD SVG 1.1//EN" "http://www.w3.org/Graphics/SVG/1.1/DTD/svg11.dtd">
<svg version="1.1" id="Layer_2" xmlns="http://www.w3.org/2000/svg" xmlns:xlink="http://www.w3.org/1999/xlink" x="0px" y="0px"
	 width="10240px" height="7680px" viewBox="0 0 10240 7680" enable-background="new 0 0 10240 7680" xml:space="preserve">
<metadata><?xpacket begin="﻿" id="W5M0MpCehiHzreSzNTczkc9d"?>
<x:xmpmeta xmlns:x="adobe:ns:meta/" x:xmptk="Adobe XMP Core 5.5-c014 79.151739, 2013/04/03-12:12:15        ">
   <rdf:RDF xmlns:rdf="http://www.w3.org/1999/02/22-rdf-syntax-ns#">
      <rdf:Description rdf:about=""
            xmlns:xmp="http://ns.adobe.com/xap/1.0/"
            xmlns:xmpGImg="http://ns.adobe.com/xap/1.0/g/img/"
            xmlns:xmpTPg="http://ns.adobe.com/xap/1.0/t/pg/"
            xmlns:stDim="http://ns.adobe.com/xap/1.0/sType/Dimensions#"
            xmlns:stFnt="http://ns.adobe.com/xap/1.0/sType/Font#"
            xmlns:xmpG="http://ns.adobe.com/xap/1.0/g/"
            xmlns:dc="http://purl.org/dc/elements/1.1/"
            xmlns:xmpMM="http://ns.adobe.com/xap/1.0/mm/"
            xmlns:stRef="http://ns.adobe.com/xap/1.0/sType/ResourceRef#"
            xmlns:stEvt="http://ns.adobe.com/xap/1.0/sType/ResourceEvent#">
         <xmp:CreatorTool>Adobe Illustrator CC (Windows)</xmp:CreatorTool>
         <xmp:CreateDate>2020-07-02T22:26:27+03:00</xmp:CreateDate>
         <xmp:MetadataDate>2020-07-02T22:26:28+03:00</xmp:MetadataDate>
         <xmp:ModifyDate>2020-07-02T22:26:28+03:00</xmp:ModifyDate>
         <xmp:Thumbnails>
            <rdf:Alt>
               <rdf:li rdf:parseType="Resource">
                  <xmpGImg:width>256</xmpGImg:width>
                  <xmpGImg:height>112</xmpGImg:height>
                  <xmpGImg:format>JPEG</xmpGImg:format>
                  <xmpGImg:image>/9j/4AAQSkZJRgABAgEACwALAAD/7QAsUGhvdG9zaG9wIDMuMAA4QklNA+0AAAAAABAACwAAAAEA&#xA;AQALAAAAAQAB/+4ADkFkb2JlAGTAAAAAAf/bAIQABgQEBAUEBgUFBgkGBQYJCwgGBggLDAoKCwoK&#xA;DBAMDAwMDAwQDA4PEA8ODBMTFBQTExwbGxscHx8fHx8fHx8fHwEHBwcNDA0YEBAYGhURFRofHx8f&#xA;Hx8fHx8fHx8fHx8fHx8fHx8fHx8fHx8fHx8fHx8fHx8fHx8fHx8fHx8fHx8f/8AAEQgAcAEAAwER&#xA;AAIRAQMRAf/EAaIAAAAHAQEBAQEAAAAAAAAAAAQFAwIGAQAHCAkKCwEAAgIDAQEBAQEAAAAAAAAA&#xA;AQACAwQFBgcICQoLEAACAQMDAgQCBgcDBAIGAnMBAgMRBAAFIRIxQVEGE2EicYEUMpGhBxWxQiPB&#xA;UtHhMxZi8CRygvElQzRTkqKyY3PCNUQnk6OzNhdUZHTD0uIIJoMJChgZhJRFRqS0VtNVKBry4/PE&#xA;1OT0ZXWFlaW1xdXl9WZ2hpamtsbW5vY3R1dnd4eXp7fH1+f3OEhYaHiImKi4yNjo+Ck5SVlpeYmZ&#xA;qbnJ2en5KjpKWmp6ipqqusra6voRAAICAQIDBQUEBQYECAMDbQEAAhEDBCESMUEFURNhIgZxgZEy&#xA;obHwFMHR4SNCFVJicvEzJDRDghaSUyWiY7LCB3PSNeJEgxdUkwgJChgZJjZFGidkdFU38qOzwygp&#xA;0+PzhJSktMTU5PRldYWVpbXF1eX1RlZmdoaWprbG1ub2R1dnd4eXp7fH1+f3OEhYaHiImKi4yNjo&#xA;+DlJWWl5iZmpucnZ6fkqOkpaanqKmqq6ytrq+v/aAAwDAQACEQMRAD8A9SRRRGJCUUkqCSQPDFV3&#xA;oQ/77X7hirvQh/32v3DFWnigVGYxrRQT0HbFVv1f/JjHtw/txV31f2j/AOA/txV31f2j/wCA/txV&#xA;31f2j/4D+3FXfV/aP/gP7cVd9X9o/wDgP7cVd9X9o/8AgP7cVd9X9o/+A/txV31f2j/4D+3FXfV/&#xA;aP8A4D+3FXfV/aP/AID+3FXfV/aP/gP7cVd9X9o/+A/txV31f2j/AOA/txV31f2j/wCA/txV31f2&#xA;j/4D+3FXfV/aP/gP7cVd9X9o/wDgP7cVd9X9o/8AgP7cVd9X9o/+A/txV31f2j/4D+3FXfV/aP8A&#xA;4D+3FXfV/aP/AID+3FWmSP0HbgoZQwqAOq1FfwxVq4J509sVUsVdirsVRUH9zH/qj9WKr8Vdiqyf&#xA;+5k/1T+rFVtxd21sFM8ixhjRSxpU4qlr2+vGW9Kzr6bg/VR4fECO23w1GKtRW3mAS2ZedTGg/wBJ&#xA;Hj8RPhv8NBiqcYqlt9PPeWzJpVwnrxuPUoRsN9vvxVTa21/61yFwnpejx9vU4UrSn8+/yxVFaVFq&#xA;EdrxvnEk3IkEb0XsCcVV5Lu2imSGSVVlk+whO57YqlT2vmIi7pcLV2H1fpsOXbbbbFU1tFnW2jW4&#xA;YPOFAkYdCcVU7i6RjJaQTIt6UJjUncGmxpiqW/VfMn1e3UXC+qrsZTUfZqONTTfviqMsYdVS8uWu&#xA;pQ9ux/cqO2+3bbbFUVcXVvbJ6k8gjQmgLGm+Kpe8OtPeTyRTp9VeM/Vx1AYr8Pbx74qpJa+YwlqG&#xA;uFqrkz9K8aildt9q4qnWKpZfTXF7bU0m4QyI49QgjpQ96HFVj22vm6kZbhPSMVE8OfEDpT+bfFUZ&#xA;pkd9HaKt64eepqRvt2qcVVJbu3jlWBpVSeQfu0J3OKpT9U8y/UnX6wvrmQFTUV4UNd6eNMVRVvBr&#xA;C6kZJpla04AcR3biK0FP5t8VRlCbeQDcn1KD6TiqycguCNwQKHFVPFXYq7FUVB/cx/6o/Viq/FXY&#xA;qsn/ALmT/VP6sVSrzIEMVvytWufj6KWFPb4fHFUXdE8lA2HEfD4YqohmBqCcVTPFUj0QIpvylo1s&#xA;eX2iWNeu2/hiqJqfHFUVZEkOCfD+OKpfqgT9NWJNo0p+GkwJAX4tum3w9cVRd0x9ZhXpSn3YqirY&#xA;kwqTv1/XiqVcU/xNX6o3Lh/vTU0+x1p0/wAnFVd2bmdz1xVVtCfW69jiqH8yBTYrytzcfvBQKSOO&#xA;x3239sVV5TSGAKpjXgKR/wAu3T6MVUuR8cVTJfsDvtiqSaFxWC8KWjWp5D7RJr123/lxVE1PjiqL&#xA;siSrVPcYql2phDrdlW0aVvhpMCaL8R7Db4euKoqdm9Zt++KtQM3qpv3xVGw/YP8ArN/xI4qhj9iP&#xA;/UX9WKtYq7FXYqioP7mP/VH6sVX4q7FVk/8Acyf6p/ViqU+ZfT9G353TW3x7cQTX3+Ej7OKoy7+2&#xA;u9fhG/j1xVQxVNMVS7TtLntTc+rcNMJzVQa7dd9yd98VVvqT/wAwxVWt4DEGqak/wxVC3mmzz6hb&#xA;XSXBjSGnKIVoaGvj36HFVea1LyFg1K9sVVok4Rha1p3xVBfo2f8ATH176w3pcaehvT7NKdeld8VV&#xA;Ws2LEhhQ4qvgtjG/ItX2GKqOrWEt7bCKKYwsGDEitCB2NKYqqtasY4158mRQpY9TQdcVWfUm/mGK&#xA;ooCi09qVxVL9M0ua0inSW4af1TVSa7e+5O574qrfUn/mGKq0EJiBqak4qhbvTZp9Rt7pbgxxw05R&#xA;Cu9DXx79DiqtLaM7lgw3xV0doyuGLCg3xVWh+wf9Zv8AiRxVDH7Ef+ov6sVaxV2KuxVFQf3Mf+qP&#xA;1YqvxV2KrJ/7mT/VP6sVSzzCLgwwejbxz/vNxIAaHtSpHXFUTd19Raih4jb78VUMVTAjlKQSaBQQ&#xA;ASOpPh8sVb9FPFv+Cb+uKu9FPFv+Cb+uKrWVQaAOx6kBj/FhirXH/iuT/g/+bsVdx/4rk/4P/m7F&#xA;Xcf+K5P+D/5uxV3H/iuT/g/+bsVdx/4rk/4P/m7FXcf+K5P+D/5uxV3H/iuT/g/+bsVdx/4rk/4P&#xA;/m7FXcf+K5P+D/5uxV3H/iuT/g/+bsVdx/4rk/4P/m7FXcf+K5P+D/5uxV3H/iuT/g/+bsVdx/4r&#xA;k/4P/m7FXcf+K5P+D/5uxV3H/iuT/g/+bsVVIypQcRQbinuDQ4qhT9iP/UX9WKtYq7FXYqioP7mP&#xA;/VH6sVX4q7FVk/8Acyf6p/ViqF1TSodRSNZHZPTaoK03r164qqz27uylaUApv7YqpCzlr1GKoof3&#xA;zf6q/rbFV+KuxVYP75v9Vf1tiq/FXYq7FXYq7FXYq7FXYq7FXYq7FXYq7FXYq7FXYqsh+wf9Zv8A&#xA;iRxVDH7Ef+ov6sVaxV2KuxVFQf3Mf+qP1YqvxV2KuIBFDuD1GKrPTbtIwHYbH9YxV3pv/vxv+F/p&#xA;irvTf/fjf8L/AExVcqBampJPVj1xVvFXYqsH983+qv62xVfirsVdirsVdirsVSXXfK1vq1zFc/Wp&#xA;7K5iQx+vasqSFCa8S1CaVxVit6/l/R9Sltb7zJqYmgMYMbNI9CWSagKqQdqdOxpiqppg0G/mXSbf&#xA;zBqjXUyMAGLxtsiMDyKACiJ+Jr1xVk2heWI9Juri6+vXV5PcqqStcuG2TcUoB4nFU6xV2KuxV2Ku&#xA;xV2KrIfsH/Wb/iRxVDH7Ef8AqL+rFUr1m91i1aBtPsvrsZDmdAVVgRx4AFmWlasa0PSlN64qg7PW&#xA;vMk93bpNobW9rKzCWd5kqi78TwFT0piqf4qioP7mP/VH6sVX4q7FXYq7FXYq7FXYq7FXYqsFfWb/&#xA;AFV/W2Kr8VdirsVdirsVdirsVQeqxO1nI0NvHPOCrIrqG3VgQd+60qMVXWEbvBDPdQJHeBSrEAVA&#xA;J6A9qhRUYqisVdirsVdirsVdirsVWQ/YP+s3/EjiqGP2I/8AUX9WKtYq7FXYqioP7mP/AFR+rFV+&#xA;KuxV2KuxV2KuxV2KuxV2KrB/fN/qr+tsVX4q7FXYq7FXYq7FXYq7FXYq7FXYq7FXYq7FXYq7FVkP&#xA;2D/rN/xI4qhj9iP/AFF/VirWKuxV2KoqD+5j/wBUfqxVfirsVdirsVdirsVdiq1pKNxCljSppTv8&#xA;yMVa9R/99t/wv9cVWsS3WN6+IIH6mxVrj/xXJ/wf/N2Ku4/8Vyf8H/zdiruP/Fcn/B/83Yq7j/xX&#xA;J/wf/N2Ku4/8Vyf8H/zdiruP/Fcn/B/83Yq7j/xXJ/wf/N2Ku4/8Vyf8H/zdiruP/Fcn/B/83Yq7&#xA;j/xXJ/wf/N2Ku4/8Vyf8H/zdiruP/Fcn/B/83Yq7j/xXJ/wf/N2Ku4/8Vyf8H/zdiruP/Fcn/B/8&#xA;3Yq7j/xXJ/wf/N2KqkZUoOIoKkUPWoO+KoU/Yj/1F/VirWKuxV2KoqD+5j/1R+rFV+KuxV2KuxV2&#xA;KuxV2KrB/fN/qr+tsVX4ql91d6jHqdvBFAHtZB+8k32333rtTFVaW6kWQqAKDFVn1yX2+7FUVC5e&#xA;NWPU4qgkvNROsNbNABZhaiXevTrWtOu1MVVGu5QxApSuKqlvcO8nFgKU7YqpavdX1taiSziEsnIB&#xA;gQTQeNBTFVSS4mWOMsoV2UF160NNxiqn9cl9vuxVGA1UHxFaYql2mX2ozRXD3kAhMbUj6iviNyen&#xA;jiqr9cl9vuxVXtpmkB5UqPDFULeXeox6lbQQwB7aSnqyGu2++/ag3xVWlupFkKgCgxV0V1I0iqQK&#xA;E0xVXh+wf9Zv+JHFUMfsR/6i/qxVrFXYq7FUVB/cx/6o/Viq/FXYqpzTCIAkVriql9dH8n44q766&#xA;P5PxxV310fyfjiqIjcOgYdDiq0f3zf6q/rbFV+KpHqP1P/ENn6jyCai8VUDh1PHetevXFUdPFIZW&#xA;IUkE7ECuKrPSl/kb7jiqNt1KwqCKHfb6cVSeL6n/AIokIeT6xx+yQOFeA71r09sVRjxS8j8B6+Bx&#xA;VVtY5BLUqQAOpFMVQfmf6sbBPrDOq+oOPpgGpoeoJA6YqiWTlBAYgzR+mvEnc0ptXFVnpS/yN9xx&#xA;VMBsgr2G+KpD5dW0MF4LV5Hqwr6gA23pShOKo70pf5G+44qibRGVW5Aip2riqV6r9T/T1iZHkE3w&#xA;8VUDj9s8amtdz1xVHTxSGViFJBOxAriroYpPVUlSADuSMVRcP2D/AKzf8SOKoY/Yj/1F/VirWKux&#xA;V2KoqD+5j/1R+rFV+KuxVDXvRPpxVBvzKMENHoeJPSvbFWP6YPO8dxaxX5tZrah+szg0k79lCL3F&#xA;KDtirIcVTC2/uF+n9eKtj++b/VX9bYqvxVRu4WeJ3hVfrSqRC7AGjEbb4qlaReZuFrykSoc+v9mv&#xA;GopXbwr0xVzxeZaXfGRKlh9X+z05dtvDxxVNbQXAtohckGcKPUI6csVW3ULmKV7ZUW7KERyECte2&#xA;+KpZ6XmX0bX94vqBj9Y+z9mopXbw8MVRenJqy3Fwb11aEn9wBTpU+A8PHFUbJHHIvGRQ6/ysAR+O&#xA;KpbJHrv124MboLUxkQA02bj8PavXFVFIvM3C15SJUOfX+zXjUUrt4V6YqnWKpfqcF8tuBpYWKUvy&#xA;koFFRQ+Ip1xVRePzD9akKyJ6JionSnqcR0FK/a8dsVRmmLfraKL5g1xU1Ip07Vptiqu8UbMHKKZF&#xA;rwcgEj6cVSb0vNH1Jx6ifWPUBU/DXhQ1oaU60xVFW6a0NSLTups+A2FPtcRWm1ftYqj4fsH/AFm/&#xA;4kcVQx+xH/qL+rFWsVdirsVREcgWNVIaqgA/Cx3A+WKrvWTwb/gW/pirvWTwb/gW/piqyX0pAAwf&#xA;boQrf0xVT9C3/wCLP+Bb+mKu9C3/AOLP+Bb+mKu9C3/4s/4Fv6YqrI8aKFAag/yW/pirTMpNQXU9&#xA;CQp/ipxVrl/xZJ/wH/NuKu5f8WSf8B/zbiruX/Fkn/Af824q7l/xZJ/wH/NuKu5f8WSf8B/zbiru&#xA;X/Fkn/Af824q7l/xZJ/wH/NuKu5f8WSf8B/zbiruX/Fkn/Af824q7l/xZJ/wH/NuKu5f8WSf8B/z&#xA;biruX/Fkn/Af824q7l/xZJ/wH/NuKu5f8WSf8B/zbiruX/Fkn/Af824q7l/xZJ/wH/NuKu5f8WSf&#xA;8B/zbiruX/Fkn/Af824quV0VaAOep+y25O/hiqk0ThUFK0UA08Riq305P5TirvTk/lOKu9OT+U4q&#xA;/wD/2Q==</xmpGImg:image>
               </rdf:li>
            </rdf:Alt>
         </xmp:Thumbnails>
         <xmpTPg:MaxPageSize rdf:parseType="Resource">
            <stDim:w>10240.000397</stDim:w>
            <stDim:h>7680.000122</stDim:h>
            <stDim:unit>Points</stDim:unit>
         </xmpTPg:MaxPageSize>
         <xmpTPg:NPages>1</xmpTPg:NPages>
         <xmpTPg:HasVisibleTransparency>False</xmpTPg:HasVisibleTransparency>
         <xmpTPg:HasVisibleOverprint>False</xmpTPg:HasVisibleOverprint>
         <xmpTPg:Fonts>
            <rdf:Bag>
               <rdf:li rdf:parseType="Resource">
                  <stFnt:fontName>DINPro-Bold</stFnt:fontName>
                  <stFnt:fontFamily>DIN Pro</stFnt:fontFamily>
                  <stFnt:fontFace>Bold</stFnt:fontFace>
                  <stFnt:fontType>TrueType</stFnt:fontType>
                  <stFnt:versionString>Version 7.504; 2005; Build 1020</stFnt:versionString>
                  <stFnt:composite>False</stFnt:composite>
                  <stFnt:fontFileName/>
               </rdf:li>
            </rdf:Bag>
         </xmpTPg:Fonts>
         <xmpTPg:PlateNames>
            <rdf:Seq>
               <rdf:li>Cyan</rdf:li>
               <rdf:li>Magenta</rdf:li>
               <rdf:li>Yellow</rdf:li>
               <rdf:li>Black</rdf:li>
            </rdf:Seq>
         </xmpTPg:PlateNames>
         <xmpTPg:SwatchGroups>
            <rdf:Seq>
               <rdf:li rdf:parseType="Resource">
                  <xmpG:groupName>Default Swatch Group</xmpG:groupName>
                  <xmpG:groupType>0</xmpG:groupType>
               </rdf:li>
            </rdf:Seq>
         </xmpTPg:SwatchGroups>
         <dc:format>image/svg+xml</dc:format>
         <xmpMM:DerivedFrom rdf:parseType="Resource">
            <stRef:instanceID>xmp.iid:299371ae-d61a-a04c-be45-7f9fab411864</stRef:instanceID>
            <stRef:documentID>xmp.did:299371ae-d61a-a04c-be45-7f9fab411864</stRef:documentID>
            <stRef:originalDocumentID>xmp.did:82aacf58-607c-a645-8469-3b9abc83840d</stRef:originalDocumentID>
            <stRef:renditionClass>proof:pdf</stRef:renditionClass>
         </xmpMM:DerivedFrom>
         <xmpMM:DocumentID>xmp.did:0f577d00-7e7b-7344-865c-48b04f349931</xmpMM:DocumentID>
         <xmpMM:InstanceID>xmp.iid:0f577d00-7e7b-7344-865c-48b04f349931</xmpMM:InstanceID>
         <xmpMM:OriginalDocumentID>xmp.did:82aacf58-607c-a645-8469-3b9abc83840d</xmpMM:OriginalDocumentID>
         <xmpMM:History>
            <rdf:Seq>
               <rdf:li rdf:parseType="Resource">
                  <stEvt:action>saved</stEvt:action>
                  <stEvt:instanceID>xmp.iid:82aacf58-607c-a645-8469-3b9abc83840d</stEvt:instanceID>
                  <stEvt:when>2018-10-21T17:28:59+03:00</stEvt:when>
                  <stEvt:softwareAgent>Adobe Illustrator CC (Windows)</stEvt:softwareAgent>
                  <stEvt:changed>/</stEvt:changed>
               </rdf:li>
               <rdf:li rdf:parseType="Resource">
                  <stEvt:action>saved</stEvt:action>
                  <stEvt:instanceID>xmp.iid:0f577d00-7e7b-7344-865c-48b04f349931</stEvt:instanceID>
                  <stEvt:when>2020-07-02T22:26:28+03:00</stEvt:when>
                  <stEvt:softwareAgent>Adobe Illustrator CC (Windows)</stEvt:softwareAgent>
                  <stEvt:changed>/</stEvt:changed>
               </rdf:li>
            </rdf:Seq>
         </xmpMM:History>
         <xmpMM:RenditionClass>proof:pdf</xmpMM:RenditionClass>
      </rdf:Description>
   </rdf:RDF>
</x:xmpmeta>
                                                                                                    
                                                                                                    
                                                                                                    
                                                                                                    
                                                                                                    
                                                                                                    
                                                                                                    
                                                                                                    
                                                                                                    
                                                                                                    
                                                                                                    
                                                                                                    
                                                                                                    
                                                                                                    
                                                                                                    
                                                                                                    
                                                                                                    
                                                                                                    
                                                                                                    
                                                                                                    
                           
<?xpacket end="w"?>
	</metadata>
<g>
	<path fill="none" stroke="#B5B5B5" stroke-width="5" stroke-miterlimit="10" d="M1956.145,2448.278c-33,0-60,27-60,60v2663.443
		c0,33,27,60,60,60h5527.1c33,0,59.931-27,59.846-60l-6.248-2663.444c-0.085-33-27.154-60-60.154-60H1956.145z"/>
	<line fill="#F0F0F0" x1="4124.528" y1="3968.083" x2="3980.535" y2="3968.083"/>
	<g>
		<path fill="#F5F5F5" d="M8283.855,2448.278c33,0,60,27,60,60v2663.443c0,33-27,60-60,60h-611.026c-33,0-60-27-60-60V2508.278
			c0-33,27-60,60-60H8283.855z"/>
		<g>
			<g>
				<g>
					<text transform="matrix(1 0 0 1 7838.5332 3815.5237)" fill="#8A8A8A" font-family="'DINPro-Bold'" font-size="92.9056">Сцена</text>
				</g>
			</g>
		</g>
	</g>
	<g>
		<path fill="none" stroke="#B5B5B5" stroke-width="5" stroke-miterlimit="10" d="M4060.981,3385.72c-33,0-60,27-60,60v790.189
			c0,33,27,60,60,60h3264.835c33,0,60-27,60-60V3445.72c0-33-27-60-60-60H4060.981z"/>
		<g>
			<g>
				<text transform="matrix(1 0 0 1 5398.6343 3741.4033)" enable-background="new    "><tspan x="0" y="0" fill="#8A8A8A" font-family="'DINPro-Bold'" font-size="92.9056">Танцевальный</tspan><tspan x="172.013" y="111.486" fill="#8A8A8A" font-family="'DINPro-Bold'" font-size="92.9056">партер</tspan></text>
			</g>
		</g>
		<circle fill="#C7C7C7" cx="5720.503" cy="3971.427" r="47.99"/>
	</g>
	<g>
		<g>
			<circle fill="#C7C7C7" cx="7226.698" cy="2735.523" r="47.99"/>
			<circle fill="#C7C7C7" cx="7104.483" cy="2735.523" r="47.99"/>
			<circle fill="#C7C7C7" cx="6976.483" cy="2735.523" r="47.99"/>
			<circle fill="#C7C7C7" cx="6855.994" cy="3110.464" r="47.99"/>
			<circle fill="#C7C7C7" cx="6855.994" cy="2988.249" r="47.99"/>
			<circle fill="#C7C7C7" cx="6855.994" cy="2860.249" r="47.99"/>
		</g>
		<g>
			<circle fill="#C7C7C7" cx="6545.056" cy="2735.523" r="47.99"/>
			<circle fill="#C7C7C7" cx="6422.84" cy="2735.523" r="47.99"/>
			<circle fill="#C7C7C7" cx="6294.84" cy="2735.523" r="47.99"/>
			<circle fill="#C7C7C7" cx="6174.351" cy="3110.464" r="47.99"/>
			<circle fill="#C7C7C7" cx="6174.351" cy="2988.249" r="47.99"/>
			<circle fill="#C7C7C7" cx="6174.351" cy="2860.249" r="47.99"/>
		</g>
		<g>
			<circle fill="#C7C7C7" cx="5863.413" cy="2735.523" r="47.99"/>
			<circle fill="#C7C7C7" cx="5741.197" cy="2735.523" r="47.99"/>
			<circle fill="#C7C7C7" cx="5613.197" cy="2735.523" r="47.99"/>
			<circle fill="#C7C7C7" cx="5492.708" cy="3110.464" r="47.99"/>
			<circle fill="#C7C7C7" cx="5492.708" cy="2988.249" r="47.99"/>
			<circle fill="#C7C7C7" cx="5492.708" cy="2860.249" r="47.99"/>
		</g>
		<g>
			<circle fill="#C7C7C7" cx="5186.805" cy="2735.523" r="47.99"/>
			<circle fill="#C7C7C7" cx="5064.589" cy="2735.523" r="47.99"/>
			<circle fill="#C7C7C7" cx="4936.589" cy="2735.523" r="47.99"/>
			<circle fill="#C7C7C7" cx="4816.1" cy="3110.464" r="47.99"/>
			<circle fill="#C7C7C7" cx="4816.1" cy="2988.249" r="47.99"/>
			<circle fill="#C7C7C7" cx="4816.1" cy="2860.249" r="47.99"/>
		</g>
		<g>
			<circle fill="#C7C7C7" cx="4500.126" cy="2735.523" r="47.99"/>
			<circle fill="#C7C7C7" cx="4377.911" cy="2735.523" r="47.99"/>
			<circle fill="#C7C7C7" cx="4238.149" cy="3110.464" r="47.99"/>
			<circle fill="#C7C7C7" cx="4238.149" cy="2988.249" r="47.99"/>
			<circle fill="#C7C7C7" cx="4238.149" cy="2860.249" r="47.99"/>
		</g>
		<g>
			<circle fill="#C7C7C7" cx="3228.487" cy="2735.523" r="47.99"/>
			<circle fill="#C7C7C7" cx="3106.272" cy="2735.523" r="47.99"/>
			<circle fill="#C7C7C7" cx="2978.272" cy="2735.523" r="47.99"/>
			<circle fill="#C7C7C7" cx="2857.782" cy="3110.464" r="47.99"/>
			<circle fill="#C7C7C7" cx="2857.782" cy="2988.249" r="47.99"/>
			<circle fill="#C7C7C7" cx="2857.782" cy="2860.249" r="47.99"/>
			<circle fill="#C7C7C7" cx="2857.782" cy="3489.945" r="47.99"/>
			<circle fill="#C7C7C7" cx="2857.782" cy="3367.729" r="47.99"/>
			<circle fill="#C7C7C7" cx="2857.782" cy="3239.729" r="47.99"/>
		</g>
		<g>
			<circle fill="#C7C7C7" cx="3931.852" cy="2735.523" r="47.99"/>
			<circle fill="#C7C7C7" cx="3809.637" cy="2735.523" r="47.99"/>
			<circle fill="#C7C7C7" cx="3681.637" cy="2735.523" r="47.99"/>
			<circle fill="#C7C7C7" cx="3561.147" cy="3110.464" r="47.99"/>
			<circle fill="#C7C7C7" cx="3561.147" cy="2988.249" r="47.99"/>
			<circle fill="#C7C7C7" cx="3561.147" cy="2860.249" r="47.99"/>
		</g>
		<path fill="#F0F0F0" d="M7299.595,2890.248c0-16.5-13.5-30-30-30h-263.112c-16.5,0-30,13.5-30,30v238.206c0,16.5,13.5,30,30,30
			h263.112c16.5,0,30-13.5,30-30V2890.248z"/>
		<path fill="#F0F0F0" d="M6617.952,2890.248c0-16.5-13.5-30-30-30H6324.84c-16.5,0-30,13.5-30,30v238.206c0,16.5,13.5,30,30,30
			h263.112c16.5,0,30-13.5,30-30V2890.248z"/>
		<path fill="#F0F0F0" d="M5936.309,2890.248c0-16.5-13.5-30-30-30h-263.112c-16.5,0-30,13.5-30,30v238.206c0,16.5,13.5,30,30,30
			h263.112c16.5,0,30-13.5,30-30V2890.248z"/>
		<path fill="#F0F0F0" d="M5254.666,2890.248c0-16.5-13.5-30-30-30h-263.112c-16.5,0-30,13.5-30,30v238.206c0,16.5,13.5,30,30,30
			h263.112c16.5,0,30-13.5,30-30V2890.248z"/>
		<path fill="#F0F0F0" d="M4004.749,2890.248c0-16.5-13.5-30-30-30h-263.112c-16.5,0-30,13.5-30,30v238.206c0,16.5,13.5,30,30,30
			h263.112c16.5,0,30-13.5,30-30V2890.248z"/>
		<path fill="#F0F0F0" d="M3301.384,2890.248c0-16.5-13.5-30-30-30h-263.112c-16.5,0-30,13.5-30,30v659.387c0,16.5,13.5,30,30,30
			h263.112c16.5,0,30-13.5,30-30V2890.248z"/>
		<path fill="#F0F0F0" d="M4561.023,2890.248c0-16.5-13.5-30-30-30h-133.869c-16.5,0-30,13.5-30,30v238.206c0,16.5,13.5,30,30,30
			h133.869c16.5,0,30-13.5,30-30V2890.248z"/>
		<path fill="none" stroke="#B5B5B5" stroke-width="5" stroke-miterlimit="10" d="M7385.816,2595.638c0-33-27-60-60-60H2752.893
			c-33,0-60,27-60,60v584.092c0,33,0,69.25,0,80.555c0,11.305,0,47.555,0,80.555v310.796c0,33,27,60,60,60h572c33,0,60-27,60-60
			V3340.84c0-33,27-60,60-60h3880.924c33,0,60-27,60-60V2595.638z"/>
	</g>
	<g>
		<g>
			<circle fill="#C7C7C7" cx="7226.698" cy="4958.985" r="47.99"/>
			<circle fill="#C7C7C7" cx="7104.483" cy="4958.985" r="47.99"/>
			<circle fill="#C7C7C7" cx="6976.483" cy="4958.985" r="47.99"/>
			<circle fill="#C7C7C7" cx="6855.994" cy="4584.044" r="47.99"/>
			<circle fill="#C7C7C7" cx="6855.994" cy="4706.26" r="47.99"/>
			<circle fill="#C7C7C7" cx="6855.994" cy="4834.26" r="47.99"/>
		</g>
		<g>
			<circle fill="#C7C7C7" cx="6545.056" cy="4958.985" r="47.99"/>
			<circle fill="#C7C7C7" cx="6422.84" cy="4958.985" r="47.99"/>
			<circle fill="#C7C7C7" cx="6294.84" cy="4958.985" r="47.99"/>
			<circle fill="#C7C7C7" cx="6174.351" cy="4584.044" r="47.99"/>
			<circle fill="#C7C7C7" cx="6174.351" cy="4706.26" r="47.99"/>
			<circle fill="#C7C7C7" cx="6174.351" cy="4834.26" r="47.99"/>
		</g>
		<g>
			<circle fill="#C7C7C7" cx="5863.413" cy="4958.985" r="47.99"/>
			<circle fill="#C7C7C7" cx="5741.197" cy="4958.985" r="47.99"/>
			<circle fill="#C7C7C7" cx="5613.197" cy="4958.985" r="47.99"/>
			<circle fill="#C7C7C7" cx="5492.708" cy="4584.044" r="47.99"/>
			<circle fill="#C7C7C7" cx="5492.708" cy="4706.26" r="47.99"/>
			<circle fill="#C7C7C7" cx="5492.708" cy="4834.26" r="47.99"/>
		</g>
		<g>
			<circle fill="#C7C7C7" cx="5181.77" cy="4958.985" r="47.99"/>
			<circle fill="#C7C7C7" cx="5059.554" cy="4958.985" r="47.99"/>
			<circle fill="#C7C7C7" cx="4931.554" cy="4958.985" r="47.99"/>
			<circle fill="#C7C7C7" cx="4811.065" cy="4584.044" r="47.99"/>
			<circle fill="#C7C7C7" cx="4811.065" cy="4706.26" r="47.99"/>
			<circle fill="#C7C7C7" cx="4811.065" cy="4834.26" r="47.99"/>
		</g>
		<g>
			<circle fill="#C7C7C7" cx="4500.126" cy="4958.985" r="47.99"/>
			<circle fill="#C7C7C7" cx="4377.911" cy="4958.985" r="47.99"/>
			<circle fill="#C7C7C7" cx="4249.911" cy="4958.985" r="47.99"/>
			<circle fill="#C7C7C7" cx="4129.422" cy="4958.985" r="47.99"/>
			<circle fill="#C7C7C7" cx="4031.033" cy="4584.044" r="47.99"/>
			<circle fill="#C7C7C7" cx="4031.033" cy="4706.26" r="47.99"/>
			<circle fill="#C7C7C7" cx="4031.033" cy="4834.26" r="47.99"/>
		</g>
		<path fill="#F0F0F0" d="M7299.595,4566.054c0-16.5-13.5-30-30-30h-263.112c-16.5,0-30,13.5-30,30v238.206c0,16.5,13.5,30,30,30
			h263.112c16.5,0,30-13.5,30-30V4566.054z"/>
		<path fill="#F0F0F0" d="M6617.952,4566.054c0-16.5-13.5-30-30-30H6324.84c-16.5,0-30,13.5-30,30v238.206c0,16.5,13.5,30,30,30
			h263.112c16.5,0,30-13.5,30-30V4566.054z"/>
		<path fill="#F0F0F0" d="M5936.309,4566.054c0-16.5-13.5-30-30-30h-263.112c-16.5,0-30,13.5-30,30v238.206c0,16.5,13.5,30,30,30
			h263.112c16.5,0,30-13.5,30-30V4566.054z"/>
		<path fill="#F0F0F0" d="M5254.666,4566.054c0-16.5-13.5-30-30-30h-263.112c-16.5,0-30,13.5-30,30v238.206c0,16.5,13.5,30,30,30
			h263.112c16.5,0,30-13.5,30-30V4566.054z"/>
		<path fill="#F0F0F0" d="M4561.023,4566.054c0-16.5-13.5-30-30-30h-346.368c-16.5,0-30,13.5-30,30v238.206c0,16.5,13.5,30,30,30
			h346.368c16.5,0,30-13.5,30-30V4566.054z"/>
		<path fill="none" stroke="#B5B5B5" stroke-width="5" stroke-miterlimit="10" d="M3594.41,4445.891c0-33,27-60,60-60h3671.407
			c33,0,60,27,60,60v625.202c0,33-27,60-60,60H3654.409c-33,0-60-27-60-60V4445.891z"/>
	</g>
	<path fill="#F0F0F0" d="M3283.721,4776.889c33,0,60,27,60,60v236.507c0,33-27,60-60,60h-611.026c-33,0-60-27-60-60v-236.507
		c0-33,27-60,60-60H3283.721z"/>
	<g>
		<path fill="#F0F0F0" d="M3283.721,4776.889c33,0,60,27,60,60v236.507c0,33-27,60-60,60h-611.026c-33,0-60-27-60-60v-236.507
			c0-33,27-60,60-60H3283.721z"/>
		<g>
			<g>
				<text transform="matrix(1 0 0 1 2897.009 4987.1245)" fill="#8A8A8A" font-family="'DINPro-Bold'" font-size="92.9056">Бар</text>
			</g>
		</g>
	</g>
</g>
</svg>
