<?xml version="1.0" encoding="utf-8"?>
<svg version="1.1" id="map-svg" xmlns="http://www.w3.org/2000/svg" xmlns:xlink="http://www.w3.org/1999/xlink" x="0px" y="0px" width="1024" height="768" viewBox="0 0 10240 7680" xml:space="preserve">
	<metadata>
		<?xpacket begin="﻿" id="W5M0MpCehiHzreSzNTczkc9d"?>
		<x:xmpmeta xmlns:x="adobe:ns:meta/" x:xmptk="Adobe XMP Core 5.5-c014 79.151739, 2013/04/03-12:12:15">
			<rdf:RDF xmlns:rdf="http://www.w3.org/1999/02/22-rdf-syntax-ns#">
				<rdf:Description rdf:about="" xmlns:xmp="http://ns.adobe.com/xap/1.0/" xmlns:xmpGImg="http://ns.adobe.com/xap/1.0/g/img/" xmlns:xmpTPg="http://ns.adobe.com/xap/1.0/t/pg/" xmlns:stDim="http://ns.adobe.com/xap/1.0/sType/Dimensions#" xmlns:stFnt="http://ns.adobe.com/xap/1.0/sType/Font#" xmlns:xmpG="http://ns.adobe.com/xap/1.0/g/" xmlns:dc="http://purl.org/dc/elements/1.1/" xmlns:xmpMM="http://ns.adobe.com/xap/1.0/mm/" xmlns:stRef="http://ns.adobe.com/xap/1.0/sType/ResourceRef#" xmlns:stEvt="http://ns.adobe.com/xap/1.0/sType/ResourceEvent#">
					<xmpTPg:MaxPageSize rdf:parseType="Resource">
						<stDim:w>10240.000397</stDim:w>
						<stDim:h>7680.000000</stDim:h>
						<stDim:unit>Points</stDim:unit>
					</xmpTPg:MaxPageSize>
					<xmpTPg:NPages>1</xmpTPg:NPages>
					<xmpTPg:HasVisibleTransparency>False</xmpTPg:HasVisibleTransparency>
					<xmpTPg:HasVisibleOverprint>False</xmpTPg:HasVisibleOverprint>
					<xmpTPg:Fonts>
						<rdf:Bag>
							<rdf:li rdf:parseType="Resource">
								<stFnt:fontName>DINPro</stFnt:fontName>
								<stFnt:fontFamily>DIN Pro</stFnt:fontFamily>
								<stFnt:fontFace>Regular</stFnt:fontFace>
								<stFnt:fontType>TrueType</stFnt:fontType>
								<stFnt:versionString>Version 7.504; 2005; Build 1021</stFnt:versionString>
								<stFnt:composite>False</stFnt:composite>
								<stFnt:fontFileName>DINPro.ttf</stFnt:fontFileName>
							</rdf:li>
						</rdf:Bag>
					</xmpTPg:Fonts>
					<xmpTPg:PlateNames>
						<rdf:Seq>
							<rdf:li>Cyan</rdf:li>
							<rdf:li>Magenta</rdf:li>
							<rdf:li>Yellow</rdf:li>
							<rdf:li>Black</rdf:li>
						</rdf:Seq>
					</xmpTPg:PlateNames>
					<xmpTPg:SwatchGroups>
						<rdf:Seq>
							<rdf:li rdf:parseType="Resource">
								<xmpG:groupName>Default Swatch Group</xmpG:groupName>
								<xmpG:groupType>0</xmpG:groupType>
							</rdf:li>
						</rdf:Seq>
					</xmpTPg:SwatchGroups>
					<dc:format>image/svg+xml</dc:format>
				</rdf:Description>
			</rdf:RDF>
		</x:xmpmeta>
		<?xpacket end="w"?>
	</metadata>
	<g id="background">
		<path fill="none" stroke="#B5B5B5" stroke-width="5" stroke-miterlimit="10" tc-sector="5d518029727965999159c0cc" id="5d518029727965999159c0cc" d="M5920.5,3254.427
		c0-26.703-21.847-48.551-48.551-48.551h-921.116c-26.703,0-48.551,21.848-48.551,48.551v322.552v848.594
		c0,26.703,21.848,48.551,48.551,48.551h921.116c26.704,0,48.551-21.848,48.551-48.551V3254.427z"/>
		<path fill="none" stroke="#B5B5B5" stroke-width="5" stroke-miterlimit="10" tc-sector="5d518029727965999159c0cd" id="5d518029727965999159c0cd" d="M4680.896,3049.471
		c0-26.703,21.848-48.551,48.551-48.551h2829.841c26.703,0,48.551-21.848,48.551-48.551v-678.332
		c0-26.703-21.848-48.551-48.551-48.551H3830.994c-26.704,0-48.551,21.848-48.551,48.551v548.015v1978.894v605.018
		c0,26.703,21.848,48.551,48.551,48.551h3728.295c26.704,0,48.551-21.848,48.551-48.551v-678.332
		c0-26.704-21.848-48.551-48.551-48.551H4729.448c-26.703,0-48.551-21.848-48.551-48.551V3049.471H4680.896z"/>
		<path fill="none" stroke="#B5B5B5" stroke-width="5" stroke-miterlimit="10" tc-sector="5d518029727965999159c0ce" id="5d518029727965999159c0ce" d="M3572.796,2060.269
		c0-26.703,21.848-48.551,48.551-48.551h4193.571c26.703,0,48.551-21.848,48.551-48.551v-678.332
		c0-26.703-21.847-48.551-48.551-48.551H2425.083c-26.703,0-48.551,21.848-48.551,48.551v1565.719v1978.894v1565.718
		c0,26.704,21.848,48.551,48.551,48.551h5389.834c26.704,0,48.551-21.848,48.551-48.551v-678.332
		c0-26.703-21.848-48.551-48.551-48.551h-4193.57c-26.703,0-48.551-21.848-48.551-48.551V2060.269z"/>
		<path fill="none" stroke="#B5B5B5" stroke-width="5" stroke-miterlimit="10" tc-sector="5d518029727965999159c0cf" id="5d518029727965999159c0cf" d="M2215.064,4211.076c0,27.5-22.5,50-50,50H854.67
		c-27.5,0-50-22.5-50-50v-780.602c0-27.5,22.5-50,50-50h1310.394c27.5,0,50,22.5,50,50L2215.064,4211.076L2215.064,4211.076z"/>
		<g id="details">
			<text transform="matrix(1 0 0 1 5293.1665 3800.8428)" fill="#548A77" font-family="'DINPro'" font-size="169.3936">VIP</text>
			<text transform="matrix(1 0 0 1 3973.427 3800.8428)" fill="#548A77" font-family="'DINPro'" font-size="169.3936">Партер</text>
			<text transform="matrix(1 0 0 1 2578.0215 3800.8428)" fill="#548A77" font-family="'DINPro'" font-size="169.3936">Амфитеатр</text>
			<text transform="matrix(1 0 0 1 1092.3169 3800.843)" fill="#548A77" font-family="'DINPro'" font-size="169.3936">Абонемент</text>
			<path fill="#FAFAFA" d="M7607.84,3254.427c0-26.703-21.848-48.551-48.551-48.551H6179.5c-26.704,0-48.551,21.848-48.551,48.551
			v322.552v848.594c0,26.703,21.848,48.551,48.551,48.551h1379.789c26.704,0,48.551-21.848,48.551-48.551V3254.427z"/>
			<text transform="matrix(1 0 0 1 6646.1899 3879.6252)" fill="#8C8C8C" font-family="'DINPro'" font-size="169.3936">Сцена</text>
			<g>
				<path fill="none" stroke="#B5B5B5" stroke-width="5" stroke-miterlimit="10" d="M2214.076,1486.981
					c0-24.877-19.899-45.592-46.247-50.151c0.574-2.387,0.884-4.862,0.884-7.403c0-16.115-12.168-29.681-28.738-33.786
					c2.178-5.406,3.371-11.232,3.371-17.309c0-16.322-8.575-30.845-21.906-40.199c-1.976-36.552-35.759-65.646-77.15-65.646
					c-42.662,0-77.246,30.907-77.246,69.032c0,8.21,1.612,16.082,4.554,23.385c-22.387,5.546-38.826,23.875-38.826,45.646
					c0,3.433,0.418,6.776,1.194,10.002c-35.597,6.159-62.483,34.146-62.483,67.757c0,32.433,25.035,59.628,58.772,67.03
					c4.612,34.188,37.165,60.69,76.665,60.69c25.128,0,47.444-10.729,61.551-27.332c10.385,5.995,22.746,9.489,36.029,9.489
					c36.729,0,66.504-26.608,66.504-59.431c0-0.751-0.033-1.495-0.063-2.239C2195.729,1530.924,2214.076,1510.869,2214.076,1486.981z"
					/>
				<polyline fill="none" stroke="#B5B5B5" stroke-width="5" stroke-miterlimit="10" points="2024.995,1613.846 1989.739,1759.105 
					2117.261,1759.105 2098.444,1685.274 2117.261,1667.173 2110.701,1642.289 2089.913,1651.803 2074.168,1591.64 	"/>
				<path fill="none" stroke="#B5B5B5" stroke-width="5" stroke-miterlimit="10" d="M2170.943,1536.518c0,0-0.08-25.718-12.721-39.729
					c-23.384-25.921-59.617-10.887-59.617-10.887"/>
				<path fill="none" stroke="#B5B5B5" stroke-width="5" stroke-miterlimit="10" d="M2047.023,1372.629c0,0-2.851-24.625,18.922-37.067
					c30.97-17.697,57.651,4.164,57.651,4.164"/>
				<path fill="none" stroke="#B5B5B5" stroke-width="5" stroke-miterlimit="10" d="M1968.234,1494.981
					c-5.777-12.513-0.316-27.34,12.197-33.116c12.513-5.777,27.34-0.316,33.116,12.197"/>
				<path fill="none" stroke="#B5B5B5" stroke-width="5" stroke-miterlimit="10" d="M2214.076,2257.296
					c0-24.877-19.899-45.592-46.247-50.151c0.574-2.387,0.884-4.862,0.884-7.403c0-16.115-12.168-29.681-28.738-33.786
					c2.178-5.406,3.371-11.232,3.371-17.309c0-16.322-8.575-30.845-21.906-40.199c-1.976-36.552-35.759-65.646-77.15-65.646
					c-42.662,0-77.246,30.907-77.246,69.032c0,8.21,1.612,16.082,4.554,23.385c-22.387,5.546-38.826,23.875-38.826,45.646
					c0,3.433,0.418,6.776,1.194,10.002c-35.597,6.159-62.483,34.146-62.483,67.757c0,32.433,25.035,59.628,58.772,67.03
					c4.612,34.188,37.165,60.69,76.665,60.69c25.128,0,47.444-10.729,61.551-27.332c10.385,5.995,22.746,9.489,36.029,9.489
					c36.729,0,66.504-26.608,66.504-59.431c0-0.751-0.033-1.495-0.063-2.239C2195.729,2301.239,2214.076,2281.184,2214.076,2257.296z"
					/>
				<polyline fill="none" stroke="#B5B5B5" stroke-width="5" stroke-miterlimit="10" points="2024.995,2384.161 1989.739,2529.42 
					2117.261,2529.42 2098.444,2455.589 2117.261,2437.488 2110.701,2412.604 2089.913,2422.118 2074.168,2361.955 	"/>
				<path fill="none" stroke="#B5B5B5" stroke-width="5" stroke-miterlimit="10" d="M2170.943,2306.833c0,0-0.08-25.718-12.721-39.729
					c-23.384-25.921-59.617-10.887-59.617-10.887"/>
				<path fill="none" stroke="#B5B5B5" stroke-width="5" stroke-miterlimit="10" d="M2047.023,2142.944c0,0-2.851-24.625,18.922-37.067
					c30.97-17.697,57.651,4.164,57.651,4.164"/>
				<path fill="none" stroke="#B5B5B5" stroke-width="5" stroke-miterlimit="10" d="M1968.234,2265.296
					c-5.777-12.513-0.316-27.34,12.197-33.116c12.513-5.777,27.34-0.316,33.116,12.197"/>
				<path fill="none" stroke="#B5B5B5" stroke-width="5" stroke-miterlimit="10" d="M2214.076,3027.611
					c0-24.877-19.899-45.592-46.247-50.151c0.574-2.387,0.884-4.862,0.884-7.403c0-16.115-12.168-29.681-28.738-33.786
					c2.178-5.406,3.371-11.232,3.371-17.309c0-16.322-8.575-30.845-21.906-40.199c-1.976-36.552-35.759-65.646-77.15-65.646
					c-42.662,0-77.246,30.907-77.246,69.032c0,8.21,1.612,16.082,4.554,23.385c-22.387,5.546-38.826,23.875-38.826,45.646
					c0,3.433,0.418,6.776,1.194,10.002c-35.597,6.159-62.483,34.146-62.483,67.757c0,32.433,25.035,59.628,58.772,67.03
					c4.612,34.188,37.165,60.69,76.665,60.69c25.128,0,47.444-10.729,61.551-27.332c10.385,5.995,22.746,9.489,36.029,9.489
					c36.729,0,66.504-26.608,66.504-59.431c0-0.751-0.033-1.495-0.063-2.239C2195.729,3071.554,2214.076,3051.499,2214.076,3027.611z"
					/>
				<polyline fill="none" stroke="#B5B5B5" stroke-width="5" stroke-miterlimit="10" points="2024.995,3154.476 1989.739,3299.735 
					2117.261,3299.735 2098.444,3225.904 2117.261,3207.803 2110.701,3182.919 2089.913,3192.433 2074.168,3132.27 	"/>
				<path fill="none" stroke="#B5B5B5" stroke-width="5" stroke-miterlimit="10" d="M2170.943,3077.148c0,0-0.08-25.718-12.721-39.729
					c-23.384-25.921-59.617-10.887-59.617-10.887"/>
				<path fill="none" stroke="#B5B5B5" stroke-width="5" stroke-miterlimit="10" d="M2047.023,2913.259c0,0-2.851-24.625,18.922-37.067
					c30.97-17.697,57.651,4.164,57.651,4.164"/>
				<path fill="none" stroke="#B5B5B5" stroke-width="5" stroke-miterlimit="10" d="M1968.234,3035.611
					c-5.777-12.513-0.316-27.34,12.197-33.116c12.513-5.777,27.34-0.316,33.116,12.197"/>
				<path fill="none" stroke="#B5B5B5" stroke-width="5" stroke-miterlimit="10" d="M2214.076,4568.241
					c0-24.877-19.899-45.592-46.247-50.151c0.574-2.387,0.884-4.862,0.884-7.403c0-16.115-12.168-29.681-28.738-33.786
					c2.178-5.406,3.371-11.232,3.371-17.309c0-16.322-8.575-30.845-21.906-40.199c-1.976-36.552-35.759-65.646-77.15-65.646
					c-42.662,0-77.246,30.907-77.246,69.032c0,8.21,1.612,16.082,4.554,23.385c-22.387,5.546-38.826,23.875-38.826,45.646
					c0,3.433,0.418,6.776,1.194,10.002c-35.597,6.159-62.483,34.146-62.483,67.757c0,32.433,25.035,59.628,58.772,67.03
					c4.612,34.188,37.165,60.69,76.665,60.69c25.128,0,47.444-10.729,61.551-27.332c10.385,5.995,22.746,9.489,36.029,9.489
					c36.729,0,66.504-26.608,66.504-59.431c0-0.751-0.033-1.495-0.063-2.239C2195.729,4612.184,2214.076,4592.129,2214.076,4568.241z"
					/>
				<polyline fill="none" stroke="#B5B5B5" stroke-width="5" stroke-miterlimit="10" points="2024.995,4695.105 1989.739,4840.365 
					2117.261,4840.365 2098.444,4766.534 2117.261,4748.433 2110.701,4723.549 2089.913,4733.063 2074.168,4672.9 	"/>
				<path fill="none" stroke="#B5B5B5" stroke-width="5" stroke-miterlimit="10" d="M2170.943,4617.778c0,0-0.08-25.718-12.721-39.729
					c-23.384-25.921-59.617-10.887-59.617-10.887"/>
				<path fill="none" stroke="#B5B5B5" stroke-width="5" stroke-miterlimit="10" d="M2047.023,4453.889c0,0-2.851-24.625,18.922-37.067
					c30.97-17.697,57.651,4.164,57.651,4.164"/>
				<path fill="none" stroke="#B5B5B5" stroke-width="5" stroke-miterlimit="10" d="M1968.234,4576.241
					c-5.777-12.513-0.316-27.34,12.197-33.116c12.513-5.777,27.34-0.316,33.116,12.197"/>
				<path fill="none" stroke="#B5B5B5" stroke-width="5" stroke-miterlimit="10" d="M2214.076,5338.556
					c0-24.877-19.899-45.592-46.247-50.151c0.574-2.387,0.884-4.862,0.884-7.403c0-16.115-12.168-29.681-28.738-33.786
					c2.178-5.406,3.371-11.232,3.371-17.309c0-16.322-8.575-30.845-21.906-40.199c-1.976-36.552-35.759-65.646-77.15-65.646
					c-42.662,0-77.246,30.907-77.246,69.032c0,8.21,1.612,16.082,4.554,23.385c-22.387,5.546-38.826,23.875-38.826,45.646
					c0,3.433,0.418,6.776,1.194,10.002c-35.597,6.159-62.483,34.146-62.483,67.757c0,32.433,25.035,59.628,58.772,67.03
					c4.612,34.188,37.165,60.69,76.665,60.69c25.128,0,47.444-10.729,61.551-27.332c10.385,5.995,22.746,9.489,36.029,9.489
					c36.729,0,66.504-26.608,66.504-59.431c0-0.751-0.033-1.495-0.063-2.239C2195.729,5382.499,2214.076,5362.444,2214.076,5338.556z"
					/>
				<polyline fill="none" stroke="#B5B5B5" stroke-width="5" stroke-miterlimit="10" points="2024.995,5465.42 1989.739,5610.68 
					2117.261,5610.68 2098.444,5536.849 2117.261,5518.748 2110.701,5493.864 2089.913,5503.377 2074.168,5443.215 	"/>
				<path fill="none" stroke="#B5B5B5" stroke-width="5" stroke-miterlimit="10" d="M2170.943,5388.093c0,0-0.08-25.718-12.721-39.729
					c-23.384-25.921-59.617-10.887-59.617-10.887"/>
				<path fill="none" stroke="#B5B5B5" stroke-width="5" stroke-miterlimit="10" d="M2047.023,5224.204c0,0-2.851-24.625,18.922-37.067
					c30.97-17.697,57.651,4.164,57.651,4.164"/>
				<path fill="none" stroke="#B5B5B5" stroke-width="5" stroke-miterlimit="10" d="M1968.234,5346.556
					c-5.777-12.513-0.316-27.34,12.197-33.116c12.513-5.777,27.34-0.316,33.116,12.197"/>
				<path fill="none" stroke="#B5B5B5" stroke-width="5" stroke-miterlimit="10" d="M2214.076,6108.871
					c0-24.877-19.899-45.592-46.247-50.151c0.574-2.387,0.884-4.862,0.884-7.403c0-16.115-12.168-29.681-28.738-33.786
					c2.178-5.406,3.371-11.232,3.371-17.309c0-16.322-8.575-30.845-21.906-40.199c-1.976-36.552-35.759-65.646-77.15-65.646
					c-42.662,0-77.246,30.907-77.246,69.032c0,8.21,1.612,16.082,4.554,23.385c-22.387,5.546-38.826,23.875-38.826,45.646
					c0,3.433,0.418,6.776,1.194,10.002c-35.597,6.159-62.483,34.146-62.483,67.757c0,32.433,25.035,59.628,58.772,67.03
					c4.612,34.188,37.165,60.69,76.665,60.69c25.128,0,47.444-10.729,61.551-27.332c10.385,5.995,22.746,9.489,36.029,9.489
					c36.729,0,66.504-26.608,66.504-59.431c0-0.751-0.033-1.495-0.063-2.239C2195.729,6152.813,2214.076,6132.759,2214.076,6108.871z"
					/>
				<polyline fill="none" stroke="#B5B5B5" stroke-width="5" stroke-miterlimit="10" points="2024.995,6235.735 1989.739,6380.995 
					2117.261,6380.995 2098.444,6307.164 2117.261,6289.063 2110.701,6264.179 2089.913,6273.692 2074.168,6213.53 	"/>
				<path fill="none" stroke="#B5B5B5" stroke-width="5" stroke-miterlimit="10" d="M2170.943,6158.408c0,0-0.08-25.718-12.721-39.729
					c-23.384-25.921-59.617-10.887-59.617-10.887"/>
				<path fill="none" stroke="#B5B5B5" stroke-width="5" stroke-miterlimit="10" d="M2047.023,5994.519c0,0-2.851-24.625,18.922-37.067
					c30.97-17.697,57.651,4.164,57.651,4.164"/>
				<path fill="none" stroke="#B5B5B5" stroke-width="5" stroke-miterlimit="10" d="M1968.234,6116.871
					c-5.777-12.513-0.316-27.34,12.197-33.116c12.513-5.777,27.34-0.316,33.116,12.197"/>
				<path fill="none" stroke="#B5B5B5" stroke-width="5" stroke-miterlimit="10" d="M8406.076,1486.981
					c0-24.877-19.898-45.592-46.247-50.151c0.574-2.387,0.885-4.862,0.885-7.403c0-16.115-12.168-29.681-28.738-33.786
					c2.178-5.406,3.371-11.232,3.371-17.309c0-16.322-8.575-30.845-21.906-40.199c-1.976-36.552-35.759-65.646-77.15-65.646
					c-42.661,0-77.246,30.907-77.246,69.032c0,8.21,1.612,16.082,4.554,23.385c-22.387,5.546-38.826,23.875-38.826,45.646
					c0,3.433,0.418,6.776,1.194,10.002c-35.597,6.159-62.483,34.146-62.483,67.757c0,32.433,25.035,59.628,58.772,67.03
					c4.612,34.188,37.165,60.69,76.665,60.69c25.129,0,47.444-10.729,61.552-27.332c10.385,5.995,22.746,9.489,36.028,9.489
					c36.729,0,66.505-26.608,66.505-59.431c0-0.751-0.033-1.495-0.063-2.239C8387.729,1530.924,8406.076,1510.869,8406.076,1486.981z"
					/>
				<polyline fill="none" stroke="#B5B5B5" stroke-width="5" stroke-miterlimit="10" points="8216.994,1613.846 8181.738,1759.105 
					8309.262,1759.105 8290.444,1685.274 8309.262,1667.173 8302.701,1642.289 8281.913,1651.803 8266.168,1591.64 	"/>
				<path fill="none" stroke="#B5B5B5" stroke-width="5" stroke-miterlimit="10" d="M8362.943,1536.518c0,0-0.08-25.718-12.721-39.729
					c-23.384-25.921-59.617-10.887-59.617-10.887"/>
				<path fill="none" stroke="#B5B5B5" stroke-width="5" stroke-miterlimit="10" d="M8239.023,1372.629c0,0-2.851-24.625,18.922-37.067
					c30.97-17.697,57.651,4.164,57.651,4.164"/>
				<path fill="none" stroke="#B5B5B5" stroke-width="5" stroke-miterlimit="10" d="M8160.233,1494.981
					c-5.777-12.513-0.316-27.34,12.197-33.116c12.513-5.777,27.34-0.316,33.116,12.197"/>
				<path fill="none" stroke="#B5B5B5" stroke-width="5" stroke-miterlimit="10" d="M8406.076,2257.296
					c0-24.877-19.898-45.592-46.247-50.151c0.574-2.387,0.885-4.862,0.885-7.403c0-16.115-12.168-29.681-28.738-33.786
					c2.178-5.406,3.371-11.232,3.371-17.309c0-16.322-8.575-30.845-21.906-40.199c-1.976-36.552-35.759-65.646-77.15-65.646
					c-42.661,0-77.246,30.907-77.246,69.032c0,8.21,1.612,16.082,4.554,23.385c-22.387,5.546-38.826,23.875-38.826,45.646
					c0,3.433,0.418,6.776,1.194,10.002c-35.597,6.159-62.483,34.146-62.483,67.757c0,32.433,25.035,59.628,58.772,67.03
					c4.612,34.188,37.165,60.69,76.665,60.69c25.129,0,47.444-10.729,61.552-27.332c10.385,5.995,22.746,9.489,36.028,9.489
					c36.729,0,66.505-26.608,66.505-59.431c0-0.751-0.033-1.495-0.063-2.239C8387.729,2301.239,8406.076,2281.184,8406.076,2257.296z"
					/>
				<polyline fill="none" stroke="#B5B5B5" stroke-width="5" stroke-miterlimit="10" points="8216.994,2384.161 8181.738,2529.42 
					8309.262,2529.42 8290.444,2455.589 8309.262,2437.488 8302.701,2412.604 8281.913,2422.118 8266.168,2361.955 	"/>
				<path fill="none" stroke="#B5B5B5" stroke-width="5" stroke-miterlimit="10" d="M8362.943,2306.833c0,0-0.08-25.718-12.721-39.729
					c-23.384-25.921-59.617-10.887-59.617-10.887"/>
				<path fill="none" stroke="#B5B5B5" stroke-width="5" stroke-miterlimit="10" d="M8239.023,2142.944c0,0-2.851-24.625,18.922-37.067
					c30.97-17.697,57.651,4.164,57.651,4.164"/>
				<path fill="none" stroke="#B5B5B5" stroke-width="5" stroke-miterlimit="10" d="M8160.233,2265.296
					c-5.777-12.513-0.316-27.34,12.197-33.116c12.513-5.777,27.34-0.316,33.116,12.197"/>
				<path fill="none" stroke="#B5B5B5" stroke-width="5" stroke-miterlimit="10" d="M8406.076,3027.611
					c0-24.877-19.898-45.592-46.247-50.151c0.574-2.387,0.885-4.862,0.885-7.403c0-16.115-12.168-29.681-28.738-33.786
					c2.178-5.406,3.371-11.232,3.371-17.309c0-16.322-8.575-30.845-21.906-40.199c-1.976-36.552-35.759-65.646-77.15-65.646
					c-42.661,0-77.246,30.907-77.246,69.032c0,8.21,1.612,16.082,4.554,23.385c-22.387,5.546-38.826,23.875-38.826,45.646
					c0,3.433,0.418,6.776,1.194,10.002c-35.597,6.159-62.483,34.146-62.483,67.757c0,32.433,25.035,59.628,58.772,67.03
					c4.612,34.188,37.165,60.69,76.665,60.69c25.129,0,47.444-10.729,61.552-27.332c10.385,5.995,22.746,9.489,36.028,9.489
					c36.729,0,66.505-26.608,66.505-59.431c0-0.751-0.033-1.495-0.063-2.239C8387.729,3071.554,8406.076,3051.499,8406.076,3027.611z"
					/>
				<polyline fill="none" stroke="#B5B5B5" stroke-width="5" stroke-miterlimit="10" points="8216.994,3154.476 8181.738,3299.735 
					8309.262,3299.735 8290.444,3225.904 8309.262,3207.803 8302.701,3182.919 8281.913,3192.433 8266.168,3132.27 	"/>
				<path fill="none" stroke="#B5B5B5" stroke-width="5" stroke-miterlimit="10" d="M8362.943,3077.148c0,0-0.08-25.718-12.721-39.729
					c-23.384-25.921-59.617-10.887-59.617-10.887"/>
				<path fill="none" stroke="#B5B5B5" stroke-width="5" stroke-miterlimit="10" d="M8239.023,2913.259c0,0-2.851-24.625,18.922-37.067
					c30.97-17.697,57.651,4.164,57.651,4.164"/>
				<path fill="none" stroke="#B5B5B5" stroke-width="5" stroke-miterlimit="10" d="M8160.233,3035.611
					c-5.777-12.513-0.316-27.34,12.197-33.116c12.513-5.777,27.34-0.316,33.116,12.197"/>
				<path fill="none" stroke="#B5B5B5" stroke-width="5" stroke-miterlimit="10" d="M8406.076,3797.926
					c0-24.877-19.898-45.592-46.247-50.151c0.574-2.387,0.885-4.862,0.885-7.403c0-16.115-12.168-29.681-28.738-33.786
					c2.178-5.406,3.371-11.232,3.371-17.309c0-16.322-8.575-30.845-21.906-40.199c-1.976-36.552-35.759-65.646-77.15-65.646
					c-42.661,0-77.246,30.907-77.246,69.032c0,8.21,1.612,16.082,4.554,23.385c-22.387,5.546-38.826,23.875-38.826,45.646
					c0,3.433,0.418,6.776,1.194,10.002c-35.597,6.159-62.483,34.146-62.483,67.757c0,32.433,25.035,59.628,58.772,67.03
					c4.612,34.188,37.165,60.69,76.665,60.69c25.129,0,47.444-10.729,61.552-27.332c10.385,5.995,22.746,9.489,36.028,9.489
					c36.729,0,66.505-26.608,66.505-59.431c0-0.751-0.033-1.495-0.063-2.239C8387.729,3841.869,8406.076,3821.814,8406.076,3797.926z"
					/>
				<polyline fill="none" stroke="#B5B5B5" stroke-width="5" stroke-miterlimit="10" points="8216.994,3924.791 8181.738,4070.05 
					8309.262,4070.05 8290.444,3996.219 8309.262,3978.118 8302.701,3953.234 8281.913,3962.748 8266.168,3902.585 	"/>
				<path fill="none" stroke="#B5B5B5" stroke-width="5" stroke-miterlimit="10" d="M8362.943,3847.463c0,0-0.08-25.718-12.721-39.729
					c-23.384-25.921-59.617-10.887-59.617-10.887"/>
				<path fill="none" stroke="#B5B5B5" stroke-width="5" stroke-miterlimit="10" d="M8239.023,3683.574c0,0-2.851-24.625,18.922-37.067
					c30.97-17.697,57.651,4.164,57.651,4.164"/>
				<path fill="none" stroke="#B5B5B5" stroke-width="5" stroke-miterlimit="10" d="M8160.233,3805.926
					c-5.777-12.513-0.316-27.34,12.197-33.116c12.513-5.777,27.34-0.316,33.116,12.197"/>
				<path fill="none" stroke="#B5B5B5" stroke-width="5" stroke-miterlimit="10" d="M8406.076,4568.241
					c0-24.877-19.898-45.592-46.247-50.151c0.574-2.387,0.885-4.862,0.885-7.403c0-16.115-12.168-29.681-28.738-33.786
					c2.178-5.406,3.371-11.232,3.371-17.309c0-16.322-8.575-30.845-21.906-40.199c-1.976-36.552-35.759-65.646-77.15-65.646
					c-42.661,0-77.246,30.907-77.246,69.032c0,8.21,1.612,16.082,4.554,23.385c-22.387,5.546-38.826,23.875-38.826,45.646
					c0,3.433,0.418,6.776,1.194,10.002c-35.597,6.159-62.483,34.146-62.483,67.757c0,32.433,25.035,59.628,58.772,67.03
					c4.612,34.188,37.165,60.69,76.665,60.69c25.129,0,47.444-10.729,61.552-27.332c10.385,5.995,22.746,9.489,36.028,9.489
					c36.729,0,66.505-26.608,66.505-59.431c0-0.751-0.033-1.495-0.063-2.239C8387.729,4612.184,8406.076,4592.129,8406.076,4568.241z"
					/>
				<polyline fill="none" stroke="#B5B5B5" stroke-width="5" stroke-miterlimit="10" points="8216.994,4695.105 8181.738,4840.365 
					8309.262,4840.365 8290.444,4766.534 8309.262,4748.433 8302.701,4723.549 8281.913,4733.063 8266.168,4672.9 	"/>
				<path fill="none" stroke="#B5B5B5" stroke-width="5" stroke-miterlimit="10" d="M8362.943,4617.778c0,0-0.08-25.718-12.721-39.729
					c-23.384-25.921-59.617-10.887-59.617-10.887"/>
				<path fill="none" stroke="#B5B5B5" stroke-width="5" stroke-miterlimit="10" d="M8239.023,4453.889c0,0-2.851-24.625,18.922-37.067
					c30.97-17.697,57.651,4.164,57.651,4.164"/>
				<path fill="none" stroke="#B5B5B5" stroke-width="5" stroke-miterlimit="10" d="M8160.233,4576.241
					c-5.777-12.513-0.316-27.34,12.197-33.116c12.513-5.777,27.34-0.316,33.116,12.197"/>
				<path fill="none" stroke="#B5B5B5" stroke-width="5" stroke-miterlimit="10" d="M8406.076,5338.556
					c0-24.877-19.898-45.592-46.247-50.151c0.574-2.387,0.885-4.862,0.885-7.403c0-16.115-12.168-29.681-28.738-33.786
					c2.178-5.406,3.371-11.232,3.371-17.309c0-16.322-8.575-30.845-21.906-40.199c-1.976-36.552-35.759-65.646-77.15-65.646
					c-42.661,0-77.246,30.907-77.246,69.032c0,8.21,1.612,16.082,4.554,23.385c-22.387,5.546-38.826,23.875-38.826,45.646
					c0,3.433,0.418,6.776,1.194,10.002c-35.597,6.159-62.483,34.146-62.483,67.757c0,32.433,25.035,59.628,58.772,67.03
					c4.612,34.188,37.165,60.69,76.665,60.69c25.129,0,47.444-10.729,61.552-27.332c10.385,5.995,22.746,9.489,36.028,9.489
					c36.729,0,66.505-26.608,66.505-59.431c0-0.751-0.033-1.495-0.063-2.239C8387.729,5382.499,8406.076,5362.444,8406.076,5338.556z"
					/>
				<polyline fill="none" stroke="#B5B5B5" stroke-width="5" stroke-miterlimit="10" points="8216.994,5465.42 8181.738,5610.68 
					8309.262,5610.68 8290.444,5536.849 8309.262,5518.748 8302.701,5493.864 8281.913,5503.377 8266.168,5443.215 	"/>
				<path fill="none" stroke="#B5B5B5" stroke-width="5" stroke-miterlimit="10" d="M8362.943,5388.093c0,0-0.08-25.718-12.721-39.729
					c-23.384-25.921-59.617-10.887-59.617-10.887"/>
				<path fill="none" stroke="#B5B5B5" stroke-width="5" stroke-miterlimit="10" d="M8239.023,5224.204c0,0-2.851-24.625,18.922-37.067
					c30.97-17.697,57.651,4.164,57.651,4.164"/>
				<path fill="none" stroke="#B5B5B5" stroke-width="5" stroke-miterlimit="10" d="M8160.233,5346.556
					c-5.777-12.513-0.316-27.34,12.197-33.116c12.513-5.777,27.34-0.316,33.116,12.197"/>
				<path fill="none" stroke="#B5B5B5" stroke-width="5" stroke-miterlimit="10" d="M8406.076,6108.871
					c0-24.877-19.898-45.592-46.247-50.151c0.574-2.387,0.885-4.862,0.885-7.403c0-16.115-12.168-29.681-28.738-33.786
					c2.178-5.406,3.371-11.232,3.371-17.309c0-16.322-8.575-30.845-21.906-40.199c-1.976-36.552-35.759-65.646-77.15-65.646
					c-42.661,0-77.246,30.907-77.246,69.032c0,8.21,1.612,16.082,4.554,23.385c-22.387,5.546-38.826,23.875-38.826,45.646
					c0,3.433,0.418,6.776,1.194,10.002c-35.597,6.159-62.483,34.146-62.483,67.757c0,32.433,25.035,59.628,58.772,67.03
					c4.612,34.188,37.165,60.69,76.665,60.69c25.129,0,47.444-10.729,61.552-27.332c10.385,5.995,22.746,9.489,36.028,9.489
					c36.729,0,66.505-26.608,66.505-59.431c0-0.751-0.033-1.495-0.063-2.239C8387.729,6152.813,8406.076,6132.759,8406.076,6108.871z"
					/>
				<polyline fill="none" stroke="#B5B5B5" stroke-width="5" stroke-miterlimit="10" points="8216.994,6235.735 8181.738,6380.995 
					8309.262,6380.995 8290.444,6307.164 8309.262,6289.063 8302.701,6264.179 8281.913,6273.692 8266.168,6213.53 	"/>
				<path fill="none" stroke="#B5B5B5" stroke-width="5" stroke-miterlimit="10" d="M8362.943,6158.408c0,0-0.08-25.718-12.721-39.729
					c-23.384-25.921-59.617-10.887-59.617-10.887"/>
				<path fill="none" stroke="#B5B5B5" stroke-width="5" stroke-miterlimit="10" d="M8239.023,5994.519c0,0-2.851-24.625,18.922-37.067
					c30.97-17.697,57.651,4.164,57.651,4.164"/>
				<path fill="none" stroke="#B5B5B5" stroke-width="5" stroke-miterlimit="10" d="M8160.233,6116.871
					c-5.777-12.513-0.316-27.34,12.197-33.116c12.513-5.777,27.34-0.316,33.116,12.197"/>
			</g>
		</g>
	</g>
	<g id="labels">
		<text dataSectorId="5d518029727965999159c0cc">VIP</text>
		<text dataSectorId="5d518029727965999159c0cd">Партер</text>
		<text dataSectorId="5d518029727965999159c0ce">Амфитеатр</text>
		<text dataSectorId="5d518029727965999159c0cf">Абонемент</text>
	</g>
	<g id="seats">
		<g dataSectorId="5d518029727965999159c0cc" dataComponent="svg__sector" dataElId="1">
			<g dataComponent="svg__row" dataName="1" dataElId="1">
				<circle fill="#C7C7C7" cx="5405.224" cy="3984.66" r="48" dataComponent="svg__seat" dataName="5d518029727965999159c0cc" />
			</g>
		</g>
		<g dataSectorId="5d518029727965999159c0cd" dataComponent="svg__sector" dataElId="1">
			<g dataComponent="svg__row" dataName="1" dataElId="1">
				<circle fill="#C7C7C7" cx="4248.413" cy="3974.915" r="48" dataComponent="svg__seat" dataName="5d518029727965999159c0cd" />
			</g>
		</g>
		<g dataSectorId="5d518029727965999159c0ce" dataComponent="svg__sector" dataElId="1">
			<g dataComponent="svg__row" dataName="1" dataElId="1">
				<circle fill="#C7C7C7" cx="2984.023" cy="3974.915" r="48" dataComponent="svg__seat" dataName="5d518029727965999159c0ce" />
			</g>
		</g>
		<g dataSectorId="5d518029727965999159c0cf" dataComponent="svg__sector" dataElId="1">
			<g dataComponent="svg__row" dataName="1" dataElId="1">
				<circle fill="#C7C7C7" cx="1509.867" cy="3993.492" r="48" dataComponent="svg__seat" dataName="5d518029727965999159c0cf" />
			</g>
		</g>
	</g>
</svg>
