<?xml version="1.0" encoding="utf-8"?>
<svg version="1.1" id="map-svg" xmlns="http://www.w3.org/2000/svg" xmlns:xlink="http://www.w3.org/1999/xlink" x="0px" y="0px" width="1024" height="768" viewBox="0 0 10240 7680" xml:space="preserve">
	<metadata>
		<?xpacket begin="﻿" id="W5M0MpCehiHzreSzNTczkc9d"?>
		<x:xmpmeta xmlns:x="adobe:ns:meta/" x:xmptk="Adobe XMP Core 5.5-c014 79.151739, 2013/04/03-12:12:15">
			<rdf:RDF xmlns:rdf="http://www.w3.org/1999/02/22-rdf-syntax-ns#">
				<rdf:Description rdf:about="" xmlns:xmp="http://ns.adobe.com/xap/1.0/" xmlns:xmpGImg="http://ns.adobe.com/xap/1.0/g/img/" xmlns:xmpTPg="http://ns.adobe.com/xap/1.0/t/pg/" xmlns:stDim="http://ns.adobe.com/xap/1.0/sType/Dimensions#" xmlns:stFnt="http://ns.adobe.com/xap/1.0/sType/Font#" xmlns:xmpG="http://ns.adobe.com/xap/1.0/g/" xmlns:dc="http://purl.org/dc/elements/1.1/" xmlns:xmpMM="http://ns.adobe.com/xap/1.0/mm/" xmlns:stRef="http://ns.adobe.com/xap/1.0/sType/ResourceRef#" xmlns:stEvt="http://ns.adobe.com/xap/1.0/sType/ResourceEvent#">
					<xmpTPg:MaxPageSize rdf:parseType="Resource">
						<stDim:w>10240.000397</stDim:w>
						<stDim:h>7680.000000</stDim:h>
						<stDim:unit>Points</stDim:unit>
					</xmpTPg:MaxPageSize>
					<xmpTPg:NPages>1</xmpTPg:NPages>
					<xmpTPg:HasVisibleTransparency>False</xmpTPg:HasVisibleTransparency>
					<xmpTPg:HasVisibleOverprint>False</xmpTPg:HasVisibleOverprint>
					<xmpTPg:Fonts>
						<rdf:Bag>
							<rdf:li rdf:parseType="Resource">
								<stFnt:fontName>DINPro</stFnt:fontName>
								<stFnt:fontFamily>DIN Pro</stFnt:fontFamily>
								<stFnt:fontFace>Regular</stFnt:fontFace>
								<stFnt:fontType>TrueType</stFnt:fontType>
								<stFnt:versionString>Version 7.504; 2005; Build 1021</stFnt:versionString>
								<stFnt:composite>False</stFnt:composite>
								<stFnt:fontFileName>DINPro.ttf</stFnt:fontFileName>
							</rdf:li>
						</rdf:Bag>
					</xmpTPg:Fonts>
					<xmpTPg:PlateNames>
						<rdf:Seq>
							<rdf:li>Cyan</rdf:li>
							<rdf:li>Magenta</rdf:li>
							<rdf:li>Yellow</rdf:li>
							<rdf:li>Black</rdf:li>
						</rdf:Seq>
					</xmpTPg:PlateNames>
					<xmpTPg:SwatchGroups>
						<rdf:Seq>
							<rdf:li rdf:parseType="Resource">
								<xmpG:groupName>Default Swatch Group</xmpG:groupName>
								<xmpG:groupType>0</xmpG:groupType>
							</rdf:li>
						</rdf:Seq>
					</xmpTPg:SwatchGroups>
					<dc:format>image/svg+xml</dc:format>
				</rdf:Description>
			</rdf:RDF>
		</x:xmpmeta>
		<?xpacket end="w"?>
	</metadata>
	<g id="background">
		<path name="Входной" tc-sector="5ae2fdc56e55b2023a94c86e" id="5ae2fdc56e55b2023a94c86e" fill="none" stroke="#B5B5B5" stroke-width="5" stroke-miterlimit="10" d="M4855.429,6213.889c0,33-27,60-60,60h-523.674
			c-33,0-60-27-60-60V3036.295c0-33,27-60,60-60h523.674c33,0,60,27,60,60V6213.889z"/>
		<g id="details">
			<path fill="#F5F5F5" d="M3940.714,7024.312c-33,0-60-27-60-60v-287.637c0-33,27-60,60-60H6678.65c33,0,60,27,60,60v287.637
				c0,33-27,60-60,60H3940.714z"/>
			<text transform="matrix(1 0 0 1 5115.1963 6859.4814)" fill="#8A8A8A" font-family="'DINPro-Bold'" font-size="124.2344">Сцена</text>
			<path fill="none" stroke="#B5B5B5" stroke-width="5" stroke-miterlimit="10" d="M4000.5,6213.889c0,33-27,60-60,60h-463.674
				c-33,0-60-27-60-60V3036.295c0-33,27-60,60-60H3940.5c33,0,60,27,60,60V6213.889z"/>
			<text transform="matrix(1 0 0 1 3600.0835 4663.729)" fill="#8A8A8A" font-family="'DINPro-Bold'" font-size="124.2344">Бар</text>
			<text transform="matrix(1 0 0 1 4288.0684 4663.729)" fill="#8A8A8A" font-family="'DINPro-Bold'" font-size="124.2344">Входной</text>
			<path fill="none" stroke="#B5B5B5" stroke-width="5" stroke-miterlimit="10" d="M6978.5,2669.598c0,33-27,60-60,60h-1306
				c-33,0-60-27-60-60V1063.073c0-33,27-60,60-60h1306c33,0,60,27,60,60V2669.598z"/>
			<path fill="none" stroke="#B5B5B5" stroke-width="5" stroke-miterlimit="10" d="M5491.217,888.5c-33,0-60,27-60,60v1664
				c0,33,0.675,60,1.5,60c0.825,0,1.5,27,1.5,60v505.469c0,33-27,60-60,60h-350.789c-33,0-60-27-60-60v-590.624c0-33-27-60-60-60
				H3372.826c-33,0-60,27-60,60v4410.009c0,33,27,60,60,60H7050.5c33,0,60-27,60-60V948.5c0-33-27-60-60-60H5491.217z"/>

			<path fill="none" stroke="#D1D1D1" stroke-width="5" stroke-miterlimit="10" d="M5143.459,6168.173
					c-10.573,0-19.224-8.651-19.224-19.225v-198.748c0-10.574,8.651-19.225,19.224-19.225h195.9
					c10.574,0,19.225,8.651,19.225,19.225v198.747c0,10.574-8.651,19.225-19.225,19.225L5143.459,6168.173L5143.459,6168.173z"/>
			<text transform="matrix(1 0 0 1 5218.2222 6082.0771)" fill="#8A8A8A" font-family="'DINPro'" font-size="88.8423">1</text>
			<path fill="none" stroke="#D1D1D1" stroke-width="5" stroke-miterlimit="10" d="M5143.459,5611.041
					c-10.573,0-19.224-8.651-19.224-19.225v-198.747c0-10.574,8.651-19.225,19.224-19.225h195.9
					c10.574,0,19.225,8.651,19.225,19.225v198.747c0,10.574-8.651,19.225-19.225,19.225H5143.459L5143.459,5611.041z"/>
			<text transform="matrix(1 0 0 1 5218.2217 5524.9448)" fill="#8A8A8A" font-family="'DINPro'" font-size="88.8423">2</text>
			<path fill="none" stroke="#D1D1D1" stroke-width="5" stroke-miterlimit="10" d="M5143.459,5053.909
					c-10.573,0-19.224-8.651-19.224-19.225v-198.748c0-10.574,8.651-19.225,19.224-19.225h195.9
					c10.574,0,19.225,8.651,19.225,19.225v198.747c0,10.574-8.651,19.225-19.225,19.225L5143.459,5053.909L5143.459,5053.909z"/>
			<text transform="matrix(1 0 0 1 5218.2217 4967.813)" fill="#8A8A8A" font-family="'DINPro'" font-size="88.8423">3</text>
			<path fill="none" stroke="#D1D1D1" stroke-width="5" stroke-miterlimit="10" d="M5143.459,4496.777
					c-10.573,0-19.224-8.651-19.224-19.225v-198.748c0-10.573,8.651-19.225,19.224-19.225h195.9
					c10.574,0,19.225,8.651,19.225,19.225v198.748c0,10.573-8.651,19.225-19.225,19.225H5143.459L5143.459,4496.777z"/>
			<text transform="matrix(1 0 0 1 5218.2217 4410.6807)" fill="#8A8A8A" font-family="'DINPro'" font-size="88.8423">4</text>
			<path fill="none" stroke="#D1D1D1" stroke-width="5" stroke-miterlimit="10" d="M5143.459,3939.645
					c-10.573,0-19.224-8.651-19.224-19.225v-198.747c0-10.574,8.651-19.225,19.224-19.225h195.9
					c10.574,0,19.225,8.651,19.225,19.225v198.747c0,10.574-8.651,19.225-19.225,19.225L5143.459,3939.645L5143.459,3939.645z"/>
			<text transform="matrix(1 0 0 1 5218.2217 3853.5486)" fill="#8A8A8A" font-family="'DINPro'" font-size="88.8423">5</text>
			<path fill="none" stroke="#D1D1D1" stroke-width="5" stroke-miterlimit="10" d="M5829.435,3939.645
					c-10.573,0-19.224-8.651-19.224-19.225v-198.747c0-10.574,8.651-19.225,19.224-19.225h195.9
					c10.573,0,19.225,8.651,19.225,19.225v198.747c0,10.574-8.651,19.225-19.225,19.225L5829.435,3939.645L5829.435,3939.645z"/>
			<text transform="matrix(1 0 0 1 5904.1973 3853.5488)" fill="#8A8A8A" font-family="'DINPro'" font-size="88.8423">6</text>
			<path fill="none" stroke="#D1D1D1" stroke-width="5" stroke-miterlimit="10" d="M5829.435,3390.273
					c-10.573,0-19.224-8.651-19.224-19.224v-198.748c0-10.574,8.651-19.225,19.224-19.225h195.9
					c10.573,0,19.225,8.651,19.225,19.225v198.747c0,10.573-8.651,19.225-19.225,19.225H5829.435L5829.435,3390.273z"/>
			<text transform="matrix(1 0 0 1 5904.1973 3304.1768)" fill="#8A8A8A" font-family="'DINPro'" font-size="88.8423">7</text>
			<path fill="none" stroke="#D1D1D1" stroke-width="5" stroke-miterlimit="10" d="M6524.507,6161.965
					c-10.574,0-19.225-8.651-19.225-19.225v-198.747c0-10.574,8.651-19.225,19.225-19.225h195.899
					c10.573,0,19.225,8.651,19.225,19.225v198.747c0,10.574-8.651,19.225-19.225,19.225H6524.507L6524.507,6161.965z"/>
			<text transform="matrix(1 0 0 1 6599.2695 6075.8687)" fill="#8A8A8A" font-family="'DINPro'" font-size="88.8423">8</text>
			<path fill="none" stroke="#D1D1D1" stroke-width="5" stroke-miterlimit="10" d="M6524.507,5606.385
					c-10.574,0-19.225-8.651-19.225-19.224v-198.748c0-10.574,8.651-19.225,19.225-19.225h195.899
					c10.573,0,19.225,8.651,19.225,19.225v198.747c0,10.574-8.651,19.225-19.225,19.225H6524.507L6524.507,5606.385z"/>
			<text transform="matrix(1 0 0 1 6599.2695 5520.2886)" fill="#8A8A8A" font-family="'DINPro'" font-size="88.8423">9</text>
			<path fill="none" stroke="#D1D1D1" stroke-width="5" stroke-miterlimit="10" d="M6524.507,5050.805
					c-10.574,0-19.225-8.651-19.225-19.224v-198.748c0-10.574,8.651-19.225,19.225-19.225h195.899
					c10.573,0,19.225,8.651,19.225,19.225v198.747c0,10.574-8.651,19.225-19.225,19.225H6524.507L6524.507,5050.805z"/>
			<text transform="matrix(1 0 0 1 6576.0825 4964.7085)" fill="#8A8A8A" font-family="'DINPro'" font-size="88.8423">10</text>
			<path fill="none" stroke="#D1D1D1" stroke-width="5" stroke-miterlimit="10" d="M6524.507,4495.225
					c-10.574,0-19.225-8.651-19.225-19.225v-198.748c0-10.574,8.651-19.225,19.225-19.225h195.899
					c10.573,0,19.225,8.651,19.225,19.225V4476c0,10.574-8.651,19.225-19.225,19.225L6524.507,4495.225L6524.507,4495.225z"/>
			<text transform="matrix(1 0 0 1 6576.0825 4409.1289)" fill="#8A8A8A" font-family="'DINPro'" font-size="88.8423">11</text>
			<path fill="none" stroke="#D1D1D1" stroke-width="5" stroke-miterlimit="10" d="M6524.507,3939.645
					c-10.574,0-19.225-8.651-19.225-19.225v-198.747c0-10.574,8.651-19.225,19.225-19.225h195.899
					c10.573,0,19.225,8.651,19.225,19.225v198.747c0,10.574-8.651,19.225-19.225,19.225L6524.507,3939.645L6524.507,3939.645z"/>
			<text transform="matrix(1 0 0 1 6576.0825 3853.5486)" fill="#8A8A8A" font-family="'DINPro'" font-size="88.8423">12</text>
			<path fill="none" stroke="#D1D1D1" stroke-width="5" stroke-miterlimit="10" d="M6524.507,3384.065
					c-10.574,0-19.225-8.651-19.225-19.225v-198.747c0-10.573,8.651-19.225,19.225-19.225h195.899
					c10.573,0,19.225,8.651,19.225,19.225v198.747c0,10.573-8.651,19.225-19.225,19.225H6524.507L6524.507,3384.065z"/>
			<text transform="matrix(1 0 0 1 6576.0825 3297.9685)" fill="#8A8A8A" font-family="'DINPro'" font-size="88.8423">13</text>
			<path fill="none" stroke="#D1D1D1" stroke-width="5" stroke-miterlimit="10" d="M5829.435,2223.937
					c-10.573,0-19.224-8.651-19.224-19.225v-198.748c0-10.573,8.651-19.225,19.224-19.225h195.9
					c10.573,0,19.225,8.651,19.225,19.225v198.747c0,10.574-8.651,19.225-19.225,19.225L5829.435,2223.937L5829.435,2223.937z"/>
			<text transform="matrix(1 0 0 1 5881.0103 2137.8408)" fill="#8A8A8A" font-family="'DINPro'" font-size="88.8423">14</text>
			<path fill="none" stroke="#D1D1D1" stroke-width="5" stroke-miterlimit="10" d="M5829.435,1497.121
					c-10.573,0-19.224-8.651-19.224-19.224v-198.748c0-10.573,8.651-19.225,19.224-19.225h195.9
					c10.573,0,19.225,8.651,19.225,19.225v198.747c0,10.574-8.651,19.225-19.225,19.225L5829.435,1497.121L5829.435,1497.121z"/>
			<text transform="matrix(1 0 0 1 5881.0103 1411.0254)" fill="#8A8A8A" font-family="'DINPro'" font-size="88.8423">15</text>
			<path fill="none" stroke="#D1D1D1" stroke-width="5" stroke-miterlimit="10" d="M6522.111,2587.345
					c-10.573,0-19.225-8.651-19.225-19.225v-198.747c0-10.574,8.651-19.225,19.225-19.225h195.899
					c10.574,0,19.225,8.651,19.225,19.225v198.747c0,10.573-8.651,19.224-19.225,19.224L6522.111,2587.345L6522.111,2587.345z"/>
			<text transform="matrix(1 0 0 1 6573.6865 2501.2485)" fill="#8A8A8A" font-family="'DINPro'" font-size="88.8423">16</text>
			<path fill="none" stroke="#D1D1D1" stroke-width="5" stroke-miterlimit="10" d="M6522.111,2223.937
					c-10.573,0-19.225-8.651-19.225-19.225v-198.748c0-10.573,8.651-19.225,19.225-19.225h195.899
					c10.574,0,19.225,8.651,19.225,19.225v198.747c0,10.574-8.651,19.225-19.225,19.225L6522.111,2223.937L6522.111,2223.937z"/>
			<text transform="matrix(1 0 0 1 6573.6865 2137.8408)" fill="#8A8A8A" font-family="'DINPro'" font-size="88.8423">17</text>
			<path fill="none" stroke="#D1D1D1" stroke-width="5" stroke-miterlimit="10" d="M6522.111,1860.529
					c-10.573,0-19.225-8.651-19.225-19.224v-198.747c0-10.574,8.651-19.225,19.225-19.225h195.899
					c10.574,0,19.225,8.651,19.225,19.225v198.747c0,10.574-8.651,19.225-19.225,19.225H6522.111L6522.111,1860.529z"/>
			<text transform="matrix(1 0 0 1 6573.6865 1774.4331)" fill="#8A8A8A" font-family="'DINPro'" font-size="88.8423">18</text>
			<path fill="none" stroke="#D1D1D1" stroke-width="5" stroke-miterlimit="10" d="M6522.111,1497.121
					c-10.573,0-19.225-8.651-19.225-19.224v-198.748c0-10.574,8.651-19.225,19.225-19.225h195.899
					c10.574,0,19.225,8.651,19.225,19.225v198.747c0,10.574-8.651,19.225-19.225,19.225L6522.111,1497.121L6522.111,1497.121z"/>
			<text transform="matrix(1 0 0 1 6573.6865 1411.0254)" fill="#8A8A8A" font-family="'DINPro'" font-size="88.8423">19</text>
		</g>
	</g>
	<g id="labels">
		<text dataSectorId="5ae2fdc56e55b2023a94c86e">Входной</text>
		<text dataSectorId="5ae2fdc56e55b2023a94c86f">Стол 1</text>
		<text dataSectorId="5ae2fdc56e55b2023a94c870">Стол 2</text>
		<text dataSectorId="5ae2fdc56e55b2023a94c871">Стол 3</text>
		<text dataSectorId="5ae2fdc56e55b2023a94c872">Стол 4</text>
		<text dataSectorId="5ae2fdc56e55b2023a94c873">Стол 5</text>
		<text dataSectorId="5ae2fdc56e55b2023a94c874">Стол 6</text>
		<text dataSectorId="5ae2fdc56e55b2023a94c875">Стол 7</text>
		<text dataSectorId="5ae2fdc56e55b2023a94c876">Стол 8</text>
		<text dataSectorId="5ae2fdc56e55b2023a94c877">Стол 9</text>
		<text dataSectorId="5ae2fdc56e55b2023a94c878">Стол 10</text>
		<text dataSectorId="5ae2fdc56e55b2023a94c879">Стол 11</text>
		<text dataSectorId="5ae2fdc56e55b2023a94c87a">Стол 12</text>
		<text dataSectorId="5ae2fdc56e55b2023a94c87b">Стол 13</text>
		<text dataSectorId="5ae2fdc56e55b2023a94c87c">Стол 14</text>
		<text dataSectorId="5ae2fdc56e55b2023a94c87d">Стол 15</text>
		<text dataSectorId="5ae2fdc56e55b2023a94c87e">Стол 16</text>
		<text dataSectorId="5ae2fdc56e55b2023a94c87f">Стол 17</text>
		<text dataSectorId="5ae2fdc56e55b2023a94c880">Стол 18</text>
		<text dataSectorId="5ae2fdc56e55b2023a94c881">Стол 19</text>
	</g>
	<g id="seats">
		<g dataSectorId="5ae2fdc56e55b2023a94c86e" dataComponent="svg__sector" dataElId="1">
			<g dataComponent="svg__row" dataName="1" dataElId="1">
				<circle fill="#C7C7C7" cx="4534.842" cy="4785.171" r="42" dataComponent="svg__seat" dataName="5ae2fdc56e55b2023a94c86e"/>
			</g>
		</g>
		<g dataSectorId="5ae2fdc56e55b2023a94c86f" dataComponent="svg__sector" dataElId="2">
			<g dataComponent="svg__row" dataName="1" dataElId="1">
				<circle fill="#C7C7C7" cx="5427.743" cy="6055.783" r="33.09" dataComponent="svg__seat" dataName="5ae2fdc56e55b2023a94c86f"/>
				<circle fill="#C7C7C7" cx="5055.076" cy="6055.783" r="33.09" dataComponent="svg__seat" dataName="5ae2fdc56e55b2023a94c86f"/>
				<circle fill="#C7C7C7" cx="5241.409" cy="6242.117" r="33.09" dataComponent="svg__seat" dataName="5ae2fdc56e55b2023a94c86f"/>
				<circle fill="#C7C7C7" cx="5241.409" cy="5869.45" r="33.09" dataComponent="svg__seat" dataName="5ae2fdc56e55b2023a94c86f"/>
			</g>
		</g>
		<g dataSectorId="5ae2fdc56e55b2023a94c870" dataComponent="svg__sector" dataElId="3">
			<g dataComponent="svg__row" dataName="1" dataElId="1">
				<circle fill="#C7C7C7" cx="5427.743" cy="5498.651" r="33.09" dataComponent="svg__seat" dataName="5ae2fdc56e55b2023a94c870"/>
				<circle fill="#C7C7C7" cx="5055.076" cy="5498.651" r="33.09" dataComponent="svg__seat" dataName="5ae2fdc56e55b2023a94c870"/>
				<circle fill="#C7C7C7" cx="5241.409" cy="5684.984" r="33.09" dataComponent="svg__seat" dataName="5ae2fdc56e55b2023a94c870"/>
				<circle fill="#C7C7C7" cx="5241.409" cy="5312.318" r="33.09" dataComponent="svg__seat" dataName="5ae2fdc56e55b2023a94c870"/>
			</g>
		</g>
		<g dataSectorId="5ae2fdc56e55b2023a94c871" dataComponent="svg__sector" dataElId="4">
			<g dataComponent="svg__row" dataName="1" dataElId="1">
				<circle fill="#C7C7C7" cx="5427.743" cy="4941.519" r="33.09" dataComponent="svg__seat" dataName="5ae2fdc56e55b2023a94c871"/>
				<circle fill="#C7C7C7" cx="5055.076" cy="4941.519" r="33.09" dataComponent="svg__seat" dataName="5ae2fdc56e55b2023a94c871"/>
				<circle fill="#C7C7C7" cx="5241.409" cy="5127.852" r="33.09" dataComponent="svg__seat" dataName="5ae2fdc56e55b2023a94c871"/>
				<circle fill="#C7C7C7" cx="5241.409" cy="4755.186" r="33.09" dataComponent="svg__seat" dataName="5ae2fdc56e55b2023a94c871"/>
			</g>
		</g>
		<g dataSectorId="5ae2fdc56e55b2023a94c872" dataComponent="svg__sector" dataElId="5">
			<g dataComponent="svg__row" dataName="1" dataElId="1">
				<circle fill="#C7C7C7" cx="5427.743" cy="4384.387" r="33.09" dataComponent="svg__seat" dataName="5ae2fdc56e55b2023a94c872"/>
				<circle fill="#C7C7C7" cx="5055.076" cy="4384.387" r="33.09" dataComponent="svg__seat" dataName="5ae2fdc56e55b2023a94c872"/>
				<circle fill="#C7C7C7" cx="5241.409" cy="4570.72" r="33.09" dataComponent="svg__seat" dataName="5ae2fdc56e55b2023a94c872"/>
				<circle fill="#C7C7C7" cx="5241.409" cy="4198.053" r="33.09" dataComponent="svg__seat" dataName="5ae2fdc56e55b2023a94c872"/>
			</g>
		</g>
		<g dataSectorId="5ae2fdc56e55b2023a94c873" dataComponent="svg__sector" dataElId="6">
			<g dataComponent="svg__row" dataName="1" dataElId="1">
				<circle fill="#C7C7C7" cx="5427.743" cy="3827.255" r="33.09" dataComponent="svg__seat" dataName="5ae2fdc56e55b2023a94c873"/>
				<circle fill="#C7C7C7" cx="5055.076" cy="3827.255" r="33.09" dataComponent="svg__seat" dataName="5ae2fdc56e55b2023a94c873"/>
				<circle fill="#C7C7C7" cx="5241.409" cy="4013.588" r="33.09" dataComponent="svg__seat" dataName="5ae2fdc56e55b2023a94c873"/>
				<circle fill="#C7C7C7" cx="5241.409" cy="3640.921" r="33.09" dataComponent="svg__seat" dataName="5ae2fdc56e55b2023a94c873"/>
			</g>
		</g>
		<g dataSectorId="5ae2fdc56e55b2023a94c874" dataComponent="svg__sector" dataElId="7">
			<g dataComponent="svg__row" dataName="1" dataElId="1">
				<circle fill="#C7C7C7" cx="6113.718" cy="3827.255" r="33.09" dataComponent="svg__seat" dataName="5ae2fdc56e55b2023a94c874"/>
				<circle fill="#C7C7C7" cx="5741.051" cy="3827.255" r="33.09" dataComponent="svg__seat" dataName="5ae2fdc56e55b2023a94c874"/>
				<circle fill="#C7C7C7" cx="5927.385" cy="4013.588" r="33.09" dataComponent="svg__seat" dataName="5ae2fdc56e55b2023a94c874"/>
				<circle fill="#C7C7C7" cx="5927.385" cy="3640.921" r="33.09" dataComponent="svg__seat" dataName="5ae2fdc56e55b2023a94c874"/>
			</g>
		</g>
		<g dataSectorId="5ae2fdc56e55b2023a94c875" dataComponent="svg__sector" dataElId="8">
			<g dataComponent="svg__row" dataName="1" dataElId="1">
				<circle fill="#C7C7C7" cx="6113.718" cy="3277.883" r="33.09" dataComponent="svg__seat" dataName="5ae2fdc56e55b2023a94c875"/>
				<circle fill="#C7C7C7" cx="5741.051" cy="3277.883" r="33.09" dataComponent="svg__seat" dataName="5ae2fdc56e55b2023a94c875"/>
				<circle fill="#C7C7C7" cx="5927.385" cy="3464.216" r="33.09" dataComponent="svg__seat" dataName="5ae2fdc56e55b2023a94c875"/>
				<circle fill="#C7C7C7" cx="5927.385" cy="3091.55" r="33.09" dataComponent="svg__seat" dataName="5ae2fdc56e55b2023a94c875"/>
			</g>
		</g>
		<g dataSectorId="5ae2fdc56e55b2023a94c876" dataComponent="svg__sector" dataElId="9">
			<g dataComponent="svg__row" dataName="1" dataElId="1">
				<circle fill="#C7C7C7" cx="6808.791" cy="6049.575" r="33.09" dataComponent="svg__seat" dataName="5ae2fdc56e55b2023a94c876"/>
				<circle fill="#C7C7C7" cx="6436.124" cy="6049.575" r="33.09" dataComponent="svg__seat" dataName="5ae2fdc56e55b2023a94c876"/>
				<circle fill="#C7C7C7" cx="6622.457" cy="6235.908" r="33.09" dataComponent="svg__seat" dataName="5ae2fdc56e55b2023a94c876"/>
				<circle fill="#C7C7C7" cx="6622.457" cy="5863.242" r="33.09" dataComponent="svg__seat" dataName="5ae2fdc56e55b2023a94c876"/>
			</g>
		</g>
		<g dataSectorId="5ae2fdc56e55b2023a94c877" dataComponent="svg__sector" dataElId="10">
			<g dataComponent="svg__row" dataName="1" dataElId="1">
				<circle fill="#C7C7C7" cx="6808.791" cy="5493.995" r="33.09" dataComponent="svg__seat" dataName="5ae2fdc56e55b2023a94c877"/>
				<circle fill="#C7C7C7" cx="6436.124" cy="5493.995" r="33.09" dataComponent="svg__seat" dataName="5ae2fdc56e55b2023a94c877"/>
				<circle fill="#C7C7C7" cx="6622.457" cy="5680.328" r="33.09" dataComponent="svg__seat" dataName="5ae2fdc56e55b2023a94c877"/>
				<circle fill="#C7C7C7" cx="6622.457" cy="5307.662" r="33.09" dataComponent="svg__seat" dataName="5ae2fdc56e55b2023a94c877"/>
			</g>
		</g>
		<g dataSectorId="5ae2fdc56e55b2023a94c878" dataComponent="svg__sector" dataElId="11">
			<g dataComponent="svg__row" dataName="1" dataElId="1">
				<circle fill="#C7C7C7" cx="6808.791" cy="4938.415" r="33.09" dataComponent="svg__seat" dataName="5ae2fdc56e55b2023a94c878"/>
				<circle fill="#C7C7C7" cx="6436.124" cy="4938.415" r="33.09" dataComponent="svg__seat" dataName="5ae2fdc56e55b2023a94c878"/>
				<circle fill="#C7C7C7" cx="6622.457" cy="5124.748" r="33.09" dataComponent="svg__seat" dataName="5ae2fdc56e55b2023a94c878"/>
				<circle fill="#C7C7C7" cx="6622.457" cy="4752.082" r="33.09" dataComponent="svg__seat" dataName="5ae2fdc56e55b2023a94c878"/>
			</g>
		</g>
		<g dataSectorId="5ae2fdc56e55b2023a94c879" dataComponent="svg__sector" dataElId="12">
			<g dataComponent="svg__row" dataName="1" dataElId="1">
				<circle fill="#C7C7C7" cx="6808.791" cy="4382.835" r="33.09" dataComponent="svg__seat" dataName="5ae2fdc56e55b2023a94c879"/>
				<circle fill="#C7C7C7" cx="6436.124" cy="4382.835" r="33.09" dataComponent="svg__seat" dataName="5ae2fdc56e55b2023a94c879"/>
				<circle fill="#C7C7C7" cx="6622.457" cy="4569.168" r="33.09" dataComponent="svg__seat" dataName="5ae2fdc56e55b2023a94c879"/>
				<circle fill="#C7C7C7" cx="6622.457" cy="4196.501" r="33.09" dataComponent="svg__seat" dataName="5ae2fdc56e55b2023a94c879"/>
			</g>
		</g>
		<g dataSectorId="5ae2fdc56e55b2023a94c87a" dataComponent="svg__sector" dataElId="13">
			<g dataComponent="svg__row" dataName="1" dataElId="1">
				<circle fill="#C7C7C7" cx="6808.791" cy="3827.255" r="33.09" dataComponent="svg__seat" dataName="5ae2fdc56e55b2023a94c87a"/>
				<circle fill="#C7C7C7" cx="6436.124" cy="3827.255" r="33.09" dataComponent="svg__seat" dataName="5ae2fdc56e55b2023a94c87a"/>
				<circle fill="#C7C7C7" cx="6622.457" cy="4013.588" r="33.09" dataComponent="svg__seat" dataName="5ae2fdc56e55b2023a94c87a"/>
				<circle fill="#C7C7C7" cx="6622.457" cy="3640.921" r="33.09" dataComponent="svg__seat" dataName="5ae2fdc56e55b2023a94c87a"/>
			</g>
		</g>
		<g dataSectorId="5ae2fdc56e55b2023a94c87b" dataComponent="svg__sector" dataElId="14">
			<g dataComponent="svg__row" dataName="1" dataElId="1">
				<circle fill="#C7C7C7" cx="6808.791" cy="3271.675" r="33.09" dataComponent="svg__seat" dataName="5ae2fdc56e55b2023a94c87b"/>
				<circle fill="#C7C7C7" cx="6436.124" cy="3271.675" r="33.09" dataComponent="svg__seat" dataName="5ae2fdc56e55b2023a94c87b"/>
				<circle fill="#C7C7C7" cx="6622.457" cy="3458.008" r="33.09" dataComponent="svg__seat" dataName="5ae2fdc56e55b2023a94c87b"/>
				<circle fill="#C7C7C7" cx="6622.457" cy="3085.341" r="33.09" dataComponent="svg__seat" dataName="5ae2fdc56e55b2023a94c87b"/>
			</g>
		</g>
		<g dataSectorId="5ae2fdc56e55b2023a94c87c" dataComponent="svg__sector" dataElId="15">
			<g dataComponent="svg__row" dataName="1" dataElId="1">
				<circle fill="#C7C7C7" cx="6113.718" cy="2111.547" r="33.09" dataComponent="svg__seat" dataName="5ae2fdc56e55b2023a94c87c"/>
				<circle fill="#C7C7C7" cx="5741.051" cy="2111.547" r="33.09" dataComponent="svg__seat" dataName="5ae2fdc56e55b2023a94c87c"/>
				<circle fill="#C7C7C7" cx="5927.385" cy="2297.88" r="33.09" dataComponent="svg__seat" dataName="5ae2fdc56e55b2023a94c87c"/>
				<circle fill="#C7C7C7" cx="5927.385" cy="1925.213" r="33.09" dataComponent="svg__seat" dataName="5ae2fdc56e55b2023a94c87c"/>
			</g>
		</g>
		<g dataSectorId="5ae2fdc56e55b2023a94c87d" dataComponent="svg__sector" dataElId="16">
			<g dataComponent="svg__row" dataName="1" dataElId="1">
				<circle fill="#C7C7C7" cx="6113.718" cy="1384.731" r="33.09" dataComponent="svg__seat" dataName="5ae2fdc56e55b2023a94c87d"/>
				<circle fill="#C7C7C7" cx="5741.051" cy="1384.731" r="33.09" dataComponent="svg__seat" dataName="5ae2fdc56e55b2023a94c87d"/>
				<circle fill="#C7C7C7" cx="5927.385" cy="1571.064" r="33.09" dataComponent="svg__seat" dataName="5ae2fdc56e55b2023a94c87d"/>
				<circle fill="#C7C7C7" cx="5927.385" cy="1198.398" r="33.09" dataComponent="svg__seat" dataName="5ae2fdc56e55b2023a94c87d"/>
			</g>
		</g>
		<g dataSectorId="5ae2fdc56e55b2023a94c87e" dataComponent="svg__sector" dataElId="17">
			<g dataComponent="svg__row" dataName="1" dataElId="1">
				<circle fill="#C7C7C7" cx="6806.394" cy="2474.955" r="33.09" dataComponent="svg__seat" dataName="5ae2fdc56e55b2023a94c87e"/>
				<circle fill="#C7C7C7" cx="6433.728" cy="2474.955" r="33.09" dataComponent="svg__seat" dataName="5ae2fdc56e55b2023a94c87e"/>
			</g>
		</g>
		<g dataSectorId="5ae2fdc56e55b2023a94c87f" dataComponent="svg__sector" dataElId="18">
			<g dataComponent="svg__row" dataName="1" dataElId="1">
				<circle fill="#C7C7C7" cx="6806.394" cy="2111.547" r="33.09" dataComponent="svg__seat" dataName="5ae2fdc56e55b2023a94c87f"/>
				<circle fill="#C7C7C7" cx="6433.728" cy="2111.547" r="33.09" dataComponent="svg__seat" dataName="5ae2fdc56e55b2023a94c87f"/>
			</g>
		</g>
		<g dataSectorId="5ae2fdc56e55b2023a94c880" dataComponent="svg__sector" dataElId="19">
			<g dataComponent="svg__row" dataName="1" dataElId="1">
				<circle fill="#C7C7C7" cx="6806.394" cy="1748.139" r="33.09" dataComponent="svg__seat" dataName="5ae2fdc56e55b2023a94c880"/>
				<circle fill="#C7C7C7" cx="6433.728" cy="1748.139" r="33.09" dataComponent="svg__seat" dataName="5ae2fdc56e55b2023a94c880"/>
			</g>
		</g>
		<g dataSectorId="5ae2fdc56e55b2023a94c881" dataComponent="svg__sector" dataElId="19">
			<g dataComponent="svg__row" dataName="1" dataElId="1">
				<circle fill="#C7C7C7" cx="6806.394" cy="1384.731" r="33.09" dataComponent="svg__seat" dataName="5ae2fdc56e55b2023a94c881"/>
				<circle fill="#C7C7C7" cx="6433.728" cy="1384.731" r="33.09" dataComponent="svg__seat" dataName="5ae2fdc56e55b2023a94c881"/>
			</g>
		</g>
	</g>
</svg>
