<?xml version="1.0" encoding="utf-8"?>
<svg version="1.1" id="map-svg" xmlns="http://www.w3.org/2000/svg" xmlns:xlink="http://www.w3.org/1999/xlink" x="0px" y="0px" width="1024" height="768" viewBox="0 0 10240 7680" xml:space="preserve">
	<metadata>
		<?xpacket begin="﻿" id="W5M0MpCehiHzreSzNTczkc9d"?>
		<x:xmpmeta xmlns:x="adobe:ns:meta/" x:xmptk="Adobe XMP Core 5.5-c014 79.151739, 2013/04/03-12:12:15">
			<rdf:RDF xmlns:rdf="http://www.w3.org/1999/02/22-rdf-syntax-ns#">
				<rdf:Description rdf:about="" xmlns:xmp="http://ns.adobe.com/xap/1.0/" xmlns:xmpGImg="http://ns.adobe.com/xap/1.0/g/img/" xmlns:xmpTPg="http://ns.adobe.com/xap/1.0/t/pg/" xmlns:stDim="http://ns.adobe.com/xap/1.0/sType/Dimensions#" xmlns:stFnt="http://ns.adobe.com/xap/1.0/sType/Font#" xmlns:xmpG="http://ns.adobe.com/xap/1.0/g/" xmlns:dc="http://purl.org/dc/elements/1.1/" xmlns:xmpMM="http://ns.adobe.com/xap/1.0/mm/" xmlns:stRef="http://ns.adobe.com/xap/1.0/sType/ResourceRef#" xmlns:stEvt="http://ns.adobe.com/xap/1.0/sType/ResourceEvent#">
					<xmpTPg:MaxPageSize rdf:parseType="Resource">
						<stDim:w>10240.000397</stDim:w>
						<stDim:h>7680.000000</stDim:h>
						<stDim:unit>Points</stDim:unit>
					</xmpTPg:MaxPageSize>
					<xmpTPg:NPages>1</xmpTPg:NPages>
					<xmpTPg:HasVisibleTransparency>False</xmpTPg:HasVisibleTransparency>
					<xmpTPg:HasVisibleOverprint>False</xmpTPg:HasVisibleOverprint>
					<xmpTPg:Fonts>
						<rdf:Bag>
							<rdf:li rdf:parseType="Resource">
								<stFnt:fontName>DINPro</stFnt:fontName>
								<stFnt:fontFamily>DIN Pro</stFnt:fontFamily>
								<stFnt:fontFace>Regular</stFnt:fontFace>
								<stFnt:fontType>TrueType</stFnt:fontType>
								<stFnt:versionString>Version 7.504; 2005; Build 1021</stFnt:versionString>
								<stFnt:composite>False</stFnt:composite>
								<stFnt:fontFileName>DINPro.ttf</stFnt:fontFileName>
							</rdf:li>
						</rdf:Bag>
					</xmpTPg:Fonts>
					<xmpTPg:PlateNames>
						<rdf:Seq>
							<rdf:li>Cyan</rdf:li>
							<rdf:li>Magenta</rdf:li>
							<rdf:li>Yellow</rdf:li>
							<rdf:li>Black</rdf:li>
						</rdf:Seq>
					</xmpTPg:PlateNames>
					<xmpTPg:SwatchGroups>
						<rdf:Seq>
							<rdf:li rdf:parseType="Resource">
								<xmpG:groupName>Default Swatch Group</xmpG:groupName>
								<xmpG:groupType>0</xmpG:groupType>
							</rdf:li>
						</rdf:Seq>
					</xmpTPg:SwatchGroups>
					<dc:format>image/svg+xml</dc:format>
				</rdf:Description>
			</rdf:RDF>
		</x:xmpmeta>
		<?xpacket end="w"?>
	</metadata>
	<g id="background">
		<path name="Столы" tc-sector="5f1e5f8b841fd1232b2be947" id="5f1e5f8b841fd1232b2be947" fill="none" stroke="#B5B5B5" stroke-width="5" stroke-miterlimit="10" d="M7274.304,6428.447c0,33-27,60-60,60H4408.5
			c-33,0-60-27-60-60v-5717.8c0-33,27-60,60-60h2805.803c33,0,60,27,60,60V6428.447z"/>
		<g id="details">
			<path fill="none" stroke="#B5B5B5" stroke-width="5" stroke-miterlimit="10" d="M7366.833,7057.353c0,33-27,60-60,60H2933.168
				c-33,0-60-27-60-60V622.647c0-33,27-60,60-60h4373.665c33,0,60,27,60,60V7057.353z"/>
			<path fill="#F5F5F5" d="M3501.056,7024.312c-33,0-60-27-60-60v-287.637c0-33,27-60,60-60H6678.65c33,0,60,27,60,60v287.637
				c0,33-27,60-60,60H3501.056z"/>
			<text transform="matrix(1 0 0 1 4941.7881 6856.479)" fill="#8A8A8A" font-family="'DINPro-Bold'" font-size="124.2344">Сцена</text>
			<path fill="none" stroke="#B5B5B5" stroke-width="5" stroke-miterlimit="10" d="M3560.842,6213.889c0,33-27,60-60,60h-463.674
				c-33,0-60-27-60-60V3036.295c0-33,27-60,60-60h463.674c33,0,60,27,60,60V6213.889z"/>
			<text transform="matrix(1 0 0 1 3160.425 4663.729)" fill="#8A8A8A" font-family="'DINPro-Bold'" font-size="124.2344">Бар</text>
			<path fill="none" stroke="#B5B5B5" stroke-width="5" stroke-miterlimit="10" d="M7194.896,2669.598c0,33-27,60-60,60H4979.572
				c-33,0-60-27-60-60V793.219c0-33,27-60,60-60h2155.325c33,0,60,27,60,60V2669.598z"/>
			<text transform="matrix(1 0 0 1 5057.9575 2587.3447)" fill="#8A8A8A" font-family="'DINPro-Bold'" font-size="124.2344">Балкон</text>

			<path fill="none" stroke="#D1D1D1" stroke-width="5" stroke-miterlimit="10" d="M4889.343,6301.047
					c-10.573,0-19.225-8.651-19.225-19.225v-198.748c0-10.573,8.651-19.225,19.225-19.225h195.9
					c10.573,0,19.225,8.651,19.225,19.225v198.748c0,10.573-8.651,19.225-19.225,19.225H4889.343L4889.343,6301.047z"/>
			<text transform="matrix(1 0 0 1 4964.106 6214.9507)" fill="#8A8A8A" font-family="'DINPro'" font-size="88.8423">1</text>
			<path fill="none" stroke="#D1D1D1" stroke-width="5" stroke-miterlimit="10" d="M4889.343,5755.074
					c-10.573,0-19.225-8.651-19.225-19.225v-198.748c0-10.573,8.651-19.225,19.225-19.225h195.9
					c10.573,0,19.225,8.651,19.225,19.225v198.748c0,10.573-8.651,19.225-19.225,19.225H4889.343L4889.343,5755.074z"/>
			<text transform="matrix(1 0 0 1 4964.106 5668.978)" fill="#8A8A8A" font-family="'DINPro'" font-size="88.8423">2</text>
			<path fill="none" stroke="#D1D1D1" stroke-width="5" stroke-miterlimit="10" d="M4889.343,5211.074
					c-10.573,0-19.225-8.651-19.225-19.225v-198.748c0-10.573,8.651-19.225,19.225-19.225h195.9
					c10.573,0,19.225,8.651,19.225,19.225v198.748c0,10.573-8.651,19.225-19.225,19.225H4889.343L4889.343,5211.074z"/>
			<text transform="matrix(1 0 0 1 4964.106 5124.978)" fill="#8A8A8A" font-family="'DINPro'" font-size="88.8423">3</text>
			<path fill="none" stroke="#D1D1D1" stroke-width="5" stroke-miterlimit="10" d="M4889.343,4667.074
					c-10.573,0-19.225-8.651-19.225-19.225v-198.748c0-10.573,8.651-19.225,19.225-19.225h195.9
					c10.573,0,19.225,8.651,19.225,19.225v198.748c0,10.573-8.651,19.225-19.225,19.225H4889.343L4889.343,4667.074z"/>
			<text transform="matrix(1 0 0 1 4964.106 4580.978)" fill="#8A8A8A" font-family="'DINPro'" font-size="88.8423">4</text>
			<path fill="none" stroke="#D1D1D1" stroke-width="5" stroke-miterlimit="10" d="M4889.343,3577.965
					c-10.573,0-19.225-8.651-19.225-19.225v-198.747c0-10.574,8.651-19.225,19.225-19.225h195.9
					c10.573,0,19.225,8.651,19.225,19.225v198.747c0,10.574-8.651,19.225-19.225,19.225L4889.343,3577.965L4889.343,3577.965z"/>
			<text transform="matrix(1 0 0 1 4964.106 3491.8691)" fill="#8A8A8A" font-family="'DINPro'" font-size="88.8423">5</text>
			<path fill="none" stroke="#D1D1D1" stroke-width="5" stroke-miterlimit="10" d="M5801.435,4423.562
					c-10.573,0-19.224-8.651-19.224-19.225V4205.59c0-10.574,8.651-19.225,19.224-19.225h195.9c10.573,0,19.225,8.651,19.225,19.225
					v198.747c0,10.573-8.651,19.225-19.225,19.225H5801.435L5801.435,4423.562z"/>
			<text transform="matrix(1 0 0 1 5876.1973 4337.4653)" fill="#8A8A8A" font-family="'DINPro'" font-size="88.8423">6</text>
			<path fill="none" stroke="#D1D1D1" stroke-width="5" stroke-miterlimit="10" d="M5801.435,3909.778
					c-10.573,0-19.224-8.651-19.224-19.225v-198.747c0-10.574,8.651-19.225,19.224-19.225h195.9
					c10.573,0,19.225,8.651,19.225,19.225v198.747c0,10.573-8.651,19.225-19.225,19.225H5801.435L5801.435,3909.778z"/>
			<text transform="matrix(1 0 0 1 5876.1973 3823.6821)" fill="#8A8A8A" font-family="'DINPro'" font-size="88.8423">7</text>
			<path fill="none" stroke="#D1D1D1" stroke-width="5" stroke-miterlimit="10" d="M5801.435,3391.632
					c-10.573,0-19.224-8.651-19.224-19.224V3173.66c0-10.574,8.651-19.225,19.224-19.225h195.9c10.573,0,19.225,8.651,19.225,19.225
					v198.747c0,10.573-8.651,19.225-19.225,19.225H5801.435L5801.435,3391.632z"/>
			<text transform="matrix(1 0 0 1 5876.1973 3305.5356)" fill="#8A8A8A" font-family="'DINPro'" font-size="88.8423">8</text>
			<path fill="none" stroke="#D1D1D1" stroke-width="5" stroke-miterlimit="10" d="M6524.507,6301.047
					c-10.574,0-19.225-8.651-19.225-19.225v-198.748c0-10.573,8.651-19.225,19.225-19.225h195.899
					c10.573,0,19.225,8.651,19.225,19.225v198.748c0,10.574-8.651,19.225-19.225,19.225H6524.507L6524.507,6301.047z"/>
			<text transform="matrix(1 0 0 1 6599.2695 6214.9507)" fill="#8A8A8A" font-family="'DINPro'" font-size="88.8423">9</text>
			<path fill="none" stroke="#D1D1D1" stroke-width="5" stroke-miterlimit="10" d="M6524.507,5778.557
					c-10.574,0-19.225-8.651-19.225-19.225v-198.748c0-10.574,8.651-19.225,19.225-19.225h195.899
					c10.573,0,19.225,8.651,19.225,19.225v198.748c0,10.573-8.651,19.225-19.225,19.225H6524.507L6524.507,5778.557z"/>
			<text transform="matrix(1 0 0 1 6576.0825 5692.4604)" fill="#8A8A8A" font-family="'DINPro'" font-size="88.8423">10</text>
			<path fill="none" stroke="#D1D1D1" stroke-width="5" stroke-miterlimit="10" d="M6524.507,5256.066
					c-10.574,0-19.225-8.651-19.225-19.224v-198.748c0-10.574,8.651-19.225,19.225-19.225h195.899
					c10.573,0,19.225,8.651,19.225,19.225v198.747c0,10.574-8.651,19.225-19.225,19.225H6524.507L6524.507,5256.066z"/>
			<text transform="matrix(1 0 0 1 6576.0825 5169.9702)" fill="#8A8A8A" font-family="'DINPro'" font-size="88.8423">11</text>
			<path fill="none" stroke="#D1D1D1" stroke-width="5" stroke-miterlimit="10" d="M6524.507,4733.576
					c-10.574,0-19.225-8.651-19.225-19.225v-198.748c0-10.573,8.651-19.225,19.225-19.225h195.899
					c10.573,0,19.225,8.651,19.225,19.225v198.748c0,10.573-8.651,19.225-19.225,19.225H6524.507L6524.507,4733.576z"/>
			<text transform="matrix(1 0 0 1 6576.0825 4647.4795)" fill="#8A8A8A" font-family="'DINPro'" font-size="88.8423">12</text>
			<path fill="none" stroke="#D1D1D1" stroke-width="5" stroke-miterlimit="10" d="M6524.507,4211.085
					c-10.574,0-19.225-8.651-19.225-19.224v-198.748c0-10.573,8.651-19.225,19.225-19.225h195.899
					c10.573,0,19.225,8.651,19.225,19.225v198.747c0,10.574-8.651,19.225-19.225,19.225H6524.507L6524.507,4211.085z"/>
			<text transform="matrix(1 0 0 1 6576.0825 4124.9893)" fill="#8A8A8A" font-family="'DINPro'" font-size="88.8423">13</text>
			<path fill="none" stroke="#D1D1D1" stroke-width="5" stroke-miterlimit="10" d="M6524.507,3688.595
					c-10.574,0-19.225-8.651-19.225-19.224v-198.748c0-10.573,8.651-19.225,19.225-19.225h195.899
					c10.573,0,19.225,8.651,19.225,19.225v198.747c0,10.573-8.651,19.225-19.225,19.225H6524.507L6524.507,3688.595z"/>
			<text transform="matrix(1 0 0 1 6576.0825 3602.4988)" fill="#8A8A8A" font-family="'DINPro'" font-size="88.8423">14</text>
			<path fill="none" stroke="#D1D1D1" stroke-width="5" stroke-miterlimit="10" d="M6524.507,3166.104
					c-10.574,0-19.225-8.651-19.225-19.225v-198.748c0-10.573,8.651-19.225,19.225-19.225h195.899
					c10.573,0,19.225,8.651,19.225,19.225v198.747c0,10.574-8.651,19.225-19.225,19.225L6524.507,3166.104L6524.507,3166.104z"/>
			<text transform="matrix(1 0 0 1 6576.0825 3080.0083)" fill="#8A8A8A" font-family="'DINPro'" font-size="88.8423">15</text>
			<path fill="none" stroke="#D1D1D1" stroke-width="5" stroke-miterlimit="10" d="M6766.507,2587.345
					c-10.574,0-19.225-8.651-19.225-19.225v-198.747c0-10.574,8.651-19.225,19.225-19.225h195.899
					c10.573,0,19.225,8.651,19.225,19.225v198.747c0,10.573-8.651,19.224-19.225,19.224L6766.507,2587.345L6766.507,2587.345z"/>
			<text transform="matrix(1 0 0 1 6818.0825 2501.2485)" fill="#8A8A8A" font-family="'DINPro'" font-size="88.8423">16</text>
			<path fill="none" stroke="#D1D1D1" stroke-width="5" stroke-miterlimit="10" d="M6766.507,2223.937
					c-10.574,0-19.225-8.651-19.225-19.225v-198.748c0-10.573,8.651-19.225,19.225-19.225h195.899
					c10.573,0,19.225,8.651,19.225,19.225v198.747c0,10.574-8.651,19.225-19.225,19.225L6766.507,2223.937L6766.507,2223.937z"/>
			<text transform="matrix(1 0 0 1 6818.0825 2137.8408)" fill="#8A8A8A" font-family="'DINPro'" font-size="88.8423">17</text>
			<path fill="none" stroke="#D1D1D1" stroke-width="5" stroke-miterlimit="10" d="M6766.507,1860.529
					c-10.574,0-19.225-8.651-19.225-19.224v-198.747c0-10.574,8.651-19.225,19.225-19.225h195.899
					c10.573,0,19.225,8.651,19.225,19.225v198.747c0,10.574-8.651,19.225-19.225,19.225H6766.507L6766.507,1860.529z"/>
			<text transform="matrix(1 0 0 1 6818.0825 1774.4331)" fill="#8A8A8A" font-family="'DINPro'" font-size="88.8423">18</text>
			<path fill="none" stroke="#D1D1D1" stroke-width="5" stroke-miterlimit="10" d="M6766.507,1497.121
					c-10.574,0-19.225-8.651-19.225-19.224v-198.748c0-10.574,8.651-19.225,19.225-19.225h195.899
					c10.573,0,19.225,8.651,19.225,19.225v198.747c0,10.574-8.651,19.225-19.225,19.225L6766.507,1497.121L6766.507,1497.121z"/>
			<text transform="matrix(1 0 0 1 6818.0825 1411.0254)" fill="#8A8A8A" font-family="'DINPro'" font-size="88.8423">19</text>
			<path fill="none" stroke="#D1D1D1" stroke-width="5" stroke-miterlimit="10" d="M6766.507,1133.714
					c-10.574,0-19.225-8.651-19.225-19.224V915.742c0-10.574,8.651-19.225,19.225-19.225h195.899
					c10.573,0,19.225,8.651,19.225,19.225v198.747c0,10.574-8.651,19.225-19.225,19.225L6766.507,1133.714L6766.507,1133.714z"/>
			<text transform="matrix(1 0 0 1 6818.0825 1047.6177)" fill="#8A8A8A" font-family="'DINPro'" font-size="88.8423">20</text>
			<path fill="none" stroke="#D1D1D1" stroke-width="5" stroke-miterlimit="10" d="M5615.102,2223.937
					c-10.574,0-19.225-8.651-19.225-19.225v-198.748c0-10.573,8.651-19.225,19.225-19.225h195.899
					c10.574,0,19.225,8.651,19.225,19.225v198.747c0,10.574-8.651,19.225-19.225,19.225L5615.102,2223.937L5615.102,2223.937z"/>
			<text transform="matrix(1 0 0 1 5666.6768 2137.8408)" fill="#8A8A8A" font-family="'DINPro'" font-size="88.8423">21</text>
			<path fill="none" stroke="#D1D1D1" stroke-width="5" stroke-miterlimit="10" d="M5615.102,1464.032
					c-10.574,0-19.225-8.651-19.225-19.224V1246.06c0-10.574,8.651-19.225,19.225-19.225h195.899
					c10.574,0,19.225,8.651,19.225,19.225v198.747c0,10.574-8.651,19.225-19.225,19.225L5615.102,1464.032L5615.102,1464.032z"/>
			<text transform="matrix(1 0 0 1 5666.6768 1377.9355)" fill="#8A8A8A" font-family="'DINPro'" font-size="88.8423">22</text>
		</g>
	</g>
	<g id="labels">
		<text dataSectorId="5f1e5f8b841fd1232b2be947">Столы</text>
	</g>
</svg>
