<?xml version="1.0" encoding="utf-8"?>
<svg version="1.1" id="map-svg" xmlns="http://www.w3.org/2000/svg" xmlns:xlink="http://www.w3.org/1999/xlink" x="0px" y="0px" width="1024" height="768" viewBox="0 0 10240 7680" xml:space="preserve">
	<metadata>
		<?xpacket begin="﻿" id="W5M0MpCehiHzreSzNTczkc9d"?>
		<x:xmpmeta xmlns:x="adobe:ns:meta/" x:xmptk="Adobe XMP Core 5.5-c014 79.151739, 2013/04/03-12:12:15">
			<rdf:RDF xmlns:rdf="http://www.w3.org/1999/02/22-rdf-syntax-ns#">
				<rdf:Description rdf:about="" xmlns:xmp="http://ns.adobe.com/xap/1.0/" xmlns:xmpGImg="http://ns.adobe.com/xap/1.0/g/img/" xmlns:xmpTPg="http://ns.adobe.com/xap/1.0/t/pg/" xmlns:stDim="http://ns.adobe.com/xap/1.0/sType/Dimensions#" xmlns:stFnt="http://ns.adobe.com/xap/1.0/sType/Font#" xmlns:xmpG="http://ns.adobe.com/xap/1.0/g/" xmlns:dc="http://purl.org/dc/elements/1.1/" xmlns:xmpMM="http://ns.adobe.com/xap/1.0/mm/" xmlns:stRef="http://ns.adobe.com/xap/1.0/sType/ResourceRef#" xmlns:stEvt="http://ns.adobe.com/xap/1.0/sType/ResourceEvent#">
					<xmpTPg:MaxPageSize rdf:parseType="Resource">
						<stDim:w>10240.000397</stDim:w>
						<stDim:h>7680.000000</stDim:h>
						<stDim:unit>Points</stDim:unit>
					</xmpTPg:MaxPageSize>
					<xmpTPg:NPages>1</xmpTPg:NPages>
					<xmpTPg:HasVisibleTransparency>False</xmpTPg:HasVisibleTransparency>
					<xmpTPg:HasVisibleOverprint>False</xmpTPg:HasVisibleOverprint>
					<xmpTPg:Fonts>
						<rdf:Bag>
							<rdf:li rdf:parseType="Resource">
								<stFnt:fontName>DINPro</stFnt:fontName>
								<stFnt:fontFamily>DIN Pro</stFnt:fontFamily>
								<stFnt:fontFace>Regular</stFnt:fontFace>
								<stFnt:fontType>TrueType</stFnt:fontType>
								<stFnt:versionString>Version 7.504; 2005; Build 1021</stFnt:versionString>
								<stFnt:composite>False</stFnt:composite>
								<stFnt:fontFileName>DINPro.ttf</stFnt:fontFileName>
							</rdf:li>
						</rdf:Bag>
					</xmpTPg:Fonts>
					<xmpTPg:PlateNames>
						<rdf:Seq>
							<rdf:li>Cyan</rdf:li>
							<rdf:li>Magenta</rdf:li>
							<rdf:li>Yellow</rdf:li>
							<rdf:li>Black</rdf:li>
						</rdf:Seq>
					</xmpTPg:PlateNames>
					<xmpTPg:SwatchGroups>
						<rdf:Seq>
							<rdf:li rdf:parseType="Resource">
								<xmpG:groupName>Default Swatch Group</xmpG:groupName>
								<xmpG:groupType>0</xmpG:groupType>
							</rdf:li>
						</rdf:Seq>
					</xmpTPg:SwatchGroups>
					<dc:format>image/svg+xml</dc:format>
				</rdf:Description>
			</rdf:RDF>
		</x:xmpmeta>
		<?xpacket end="w"?>
	</metadata>
	<g id="background">
		<path name="Танцевальный партер" tc-sector="5cb9c9a97c8b8f009433c56d" id="5cb9c9a97c8b8f009433c56d" fill="none" stroke="#B5B5B5" stroke-width="5" stroke-miterlimit="10" d="M6464.736,3220.854
			c0-39.88,32.629-72.51,72.509-72.51h1412.361c39.88,0,72.509,32.629,72.509,72.51v1267.5c0,39.88-32.629,72.51-72.509,72.51
			H6537.246c-39.88,0-72.509-32.629-72.509-72.51V3220.854z"/>
		<path name="Входной" tc-sector="5cb9c9a97c8b8f009433c56e" id="5cb9c9a97c8b8f009433c56e" fill="none" stroke="#B5B5B5" stroke-width="5" stroke-miterlimit="10" d="M2692.066,2501.87c-39.88,0-105.139,0-145.019,0
			h-832.391c-39.88,0-72.509,32.629-72.509,72.509v427.239c0,39.88,32.629,72.509,72.509,72.509h832.391
			c39.88,0,72.51,32.629,72.51,72.509v1080.555c0,39.88,32.629,72.509,72.509,72.509h779.912c39.88,0,72.509-32.629,72.509-72.509
			V3146.637c0-39.88,0-105.138,0-145.019V2574.38c0-39.88-32.629-72.509-72.509-72.509H2692.066z"/>
		<g id="details">
			<path fill="#F0F0F0" d="M8180.378,4999.032c-39.88,0-72.51-32.629-72.51-72.51V2753.478c0-39.88,32.629-72.509,72.51-72.509
				h344.965c39.88,0,72.51,32.629,72.51,72.509v2173.044c0,39.88-32.63,72.51-72.51,72.51H8180.378z"/>
			<text transform="matrix(1 0 0 1 8191.8999 3874.916)" fill="#8A8A8A" font-family="'DINPro-Bold'" font-size="112.2754">С</text>
			<text transform="matrix(1 0 0 1 8261.5107 3874.916)" fill="#8A8A8A" font-family="'DINPro-Bold'" font-size="112.2754">ц</text>
			<text transform="matrix(1 0 0 1 8327.6416 3874.916)" fill="#8A8A8A" font-family="'DINPro-Bold'" font-size="112.2754">е</text>
			<text transform="matrix(1 0 0 1 8389.167 3874.916)" fill="#8A8A8A" font-family="'DINPro-Bold'" font-size="112.2754">н</text>
			<text transform="matrix(1 0 0 1 8453.501 3874.916)" fill="#8A8A8A" font-family="'DINPro-Bold'" font-size="112.2754">а</text>
			<text transform="matrix(1 0 0 1 2856.2747 3148.9119)" fill="#8A8A8A" font-family="'DINPro-Bold'" font-size="112.2754">В</text>
			<text transform="matrix(1 0 0 1 2928.4666 3148.9119)" fill="#8A8A8A" font-family="'DINPro-Bold'" font-size="112.2754">х</text>
			<text transform="matrix(1 0 0 1 2985.3909 3148.9119)" fill="#8A8A8A" font-family="'DINPro-Bold'" font-size="112.2754">о</text>
			<text transform="matrix(1 0 0 1 3044.6721 3148.9119)" fill="#8A8A8A" font-family="'DINPro-Bold'" font-size="112.2754">д</text>
			<text transform="matrix(1 0 0 1 3109.7903 3148.9119)" fill="#8A8A8A" font-family="'DINPro-Bold'" font-size="112.2754">н</text>
			<text transform="matrix(1 0 0 1 3174.1238 3148.9119)" fill="#8A8A8A" font-family="'DINPro-Bold'" font-size="112.2754">о</text>
			<text transform="matrix(1 0 0 1 3235.0891 3148.9119)" fill="#8A8A8A" font-family="'DINPro-Bold'" font-size="112.2754">й</text>
			<text transform="matrix(1 0 0 1 6862.8452 3731.1101)" fill="#8A8A8A" font-family="'DINPro-Bold'" font-size="112.2754">Т</text>
			<text transform="matrix(1 0 0 1 6919.6577 3731.1101)" fill="#8A8A8A" font-family="'DINPro-Bold'" font-size="112.2754">а</text>
			<text transform="matrix(1 0 0 1 6979.6128 3731.1101)" fill="#8A8A8A" font-family="'DINPro-Bold'" font-size="112.2754">н</text>
			<text transform="matrix(1 0 0 1 7043.9458 3731.1101)" fill="#8A8A8A" font-family="'DINPro-Bold'" font-size="112.2754">ц</text>
			<text transform="matrix(1 0 0 1 7110.0767 3731.1101)" fill="#8A8A8A" font-family="'DINPro-Bold'" font-size="112.2754">е</text>
			<text transform="matrix(1 0 0 1 7171.6021 3731.1101)" fill="#8A8A8A" font-family="'DINPro-Bold'" font-size="112.2754">в</text>
			<text transform="matrix(1 0 0 1 7233.353 3731.1101)" fill="#8A8A8A" font-family="'DINPro-Bold'" font-size="112.2754">а</text>
			<text transform="matrix(1 0 0 1 7293.3071 3731.1101)" fill="#8A8A8A" font-family="'DINPro-Bold'" font-size="112.2754">л</text>
			<text transform="matrix(1 0 0 1 7357.4165 3731.1101)" fill="#8A8A8A" font-family="'DINPro-Bold'" font-size="112.2754">ь</text>
			<text transform="matrix(1 0 0 1 7416.8091 3731.1101)" fill="#8A8A8A" font-family="'DINPro-Bold'" font-size="112.2754">н</text>
			<text transform="matrix(1 0 0 1 7481.1431 3731.1101)" fill="#8A8A8A" font-family="'DINPro-Bold'" font-size="112.2754">ы</text>
			<text transform="matrix(1 0 0 1 7566.8071 3731.1101)" fill="#8A8A8A" font-family="'DINPro-Bold'" font-size="112.2754">й</text>
			<text transform="matrix(1 0 0 1 7067.353 3865.8406)" fill="#8A8A8A" font-family="'DINPro-Bold'" font-size="112.2754">п</text>
			<text transform="matrix(1 0 0 1 7131.1245 3865.8406)" fill="#8A8A8A" font-family="'DINPro-Bold'" font-size="112.2754">а</text>
			<text transform="matrix(1 0 0 1 7191.0796 3865.8406)" fill="#8A8A8A" font-family="'DINPro-Bold'" font-size="112.2754">р</text>
			<text transform="matrix(1 0 0 1 7253.3931 3865.8406)" fill="#8A8A8A" font-family="'DINPro-Bold'" font-size="112.2754">т</text>
			<text transform="matrix(1 0 0 1 7304.0298 3865.8406)" fill="#8A8A8A" font-family="'DINPro-Bold'" font-size="112.2754">е</text>
			<text transform="matrix(1 0 0 1 7365.5552 3865.8406)" fill="#8A8A8A" font-family="'DINPro-Bold'" font-size="112.2754">р</text>
			<path fill="none" stroke="#B5B5B5" stroke-width="5" stroke-miterlimit="10" d="M1714.657,3163.851
				c-39.88,0-72.509,32.629-72.509,72.51V5354.8c0,39.88,32.629,72.509,72.509,72.509h6234.95c39.88,0,72.509-32.629,72.509-72.509
				v-640.052c0-39.88-32.629-72.509-72.509-72.509H6453.86c-39.88,0-72.509-32.629-72.509-72.509V3144.515
				c0-39.88,32.629-72.509,72.509-72.509h1495.747c39.88,0,72.509-32.629,72.509-72.509v-674.297c0-39.88-32.629-72.509-72.509-72.509
				H5951.128c-39.88,0-72.509,32.629-72.509,72.509v799.979c0,39.88-32.629,72.509-72.509,72.509h-662.856
				c-39.88,0-72.509-32.629-72.509-72.509V2574.38c0-39.88-32.629-72.509-72.509-72.509H3702.834c-39.88,0-72.51,32.629-72.51,72.509
				v1735.118c0,39.88-32.629,72.509-72.509,72.509H2602.2c-39.88,0-72.51-32.629-72.51-72.509V3236.36
				c0-39.88-32.629-72.509-72.509-72.509H1714.657z"/>
			<path fill="#F0F0F0" d="M2008.04,3924.716c-15.986,0-29.066-13.08-29.066-29.066v-431.83c0-15.986,13.08-29.066,29.066-29.066
					h126.76c15.986,0,29.066,13.08,29.066,29.066v431.83c0,15.986-13.08,29.066-29.066,29.066H2008.04z"/>
			<text transform="matrix(1 0 0 1 2011.1497 3718.0713)" fill="#8A8A8A" font-family="'DINPro'" font-size="112.2754">17</text>
			<path fill="#F0F0F0" d="M2012.107,4444.042c-15.986,0-29.066-19.187-29.066-42.637v-197.119c0-23.45,13.08-42.637,29.066-42.637
					h126.76c15.986,0,29.066,19.187,29.066,42.637v197.119c0,23.45-13.08,42.637-29.066,42.637H2012.107z"/>
			<text transform="matrix(1 0 0 1 2016.8807 4334.8984)" fill="#8A8A8A" font-family="'DINPro'" font-size="112.2754">18</text>
			<path fill="#F0F0F0" d="M2142.934,4793.233c15.986,0,29.066,13.08,29.066,29.066v244.156c0,15.986-13.08,29.066-29.066,29.066
					h-126.76c-15.987,0-29.066-13.08-29.066-29.066v-244.156c0-15.986,13.08-29.066,29.066-29.066H2142.934z"/>
			<text transform="matrix(1 0 0 1 2020.9475 4979.5742)" fill="#8A8A8A" font-family="'DINPro'" font-size="112.2754">19</text>
			<path fill="#F0F0F0" d="M2517.289,4936.792c0-15.986,13.08-29.066,29.066-29.066h244.156c15.986,0,29.066,13.08,29.066,29.066
					v126.76c0,15.986-13.08,29.066-29.066,29.066h-244.156c-15.986,0-29.066-13.08-29.066-29.066V4936.792z"/>
			<text transform="matrix(1 0 0 1 2616.5022 5035.3701)" fill="#8A8A8A" font-family="'DINPro'" font-size="112.2754">20</text>
			<path fill="#F0F0F0" d="M2934.155,4936.792c0-15.986,13.08-29.066,29.066-29.066h244.156c15.986,0,29.066,13.08,29.066,29.066
					v126.76c0,15.986-13.08,29.066-29.066,29.066h-244.156c-15.987,0-29.066-13.08-29.066-29.066V4936.792z"/>
			<text transform="matrix(1 0 0 1 3031.417 5035.3691)" fill="#8A8A8A" font-family="'DINPro'" font-size="112.2754">21</text>
			<path fill="#F0F0F0" d="M3351.02,4936.792c0-15.986,13.08-29.066,29.066-29.066h244.156c15.986,0,29.066,13.08,29.066,29.066
					v126.76c0,15.986-13.08,29.066-29.066,29.066h-244.156c-15.986,0-29.066-13.08-29.066-29.066V4936.792z"/>
			<text transform="matrix(1 0 0 1 3447.1372 5035.3691)" fill="#8A8A8A" font-family="'DINPro'" font-size="112.2754">22</text>
			<path fill="#F0F0F0" d="M3767.885,4936.792c0-15.986,13.08-29.066,29.066-29.066h244.156c15.986,0,29.066,13.08,29.066,29.066
					v126.76c0,15.986-13.08,29.066-29.066,29.066h-244.156c-15.986,0-29.066-13.08-29.066-29.066V4936.792z"/>
			<text transform="matrix(1 0 0 1 3870.511 5035.3691)" fill="#8A8A8A" font-family="'DINPro'" font-size="112.2754">23</text>
			<path fill="#F0F0F0" d="M4398.831,4936.792c0-15.986,13.08-29.066,29.066-29.066h244.156c15.986,0,29.066,13.08,29.066,29.066
					v126.76c0,15.986-13.08,29.066-29.066,29.066h-244.156c-15.986,0-29.066-13.08-29.066-29.066V4936.792z"/>
			<text transform="matrix(1 0 0 1 4505.0547 5035.3691)" fill="#8A8A8A" font-family="'DINPro'" font-size="112.2754">24</text>
			<path fill="#F0F0F0" d="M4815.696,4936.792c0-15.986,13.08-29.066,29.066-29.066h244.156c15.986,0,29.066,13.08,29.066,29.066
					v126.76c0,15.986-13.08,29.066-29.066,29.066h-244.156c-15.986,0-29.066-13.08-29.066-29.066V4936.792z"/>
			<text transform="matrix(1 0 0 1 4915.9414 5035.3691)" fill="#8A8A8A" font-family="'DINPro'" font-size="112.2754">25</text>
			<path fill="#F0F0F0" d="M5232.562,4936.792c0-15.986,13.08-29.066,29.066-29.066h244.156c15.986,0,29.066,13.08,29.066,29.066
					v126.76c0,15.986-13.08,29.066-29.066,29.066h-244.156c-15.986,0-29.066-13.08-29.066-29.066V4936.792z"/>
			<text transform="matrix(1 0 0 1 5333.6753 5035.3701)" fill="#8A8A8A" font-family="'DINPro'" font-size="112.2754">26</text>
			<path fill="#F0F0F0" d="M5649.427,4936.792c0-15.986,13.08-29.066,29.066-29.066h244.156c15.986,0,29.066,13.08,29.066,29.066
					v126.76c0,15.986-13.08,29.066-29.066,29.066h-244.156c-15.986,0-29.066-13.08-29.066-29.066V4936.792z"/>
			<text transform="matrix(1 0 0 1 5749.7983 5035.3701)" fill="#8A8A8A" font-family="'DINPro'" font-size="112.2754">27</text>
			<circle fill="#F0F0F0" cx="6336.616" cy="5000.172" r="111.202"/>
			<text transform="matrix(1 0 0 1 6278.0093 5035.3701)" fill="#8A8A8A" font-family="'DINPro'" font-size="112.2754">28</text>
			<path fill="#F0F0F0" d="M6529.503,4936.792c0-15.986,17.003-29.066,37.786-29.066h174.691c20.783,0,37.786,13.08,37.786,29.066
					v126.76c0,15.986-17.003,29.066-37.786,29.066h-174.691c-20.782,0-37.786-13.08-37.786-29.066V4936.792z"/>
			<text transform="matrix(1 0 0 1 6599.769 5038.9951)" fill="#8A8A8A" font-family="'DINPro'" font-size="112.2754">29</text>
			<path fill="#F0F0F0" d="M6854.029,4936.792c0-15.986,17.004-29.066,37.786-29.066h174.692c20.782,0,37.786,13.08,37.786,29.066
					v126.76c0,15.986-17.003,29.066-37.786,29.066h-174.692c-20.782,0-37.786-13.08-37.786-29.066V4936.792z"/>
			<text transform="matrix(1 0 0 1 6925.4565 5041.0098)" fill="#8A8A8A" font-family="'DINPro'" font-size="112.2754">30</text>
			<path fill="#F0F0F0" d="M7178.556,4936.792c0-15.986,17.004-29.066,37.786-29.066h174.691c20.782,0,37.786,13.08,37.786,29.066
					v126.76c0,15.986-17.004,29.066-37.786,29.066h-174.691c-20.782,0-37.786-13.08-37.786-29.066V4936.792z"/>
			<text transform="matrix(1 0 0 1 7251.7485 5041.0098)" fill="#8A8A8A" font-family="'DINPro'" font-size="112.2754">31</text>
			<circle fill="#F0F0F0" cx="7776.895" cy="5000.172" r="113.826"/>
			<text transform="matrix(1 0 0 1 7721.9448 5035.3691)" fill="#8A8A8A" font-family="'DINPro'" font-size="112.2754">32</text>
			<circle fill="#F0F0F0" cx="7776.895" cy="2619.161" r="115.067"/>
			<text transform="matrix(1 0 0 1 7718.2876 2654.3574)" fill="#8A8A8A" font-family="'DINPro'" font-size="112.2754">33</text>
			<path fill="#F0F0F0" d="M7137.698,2493.668c12.975-12.974,34.206-12.974,47.18,0l109.061,109.061
					c12.975,12.974,12.975,34.206,0,47.18l-102.878,102.878c-12.975,12.975-34.206,12.975-47.18,0l-109.061-109.061
					c-12.975-12.975-12.975-34.206,0-47.18L7137.698,2493.668z"/>
			<text transform="matrix(1 0 0 1 7105.7729 2658.4243)" fill="#8A8A8A" font-family="'DINPro'" font-size="112.2754">34</text>
			<path fill="#F0F0F0" d="M6595.751,2493.668c12.974-12.974,34.206-12.974,47.18,0l109.062,109.061
					c12.975,12.974,12.975,34.206,0,47.18l-102.878,102.878c-12.975,12.975-34.206,12.975-47.18,0l-109.061-109.061
					c-12.975-12.975-12.975-34.206,0-47.18L6595.751,2493.668z"/>
			<text transform="matrix(1 0 0 1 6565.9409 2658.4241)" fill="#8A8A8A" font-family="'DINPro'" font-size="112.2754">35</text>
		</g>
	</g>
	<g id="labels">
		<text dataSectorId="5cb9c9a97c8b8f009433c56d">Танцевальный партер</text>
		<text dataSectorId="5cb9c9a97c8b8f009433c56e">Входной</text>
		<text dataSectorId="5cb9c9a97c8b8f009433c55a">Стол 17</text>
		<text dataSectorId="5cb9c9a97c8b8f009433c55b">Стол 18</text>
		<text dataSectorId="5cb9c9a97c8b8f009433c55c">Стол 19</text>
		<text dataSectorId="5cb9c9a97c8b8f009433c55d">Стол 20</text>
		<text dataSectorId="5cb9c9a97c8b8f009433c55e">Стол 21</text>
		<text dataSectorId="5cb9c9a97c8b8f009433c55f">Стол 22</text>
		<text dataSectorId="5cb9c9a97c8b8f009433c560">Стол 23</text>
		<text dataSectorId="5cb9c9a97c8b8f009433c561">Стол 24</text>
		<text dataSectorId="5cb9c9a97c8b8f009433c562">Стол 25</text>
		<text dataSectorId="5cb9c9a97c8b8f009433c563">Стол 26</text>
		<text dataSectorId="5cb9c9a97c8b8f009433c564">Стол 27</text>
		<text dataSectorId="5cb9c9a97c8b8f009433c565">Стол 28</text>
		<text dataSectorId="5cb9c9a97c8b8f009433c566">Стол 29</text>
		<text dataSectorId="5cb9c9a97c8b8f009433c567">Стол 30</text>
		<text dataSectorId="5cb9c9a97c8b8f009433c568">Стол 31</text>
		<text dataSectorId="5cb9c9a97c8b8f009433c569">Стол 32</text>
		<text dataSectorId="5cb9c9a97c8b8f009433c56a">Стол 33</text>
		<text dataSectorId="5cb9c9a97c8b8f009433c56b">Стол 34</text>
		<text dataSectorId="5cb9c9a97c8b8f009433c56c">Стол 35</text>
	</g>
</svg>
