<?xml version="1.0" encoding="utf-8"?>
<svg version="1.1" id="map-svg" xmlns="http://www.w3.org/2000/svg" xmlns:xlink="http://www.w3.org/1999/xlink" x="0px" y="0px" width="1024" height="768" viewBox="0 0 10240 7680" xml:space="preserve">
	<metadata>
		<?xpacket begin="﻿" id="W5M0MpCehiHzreSzNTczkc9d"?>
        <x:xmpmeta xmlns:x="adobe:ns:meta/" x:xmptk="Adobe XMP Core 5.5-c014 79.151739, 2013/04/03-12:12:15">
			<rdf:RDF xmlns:rdf="http://www.w3.org/1999/02/22-rdf-syntax-ns#">
				<rdf:Description rdf:about="" xmlns:xmp="http://ns.adobe.com/xap/1.0/" xmlns:xmpGImg="http://ns.adobe.com/xap/1.0/g/img/" xmlns:xmpTPg="http://ns.adobe.com/xap/1.0/t/pg/" xmlns:stDim="http://ns.adobe.com/xap/1.0/sType/Dimensions#" xmlns:stFnt="http://ns.adobe.com/xap/1.0/sType/Font#" xmlns:xmpG="http://ns.adobe.com/xap/1.0/g/" xmlns:dc="http://purl.org/dc/elements/1.1/" xmlns:xmpMM="http://ns.adobe.com/xap/1.0/mm/" xmlns:stRef="http://ns.adobe.com/xap/1.0/sType/ResourceRef#" xmlns:stEvt="http://ns.adobe.com/xap/1.0/sType/ResourceEvent#">
					<xmpTPg:MaxPageSize rdf:parseType="Resource">
						<stDim:w>10240.000397</stDim:w>
                        <stDim:h>7680.000000</stDim:h>
                        <stDim:unit>Points</stDim:unit>
					</xmpTPg:MaxPageSize>
                    <xmpTPg:NPages>1</xmpTPg:NPages>
                    <xmpTPg:HasVisibleTransparency>False</xmpTPg:HasVisibleTransparency>
                    <xmpTPg:HasVisibleOverprint>False</xmpTPg:HasVisibleOverprint>
                    <xmpTPg:Fonts>
						<rdf:Bag>
							<rdf:li rdf:parseType="Resource">
								<stFnt:fontName>DINPro</stFnt:fontName>
                                <stFnt:fontFamily>DIN Pro</stFnt:fontFamily>
                                <stFnt:fontFace>Regular</stFnt:fontFace>
                                <stFnt:fontType>TrueType</stFnt:fontType>
                                <stFnt:versionString>Version 7.504; 2005; Build 1021</stFnt:versionString>
                                <stFnt:composite>False</stFnt:composite>
                                <stFnt:fontFileName>DINPro.ttf</stFnt:fontFileName>
							</rdf:li>
						</rdf:Bag>
					</xmpTPg:Fonts>
                    <xmpTPg:PlateNames>
						<rdf:Seq>
							<rdf:li>Cyan</rdf:li>
                            <rdf:li>Magenta</rdf:li>
                            <rdf:li>Yellow</rdf:li>
                            <rdf:li>Black</rdf:li>
						</rdf:Seq>
					</xmpTPg:PlateNames>
                    <xmpTPg:SwatchGroups>
						<rdf:Seq>
							<rdf:li rdf:parseType="Resource">
								<xmpG:groupName>Default Swatch Group</xmpG:groupName>
                                <xmpG:groupType>0</xmpG:groupType>
							</rdf:li>
						</rdf:Seq>
					</xmpTPg:SwatchGroups>
                    <dc:format>image/svg+xml</dc:format>
				</rdf:Description>
			</rdf:RDF>
		</x:xmpmeta>
        <?xpacket end="w"?>
	</metadata>
    <g id="background">
        <path id="1" name="Нижняя палуба" fill="none" stroke="#B5B5B5" stroke-width="5" stroke-miterlimit="10" d="M6812.483,3830.634H2328.719
			c-32.747,0-59.294-26.547-59.294-59.294V2766.163c0-32.747,26.547-59.294,59.294-59.294h4483.765
			c570.353,0,1269.556,251.563,1269.556,561.882v0.001C8082.04,3579.071,7326.366,3830.634,6812.483,3830.634z"/>
        <path id="2" name="Верхняя палуба" fill="none" stroke="#B5B5B5" stroke-width="5" stroke-miterlimit="10" d="M6812.483,5300.501H2328.719
			c-32.747,0-59.294-26.547-59.294-59.294V4236.031c0-32.747,26.547-59.294,59.294-59.294h4483.765
			c570.353,0,1269.556,251.563,1269.556,561.881v0.001C8082.04,5048.938,7326.366,5300.501,6812.483,5300.501z"/>
        <g id="details">
            <path fill="#F5F5F5" d="M7222.542,3664.562h-322c-33.884,0-61.353-27.469-61.353-61.353v-664.838
                c0-33.884,27.469-61.353,61.353-61.353h322c33.884,0,61.353,27.469,61.353,61.353v664.838
                C7283.895,3637.094,7256.426,3664.562,7222.542,3664.562z"/>
            <line fill="none" stroke="#B5B5B5" stroke-width="5" stroke-miterlimit="10" x1="6758.836" y1="2706.869" x2="6758.836" y2="2877.018"/>
            <line fill="none" stroke="#B5B5B5" stroke-width="5" stroke-miterlimit="10" x1="6758.836" y1="3664.562" x2="6758.836" y2="3834.712"/>
            <path fill="none" stroke="#B5B5B5" stroke-width="5" stroke-miterlimit="10" d="M3896.168,2706.869h381.177v390.353
			c0,74.461-60.362,134.823-134.823,134.823h-246.353V2706.869z"/>
            <rect x="4530.727" y="2789.692" fill="#F5F5F5" width="133.176" height="272"/>
            <rect x="4899.198" y="2789.692" fill="#F5F5F5" width="133.176" height="272"/>
            <rect x="5267.668" y="2789.692" fill="#F5F5F5" width="133.176" height="272"/>
            <rect x="5636.139" y="2789.692" fill="#F5F5F5" width="133.176" height="272"/>
            <rect x="6004.609" y="2789.692" fill="#F5F5F5" width="133.176" height="272"/>
            <rect x="4689.551" y="3480.94" fill="#F5F5F5" width="133.176" height="272"/>
            <rect x="5058.021" y="3480.94" fill="#F5F5F5" width="133.176" height="272"/>
            <rect x="5426.492" y="3480.94" fill="#F5F5F5" width="133.176" height="272"/>
            <rect x="5794.962" y="3480.94" fill="#F5F5F5" width="133.176" height="272"/>
            <rect x="6163.433" y="3480.94" fill="#F5F5F5" width="133.176" height="272"/>
            <rect x="7494.644" y="3231.055" transform="matrix(0.4062 0.9138 -0.9138 0.4062 7523.3374 -4938.2007)" fill="#F5F5F5" width="133.176" height="176.941"/>
            <rect x="6373.08" y="2789.692" fill="#F5F5F5" width="133.176" height="272"/>
            <rect x="2684.483" y="3008.14" fill="none" stroke="#B5B5B5" stroke-width="5" stroke-miterlimit="10" width="948.706" height="524.706"/>
            <rect x="2684.483" y="3157.552" fill="none" stroke="#B5B5B5" stroke-width="5" stroke-miterlimit="10" width="42.353" height="225.882"/>
            <rect x="2726.836" y="3157.552" fill="none" stroke="#B5B5B5" stroke-width="5" stroke-miterlimit="10" width="42.353" height="225.882"/>
            <rect x="2769.189" y="3157.552" fill="none" stroke="#B5B5B5" stroke-width="5" stroke-miterlimit="10" width="42.353" height="225.882"/>
            <rect x="2811.542" y="3157.552" fill="none" stroke="#B5B5B5" stroke-width="5" stroke-miterlimit="10" width="42.353" height="225.882"/>
            <rect x="2853.895" y="3157.552" fill="none" stroke="#B5B5B5" stroke-width="5" stroke-miterlimit="10" width="42.353" height="225.882"/>
            <rect x="2896.248" y="3157.552" fill="none" stroke="#B5B5B5" stroke-width="5" stroke-miterlimit="10" width="42.353" height="225.882"/>
            <rect x="2938.601" y="3157.552" fill="none" stroke="#B5B5B5" stroke-width="5" stroke-miterlimit="10" width="42.353" height="225.882"/>
            <rect x="2980.954" y="3157.552" fill="none" stroke="#B5B5B5" stroke-width="5" stroke-miterlimit="10" width="42.353" height="225.882"/>
            <rect x="3023.307" y="3157.552" fill="none" stroke="#B5B5B5" stroke-width="5" stroke-miterlimit="10" width="42.353" height="225.882"/>
            <rect x="3065.66" y="3157.552" fill="none" stroke="#B5B5B5" stroke-width="5" stroke-miterlimit="10" width="42.353" height="225.882"/>
            <rect x="3108.013" y="3157.552" fill="none" stroke="#B5B5B5" stroke-width="5" stroke-miterlimit="10" width="42.353" height="225.882"/>
            <line fill="none" stroke="#B5B5B5" stroke-width="5" stroke-miterlimit="10" x1="3896.168" y1="2706.869" x2="3896.168" y2="3346.093"/>
            <line fill="none" stroke="#B5B5B5" stroke-width="5" stroke-miterlimit="10" x1="3896.168" y1="3664.562" x2="3896.168" y2="3834.712"/>
            <g>
				<path fill="#8A8A8A" d="M6967.293,3273.615c-1.349,7.731-4.505,13.654-9.469,17.767c-4.966,4.114-11.064,6.171-18.299,6.171
					c-8.086,0-14.859-2.66-20.32-7.979c-3.477-3.475-5.622-7.288-6.437-11.437c-0.816-4.149-1.224-10.515-1.224-19.098
					c0-8.581,0.407-14.947,1.224-19.097c0.814-4.149,2.96-7.961,6.437-11.437c5.461-5.319,12.234-7.979,20.32-7.979
					c7.234,0,13.333,2.058,18.299,6.171c4.964,4.114,8.12,10.037,9.469,17.767h-15.107c-1.702-7.163-5.923-10.745-12.66-10.745
					c-4.043,0-7.2,1.313-9.469,3.937c-1.42,1.632-2.394,3.849-2.926,6.649c-0.532,2.803-0.798,7.713-0.798,14.734
					c0,7.022,0.266,11.935,0.798,14.735c0.532,2.803,1.506,5.019,2.926,6.649c2.269,2.625,5.426,3.937,9.469,3.937
					c6.809,0,11.064-3.581,12.767-10.745H6967.293z"/>
                <path fill="#8A8A8A" d="M7031.978,3310.532h-13.192v-13.618h-39.896v-55.429h13.938v43.194h17.767v-43.194h13.938v43.194h7.447
					V3310.532z"/>
                <path fill="#8A8A8A" d="M7087.194,3273.509h-34.683c0,3.688,1.063,6.667,3.191,8.937c2.128,2.271,5.106,3.404,8.937,3.404
					c2.836,0,5.16-0.407,6.969-1.224c1.809-0.814,3.67-2.145,5.585-3.989l8.405,8.191c-2.979,3.051-6.048,5.267-9.203,6.649
					c-3.156,1.384-7.111,2.075-11.862,2.075c-3.547,0-6.756-0.444-9.628-1.33c-2.873-0.886-5.551-2.357-8.032-4.415
					c-2.483-2.057-4.434-5.001-5.852-8.83c-1.42-3.83-2.128-8.44-2.128-13.831c0-8.865,2.197-15.799,6.597-20.799
					c4.396-5.001,10.248-7.501,17.554-7.501c7.589,0,13.512,2.466,17.768,7.395c4.255,4.931,6.383,11.401,6.383,19.416V3273.509z
					 M7073.576,3264.04c-0.071-2.411-0.497-4.397-1.276-5.958c-1.702-3.83-4.787-5.745-9.256-5.745s-7.554,1.915-9.256,5.745
					c-0.781,1.561-1.207,3.547-1.276,5.958H7073.576z"/>
                <path fill="#8A8A8A" d="M7145.495,3296.914h-13.938v-22.235h-17.767v22.235h-13.938v-55.429h13.938v20.959h17.767v-20.959
					h13.938V3296.914z"/>
                <path fill="#8A8A8A" d="M7202.838,3296.914h-13.512v-4.787c-1.915,1.915-3.884,3.281-5.905,4.096
					c-2.021,0.814-4.593,1.224-7.713,1.224c-6.171,0-10.888-1.631-14.149-4.895c-3.051-3.191-4.575-7.341-4.575-12.447
					c0-4.681,1.631-8.527,4.895-11.543c3.261-3.014,8.014-4.521,14.256-4.521h12.873v-2.767c0-3.049-0.816-5.266-2.447-6.649
					c-1.632-1.383-4.255-2.074-7.872-2.074c-4.327,0-7.873,1.596-10.64,4.787l-8.724-8.617c2.694-2.979,5.514-5.035,8.458-6.171
					c2.942-1.134,6.756-1.702,11.437-1.702c15.746,0,23.619,6.526,23.619,19.576V3296.914z M7189.007,3276.487v-2.979h-10.532
					c-5.463,0-8.192,2.127-8.192,6.383c0,4.186,2.801,6.277,8.405,6.277c3.617,0,6.347-0.887,8.191-2.66
					C7188.297,3282.304,7189.007,3279.963,7189.007,3276.487z"/>
			</g>
            <g>
				<path fill="#8A8A8A" d="M4034.473,2967.445c4.432,4.362,6.649,10.054,6.649,17.076c0,7.021-2.217,12.713-6.649,17.075
					c-4.434,4.362-10.41,6.543-17.927,6.543h-30.321v-75.749h50.11v13.192h-35.321v15.319h15.533
					C4024.063,2960.902,4030.039,2963.084,4034.473,2967.445z M4026.333,2984.521c0-3.12-0.941-5.639-2.819-7.554
					c-1.88-1.915-4.452-2.873-7.713-2.873h-14.788v20.853h14.788c3.261,0,5.833-0.939,7.713-2.819
					C4025.393,2990.25,4026.333,2987.713,4026.333,2984.521z"/>
                <path fill="#8A8A8A" d="M4096.656,3008.14h-13.512v-4.787c-1.915,1.915-3.883,3.281-5.905,4.096
					c-2.021,0.814-4.593,1.224-7.713,1.224c-6.171,0-10.888-1.631-14.15-4.895c-3.05-3.191-4.575-7.341-4.575-12.447
					c0-4.681,1.631-8.527,4.894-11.543c3.261-3.014,8.014-4.521,14.256-4.521h12.873v-2.767c0-3.049-0.816-5.266-2.447-6.649
					c-1.632-1.383-4.255-2.074-7.873-2.074c-4.327,0-7.873,1.596-10.639,4.787l-8.724-8.617c2.695-2.979,5.514-5.035,8.458-6.171
					c2.942-1.134,6.756-1.702,11.437-1.702c15.746,0,23.619,6.526,23.619,19.576V3008.14z M4082.825,2987.713v-2.979h-10.532
					c-5.462,0-8.192,2.127-8.192,6.383c0,4.186,2.801,6.277,8.405,6.277c3.617,0,6.347-0.887,8.192-2.66
					C4082.116,2993.529,4082.825,2991.188,4082.825,2987.713z"/>
                <path fill="#8A8A8A" d="M4157.936,2980.372c0,5.745-0.356,10.463-1.064,14.149c-0.71,3.689-2.271,6.774-4.681,9.256
					c-3.192,3.335-7.66,5.001-13.405,5.001c-5.745,0-10.213-1.844-13.405-5.532v25.214h-13.831v-75.749h13.405v5.213
					c3.475-3.899,8.086-5.852,13.831-5.852c5.745,0,10.213,1.668,13.405,5c2.41,2.484,3.971,5.569,4.681,9.257
					C4157.58,2970.018,4157.936,2974.698,4157.936,2980.372z M4143.786,2986.702c0.213-1.666,0.319-3.776,0.319-6.33
					s-0.106-4.663-0.319-6.33c-0.213-1.666-0.622-3.28-1.224-4.841c-0.604-1.56-1.561-2.729-2.873-3.511
					c-1.313-0.779-2.962-1.171-4.947-1.171c-1.987,0-3.636,0.392-4.947,1.171c-1.313,0.781-2.271,1.951-2.873,3.511
					c-0.604,1.561-1.011,3.175-1.224,4.841c-0.212,1.667-0.319,3.776-0.319,6.33s0.106,4.664,0.319,6.33
					c0.213,1.667,0.62,3.298,1.224,4.894c0.602,1.597,1.559,2.785,2.873,3.564c1.312,0.781,2.96,1.17,4.947,1.17
					c1.985,0,3.634-0.389,4.947-1.17c1.312-0.779,2.269-1.968,2.873-3.564C4143.165,2990,4143.573,2988.369,4143.786,2986.702z"/>
			</g>
            <g>
				<path fill="#8A8A8A" d="M4953.958,3296.915h-13.937v-22.235h-17.767v22.235h-13.937v-55.429h13.937v20.959h17.767v-20.959
					h13.937V3296.915z"/>
                <path fill="#8A8A8A" d="M5016.621,3296.915h-13.937v-33.832l-19.469,33.832h-13.937v-55.429h13.937v32.98l19.469-32.98h13.937
					V3296.915z"/>
                <path fill="#8A8A8A" d="M5039.918,3296.915h-16.277l19.469-29.576l-18.193-25.853h15.852l17.022,26.385L5039.918,3296.915z
					 M5071.835,3296.915h-13.937v-55.429h13.937V3296.915z M5106.093,3296.915h-16.171l-17.979-29.044l17.128-26.385h15.852
					l-18.192,25.853L5106.093,3296.915z"/>
                <path fill="#8A8A8A" d="M5158.754,3296.915h-13.938v-22.235h-17.767v22.235h-13.937v-55.429h13.937v20.959h17.767v-20.959
					h13.938V3296.915z"/>
                <path fill="#8A8A8A" d="M5185.245,3296.915H5169.5l11.171-22.661c-3.191-1.205-5.711-3.155-7.554-5.852
					c-1.845-2.694-2.767-5.886-2.767-9.575c0-5.035,1.719-9.184,5.16-12.447c3.439-3.262,7.854-4.894,13.246-4.894h26.916v55.429
					h-13.83v-19.682h-7.447L5185.245,3296.915z M5202.055,3266.274v-13.724h-10.853c-2.271,0-4.062,0.622-5.372,1.861
					c-1.313,1.242-1.969,2.926-1.969,5.054c0,2.059,0.655,3.707,1.969,4.947c1.311,1.242,3.102,1.861,5.372,1.861H5202.055z"/>
                <path fill="#8A8A8A" d="M5242.163,3296.915h-15.746l11.171-22.661c-3.192-1.205-5.71-3.155-7.554-5.852
					c-1.846-2.694-2.766-5.886-2.766-9.575c0-5.035,1.719-9.184,5.159-12.447c3.439-3.262,7.854-4.894,13.245-4.894h26.917v55.429
					h-13.831v-19.682h-7.447L5242.163,3296.915z M5258.971,3266.274v-13.724h-10.852c-2.271,0-4.061,0.622-5.373,1.861
					c-1.312,1.242-1.968,2.926-1.968,5.054c0,2.059,0.655,3.707,1.968,4.947c1.312,1.242,3.103,1.861,5.373,1.861H5258.971z"/>
                <path fill="#8A8A8A" d="M5358.231,3296.915h-13.938v-43.194h-17.767v43.194h-13.937v-55.429h45.641V3296.915z"/>
                <path fill="#8A8A8A" d="M5415.042,3296.915h-13.512v-4.787c-1.915,1.915-3.884,3.281-5.905,4.096
					c-2.021,0.814-4.592,1.224-7.713,1.224c-6.17,0-10.888-1.631-14.149-4.895c-3.05-3.191-4.575-7.341-4.575-12.447
					c0-4.681,1.631-8.527,4.895-11.543c3.262-3.014,8.014-4.521,14.256-4.521h12.873v-2.767c0-3.049-0.816-5.266-2.447-6.649
					c-1.632-1.383-4.255-2.074-7.872-2.074c-4.327,0-7.873,1.596-10.64,4.787l-8.724-8.617c2.694-2.979,5.515-5.035,8.458-6.171
					c2.942-1.134,6.756-1.702,11.438-1.702c15.745,0,23.618,6.526,23.618,19.576V3296.915z M5401.211,3276.488v-2.979h-10.532
					c-5.462,0-8.192,2.127-8.192,6.383c0,4.186,2.801,6.277,8.405,6.277c3.617,0,6.347-0.887,8.192-2.66
					C5400.502,3282.304,5401.211,3279.963,5401.211,3276.488z"/>
                <path fill="#8A8A8A" d="M5475.152,3296.915h-13.831v-43.194h-13.299v13.299c0,11.277-1.454,19.08-4.361,23.405
					c-2.909,4.327-7.377,6.49-13.405,6.49h-6.597v-12.234h1.703c1.489,0,2.66-0.16,3.511-0.479c0.851-0.318,1.79-1.099,2.819-2.34
					c1.027-1.24,1.771-3.352,2.234-6.33c0.46-2.979,0.691-6.845,0.691-11.597v-22.448h40.534V3296.915z"/>
                <path fill="#8A8A8A" d="M5534.518,3241.486l-23.725,64.365c-1.49,3.972-3.494,6.862-6.012,8.671s-5.869,2.713-10.053,2.713
					h-5.426v-12.447h3.191c2.056,0,3.545-0.338,4.468-1.011c0.921-0.675,1.737-2.005,2.447-3.99l2.341-6.809l-18.938-51.492h14.575
					l11.489,34.257l11.065-34.257H5534.518z"/>
                <path fill="#8A8A8A" d="M5564.944,3297.553c-9.148,0-15.568-2.873-19.256-8.618c-2.979-4.681-4.469-12.802-4.469-24.363
					c0-8.793,0.266-15.549,0.798-20.267c0.532-4.716,1.384-8.352,2.554-10.905c1.17-2.553,2.995-4.787,5.479-6.702
					c3.191-2.482,7.252-4.113,12.182-4.895c4.93-0.779,11.969-1.205,21.119-1.276v11.916c-1.064,0.071-2.891,0.159-5.479,0.266
					c-2.59,0.106-4.681,0.213-6.276,0.319c-1.597,0.106-3.441,0.372-5.533,0.798c-2.093,0.426-3.883,1.029-5.373,1.809
					c-2.553,1.348-4.361,2.979-5.426,4.894c-1.063,1.915-1.596,4.54-1.596,7.873c1.064-1.844,2.89-3.368,5.479-4.574
					c2.589-1.206,5.372-1.809,8.352-1.809c5.745,0,10.283,1.489,13.618,4.468c4.681,4.398,7.021,11.881,7.021,22.448
					c0,5.463-0.532,9.895-1.596,13.299c-1.064,3.404-2.803,6.383-5.213,8.937
					C5577.286,3295.425,5571.823,3297.553,5564.944,3297.553z M5564.731,3285.105c2.908,0,5.143-0.921,6.703-2.766
					c1.915-2.341,2.873-6.703,2.873-13.086c0-6.1-0.924-10.283-2.767-12.554c-1.489-1.985-3.761-2.979-6.81-2.979
					c-3.05,0-5.355,0.958-6.915,2.873c-1.845,2.412-2.767,6.596-2.767,12.554c0,6.596,1.027,11.029,3.086,13.299
					C5559.625,3284.219,5561.823,3285.105,5564.731,3285.105z"/>
                <path fill="#8A8A8A" d="M5642.926,3296.915h-13.512v-4.787c-1.914,1.915-3.883,3.281-5.904,4.096s-4.593,1.224-7.713,1.224
					c-6.171,0-10.889-1.631-14.15-4.895c-3.05-3.191-4.574-7.341-4.574-12.447c0-4.681,1.631-8.527,4.895-11.543
					c3.261-3.014,8.014-4.521,14.256-4.521h12.873v-2.767c0-3.049-0.816-5.266-2.447-6.649c-1.633-1.383-4.256-2.074-7.873-2.074
					c-4.326,0-7.873,1.596-10.639,4.787l-8.725-8.617c2.695-2.979,5.515-5.035,8.459-6.171c2.941-1.134,6.756-1.702,11.437-1.702
					c15.745,0,23.618,6.526,23.618,19.576V3296.915z M5629.096,3276.488v-2.979h-10.533c-5.462,0-8.191,2.127-8.191,6.383
					c0,4.186,2.801,6.277,8.404,6.277c3.617,0,6.348-0.887,8.192-2.66C5628.386,3282.304,5629.096,3279.963,5629.096,3276.488z"/>
			</g>
            <g>
				<path fill="#8A8A8A" d="M6235.512,3643.811h-5.729v-50.287l-10.582,9.31v-6.525l10.582-9.15h5.729V3643.811z"/>
                <path fill="#8A8A8A" d="M7542.819,3346.092h-5.729v-50.287l-10.583,9.31v-6.525l10.583-9.15h5.729V3346.092z"/>
                <path fill="#8A8A8A" d="M7594.776,3346.092h-31.27V3341l22.358-28.405c2.121-2.758,3.183-5.543,3.183-8.355
					c0-3.075-0.875-5.542-2.625-7.399c-1.751-1.856-4.166-2.785-7.241-2.785c-2.864,0-5.226,0.85-7.082,2.546
					c-1.857,1.698-2.784,4.271-2.784,7.719h-5.729c0-4.509,1.433-8.196,4.297-11.061s6.63-4.297,11.299-4.297
					c4.667,0,8.435,1.393,11.299,4.178s4.296,6.485,4.296,11.1c0,2.176-0.346,4.111-1.033,5.809
					c-0.69,1.698-1.857,3.581-3.502,5.649L7570.428,3341h24.348V3346.092z"/>
                <path fill="#8A8A8A" d="M5877.385,3628.374c0,5.04-1.564,8.966-4.694,11.776c-3.131,2.812-7.108,4.217-11.936,4.217
					c-4.722,0-8.62-1.259-11.696-3.779c-3.077-2.519-4.722-6.246-4.934-11.18h5.729c0.211,3.342,1.339,5.822,3.382,7.44
					c2.041,1.618,4.548,2.427,7.519,2.427c3.13,0,5.729-0.981,7.798-2.944c2.069-1.962,3.104-4.641,3.104-8.036
					c0-7.32-3.714-10.98-11.14-10.98h-1.193v-5.014h1.193c3.394,0,5.928-0.888,7.599-2.665c1.671-1.776,2.507-4.31,2.507-7.599
					s-0.929-5.835-2.785-7.639c-1.857-1.803-4.217-2.705-7.082-2.705c-2.971,0-5.345,0.849-7.121,2.546
					c-1.778,1.698-2.799,4.006-3.063,6.922h-5.729c0.318-4.508,1.949-8.062,4.894-10.662c2.943-2.598,6.616-3.898,11.02-3.898
					c4.615,0,8.367,1.406,11.26,4.217c2.891,2.812,4.336,6.525,4.336,11.14c0,6.048-2.546,10.238-7.639,12.572
					C5874.494,3616.705,5877.385,3621.32,5877.385,3628.374z"/>
                <path fill="#8A8A8A" d="M5509.075,3625.112c0,3.395-0.293,6.285-0.875,8.673c-0.585,2.387-1.805,4.509-3.66,6.365
					c-2.812,2.812-6.578,4.217-11.299,4.217c-4.882,0-8.674-1.353-11.379-4.058c-2.335-2.387-3.66-5.676-3.979-9.866h5.729
					c0.742,5.888,3.951,8.832,9.629,8.832c2.916,0,5.251-0.876,7.002-2.626c2.068-2.069,3.103-5.914,3.103-11.537
					c0-1.962-0.119-3.673-0.358-5.133c-0.238-1.458-0.676-2.891-1.312-4.297c-0.637-1.404-1.619-2.479-2.943-3.223
					c-1.327-0.742-2.973-1.113-4.934-1.113c-2.441,0-4.47,0.505-6.088,1.512c-1.618,1.008-2.719,2.36-3.302,4.058h-5.172v-29.759
					h28.646v5.093h-23.474v17.982c2.334-2.599,5.729-3.898,10.185-3.898c4.139,0,7.4,1.193,9.787,3.58
					C5507.509,3613.045,5509.075,3618.109,5509.075,3625.112z"/>
                <path fill="#8A8A8A" d="M5141.32,3592.25l-19.653,51.561h-6.047l19.653-51.561h-19.733v8.911h-5.649v-14.004h31.429V3592.25z"/>
                <path fill="#8A8A8A" d="M4771.735,3602.992c0,3.713-1.193,7.956-3.581,12.73l-13.924,28.088h-5.968l12.731-25.462
					c-1.75,0.796-3.767,1.193-6.047,1.193c-4.35,0-7.877-1.498-10.583-4.495c-2.705-2.997-4.058-6.855-4.058-11.578
					c0-4.88,1.433-8.897,4.297-12.055c2.864-3.155,6.656-4.734,11.378-4.734c4.774,0,8.593,1.486,11.458,4.456
					C4770.303,3594.107,4771.735,3598.059,4771.735,3602.992z M4766.006,3603.23c0-3.447-0.915-6.219-2.745-8.315
					c-1.83-2.095-4.257-3.143-7.28-3.143s-5.438,1.048-7.241,3.143c-1.804,2.097-2.706,4.868-2.706,8.315
					c0,3.29,0.875,6.021,2.626,8.195c1.75,2.176,4.19,3.263,7.32,3.263c3.023,0,5.45-1.034,7.28-3.104
					C4765.091,3609.517,4766.006,3606.731,4766.006,3603.23z"/>
                <path fill="#8A8A8A" d="M6453.995,2955.269h-31.271v-5.093l22.358-28.405c2.121-2.758,3.183-5.543,3.183-8.355
					c0-3.075-0.875-5.542-2.625-7.399c-1.751-1.856-4.165-2.785-7.241-2.785c-2.864,0-5.226,0.85-7.082,2.546
					c-1.857,1.698-2.784,4.271-2.784,7.719h-5.729c0-4.509,1.433-8.196,4.297-11.061s6.631-4.297,11.299-4.297
					c4.667,0,8.435,1.393,11.299,4.178s4.297,6.485,4.297,11.1c0,2.176-0.346,4.111-1.034,5.809
					c-0.69,1.698-1.857,3.581-3.501,5.649l-19.813,25.303h24.349V2955.269z"/>
                <path fill="#8A8A8A" d="M6087.195,2946.277h-6.923v8.991h-5.649v-8.991h-22.598v-5.172l20.449-42.49h6.127l-20.449,42.49h16.471
					v-16.073h5.649v16.073h6.923V2946.277z"/>
                <path fill="#8A8A8A" d="M5716.974,2938.957c0,4.881-1.433,8.899-4.297,12.055c-2.864,3.156-6.657,4.734-11.378,4.734
					c-4.774,0-8.594-1.484-11.458-4.456c-2.865-2.97-4.297-6.923-4.297-11.855c0-3.713,1.193-7.957,3.58-12.731l13.925-28.088h5.889
					l-12.652,25.462c1.751-0.795,3.74-1.193,5.968-1.193c4.402,0,7.957,1.5,10.662,4.496
					C5715.622,2930.377,5716.974,2934.236,5716.974,2938.957z M5711.245,2939.195c0-3.288-0.889-6.02-2.665-8.195
					c-1.778-2.175-4.23-3.263-7.36-3.263c-3.023,0-5.438,1.035-7.24,3.104c-1.805,2.069-2.706,4.854-2.706,8.354
					c0,3.449,0.901,6.221,2.706,8.315c1.803,2.096,4.217,3.143,7.24,3.143s5.45-1.047,7.28-3.143
					C5710.33,2945.416,5711.245,2942.645,5711.245,2939.195z"/>
                <path fill="#8A8A8A" d="M5349.379,2939.673c0,4.722-1.592,8.581-4.775,11.577c-3.182,2.998-7.16,4.496-11.935,4.496
					s-8.753-1.498-11.936-4.496c-3.183-2.996-4.774-6.855-4.774-11.577c0-5.94,2.838-10.529,8.514-13.766
					c-4.933-2.811-7.399-7.002-7.399-12.571c0-4.402,1.472-8.037,4.416-10.901s6.671-4.297,11.18-4.297
					c4.508,0,8.235,1.433,11.179,4.297c2.945,2.864,4.416,6.499,4.416,10.901c0,5.569-2.439,9.761-7.32,12.571
					C5346.567,2929.091,5349.379,2933.68,5349.379,2939.673z M5340.506,2947.471c2.096-2.121,3.144-4.747,3.144-7.877
					s-1.048-5.755-3.144-7.878c-2.096-2.121-4.707-3.183-7.837-3.183c-3.131,0-5.743,1.062-7.837,3.183
					c-2.097,2.123-3.144,4.748-3.144,7.878s1.047,5.756,3.144,7.877c2.094,2.122,4.706,3.183,7.837,3.183
					C5335.799,2950.653,5338.411,2949.593,5340.506,2947.471z M5339.791,2920.696c1.83-1.883,2.745-4.31,2.745-7.281
					c0-2.97-0.915-5.41-2.745-7.32c-1.83-1.909-4.204-2.864-7.121-2.864c-2.918,0-5.292,0.955-7.122,2.864
					c-1.83,1.91-2.744,4.351-2.744,7.32c0,2.972,0.914,5.398,2.744,7.281s4.204,2.824,7.122,2.824
					C5335.586,2923.521,5337.96,2922.579,5339.791,2920.696z"/>
                <path fill="#8A8A8A" d="M4948.922,2955.269h-5.729v-50.287l-10.583,9.31v-6.525l10.583-9.15h5.729V2955.269z"/>
                <path fill="#8A8A8A" d="M5000.482,2940.15c0,4.615-1.472,8.368-4.416,11.259c-2.944,2.893-6.644,4.337-11.1,4.337
					c-4.509,0-8.223-1.433-11.14-4.297c-2.918-2.864-4.376-6.63-4.376-11.299v-26.417c0-4.667,1.458-8.435,4.376-11.299
					c2.917-2.864,6.63-4.297,11.14-4.297c4.456,0,8.156,1.446,11.1,4.337c2.944,2.892,4.416,6.644,4.416,11.259V2940.15z
					 M4994.753,2939.832v-25.78c0-3.183-0.863-5.781-2.586-7.798c-1.724-2.015-4.125-3.023-7.201-3.023
					c-3.077,0-5.478,1.009-7.201,3.023c-1.724,2.017-2.586,4.615-2.586,7.798v25.78c0,3.183,0.862,5.782,2.586,7.798
					c1.723,2.017,4.124,3.023,7.201,3.023c3.076,0,5.477-1.007,7.201-3.023C4993.89,2945.614,4994.753,2943.015,4994.753,2939.832z"
                />
                <path fill="#8A8A8A" d="M4582.039,2955.269h-5.729v-50.287l-10.583,9.31v-6.525l10.583-9.15h5.729V2955.269z"/>
                <path fill="#8A8A8A" d="M4623.573,2955.269h-5.729v-50.287l-10.583,9.31v-6.525l10.583-9.15h5.729V2955.269z"/>
			</g>
            <path fill="#F5F5F5" d="M6611.366,5134.43h-322c-33.884,0-61.353-27.469-61.353-61.353v-664.838
			c0-33.884,27.469-61.353,61.353-61.353h322c33.884,0,61.353,27.468,61.353,61.353v664.838
			C6672.719,5106.961,6645.25,5134.43,6611.366,5134.43z"/>
            <rect x="2684.483" y="4478.007" fill="none" stroke="#B5B5B5" stroke-width="5" stroke-miterlimit="10" width="948.706" height="524.706"/>
            <rect x="2684.483" y="4627.419" fill="none" stroke="#B5B5B5" stroke-width="5" stroke-miterlimit="10" width="42.353" height="225.882"/>
            <rect x="2726.836" y="4627.419" fill="none" stroke="#B5B5B5" stroke-width="5" stroke-miterlimit="10" width="42.353" height="225.882"/>
            <rect x="2769.189" y="4627.419" fill="none" stroke="#B5B5B5" stroke-width="5" stroke-miterlimit="10" width="42.353" height="225.882"/>
            <rect x="2811.542" y="4627.419" fill="none" stroke="#B5B5B5" stroke-width="5" stroke-miterlimit="10" width="42.353" height="225.882"/>
            <rect x="2853.895" y="4627.419" fill="none" stroke="#B5B5B5" stroke-width="5" stroke-miterlimit="10" width="42.353" height="225.882"/>
            <rect x="2896.248" y="4627.419" fill="none" stroke="#B5B5B5" stroke-width="5" stroke-miterlimit="10" width="42.353" height="225.882"/>
            <rect x="2938.601" y="4627.419" fill="none" stroke="#B5B5B5" stroke-width="5" stroke-miterlimit="10" width="42.353" height="225.882"/>
            <rect x="2980.954" y="4627.419" fill="none" stroke="#B5B5B5" stroke-width="5" stroke-miterlimit="10" width="42.353" height="225.882"/>
            <rect x="3023.307" y="4627.419" fill="none" stroke="#B5B5B5" stroke-width="5" stroke-miterlimit="10" width="42.353" height="225.882"/>
            <rect x="3065.66" y="4627.419" fill="none" stroke="#B5B5B5" stroke-width="5" stroke-miterlimit="10" width="42.353" height="225.882"/>
            <rect x="3108.013" y="4627.419" fill="none" stroke="#B5B5B5" stroke-width="5" stroke-miterlimit="10" width="42.353" height="225.882"/>
            <g>
				<path fill="#8A8A8A" d="M6356.117,4743.483c-1.349,7.731-4.505,13.654-9.469,17.767c-4.966,4.114-11.064,6.171-18.299,6.171
					c-8.086,0-14.859-2.66-20.32-7.979c-3.477-3.475-5.622-7.288-6.437-11.437c-0.816-4.149-1.224-10.515-1.224-19.098
					c0-8.581,0.407-14.947,1.224-19.097c0.814-4.149,2.96-7.961,6.437-11.437c5.461-5.319,12.234-7.979,20.32-7.979
					c7.234,0,13.333,2.058,18.299,6.171c4.964,4.114,8.12,10.037,9.469,17.767h-15.107c-1.702-7.163-5.923-10.745-12.66-10.745
					c-4.043,0-7.2,1.313-9.469,3.937c-1.42,1.632-2.394,3.849-2.926,6.649c-0.532,2.803-0.798,7.713-0.798,14.734
					c0,7.022,0.266,11.935,0.798,14.735c0.532,2.803,1.506,5.019,2.926,6.649c2.269,2.625,5.426,3.937,9.469,3.937
					c6.809,0,11.064-3.581,12.767-10.745H6356.117z"/>
                <path fill="#8A8A8A" d="M6420.801,4780.4h-13.192v-13.618h-39.896v-55.429h13.938v43.194h17.767v-43.194h13.938v43.194h7.447
					V4780.4z"/>
                <path fill="#8A8A8A" d="M6476.017,4743.377h-34.683c0,3.688,1.063,6.667,3.191,8.937c2.128,2.271,5.106,3.404,8.937,3.404
					c2.836,0,5.16-0.407,6.969-1.224c1.809-0.814,3.67-2.145,5.585-3.989l8.405,8.191c-2.979,3.051-6.048,5.267-9.203,6.649
					c-3.156,1.384-7.111,2.075-11.862,2.075c-3.547,0-6.756-0.444-9.628-1.33c-2.873-0.886-5.551-2.357-8.032-4.415
					c-2.483-2.057-4.434-5.001-5.852-8.83c-1.42-3.83-2.128-8.44-2.128-13.831c0-8.865,2.197-15.799,6.597-20.799
					c4.396-5.001,10.248-7.501,17.554-7.501c7.589,0,13.512,2.466,17.768,7.395c4.255,4.931,6.383,11.401,6.383,19.416V4743.377z
					 M6462.399,4733.908c-0.071-2.411-0.497-4.397-1.276-5.958c-1.702-3.83-4.787-5.745-9.256-5.745s-7.554,1.915-9.256,5.745
					c-0.781,1.561-1.207,3.547-1.276,5.958H6462.399z"/>
                <path fill="#8A8A8A" d="M6534.318,4766.782h-13.938v-22.235h-17.767v22.235h-13.938v-55.429h13.938v20.959h17.767v-20.959
					h13.938V4766.782z"/>
                <path fill="#8A8A8A" d="M6591.662,4766.782h-13.512v-4.787c-1.915,1.915-3.884,3.281-5.905,4.096
					c-2.021,0.814-4.593,1.224-7.713,1.224c-6.171,0-10.888-1.631-14.149-4.895c-3.051-3.191-4.575-7.341-4.575-12.447
					c0-4.681,1.631-8.527,4.895-11.543c3.261-3.014,8.014-4.521,14.256-4.521h12.873v-2.767c0-3.049-0.816-5.266-2.447-6.649
					c-1.632-1.383-4.255-2.074-7.872-2.074c-4.327,0-7.873,1.596-10.64,4.787l-8.724-8.617c2.694-2.979,5.514-5.035,8.458-6.171
					c2.942-1.134,6.756-1.702,11.437-1.702c15.746,0,23.619,6.526,23.619,19.576V4766.782z M6577.831,4746.355v-2.979h-10.532
					c-5.463,0-8.192,2.127-8.192,6.383c0,4.186,2.801,6.277,8.405,6.277c3.617,0,6.347-0.887,8.191-2.66
					C6577.121,4752.172,6577.831,4749.831,6577.831,4746.355z"/>
			</g>
            <g>
				<path fill="#8A8A8A" d="M4953.638,4877.501c0,4.894-1.526,8.776-4.575,11.649c-3.05,2.872-7.2,4.309-12.448,4.309h-28.299
					v-55.429h27.342c5.177,0,9.326,1.383,12.448,4.149c3.12,2.766,4.681,6.454,4.681,11.064c0,5.106-2.341,9.008-7.022,11.702
					C4951.013,4867.643,4953.638,4871.827,4953.638,4877.501z M4932.36,4848.243h-10.32v11.916h10.32
					c4.468,0,6.703-2.021,6.703-6.064C4939.063,4850.195,4936.829,4848.243,4932.36,4848.243z M4939.914,4876.756
					c0-2.057-0.604-3.652-1.809-4.787c-1.207-1.134-2.909-1.703-5.107-1.703h-10.958v12.979h10.958c2.128,0,3.812-0.585,5.054-1.755
					C4939.292,4880.32,4939.914,4878.742,4939.914,4876.756z"/>
                <path fill="#8A8A8A" d="M5011.939,4870.054h-34.683c0,3.688,1.064,6.667,3.192,8.937c2.127,2.271,5.106,3.404,8.937,3.404
					c2.836,0,5.16-0.407,6.968-1.224c1.809-0.814,3.67-2.145,5.585-3.989l8.405,8.191c-2.979,3.051-6.047,5.267-9.203,6.649
					c-3.157,1.384-7.111,2.075-11.862,2.075c-3.547,0-6.756-0.444-9.628-1.33s-5.55-2.357-8.032-4.415
					c-2.483-2.057-4.434-5.001-5.852-8.83c-1.419-3.83-2.127-8.44-2.127-13.831c0-8.865,2.197-15.799,6.596-20.799
					c4.396-5.001,10.248-7.501,17.554-7.501c7.588,0,13.511,2.466,17.767,7.395c4.255,4.931,6.383,11.401,6.383,19.416V4870.054z
					 M4998.321,4860.585c-0.071-2.411-0.497-4.397-1.276-5.958c-1.703-3.83-4.788-5.745-9.256-5.745
					c-4.469,0-7.554,1.915-9.256,5.745c-0.782,1.561-1.207,3.547-1.277,5.958H4998.321z"/>
                <path fill="#8A8A8A" d="M5071.091,4865.691c0,5.745-0.356,10.463-1.064,14.149c-0.71,3.689-2.271,6.774-4.681,9.256
					c-3.192,3.335-7.66,5.001-13.405,5.001c-5.745,0-10.213-1.844-13.405-5.532v25.214h-13.831v-75.749h13.405v5.213
					c3.475-3.899,8.086-5.852,13.831-5.852c5.745,0,10.213,1.668,13.405,5c2.41,2.484,3.971,5.569,4.681,9.257
					C5070.735,4855.337,5071.091,4860.018,5071.091,4865.691z M5056.941,4872.021c0.213-1.666,0.319-3.776,0.319-6.33
					s-0.106-4.663-0.319-6.33c-0.213-1.666-0.622-3.28-1.224-4.841c-0.604-1.56-1.561-2.729-2.873-3.511
					c-1.313-0.779-2.962-1.171-4.947-1.171c-1.987,0-3.636,0.392-4.947,1.171c-1.313,0.781-2.271,1.951-2.873,3.511
					c-0.604,1.561-1.011,3.175-1.224,4.841c-0.212,1.667-0.319,3.776-0.319,6.33s0.106,4.664,0.319,6.33
					c0.213,1.667,0.62,3.298,1.224,4.894c0.602,1.597,1.559,2.785,2.873,3.564c1.312,0.781,2.96,1.17,4.947,1.17
					c1.985,0,3.634-0.389,4.947-1.17c1.312-0.779,2.269-1.968,2.873-3.564C5056.319,4875.319,5056.728,4873.688,5056.941,4872.021z"
                />
                <path fill="#8A8A8A" d="M5129.18,4893.459h-16.597l-10.213-16.597l-10.107,16.597h-16.597l19.15-28.3l-18.405-27.129h16.597
					l9.362,15.852l9.469-15.852h16.597l-18.406,27.129L5129.18,4893.459z"/>
                <path fill="#8A8A8A" d="M5183.757,4893.459h-13.937v-22.235h-17.768v22.235h-13.938v-55.429h13.938v20.959h17.768v-20.959
					h13.937V4893.459z"/>
                <path fill="#8A8A8A" d="M5210.249,4893.459h-15.746l11.171-22.661c-3.192-1.205-5.71-3.155-7.554-5.852
					c-1.846-2.694-2.766-5.886-2.766-9.575c0-5.035,1.719-9.184,5.159-12.447c3.439-3.262,7.854-4.894,13.245-4.894h26.917v55.429
					h-13.831v-19.682h-7.447L5210.249,4893.459z M5227.057,4862.818v-13.724h-10.852c-2.271,0-4.061,0.622-5.373,1.861
					c-1.312,1.242-1.968,2.926-1.968,5.054c0,2.059,0.655,3.707,1.968,4.947c1.312,1.242,3.103,1.861,5.373,1.861H5227.057z"/>
                <path fill="#8A8A8A" d="M5267.165,4893.459h-15.745l11.171-22.661c-3.191-1.205-5.711-3.155-7.554-5.852
					c-1.845-2.694-2.767-5.886-2.767-9.575c0-5.035,1.719-9.184,5.16-12.447c3.439-3.262,7.854-4.894,13.246-4.894h26.916v55.429
					h-13.83v-19.682h-7.447L5267.165,4893.459z M5283.975,4862.818v-13.724h-10.853c-2.271,0-4.062,0.622-5.372,1.861
					c-1.313,1.242-1.969,2.926-1.969,5.054c0,2.059,0.655,3.707,1.969,4.947c1.311,1.242,3.102,1.861,5.372,1.861H5283.975z"/>
                <path fill="#8A8A8A" d="M5383.235,4893.459h-13.938v-43.194h-17.768v43.194h-13.937v-55.429h45.642V4893.459z"/>
                <path fill="#8A8A8A" d="M5440.045,4893.459h-13.512v-4.787c-1.915,1.915-3.883,3.281-5.904,4.096s-4.594,1.224-7.713,1.224
					c-6.172,0-10.889-1.631-14.15-4.895c-3.051-3.191-4.574-7.341-4.574-12.447c0-4.681,1.631-8.527,4.894-11.543
					c3.261-3.014,8.015-4.521,14.256-4.521h12.873v-2.767c0-3.049-0.815-5.266-2.446-6.649c-1.633-1.383-4.256-2.074-7.873-2.074
					c-4.327,0-7.873,1.596-10.639,4.787l-8.725-8.617c2.695-2.979,5.514-5.035,8.458-6.171c2.942-1.134,6.756-1.702,11.437-1.702
					c15.746,0,23.619,6.526,23.619,19.576V4893.459z M5426.214,4873.032v-2.979h-10.532c-5.463,0-8.191,2.127-8.191,6.383
					c0,4.186,2.801,6.277,8.404,6.277c3.617,0,6.347-0.887,8.191-2.66C5425.504,4878.849,5426.214,4876.508,5426.214,4873.032z"/>
                <path fill="#8A8A8A" d="M5500.155,4893.459h-13.83v-43.194h-13.299v13.299c0,11.277-1.455,19.08-4.362,23.405
					c-2.909,4.327-7.378,6.49-13.405,6.49h-6.596v-12.234h1.702c1.489,0,2.659-0.16,3.511-0.479c0.852-0.318,1.79-1.099,2.819-2.34
					c1.027-1.24,1.772-3.352,2.233-6.33c0.461-2.979,0.692-6.845,0.692-11.597v-22.448h40.534V4893.459z"/>
                <path fill="#8A8A8A" d="M5559.522,4838.03l-23.726,64.365c-1.489,3.972-3.494,6.862-6.011,8.671
					c-2.519,1.809-5.869,2.713-10.054,2.713h-5.426v-12.447h3.191c2.056,0,3.546-0.338,4.468-1.011
					c0.922-0.675,1.738-2.005,2.447-3.99l2.341-6.809l-18.937-51.492h14.574l11.49,34.257l11.064-34.257H5559.522z"/>
                <path fill="#8A8A8A" d="M5589.948,4894.098c-9.15,0-15.57-2.873-19.258-8.618c-2.979-4.681-4.468-12.802-4.468-24.363
					c0-8.793,0.267-15.549,0.798-20.267c0.532-4.716,1.383-8.352,2.554-10.905c1.17-2.553,2.995-4.787,5.479-6.702
					c3.191-2.482,7.25-4.113,12.182-4.895c4.928-0.779,11.969-1.205,21.117-1.276v11.916c-1.063,0.071-2.891,0.159-5.479,0.266
					c-2.59,0.106-4.682,0.213-6.277,0.319s-3.441,0.372-5.531,0.798c-2.094,0.426-3.884,1.029-5.373,1.809
					c-2.554,1.348-4.362,2.979-5.426,4.894c-1.064,1.915-1.596,4.54-1.596,7.873c1.063-1.844,2.889-3.368,5.479-4.574
					c2.588-1.206,5.373-1.809,8.352-1.809c5.745,0,10.283,1.489,13.617,4.468c4.682,4.398,7.022,11.881,7.022,22.448
					c0,5.463-0.532,9.895-1.597,13.299c-1.062,3.404-2.802,6.383-5.213,8.937C5602.288,4891.97,5596.826,4894.098,5589.948,4894.098
					z M5589.735,4881.649c2.906,0,5.141-0.921,6.702-2.766c1.915-2.341,2.872-6.703,2.872-13.086c0-6.1-0.922-10.283-2.766-12.554
					c-1.49-1.985-3.76-2.979-6.809-2.979c-3.051,0-5.356,0.958-6.916,2.873c-1.846,2.412-2.766,6.596-2.766,12.554
					c0,6.596,1.027,11.029,3.085,13.299C5584.627,4880.764,5586.825,4881.649,5589.735,4881.649z"/>
                <path fill="#8A8A8A" d="M5667.93,4893.459h-13.512v-4.787c-1.916,1.915-3.884,3.281-5.905,4.096
					c-2.021,0.814-4.593,1.224-7.713,1.224c-6.171,0-10.888-1.631-14.149-4.895c-3.051-3.191-4.575-7.341-4.575-12.447
					c0-4.681,1.631-8.527,4.894-11.543c3.262-3.014,8.015-4.521,14.256-4.521h12.873v-2.767c0-3.049-0.815-5.266-2.446-6.649
					c-1.632-1.383-4.255-2.074-7.872-2.074c-4.328,0-7.873,1.596-10.64,4.787l-8.724-8.617c2.694-2.979,5.514-5.035,8.457-6.171
					c2.943-1.134,6.756-1.702,11.438-1.702c15.746,0,23.619,6.526,23.619,19.576V4893.459z M5654.098,4873.032v-2.979h-10.531
					c-5.463,0-8.192,2.127-8.192,6.383c0,4.186,2.801,6.277,8.405,6.277c3.617,0,6.346-0.887,8.191-2.66
					C5653.389,4878.849,5654.098,4876.508,5654.098,4873.032z"/>
			</g>
            <line fill="none" stroke="#B5B5B5" stroke-width="5" stroke-miterlimit="10" x1="6758.836" y1="4176.737" x2="6758.836" y2="5304.58"/>
            <line fill="none" stroke="#B5B5B5" stroke-width="5" stroke-miterlimit="10" x1="3896.168" y1="4176.737" x2="3896.168" y2="4590.618"/>
            <line fill="none" stroke="#B5B5B5" stroke-width="5" stroke-miterlimit="10" x1="3896.168" y1="4886.62" x2="3896.168" y2="5300.501"/>
            <rect x="4065.127" y="4259.56" fill="#F5F5F5" width="133.176" height="189.881"/>
            <rect x="4433.597" y="4259.56" fill="#F5F5F5" width="133.176" height="189.881"/>
            <rect x="4802.068" y="4259.56" fill="#F5F5F5" width="133.176" height="189.881"/>
            <rect x="5170.539" y="4259.56" fill="#F5F5F5" width="133.176" height="189.881"/>
            <rect x="5539.009" y="4259.56" fill="#F5F5F5" width="133.177" height="189.881"/>
            <rect x="5907.479" y="4259.56" fill="#F5F5F5" width="133.176" height="189.881"/>
            <g>
				<path fill="#8A8A8A" d="M5977.97,4386.677h-5.729v-50.287l-10.583,9.31v-6.525l10.583-9.15h5.729V4386.677z"/>
                <path fill="#8A8A8A" d="M5619.923,4386.677h-31.271v-5.093l22.359-28.405c2.121-2.758,3.183-5.543,3.183-8.355
					c0-3.075-0.875-5.542-2.626-7.399c-1.75-1.856-4.165-2.785-7.24-2.785c-2.865,0-5.226,0.85-7.082,2.546
					c-1.857,1.698-2.785,4.271-2.785,7.719h-5.729c0-4.509,1.432-8.196,4.297-11.061c2.864-2.864,6.63-4.297,11.299-4.297
					c4.667,0,8.434,1.393,11.299,4.178c2.864,2.785,4.296,6.485,4.296,11.1c0,2.176-0.346,4.111-1.034,5.809
					c-0.689,1.698-1.857,3.581-3.501,5.649l-19.812,25.303h24.348V4386.677z"/>
                <path fill="#8A8A8A" d="M5251.374,4371.24c0,5.04-1.565,8.966-4.694,11.776c-3.131,2.812-7.109,4.217-11.936,4.217
					c-4.722,0-8.621-1.259-11.696-3.779c-3.077-2.519-4.723-6.246-4.934-11.18h5.729c0.212,3.342,1.339,5.822,3.382,7.44
					c2.042,1.618,4.548,2.427,7.52,2.427c3.129,0,5.729-0.981,7.798-2.944c2.068-1.962,3.103-4.641,3.103-8.036
					c0-7.32-3.713-10.98-11.14-10.98h-1.193v-5.014h1.193c3.395,0,5.929-0.888,7.6-2.665c1.671-1.776,2.506-4.31,2.506-7.599
					s-0.929-5.835-2.785-7.639c-1.857-1.803-4.217-2.705-7.081-2.705c-2.972,0-5.345,0.849-7.121,2.546
					c-1.778,1.698-2.799,4.006-3.063,6.922h-5.729c0.318-4.508,1.949-8.062,4.894-10.662c2.944-2.598,6.617-3.898,11.021-3.898
					c4.615,0,8.367,1.406,11.259,4.217c2.891,2.812,4.337,6.525,4.337,11.14c0,6.048-2.547,10.238-7.639,12.572
					C5248.482,4359.571,5251.374,4364.187,5251.374,4371.24z"/>
                <path fill="#8A8A8A" d="M4884.653,4377.686h-6.922v8.991h-5.649v-8.991h-22.598v-5.172l20.449-42.49h6.127l-20.449,42.49h16.471
					v-16.073h5.649v16.073h6.922V4377.686z"/>
                <path fill="#8A8A8A" d="M4514.592,4367.979c0,3.395-0.292,6.285-0.875,8.673c-0.584,2.387-1.804,4.509-3.66,6.365
					c-2.812,2.812-6.578,4.217-11.299,4.217c-4.881,0-8.673-1.353-11.378-4.058c-2.335-2.387-3.66-5.676-3.979-9.866h5.729
					c0.742,5.888,3.951,8.832,9.628,8.832c2.917,0,5.251-0.876,7.002-2.626c2.069-2.069,3.103-5.914,3.103-11.537
					c0-1.962-0.119-3.673-0.358-5.133c-0.239-1.458-0.676-2.891-1.313-4.297c-0.636-1.404-1.619-2.479-2.944-3.223
					c-1.327-0.742-2.972-1.113-4.934-1.113c-2.44,0-4.469,0.505-6.087,1.512c-1.619,1.008-2.719,2.36-3.302,4.058h-5.172v-29.759
					h28.645v5.093h-23.473v17.982c2.334-2.599,5.729-3.898,10.185-3.898c4.138,0,7.4,1.193,9.787,3.58
					C4513.027,4355.911,4514.592,4360.976,4514.592,4367.979z"/>
                <path fill="#8A8A8A" d="M4147.549,4370.365c0,4.881-1.432,8.899-4.296,12.055c-2.865,3.156-6.658,4.734-11.378,4.734
					c-4.774,0-8.594-1.484-11.458-4.456c-2.865-2.97-4.297-6.923-4.297-11.855c0-3.713,1.194-7.957,3.581-12.731l13.925-28.088
					h5.888l-12.652,25.462c1.75-0.795,3.74-1.193,5.968-1.193c4.402,0,7.957,1.5,10.662,4.496
					C4146.197,4361.785,4147.549,4365.645,4147.549,4370.365z M4141.82,4370.604c0-3.288-0.889-6.02-2.666-8.195
					c-1.778-2.175-4.23-3.263-7.36-3.263c-3.024,0-5.438,1.035-7.241,3.104c-1.804,2.069-2.706,4.854-2.706,8.354
					c0,3.449,0.901,6.221,2.706,8.315c1.803,2.096,4.217,3.143,7.241,3.143c3.023,0,5.45-1.047,7.28-3.143
					C4140.905,4376.824,4141.82,4374.053,4141.82,4370.604z"/>
			</g>
        </g>
    </g>
    <g id="labels">
        <text dataSectorId="1">Нижняя палуба</text>
        <text dataSectorId="2">Верхняя палуба</text>
    </g>
    <g id="seats">
        <g dataSectorId="1" dataComponent="svg__sector" dataElId="1">
            <g dataComponent="svg__row" dataName="1" dataElId="1">
				<circle fill="#C7C7C7" cx="6103.198" cy="3526.352" r="23.811" dataComponent="svg__seat" dataName="1"/>
                <circle fill="#C7C7C7" cx="6103.198" cy="3619.999" r="23.811" dataComponent="svg__seat" dataName="2"/>
                <circle fill="#C7C7C7" cx="6103.198" cy="3713.646" r="23.811" dataComponent="svg__seat" dataName="3"/>
                <circle fill="#C7C7C7" cx="6350.727" cy="3526.352" r="23.811" dataComponent="svg__seat" dataName="4"/>
                <circle fill="#C7C7C7" cx="6350.727" cy="3619.999" r="23.811" dataComponent="svg__seat" dataName="5"/>
                <circle fill="#C7C7C7" cx="6350.727" cy="3713.646" r="23.811" dataComponent="svg__seat" dataName="6"/>
            </g>
            <g dataComponent="svg__row" dataName="2" dataElId="2">
				<circle fill="#C7C7C7" cx="6312.845" cy="2835.104" r="23.811" dataComponent="svg__seat" dataName="1"/>
                <circle fill="#C7C7C7" cx="6312.845" cy="2928.751" r="23.811" dataComponent="svg__seat" dataName="2"/>
                <circle fill="#C7C7C7" cx="6312.845" cy="3022.398" r="23.811" dataComponent="svg__seat" dataName="3"/>
                <circle fill="#C7C7C7" cx="6560.374" cy="2835.104" r="23.811" dataComponent="svg__seat" dataName="4"/>
                <circle fill="#C7C7C7" cx="6560.374" cy="2928.751" r="23.811" dataComponent="svg__seat" dataName="5"/>
                <circle fill="#C7C7C7" cx="6560.374" cy="3022.398" r="23.811" dataComponent="svg__seat" dataName="6"/>
            </g>
            <g dataComponent="svg__row" dataName="3" dataElId="3">
				<circle fill="#C7C7C7" cx="5734.727" cy="3526.352" r="23.811" dataComponent="svg__seat" dataName="1"/>
                <circle fill="#C7C7C7" cx="5734.727" cy="3619.999" r="23.811" dataComponent="svg__seat" dataName="2"/>
                <circle fill="#C7C7C7" cx="5734.727" cy="3713.646" r="23.811" dataComponent="svg__seat" dataName="3"/>
                <circle fill="#C7C7C7" cx="5982.256" cy="3526.352" r="23.811" dataComponent="svg__seat" dataName="4"/>
                <circle fill="#C7C7C7" cx="5982.256" cy="3619.999" r="23.811" dataComponent="svg__seat" dataName="5"/>
                <circle fill="#C7C7C7" cx="5982.256" cy="3713.646" r="23.811" dataComponent="svg__seat" dataName="6"/>
            </g>
            <g dataComponent="svg__row" dataName="4" dataElId="4">
				<circle fill="#C7C7C7" cx="5944.374" cy="2835.104" r="23.811" dataComponent="svg__seat" dataName="1"/>
                <circle fill="#C7C7C7" cx="5944.374" cy="2928.751" r="23.811" dataComponent="svg__seat" dataName="2"/>
                <circle fill="#C7C7C7" cx="5944.374" cy="3022.398" r="23.811" dataComponent="svg__seat" dataName="3"/>
                <circle fill="#C7C7C7" cx="6191.904" cy="2835.104" r="23.811" dataComponent="svg__seat" dataName="4"/>
                <circle fill="#C7C7C7" cx="6191.904" cy="2928.751" r="23.811" dataComponent="svg__seat" dataName="5"/>
                <circle fill="#C7C7C7" cx="6191.904" cy="3022.398" r="23.811" dataComponent="svg__seat" dataName="6"/>
            </g>
            <g dataComponent="svg__row" dataName="5" dataElId="5">
				<circle fill="#C7C7C7" cx="5366.256" cy="3526.352" r="23.811" dataComponent="svg__seat" dataName="1"/>
                <circle fill="#C7C7C7" cx="5366.256" cy="3619.999" r="23.811" dataComponent="svg__seat" dataName="2"/>
                <circle fill="#C7C7C7" cx="5366.256" cy="3713.646" r="23.811" dataComponent="svg__seat" dataName="3"/>
                <circle fill="#C7C7C7" cx="5613.786" cy="3526.352" r="23.811" dataComponent="svg__seat" dataName="4"/>
                <circle fill="#C7C7C7" cx="5613.786" cy="3619.999" r="23.811" dataComponent="svg__seat" dataName="5"/>
                <circle fill="#C7C7C7" cx="5613.786" cy="3713.646" r="23.811" dataComponent="svg__seat" dataName="6"/>
            </g>
            <g dataComponent="svg__row" dataName="6" dataElId="6">
				<circle fill="#C7C7C7" cx="5575.904" cy="2835.104" r="23.811" dataComponent="svg__seat" dataName="1"/>
                <circle fill="#C7C7C7" cx="5575.904" cy="2928.751" r="23.811" dataComponent="svg__seat" dataName="2"/>
                <circle fill="#C7C7C7" cx="5575.904" cy="3022.398" r="23.811" dataComponent="svg__seat" dataName="3"/>
                <circle fill="#C7C7C7" cx="5823.433" cy="2835.104" r="23.811" dataComponent="svg__seat" dataName="4"/>
                <circle fill="#C7C7C7" cx="5823.433" cy="2928.751" r="23.811" dataComponent="svg__seat" dataName="5"/>
                <circle fill="#C7C7C7" cx="5823.433" cy="3022.398" r="23.811" dataComponent="svg__seat" dataName="6"/>
            </g>
            <g dataComponent="svg__row" dataName="7" dataElId="7">
				<circle fill="#C7C7C7" cx="4997.786" cy="3526.352" r="23.811" dataComponent="svg__seat" dataName="1"/>
                <circle fill="#C7C7C7" cx="4997.786" cy="3619.999" r="23.811" dataComponent="svg__seat" dataName="2"/>
                <circle fill="#C7C7C7" cx="4997.786" cy="3713.646" r="23.811" dataComponent="svg__seat" dataName="3"/>
                <circle fill="#C7C7C7" cx="5245.315" cy="3526.352" r="23.811" dataComponent="svg__seat" dataName="4"/>
                <circle fill="#C7C7C7" cx="5245.315" cy="3619.999" r="23.811" dataComponent="svg__seat" dataName="5"/>
                <circle fill="#C7C7C7" cx="5245.315" cy="3713.646" r="23.811" dataComponent="svg__seat" dataName="6"/>
            </g>
            <g dataComponent="svg__row" dataName="8" dataElId="8">
				<circle fill="#C7C7C7" cx="5207.433" cy="2835.104" r="23.811" dataComponent="svg__seat" dataName="1"/>
                <circle fill="#C7C7C7" cx="5207.433" cy="2928.751" r="23.811" dataComponent="svg__seat" dataName="2"/>
                <circle fill="#C7C7C7" cx="5207.433" cy="3022.398" r="23.811" dataComponent="svg__seat" dataName="3"/>
                <circle fill="#C7C7C7" cx="5454.962" cy="2835.104" r="23.811" dataComponent="svg__seat" dataName="4"/>
                <circle fill="#C7C7C7" cx="5454.962" cy="2928.751" r="23.811" dataComponent="svg__seat" dataName="5"/>
                <circle fill="#C7C7C7" cx="5454.962" cy="3022.398" r="23.811" dataComponent="svg__seat" dataName="6"/>
            </g>
            <g dataComponent="svg__row" dataName="9" dataElId="9">
				<circle fill="#C7C7C7" cx="4629.315" cy="3526.352" r="23.811" dataComponent="svg__seat" dataName="1"/>
                <circle fill="#C7C7C7" cx="4629.315" cy="3619.999" r="23.811" dataComponent="svg__seat" dataName="2"/>
                <circle fill="#C7C7C7" cx="4629.315" cy="3713.646" r="23.811" dataComponent="svg__seat" dataName="3"/>
                <circle fill="#C7C7C7" cx="4876.845" cy="3526.352" r="23.811" dataComponent="svg__seat" dataName="4"/>
                <circle fill="#C7C7C7" cx="4876.845" cy="3619.999" r="23.811" dataComponent="svg__seat" dataName="5"/>
                <circle fill="#C7C7C7" cx="4876.845" cy="3713.646" r="23.811" dataComponent="svg__seat" dataName="6"/>
            </g>
            <g dataComponent="svg__row" dataName="10" dataElId="10">
				<circle fill="#C7C7C7" cx="4838.962" cy="2835.104" r="23.811" dataComponent="svg__seat" dataName="1"/>
                <circle fill="#C7C7C7" cx="4838.962" cy="2928.751" r="23.811" dataComponent="svg__seat" dataName="2"/>
                <circle fill="#C7C7C7" cx="4838.962" cy="3022.398" r="23.811" dataComponent="svg__seat" dataName="3"/>
                <circle fill="#C7C7C7" cx="5086.492" cy="2835.104" r="23.811" dataComponent="svg__seat" dataName="4"/>
                <circle fill="#C7C7C7" cx="5086.492" cy="2928.751" r="23.811" dataComponent="svg__seat" dataName="5"/>
                <circle fill="#C7C7C7" cx="5086.492" cy="3022.398" r="23.811" dataComponent="svg__seat" dataName="6"/>
            </g>
            <g dataComponent="svg__row" dataName="11" dataElId="11">
			    <circle fill="#C7C7C7" cx="4470.492" cy="2835.104" r="23.811" dataComponent="svg__seat" dataName="1"/>
                <circle fill="#C7C7C7" cx="4470.492" cy="2928.751" r="23.811" dataComponent="svg__seat" dataName="2"/>
                <circle fill="#C7C7C7" cx="4470.492" cy="3022.398" r="23.811" dataComponent="svg__seat" dataName="3"/>
                <circle fill="#C7C7C7" cx="4718.021" cy="2835.104" r="23.811" dataComponent="svg__seat" dataName="4"/>
                <circle fill="#C7C7C7" cx="4718.021" cy="2928.751" r="23.811" dataComponent="svg__seat" dataName="5"/>
                <circle fill="#C7C7C7" cx="4718.021" cy="3022.398" r="23.811" dataComponent="svg__seat" dataName="6"/>
            </g>
            <g dataComponent="svg__row" dataName="12" dataElId="12">
				<circle fill="#C7C7C7" cx="7550.355" cy="3185.572" r="23.811" dataComponent="svg__seat" dataName="1"/>
                <circle fill="#C7C7C7" cx="7464.782" cy="3223.61" r="23.811" dataComponent="svg__seat" dataName="2"/>
                <circle fill="#C7C7C7" cx="7650.898" cy="3411.762" r="23.811" dataComponent="svg__seat" dataName="3"/>
                <circle fill="#C7C7C7" cx="7565.324" cy="3449.8" r="23.811" dataComponent="svg__seat" dataName="4"/>
            </g>
        </g>
        <g dataSectorId="2" dataComponent="svg__sector" dataElId="2">
            <g dataComponent="svg__row" dataName="1" dataElId="1">
				<circle fill="#C7C7C7" cx="5847.244" cy="4304.972" r="23.811" dataComponent="svg__seat" dataName="1"/>
                <circle fill="#C7C7C7" cx="5847.244" cy="4398.619" r="23.811" dataComponent="svg__seat" dataName="2"/>
                <circle fill="#C7C7C7" cx="6094.774" cy="4304.972" r="23.811" dataComponent="svg__seat" dataName="3"/>
                <circle fill="#C7C7C7" cx="6094.774" cy="4398.619" r="23.811" dataComponent="svg__seat" dataName="4"/>
            </g>
            <g dataComponent="svg__row" dataName="2" dataElId="2">
				<circle fill="#C7C7C7" cx="5478.774" cy="4304.972" r="23.811" dataComponent="svg__seat" dataName="1"/>
                <circle fill="#C7C7C7" cx="5478.774" cy="4398.619" r="23.811" dataComponent="svg__seat" dataName="2"/>
                <circle fill="#C7C7C7" cx="5726.303" cy="4304.972" r="23.811" dataComponent="svg__seat" dataName="3"/>
                <circle fill="#C7C7C7" cx="5726.303" cy="4398.619" r="23.811" dataComponent="svg__seat" dataName="4"/>
            </g>
            <g dataComponent="svg__row" dataName="3" dataElId="3">
				<circle fill="#C7C7C7" cx="5110.303" cy="4304.972" r="23.811" dataComponent="svg__seat" dataName="1"/>
                <circle fill="#C7C7C7" cx="5110.303" cy="4398.619" r="23.811" dataComponent="svg__seat" dataName="2"/>
                <circle fill="#C7C7C7" cx="5357.833" cy="4304.972" r="23.811" dataComponent="svg__seat" dataName="3"/>
                <circle fill="#C7C7C7" cx="5357.833" cy="4398.619" r="23.811" dataComponent="svg__seat" dataName="4"/>
            </g>
            <g dataComponent="svg__row" dataName="4" dataElId="4">
				<circle fill="#C7C7C7" cx="4741.833" cy="4304.972" r="23.811" dataComponent="svg__seat" dataName="1"/>
                <circle fill="#C7C7C7" cx="4741.833" cy="4398.619" r="23.811" dataComponent="svg__seat" dataName="2"/>
                <circle fill="#C7C7C7" cx="4989.362" cy="4304.972" r="23.811" dataComponent="svg__seat" dataName="3"/>
                <circle fill="#C7C7C7" cx="4989.362" cy="4398.619" r="23.811" dataComponent="svg__seat" dataName="4"/>
            </g>
            <g dataComponent="svg__row" dataName="5" dataElId="5">
				<circle fill="#C7C7C7" cx="4373.362" cy="4304.972" r="23.811" dataComponent="svg__seat" dataName="1"/>
                <circle fill="#C7C7C7" cx="4373.362" cy="4398.619" r="23.811" dataComponent="svg__seat" dataName="2"/>
                <circle fill="#C7C7C7" cx="4620.892" cy="4304.972" r="23.811" dataComponent="svg__seat" dataName="3"/>
                <circle fill="#C7C7C7" cx="4620.892" cy="4398.619" r="23.811" dataComponent="svg__seat" dataName="4"/>
            </g>
            <g dataComponent="svg__row" dataName="6" dataElId="6">
				<circle fill="#C7C7C7" cx="4004.891" cy="4304.972" r="23.811" dataComponent="svg__seat" dataName="1"/>
                <circle fill="#C7C7C7" cx="4004.891" cy="4398.619" r="23.811" dataComponent="svg__seat" dataName="2"/>
                <circle fill="#C7C7C7" cx="4252.421" cy="4304.972" r="23.811" dataComponent="svg__seat" dataName="3"/>
                <circle fill="#C7C7C7" cx="4252.421" cy="4398.619" r="23.811" dataComponent="svg__seat" dataName="4"/>
            </g>
        </g>
    </g>
</svg>
