<?xml version="1.0" encoding="utf-8"?>
<svg version="1.1" id="map-svg" xmlns="http://www.w3.org/2000/svg" xmlns:xlink="http://www.w3.org/1999/xlink" x="0px" y="0px" width="1024" height="768" viewBox="0 0 10240 7680" xml:space="preserve">
	<metadata>
		<?xpacket begin="﻿" id="W5M0MpCehiHzreSzNTczkc9d"?>
		<x:xmpmeta xmlns:x="adobe:ns:meta/" x:xmptk="Adobe XMP Core 5.5-c014 79.151739, 2013/04/03-12:12:15">
			<rdf:RDF xmlns:rdf="http://www.w3.org/1999/02/22-rdf-syntax-ns#">
				<rdf:Description rdf:about="" xmlns:xmp="http://ns.adobe.com/xap/1.0/" xmlns:xmpGImg="http://ns.adobe.com/xap/1.0/g/img/" xmlns:xmpTPg="http://ns.adobe.com/xap/1.0/t/pg/" xmlns:stDim="http://ns.adobe.com/xap/1.0/sType/Dimensions#" xmlns:stFnt="http://ns.adobe.com/xap/1.0/sType/Font#" xmlns:xmpG="http://ns.adobe.com/xap/1.0/g/" xmlns:dc="http://purl.org/dc/elements/1.1/" xmlns:xmpMM="http://ns.adobe.com/xap/1.0/mm/" xmlns:stRef="http://ns.adobe.com/xap/1.0/sType/ResourceRef#" xmlns:stEvt="http://ns.adobe.com/xap/1.0/sType/ResourceEvent#">
					<xmpTPg:MaxPageSize rdf:parseType="Resource">
						<stDim:w>10240.000397</stDim:w>
						<stDim:h>7680.000000</stDim:h>
						<stDim:unit>Points</stDim:unit>
					</xmpTPg:MaxPageSize>
					<xmpTPg:NPages>1</xmpTPg:NPages>
					<xmpTPg:HasVisibleTransparency>False</xmpTPg:HasVisibleTransparency>
					<xmpTPg:HasVisibleOverprint>False</xmpTPg:HasVisibleOverprint>
					<xmpTPg:Fonts>
						<rdf:Bag>
							<rdf:li rdf:parseType="Resource">
								<stFnt:fontName>DINPro</stFnt:fontName>
								<stFnt:fontFamily>DIN Pro</stFnt:fontFamily>
								<stFnt:fontFace>Regular</stFnt:fontFace>
								<stFnt:fontType>TrueType</stFnt:fontType>
								<stFnt:versionString>Version 7.504; 2005; Build 1021</stFnt:versionString>
								<stFnt:composite>False</stFnt:composite>
								<stFnt:fontFileName>DINPro.ttf</stFnt:fontFileName>
							</rdf:li>
						</rdf:Bag>
					</xmpTPg:Fonts>
					<xmpTPg:PlateNames>
						<rdf:Seq>
							<rdf:li>Cyan</rdf:li>
							<rdf:li>Magenta</rdf:li>
							<rdf:li>Yellow</rdf:li>
							<rdf:li>Black</rdf:li>
						</rdf:Seq>
					</xmpTPg:PlateNames>
					<xmpTPg:SwatchGroups>
						<rdf:Seq>
							<rdf:li rdf:parseType="Resource">
								<xmpG:groupName>Default Swatch Group</xmpG:groupName>
								<xmpG:groupType>0</xmpG:groupType>
							</rdf:li>
						</rdf:Seq>
					</xmpTPg:SwatchGroups>
					<dc:format>image/svg+xml</dc:format>
				</rdf:Description>
			</rdf:RDF>
		</x:xmpmeta>
		<?xpacket end="w"?>
	</metadata>
	<g id="background">
		<path name="Танцевальный партер" id="585801936e55b2054f789fb4" fill="none" stroke="#B5B5B5" stroke-width="5" stroke-miterlimit="10" d="M4315.907999999999,3859.228a960.395,960.395 0 1,0 1920.79,0a960.395,960.395 0 1,0 -1920.79,0"/>
		<path name="Super-VIP" id="99" fill="none" stroke="#B5B5B5" stroke-width="5" stroke-miterlimit="10" d="M6870.496,6528.397
			c28.536-16.574,38.216-53.418,21.51-81.878l-758.091-1291.469c-16.706-28.459-53.91-38.513-82.676-22.342
			c0,0-75.643,42.523-151.233,70.313c-81.204,29.854-169.696,53.387-260.16,70.49c-89.673,16.955-181.284,27.591-269.651,31.805
			c-88.368,4.214-190.332-2.685-190.332-2.685c-32.925-2.228-59.863,22.95-59.863,55.95v1546.681c0,33,26.981,61.005,59.958,62.233
			c0,0,43.93,1.636,96.345,1.636c277.225,0,545.978-36.275,801.771-104.336c168.256-44.77,330.905-103.292,486.67-174.292
			C6688.517,6634.089,6870.496,6528.397,6870.496,6528.397z"/>
		<path name="Super-VIP" id="585801936e55b2054f789fad" fill="none" stroke="#B5B5B5" stroke-width="5" stroke-miterlimit="10" d="M5276.303,1583.03
			c-206.232,0.247-412.353,27.714-611.071,82.963c-48.424,13.464-96.399,28.544-143.818,45.208
			c-5.479,1.926-67.914,18.859-37.935,109.085c33.065,99.517,62.933,200.067,94.399,300.101
			c12.431,39.517,24.861,79.034,37.292,118.552c3.078,9.784,6.155,19.568,9.233,29.352c0.465,1.479,0.931,2.959,1.396,4.439
			c0.119,0.379-46.076,19.731-50.307,21.629c-143.547,64.385-278.039,148.704-398.684,249.669
			c-120.066,100.48-226.333,217.352-314.922,346.444c-89.508,130.433-160.848,273.239-211.161,423.223
			c-51.918,154.769-81.272,316.889-87.403,480.005c-6.087,161.951,10.457,324.696,49.704,481.959
			c37.707,151.092,96.278,296.858,173.473,432.101c76.023,133.188,169.983,256.046,278.492,364.41
			c108.514,108.367,231.503,202.165,364.8,278.008c87.624,49.857,196.701,106.008,303.997,135.303
			c60.729,16.581,116.712-7.419,139.676-61.893c8.982-21.309,16.231-43.308,24.346-64.962
			c37.835-100.953,159.854-426.532,159.854-426.532c11.581-30.901-4.868-63.729-36.553-72.952c0,0-91.532-26.642-166.145-60.729
			c-81.577-37.269-159.598-83.103-222.289-133.232c-118.737-94.946-216.089-216.045-283.014-352.57
			c-69.363-141.499-105.117-298.397-104.734-455.941c0.399-164.193,40.134-327.4,115.981-473.071
			c73.286-140.751,179.261-263.885,307.357-357.526c141.933-103.757,309.942-170.071,484.55-190.9
			c89.605-10.689,210.155-1.529,210.155-1.529c32.905,2.5,59.828-22.454,59.828-55.454c0,0,0-54.125,0-111.187
			c0-107.873,0-215.745,0-323.618c0-63.71,0-127.421,0-191.131c0-58.219,0-116.438,0-174.657c0-96.057,0-208.069,0-304.125
			C5422.802,1580.885,5377.578,1582.909,5276.303,1583.03z"/>
		<path name="Super-VIP" id="585801936e55b2054f789fad" fill="none" stroke="#B5B5B5" stroke-width="5" stroke-miterlimit="10" d="M6028.909,1441.616
			c-31.18-10.807-65.531,5.863-76.335,37.044l-454.701,1312.277c-10.804,31.181,6.111,64.799,37.589,74.705
			c0,0,220.726,69.465,336.587,151.589c147.5,104.55,266.33,246.883,342.388,412.899c52.433,114.447,82.672,313.17,82.672,313.17
			c4.964,32.624,8.148,79.542,7.075,104.26c-1.073,24.719,25.024,43.779,57.993,42.355l1384.328-59.766
			c32.969-1.423,59.944-27.216,59.944-57.318c0-30.102-2.722-81.592-6.049-114.424c0,0-25.183-248.514-60.706-395.727
			c-57.938-240.105-150.066-466.877-270.945-674.873c-125.935-216.697-283.076-413.014-465.269-582.8
			c-156.069-145.44-330.521-271.411-519.488-374.046C6323.125,1543.589,6028.909,1441.616,6028.909,1441.616z"/>
		<path name="VIP" id="585801936e55b2054f789fac" fill="none" stroke="#B5B5B5" stroke-width="5" stroke-miterlimit="10" d="M6246.21,830.433
			c-31.326-10.376-66.218,6.496-77.536,37.495l-153.782,421.157c-11.319,30.998,4.971,65.089,36.199,75.756
			c0,0,276.517,94.461,430.621,174.703c154.104,80.242,299.207,175.39,433.399,283.532
			c326.06,262.763,587.699,602.242,757.5,991.018c64.104,146.771,115.118,300.569,151.567,459.917
			c32.082,140.253,55.407,372.952,55.407,372.952c3.291,32.835,32.964,58.671,65.94,57.413l429.168-16.376
			c32.977-1.258,57.374-29.164,54.219-62.013c0,0-25.922-269.785-60.757-429.602c-93.566-429.268-275.896-831.765-525.678-1183.161
			c-228.951-322.091-514.573-601.248-840.453-818.734c-148.521-99.119-305.403-185.429-469.094-257.155
			C6421.37,888.451,6246.21,830.433,6246.21,830.433z"/>
		<path name="VIP" id="585801936e55b2054f789fac" fill="none" stroke="#B5B5B5" stroke-width="5" stroke-miterlimit="10" d="M3751.65,5226.061
			c203.86-162.931,16.346-405.574-9.82-450.792c-0.002-0.003-0.002-0.003-0.002-0.003c-0.002-0.003-12.432-23.975-27.622-53.271
			c0,0-106.867-206.101-149.518-348.156c-48.928-162.961-75.219-335.715-75.219-514.611
			c0-648.152,345.103-1215.698,861.583-1528.925c0.006-0.004,0.013-0.01,0.02-0.013c0.028-0.016,0.057-0.033,0.085-0.05
			c3.144-1.906,6.293-3.802,9.45-5.689c60.875-37.965,169.451-132.365,73.518-319.803
			c-40.757-79.633-100.912-117.85-159.424-134.814c-81.456-23.615-119.549-14.965-119.549-14.965
			c-32.181,7.308-71.15-10.572-86.6-39.732l-47.018-88.747c-15.449-29.16-50.624-38.146-78.166-19.968
			c0,0-240.384,158.656-368.686,274.996c-143.094,129.752-271.293,275.635-381.725,434.777
			c-284.151,409.486-450.676,906.762-450.676,1442.934c0,258.218,38.623,507.415,110.407,742.129
			c48.705,159.251,112.675,311.835,190.204,456.047c42.615,79.268,107.316,179.518,107.316,179.518
			c17.895,27.727,41.746,61.826,53.002,75.775s43.389,11.096,71.406-6.342l91.611-57.019c28.017-17.438,72.659-15.666,99.206,3.938
			c0,0,19.752,14.586,108.251,24.21C3628.885,5283.488,3692.052,5273.693,3751.65,5226.061z"/>
		<path name="VIP" id="585801936e55b2054f789fac" fill="none" stroke="#B5B5B5" stroke-width="5" stroke-miterlimit="10" d="M2786.746,4647.257
			c-11.178-31.049-27.204-82.562-35.614-114.472c0,0-29.902-113.458-45.981-201.632c-27.915-153.071-42.496-310.796-42.496-471.926
			c0-441.33,109.385-857.11,302.523-1221.71c127.968-241.574,292.703-460.68,486.75-649.863
			c85.764-83.614,177.253-161.382,273.825-232.662c74.672-55.115,181.873-121.739,181.873-121.739
			c28.028-17.419,34.66-53.195,14.737-79.503l-412.338-544.483c-19.923-26.308-58.779-32.991-86.347-14.853
			c0,0-136.117,89.557-224.283,157.29c-129.025,99.122-250.762,207.259-364.271,323.469
			c-600.78,615.082-971.018,1456.329-971.018,2384.053c0,188.633,15.311,373.69,44.753,553.997
			c23.055,141.189,79.388,356.226,79.388,356.226c8.363,31.923,24.161,83.513,35.106,114.645l34.959,99.431
			c10.946,31.132,45.841,49.11,77.544,39.952l654.618-189.092c31.704-9.158,48.498-42.055,37.32-73.104L2786.746,4647.257z"/>
	</g>
	<g id="details">
		<path fill="#F5F5F5" d="M6264.189,5171.453c-16.843-28.378-17.563-75.229-1.602-104.111l580.19-1049.853
			c15.962-28.883,56.017-53.022,89.011-53.643l1442.873-27.156c32.994-0.621,58.556,25.833,56.804,58.786
			c0,0-15.369,289.126-54.962,489.652c-54.104,274.02-147.491,571.083-286.498,852.935
			c-227.599,461.485-577.496,882.193-1077.498,1094.219L6264.189,5171.453z"/>
		<path fill="none" stroke="#B5B5B5" stroke-width="5" stroke-miterlimit="10" d="M6314.992,5923.33
				c4.744,9.925,0.481,21.878-9.471,26.563l-119.234,56.123c-9.953,4.685-21.977,0.397-26.72-9.528l-45.863-95.963
				c-4.744-9.925-0.481-21.878,9.471-26.563l119.234-56.123c9.953-4.685,21.977-0.397,26.72,9.527L6314.992,5923.33z"/>
		<path fill="none" stroke="#B5B5B5" stroke-width="5" stroke-miterlimit="10" d="M6465.872,6266.813
				c4.744,9.925,0.481,21.878-9.471,26.563l-119.234,56.123c-9.953,4.685-21.977,0.397-26.72-9.528l-45.864-95.964
				c-4.743-9.925-0.481-21.878,9.472-26.563l119.234-56.123c9.953-4.685,21.977-0.397,26.72,9.527L6465.872,6266.813z"/>
		<circle fill="none" stroke="#B5B5B5" stroke-width="5" stroke-miterlimit="10" cx="5693.21" cy="5875.286" r="43.854"/>
		<circle fill="none" stroke="#B5B5B5" stroke-width="5" stroke-miterlimit="10" cx="5879.201" cy="6260.573" r="43.854"/>
		<circle fill="none" stroke="#B5B5B5" stroke-width="5" stroke-miterlimit="10" cx="5607.643" cy="6660.501" r="43.854"/>
		<circle fill="none" stroke="#B5B5B5" stroke-width="5" stroke-miterlimit="10" cx="5799.705" cy="6638.254" r="43.854"/>
		<circle fill="none" stroke="#B5B5B5" stroke-width="5" stroke-miterlimit="10" cx="5991.428" cy="6599.125" r="43.854"/>
		<circle fill="none" stroke="#B5B5B5" stroke-width="5" stroke-miterlimit="10" cx="7938.372" cy="3092.351" r="43.854"/>
		<circle fill="none" stroke="#B5B5B5" stroke-width="5" stroke-miterlimit="10" cx="7983.742" cy="3272.404" r="43.854"/>
		<circle fill="none" stroke="#B5B5B5" stroke-width="5" stroke-miterlimit="10" cx="8026.098" cy="3461.367" r="43.854"/>
		<circle fill="none" stroke="#B5B5B5" stroke-width="5" stroke-miterlimit="10" cx="7694.445" cy="2529.639" r="43.854"/>
		<circle fill="none" stroke="#B5B5B5" stroke-width="5" stroke-miterlimit="10" cx="7777.536" cy="2695.691" r="43.854"/>
		<circle fill="none" stroke="#B5B5B5" stroke-width="5" stroke-miterlimit="10" cx="6801.696" cy="1575.006" r="43.854"/>
		<circle fill="none" stroke="#B5B5B5" stroke-width="5" stroke-miterlimit="10" cx="6949.059" cy="1687.975" r="43.854"/>
		<circle fill="none" stroke="#B5B5B5" stroke-width="5" stroke-miterlimit="10" cx="7135.59" cy="1841.799" r="43.854"/>
		<circle fill="none" stroke="#B5B5B5" stroke-width="5" stroke-miterlimit="10" cx="6285.688" cy="1298.324" r="43.854"/>
		<circle fill="none" stroke="#B5B5B5" stroke-width="5" stroke-miterlimit="10" cx="6453.926" cy="1376.896" r="43.854"/>
		<circle fill="none" stroke="#B5B5B5" stroke-width="5" stroke-miterlimit="10" cx="7394.972" cy="2097.78" r="43.854"/>
		<path fill="none" stroke="#B5B5B5" stroke-width="5" stroke-miterlimit="10" d="M3595.933,4784.395
				c5.708,9.403,2.746,21.867-6.581,27.698l-75.115,46.956c-9.328,5.831-21.629,2.908-27.337-6.495l-20.494-33.763
				c-5.708-9.403-2.746-21.868,6.581-27.698l75.115-46.956c9.328-5.831,21.629-2.908,27.337,6.495L3595.933,4784.395z"/>
		<path fill="none" stroke="#B5B5B5" stroke-width="5" stroke-miterlimit="10" d="M3335.836,4043.751
				c0.571,10.985-7.943,20.558-18.92,21.273l-88.397,5.758c-10.977,0.715-20.425-7.688-20.996-18.673l-2.05-39.443
				c-0.571-10.985,7.943-20.558,18.92-21.273l88.397-5.758c10.977-0.715,20.425,7.688,20.996,18.673L3335.836,4043.751z"/>
		<path fill="none" stroke="#B5B5B5" stroke-width="5" stroke-miterlimit="10" d="M3444.324,4491.812
				c3.488,10.433-2.156,21.934-12.542,25.558l-83.638,29.188c-10.386,3.624-21.737-1.946-25.225-12.378l-12.523-37.458
				c-3.488-10.433,2.156-21.934,12.542-25.558l83.638-29.188c10.386-3.624,21.737,1.946,25.225,12.378L3444.324,4491.812z"/>
		<path fill="none" stroke="#B5B5B5" stroke-width="5" stroke-miterlimit="10" d="M3339.74,3706.099
				c-1.272,10.926-11.266,18.942-22.208,17.813l-88.116-9.093c-10.942-1.129-18.853-10.992-17.581-21.919l4.569-39.231
				c1.273-10.926,11.266-18.942,22.208-17.813l88.116,9.093c10.942,1.129,18.853,10.992,17.581,21.918L3339.74,3706.099z"/>
		<path fill="none" stroke="#B5B5B5" stroke-width="5" stroke-miterlimit="10" d="M3398.674,3370.885
				c-2.762,10.648-13.762,17.214-24.445,14.592l-86.031-21.115c-10.683-2.622-17.164-13.479-14.402-24.127l9.917-38.231
				c2.762-10.647,13.762-17.214,24.445-14.592l86.031,21.115c10.683,2.622,17.164,13.479,14.402,24.126L3398.674,3370.885z"/>
		<path fill="none" stroke="#B5B5B5" stroke-width="5" stroke-miterlimit="10" d="M3511.022,3036.156
				c-4.755,9.919-16.812,14.251-26.793,9.626l-80.375-37.244c-9.981-4.625-14.256-16.524-9.5-26.443l17.074-35.615
				c4.755-9.919,16.812-14.251,26.792-9.626l80.375,37.244c9.98,4.625,14.256,16.524,9.5,26.443L3511.022,3036.156z"/>
		<path fill="none" stroke="#B5B5B5" stroke-width="5" stroke-miterlimit="10" d="M3673.771,2739.794
				c-5.842,9.32-18.31,12.266-27.706,6.547l-75.668-46.06c-9.396-5.719-12.304-18.025-6.462-27.345l20.977-33.465
				c5.842-9.32,18.31-12.267,27.706-6.547l75.668,46.06c9.396,5.719,12.304,18.025,6.462,27.345L3673.771,2739.794z"/>
		<path fill="none" stroke="#B5B5B5" stroke-width="5" stroke-miterlimit="10" d="M3880.741,2481.351
				c-8.282,7.239-21.07,6.464-28.417-1.722l-59.169-65.926c-7.347-8.186-6.583-20.807,1.7-28.047l29.737-25.993
				c8.282-7.239,21.07-6.464,28.417,1.722l59.169,65.926c7.347,8.186,6.582,20.807-1.7,28.047L3880.741,2481.351z"/>
		<path fill="none" stroke="#B5B5B5" stroke-width="5" stroke-miterlimit="10" d="M4141.385,2268.163
				c-9.293,5.885-21.812,3.16-27.818-6.055l-48.371-74.212c-6.007-9.215-3.317-21.57,5.976-27.455l33.368-21.131
				c9.293-5.885,21.812-3.16,27.818,6.055l48.372,74.212c6.006,9.215,3.317,21.57-5.976,27.455L4141.385,2268.163z"/>
		<circle fill="none" stroke="#B5B5B5" stroke-width="5" stroke-miterlimit="10" cx="3235.742" cy="4854.215" r="43.854"/>
		<circle fill="none" stroke="#B5B5B5" stroke-width="5" stroke-miterlimit="10" cx="3147.133" cy="4676.591" r="43.854"/>
		<circle fill="none" stroke="#B5B5B5" stroke-width="5" stroke-miterlimit="10" cx="3078.365" cy="4495.872" r="43.854"/>
		<circle fill="none" stroke="#B5B5B5" stroke-width="5" stroke-miterlimit="10" cx="3028.625" cy="4295.373" r="43.854"/>
		<circle fill="none" stroke="#B5B5B5" stroke-width="5" stroke-miterlimit="10" cx="2991.961" cy="4082.54" r="43.854"/>
		<circle fill="none" stroke="#B5B5B5" stroke-width="5" stroke-miterlimit="10" cx="2981.07" cy="3876.783" r="43.854"/>
		<circle fill="none" stroke="#B5B5B5" stroke-width="5" stroke-miterlimit="10" cx="2982.446" cy="3667.482" r="43.854"/>
		<circle fill="none" stroke="#B5B5B5" stroke-width="5" stroke-miterlimit="10" cx="3010.397" cy="3464.778" r="43.854"/>
		<circle fill="none" stroke="#B5B5B5" stroke-width="5" stroke-miterlimit="10" cx="3147.14" cy="3019.52" r="43.854"/>
		<circle fill="none" stroke="#B5B5B5" stroke-width="5" stroke-miterlimit="10" cx="3223.904" cy="2842.048" r="43.854"/>
		<circle fill="none" stroke="#B5B5B5" stroke-width="5" stroke-miterlimit="10" cx="3328.099" cy="2663.674" r="43.854"/>
		<circle fill="none" stroke="#B5B5B5" stroke-width="5" stroke-miterlimit="10" cx="3450.267" cy="2485.582" r="43.854"/>
		<circle fill="none" stroke="#B5B5B5" stroke-width="5" stroke-miterlimit="10" cx="3585.969" cy="2330.535" r="43.854"/>
		<circle fill="none" stroke="#B5B5B5" stroke-width="5" stroke-miterlimit="10" cx="3732.935" cy="2181.505" r="43.854"/>
		<circle fill="none" stroke="#B5B5B5" stroke-width="5" stroke-miterlimit="10" cx="3894.343" cy="2055.738" r="43.854"/>
		<path fill="none" stroke="#B5B5B5" stroke-width="5" stroke-miterlimit="10" d="M4820.134,4979.709
				c9.699,5.189,13.493,17.426,8.432,27.192l-40.762,78.649c-5.062,9.766-17.138,13.511-26.837,8.322l-34.825-18.633
				c-9.699-5.189-13.493-17.426-8.432-27.192l40.762-78.649c5.062-9.767,17.138-13.511,26.837-8.322L4820.134,4979.709z"/>
		<path fill="none" stroke="#B5B5B5" stroke-width="5" stroke-miterlimit="10" d="M4595.953,4835.05
				c8.667,6.775,10.308,19.48,3.647,28.235l-53.636,70.5c-6.661,8.754-19.201,10.374-27.867,3.6l-31.117-24.325
				c-8.667-6.775-10.308-19.48-3.647-28.235l53.637-70.5c6.66-8.754,19.2-10.374,27.866-3.6L4595.953,4835.05z"/>
		<path fill="none" stroke="#B5B5B5" stroke-width="5" stroke-miterlimit="10" d="M4403.014,4653.886
				c7.095,8.406,6.098,21.179-2.215,28.383l-66.944,58.015c-8.313,7.204-20.918,6.22-28.013-2.187l-25.473-30.184
				c-7.094-8.407-6.097-21.179,2.215-28.383l66.944-58.015c8.313-7.204,20.919-6.22,28.013,2.187L4403.014,4653.886z"/>
		<path fill="none" stroke="#B5B5B5" stroke-width="5" stroke-miterlimit="10" d="M4250.762,4437.188
				c5.256,9.663,1.707,21.973-7.886,27.355l-77.255,43.345c-9.593,5.383-21.743,1.88-26.999-7.783l-18.872-34.696
				c-5.256-9.663-1.708-21.973,7.886-27.355l77.255-43.345c9.593-5.382,21.743-1.88,26.999,7.783L4250.762,4437.188z"/>
		<path fill="none" stroke="#B5B5B5" stroke-width="5" stroke-miterlimit="10" d="M4157.628,4194.478
				c3.064,10.564-3.039,21.829-13.562,25.032l-84.747,25.792c-10.523,3.203-21.641-2.82-24.705-13.385l-11.003-37.932
				c-3.064-10.565,3.039-21.829,13.562-25.032l84.746-25.792c10.523-3.203,21.641,2.82,24.705,13.385L4157.628,4194.478z"/>
		<path fill="none" stroke="#B5B5B5" stroke-width="5" stroke-miterlimit="10" d="M4111.77,3939.813
				c1.294,10.924-6.569,21.037-17.475,22.475l-87.825,11.577c-10.906,1.438-20.887-6.324-22.182-17.247l-4.647-39.222
				c-1.294-10.924,6.57-21.037,17.475-22.475l87.825-11.577c10.906-1.438,20.887,6.323,22.182,17.247L4111.77,3939.813z"/>
		<path fill="none" stroke="#B5B5B5" stroke-width="5" stroke-miterlimit="10" d="M4115.008,3681.794
				c-1.37,10.914-11.434,18.841-22.366,17.615l-88.032-9.876c-10.931-1.226-18.754-11.16-17.385-22.074l4.918-39.189
				c1.37-10.914,11.434-18.841,22.366-17.615l88.032,9.876c10.931,1.227,18.754,11.16,17.385,22.074L4115.008,3681.794z"/>
		<path fill="none" stroke="#B5B5B5" stroke-width="5" stroke-miterlimit="10" d="M4176.608,3427.556
				c-3.239,10.512-14.525,16.576-25.079,13.475l-84.991-24.974c-10.554-3.101-16.538-14.24-13.299-24.752l11.631-37.745
				c3.24-10.512,14.525-16.576,25.079-13.474l84.991,24.974c10.554,3.101,16.538,14.24,13.299,24.752L4176.608,3427.556z"/>
		<path fill="none" stroke="#B5B5B5" stroke-width="5" stroke-miterlimit="10" d="M4291.969,3195.93
				c-6.404,8.943-19.029,11.117-28.056,4.831l-72.693-50.625c-9.027-6.287-11.172-18.747-4.768-27.691l22.995-32.112
				c6.404-8.943,19.03-11.117,28.057-4.831l72.693,50.625c9.027,6.286,11.172,18.747,4.768,27.691L4291.969,3195.93z"/>
		<path fill="none" stroke="#B5B5B5" stroke-width="5" stroke-miterlimit="10" d="M4684.651,2827.121
				c-9.385,5.737-21.859,2.815-27.719-6.494l-47.191-74.968c-5.86-9.309-2.976-21.62,6.41-27.357l33.698-20.6
				c9.385-5.737,21.858-2.815,27.719,6.494l47.191,74.968c5.86,9.309,2.976,21.62-6.41,27.357L4684.651,2827.121z"/>
		<path fill="none" stroke="#B5B5B5" stroke-width="5" stroke-miterlimit="10" d="M4904.892,2604.16
				c-10.726,2.44-21.613-4.312-24.194-15.005l-20.784-86.112c-2.581-10.693,4.083-21.438,14.809-23.879l38.512-8.762
				c10.726-2.44,21.613,4.312,24.194,15.005l20.784,86.112c2.581,10.693-4.083,21.438-14.809,23.879L4904.892,2604.16z"/>
		<path fill="none" stroke="#B5B5B5" stroke-width="5" stroke-miterlimit="10" d="M5210.206,2549.216
				c-10.975,0.738-20.676-7.629-21.558-18.594l-7.102-88.299c-0.882-10.965,7.376-20.54,18.352-21.277l39.407-2.65
				c10.975-0.738,20.676,7.629,21.558,18.594l7.102,88.299c0.882,10.965-7.376,20.539-18.352,21.277L5210.206,2549.216z"/>
		<path fill="none" stroke="#B5B5B5" stroke-width="5" stroke-miterlimit="10" d="M5185.041,2246.191
				c-10.98,0.669-20.628-7.759-21.441-18.729l-6.547-88.342c-0.813-10.97,7.505-20.493,18.484-21.162l39.423-2.402
				c10.98-0.669,20.628,7.759,21.441,18.729l6.547,88.342c0.813,10.97-7.505,20.493-18.484,21.162L5185.041,2246.191z"/>
		<path fill="none" stroke="#B5B5B5" stroke-width="5" stroke-miterlimit="10" d="M5156.496,1900.575
				c-10.979,0.669-20.628-7.759-21.441-18.729l-6.547-88.342c-0.813-10.97,7.505-20.493,18.485-21.162l39.423-2.402
				c10.979-0.669,20.628,7.759,21.441,18.729l6.548,88.342c0.813,10.97-7.505,20.493-18.485,21.162L5156.496,1900.575z"/>
		<path fill="none" stroke="#B5B5B5" stroke-width="5" stroke-miterlimit="10" d="M4471.726,2993.554
				c-7.934,7.62-20.743,7.445-28.466-0.388l-62.195-63.08c-7.723-7.833-7.551-20.476,0.383-28.095l28.486-27.359
				c7.934-7.619,20.743-7.445,28.466,0.388l62.195,63.08c7.723,7.833,7.551,20.476-0.383,28.095L4471.726,2993.554z"/>
		<circle fill="none" stroke="#B5B5B5" stroke-width="5" stroke-miterlimit="10" cx="4805.046" cy="2024.234" r="43.854"/>
		<circle fill="none" stroke="#B5B5B5" stroke-width="5" stroke-miterlimit="10" cx="4848.672" cy="2293.321" r="43.854"/>
		<circle fill="none" stroke="#B5B5B5" stroke-width="5" stroke-miterlimit="10" cx="4517.535" cy="2568.461" r="43.854"/>
		<circle fill="none" stroke="#B5B5B5" stroke-width="5" stroke-miterlimit="10" cx="4230.845" cy="2776.717" r="43.854"/>
		<circle fill="none" stroke="#B5B5B5" stroke-width="5" stroke-miterlimit="10" cx="4012.189" cy="3052.715" r="43.854"/>
		<circle fill="none" stroke="#B5B5B5" stroke-width="5" stroke-miterlimit="10" cx="3854.818" cy="3364.8" r="43.854"/>
		<circle fill="none" stroke="#B5B5B5" stroke-width="5" stroke-miterlimit="10" cx="3782.194" cy="3690.378" r="43.854"/>
		<circle fill="none" stroke="#B5B5B5" stroke-width="5" stroke-miterlimit="10" cx="3777.298" cy="4005.114" r="43.854"/>
		<circle fill="none" stroke="#B5B5B5" stroke-width="5" stroke-miterlimit="10" cx="3988.618" cy="4627.426" r="43.854"/>
		<circle fill="none" stroke="#B5B5B5" stroke-width="5" stroke-miterlimit="10" cx="4172.977" cy="4897.203" r="43.854"/>
		<circle fill="none" stroke="#B5B5B5" stroke-width="5" stroke-miterlimit="10" cx="3852.173" cy="4330.75" r="43.854"/>
		<path fill="none" stroke="#B5B5B5" stroke-width="5" stroke-miterlimit="10" d="M2515.506,3969.901
				c0.284,10.996-8.481,20.226-19.477,20.51l-131.739,3.402c-10.996,0.284-20.226-8.48-20.51-19.477l-1.02-39.483
				c-0.284-10.996,8.481-20.226,19.477-20.51l131.738-3.402c10.996-0.284,20.226,8.481,20.51,19.477L2515.506,3969.901z"/>
		<path fill="none" stroke="#B5B5B5" stroke-width="5" stroke-miterlimit="10" d="M2563.779,4395.305
				c2.179,10.782-4.86,21.387-15.642,23.565l-129.171,26.104c-10.782,2.179-21.386-4.86-23.565-15.642l-7.824-38.713
				c-2.179-10.782,4.86-21.387,15.642-23.565l129.171-26.104c10.782-2.179,21.386,4.86,23.565,15.642L2563.779,4395.305z"/>
		<path fill="none" stroke="#B5B5B5" stroke-width="5" stroke-miterlimit="10" d="M2529.908,3571.699
				c-0.21,10.998-9.38,19.824-20.378,19.615l-131.758-2.515c-10.998-0.21-19.824-9.38-19.615-20.378l0.754-39.489
				c0.21-10.998,9.38-19.825,20.378-19.615l131.759,2.515c10.998,0.21,19.824,9.38,19.615,20.378L2529.908,3571.699z"/>
		<path fill="none" stroke="#B5B5B5" stroke-width="5" stroke-miterlimit="10" d="M2598.063,3198.146
				c-2.36,10.744-13.082,17.603-23.826,15.243l-128.713-28.277c-10.744-2.36-17.603-13.082-15.243-23.826l8.475-38.576
				c2.36-10.744,13.082-17.603,23.826-15.243l128.713,28.277c10.744,2.36,17.603,13.082,15.243,23.825L2598.063,3198.146z"/>
		<path fill="none" stroke="#B5B5B5" stroke-width="5" stroke-miterlimit="10" d="M2708.38,2838.702
				c-4.156,10.185-15.89,15.117-26.074,10.96l-122.013-49.793c-10.185-4.156-15.117-15.89-10.96-26.074l14.923-36.568
				c4.156-10.185,15.89-15.117,26.074-10.96l122.013,49.793c10.185,4.156,15.117,15.89,10.96,26.074L2708.38,2838.702z"/>
		<path fill="none" stroke="#B5B5B5" stroke-width="5" stroke-miterlimit="10" d="M2905.395,2441.035
				c-4.969,9.813-17.065,13.777-26.878,8.807l-117.567-59.536c-9.813-4.969-13.777-17.065-8.807-26.878l17.844-35.236
				c4.969-9.813,17.064-13.777,26.878-8.807l117.567,59.536c9.813,4.97,13.777,17.065,8.807,26.878L2905.395,2441.035z"/>
		<path fill="none" stroke="#B5B5B5" stroke-width="5" stroke-miterlimit="10" d="M3163.105,2086.745
				c-7.617,7.936-20.343,8.197-28.278,0.579l-95.072-91.257c-7.936-7.617-8.196-20.343-0.579-28.278l27.35-28.494
				c7.617-7.936,20.343-8.196,28.278-0.579l95.072,91.257c7.936,7.617,8.196,20.343,0.579,28.278L3163.105,2086.745z"/>
		<path fill="none" stroke="#B5B5B5" stroke-width="5" stroke-miterlimit="10" d="M3456.311,1787.574
				c-8.213,7.318-20.92,6.585-28.238-1.627l-87.668-98.391c-7.318-8.213-6.585-20.92,1.627-28.237l29.489-26.275
				c8.213-7.318,20.92-6.585,28.238,1.627l87.668,98.391c7.318,8.213,6.585,20.92-1.627,28.237L3456.311,1787.574z"/>
		<circle fill="none" stroke="#B5B5B5" stroke-width="5" stroke-miterlimit="10" cx="2198.167" cy="4460.061" r="43.854"/>
		<circle fill="none" stroke="#B5B5B5" stroke-width="5" stroke-miterlimit="10" cx="2142.553" cy="3964.975" r="43.854"/>
		<circle fill="none" stroke="#B5B5B5" stroke-width="5" stroke-miterlimit="10" cx="2160.323" cy="3521.45" r="43.854"/>
		<circle fill="none" stroke="#B5B5B5" stroke-width="5" stroke-miterlimit="10" cx="2240.815" cy="3088.856" r="43.854"/>
		<circle fill="none" stroke="#B5B5B5" stroke-width="5" stroke-miterlimit="10" cx="2365.517" cy="2687.779" r="43.854"/>
		<circle fill="none" stroke="#B5B5B5" stroke-width="5" stroke-miterlimit="10" cx="2568.584" cy="2273.91" r="43.854"/>
		<circle fill="none" stroke="#B5B5B5" stroke-width="5" stroke-miterlimit="10" cx="2866.127" cy="1858.103" r="43.854"/>
		<circle fill="none" stroke="#B5B5B5" stroke-width="5" stroke-miterlimit="10" cx="3229.525" cy="1478.53" r="43.854"/>
		<path fill="none" stroke="#B5B5B5" stroke-width="5" stroke-miterlimit="10" d="M6535.334,3646.411
				c-10.649,2.756-21.617-3.701-24.374-14.35l-33.022-127.578c-2.757-10.649,3.701-21.617,14.35-24.374l38.236-9.897
				c10.649-2.756,21.617,3.701,24.374,14.35l33.022,127.578c2.756,10.649-3.701,21.617-14.35,24.374L6535.334,3646.411z"/>
		<path fill="none" stroke="#B5B5B5" stroke-width="5" stroke-miterlimit="10" d="M6333.63,3331.537
				c-5.351-9.611-1.866-21.852,7.745-27.203l115.139-64.106c9.611-5.351,21.853-1.866,27.203,7.745l19.213,34.508
				c5.351,9.611,1.866,21.852-7.745,27.203l-115.139,64.106c-9.611,5.351-21.853,1.866-27.203-7.745L6333.63,3331.537z"/>
		<path fill="none" stroke="#B5B5B5" stroke-width="5" stroke-miterlimit="10" d="M6626.21,3162.804
				c-5.351-9.611-1.866-21.852,7.745-27.203l115.139-64.106c9.611-5.351,21.853-1.866,27.203,7.745l19.213,34.508
				c5.351,9.611,1.866,21.852-7.745,27.203l-115.139,64.106c-9.611,5.351-21.853,1.866-27.204-7.745L6626.21,3162.804z"/>
		<path fill="none" stroke="#B5B5B5" stroke-width="5" stroke-miterlimit="10" d="M6980.906,2927.79
				c-9.893,4.809-14.053,16.838-9.244,26.731l57.615,118.521c4.81,9.893,16.838,14.052,26.731,9.243l35.521-17.268
				c9.893-4.809,14.052-16.838,9.243-26.731l-57.615-118.521c-4.809-9.893-16.838-14.053-26.731-9.243L6980.906,2927.79z"/>
		<path fill="none" stroke="#B5B5B5" stroke-width="5" stroke-miterlimit="10" d="M7270.356,2767.529
				c-9.893,4.809-14.053,16.838-9.243,26.731l57.615,118.521c4.809,9.893,16.838,14.052,26.731,9.243l35.521-17.268
				c9.893-4.809,14.053-16.838,9.244-26.731l-57.615-118.521c-4.809-9.893-16.838-14.052-26.731-9.243L7270.356,2767.529z"/>
		<path fill="none" stroke="#B5B5B5" stroke-width="5" stroke-miterlimit="10" d="M6176.117,3087.969
				c-7.09-8.41-6.011-21.092,2.399-28.182l100.752-84.945c8.41-7.09,21.092-6.011,28.183,2.399l25.458,30.196
				c7.09,8.41,6.011,21.092-2.399,28.182l-100.752,84.945c-8.41,7.09-21.092,6.011-28.182-2.399L6176.117,3087.969z"/>
		<path fill="none" stroke="#B5B5B5" stroke-width="5" stroke-miterlimit="10" d="M6431.021,2866.389
				c-7.09-8.41-6.011-21.092,2.399-28.182l100.752-84.945c8.41-7.09,21.092-6.011,28.183,2.399l25.458,30.196
				c7.09,8.41,6.011,21.092-2.399,28.182l-100.752,84.945c-8.41,7.09-21.092,6.011-28.183-2.399L6431.021,2866.389z"/>
		<path fill="none" stroke="#B5B5B5" stroke-width="5" stroke-miterlimit="10" d="M6686.125,2653.613
				c-7.09-8.41-6.011-21.092,2.399-28.182l100.752-84.945c8.41-7.091,21.092-6.011,28.182,2.399l25.458,30.196
				c7.091,8.41,6.011,21.092-2.399,28.182l-100.751,84.945c-8.41,7.09-21.092,6.011-28.183-2.399L6686.125,2653.613z"/>
		<path fill="none" stroke="#B5B5B5" stroke-width="5" stroke-miterlimit="10" d="M6987.671,2355.207
				c-8.791,6.613-10.572,19.215-3.96,28.006l79.221,105.313c6.612,8.791,19.215,10.572,28.005,3.96l31.563-23.743
				c8.791-6.613,10.572-19.215,3.96-28.006l-79.221-105.313c-6.612-8.791-19.215-10.572-28.005-3.96L6987.671,2355.207z"/>
		<path fill="none" stroke="#B5B5B5" stroke-width="5" stroke-miterlimit="10" d="M6000.534,2887.725
				c-8.654-6.79-10.179-19.427-3.389-28.081l81.348-103.678c6.79-8.654,19.426-10.179,28.08-3.389l31.073,24.38
				c8.654,6.79,10.179,19.426,3.389,28.081l-81.348,103.678c-6.79,8.654-19.426,10.179-28.081,3.389L6000.534,2887.725z"/>
		<path fill="none" stroke="#B5B5B5" stroke-width="5" stroke-miterlimit="10" d="M6204.988,2618.89
				c-8.654-6.79-10.179-19.427-3.389-28.081l81.348-103.678c6.79-8.654,19.426-10.179,28.081-3.389l31.073,24.38
				c8.654,6.79,10.179,19.426,3.389,28.081l-81.348,103.678c-6.79,8.654-19.426,10.179-28.08,3.389L6204.988,2618.89z"/>
		<path fill="none" stroke="#B5B5B5" stroke-width="5" stroke-miterlimit="10" d="M6565.747,2349.442
				c7.284-8.243,6.499-20.947-1.745-28.23l-98.755-87.258c-8.243-7.283-20.947-6.498-28.23,1.745l-26.152,29.598
				c-7.284,8.243-6.499,20.947,1.745,28.23l98.755,87.258c8.243,7.284,20.947,6.498,28.23-1.745L6565.747,2349.442z"/>
		<path fill="none" stroke="#B5B5B5" stroke-width="5" stroke-miterlimit="10" d="M6625.684,2025.241
				c-7.26,8.264-6.439,20.965,1.825,28.225l99.002,86.978c8.264,7.26,20.965,6.439,28.225-1.825l26.068-29.672
				c7.26-8.264,6.439-20.965-1.825-28.225l-99.002-86.978c-8.264-7.26-20.965-6.439-28.226,1.825L6625.684,2025.241z"/>
		<path fill="none" stroke="#B5B5B5" stroke-width="5" stroke-miterlimit="10" d="M5741.246,2759.275
				c-9.997-4.588-14.423-16.522-9.834-26.52l54.971-119.77c4.588-9.997,16.522-14.423,26.52-9.834l35.896,16.475
				c9.997,4.588,14.423,16.522,9.834,26.52l-54.97,119.77c-4.588,9.997-16.522,14.423-26.52,9.834L5741.246,2759.275z"/>
		<path fill="none" stroke="#B5B5B5" stroke-width="5" stroke-miterlimit="10" d="M5877.482,2450.222
				c-9.997-4.588-14.423-16.522-9.834-26.52l54.971-119.77c4.588-9.997,16.522-14.423,26.52-9.834l35.896,16.475
				c9.997,4.588,14.422,16.522,9.834,26.52l-54.97,119.77c-4.588,9.997-16.522,14.423-26.52,9.834L5877.482,2450.222z"/>
		<path fill="none" stroke="#B5B5B5" stroke-width="5" stroke-miterlimit="10" d="M6165.585,2104.179
				c5.164-9.713,1.442-21.884-8.271-27.048l-116.358-61.865c-9.713-5.164-21.884-1.442-27.048,8.27l-18.541,34.874
				c-5.164,9.712-1.442,21.884,8.27,27.048l116.359,61.865c9.712,5.164,21.884,1.442,27.048-8.27L6165.585,2104.179z"/>
		<path fill="none" stroke="#B5B5B5" stroke-width="5" stroke-miterlimit="10" d="M6148.385,1774.933
				c-5.136,9.727-1.38,21.888,8.347,27.025l116.533,61.535c9.727,5.136,21.888,1.38,27.024-8.347l18.443-34.926
				c5.136-9.727,1.38-21.888-8.347-27.025l-116.533-61.535c-9.727-5.136-21.888-1.38-27.025,8.347L6148.385,1774.933z"/>
		<path fill="none" stroke="#B5B5B5" stroke-width="5" stroke-miterlimit="10" d="M6859.705,3564.015
				c-10.649,2.756-21.617-3.701-24.374-14.35l-33.022-127.578c-2.756-10.649,3.701-21.617,14.35-24.374l38.236-9.897
				c10.649-2.756,21.617,3.701,24.374,14.35l33.022,127.578c2.756,10.649-3.701,21.617-14.35,24.374L6859.705,3564.015z"/>
		<path fill="none" stroke="#B5B5B5" stroke-width="5" stroke-miterlimit="10" d="M7186.896,3478.918
				c-10.649,2.756-21.617-3.701-24.374-14.35L7129.5,3336.99c-2.756-10.649,3.701-21.617,14.35-24.374l38.236-9.897
				c10.649-2.756,21.617,3.701,24.374,14.35l33.022,127.578c2.756,10.649-3.701,21.617-14.35,24.374L7186.896,3478.918z"/>
		<path fill="none" stroke="#B5B5B5" stroke-width="5" stroke-miterlimit="10" d="M7504.495,3396.522
				c-10.649,2.756-21.617-3.701-24.374-14.35l-33.022-127.578c-2.757-10.649,3.701-21.617,14.35-24.374l38.236-9.897
				c10.649-2.756,21.617,3.701,24.374,14.35l33.022,127.578c2.756,10.649-3.701,21.617-14.35,24.374L7504.495,3396.522z"/>
		<path fill="#F5F5F5" d="M5806.184,777.964c8.649-31.847-9.738-66.883-40.859-77.859c0,0-44.719-15.772-237.698-40.625
				c-86.225-11.105-252.8-19.591-252.8-19.591c-32.957-1.679-59.922-3.227-59.922-3.44s-10.987-0.356-24.415-0.318
				c0,0,0,0-11.975,0.126c-11.975-0.126-11.975-0.126-11.975-0.126c-13.428-0.038-24.414,0.106-24.414,0.318
				s-26.972,1.617-59.938,3.12c0,0-130.476,5.949-207.175,14.451c-222.596,24.674-283.307,46.086-283.307,46.086
				c-31.121,10.976-49.508,46.013-40.859,77.859l117.332,432.05c8.648,31.847,41.856,51.11,73.795,42.809
				c0,0,115.179-29.939,192.892-40.9c106.758-15.059,196.267-17.91,243.65-18.155c47.479,0.245,137.253,3.108,244.295,18.246
				c77.548,10.967,192.249,40.8,192.249,40.8c31.938,8.307,65.144-10.953,73.793-42.8L5806.184,777.964z"/>
		<path fill="none" stroke="#B5B5B5" stroke-width="5" stroke-miterlimit="10" d="M6164.113,5579.847
				c4.743,9.925,0.481,21.878-9.472,26.563l-119.234,56.123c-9.953,4.685-21.977,0.397-26.72-9.528l-45.863-95.963
				c-4.744-9.925-0.481-21.878,9.471-26.563l119.234-56.123c9.953-4.685,21.977-0.397,26.72,9.528L6164.113,5579.847z"/>
		<text transform="matrix(1 0 0 1 5104.6304 3767.501)" fill="#8A8A8A" font-family="'DINPro-Bold'" font-size="92.9056">Танцпол</text>
		<text transform="matrix(1 0 0 1 7213.7759 4909.1885)" fill="#8A8A8A" font-family="'DINPro-Bold'" font-size="92.9056">Сцена</text>
		<text transform="matrix(0.9847 -0.1745 0.1745 0.9847 5473.2173 5465.8384)" fill="#8A8A8A" font-family="'DINPro-Bold'" font-size="92.9056">Super VIP</text>
		<text transform="matrix(0.9982 -0.0604 0.0604 0.9982 5274.332 6832.9624)" fill="#8A8A8A" font-family="'DINPro-Bold'" font-size="92.9056">VIP</text>
		<text transform="matrix(1 0 0 1 3246.0508 5119.8564)" fill="#8A8A8A" font-family="'DINPro-Bold'" font-size="92.9056">3 ярус,VIP</text>
		<text transform="matrix(1 0 0 1 5110.0283 961.4368)" fill="#8A8A8A" font-family="'DINPro-Bold'" font-size="92.9056">Бар</text>
		<text transform="matrix(0.8481 0.5298 -0.5298 0.8481 4353.3862 5040.1304)">
			<tspan x="0" y="0" fill="#8A8A8A" font-family="'DINPro-Bold'" font-size="92.9056">2 ярус,</tspan>
			<tspan x="0" y="103.487" fill="#8A8A8A" font-family="'DINPro-Bold'" font-size="92.9056">Super VIP</tspan>
		</text>
		<path fill="none" d="M7328.896,1644.109c0,0,391.234,355.287,652.485,883.485"/>
		<text transform="matrix(1 0 0 1 2189.7241 4774.1357)" fill="#8A8A8A" font-family="'DINPro-Bold'" font-size="92.9056">4 ярус,VIP</text>
		<text transform="matrix(0.997 -0.0776 0.0776 0.997 6950.937 3740.5007)" fill="#8A8A8A" font-family="'DINPro-Bold'" font-size="92.9056">1 ярус, Super VIP</text>
		<circle fill="#C7C7C7" cx="6457.368" cy="3658.553" r="33.274"/>
		<circle fill="#C7C7C7" cx="6436.82" cy="3579.169" r="33.274"/>
		<circle fill="#C7C7C7" cx="6416.272" cy="3499.785" r="33.274"/>
		<circle fill="#C7C7C7" cx="6647.115" cy="3609.439" r="33.274"/>
		<circle fill="#C7C7C7" cx="6626.567" cy="3530.055" r="33.274"/>
		<circle fill="#C7C7C7" cx="6606.019" cy="3450.671" r="33.274"/>
		<circle fill="#C7C7C7" cx="6781.738" cy="3576.157" r="33.274"/>
		<circle fill="#C7C7C7" cx="6761.19" cy="3496.773" r="33.274"/>
		<circle fill="#C7C7C7" cx="6740.643" cy="3417.389" r="33.274"/>
		<circle fill="#C7C7C7" cx="6971.484" cy="3527.042" r="33.274"/>
		<circle fill="#C7C7C7" cx="6950.937" cy="3447.659" r="33.274"/>
		<circle fill="#C7C7C7" cx="6930.389" cy="3368.275" r="33.274"/>
		<circle fill="#C7C7C7" cx="7108.929" cy="3491.061" r="33.274"/>
		<circle fill="#C7C7C7" cx="7088.381" cy="3411.677" r="33.274"/>
		<circle fill="#C7C7C7" cx="7067.833" cy="3332.293" r="33.274"/>
		<circle fill="#C7C7C7" cx="7298.675" cy="3441.946" r="33.274"/>
		<circle fill="#C7C7C7" cx="7278.128" cy="3362.563" r="33.274"/>
		<circle fill="#C7C7C7" cx="7257.58" cy="3283.179" r="33.274"/>
	</g>
	<g id="seats">
		<g sector="585801936e55b2054f789fb4" component="sector">
			<g component="row">
				<circle fill="#C7C7C7" cx="5276.303" cy="3859.228" r="40" component="seat" multi="true"/>
			</g>
		</g>
		<g sector="99" component="sector">
			<g component="row" rowName="стол 1">
				<circle fill="#C7C7C7" cx="5662.727" cy="5779.818" r="33.274" component="seat" name="1"/>
				<circle fill="#C7C7C7" cx="5580.507" cy="5867.132" r="33.274" component="seat" name="2"/>
				<circle fill="#C7C7C7" cx="5613.79" cy="5959.632" r="33.274" component="seat" name="3"/>
				<circle fill="#C7C7C7" cx="5723.556" cy="5967.584" r="33.274" component="seat" name="4"/>
			</g>
			<g component="row" rowName="стол 2">
				<circle fill="#C7C7C7" cx="5848.717" cy="6165.105" r="33.274" component="seat" name="1"/>
				<circle fill="#C7C7C7" cx="5766.498" cy="6252.419" r="33.274" component="seat" name="2"/>
				<circle fill="#C7C7C7" cx="5799.781" cy="6344.919" r="33.274" component="seat" name="3"/>
				<circle fill="#C7C7C7" cx="5909.547" cy="6352.871" r="33.274" component="seat" name="4"/>
			</g>
			<g component="row" rowName="стол 3">
				<circle fill="#C7C7C7" cx="6200.284" cy="5652.516" r="33.274" component="seat" name="1"/>
				<circle fill="#C7C7C7" cx="6126.092" cy="5687.438" r="33.274" component="seat" name="2"/>
				<circle fill="#C7C7C7" cx="6051.899" cy="5722.359" r="33.274" component="seat" name="3"/>
				<circle fill="#C7C7C7" cx="5898.525" cy="5563.5" r="33.274" component="seat" name="4"/>
				<circle fill="#C7C7C7" cx="5933.287" cy="5637.768" r="33.274" component="seat" name="5"/>
				<circle fill="#C7C7C7" cx="5968.049" cy="5712.035" r="33.274" component="seat" name="6"/>
			</g>
			<g component="row" rowName="стол 4">
				<circle fill="#C7C7C7" cx="6351.163" cy="5995.999" r="33.274" component="seat" name="1"/>
				<circle fill="#C7C7C7" cx="6276.971" cy="6030.92" r="33.274" component="seat" name="2"/>
				<circle fill="#C7C7C7" cx="6202.779" cy="6065.842" r="33.274" component="seat" name="3"/>
				<circle fill="#C7C7C7" cx="6049.405" cy="5906.983" r="33.274" component="seat" name="4"/>
				<circle fill="#C7C7C7" cx="6084.166" cy="5981.25" r="33.274" component="seat" name="5"/>
				<circle fill="#C7C7C7" cx="6118.928" cy="6055.518" r="33.274" component="seat" name="6"/>
			</g>
		</g>
		<g sector="585801936e55b2054f789fad" component="sector">
			<g component="row" rowName="ряд 1">
				<circle fill="#C7C7C7" cx="4827.797" cy="5106.075" r="33.274" component="seat" name="1"/>
				<circle fill="#C7C7C7" cx="4866.481" cy="5033.773" r="33.274" component="seat" name="2"/>
				<circle fill="#C7C7C7" cx="4679.636" cy="5020.348" r="33.274" component="seat" name="3"/>
				<circle fill="#C7C7C7" cx="4718.32" cy="4948.046" r="33.274" component="seat" name="4"/>
				<circle fill="#C7C7C7" cx="4581.848" cy="4960.859" r="33.274" component="seat" name="5"/>
				<circle fill="#C7C7C7" cx="4632.349" cy="4896.256" r="33.274" component="seat" name="6"/>
				<circle fill="#C7C7C7" cx="4450.568" cy="4851.011" r="33.274" component="seat" name="7"/>
				<circle fill="#C7C7C7" cx="4501.07" cy="4786.408" r="33.274" component="seat" name="8"/>
				<circle fill="#C7C7C7" cx="4475.349" cy="4968.256" r="33.274" component="seat" name="9"/>
				<circle fill="#C7C7C7" cx="4363.431" cy="4774.136" r="33.274" component="seat" name="10"/>
				<circle fill="#C7C7C7" cx="4426.098" cy="4721.251" r="33.274" component="seat" name="11"/>
				<circle fill="#C7C7C7" cx="4257.444" cy="4639.72" r="33.274" component="seat" name="12"/>
				<circle fill="#C7C7C7" cx="4320.111" cy="4586.834" r="33.274" component="seat" name="13"/>
				<circle fill="#C7C7C7" cx="4187.772" cy="4547.003" r="33.274" component="seat" name="14"/>
				<circle fill="#C7C7C7" cx="4259.806" cy="4507.822" r="33.274" component="seat" name="15"/>
				<circle fill="#C7C7C7" cx="4111.026" cy="4393.997" r="33.274" component="seat" name="16"/>
				<circle fill="#C7C7C7" cx="4183.06" cy="4354.816" r="33.274" component="seat" name="17"/>
				<circle fill="#C7C7C7" cx="4072.58" cy="4288.253" r="33.274" component="seat" name="18"/>
				<circle fill="#C7C7C7" cx="4151.334" cy="4265.409" r="33.274" component="seat" name="19"/>
				<circle fill="#C7C7C7" cx="4030.387" cy="4122.359" r="33.274" component="seat" name="20"/>
				<circle fill="#C7C7C7" cx="4109.141" cy="4099.516" r="33.274" component="seat" name="21"/>
				<circle fill="#C7C7C7" cx="4012.524" cy="4018.408" r="33.274" component="seat" name="22"/>
				<circle fill="#C7C7C7" cx="4093.954" cy="4008.759" r="33.274" component="seat" name="23"/>
				<circle fill="#C7C7C7" cx="3998.044" cy="3847.847" r="33.274" component="seat" name="24"/>
				<circle fill="#C7C7C7" cx="4079.475" cy="3838.198" r="33.274" component="seat" name="25"/>
				<circle fill="#C7C7C7" cx="3999.778" cy="3734.224" r="33.274" component="seat" name="26"/>
				<circle fill="#C7C7C7" cx="4081.14" cy="3744.434" r="33.274" component="seat" name="27"/>
				<circle fill="#C7C7C7" cx="4026.728" cy="3565.183" r="33.274" component="seat" name="28"/>
				<circle fill="#C7C7C7" cx="4108.09" cy="3575.394" r="33.274" component="seat" name="29"/>
				<circle fill="#C7C7C7" cx="4054.038" cy="3459.236" r="33.274" component="seat" name="30"/>
				<circle fill="#C7C7C7" cx="4132.402" cy="3483.384" r="33.274" component="seat" name="31"/>
				<circle fill="#C7C7C7" cx="4109.858" cy="3297.418" r="33.274" component="seat" name="32"/>
				<circle fill="#C7C7C7" cx="4188.222" cy="3321.567" r="33.274" component="seat" name="33"/>
				<circle fill="#C7C7C7" cx="4165.678" cy="3187.127" r="33.274" component="seat" name="34"/>
				<circle fill="#C7C7C7" cx="4232.348" cy="3234.868" r="33.274" component="seat" name="35"/>
				<circle fill="#C7C7C7" cx="4269.91" cy="3051.345" r="33.274" component="seat" name="36"/>
				<circle fill="#C7C7C7" cx="4336.58" cy="3099.087" r="33.274" component="seat" name="37"/>
				<circle fill="#C7C7C7" cx="4349.182" cy="2961.775" r="33.274" component="seat" name="38"/>
				<circle fill="#C7C7C7" cx="4405.983" cy="3020.916" r="33.274" component="seat" name="39"/>
				<circle fill="#C7C7C7" cx="4476.514" cy="2847.374" r="33.274" component="seat" name="40"/>
				<circle fill="#C7C7C7" cx="4571.795" cy="2769.758" r="33.274" component="seat" name="41"/>
				<circle fill="#C7C7C7" cx="4614.564" cy="2839.721" r="33.274" component="seat" name="42"/>
				<circle fill="#C7C7C7" cx="4720.73" cy="2685.382" r="33.274" component="seat" name="43"/>
				<circle fill="#C7C7C7" cx="4760.73" cy="2755.382" r="33.274" component="seat" name="44"/>
				<circle fill="#C7C7C7" cx="4815.224" cy="2515.994" r="33.274" component="seat" name="45"/>
				<circle fill="#C7C7C7" cx="4834.498" cy="2595.697" r="33.274" component="seat" name="46"/>
				<circle fill="#C7C7C7" cx="4982.095" cy="2474.001" r="33.274" component="seat" name="47"/>
				<circle fill="#C7C7C7" cx="5001.369" cy="2553.704" r="33.274" component="seat" name="48"/>
				<circle fill="#C7C7C7" cx="5132.405" cy="2445.681" r="33.274" component="seat" name="49"/>
				<circle fill="#C7C7C7" cx="5137.906" cy="2527.497" r="33.274" component="seat" name="50"/>
				<circle fill="#C7C7C7" cx="5175.402" cy="2371.292" r="33.274" component="seat" name="51"/>
				<circle fill="#C7C7C7" cx="5257.146" cy="2364.818" r="33.274" component="seat" name="52"/>
				<circle fill="#C7C7C7" cx="5112.236" cy="2142.622" r="33.274" component="seat" name="53"/>
				<circle fill="#C7C7C7" cx="5117.223" cy="2224.47" r="33.274" component="seat" name="54"/>
				<circle fill="#C7C7C7" cx="5151.354" cy="2068.052" r="33.274" component="seat" name="55"/>
				<circle fill="#C7C7C7" cx="5233.136" cy="2062.092" r="33.274" component="seat" name="56"/>
				<circle fill="#C7C7C7" cx="5083.691" cy="1797.007" r="33.274" component="seat" name="57"/>
				<circle fill="#C7C7C7" cx="5088.679" cy="1878.855" r="33.274" component="seat" name="58"/>
				<circle fill="#C7C7C7" cx="5122.809" cy="1722.437" r="33.274" component="seat" name="59"/>
				<circle fill="#C7C7C7" cx="5204.592" cy="1716.476" r="33.274" component="seat" name="60"/>
				<circle fill="#C7C7C7" cx="4755.683" cy="2311.295" r="33.274" component="seat" name="61"/>
				<circle fill="#C7C7C7" cx="4789.509" cy="2203.76" r="33.274" component="seat" name="62"/>
				<circle fill="#C7C7C7" cx="4875.014" cy="2188.102" r="33.274" component="seat" name="63"/>
				<circle fill="#C7C7C7" cx="4945.209" cy="2275.156" r="33.274" component="seat" name="64"/>
				<circle fill="#C7C7C7" cx="4712.057" cy="2042.208" r="33.274" component="seat" name="65"/>
				<circle fill="#C7C7C7" cx="4745.882" cy="1934.673" r="33.274" component="seat" name="66"/>
				<circle fill="#C7C7C7" cx="4831.387" cy="1919.015" r="33.274" component="seat" name="67"/>
				<circle fill="#C7C7C7" cx="4901.583" cy="2006.069" r="33.274" component="seat" name="68"/>
				<circle fill="#C7C7C7" cx="4229.524" cy="4973.179" r="33.274" component="seat" name="69"/>
				<circle fill="#C7C7C7" cx="4114.716" cy="4818.114" r="33.274" component="seat" name="70"/>
				<circle fill="#C7C7C7" cx="4036.048" cy="4709.404" r="33.274" component="seat" name="71"/>
				<circle fill="#C7C7C7" cx="3939.845" cy="4542.158" r="33.274" component="seat" name="72"/>
				<circle fill="#C7C7C7" cx="3884.73" cy="4419.689" r="33.274" component="seat" name="73"/>
				<circle fill="#C7C7C7" cx="3818.862" cy="4238.339" r="33.274" component="seat" name="74"/>
				<circle fill="#C7C7C7" cx="3784.933" cy="4099.516" r="33.274" component="seat" name="75"/>
				<circle fill="#C7C7C7" cx="3769.864" cy="3907.164" r="33.274" component="seat" name="76"/>
				<circle fill="#C7C7C7" cx="3768.866" cy="3784.146" r="33.274" component="seat" name="77"/>
				<circle fill="#C7C7C7" cx="3796.498" cy="3593.194" r="33.274" component="seat" name="78"/>
				<circle fill="#C7C7C7" cx="3822.899" cy="3453.97" r="33.274" component="seat" name="79"/>
				<circle fill="#C7C7C7" cx="3888.38" cy="3272.48" r="33.274" component="seat" name="80"/>
				<circle fill="#C7C7C7" cx="3962.417" cy="3133.293" r="33.274" component="seat" name="81"/>
				<circle fill="#C7C7C7" cx="4064.223" cy="2969.397" r="33.274" component="seat" name="82"/>
				<circle fill="#C7C7C7" cx="4158.382" cy="2837.702" r="33.274" component="seat" name="83"/>
				<circle fill="#C7C7C7" cx="4306.313" cy="2713.837" r="33.274" component="seat" name="84"/>
				<circle fill="#C7C7C7" cx="4434.783" cy="2614.528" r="33.274" component="seat" name="85"/>
				<circle fill="#C7C7C7" cx="4603.599" cy="2521.107" r="33.274" component="seat" name="86"/>
				<circle fill="#C7C7C7" cx="6146.834" cy="1644.941" r="33.274" component="seat" name="87"/>
				<circle fill="#C7C7C7" cx="6105.755" cy="1724.734" r="33.274" component="seat" name="88"/>
				<circle fill="#C7C7C7" cx="6072.295" cy="1813.554" r="33.274" component="seat" name="89"/>
				<circle fill="#C7C7C7" cx="6226.762" cy="1681.52" r="33.274" component="seat" name="90"/>
				<circle fill="#C7C7C7" cx="6308.845" cy="1722.707" r="33.274" component="seat" name="91"/>
				<circle fill="#C7C7C7" cx="6389.194" cy="1765.863" r="33.274" component="seat" name="92"/>
				<circle fill="#C7C7C7" cx="6050.77" cy="1954.205" r="33.274" component="seat" name="93"/>
				<circle fill="#C7C7C7" cx="5951.439" cy="2011.385" r="33.274" component="seat" name="94"/>
				<circle fill="#C7C7C7" cx="5959.178" cy="2126.962" r="33.274" component="seat" name="95"/>
				<circle fill="#C7C7C7" cx="6123.172" cy="1992.699" r="33.274" component="seat" name="96"/>
				<circle fill="#C7C7C7" cx="6195.575" cy="2031.194" r="33.274" component="seat" name="97"/>
				<circle fill="#C7C7C7" cx="5877.774" cy="2261.345" r="33.274" component="seat" name="98"/>
				<circle fill="#C7C7C7" cx="5843.569" cy="2335.87" r="33.274" component="seat" name="99"/>
				<circle fill="#C7C7C7" cx="5809.364" cy="2410.396" r="33.274" component="seat" name="100"/>
				<circle fill="#C7C7C7" cx="5991.427" cy="2246.542" r="33.274" component="seat" name="101"/>
				<circle fill="#C7C7C7" cx="6055.39" cy="2343.116" r="33.274" component="seat" name="102"/>
				<circle fill="#C7C7C7" cx="5741.537" cy="2570.397" r="33.274" component="seat" name="103"/>
				<circle fill="#C7C7C7" cx="5707.333" cy="2644.923" r="33.274" component="seat" name="104"/>
				<circle fill="#C7C7C7" cx="5673.128" cy="2719.448" r="33.274" component="seat" name="105"/>
				<circle fill="#C7C7C7" cx="5855.19" cy="2555.594" r="33.274" component="seat" name="106"/>
				<circle fill="#C7C7C7" cx="6654.443" cy="1898.46" r="33.274" component="seat" name="107"/>
				<circle fill="#C7C7C7" cx="6595.914" cy="1966.495" r="33.274" component="seat" name="108"/>
				<circle fill="#C7C7C7" cx="6542.692" cy="2045.082" r="33.274" component="seat" name="109"/>
				<circle fill="#C7C7C7" cx="6723.657" cy="1952.644" r="33.274" component="seat" name="110"/>
				<circle fill="#C7C7C7" cx="6793.894" cy="2011.812" r="33.274" component="seat" name="111"/>
				<circle fill="#C7C7C7" cx="6861.986" cy="2072.491" r="33.274" component="seat" name="112"/>
				<circle fill="#C7C7C7" cx="6489.008" cy="2176.855" r="33.274" component="seat" name="113"/>
				<circle fill="#C7C7C7" cx="6379.094" cy="2209.335" r="33.274" component="seat" name="114"/>
				<circle fill="#C7C7C7" cx="6359.708" cy="2323.537" r="33.274" component="seat" name="115"/>
				<circle fill="#C7C7C7" cx="6550.458" cy="2231.151" r="33.274" component="seat" name="116"/>
				<circle fill="#C7C7C7" cx="6611.907" cy="2285.446" r="33.274" component="seat" name="117"/>
				<circle fill="#C7C7C7" cx="6249.251" cy="2435.271" r="33.274" component="seat" name="118"/>
				<circle fill="#C7C7C7" cx="6198.634" cy="2499.784" r="33.274" component="seat" name="119"/>
				<circle fill="#C7C7C7" cx="6148.016" cy="2564.296" r="33.274" component="seat" name="120"/>
				<circle fill="#C7C7C7" cx="6363.228" cy="2447.339" r="33.274" component="seat" name="121"/>
				<circle fill="#C7C7C7" cx="6402.945" cy="2556.153" r="33.274" component="seat" name="122"/>
				<circle fill="#C7C7C7" cx="6044.797" cy="2704.107" r="33.274" component="seat" name="123"/>
				<circle fill="#C7C7C7" cx="5994.18" cy="2768.62" r="33.274" component="seat" name="124"/>
				<circle fill="#C7C7C7" cx="5943.563" cy="2833.132" r="33.274" component="seat" name="125"/>
				<circle fill="#C7C7C7" cx="6158.773" cy="2716.175" r="33.274" component="seat" name="126"/>
				<circle fill="#C7C7C7" cx="7041.64" cy="2236.937" r="33.274" component="seat" name="127"/>
				<circle fill="#C7C7C7" cx="6970.485" cy="2291.63" r="33.274" component="seat" name="128"/>
				<circle fill="#C7C7C7" cx="6902.378" cy="2357.736" r="33.274" component="seat" name="129"/>
				<circle fill="#C7C7C7" cx="7098.372" cy="2304.078" r="33.274" component="seat" name="130"/>
				<circle fill="#C7C7C7" cx="7155.092" cy="2376.306" r="33.274" component="seat" name="131"/>
				<circle fill="#C7C7C7" cx="7209.404" cy="2449.577" r="33.274" component="seat" name="132"/>
				<circle fill="#C7C7C7" cx="6766.844" cy="2482.852" r="33.274" component="seat" name="133"/>
				<circle fill="#C7C7C7" cx="6704.152" cy="2535.708" r="33.274" component="seat" name="134"/>
				<circle fill="#C7C7C7" cx="6641.461" cy="2588.564" r="33.274" component="seat" name="135"/>
				<circle fill="#C7C7C7" cx="6875.977" cy="2517.872" r="33.274" component="seat" name="136"/>
				<circle fill="#C7C7C7" cx="6892.709" cy="2632.492" r="33.274" component="seat" name="137"/>
				<circle fill="#C7C7C7" cx="6511.741" cy="2695.628" r="33.274" component="seat" name="138"/>
				<circle fill="#C7C7C7" cx="6449.049" cy="2748.484" r="33.274" component="seat" name="139"/>
				<circle fill="#C7C7C7" cx="6386.357" cy="2801.34" r="33.274" component="seat" name="140"/>
				<circle fill="#C7C7C7" cx="6620.873" cy="2730.648" r="33.274" component="seat" name="141"/>
				<circle fill="#C7C7C7" cx="6637.605" cy="2845.269" r="33.274" component="seat" name="142"/>
				<circle fill="#C7C7C7" cx="6256.836" cy="2917.208" r="33.274" component="seat" name="143"/>
				<circle fill="#C7C7C7" cx="6194.145" cy="2970.064" r="33.274" component="seat" name="144"/>
				<circle fill="#C7C7C7" cx="6131.453" cy="3022.92" r="33.274" component="seat" name="145"/>
				<circle fill="#C7C7C7" cx="6365.968" cy="2952.228" r="33.274" component="seat" name="146"/>
				<circle fill="#C7C7C7" cx="7345.95" cy="2661.765" r="33.274" component="seat" name="147"/>
				<circle fill="#C7C7C7" cx="7265.648" cy="2701.84" r="33.274" component="seat" name="148"/>
				<circle fill="#C7C7C7" cx="7186.154" cy="2753.698" r="33.274" component="seat" name="149"/>
				<circle fill="#C7C7C7" cx="7388.793" cy="2738.518" r="33.274" component="seat" name="150"/>
				<circle fill="#C7C7C7" cx="7430.65" cy="2820.261" r="33.274" component="seat" name="151"/>
				<circle fill="#C7C7C7" cx="7469.945" cy="2902.568" r="33.274" component="seat" name="152"/>
				<circle fill="#C7C7C7" cx="7392.293" cy="2965.986" r="33.274" component="seat" name="153"/>
				<circle fill="#C7C7C7" cx="7056.499" cy="2822.026" r="33.274" component="seat" name="154"/>
				<circle fill="#C7C7C7" cx="6976.197" cy="2862.1" r="33.274" component="seat" name="155"/>
				<circle fill="#C7C7C7" cx="6896.703" cy="2913.959" r="33.274" component="seat" name="156"/>
				<circle fill="#C7C7C7" cx="7099.342" cy="2898.778" r="33.274" component="seat" name="157"/>
				<circle fill="#C7C7C7" cx="7141.199" cy="2980.522" r="33.274" component="seat" name="158"/>
				<circle fill="#C7C7C7" cx="7180.495" cy="3062.829" r="33.274" component="seat" name="159"/>
				<circle fill="#C7C7C7" cx="7102.842" cy="3126.247" r="33.274" component="seat" name="160"/>
				<circle fill="#C7C7C7" cx="6738.101" cy="3010.635" r="33.274" component="seat" name="161"/>
				<circle fill="#C7C7C7" cx="6666.457" cy="3050.524" r="33.274" component="seat" name="162"/>
				<circle fill="#C7C7C7" cx="6594.813" cy="3090.413" r="33.274" component="seat" name="163"/>
				<circle fill="#C7C7C7" cx="6838.52" cy="3065.881" r="33.274" component="seat" name="164"/>
				<circle fill="#C7C7C7" cx="6833.02" cy="3181.586" r="33.274" component="seat" name="165"/>
				<circle fill="#C7C7C7" cx="6445.521" cy="3179.368" r="33.274" component="seat" name="166"/>
				<circle fill="#C7C7C7" cx="6373.876" cy="3219.257" r="33.274" component="seat" name="167"/>
				<circle fill="#C7C7C7" cx="6302.232" cy="3259.146" r="33.274" component="seat" name="168"/>
				<circle fill="#C7C7C7" cx="6545.939" cy="3234.615" r="33.274" component="seat" name="169"/>
				<circle fill="#C7C7C7" cx="7575.18" cy="3200.782" r="33.274" component="seat" name="170"/>
				<circle fill="#C7C7C7" cx="7595.728" cy="3280.166" r="33.274" component="seat" name="171"/>
				<circle fill="#C7C7C7" cx="7616.275" cy="3359.55" r="33.274" component="seat" name="172"/>
				<circle fill="#C7C7C7" cx="7385.433" cy="3249.896" r="33.274" component="seat" name="173"/>
				<circle fill="#C7C7C7" cx="7405.981" cy="3329.28" r="33.274" component="seat" name="174"/>
				<circle fill="#C7C7C7" cx="7426.528" cy="3408.664" r="33.274" component="seat" name="175"/>
			</g>
		</g>
	</g>
</svg>
