<?xml version="1.0" encoding="utf-8"?>
<!-- Generator: Adobe Illustrator 17.0.0, SVG Export Plug-In . SVG Version: 6.00 Build 0)  -->
<!DOCTYPE svg PUBLIC "-//W3C//DTD SVG 1.1//EN" "http://www.w3.org/Graphics/SVG/1.1/DTD/svg11.dtd">
<svg version="1.1" id="Layer_2" xmlns="http://www.w3.org/2000/svg" xmlns:xlink="http://www.w3.org/1999/xlink" x="0px" y="0px"
	 width="10240px" height="7680px" viewBox="0 0 10240 7680" enable-background="new 0 0 10240 7680" xml:space="preserve">
<metadata><?xpacket begin="﻿" id="W5M0MpCehiHzreSzNTczkc9d"?>
<x:xmpmeta xmlns:x="adobe:ns:meta/" x:xmptk="Adobe XMP Core 5.5-c014 79.151739, 2013/04/03-12:12:15        ">
   <rdf:RDF xmlns:rdf="http://www.w3.org/1999/02/22-rdf-syntax-ns#">
      <rdf:Description rdf:about=""
            xmlns:xmp="http://ns.adobe.com/xap/1.0/"
            xmlns:xmpGImg="http://ns.adobe.com/xap/1.0/g/img/"
            xmlns:xmpTPg="http://ns.adobe.com/xap/1.0/t/pg/"
            xmlns:stDim="http://ns.adobe.com/xap/1.0/sType/Dimensions#"
            xmlns:stFnt="http://ns.adobe.com/xap/1.0/sType/Font#"
            xmlns:xmpG="http://ns.adobe.com/xap/1.0/g/"
            xmlns:dc="http://purl.org/dc/elements/1.1/"
            xmlns:xmpMM="http://ns.adobe.com/xap/1.0/mm/"
            xmlns:stRef="http://ns.adobe.com/xap/1.0/sType/ResourceRef#"
            xmlns:stEvt="http://ns.adobe.com/xap/1.0/sType/ResourceEvent#"
            xmlns:pdf="http://ns.adobe.com/pdf/1.3/">
         <xmp:CreatorTool>Adobe Illustrator CC (Windows)</xmp:CreatorTool>
         <xmp:CreateDate>2020-10-05T01:18:01+03:00</xmp:CreateDate>
         <xmp:MetadataDate>2020-10-05T01:18:02+03:00</xmp:MetadataDate>
         <xmp:ModifyDate>2020-10-05T01:18:02+03:00</xmp:ModifyDate>
         <xmp:Thumbnails>
            <rdf:Alt>
               <rdf:li rdf:parseType="Resource">
                  <xmpGImg:width>132</xmpGImg:width>
                  <xmpGImg:height>256</xmpGImg:height>
                  <xmpGImg:format>JPEG</xmpGImg:format>
                  <xmpGImg:image>/9j/4AAQSkZJRgABAgEABwAHAAD/7QAsUGhvdG9zaG9wIDMuMAA4QklNA+0AAAAAABAABwAAAAEA&#xA;AQAHAAAAAQAB/+4ADkFkb2JlAGTAAAAAAf/bAIQABgQEBAUEBgUFBgkGBQYJCwgGBggLDAoKCwoK&#xA;DBAMDAwMDAwQDA4PEA8ODBMTFBQTExwbGxscHx8fHx8fHx8fHwEHBwcNDA0YEBAYGhURFRofHx8f&#xA;Hx8fHx8fHx8fHx8fHx8fHx8fHx8fHx8fHx8fHx8fHx8fHx8fHx8fHx8fHx8f/8AAEQgBAACEAwER&#xA;AAIRAQMRAf/EAaIAAAAHAQEBAQEAAAAAAAAAAAQFAwIGAQAHCAkKCwEAAgIDAQEBAQEAAAAAAAAA&#xA;AQACAwQFBgcICQoLEAACAQMDAgQCBgcDBAIGAnMBAgMRBAAFIRIxQVEGE2EicYEUMpGhBxWxQiPB&#xA;UtHhMxZi8CRygvElQzRTkqKyY3PCNUQnk6OzNhdUZHTD0uIIJoMJChgZhJRFRqS0VtNVKBry4/PE&#xA;1OT0ZXWFlaW1xdXl9WZ2hpamtsbW5vY3R1dnd4eXp7fH1+f3OEhYaHiImKi4yNjo+Ck5SVlpeYmZ&#xA;qbnJ2en5KjpKWmp6ipqqusra6voRAAICAQIDBQUEBQYECAMDbQEAAhEDBCESMUEFURNhIgZxgZEy&#xA;obHwFMHR4SNCFVJicvEzJDRDghaSUyWiY7LCB3PSNeJEgxdUkwgJChgZJjZFGidkdFU38qOzwygp&#xA;0+PzhJSktMTU5PRldYWVpbXF1eX1RlZmdoaWprbG1ub2R1dnd4eXp7fH1+f3OEhYaHiImKi4yNjo&#xA;+DlJWWl5iZmpucnZ6fkqOkpaanqKmqq6ytrq+v/aAAwDAQACEQMRAD8A9SRRRGJCUUkqCSQPDFVX&#xA;FVG4VaBqDkTuab4qoYq7FXYq7FXYq7FXYq7FXYq7FXYq7FV0aqzgMAR4HfFVTgn1nhxHDhXjTata&#xA;VpiqpB/cx/6o/Viq/FVK5+yPniqHxV2KuxV2KuxV2KuxV2KuxV2KuxV2Kr4f7xcVVP8Aj8/55/8A&#xA;G2Kr4P7mP/VH6sVX4qpXP2R88VQ+KuxV2KuxV2KpXqvmLTtLuIobwsglUv6vw8QBt0rzP+xU++Ko&#xA;WLzx5allSKO6LPIwVP3b0asgjqppQjke2Kp9irsVdirsVdiq+H+8XFVT/j8/55/8bYqvg/uY/wDV&#xA;H6sVX4qpXP2R88VQ+KuxV2KuxV2KrWRHFHUMOlCK7HFWlghVQqxqqr9kAAAU32xVfirsVdirsVdi&#xA;q+H+8XFVT/j8/wCef/G2Kr4P7mP/AFR+rFV+KqVz9kfPFUPirsVdirsVdirsVdirsVdirsVdirsV&#xA;Xw/3i4qqf8fn/PP/AI2xVfB/cx/6o/Viq/FVroHFDiqz6svicVd9WXxOKu+rL4nFXfVl8Tirvqy+&#xA;JxV31ZfE4q76svicVd9WXxOKu+rL4nFXfVl8Tirvqy+JxV31ZfE4q2kCqwNSaYqt/wCPz/nn/wAb&#xA;Yqvg/uY/9UfqxVfiqx93VKkAgk0NDtTw+eKu9FPFv+Cb+uKu9FPFv+Cb+uKu9FPFv+Cb+uKu9FPF&#xA;v+Cb+uKu9FPFv+Cb+uKu9FPFv+Cb+uKu9FPFv+Cb+uKu9FPFv+Cb+uKu9FPFv+Cb+uKu9FPFv+Cb&#xA;+uKu9FPFv+Cb+uKu9FPFv+Cb+uKtMoSjKTWoFCxIoTTuffFVv/H5/wA8/wDjbFV8H9zH/qj9WKr8&#xA;VWH++X/Vb9a4qvxV2KuxV2KuxVj+p+armw1aSzbSbq4tkiSRbq3VpOTOwHAJxA2qT9rtiqFTz9E8&#xA;jImj6i5RasRDsDxLEHeo3BXp1xVOtF1OfULeaWa0ezaOeSJY5AQWVD8LioXZhiqYYq7FXYq7FVk3&#xA;2B/rL/xIYqs/4/P+ef8Axtiq+D+5j/1R+rFV+KrD/fL/AKrfrXFV+KuxV2KuxV2KuxVLNIuNXlln&#xA;F9F6aKR6e1PHYeIxVM8VdirsVdirsVWTfYH+sv8AxIYqs/4/P+ef/G2Kr4P7mP8A1R+rFV+KrXUk&#xA;gqaMO5Fdj92KtUm/mX/gT/zVirqTfzL/AMCf+asVdSb+Zf8AgT/zVirqTfzL/wACf+asVdSb+Zf+&#xA;BP8AzVirqTfzL/wJ/wCasVdSb+Zf+BP/ADVirqTfzL/wJ/5qxV1Jv5l/4E/81Yq6k38y/wDAn/mr&#xA;FXUm/mX/AIE/81Yq6k38y/8AAn/mrFXcHJHNgVBrQCnTp3OKrP8Aj8/55/8AG2Kr4P7mP/VH6sVX&#xA;4q7FXYq7FXYq7FXYq7FXYq7FXYq7FXYq7FXYqo/8fn/PP/jbFV8H9zH/AKo/Viq/FXYq7FXYq7FX&#xA;Yq7FXYq7FXYq7FXYq7FXYq7FVH/j8/55/wDG2Kuhmh9GP94v2R3Hhiq/14f9+L94xV3rw/78X7xi&#xA;rvXh/wB+L94xVcsiN9lg1OtDXFW8VdirsVdirsVdirsVWevD/vxfvGKu9eH/AH4v3jFXevD/AL8X&#xA;7xirvXh/34v3jFVH1ovrdea09Olaj+bFVS0/3kh/4xr+oYqq4qtmLCJyhCvxPEt0rTauKpNZPrK6&#xA;fcrPKv1o/wC85JUkeO42+WKorSje/VYhesGnDt3BIUqaVIxVMcVdirsVdirsVdiqyb7HzZQfpYYq&#xA;lcL6mNYlaWVfqG/AVFPYAda4q3pJ1X65cfXJA0Jr6QBB7/s03Ap44qm2KuxVCf8AS2/54f8AG+Kq&#xA;1p/vJD/xjX9QxVVxVZOvKFhUKKVJPQU3xVjs9qb2VL221IR21s6NcIDIARGWJBFVHxBqdDXFU3sX&#xA;hlWOaGRZI2agK17K3WtMVR2KuxV2KuxV2KuxVZN9gf6y/wDEhiqT3cMV562nRXYiuSNyhdXWhBNC&#xA;vHf6fniqKsZbeW4ZIpkd4ftqK18O43xVMcVdiqE/6W3/ADw/43xVWtP95If+Ma/qGKquKrZRGYnE&#xA;lPT4nnXpxpviqT2SaB+jroQMTan/AHoLcqjw67/LFUTpQ08WkP1Akweo1Sa15cTWtcVTHFXYq7FX&#xA;Yq7FXYqsm+wP9Zf+JDFUtt10X9NSmJv9P35L8VK/tU7VxV2kroovLg2LVm/3YN6AV/Zr2riqa4q7&#xA;FUJ/0tv+eH/G+KqF9qE+n6F9cgtmvJYo4+NslQzVKr1Cudga9MVSl/PaLdPbDR9Rd42CuVh23JFe&#xA;v2ag0PtirITKXsxI8RQug5xPQkcuqmnzxVJvUsLOSPTltSUv+dSAWUemvL42LVH+TiqYafFDAiQw&#xA;oERXJoKmpKnrUnFUwxV2KuxV2KuxV2KrJvsD/WX/AIkMVSa7uLDTml1WSIK4oHcciauQuwrSpJxV&#xA;FWFvawXLvFCqPN9thX57VJpiqH13zHNpNzDGNNuL2CRGd5bZS5Qr0XiBQ1/1hiqnpvmv9IXEEUOm&#xA;3axziv1h0VYlFXFS1f8Aivt44qmf/S2/54f8b4qrWn+8kP8AxjX9QxVIdMsfO66pA2oajA+nRI3r&#xA;JHGvOV6kLX4F4/DQ7Hr2xVkE1fSfivNgpKqe5HQYqk9lPqUlhczTWYFxH/cpxZeXj8JNTTFUVpUl&#xA;zLawyXMPoylyKUK1AU0NDiqY4q7FXYq7FXYq7FVk32B/rL/xIYqlcMl7Jq8ttLaAWQB4ycTTboeX&#xA;Q18MVb0me/lvLhbm2EMcf92/EjvSlT9rbuMVROsw6rNYsml3C2t2WXjK6h1Ck0fYg7hTUe+KoXy1&#xA;beY4LJ/09dx3V27VX0kVVRRtSqqnKvXpiqM/6W3/ADw/43xVWtP95If+Ma/qGKquKrZC4jYoOTgE&#xA;qvSppsMVSmyvdak0+5kmt6XEf9wpUry8dj1piqJ0ye9ntYXvI/Tm9RhQgqSOJoSD0xVH4q7FXYq7&#xA;FXYq7FVk32B/rL/xIYql8F3qraxJBJBxsgDxk4mmw2PLoa+GKu0u71Wa7uEu4PShT+7biR36A/tb&#xA;YqmeKuxVCf8AS2/54f8AG+Kq1p/vJD/xjX9QxVVxVZOrNEwXqf64qk00OpPeWslu6iyT1Pri7Et8&#xA;I4UND0PXcYqmFsDVG6qW2INQfhbFUZirsVdirsVdirsVWTfYH+sv/EhiqT6nBqUlrLFYOI734SrN&#xA;Q0HIFqghuq17YqjbZW9bb9n7dD0+eKo7FXYqhP8Apbf88P8AjfFV9rIotoQQ1Qig/C3h8sVVfWTw&#xA;b/gW/piq2RkkjZDzAcFSQrVFRTbbFUstNFgt7G4tfVkYXHVwjClOm2/04qidMsFs7eOBGaTi5dnZ&#xA;SvUEbA4qj8VdirsVdirsVdiq2QErsKkEGnyIOKpZBpcMWqyagJJCXrSPg2xbrvTpirem6XDY3U86&#xA;ySOZuilG2BNdzTc4qmPrJ4N/wLf0xV3rJ4N/wLf0xVDch+kudG4+jxrxbrzr0piqJg/uY/8AVH6s&#xA;VX4q7FXYq7FXYq7FXYq7FXYq7FXYq7FXYq7FXYqo/wDH5/zz/wCNsVat3ma3iYItCin7R8P9XFVS&#xA;s38q/wDBH/mnFXVm/lX/AII/804q6s38q/8ABH/mnFXc3DKGUAMaAg13pXwHhiq/FXYq7FXYq7FX&#xA;Yq07cVr16AD3Jpiq2s38q/8ABH/mnFWvVcdk/wCD/sxVsPKdwqEezH/mnFXVm/lX/gj/AM04qh/U&#xA;l+v8OC8vSr9o0pyp4YqrWn+8kP8AxjX9QxVVxV2KuxVZJ9uP/W/41OKr8VdirsVdirsVdiqyb7A/&#xA;1l/4kMVS++0ia51O3u1uCiQ0qm/Y1NPn3xVD3ELXUyC1vUj+qyiS5Ub8kAIKNuKDfriqYadLDLEz&#xA;RSLItaEqa0OKovFUJ/0tv+eH/G+Kq1p/vJD/AMY1/UMVVcVdirsVWSfbj/1v+NTiq/FXYq7FXYq7&#xA;FXYqsm+wP9Zf+JDFV9RiqW2+kaZbvcFSf9IBSRWYUCt1AxVX0zTrSxhZLclgzVZmIJr9FMVReKoT&#xA;/pbf88P+N8VVrT/eSH/jGv6hiqrirsVdiqyT7cf+t/xqcVX4q7FXYq7FXYq7FVk32B/rL/xIYql9&#xA;7o7XOpQXgnKCHjVKfymuxrtXFUNcRreShba8RDayiS4oWFUWvJTQqKHvWoxVMdNngmiZ4ZFkWtCV&#xA;rsfpxVF4qhP+lt/zw/43xVWtP95If+Ma/qGKquKsZg/MTy1JKIZJJIJmma3RJEqSyEAn4C9B8W1c&#xA;VZNiqyTYoTsA258PhIxVfirsVdirsVdirsVWTfYH+sv/ABIYqvxVA2+i2EDzsiH/AEgFZFJ24t1A&#xA;xVU0/TbawiaOAGjHkxY1JOKorFUJ/wBLb/nh/wAb4qrWn+8kP/GNf1DFVXFVNrW2ZlZoULI3NCVB&#xA;IbxHgcVVMVdiqz0If99r9wxV3oQ/77X7hiq2SKNQCqKDyXcAD9oYqq4q7FXYqsm+wP8AWX/iQxVL&#xA;74a1+krc2pH1Pb1fs+PxVrv08MVU75NXaSD6s7oomBuPeIA1ABVuu3QjFUxtfV4n1K9duX9uKq2K&#xA;oT/pbf8APD/jfFVa0/3kh/4xr+oYqq4q7FXYq7FXYq7FVk32B/rL/wASGKr8VdirsVWTfYH+sv8A&#xA;xIYqvxVKbLRJ7eW8c3Rb6yrKpFagt+0d+oxVW0XTJdPt3ikl9Xk3IUqAPvxVMMVQn/S2/wCeH/G+&#xA;Kr7WRRbQghqhFB+FvD5Yqq+sng3/AALf0xV3rJ4N/wAC39MVd6yeDf8AAt/TFXesng3/AALf0xV3&#xA;rJ4N/wAC39MVd6yeDf8AAt/TFWncOAqhq8lO6kbAg9xiqpirsVdiqyb7A/1l/wCJDFUs1CfVE1a1&#xA;jgdFtnpyUlATv8Wx+Lp4YqvuLy4S9SFVYxvz5SAmi8aUFKd6+OKqd7caquqWkcDoLdwpdSUBO/xb&#xA;H4unhiqb4qhP+lt/zw/43xVEQf3Mf+qP1YqvxV2KuxV2KuxV2KuxV2KuxV2KrJvsD/WX/iQxVBXe&#xA;iwXV/DeO7BouPwDoeJqMVS8a9YyxXM/oyD0SPhqPi5Gg+WKoiOwtdVktdVBePiBSPb/dbGm/zxVO&#xA;MVQn/S2/54f8b4qrRSxCJAXUEKAQSPDFV3rw/wC/F+8Yq714f9+L94xV3rw/78X7xirvXh/34v3j&#xA;FXevD/vxfvGKu9eH/fi/eMVd68P+/F+8Yq4TQk0DrX5jFV+KtM6L9pgvzNMVUpZoeH94uzKTuOgY&#xA;Yq39btP9/R/8EP64qpiTTQrKGhCvu4qtG+fjiq9bmyVQqyxqo2ADKAMVb+t2n+/o/wDgh/XFUP60&#xA;X6Q9bmvo+jw9So48uVeNelaYq//Z</xmpGImg:image>
               </rdf:li>
            </rdf:Alt>
         </xmp:Thumbnails>
         <xmpTPg:NPages>1</xmpTPg:NPages>
         <xmpTPg:HasVisibleTransparency>False</xmpTPg:HasVisibleTransparency>
         <xmpTPg:HasVisibleOverprint>False</xmpTPg:HasVisibleOverprint>
         <xmpTPg:MaxPageSize rdf:parseType="Resource">
            <stDim:w>10240.000400</stDim:w>
            <stDim:h>7680.000100</stDim:h>
            <stDim:unit>Points</stDim:unit>
         </xmpTPg:MaxPageSize>
         <xmpTPg:Fonts>
            <rdf:Bag>
               <rdf:li rdf:parseType="Resource">
                  <stFnt:fontName>DINPro</stFnt:fontName>
                  <stFnt:fontFamily>DIN Pro</stFnt:fontFamily>
                  <stFnt:fontFace>Regular</stFnt:fontFace>
                  <stFnt:fontType>TrueType</stFnt:fontType>
                  <stFnt:versionString>Version 7.504; 2005; Build 1021</stFnt:versionString>
                  <stFnt:composite>False</stFnt:composite>
                  <stFnt:fontFileName/>
               </rdf:li>
               <rdf:li rdf:parseType="Resource">
                  <stFnt:fontName>DINPro-Bold</stFnt:fontName>
                  <stFnt:fontFamily>DIN Pro</stFnt:fontFamily>
                  <stFnt:fontFace>Bold</stFnt:fontFace>
                  <stFnt:fontType>TrueType</stFnt:fontType>
                  <stFnt:versionString>Version 7.504; 2005; Build 1020</stFnt:versionString>
                  <stFnt:composite>False</stFnt:composite>
                  <stFnt:fontFileName/>
               </rdf:li>
            </rdf:Bag>
         </xmpTPg:Fonts>
         <xmpTPg:PlateNames>
            <rdf:Seq>
               <rdf:li>Cyan</rdf:li>
               <rdf:li>Magenta</rdf:li>
               <rdf:li>Yellow</rdf:li>
               <rdf:li>Black</rdf:li>
            </rdf:Seq>
         </xmpTPg:PlateNames>
         <xmpTPg:SwatchGroups>
            <rdf:Seq>
               <rdf:li rdf:parseType="Resource">
                  <xmpG:groupName>Default Swatch Group</xmpG:groupName>
                  <xmpG:groupType>0</xmpG:groupType>
               </rdf:li>
            </rdf:Seq>
         </xmpTPg:SwatchGroups>
         <dc:format>image/svg+xml</dc:format>
         <dc:title>
            <rdf:Alt>
               <rdf:li xml:lang="x-default">Glastonberry bez centra</rdf:li>
            </rdf:Alt>
         </dc:title>
         <xmpMM:DocumentID>xmp.did:0a037004-f431-5f49-a6e5-5ddde6538cc8</xmpMM:DocumentID>
         <xmpMM:InstanceID>xmp.iid:0a037004-f431-5f49-a6e5-5ddde6538cc8</xmpMM:InstanceID>
         <xmpMM:OriginalDocumentID>xmp.did:82aacf58-607c-a645-8469-3b9abc83840d</xmpMM:OriginalDocumentID>
         <xmpMM:RenditionClass>proof:pdf</xmpMM:RenditionClass>
         <xmpMM:DerivedFrom rdf:parseType="Resource">
            <stRef:instanceID>uuid:47b24f90-e589-4c88-b227-57173ec46e6b</stRef:instanceID>
            <stRef:documentID>xmp.did:2848feb4-71ed-4a46-94b0-4c99a40ff6fc</stRef:documentID>
            <stRef:originalDocumentID>xmp.did:82aacf58-607c-a645-8469-3b9abc83840d</stRef:originalDocumentID>
            <stRef:renditionClass>proof:pdf</stRef:renditionClass>
         </xmpMM:DerivedFrom>
         <xmpMM:History>
            <rdf:Seq>
               <rdf:li rdf:parseType="Resource">
                  <stEvt:action>saved</stEvt:action>
                  <stEvt:instanceID>xmp.iid:82aacf58-607c-a645-8469-3b9abc83840d</stEvt:instanceID>
                  <stEvt:when>2018-10-21T17:28:59+03:00</stEvt:when>
                  <stEvt:softwareAgent>Adobe Illustrator CC (Windows)</stEvt:softwareAgent>
                  <stEvt:changed>/</stEvt:changed>
               </rdf:li>
               <rdf:li rdf:parseType="Resource">
                  <stEvt:action>saved</stEvt:action>
                  <stEvt:instanceID>xmp.iid:0a037004-f431-5f49-a6e5-5ddde6538cc8</stEvt:instanceID>
                  <stEvt:when>2020-10-05T01:18:02+03:00</stEvt:when>
                  <stEvt:softwareAgent>Adobe Illustrator CC (Windows)</stEvt:softwareAgent>
                  <stEvt:changed>/</stEvt:changed>
               </rdf:li>
            </rdf:Seq>
         </xmpMM:History>
         <pdf:Producer>Adobe PDF library 10.01</pdf:Producer>
      </rdf:Description>
   </rdf:RDF>
</x:xmpmeta>
                                                                                                    
                                                                                                    
                                                                                                    
                                                                                                    
                                                                                                    
                                                                                                    
                                                                                                    
                                                                                                    
                                                                                                    
                                                                                                    
                                                                                                    
                                                                                                    
                                                                                                    
                                                                                                    
                                                                                                    
                                                                                                    
                                                                                                    
                                                                                                    
                                                                                                    
                                                                                                    
                           
<?xpacket end="w"?>
	</metadata>
<g>
	<g>
		<path fill="none" stroke="#B5B5B5" stroke-width="5" stroke-miterlimit="10" d="M5244.814,6858.678H3691.47c-27.5,0-50-22.5-50-50
			V1146.283c0-27.5,22.5-50,50-50h136.554"/>
		<path fill="none" stroke="#B5B5B5" stroke-width="5" stroke-miterlimit="10" d="M4047.842,1096.283H6548.53c27.5,0,50,22.5,50,50
			v5662.395l0,0c0,27.5-22.5,50-50,50H5542.69"/>
	</g>
	<g>
		<path fill="#F5F5F5" d="M4107.149,1146.283c0-27.5,22.5-50,50-50h2274.185c27.5,0,50,22.5,50,50v871.016c0,27.5-22.5,50-50,50
			H4157.149c-27.5,0-50-22.5-50-50V1146.283z"/>
		<g>
			<g>
				<g>
					<text transform="matrix(1 0 0 1 5162.2031 1635.2761)" fill="#8A8A8A" font-family="'DINPro-Bold'" font-size="92.9056">Сцена</text>
				</g>
			</g>
		</g>
	</g>
	<g>
		<g>
			<g>
				<text transform="matrix(1 0 0 1 5138.2031 2502.5525)" fill="#8A8A8A" font-family="'DINPro-Bold'" font-size="92.9056">Входной</text>
			</g>
		</g>
		<circle fill="#C7C7C7" cx="5311.151" cy="2638.908" r="47.99"/>
		<path fill="none" stroke="#B5B5B5" stroke-width="5" stroke-miterlimit="10" d="M4111.737,2258.552c0-27.5,22.5-50,50-50h2267.78
			c27.5,0,50,22.5,50,50v488c0,27.5-22.5,50-50,50h-2267.78c-27.5,0-50-22.5-50-50V2258.552z"/>
	</g>
	<g>
		<path fill="none" stroke="#B5B5B5" stroke-width="5" stroke-miterlimit="10" d="M4538.737,5960.678c-27.5,0-50-22.5-50-50v-704
			c0-27.5-22.5-50-50-50H3641.47v1304h797.267c27.5,0,72.5,0,100,0h466.966c27.5,0,50-22.5,50-50v-400c0-27.5-22.5-50-50-50
			H4538.737z"/>
		<g>
			<g>
				<g>
					<text transform="matrix(1 0 0 1 4009.5332 5951.8799)" fill="#8A8A8A" font-family="'DINPro-Bold'" font-size="92.9056">Бар</text>
				</g>
			</g>
		</g>
	</g>
	<g>
		<path fill="none" stroke="#B5B5B5" stroke-width="5" stroke-miterlimit="10" d="M5772.577,5206.678c0-27.5,22.5-50,50-50h775.953
			v1652c0,27.5-22.5,50-50,50h-725.953c-27.5,0-50-22.5-50-50V5206.678z"/>
		<g>
			<circle fill="#C7C7C7" cx="5913.32" cy="6412.688" r="47.99"/>
			<circle fill="#C7C7C7" cx="5913.32" cy="6531.182" r="47.99"/>
			<circle fill="#C7C7C7" cx="6273.32" cy="6412.688" r="47.99"/>
			<circle fill="#C7C7C7" cx="6273.32" cy="6531.182" r="47.99"/>
			<circle fill="#C7C7C7" cx="6031.587" cy="6648.059" r="47.99"/>
			<circle fill="#C7C7C7" cx="6158.487" cy="6648.059" r="47.99"/>
			<path fill="#F0F0F0" d="M6008.254,6374.13c0-13.75,11.25-25,25-25h113.492c13.75,0,25,11.25,25,25v162.989
				c0,13.75-11.25,25-25,25h-113.492c-13.75,0-25-11.25-25-25V6374.13z"/>
			<g>
				<g>
					<g>
						<text transform="matrix(1 0 0 1 6064.4399 6487.9336)" fill="#8A8A8A" font-family="'DINPro'" font-size="92.9056">1</text>
					</g>
				</g>
			</g>
		</g>
		<g>
			<circle fill="#C7C7C7" cx="5913.32" cy="6048.378" r="47.99"/>
			<circle fill="#C7C7C7" cx="6040.587" cy="6192.081" r="47.99"/>
			<circle fill="#C7C7C7" cx="6190.579" cy="6192.081" r="47.99"/>
			<path fill="#F0F0F0" d="M5992.597,6007.678c0-13.75,11.25-25,25-25h195.972c13.75,0,25,11.25,25,25v81.399
				c0,13.75-11.25,25-25,25h-195.972c-13.75,0-25-11.25-25-25V6007.678z"/>
			<g>
				<g>
					<g>
						<text transform="matrix(1 0 0 1 6090.0234 6081.5361)" fill="#8A8A8A" font-family="'DINPro'" font-size="92.9056">2</text>
					</g>
				</g>
			</g>
		</g>
		<g>
			<circle fill="#C7C7C7" cx="5913.32" cy="5646.868" r="47.99"/>
			<circle fill="#C7C7C7" cx="6040.587" cy="5790.572" r="47.99"/>
			<circle fill="#C7C7C7" cx="6190.579" cy="5790.572" r="47.99"/>
			<path fill="#F0F0F0" d="M5992.597,5606.168c0-13.75,11.25-25,25-25h195.972c13.75,0,25,11.25,25,25v81.399
				c0,13.75-11.25,25-25,25h-195.972c-13.75,0-25-11.25-25-25V5606.168z"/>
			<g>
				<g>
					<g>
						<text transform="matrix(1 0 0 1 6090.0234 5678.5361)" fill="#8A8A8A" font-family="'DINPro'" font-size="92.9056">3</text>
					</g>
				</g>
			</g>
		</g>
		<g>
			<circle fill="#C7C7C7" cx="5913.32" cy="5291.386" r="47.99"/>
			<circle fill="#C7C7C7" cx="6040.587" cy="5435.089" r="47.99"/>
			<circle fill="#C7C7C7" cx="6190.579" cy="5435.089" r="47.99"/>
			<path fill="#F0F0F0" d="M5992.597,5250.686c0-13.75,11.25-25,25-25h195.972c13.75,0,25,11.25,25,25v81.399
				c0,13.75-11.25,25-25,25h-195.972c-13.75,0-25-11.25-25-25V5250.686z"/>
			<g>
				<g>
					<g>
						<text transform="matrix(1 0 0 1 6090.0234 5323.7329)" fill="#8A8A8A" font-family="'DINPro'" font-size="92.9056">4</text>
					</g>
				</g>
			</g>
		</g>
	</g>
	<g>
		<path fill="none" stroke="#B5B5B5" stroke-width="5" stroke-miterlimit="10" d="M5772.577,3481.273c0-27.5,22.5-50,50-50h775.953
			v1405.405h-775.953c-27.5,0-50-22.5-50-50V3481.273z"/>
		<g>
			<g>
				<text transform="matrix(1 0 0 1 6238.5693 4133.9761)" fill="#8A8A8A" font-family="'DINPro-Bold'" font-size="92.9056">Super</text>
				<text transform="matrix(1 0 0 1 6284.4263 4267.2476)" fill="#8A8A8A" font-family="'DINPro-Bold'" font-size="92.9056">VIP</text>
			</g>
		</g>
		<g>
			<circle fill="#C7C7C7" cx="5881.033" cy="4735.595" r="47.99"/>
			<circle fill="#C7C7C7" cx="6040.033" cy="4735.595" r="47.99"/>
			<circle fill="#C7C7C7" cx="5881.033" cy="4445.595" r="47.99"/>
			<circle fill="#C7C7C7" cx="6040.033" cy="4445.595" r="47.99"/>
			<path fill="#F0F0F0" d="M5803.311,4545.678c0-13.75,11.25-25,25-25h266c13.75,0,25,11.25,25,25v90c0,13.75-11.25,25-25,25h-266
				c-13.75,0-25-11.25-25-25V4545.678z"/>
			<g>
				<g>
					<g>
						<text transform="matrix(1 0 0 1 5935.75 4624.6631)" fill="#8A8A8A" font-family="'DINPro'" font-size="92.9056">5</text>
					</g>
				</g>
			</g>
		</g>
		<g>
			<circle fill="#C7C7C7" cx="5881.033" cy="4267.595" r="47.99"/>
			<circle fill="#C7C7C7" cx="6040.033" cy="4267.595" r="47.99"/>
			<circle fill="#C7C7C7" cx="5881.033" cy="3975.595" r="47.99"/>
			<circle fill="#C7C7C7" cx="6040.033" cy="3975.595" r="47.99"/>
			<path fill="#F0F0F0" d="M5803.311,4075.678c0-13.75,11.25-25,25-25h266c13.75,0,25,11.25,25,25v90c0,13.75-11.25,25-25,25h-266
				c-13.75,0-25-11.25-25-25V4075.678z"/>
			<g>
				<g>
					<g>
						<text transform="matrix(1 0 0 1 5935.75 4152.6162)" fill="#8A8A8A" font-family="'DINPro'" font-size="92.9056">6</text>
					</g>
				</g>
			</g>
		</g>
		<g>
			<circle fill="#C7C7C7" cx="5881.033" cy="3805.595" r="47.99"/>
			<circle fill="#C7C7C7" cx="6040.033" cy="3805.595" r="47.99"/>
			<circle fill="#C7C7C7" cx="5881.033" cy="3520.502" r="47.99"/>
			<circle fill="#C7C7C7" cx="6040.033" cy="3520.502" r="47.99"/>
			<path fill="#F0F0F0" d="M5803.311,3613.678c0-13.75,11.25-25,25-25h266c13.75,0,25,11.25,25,25v90c0,13.75-11.25,25-25,25h-266
				c-13.75,0-25-11.25-25-25V3613.678z"/>
			<g>
				<g>
					<g>
						<text transform="matrix(1 0 0 1 5935.75 3695.9023)" fill="#8A8A8A" font-family="'DINPro'" font-size="92.9056">7</text>
					</g>
				</g>
			</g>
		</g>
	</g>
	<g>
		<path fill="none" stroke="#B5B5B5" stroke-width="5" stroke-miterlimit="10" d="M3641.47,3431.273h797.267c27.5,0,50,22.5,50,50
			v1305.405c0,27.5-22.5,50-50,50H3641.47V3431.273z"/>
		<g>
			<g>
				<text transform="matrix(1 0 0 1 3773.6812 4133.9761)" fill="#8A8A8A" font-family="'DINPro-Bold'" font-size="92.9056">Super</text>
				<text transform="matrix(1 0 0 1 3819.5381 4267.2476)" fill="#8A8A8A" font-family="'DINPro-Bold'" font-size="92.9056">VIP</text>
			</g>
		</g>
		<g>
			<circle fill="#C7C7C7" cx="4214.46" cy="4735.595" r="47.99"/>
			<circle fill="#C7C7C7" cx="4373.46" cy="4735.595" r="47.99"/>
			<circle fill="#C7C7C7" cx="4214.46" cy="4445.595" r="47.99"/>
			<circle fill="#C7C7C7" cx="4373.46" cy="4445.595" r="47.99"/>
			<path fill="#F0F0F0" d="M4136.737,4545.678c0-13.75,11.25-25,25-25h266c13.75,0,25,11.25,25,25v90c0,13.75-11.25,25-25,25h-266
				c-13.75,0-25-11.25-25-25V4545.678L4136.737,4545.678z"/>
			<g>
				<g>
					<g>
						<text transform="matrix(1 0 0 1 4269.1763 4624.6631)" fill="#8A8A8A" font-family="'DINPro'" font-size="92.9056">8</text>
					</g>
				</g>
			</g>
		</g>
		<g>
			<circle fill="#C7C7C7" cx="4214.46" cy="4267.595" r="47.99"/>
			<circle fill="#C7C7C7" cx="4373.46" cy="4267.595" r="47.99"/>
			<circle fill="#C7C7C7" cx="4214.46" cy="3975.595" r="47.99"/>
			<circle fill="#C7C7C7" cx="4373.46" cy="3975.595" r="47.99"/>
			<path fill="#F0F0F0" d="M4136.737,4075.678c0-13.75,11.25-25,25-25h266c13.75,0,25,11.25,25,25v90c0,13.75-11.25,25-25,25h-266
				c-13.75,0-25-11.25-25-25V4075.678L4136.737,4075.678z"/>
			<g>
				<g>
					<g>
						<text transform="matrix(1 0 0 1 4269.1763 4152.6162)" fill="#8A8A8A" font-family="'DINPro'" font-size="92.9056">9</text>
					</g>
				</g>
			</g>
		</g>
		<g>
			<circle fill="#C7C7C7" cx="4214.46" cy="3805.595" r="47.99"/>
			<circle fill="#C7C7C7" cx="4373.46" cy="3805.595" r="47.99"/>
			<circle fill="#C7C7C7" cx="4214.46" cy="3520.502" r="47.99"/>
			<circle fill="#C7C7C7" cx="4373.46" cy="3520.502" r="47.99"/>
			<path fill="#F0F0F0" d="M4136.737,3613.678c0-13.75,11.25-25,25-25h266c13.75,0,25,11.25,25,25v90c0,13.75-11.25,25-25,25h-266
				c-13.75,0-25-11.25-25-25V3613.678L4136.737,3613.678z"/>
			<g>
				<g>
					<g>
						<text transform="matrix(1 0 0 1 4240.4663 3695.9023)" fill="#8A8A8A" font-family="'DINPro'" font-size="92.9056">10</text>
					</g>
				</g>
			</g>
		</g>
	</g>
</g>
</svg>
