<?xml version="1.0" encoding="utf-8"?>
<!-- Generator: Adobe Illustrator 17.0.0, SVG Export Plug-In . SVG Version: 6.00 Build 0)  -->
<!DOCTYPE svg PUBLIC "-//W3C//DTD SVG 1.1//EN" "http://www.w3.org/Graphics/SVG/1.1/DTD/svg11.dtd">
<svg version="1.1" id="Layer_2" xmlns="http://www.w3.org/2000/svg" xmlns:xlink="http://www.w3.org/1999/xlink" x="0px" y="0px"
	 width="10240px" height="7680px" viewBox="0 0 10240 7680" enable-background="new 0 0 10240 7680" xml:space="preserve">
<metadata><?xpacket begin="﻿" id="W5M0MpCehiHzreSzNTczkc9d"?>
<x:xmpmeta xmlns:x="adobe:ns:meta/" x:xmptk="Adobe XMP Core 5.5-c014 79.151739, 2013/04/03-12:12:15        ">
   <rdf:RDF xmlns:rdf="http://www.w3.org/1999/02/22-rdf-syntax-ns#">
      <rdf:Description rdf:about=""
            xmlns:xmp="http://ns.adobe.com/xap/1.0/"
            xmlns:xmpGImg="http://ns.adobe.com/xap/1.0/g/img/"
            xmlns:xmpTPg="http://ns.adobe.com/xap/1.0/t/pg/"
            xmlns:stDim="http://ns.adobe.com/xap/1.0/sType/Dimensions#"
            xmlns:stFnt="http://ns.adobe.com/xap/1.0/sType/Font#"
            xmlns:xmpG="http://ns.adobe.com/xap/1.0/g/"
            xmlns:dc="http://purl.org/dc/elements/1.1/"
            xmlns:xmpMM="http://ns.adobe.com/xap/1.0/mm/"
            xmlns:stRef="http://ns.adobe.com/xap/1.0/sType/ResourceRef#"
            xmlns:stEvt="http://ns.adobe.com/xap/1.0/sType/ResourceEvent#"
            xmlns:pdf="http://ns.adobe.com/pdf/1.3/">
         <xmp:CreatorTool>Adobe Illustrator CC (Windows)</xmp:CreatorTool>
         <xmp:CreateDate>2020-10-05T01:18:13+03:00</xmp:CreateDate>
         <xmp:MetadataDate>2020-10-05T01:18:13+03:00</xmp:MetadataDate>
         <xmp:ModifyDate>2020-10-05T01:18:13+03:00</xmp:ModifyDate>
         <xmp:Thumbnails>
            <rdf:Alt>
               <rdf:li rdf:parseType="Resource">
                  <xmpGImg:width>132</xmpGImg:width>
                  <xmpGImg:height>256</xmpGImg:height>
                  <xmpGImg:format>JPEG</xmpGImg:format>
                  <xmpGImg:image>/9j/4AAQSkZJRgABAgEABwAHAAD/7QAsUGhvdG9zaG9wIDMuMAA4QklNA+0AAAAAABAABwAAAAEA&#xA;AQAHAAAAAQAB/+4ADkFkb2JlAGTAAAAAAf/bAIQABgQEBAUEBgUFBgkGBQYJCwgGBggLDAoKCwoK&#xA;DBAMDAwMDAwQDA4PEA8ODBMTFBQTExwbGxscHx8fHx8fHx8fHwEHBwcNDA0YEBAYGhURFRofHx8f&#xA;Hx8fHx8fHx8fHx8fHx8fHx8fHx8fHx8fHx8fHx8fHx8fHx8fHx8fHx8fHx8f/8AAEQgBAACEAwER&#xA;AAIRAQMRAf/EAaIAAAAHAQEBAQEAAAAAAAAAAAQFAwIGAQAHCAkKCwEAAgIDAQEBAQEAAAAAAAAA&#xA;AQACAwQFBgcICQoLEAACAQMDAgQCBgcDBAIGAnMBAgMRBAAFIRIxQVEGE2EicYEUMpGhBxWxQiPB&#xA;UtHhMxZi8CRygvElQzRTkqKyY3PCNUQnk6OzNhdUZHTD0uIIJoMJChgZhJRFRqS0VtNVKBry4/PE&#xA;1OT0ZXWFlaW1xdXl9WZ2hpamtsbW5vY3R1dnd4eXp7fH1+f3OEhYaHiImKi4yNjo+Ck5SVlpeYmZ&#xA;qbnJ2en5KjpKWmp6ipqqusra6voRAAICAQIDBQUEBQYECAMDbQEAAhEDBCESMUEFURNhIgZxgZEy&#xA;obHwFMHR4SNCFVJicvEzJDRDghaSUyWiY7LCB3PSNeJEgxdUkwgJChgZJjZFGidkdFU38qOzwygp&#xA;0+PzhJSktMTU5PRldYWVpbXF1eX1RlZmdoaWprbG1ub2R1dnd4eXp7fH1+f3OEhYaHiImKi4yNjo&#xA;+DlJWWl5iZmpucnZ6fkqOkpaanqKmqq6ytrq+v/aAAwDAQACEQMRAD8A9SRRRGJCUUkqCSQPDFVX&#xA;FVG4VaBqDkTuab4qoYq7FXYq7FXYq7FXYq7FXYq7FXYq7FV0aqzgMAR4HfFVTgn1nhxHDhXjTata&#xA;VpiqpB/cx/6o/Viq/FVK5+yPniqHxV2KuxV2KuxV2KuxV2KuxV2KuxV2Kr4f7xcVVP8Aj8/55/8A&#xA;G2Kr4P7mP/VH6sVX4qpXP2R88VQ+KuxV2KuxV2KpXqvmLTtLuIobwsglUv6vw8QBt0rzP+xU++Ko&#xA;WLzx5allSKO6LPIwVP3b0asgjqppQjke2Kp9irsVdirsVdiq+H+8XFVT/j8/55/8bYqvg/uY/wDV&#xA;H6sVX4qpXP2R88VQ+KuxV2KuxV2KrWRHFHUMOlCK7HFWlghVQqxqqr9kAAAU32xVfirsVdirsVdi&#xA;q+H+8XFVT/j8/wCef/G2Kr4P7mP/AFR+rFV+KqVz9kfPFUPirsVdirsVdirsVdirsVdirsVdirsV&#xA;Xw/3i4qqf8fn/PP/AI2xVfB/cx/6o/Viq/FVroHFDiqz6svicVd9WXxOKu+rL4nFXfVl8Tirvqy+&#xA;JxV31ZfE4q76svicVd9WXxOKu+rL4nFXfVl8Tirvqy+JxV31ZfE4q2kCqwNSaYqt/wCPz/nn/wAb&#xA;Yqvg/uY/9UfqxVfiqx93VKkAgk0NDtTw+eKu9FPFv+Cb+uKu9FPFv+Cb+uKu9FPFv+Cb+uKu9FPF&#xA;v+Cb+uKu9FPFv+Cb+uKu9FPFv+Cb+uKu9FPFv+Cb+uKu9FPFv+Cb+uKu9FPFv+Cb+uKu9FPFv+Cb&#xA;+uKu9FPFv+Cb+uKu9FPFv+Cb+uKtMoSjKTWoFCxIoTTuffFVv/H5/wA8/wDjbFV8H9zH/qj9WKr8&#xA;VWH++X/Vb9a4qvxV2KuxV2KuxVj+p+armw1aSzbSbq4tkiSRbq3VpOTOwHAJxA2qT9rtiqFTz9E8&#xA;jImj6i5RasRDsDxLEHeo3BXp1xVOtF1OfULeaWa0ezaOeSJY5AQWVD8LioXZhiqYYq7FXYq7FVk3&#xA;2B/rL/xIYqs/4/P+ef8Axtiq+D+5j/1R+rFV+KrD/fL/AKrfrXFV+KuxV2KuxV2KuxVLNIuNXlln&#xA;F9F6aKR6e1PHYeIxVM8VdirsVdirsVWTfYH+sv8AxIYqs/4/P+ef/G2Kr4P7mP8A1R+rFV+KrXUk&#xA;gqaMO5Fdj92KtUm/mX/gT/zVirqTfzL/AMCf+asVdSb+Zf8AgT/zVirqTfzL/wACf+asVdSb+Zf+&#xA;BP8AzVirqTfzL/wJ/wCasVdSb+Zf+BP/ADVirqTfzL/wJ/5qxV1Jv5l/4E/81Yq6k38y/wDAn/mr&#xA;FXUm/mX/AIE/81Yq6k38y/8AAn/mrFXcHJHNgVBrQCnTp3OKrP8Aj8/55/8AG2Kr4P7mP/VH6sVX&#xA;4q7FXYq7FXYq7FXYq7FXYq7FXYq7FXYq7FXYqo/8fn/PP/jbFV8H9zH/AKo/Viq/FXYq7FXYq7FV&#xA;ryRxjlIwQE0qxAFfpxVdirG7e+88trUdvNY2qaZyb1bqrV4K7L8Pxk8nADD4e9DirIpJI415SMEU&#xA;dWYgD8cVXAgio3B6HFXYq7FXYq7FXYqo/wDH5/zz/wCNsVdDND6Mf7xfsjuPDFV/rw/78X7xirvX&#xA;h/34v3jFXevD/vxfvGKrlkRvssGp1oa4qsnuIIIzJM4jQbcmNBviqUeYDpdxDCLm6W3QEtHIWUKw&#xA;K1NORFdhXFUwjvbGGCFWmVFICRlyKtQDFURNNFDGZJXCRr1ZjQYqletnTru0iSW5ESO6mGXkvFmI&#xA;ICipFSd8VRVvdWNrZQq0wWJQqI7kfFtsa4qjaile3jiqz14f9+L94xV3rw/78X7xirvXh/34v3jF&#xA;XevD/vxfvGKqPrRfW681p6dK1H82Kqlp/vJD/wAY1/UMVVcVWzFhE5QhX4niW6VptXFUmsn1ldPu&#xA;VnlX60f95ySpI8dxt8sVRWlG9+qxC9YNOHbuCQpU0qRiqI1HToL+AQTlgoYMCpoQRUdwfHFUq1nS&#xA;9JFrBDeSFLZPhjXk9SeJU1CDfriqJfQbG5gt1cnhEP3fptsUIFBU1qNsVRt9YwXtsbeaoQkGqmhB&#xA;Hh1xVKtW0jSk02O2unK2SGgBZgWY1O/Ab9a4qr/oOxurG3jLH0YwDC0Z/Z4gDdge2KpkyKkKoooi&#xA;lFA9qgUxVLIX1MaxK0sq/UN+AqKewA61xVvSTqv1y4+uSBoTX0gCD3/ZpuBTxxVNsVdiqE/6W3/P&#xA;D/jfFVa0/wB5If8AjGv6hiqriqydeULCoUUqSegpvirHZ7U3sqXttqQjtrZ0a4QGQAiMsSCKqPiD&#xA;U6GuKpvYvDKsc0MiyRs1AVr2VutaYqjsVQGsRaXJDH+kGCoG/dmpBqevTFUbGEEaiOnpgAJTpSm1&#xA;MVXYqgtXj06S1AvyFhDDi1SDy36UxVE2ywrbxrBT0Qo9Om44023xVub7A/1l/wCJDFUnu4Yrz1tO&#xA;iuxFckblC6utCCaFeO/0/PFUVYy28twyRTI7w/bUVr4dxviqY4q7FUJ/0tv+eH/G+Kq1p/vJD/xj&#xA;X9QxVVxVbKIzE4kp6fE869ONN8VSeyTQP0ddCBibU/70FuVR4dd/liqJ0oaeLSH6gSYPUapNa8uJ&#xA;rWuKoq8vbazh9a4bilQo2JJJ7bYqlOu3mjy28Ml2WMB+KKVA5/Z5GvFWpsO+Kowavp9vBB6jekkg&#xA;AiFG+yAKE7VHXviqLu7uC1gM87cYxTfr16UpiqU65qGjSack92zfUyQyzKHJB3G/FWp4bjFUTDq+&#xA;mW+n28nLhbuqiA0YkqVBBpSvTxxVHuytErKaqxQgjuCwxVLrddF/TUpib/T9+S/FSv7VO1cVdpK6&#xA;KLy4Ni1Zv92DegFf2a9q4qmuKuxVCf8AS2/54f8AG+KqF9qE+n6F9cgtmvJYo4+NslQzVKr1Cudg&#xA;a9MVSl/PaLdPbDR9Rd42CuVh23JFev2ag0PtirITKXsxI8RQug5xPQkcuqmnzxVJvUsLOSPTltSU&#xA;v+dSAWUemvL42LVH+TiqYafFDAiQwoERXJoKmpKnrUnFUVd2dtdw+lcJzjrWlSKEd6jFUq1qHR7a&#xA;KD61EHjFUhj4B6Djxb7RG3E0OKo1tNsLuGJ5k9YD442NRswB7HFUTc2sF1CYZ05xt1XcdPliqVaz&#xA;a6PbWUS3MIe2RuMcPEP8RB3+IjsTXFUTFpmm3VjADGHgorQjdOIpsNj4YqjZFCxqqigDIAB4Bhiq&#xA;T3dxYac0uqyRBXFA7jkTVyF2FaVJOKoqwt7WC5d4oVR5vtsK/PapNMVQ+u+Y5tJuYYxptxewSIzv&#xA;LbKXKFei8QKGv+sMVU9N81/pC4gih027WOcV+sOirEoq4qWr/wAV9vHFUz/6W3/PD/jfFVa0/wB5&#xA;If8AjGv6hiqQ6ZY+d11SBtQ1GB9OiRvWSONecr1IWvwLx+Gh2PXtirIJq+k/FebBSVU9yOgxVJ7K&#xA;fUpLC5mmswLiP+5Tiy8vH4SammKorSpLmW1hkuYfRlLkUoVqApoaHFUxxVAaxc6ZDDH9fQSKzfAv&#xA;HkajviqNjZGjVo/sEApTYUI2xVdiqC1efT4bUG+TnEWAVKciW36YqibZ4Xt43gp6LKDGAKDjTbbF&#xA;W5vsD/WX/iQxVK4ZL2TV5baW0AsgDxk4mm3Q8uhr4Yq3pM9/LeXC3NsIY4/7t+JHelKn7W3cYqid&#xA;Zh1WaxZNLuFtbssvGV1DqFJo+xB3Cmo98VQvlq28xwWT/p67jurt2qvpIqqijalVVOVevTFUZ/0t&#xA;v+eH/G+Kq1p/vJD/AMY1/UMVVcVWyFxGxQcnAJVelTTYYqlNle61Jp9zJNb0uI/7hSpXl47HrTFU&#xA;Tpk97PawveR+nN6jChBUkcTQkHpiqrqWow6fbieUMwLBAq9akE9/liqT67rWmpZwT3Nu08EgMkag&#xA;LzHFC7bFl7L2xVGSa9bWsFuZo3USj4UCgFVAHUV7V6Yqjr+/hsrU3EoLKCAAvUk/PFUn1nXNN/RS&#xA;XlzCZbRyCENOYYVG1WX+U9D+GKoj9PWttYW0zRMI5lX0o0AqF4g7702r2OKpozq8KOv2WKEfIsDi&#xA;qAgu9VbWJIJIONkAeMnE02Gx5dDXwxV2l3eqzXdwl3B6UKf3bcSO/QH9rbFUzxV2KoT/AKW3/PD/&#xA;AI3xVWtP95If+Ma/qGKquKrJ1ZomC9T/AFxVJpodSe8tZLd1FknqfXF2Jb4RwoaHoeu4xVMLYGqN&#xA;1UtsQag/C2KomaGGZDHKiyIeqsAR+OKpXrdzbWEcUhgMlTxRVoqqAPkabYqjo7a1mhid4g42kT1A&#xA;CVJAOKq8sUUqGOVA6N1VhUH78VS3WZrWwtEk9DmoIjSNaKo2J8DTFURbQWlzZxO8IZHCyKkgDUqP&#xA;liqJl+wP9Zf+JDFUn1ODUpLWWKwcR3vwlWahoOQLVBDdVr2xVG2yt6237P26Hp88VR2KuxVCf9Lb&#xA;/nh/xviq+1kUW0IIaoRQfhbw+WKqvrJ4N/wLf0xVbIySRsh5gOCpIVqiopttiqWWmiwW9jcWvqyM&#xA;Ljq4RhSnTbf6cVROmWC2dvHAjNJxcuzspXqCNgcVR+KoDWNTgsIo2liMokagXagpvXfFUbFIskaS&#xA;L9lwGFetCK4quxVBavqENjaiSWMyq7BQm1K9d6/LFUTbTpPbxzICFkUMoPUAiuKrpASuwqQQafIg&#xA;4qlkGlwxarJqAkkJetI+DbFuu9OmKt6bpcNjdTzrJI5m6KUbYE13NNziqY+sng3/AALf0xV3rJ4N&#xA;/wAC39MVQ3IfpLnRuPo8a8W6869KYqiYP7mP/VH6sVX4q7FXYq7FUFq+onT7T1xF6pLBaVoBWu5O&#xA;/hiqV6trM6WcE6WRuTKvIW9CSCELdkfuKdsVRN9rclksIMJm9ViKg06U2Gx33xVG6nfGysmuRGZC&#xA;tBx6dTTc74qleo61L+jIboWvqiWlbchmpufi+FJDTavTp77Yqvl16a20+2ne3q0wUmOtAlVB41p9&#xA;HTFU7jfnGr0K8gDxPUV7HFW8VdirsVdiqj/x+f8APP8A42xVq3eZreJgi0KKftHw/wBXFVSs38q/&#xA;8Ef+acVdWb+Vf+CP/NOKurN/Kv8AwR/5pxV3NwyhlADGgINd6V8B4YqvIBFCKjwxVK9cuZ7WOOSC&#xA;39Zmajn4iAPkpHXFUwt1HooSnAkBih3oSN+uKqhAIoemKpdrc81taiaCD1pOQU9SAu+5CkHFUVZ/&#xA;FaxO0fpu6qzoa7MRXviqs7cVr16AD3Jpiq2s38q/8Ef+acVa9Vx2T/g/7MVbDyncKhHsx/5pxV1Z&#xA;v5V/4I/804qh/Ul+v8OC8vSr9o0pyp4YqrWn+8kP/GNf1DFVXFXYq7FVkn24/wDW/wCNTiq/FXYq&#xA;7FXYq7FXYqsm+wP9Zf8AiQxVL77SJrnU7e7W4KJDSqb9jU0+ffFUPcQtdTILW9SP6rKJLlRvyQAg&#xA;o24oN+uKphp0sMsTNFIsi1oSprQ4qi8VQn/S2/54f8b4qrWn+8kP/GNf1DFVXFXYq7FVkn24/wDW&#xA;/wCNTiq/FXYq7FXYq7FXYqsm+wP9Zf8AiQxVfUYqltvpGmW73BUn/SAUkVmFArdQMVV9M060sYWS&#xA;3JYM1WZiCa/RTFUXiqE/6W3/ADw/43xVWtP95If+Ma/qGKquKuxV2KrJPtx/63/GpxVfirsVdirs&#xA;VdirsVWTfYH+sv8AxIYql97o7XOpQXgnKCHjVKfymuxrtXFUNcRreShba8RDayiS4oWFUWvJTQqK&#xA;HvWoxVMdNngmiZ4ZFkWtCVrsfpxVF4qhP+lt/wA8P+N8VVrT/eSH/jGv6hiqrirGYPzE8tSSiGSS&#xA;SCZpmt0SRKkshAJ+AvQfFtXFWTYqsk2KE7ANufD4SMVX4q7FXYq7FXYq7FVk32B/rL/xIYqvxVA2&#xA;+i2EDzsiH/SAVkUnbi3UDFVTT9NtrCJo4AaMeTFjUk4qisVQn/S2/wCeH/G+Kq1p/vJD/wAY1/UM&#xA;VVcVU2tbZmVmhQsjc0JUEhvEeBxVUxV2KrPQh/32v3DFXehD/vtfuGKrZIo1AKooPJdwAP2hiqri&#xA;rsVdiqyb7A/1l/4kMVS++GtfpK3NqR9T29X7Pj8Va79PDFVO+TV2kg+rO6KJgbj3iANQAVbrt0Ix&#xA;VMbX1eJ9SvXbl/biqtiqE/6W3/PD/jfFVa0/3kh/4xr+oYqq4q7FXYq7FXYq7FVk32B/rL/xIYqv&#xA;xV2KuxVZN9gf6y/8SGKr8VSmy0Se3lvHN0W+sqyqRWoLftHfqMVVtF0yXT7d4pJfV5NyFKgD78VT&#xA;DFUJ/wBLb/nh/wAb4qvtZFFtCCGqEUH4W8Pliqr6yeDf8C39MVd6yeDf8C39MVd6yeDf8C39MVd6&#xA;yeDf8C39MVd6yeDf8C39MVd6yeDf8C39MVadw4CqGryU7qRsCD3GKqmKuxV2KrJvsD/WX/iQxVLN&#xA;Qn1RNWtY4HRbZ6clJQE7/Fsfi6eGKr7i8uEvUhVWMb8+UgJovGlBSnevjiqne3GqrqlpHA6C3cKX&#xA;UlATv8Wx+Lp4Yqm+KoT/AKW3/PD/AI3xVEQf3Mf+qP1YqvxV2KuxV2KuxV2KuxV2KuxV2KrJvsD/&#xA;AFl/4kMVQV3osF1fw3juwaLj8A6HiajFUvGvWMsVzP6Mg9Ej4aj4uRoPliqIjsLXVZLXVQXj4gUj&#xA;2/3Wxpv88VTjFUJ/0tv+eH/G+Kq0UsQiQF1BCgEEjwxVd68P+/F+8Yq714f9+L94xV3rw/78X7xi&#xA;rvXh/wB+L94xV3rw/wC/F+8Yq714f9+L94xV3rw/78X7xirhNCTQOtfmMVX4q0zov2mC/M0xVSlm&#xA;h4f3i7MpO46Bhirf1u0/39H/AMEP64qpiTTQrKGhCvu4qtG+fjiq9bmyVQqyxqo2ADKAMVb+t2n+&#xA;/o/+CH9cVQ/rRfpD1ua+j6PD1Kjjy5V416Vpir//2Q==</xmpGImg:image>
               </rdf:li>
            </rdf:Alt>
         </xmp:Thumbnails>
         <xmpTPg:NPages>1</xmpTPg:NPages>
         <xmpTPg:HasVisibleTransparency>False</xmpTPg:HasVisibleTransparency>
         <xmpTPg:HasVisibleOverprint>False</xmpTPg:HasVisibleOverprint>
         <xmpTPg:MaxPageSize rdf:parseType="Resource">
            <stDim:w>10240.000400</stDim:w>
            <stDim:h>7680.000100</stDim:h>
            <stDim:unit>Points</stDim:unit>
         </xmpTPg:MaxPageSize>
         <xmpTPg:Fonts>
            <rdf:Bag>
               <rdf:li rdf:parseType="Resource">
                  <stFnt:fontName>DINPro</stFnt:fontName>
                  <stFnt:fontFamily>DIN Pro</stFnt:fontFamily>
                  <stFnt:fontFace>Regular</stFnt:fontFace>
                  <stFnt:fontType>TrueType</stFnt:fontType>
                  <stFnt:versionString>Version 7.504; 2005; Build 1021</stFnt:versionString>
                  <stFnt:composite>False</stFnt:composite>
                  <stFnt:fontFileName/>
               </rdf:li>
               <rdf:li rdf:parseType="Resource">
                  <stFnt:fontName>DINPro-Bold</stFnt:fontName>
                  <stFnt:fontFamily>DIN Pro</stFnt:fontFamily>
                  <stFnt:fontFace>Bold</stFnt:fontFace>
                  <stFnt:fontType>TrueType</stFnt:fontType>
                  <stFnt:versionString>Version 7.504; 2005; Build 1020</stFnt:versionString>
                  <stFnt:composite>False</stFnt:composite>
                  <stFnt:fontFileName/>
               </rdf:li>
            </rdf:Bag>
         </xmpTPg:Fonts>
         <xmpTPg:PlateNames>
            <rdf:Seq>
               <rdf:li>Cyan</rdf:li>
               <rdf:li>Magenta</rdf:li>
               <rdf:li>Yellow</rdf:li>
               <rdf:li>Black</rdf:li>
            </rdf:Seq>
         </xmpTPg:PlateNames>
         <xmpTPg:SwatchGroups>
            <rdf:Seq>
               <rdf:li rdf:parseType="Resource">
                  <xmpG:groupName>Default Swatch Group</xmpG:groupName>
                  <xmpG:groupType>0</xmpG:groupType>
               </rdf:li>
            </rdf:Seq>
         </xmpTPg:SwatchGroups>
         <dc:format>image/svg+xml</dc:format>
         <dc:title>
            <rdf:Alt>
               <rdf:li xml:lang="x-default">Glastonberry bz</rdf:li>
            </rdf:Alt>
         </dc:title>
         <xmpMM:DocumentID>xmp.did:70229854-a713-c94f-bb67-045905eadd86</xmpMM:DocumentID>
         <xmpMM:InstanceID>xmp.iid:70229854-a713-c94f-bb67-045905eadd86</xmpMM:InstanceID>
         <xmpMM:OriginalDocumentID>xmp.did:82aacf58-607c-a645-8469-3b9abc83840d</xmpMM:OriginalDocumentID>
         <xmpMM:RenditionClass>proof:pdf</xmpMM:RenditionClass>
         <xmpMM:DerivedFrom rdf:parseType="Resource">
            <stRef:instanceID>xmp.iid:a68e6987-892b-0044-ab97-c6c8a45a3970</stRef:instanceID>
            <stRef:documentID>xmp.did:a68e6987-892b-0044-ab97-c6c8a45a3970</stRef:documentID>
            <stRef:originalDocumentID>xmp.did:82aacf58-607c-a645-8469-3b9abc83840d</stRef:originalDocumentID>
            <stRef:renditionClass>proof:pdf</stRef:renditionClass>
         </xmpMM:DerivedFrom>
         <xmpMM:History>
            <rdf:Seq>
               <rdf:li rdf:parseType="Resource">
                  <stEvt:action>saved</stEvt:action>
                  <stEvt:instanceID>xmp.iid:82aacf58-607c-a645-8469-3b9abc83840d</stEvt:instanceID>
                  <stEvt:when>2018-10-21T17:28:59+03:00</stEvt:when>
                  <stEvt:softwareAgent>Adobe Illustrator CC (Windows)</stEvt:softwareAgent>
                  <stEvt:changed>/</stEvt:changed>
               </rdf:li>
               <rdf:li rdf:parseType="Resource">
                  <stEvt:action>saved</stEvt:action>
                  <stEvt:instanceID>xmp.iid:70229854-a713-c94f-bb67-045905eadd86</stEvt:instanceID>
                  <stEvt:when>2020-10-05T01:18:13+03:00</stEvt:when>
                  <stEvt:softwareAgent>Adobe Illustrator CC (Windows)</stEvt:softwareAgent>
                  <stEvt:changed>/</stEvt:changed>
               </rdf:li>
            </rdf:Seq>
         </xmpMM:History>
         <pdf:Producer>Adobe PDF library 10.01</pdf:Producer>
      </rdf:Description>
   </rdf:RDF>
</x:xmpmeta>
                                                                                                    
                                                                                                    
                                                                                                    
                                                                                                    
                                                                                                    
                                                                                                    
                                                                                                    
                                                                                                    
                                                                                                    
                                                                                                    
                                                                                                    
                                                                                                    
                                                                                                    
                                                                                                    
                                                                                                    
                                                                                                    
                                                                                                    
                                                                                                    
                                                                                                    
                                                                                                    
                           
<?xpacket end="w"?>
	</metadata>
<g>
	<g>
		<path fill="none" stroke="#B5B5B5" stroke-width="5" stroke-miterlimit="10" d="M5244.814,6858.678H3691.47c-27.5,0-50-22.5-50-50
			V1146.283c0-27.5,22.5-50,50-50h136.554"/>
		<path fill="none" stroke="#B5B5B5" stroke-width="5" stroke-miterlimit="10" d="M4047.842,1096.283H6548.53c27.5,0,50,22.5,50,50
			v5662.395l0,0c0,27.5-22.5,50-50,50H5542.69"/>
	</g>
	<g>
		<path fill="#F5F5F5" d="M4107.149,1146.283c0-27.5,22.5-50,50-50h2274.185c27.5,0,50,22.5,50,50v871.016c0,27.5-22.5,50-50,50
			H4157.149c-27.5,0-50-22.5-50-50V1146.283z"/>
		<g>
			<g>
				<g>
					<text transform="matrix(1 0 0 1 5162.2031 1635.2761)" fill="#8A8A8A" font-family="'DINPro-Bold'" font-size="92.9056">Сцена</text>
				</g>
			</g>
		</g>
	</g>
	<g>
		<g>
			<g>
				<text transform="matrix(1 0 0 1 5138.2031 2502.5525)" fill="#8A8A8A" font-family="'DINPro-Bold'" font-size="92.9056">Входной</text>
			</g>
		</g>
		<circle fill="#C7C7C7" cx="5311.151" cy="2638.908" r="47.99"/>
		<path fill="none" stroke="#B5B5B5" stroke-width="5" stroke-miterlimit="10" d="M4111.737,2258.552c0-27.5,22.5-50,50-50h2267.78
			c27.5,0,50,22.5,50,50v488c0,27.5-22.5,50-50,50h-2267.78c-27.5,0-50-22.5-50-50V2258.552z"/>
	</g>
	<g>
		<path fill="none" stroke="#B5B5B5" stroke-width="5" stroke-miterlimit="10" d="M4538.737,5960.678c-27.5,0-50-22.5-50-50v-704
			c0-27.5-22.5-50-50-50H3641.47v1304h797.267c27.5,0,72.5,0,100,0h466.966c27.5,0,50-22.5,50-50v-400c0-27.5-22.5-50-50-50
			H4538.737z"/>
		<g>
			<g>
				<g>
					<text transform="matrix(1 0 0 1 4009.5332 5951.8799)" fill="#8A8A8A" font-family="'DINPro-Bold'" font-size="92.9056">Бар</text>
				</g>
			</g>
		</g>
	</g>
	<g>
		<path fill="none" stroke="#B5B5B5" stroke-width="5" stroke-miterlimit="10" d="M5772.577,5206.678c0-27.5,22.5-50,50-50h775.953
			v1652c0,27.5-22.5,50-50,50h-725.953c-27.5,0-50-22.5-50-50V5206.678z"/>
		<g>
			<circle fill="#C7C7C7" cx="5913.32" cy="6412.688" r="47.99"/>
			<circle fill="#C7C7C7" cx="5913.32" cy="6531.182" r="47.99"/>
			<circle fill="#C7C7C7" cx="6273.32" cy="6412.688" r="47.99"/>
			<circle fill="#C7C7C7" cx="6273.32" cy="6531.182" r="47.99"/>
			<circle fill="#C7C7C7" cx="6031.587" cy="6648.059" r="47.99"/>
			<circle fill="#C7C7C7" cx="6158.487" cy="6648.059" r="47.99"/>
			<path fill="#F0F0F0" d="M6008.254,6374.13c0-13.75,11.25-25,25-25h113.492c13.75,0,25,11.25,25,25v162.989
				c0,13.75-11.25,25-25,25h-113.492c-13.75,0-25-11.25-25-25V6374.13z"/>
			<g>
				<g>
					<g>
						<text transform="matrix(1 0 0 1 6064.4399 6487.9336)" fill="#8A8A8A" font-family="'DINPro'" font-size="92.9056">1</text>
					</g>
				</g>
			</g>
		</g>
		<g>
			<circle fill="#C7C7C7" cx="5913.32" cy="6048.378" r="47.99"/>
			<circle fill="#C7C7C7" cx="6040.587" cy="6192.081" r="47.99"/>
			<circle fill="#C7C7C7" cx="6190.579" cy="6192.081" r="47.99"/>
			<path fill="#F0F0F0" d="M5992.597,6007.678c0-13.75,11.25-25,25-25h195.972c13.75,0,25,11.25,25,25v81.399
				c0,13.75-11.25,25-25,25h-195.972c-13.75,0-25-11.25-25-25V6007.678z"/>
			<g>
				<g>
					<g>
						<text transform="matrix(1 0 0 1 6090.0234 6081.5361)" fill="#8A8A8A" font-family="'DINPro'" font-size="92.9056">2</text>
					</g>
				</g>
			</g>
		</g>
		<g>
			<circle fill="#C7C7C7" cx="5913.32" cy="5646.868" r="47.99"/>
			<circle fill="#C7C7C7" cx="6040.587" cy="5790.572" r="47.99"/>
			<circle fill="#C7C7C7" cx="6190.579" cy="5790.572" r="47.99"/>
			<path fill="#F0F0F0" d="M5992.597,5606.168c0-13.75,11.25-25,25-25h195.972c13.75,0,25,11.25,25,25v81.399
				c0,13.75-11.25,25-25,25h-195.972c-13.75,0-25-11.25-25-25V5606.168z"/>
			<g>
				<g>
					<g>
						<text transform="matrix(1 0 0 1 6090.0234 5678.5361)" fill="#8A8A8A" font-family="'DINPro'" font-size="92.9056">3</text>
					</g>
				</g>
			</g>
		</g>
		<g>
			<circle fill="#C7C7C7" cx="5913.32" cy="5291.386" r="47.99"/>
			<circle fill="#C7C7C7" cx="6040.587" cy="5435.089" r="47.99"/>
			<circle fill="#C7C7C7" cx="6190.579" cy="5435.089" r="47.99"/>
			<path fill="#F0F0F0" d="M5992.597,5250.686c0-13.75,11.25-25,25-25h195.972c13.75,0,25,11.25,25,25v81.399
				c0,13.75-11.25,25-25,25h-195.972c-13.75,0-25-11.25-25-25V5250.686z"/>
			<g>
				<g>
					<g>
						<text transform="matrix(1 0 0 1 6090.0234 5323.7329)" fill="#8A8A8A" font-family="'DINPro'" font-size="92.9056">4</text>
					</g>
				</g>
			</g>
		</g>
	</g>
	<g>
		<path fill="none" stroke="#B5B5B5" stroke-width="5" stroke-miterlimit="10" d="M5772.577,3481.273c0-27.5,22.5-50,50-50h775.953
			v1405.405h-775.953c-27.5,0-50-22.5-50-50V3481.273z"/>
		<g>
			<g>
				<text transform="matrix(1 0 0 1 6238.5693 4133.9761)" fill="#8A8A8A" font-family="'DINPro-Bold'" font-size="92.9056">Super</text>
				<text transform="matrix(1 0 0 1 6284.4263 4267.2476)" fill="#8A8A8A" font-family="'DINPro-Bold'" font-size="92.9056">VIP</text>
			</g>
		</g>
		<g>
			<circle fill="#C7C7C7" cx="5881.033" cy="4735.595" r="47.99"/>
			<circle fill="#C7C7C7" cx="6040.033" cy="4735.595" r="47.99"/>
			<circle fill="#C7C7C7" cx="5881.033" cy="4445.595" r="47.99"/>
			<circle fill="#C7C7C7" cx="6040.033" cy="4445.595" r="47.99"/>
			<path fill="#F0F0F0" d="M5803.311,4545.678c0-13.75,11.25-25,25-25h266c13.75,0,25,11.25,25,25v90c0,13.75-11.25,25-25,25h-266
				c-13.75,0-25-11.25-25-25V4545.678z"/>
			<g>
				<g>
					<g>
						<text transform="matrix(1 0 0 1 5935.75 4624.6631)" fill="#8A8A8A" font-family="'DINPro'" font-size="92.9056">5</text>
					</g>
				</g>
			</g>
		</g>
		<g>
			<circle fill="#C7C7C7" cx="5881.033" cy="4267.595" r="47.99"/>
			<circle fill="#C7C7C7" cx="6040.033" cy="4267.595" r="47.99"/>
			<circle fill="#C7C7C7" cx="5881.033" cy="3975.595" r="47.99"/>
			<circle fill="#C7C7C7" cx="6040.033" cy="3975.595" r="47.99"/>
			<path fill="#F0F0F0" d="M5803.311,4075.678c0-13.75,11.25-25,25-25h266c13.75,0,25,11.25,25,25v90c0,13.75-11.25,25-25,25h-266
				c-13.75,0-25-11.25-25-25V4075.678z"/>
			<g>
				<g>
					<g>
						<text transform="matrix(1 0 0 1 5935.75 4152.6162)" fill="#8A8A8A" font-family="'DINPro'" font-size="92.9056">6</text>
					</g>
				</g>
			</g>
		</g>
		<g>
			<circle fill="#C7C7C7" cx="5881.033" cy="3805.595" r="47.99"/>
			<circle fill="#C7C7C7" cx="6040.033" cy="3805.595" r="47.99"/>
			<circle fill="#C7C7C7" cx="5881.033" cy="3520.502" r="47.99"/>
			<circle fill="#C7C7C7" cx="6040.033" cy="3520.502" r="47.99"/>
			<path fill="#F0F0F0" d="M5803.311,3613.678c0-13.75,11.25-25,25-25h266c13.75,0,25,11.25,25,25v90c0,13.75-11.25,25-25,25h-266
				c-13.75,0-25-11.25-25-25V3613.678z"/>
			<g>
				<g>
					<g>
						<text transform="matrix(1 0 0 1 5935.75 3695.9023)" fill="#8A8A8A" font-family="'DINPro'" font-size="92.9056">7</text>
					</g>
				</g>
			</g>
		</g>
	</g>
	<g>
		<path fill="none" stroke="#B5B5B5" stroke-width="5" stroke-miterlimit="10" d="M3641.47,3431.273h797.267c27.5,0,50,22.5,50,50
			v1305.405c0,27.5-22.5,50-50,50H3641.47V3431.273z"/>
		<g>
			<g>
				<text transform="matrix(1 0 0 1 3773.6812 4133.9761)" fill="#8A8A8A" font-family="'DINPro-Bold'" font-size="92.9056">Super</text>
				<text transform="matrix(1 0 0 1 3819.5381 4267.2476)" fill="#8A8A8A" font-family="'DINPro-Bold'" font-size="92.9056">VIP</text>
			</g>
		</g>
		<g>
			<circle fill="#C7C7C7" cx="4214.46" cy="4735.595" r="47.99"/>
			<circle fill="#C7C7C7" cx="4373.46" cy="4735.595" r="47.99"/>
			<circle fill="#C7C7C7" cx="4214.46" cy="4445.595" r="47.99"/>
			<circle fill="#C7C7C7" cx="4373.46" cy="4445.595" r="47.99"/>
			<path fill="#F0F0F0" d="M4136.737,4545.678c0-13.75,11.25-25,25-25h266c13.75,0,25,11.25,25,25v90c0,13.75-11.25,25-25,25h-266
				c-13.75,0-25-11.25-25-25V4545.678L4136.737,4545.678z"/>
			<g>
				<g>
					<g>
						<text transform="matrix(1 0 0 1 4269.1763 4624.6631)" fill="#8A8A8A" font-family="'DINPro'" font-size="92.9056">8</text>
					</g>
				</g>
			</g>
		</g>
		<g>
			<circle fill="#C7C7C7" cx="4214.46" cy="4267.595" r="47.99"/>
			<circle fill="#C7C7C7" cx="4373.46" cy="4267.595" r="47.99"/>
			<circle fill="#C7C7C7" cx="4214.46" cy="3975.595" r="47.99"/>
			<circle fill="#C7C7C7" cx="4373.46" cy="3975.595" r="47.99"/>
			<path fill="#F0F0F0" d="M4136.737,4075.678c0-13.75,11.25-25,25-25h266c13.75,0,25,11.25,25,25v90c0,13.75-11.25,25-25,25h-266
				c-13.75,0-25-11.25-25-25V4075.678L4136.737,4075.678z"/>
			<g>
				<g>
					<g>
						<text transform="matrix(1 0 0 1 4269.1763 4152.6162)" fill="#8A8A8A" font-family="'DINPro'" font-size="92.9056">9</text>
					</g>
				</g>
			</g>
		</g>
		<g>
			<circle fill="#C7C7C7" cx="4214.46" cy="3805.595" r="47.99"/>
			<circle fill="#C7C7C7" cx="4373.46" cy="3805.595" r="47.99"/>
			<circle fill="#C7C7C7" cx="4214.46" cy="3520.502" r="47.99"/>
			<circle fill="#C7C7C7" cx="4373.46" cy="3520.502" r="47.99"/>
			<path fill="#F0F0F0" d="M4136.737,3613.678c0-13.75,11.25-25,25-25h266c13.75,0,25,11.25,25,25v90c0,13.75-11.25,25-25,25h-266
				c-13.75,0-25-11.25-25-25V3613.678L4136.737,3613.678z"/>
			<g>
				<g>
					<g>
						<text transform="matrix(1 0 0 1 4240.4663 3695.9023)" fill="#8A8A8A" font-family="'DINPro'" font-size="92.9056">10</text>
					</g>
				</g>
			</g>
		</g>
	</g>
</g>
<g>
	<circle fill="#C7C7C7" cx="4867.803" cy="5177.696" r="47.99"/>
	<circle fill="#C7C7C7" cx="4867.803" cy="4847.198" r="47.99"/>
	<circle fill="#C7C7C7" cx="5033.052" cy="5012.447" r="47.99"/>
	<circle fill="#C7C7C7" cx="4702.554" cy="5012.447" r="47.99"/>
	<path fill="#F0F0F0" d="M4772.66,4947.281c0-13.75,11.25-25,25-25h140.287c13.75,0,25,11.25,25,25v129.427c0,13.75-11.25,25-25,25
		H4797.66c-13.75,0-25-11.25-25-25V4947.281L4772.66,4947.281z"/>
	<g>
		<g>
			<g>
				<text transform="matrix(1 0 0 1 4819.3076 5047.2646)" fill="#8A8A8A" font-family="'DINPro'" font-size="92.9056">31</text>
			</g>
		</g>
	</g>
</g>
<g>
	<circle fill="#C7C7C7" cx="5420.188" cy="5177.696" r="47.99"/>
	<circle fill="#C7C7C7" cx="5420.188" cy="4847.198" r="47.99"/>
	<circle fill="#C7C7C7" cx="5585.437" cy="5012.447" r="47.99"/>
	<circle fill="#C7C7C7" cx="5254.938" cy="5012.447" r="47.99"/>
	<path fill="#F0F0F0" d="M5325.044,4947.281c0-13.75,11.25-25,25-25h140.287c13.75,0,25,11.25,25,25v129.427c0,13.75-11.25,25-25,25
		h-140.287c-13.75,0-25-11.25-25-25V4947.281L5325.044,4947.281z"/>
	<g>
		<g>
			<g>
				<text transform="matrix(1 0 0 1 5371.6914 5047.2646)" fill="#8A8A8A" font-family="'DINPro'" font-size="92.9056">32</text>
			</g>
		</g>
	</g>
</g>
<g>
	<circle fill="#C7C7C7" cx="4867.803" cy="4658.834" r="47.99"/>
	<circle fill="#C7C7C7" cx="4867.803" cy="4328.337" r="47.99"/>
	<circle fill="#C7C7C7" cx="5033.052" cy="4493.586" r="47.99"/>
	<circle fill="#C7C7C7" cx="4702.554" cy="4493.586" r="47.99"/>
	<path fill="#F0F0F0" d="M4772.66,4428.419c0-13.75,11.25-25,25-25h140.287c13.75,0,25,11.25,25,25v129.427c0,13.75-11.25,25-25,25
		H4797.66c-13.75,0-25-11.25-25-25V4428.419L4772.66,4428.419z"/>
	<g>
		<g>
			<g>
				<text transform="matrix(1 0 0 1 4819.3076 4528.4033)" fill="#8A8A8A" font-family="'DINPro'" font-size="92.9056">29</text>
			</g>
		</g>
	</g>
</g>
<g>
	<circle fill="#C7C7C7" cx="5420.188" cy="4658.834" r="47.99"/>
	<circle fill="#C7C7C7" cx="5420.188" cy="4328.337" r="47.99"/>
	<circle fill="#C7C7C7" cx="5585.437" cy="4493.586" r="47.99"/>
	<circle fill="#C7C7C7" cx="5254.938" cy="4493.586" r="47.99"/>
	<path fill="#F0F0F0" d="M5325.044,4428.419c0-13.75,11.25-25,25-25h140.287c13.75,0,25,11.25,25,25v129.427c0,13.75-11.25,25-25,25
		h-140.287c-13.75,0-25-11.25-25-25V4428.419L5325.044,4428.419z"/>
	<g>
		<g>
			<g>
				<text transform="matrix(1 0 0 1 5371.6914 4528.4033)" fill="#8A8A8A" font-family="'DINPro'" font-size="92.9056">30</text>
			</g>
		</g>
	</g>
</g>
<g>
	<circle fill="#C7C7C7" cx="4867.803" cy="4139.973" r="47.99"/>
	<circle fill="#C7C7C7" cx="4867.803" cy="3809.475" r="47.99"/>
	<circle fill="#C7C7C7" cx="5033.052" cy="3974.724" r="47.99"/>
	<circle fill="#C7C7C7" cx="4702.554" cy="3974.724" r="47.99"/>
	<path fill="#F0F0F0" d="M4772.66,3909.558c0-13.75,11.25-25,25-25h140.287c13.75,0,25,11.25,25,25v129.427c0,13.75-11.25,25-25,25
		H4797.66c-13.75,0-25-11.25-25-25V3909.558L4772.66,3909.558z"/>
	<g>
		<g>
			<g>
				<text transform="matrix(1 0 0 1 4819.3076 4009.542)" fill="#8A8A8A" font-family="'DINPro'" font-size="92.9056">27</text>
			</g>
		</g>
	</g>
</g>
<g>
	<circle fill="#C7C7C7" cx="5420.188" cy="4139.973" r="47.99"/>
	<circle fill="#C7C7C7" cx="5420.188" cy="3809.475" r="47.99"/>
	<circle fill="#C7C7C7" cx="5585.437" cy="3974.724" r="47.99"/>
	<circle fill="#C7C7C7" cx="5254.938" cy="3974.724" r="47.99"/>
	<path fill="#F0F0F0" d="M5325.044,3909.558c0-13.75,11.25-25,25-25h140.287c13.75,0,25,11.25,25,25v129.427c0,13.75-11.25,25-25,25
		h-140.287c-13.75,0-25-11.25-25-25V3909.558L5325.044,3909.558z"/>
	<g>
		<g>
			<g>
				<text transform="matrix(1 0 0 1 5371.6914 4009.542)" fill="#8A8A8A" font-family="'DINPro'" font-size="92.9056">28</text>
			</g>
		</g>
	</g>
</g>
<g>
	<circle fill="#C7C7C7" cx="4867.803" cy="3621.112" r="47.99"/>
	<circle fill="#C7C7C7" cx="4867.803" cy="3290.614" r="47.99"/>
	<circle fill="#C7C7C7" cx="5033.052" cy="3455.863" r="47.99"/>
	<circle fill="#C7C7C7" cx="4702.554" cy="3455.863" r="47.99"/>
	<path fill="#F0F0F0" d="M4772.66,3390.697c0-13.75,11.25-25,25-25h140.287c13.75,0,25,11.25,25,25v129.427c0,13.75-11.25,25-25,25
		H4797.66c-13.75,0-25-11.25-25-25V3390.697L4772.66,3390.697z"/>
	<g>
		<g>
			<g>
				<text transform="matrix(1 0 0 1 4819.3076 3490.6807)" fill="#8A8A8A" font-family="'DINPro'" font-size="92.9056">25</text>
			</g>
		</g>
	</g>
</g>
<g>
	<circle fill="#C7C7C7" cx="5420.188" cy="3621.112" r="47.99"/>
	<circle fill="#C7C7C7" cx="5420.188" cy="3290.614" r="47.99"/>
	<circle fill="#C7C7C7" cx="5585.437" cy="3455.863" r="47.99"/>
	<circle fill="#C7C7C7" cx="5254.938" cy="3455.863" r="47.99"/>
	<path fill="#F0F0F0" d="M5325.044,3390.697c0-13.75,11.25-25,25-25h140.287c13.75,0,25,11.25,25,25v129.427c0,13.75-11.25,25-25,25
		h-140.287c-13.75,0-25-11.25-25-25V3390.697L5325.044,3390.697z"/>
	<g>
		<g>
			<g>
				<text transform="matrix(1 0 0 1 5371.6914 3490.6807)" fill="#8A8A8A" font-family="'DINPro'" font-size="92.9056">26</text>
			</g>
		</g>
	</g>
</g>
<text transform="matrix(1 0 0 1 5094.707 3219.2478)" fill="#8A8A8A" font-family="'DINPro-Bold'" font-size="92.9056">VIP</text>
</svg>
