<?xml version="1.0" encoding="utf-8"?>
<!-- Generator: Adobe Illustrator 24.3.0, SVG Export Plug-In . SVG Version: 6.00 Build 0)  -->
<svg version="1.1" id="Layer_1" xmlns="http://www.w3.org/2000/svg" xmlns:xlink="http://www.w3.org/1999/xlink" x="0px" y="0px"
	 viewBox="0 0 10240 7680" style="enable-background:new 0 0 10240 7680;" xml:space="preserve">
<style type="text/css">
	.st0{fill:#F5F5F5;}
	.st1{fill:#8A8A8A;}
	.st2{font-family:'DINPro-Bold';}
	.st3{font-size:92.9056px;}
	.st4{fill:#DEDEDE;}
	.st5{fill:none;stroke:#B5B5B5;stroke-width:5;stroke-miterlimit:10;}
	.st6{fill:#B5B5B5;}
	.st7{font-family:'DINPro';}
	.st8{font-size:88.8423px;}
</style>
<g id="Layer_3">
</g>
<g id="Layer_2_1_">
	<g>
		<path class="st0" d="M2459,2963.3c0-33,27-60,60-60h400.5c33,0,60,27,60,60v1740.8c0,33-27,60-60,60H2519c-33,0-60-27-60-60
			V2963.3z"/>
		<g>
			<text transform="matrix(1 0 0 1 2589.1455 3833.7012)" class="st1 st2 st3">Сцена</text>
		</g>
		<g>
			<text transform="matrix(1 0 0 1 3348.2705 4955.4771)" class="st1 st2 st3">Friend Zone</text>
		</g>
		<circle class="st4" cx="3797.5" cy="4322.5" r="145.5"/>
		<circle class="st5" cx="3699.4" cy="4074.6" r="56.9"/>
		<circle class="st5" cx="3890.8" cy="4074.6" r="56.9"/>
		<circle class="st5" cx="3699.4" cy="4563.3" r="56.9"/>
		<circle class="st6" cx="3416.1" cy="5177.1" r="56.9"/>
		<circle class="st6" cx="3865.7" cy="5177.1" r="56.9"/>
		<circle class="st6" cx="4315.3" cy="5177.1" r="56.9"/>
		<circle class="st6" cx="4764.9" cy="5177.1" r="56.9"/>
		<circle class="st6" cx="5214.5" cy="5177.1" r="56.9"/>
		<circle class="st6" cx="5664.2" cy="5177.1" r="56.9"/>
		<circle class="st5" cx="3890.8" cy="4563.3" r="56.9"/>
		
			<ellipse transform="matrix(0.9239 -0.3827 0.3827 0.9239 -1341.7328 1878.311)" class="st5" cx="4050.6" cy="4311.8" rx="56.9" ry="56.9"/>
		<g>
			<text transform="matrix(1 0 0 1 3774.3108 4354.3647)" class="st1 st7 st8">1</text>
		</g>
		<circle class="st4" cx="3714.5" cy="3554.5" r="145.5"/>
		<circle class="st5" cx="3616.4" cy="3306.6" r="56.9"/>
		<circle class="st5" cx="3807.8" cy="3306.6" r="56.9"/>
		<circle class="st5" cx="3616.4" cy="3795.4" r="56.9"/>
		<circle class="st5" cx="3807.8" cy="3795.4" r="56.9"/>
		<g>
			<text transform="matrix(1 0 0 1 3691.2671 3586.4097)" class="st1 st7 st8">5</text>
		</g>
		<circle class="st4" cx="3446.3" cy="2742.5" r="145.5"/>
		<circle class="st5" cx="3348.3" cy="2494.6" r="56.9"/>
		<circle class="st5" cx="3539.7" cy="2494.6" r="56.9"/>
		<g>
			<text transform="matrix(1 0 0 1 3423.1543 2774.4097)" class="st1 st7 st8">0</text>
		</g>
		<circle class="st4" cx="4053" cy="2742.5" r="145.5"/>
		<circle class="st5" cx="3954.9" cy="2494.6" r="56.9"/>
		
			<ellipse transform="matrix(0.1602 -0.9871 0.9871 0.1602 1019.7294 6187.7544)" class="st5" cx="4146.3" cy="2494.6" rx="56.9" ry="56.9"/>
		<g>
			<text transform="matrix(1 0 0 1 4029.769 2774.4097)" class="st1 st7 st8">7</text>
		</g>
		<circle class="st4" cx="4691.2" cy="2742.5" r="145.5"/>
		<circle class="st5" cx="4593.1" cy="2494.6" r="56.9"/>
		<circle class="st5" cx="4784.5" cy="2494.6" r="56.9"/>
		<circle class="st5" cx="4593.1" cy="2983.4" r="56.9"/>
		<g>
			<text transform="matrix(1 0 0 1 4668.0029 2774.4097)" class="st1 st7 st8">8</text>
		</g>
		<circle class="st4" cx="5368.2" cy="2742.5" r="145.5"/>
		<circle class="st5" cx="5270.1" cy="2494.6" r="56.9"/>
		<circle class="st5" cx="5461.5" cy="2494.6" r="56.9"/>
		<circle class="st5" cx="5270.1" cy="2983.4" r="56.9"/>
		<g>
			<text transform="matrix(1 0 0 1 5344.9902 2774.4097)" class="st1 st7 st8">9</text>
		</g>
		<circle class="st4" cx="6093.8" cy="2742.5" r="145.5"/>
		<circle class="st5" cx="5995.7" cy="2494.6" r="56.9"/>
		<circle class="st5" cx="6187.1" cy="2494.6" r="56.9"/>
		<circle class="st5" cx="6187.1" cy="2983.4" r="56.9"/>
		<circle class="st5" cx="5995.7" cy="2983.4" r="56.9"/>
		<g>
			<text transform="matrix(1 0 0 1 6047.4258 2774.4097)" class="st1 st7 st8">10</text>
		</g>
		<circle class="st4" cx="6766.2" cy="2742.5" r="145.5"/>
		<circle class="st5" cx="6668.2" cy="2494.6" r="56.9"/>
		<circle class="st5" cx="6859.6" cy="2494.6" r="56.9"/>
		<circle class="st5" cx="6859.6" cy="2983.4" r="56.9"/>
		<circle class="st5" cx="6668.2" cy="2983.4" r="56.9"/>
		<g>
			<text transform="matrix(1 0 0 1 6719.874 2774.4097)" class="st1 st7 st8">11</text>
		</g>
		<circle class="st4" cx="7426.2" cy="2742.5" r="145.5"/>
		<circle class="st5" cx="7328.2" cy="2494.6" r="56.9"/>
		<circle class="st5" cx="7519.6" cy="2494.6" r="56.9"/>
		<g>
			<text transform="matrix(1 0 0 1 7379.874 2774.4097)" class="st1 st7 st8">12</text>
		</g>
		<circle class="st4" cx="4729.9" cy="3554.5" r="145.5"/>
		<circle class="st5" cx="4631.9" cy="3306.6" r="56.9"/>
		<circle class="st5" cx="4823.3" cy="3306.6" r="56.9"/>
		<circle class="st5" cx="4631.9" cy="3795.4" r="56.9"/>
		<circle class="st5" cx="4823.3" cy="3795.4" r="56.9"/>
		<g>
			<text transform="matrix(1 0 0 1 4706.7568 3586.4097)" class="st1 st7 st8">6</text>
		</g>
		<circle class="st4" cx="5185.5" cy="4322.5" r="145.5"/>
		<circle class="st5" cx="5087.4" cy="4074.6" r="56.9"/>
		<circle class="st5" cx="5278.8" cy="4074.6" r="56.9"/>
		<circle class="st5" cx="5087.4" cy="4563.3" r="56.9"/>
		<circle class="st5" cx="5278.8" cy="4563.3" r="56.9"/>
		<circle class="st5" cx="5438.6" cy="4311.8" r="56.9"/>
		<g>
			<text transform="matrix(1 0 0 1 5162.3105 4354.3647)" class="st1 st7 st8">2</text>
		</g>
		<circle class="st4" cx="6189.5" cy="4024.7" r="145.5"/>
		<circle class="st5" cx="6091.4" cy="3776.8" r="56.9"/>
		<circle class="st5" cx="6282.8" cy="3776.8" r="56.9"/>
		<circle class="st5" cx="6091.4" cy="4265.5" r="56.9"/>
		<circle class="st5" cx="6282.8" cy="4265.5" r="56.9"/>
		<circle class="st5" cx="6442.6" cy="4014" r="56.9"/>
		<g>
			<text transform="matrix(1 0 0 1 6166.311 4056.564)" class="st1 st7 st8">3</text>
		</g>
		<circle class="st4" cx="7047" cy="4024.7" r="145.5"/>
		<circle class="st5" cx="6948.9" cy="3776.8" r="56.9"/>
		<circle class="st5" cx="7140.3" cy="3776.8" r="56.9"/>
		<circle class="st5" cx="6948.9" cy="4265.5" r="56.9"/>
		<circle class="st5" cx="7140.3" cy="4265.5" r="56.9"/>
		<circle class="st5" cx="7300.1" cy="4014" r="56.9"/>
		<g>
			<text transform="matrix(1 0 0 1 7023.8281 4056.564)" class="st1 st7 st8">4</text>
		</g>
		<path class="st5" d="M7497.4,3896.3v528c0,33-27,60-60,60h-1652"/>
		<line class="st5" x1="5404.6" y1="4740.3" x2="3300.8" y2="4740.3"/>
		<path class="st5" d="M7781,5402.7c0,33-27,60-60,60H3134.6c-33,0-60-27-60-60V2277.3c0-33,27-60,60-60H7721c33,0,60,27,60,60
			L7781,5402.7L7781,5402.7z"/>
	</g>
</g>
</svg>
