<?xml version="1.0" encoding="utf-8"?>
<!-- Generator: Adobe Illustrator 17.0.0, SVG Export Plug-In . SVG Version: 6.00 Build 0)  -->
<!DOCTYPE svg PUBLIC "-//W3C//DTD SVG 1.1//EN" "http://www.w3.org/Graphics/SVG/1.1/DTD/svg11.dtd">
<svg version="1.1" xmlns="http://www.w3.org/2000/svg" xmlns:xlink="http://www.w3.org/1999/xlink" x="0px" y="0px" width="10240px"
	 height="7680px" viewBox="0 0 10240 7680" enable-background="new 0 0 10240 7680" xml:space="preserve">
<g id="Layer_3">
</g>
<g id="Layer_2">
	<g>
		<path fill="#F5F5F5" d="M2458.951,2963.295c0-33,27-60,60-60h400.451c33,0,60,27,60,60v1740.813c0,33-27,60-60,60h-400.451
			c-33,0-60-27-60-60V2963.295z"/>
		<g>
			<text transform="matrix(1 0 0 1 2589.1455 3833.7012)" fill="#8A8A8A" font-family="'DINPro-Bold'" font-size="92.9056">Сцена</text>
		</g>
		<g>
			<text transform="matrix(1 0 0 1 3348.2705 4955.4766)" fill="#8A8A8A" font-family="'DINPro-Bold'" font-size="92.9056">Friend Zone</text>
		</g>
		<circle fill="none" stroke="#B5B5B5" stroke-width="5" stroke-miterlimit="10" cx="3797.498" cy="4322.473" r="145.524"/>
		<circle fill="#C7C7C7" cx="3699.427" cy="4074.558" r="56.944"/>
		<circle fill="#C7C7C7" cx="3890.823" cy="4074.558" r="56.944"/>
		<circle fill="none" stroke="#B5B5B5" stroke-width="5" stroke-miterlimit="10" cx="3699.427" cy="4563.33" r="56.944"/>
		<circle fill="#C7C7C7" cx="3416.087" cy="5177.059" r="56.944"/>
		<circle fill="#C7C7C7" cx="3865.703" cy="5177.059" r="56.944"/>
		<circle fill="#C7C7C7" cx="4315.319" cy="5177.059" r="56.944"/>
		<circle fill="#C7C7C7" cx="4764.935" cy="5177.059" r="56.944"/>
		<circle fill="#C7C7C7" cx="5214.55" cy="5177.059" r="56.944"/>
		<circle fill="#C7C7C7" cx="5664.167" cy="5177.059" r="56.944"/>
		<circle fill="none" stroke="#B5B5B5" stroke-width="5" stroke-miterlimit="10" cx="3514.359" cy="4563.33" r="56.944"/>
		<circle fill="#C7C7C7" cx="3890.823" cy="4563.33" r="56.944"/>
		<circle fill="none" stroke="#B5B5B5" stroke-width="5" stroke-miterlimit="10" cx="4050.584" cy="4311.826" r="56.944"/>
		<g>
			<text transform="matrix(1 0 0 1 3774.3108 4354.3647)" fill="#8A8A8A" font-family="'DINPro'" font-size="88.8423">1</text>
		</g>
		<circle fill="none" stroke="#B5B5B5" stroke-width="5" stroke-miterlimit="10" cx="3714.454" cy="3554.518" r="145.524"/>
		<circle fill="#C7C7C7" cx="3616.384" cy="3306.603" r="56.944"/>
		<circle fill="#C7C7C7" cx="3807.78" cy="3306.603" r="56.944"/>
		<circle fill="#C7C7C7" cx="3616.384" cy="3795.375" r="56.944"/>
		<circle fill="#C7C7C7" cx="3807.78" cy="3795.375" r="56.944"/>
		<circle fill="none" stroke="#B5B5B5" stroke-width="5" stroke-miterlimit="10" cx="3967.54" cy="3543.871" r="56.944"/>
		<g>
			<text transform="matrix(1 0 0 1 3691.2671 3586.4097)" fill="#8A8A8A" font-family="'DINPro'" font-size="88.8423">5</text>
		</g>
		<circle fill="none" stroke="#B5B5B5" stroke-width="5" stroke-miterlimit="10" cx="3446.342" cy="2742.518" r="145.524"/>
		<circle fill="none" stroke="#B5B5B5" stroke-width="5" stroke-miterlimit="10" cx="3348.271" cy="2494.603" r="56.944"/>
		<circle fill="#C7C7C7" cx="3539.667" cy="2494.603" r="56.944"/>
		<circle fill="#C7C7C7" cx="3539.667" cy="2983.375" r="56.944"/>
		<g>
			<text transform="matrix(1 0 0 1 3423.1543 2774.4097)" fill="#8A8A8A" font-family="'DINPro'" font-size="88.8423">0</text>
		</g>
		<circle fill="none" stroke="#B5B5B5" stroke-width="5" stroke-miterlimit="10" cx="4052.957" cy="2742.518" r="145.524"/>
		<circle fill="none" stroke="#B5B5B5" stroke-width="5" stroke-miterlimit="10" cx="3954.886" cy="2494.603" r="56.944"/>
		<circle fill="#C7C7C7" cx="4146.282" cy="2494.603" r="56.944"/>
		<circle fill="#C7C7C7" cx="4146.282" cy="2983.375" r="56.944"/>
		<circle fill="none" stroke="#B5B5B5" stroke-width="5" stroke-miterlimit="10" cx="3954.886" cy="2983.375" r="56.944"/>
		<g>
			<text transform="matrix(1 0 0 1 4029.769 2774.4097)" fill="#8A8A8A" font-family="'DINPro'" font-size="88.8423">7</text>
		</g>
		<circle fill="none" stroke="#B5B5B5" stroke-width="5" stroke-miterlimit="10" cx="4691.19" cy="2742.518" r="145.524"/>
		<circle fill="none" stroke="#B5B5B5" stroke-width="5" stroke-miterlimit="10" cx="4593.12" cy="2494.603" r="56.944"/>
		<circle fill="#C7C7C7" cx="4784.516" cy="2494.603" r="56.944"/>
		<circle fill="#C7C7C7" cx="4784.516" cy="2983.375" r="56.944"/>
		<circle fill="none" stroke="#B5B5B5" stroke-width="5" stroke-miterlimit="10" cx="4593.12" cy="2983.375" r="56.944"/>
		<g>
			<text transform="matrix(1 0 0 1 4668.0029 2774.4097)" fill="#8A8A8A" font-family="'DINPro'" font-size="88.8423">8</text>
		</g>
		<circle fill="none" stroke="#B5B5B5" stroke-width="5" stroke-miterlimit="10" cx="5368.178" cy="2742.518" r="145.524"/>
		<circle fill="#C7C7C7" cx="5270.107" cy="2494.603" r="56.944"/>
		<circle fill="#C7C7C7" cx="5461.503" cy="2494.603" r="56.944"/>
		<circle fill="#C7C7C7" cx="5461.503" cy="2983.375" r="56.944"/>
		<circle fill="none" stroke="#B5B5B5" stroke-width="5" stroke-miterlimit="10" cx="5270.107" cy="2983.375" r="56.944"/>
		<g>
			<text transform="matrix(1 0 0 1 5344.9902 2774.4097)" fill="#8A8A8A" font-family="'DINPro'" font-size="88.8423">9</text>
		</g>
		<circle fill="none" stroke="#B5B5B5" stroke-width="5" stroke-miterlimit="10" cx="6093.8" cy="2742.518" r="145.524"/>
		<circle fill="none" stroke="#B5B5B5" stroke-width="5" stroke-miterlimit="10" cx="5995.729" cy="2494.603" r="56.944"/>
		<circle fill="#C7C7C7" cx="6187.125" cy="2494.603" r="56.944"/>
		<circle fill="#C7C7C7" cx="6187.125" cy="2983.375" r="56.944"/>
		<circle fill="none" stroke="#B5B5B5" stroke-width="5" stroke-miterlimit="10" cx="5995.729" cy="2983.375" r="56.944"/>
		<g>
			<text transform="matrix(1 0 0 1 6047.4258 2774.4097)" fill="#8A8A8A" font-family="'DINPro'" font-size="88.8423">10</text>
		</g>
		<circle fill="none" stroke="#B5B5B5" stroke-width="5" stroke-miterlimit="10" cx="6766.249" cy="2742.518" r="145.524"/>
		<circle fill="#C7C7C7" cx="6668.178" cy="2494.603" r="56.944"/>
		<circle fill="#C7C7C7" cx="6859.574" cy="2494.603" r="56.944"/>
		<circle fill="#C7C7C7" cx="6859.574" cy="2983.375" r="56.944"/>
		<circle fill="none" stroke="#B5B5B5" stroke-width="5" stroke-miterlimit="10" cx="6668.178" cy="2983.375" r="56.944"/>
		<g>
			<text transform="matrix(1 0 0 1 6719.874 2774.4097)" fill="#8A8A8A" font-family="'DINPro'" font-size="88.8423">11</text>
		</g>
		<circle fill="none" stroke="#B5B5B5" stroke-width="5" stroke-miterlimit="10" cx="7426.249" cy="2742.518" r="145.524"/>
		<circle fill="none" stroke="#B5B5B5" stroke-width="5" stroke-miterlimit="10" cx="7328.178" cy="2494.603" r="56.944"/>
		<circle fill="#C7C7C7" cx="7519.574" cy="2494.603" r="56.944"/>
		<circle fill="none" stroke="#B5B5B5" stroke-width="5" stroke-miterlimit="10" cx="7328.178" cy="2983.375" r="56.944"/>
		<g>
			<text transform="matrix(1 0 0 1 7379.874 2774.4097)" fill="#8A8A8A" font-family="'DINPro'" font-size="88.8423">12</text>
		</g>
		<circle fill="none" stroke="#B5B5B5" stroke-width="5" stroke-miterlimit="10" cx="4729.944" cy="3554.518" r="145.524"/>
		<circle fill="#C7C7C7" cx="4631.874" cy="3306.603" r="56.944"/>
		<circle fill="#C7C7C7" cx="4823.27" cy="3306.603" r="56.944"/>
		<circle fill="#C7C7C7" cx="4631.874" cy="3795.375" r="56.944"/>
		<circle fill="#C7C7C7" cx="4823.27" cy="3795.375" r="56.944"/>
		<circle fill="none" stroke="#B5B5B5" stroke-width="5" stroke-miterlimit="10" cx="4983.03" cy="3543.871" r="56.944"/>
		<g>
			<text transform="matrix(1 0 0 1 4706.7568 3586.4097)" fill="#8A8A8A" font-family="'DINPro'" font-size="88.8423">6</text>
		</g>
		<circle fill="none" stroke="#B5B5B5" stroke-width="5" stroke-miterlimit="10" cx="5185.498" cy="4322.473" r="145.524"/>
		<circle fill="#C7C7C7" cx="5087.428" cy="4074.558" r="56.944"/>
		<circle fill="#C7C7C7" cx="5278.824" cy="4074.558" r="56.944"/>
		<circle fill="none" stroke="#B5B5B5" stroke-width="5" stroke-miterlimit="10" cx="5087.428" cy="4563.33" r="56.944"/>
		<circle fill="none" stroke="#B5B5B5" stroke-width="5" stroke-miterlimit="10" cx="4902.359" cy="4563.33" r="56.944"/>
		<circle fill="#C7C7C7" cx="5278.824" cy="4563.33" r="56.944"/>
		<circle fill="none" stroke="#B5B5B5" stroke-width="5" stroke-miterlimit="10" cx="5438.584" cy="4311.826" r="56.944"/>
		<g>
			<text transform="matrix(1 0 0 1 5162.3105 4354.3647)" fill="#8A8A8A" font-family="'DINPro'" font-size="88.8423">2</text>
		</g>
		<circle fill="none" stroke="#B5B5B5" stroke-width="5" stroke-miterlimit="10" cx="6189.498" cy="4024.672" r="145.524"/>
		<circle fill="#C7C7C7" cx="6091.428" cy="3776.757" r="56.944"/>
		<circle fill="none" stroke="#B5B5B5" stroke-width="5" stroke-miterlimit="10" cx="5906.358" cy="3776.757" r="56.944"/>
		<circle fill="#C7C7C7" cx="6282.824" cy="3776.757" r="56.944"/>
		<circle fill="#C7C7C7" cx="6091.428" cy="4265.529" r="56.944"/>
		<circle fill="none" stroke="#B5B5B5" stroke-width="5" stroke-miterlimit="10" cx="5906.359" cy="4265.529" r="56.944"/>
		<circle fill="#C7C7C7" cx="6282.824" cy="4265.529" r="56.944"/>
		<circle fill="none" stroke="#B5B5B5" stroke-width="5" stroke-miterlimit="10" cx="6442.584" cy="4014.025" r="56.944"/>
		<g>
			<text transform="matrix(1 0 0 1 6166.311 4056.564)" fill="#8A8A8A" font-family="'DINPro'" font-size="88.8423">3</text>
		</g>
		<circle fill="none" stroke="#B5B5B5" stroke-width="5" stroke-miterlimit="10" cx="7047.016" cy="4024.672" r="145.524"/>
		<circle fill="#C7C7C7" cx="6948.945" cy="3776.757" r="56.944"/>
		<circle fill="none" stroke="#B5B5B5" stroke-width="5" stroke-miterlimit="10" cx="6763.876" cy="3776.757" r="56.944"/>
		<circle fill="#C7C7C7" cx="7140.341" cy="3776.757" r="56.944"/>
		<circle fill="#C7C7C7" cx="6948.945" cy="4265.529" r="56.944"/>
		<circle fill="none" stroke="#B5B5B5" stroke-width="5" stroke-miterlimit="10" cx="6763.876" cy="4265.529" r="56.944"/>
		<circle fill="#C7C7C7" cx="7140.341" cy="4265.529" r="56.944"/>
		<circle fill="none" stroke="#B5B5B5" stroke-width="5" stroke-miterlimit="10" cx="7300.101" cy="4014.025" r="56.944"/>
		<g>
			<text transform="matrix(1 0 0 1 7023.8281 4056.564)" fill="#8A8A8A" font-family="'DINPro'" font-size="88.8423">4</text>
		</g>
		<path fill="none" stroke="#B5B5B5" stroke-width="5" stroke-miterlimit="10" d="M7497.365,3896.283v528c0,33-27,60-60,60h-1652"/>

			<line fill="none" stroke="#B5B5B5" stroke-width="5" stroke-miterlimit="10" x1="5404.559" y1="4740.283" x2="3300.818" y2="4740.283"/>
		<path fill="none" stroke="#B5B5B5" stroke-width="5" stroke-miterlimit="10" d="M7781.049,5402.675c0,33-27,60-60,60H3134.566
			c-33,0-60-27-60-60V2277.325c0-33,27-60,60-60h4586.482c33,0,60,27,60,60V5402.675z"/>
	</g>
</g>
</svg>
