<?xml version="1.0" encoding="utf-8"?>
<!-- Generator: Adobe Illustrator 17.0.0, SVG Export Plug-In . SVG Version: 6.00 Build 0)  -->
<!DOCTYPE svg PUBLIC "-//W3C//DTD SVG 1.1//EN" "http://www.w3.org/Graphics/SVG/1.1/DTD/svg11.dtd">
<svg version="1.1" xmlns="http://www.w3.org/2000/svg" xmlns:xlink="http://www.w3.org/1999/xlink" x="0px" y="0px" width="10240px"
	 height="7680px" viewBox="0 0 10240 7680" enable-background="new 0 0 10240 7680" xml:space="preserve">
<metadata><?xpacket begin="﻿" id="W5M0MpCehiHzreSzNTczkc9d"?>
<x:xmpmeta xmlns:x="adobe:ns:meta/" x:xmptk="Adobe XMP Core 5.5-c014 79.151739, 2013/04/03-12:12:15        ">
   <rdf:RDF xmlns:rdf="http://www.w3.org/1999/02/22-rdf-syntax-ns#">
      <rdf:Description rdf:about=""
            xmlns:xmp="http://ns.adobe.com/xap/1.0/"
            xmlns:xmpGImg="http://ns.adobe.com/xap/1.0/g/img/"
            xmlns:xmpTPg="http://ns.adobe.com/xap/1.0/t/pg/"
            xmlns:stDim="http://ns.adobe.com/xap/1.0/sType/Dimensions#"
            xmlns:stFnt="http://ns.adobe.com/xap/1.0/sType/Font#"
            xmlns:xmpG="http://ns.adobe.com/xap/1.0/g/"
            xmlns:dc="http://purl.org/dc/elements/1.1/"
            xmlns:xmpMM="http://ns.adobe.com/xap/1.0/mm/"
            xmlns:stRef="http://ns.adobe.com/xap/1.0/sType/ResourceRef#"
            xmlns:stEvt="http://ns.adobe.com/xap/1.0/sType/ResourceEvent#"
            xmlns:pdf="http://ns.adobe.com/pdf/1.3/">
         <xmp:CreatorTool>Adobe Illustrator CC (Windows)</xmp:CreatorTool>
         <xmp:CreateDate>2020-10-06T22:47:29+03:00</xmp:CreateDate>
         <xmp:MetadataDate>2020-10-06T22:47:29+03:00</xmp:MetadataDate>
         <xmp:ModifyDate>2020-10-06T22:47:29+03:00</xmp:ModifyDate>
         <xmp:Thumbnails>
            <rdf:Alt>
               <rdf:li rdf:parseType="Resource">
                  <xmpGImg:width>140</xmpGImg:width>
                  <xmpGImg:height>256</xmpGImg:height>
                  <xmpGImg:format>JPEG</xmpGImg:format>
                  <xmpGImg:image>/9j/4AAQSkZJRgABAgEASABIAAD/7QAsUGhvdG9zaG9wIDMuMAA4QklNA+0AAAAAABAASAAAAAEA&#xA;AQBIAAAAAQAB/+4ADkFkb2JlAGTAAAAAAf/bAIQABgQEBAUEBgUFBgkGBQYJCwgGBggLDAoKCwoK&#xA;DBAMDAwMDAwQDA4PEA8ODBMTFBQTExwbGxscHx8fHx8fHx8fHwEHBwcNDA0YEBAYGhURFRofHx8f&#xA;Hx8fHx8fHx8fHx8fHx8fHx8fHx8fHx8fHx8fHx8fHx8fHx8fHx8fHx8fHx8f/8AAEQgBAACMAwER&#xA;AAIRAQMRAf/EAaIAAAAHAQEBAQEAAAAAAAAAAAQFAwIGAQAHCAkKCwEAAgIDAQEBAQEAAAAAAAAA&#xA;AQACAwQFBgcICQoLEAACAQMDAgQCBgcDBAIGAnMBAgMRBAAFIRIxQVEGE2EicYEUMpGhBxWxQiPB&#xA;UtHhMxZi8CRygvElQzRTkqKyY3PCNUQnk6OzNhdUZHTD0uIIJoMJChgZhJRFRqS0VtNVKBry4/PE&#xA;1OT0ZXWFlaW1xdXl9WZ2hpamtsbW5vY3R1dnd4eXp7fH1+f3OEhYaHiImKi4yNjo+Ck5SVlpeYmZ&#xA;qbnJ2en5KjpKWmp6ipqqusra6voRAAICAQIDBQUEBQYECAMDbQEAAhEDBCESMUEFURNhIgZxgZEy&#xA;obHwFMHR4SNCFVJicvEzJDRDghaSUyWiY7LCB3PSNeJEgxdUkwgJChgZJjZFGidkdFU38qOzwygp&#xA;0+PzhJSktMTU5PRldYWVpbXF1eX1RlZmdoaWprbG1ub2R1dnd4eXp7fH1+f3OEhYaHiImKi4yNjo&#xA;+DlJWWl5iZmpucnZ6fkqOkpaanqKmqq6ytrq+v/aAAwDAQACEQMRAD8A9QRRJIgJAFAoOykklQam&#xA;oPjiq/6rH4/8Kn/NOKu+qx+P/Cp/zTirvqsfj/wqf804q76rH4/8Kn/NOKu+qx+P/Cp/zTirvqsf&#xA;j/wqf804q76rH4/8Kn/NOKtG3hHVgPmE7/7HFW/qsfj/AMKn/NOKu+qx+P8Awqf804q76rH4/wDC&#xA;p/zTirvqsfj/AMKn/NOKu+qx+P8Awqf804q76rH4/wDCp/zTirvqsfj/AMKn/NOKrZLdFRmG5UE0&#xA;Kp2/2OKt8V58KDh6n2abf3demKt2v92f9j/xBcVVsVdirsVdirsVdirsVYxrmg32panDPLYWd1DC&#xA;4VGllmjcRclbogKsa12OKsis/rf1WH64EF1wHriIkx86fFx5AGlfHFVXFXYq7FXYq7FXYqsn/uZP&#xA;9U/qxVZ/u3/np/zLxV1r/dn/AGP/ABBcVVsVaLoHCFhzIJC13IHU0xVCT/XGaUwz8EZAIR6Rbi9d&#xA;2r3qMVWyC/Pq8LjjyCel+5Y8afb+fLFXP+kCX4zgAyKUHosaRj7S/M/5+yrY+v8AIEzDj6pYj0m/&#xA;uqfY+fvirSfXwY+c4IDuZP3LbofsAfL/AD91XR/pAenznDUVxL+5bdj9g/Riq2mpcFH1gcvSKsfR&#xA;b+97N8sVbf8ASJEnCcAmNRGfRbZx9pvp/wA/dVuT9IH1eE4XkU9KsLfCB9uvzxVz/XyzFZwFMqsg&#xA;9JjSMfaU++Ktr9e5KTPVRKWYei28XZP7cVVbVpUgrczK78iC/HgNz8IofniqIxVZP/cyf6p/Viqz&#xA;/dv/AD0/5l4q61/uz/sf+ILiqtiqCmKjU1bjExjhZtz++G/b/JxVEJHX4STSMBNiRuBUnY++KrvR&#xA;Txb/AIJv64q70U8W/wCCb+uKu9FPFv8Agm/rirvRTxb/AIJv64q70U8W/wCCb+uKu9FPFv8Agm/r&#xA;irvRTxb/AIJv64q70U8W/wCCb+uKu9FPFv8Agm/rirTQjieJYNTYlm6/fiqC1Pg9pI5EVKRuBPsl&#xA;eR6074qmINQD1r3GKrJ/7mT/AFT+rFVn+7f+en/MvFXWv92f9j/xBcVVsVQDsG1C5HNCUtwPTCfG&#xA;K1O7+HtiqMj+3J/rf8ajFV+KuxV2KrZXMcTuELlFLBF+01BWg9ziqSW/mwSwNM+lX8CjnxWSH42C&#xA;cSaKpJ35beNMVTHTtTS+DMkE0KqqMDMhjJ5gmlDvUd8VRmKuxV2KuxVAXZC2EhLIg9FSGkXmvw9a&#xA;r364qjYXDxI4IYMoIYCgNR1AxVqf+5k/1T+rFVn+7f8Anp/zLxV1r/dn/Y/8QXFVbFUCrl7y6X1G&#xA;ZV9JDGU4gVO9G/arXFUXFvzb+Zjt8vh/hiqjcm+EhMLRiH02+2CW9T9np2xVRMmqcGoYw3pDj8En&#xA;9737fZxVuSTUv3vpmOvFPSqkn2v267dPDFXPJqNZOBSnNPSqkn2P267dfDFWzJqPI0KcfVFPgkr6&#xA;Pft9rFXLJqPJORTj6jc6JJX0v2abfaxVqOTU6p6hj6P6lEk6/wC66bffirSyanxWpj5ekeXwSf3v&#xA;bt9nFW+WqMGCtEH9EceSuP3v7R3/AGcVRq8uI5U5U+KnSvtiqFmqLdgGK8YpVDBeRHEgV49+mKq1&#xA;m5e1hYsXLIpLMOJO3Ujtiq6f+5k/1T+rFVn+7f8Anp/zLxV1r/dn/Y/8QXFVbFUDAWM11X1aesgU&#xA;SAcdqE+n7Yqi4fsH/Wb/AIkcVdJ9qP8A1v8AjU4qpANIzAMQQTU1b+YgbAr/AC4qu9CT+f8A4n/z&#xA;XirjC43MlPpf/mvFWhEzCokBHsX/AOa8Vb9F/wDfn4v/AM14q70JP5/+J/8ANeKtPE6IzF6hQTSr&#xA;jp/ssVbUn93v0dhX2HL+mKq2Kocg8NiQWMqAr9oVJNRXv8OKu08sbKEt6nLjQ+t9vbb4sVVZ/wC5&#xA;k/1T+rFVn+7f+en/ADLxV1r/AHZ/2P8AxBcVVsVQNnGyu7NG8Ze4Y0d+dRxIqvgD4Yq5xfAzCORV&#xA;BQ+kDGzUkJJJJHUYqvjF410rO4aEKPh4FSHoQxqexriqrB9t/fcfS7YqrYqo3tnb3tpNaXKc4J0M&#xA;ciVIqrCh3G4xVJJ/Juiw2aRWVlQxuGWNZpIwak1LFWqftYqiLDyjotjdw3dukwmgr6ZeeaRRyUqf&#xA;hdiOhxVOcVWT/wBzJ/qn9WKqMomMB9IhZAz8WILUJ5UJA+eKqTnUSG4zKCYgq/un/ve7fLFVaNZA&#xA;sfqGrFtyBxqeBqadqmpxVbpislmitG8ZBYcZW5t9o/tYqrz/ANzJ/qn9WKrP92/89P8AmXirrX+7&#xA;P+x/4guKq2KqcjAOldgtXJ9gKf8AG2KuSKqKXLc6Dl8Tde/Q4q36Kf5R9izH+OKtmNDTalNgQSDT&#xA;6MVa9FPFv+Cb+uKrZRFFE8rl+Ealmozk0AqdgcVSW283+WbiB547txCnOsjrMg/d8eZHID7PMYqm&#xA;NhqGm6gGNnMZlVUYurPxo4JWhPXpiqL9FPFv+Cb+uKu9FO9T7FiR9xOKttGhNdwe5BI/VirXop4t&#xA;/wAE39cVWGoqKn4XUrU1NDQdT9OKq2KrJ/7mT/VP6sVWf7t/56f8y8VUDNNDHH6aK/Nk5cmCgIVA&#xA;J360pirUV7dM8YkijRWdxIfVBKqPsn3riqIkIk5cDyARxtvuaUH4Yqv9eH/fi/eMVUZbiUTIIjEY&#xA;Src2Z6EN+zSmKqSXN9ROf1evpsZAHP8Aefsge2KtfWr/AIg/6PX0akcz/feH+rirbXV9RuIgqIgV&#xA;PM09XuP9XFVskt1xk4pbMVRTCC37Z+2D7eGKttPeKZvRW3AHD0av1/n5U8O2KtyXV7+99MQGjoIq&#xA;v1Q/bJ9x/n7qua5vQW4+gR6oC1c19LuT/lYq39ZvK/7oA9Wh+M/3Pj/rYqivXh/34v3jFVjHmzMv&#xA;xKOG43+yxJpiqye6dZIhEEdGJErFwvEU2+e+KqKXd3IqrJFGgeNufGQMQ9aKoA61GKon/dv/AD0/&#xA;5l4q1ByeNQGKhQo2pv8ACD3B8cVWXVzb2ojNxcmMSuIo6hd3boPs4q71bgXLxkN6ShCJCVoxZqEU&#xA;ArtirnuUEyRM7q8vPgqrUUTrvQ4qsivoJTAElk/0gMYqpT7HWvw7Yqulu4YpJI3lk5Rx+q1FBHEb&#xA;dQuKrDqFsA1ZpPhiE5+D9g9/s4qqS3MUcMczSv6cpUIQoJ+Pptxriqxr+3XnWWT93KIW+D9tun7O&#xA;Kua/t151lk/dyiFvg/bbp+ziqrLMkU0UTyvzmqEooI+EVO4XFVKK/t5TEElk/fc+HwU+x9r9nFXf&#xA;XoPqi3Xqyei5CqeG9SePTjXrirpL+3j9XlNJ+5dY3+D9p+lPh3xVfcTTrCzRqXdVchQQCxQ06kEY&#xA;q093DFLbwTTmO4uQfSiPEklRVhULTbFUR6b9pGr7hf6Yqo+pt6lP2uVP+eVcVX2v92f9j/xBcVS7&#xA;zG2pCOxWwk9OR7yESjmiFogSZF+PrVR0XfFUREgN/cNwQFmjUurcmPFeXxL+ziqssUxZJ1lIT02r&#xA;CAKFnPKteu2KqvwbcGq1RtyJ2rv3xVtuPM8jQUFN6eOKtfuf5/8Ahj/XFWyTwTkaV+127f1xVy8e&#xA;XwmopvvXfamKrKrwry/eU6VNeXyxVe9OS8jQUPem+2Ktfuf5/wDhj/XFXV/dx8jQbcj07YqpzxPL&#xA;G0cExiZh/eD46EEeOKqdzGGgkjIElQ6EMeIPJee5HTFUuuH1E3+hLausdrSRryGOROLIIqLQN8bh&#xA;WI+z9OKp7iqD/wB0f5/75xVWtf7s/wCx/wCILiqG1XRrbUzaGdnX6ncJdRcOIJeOtASQdt96Yq1a&#xA;FGurhlMR/fGpiFG+FKHn71OKolXKqAjHgB8NY2O3zFMVb9ST+b/km/8AXFXepJ/N/wAk3/rirvUk&#xA;/m/5Jv8A1xV3qSfzf8k3/rirvUk/m/5Jv/XFXepJ/N/yTf8ArirvUk/m/wCSb/1xV3qSfzf8k3/r&#xA;irvUk/m/5Jv/AFxV3qSfzf8AJN/64qtlCmPsak8+You6EfED26Yql1vpFneS6XqRcetp6yCEQUER&#xA;Mg4NWo5bfPriqc4qg/8AdH+f++cVVrX+7P8Asf8AiC4qrYqltq4kS4cSLJUzbqnClOIofEjxxVMs&#xA;VdirsVdirsVdirsVdirsVdirsVUZftt/zz/4mcVUtLkD2an1Fl4sy81T0xsx244qi8VQf+6P8/8A&#xA;fOKtpcw28SmVuIkdI02JqzItOmKtLq9g1KSdQ7D4W6R/a7YqvEscyCSM1jdU4np8Mjb/AH4qicVd&#xA;irsVdirsVdirsVdirsVdirsVUZ9iT34FvpQgr91cVU5NTsYneNnoyOsbCh+1JuO2Kui1OyllSJHq&#xA;7s6qKHrH9rtiq3/dH+f++cVVEUPGnFakKtTyKjpXtirTKqFQ3FS54pWVhUneg2xVcOK1VlFKqDRy&#xA;zCp+HrQ4qqxk0YVqAaA+I/29sVXYq7FXYq7FXYq7FXYq7FXYq7FVDkKcmALENy5GigA0b6MVWkJy&#xA;VTx5PugMrValNxtvTFVxj4gsyfCASaSMdu+xpirf+7f+en/MvFXWv92f9j/xBcVSvzLHM7aX6Nu0&#xA;7LfwM7IgfhGG+JiSrcQNjXb54qioFU3d2wEXIyxrWMkueND8fgcVRsP2D/rN/wASOKr8VdirsVdi&#xA;rsVdirsVdirsVdiqEmRXhdWClWWYUfZftdziqUXKSvf+XWhgEkaNJ600KB4419EgfGVJUFqdxiqf&#xA;z/3Mn+qf1Yqs/wB2/wDPT/mXirrX+7P+x/4guKoXU9Le9urCdZvS+pTesR8XxDiV4/CyePevyxVu&#xA;ydXlldXjcG4YVjUqRxQijV6nFUZD/dKf5vi/4I1/jiq/FXYq7FXYq7FXYq7FXYq7FXYqoMP2dqB2&#xA;+1uN0Lb/AH4qlltppurnS9RS5TjZJMjJErqj+pRdgGUDjx7qcVTef+5k/wBU/qxVZ/u3/np/zLxV&#xA;1r/dn/Y/8QXFVbFUDp8hkWpkMg9SUglPTIo3GlO/XFUXB/cx/wCqP1YqvxV2KuxV2KuxV2KuxV2K&#xA;uxV2KqJ2Zm/lkX8VC/xxVS0t+Vr/AHhl4u68mT0+jHbjiqIn/uZP9U/qxVZ/u3/np/zLxV1r/dn/&#xA;AGP/ABBcVViaAn9WKpfZsTZq4eVzwkPKYUkFW2r922KpgAAKDYDoMVdirsVdirsVdirsVdirsVdi&#xA;rsVUZPtt/wA8z/w5xVT09qrMOcshWVxWVeNN+i/5OKq8/wDcyf6p/Viqz/dv/PT/AJl4q61/uz/s&#xA;f+ILiqpMSInIBYhTQL9o7dq98VQdorCyCt6gYwqKTGr1YsKN9+Ko7FXYq7FWmJCkgciBUKOp9t8V&#xA;Y8PO1mEjMmnaijuFJT6pIaFhWlQKEj2xVefOVmASbDUdiQaWkh6Uqdh03xVb/jWzCoz6dqKLIxRS&#xA;bV+xoCadOXbFUw0jXINTaZY7a5t2g481uYmi3auwrsfs9sVTHFXYq7FVGbb1f8qPb6K1/XiqlZBx&#xA;PdhhLT1Kq0pBUggfYp2xVET/ANzJ/qn9WKrP92/89P8AmXirrX+7P+x/4guKuvf945vhL/A3wBuJ&#xA;O383bFVKBCtuoKlCnpJwJ5EU4mnLv9rFUXirsVdirsVdiqlcR3D+n6Moj4uDJVeXJR1X2riqrirs&#xA;VdirsVdiqnIvKQL/ADI4+/jiqGsgfrVy/pMnqCN+ZfkGqvZf2aYqip/7mT/VP6sVWf7t/wCen/Mv&#xA;FXWv92f9j/xBcVU9TobCYEI1VpxlbihqabnFV0ahVEYAVeagBdwOCg0H0rTFURirsVdirsVdirsV&#xA;dirsVdirsVdiqx9pIz41X7xX/jXFUHaKq37kJGGaCPk4b94abbr2GKoyf+5k/wBU/qxVZ/u3/np/&#xA;zLxV1r/dn/Y/8QXFVLVWUWZ5ekQzKKT/AGDVhiqqnSP/AIyP/wAbYqrYq7FXYq7FXYq7FXYq7FXY&#xA;q7FXYqsk+3H/AK3/ABqcVQcZVdSApCC6PUn++NJD0/ycVRk/9zJ/qn9WKrP92/8APT/mXirrX7FO&#xA;9FP0cQP4Yq1eQyzRqsbItHVn5rzBVTUinjircW5iJ/aVnI9yQf44qrYq7FXYq7FXYq7FXYq7FXYq&#xA;7FXYqsl+yD3DLQ/NgMVUJZI4A0votLIj8AUXk9JCCfo3xVZJfkqyG3lXkzx8iu3wrXkTX7J7Yqr/&#xA;AO7f+en/ADLxVbGvqRoKLRFUfEvLegPiMVXfV/aP/gP7cVVFQ8uTGrUoKCgAP34quxV2KuxV2Kux&#xA;V2KuxV2KuxV2KuxVplDCh+dfcbjFVNomY1bg3uUr/HFVrRcFL8Y/hFdkp038cVb/AN2/89P+ZeKu&#xA;tf7s/wCx/wCILiqtirsVdirsVdirsVdirsVdirsVdirsVdirsVdiqyf+5k/1T+rFVn+7f+en/MvF&#xA;XQo4jQowHJVqCK70p4jFV9Jv5l/4E/8ANWKtMZFFS6j/AGJ/5qxVb6rf78X/AIE/1xV3qt/vxf8A&#xA;gT/XFXeq3+/F/wCBP9cVd6rf78X/AIE/1xV3qt/vxf8AgT/XFXeq3+/F/wCBP9cVd6rf78X/AIE/&#xA;1xV3qt/vxf8AgT/XFXeq3+/F/wCBP9cVd6rf78X/AIE/1xV3qt/vxf8AgT/XFWw7k0Ei1/1T/wA1&#xA;YqupN/Mv/An/AJqxVpklZSpdaEUNFPf6cVW/7t/56f8AMvFWo5lWJBQk8V/Viq76yvgcVU5ZQ9AB&#xA;SmKqeKuxV2KuxV2KuxV2KuxV2KuxV2Ktq3FgfDFVf6yvgcVd9ZXwOKreQ58u3qV/5J4qtWFmjRgR&#xA;uq9flirf1d/EYq76u/iMVd9XfxGKqRBBIPUYq7FXYq7FUpvbHzA908lnqSQQP0hkgEnH4QBQ1U/a&#xA;qd8VTC0S5SALcyiaYFqyKvAEFiVFKnotBiqtirsVdiqokLsKilPfFW/q7+IxV31d/EYq76u/iMVd&#xA;x+Lj/l0/5JYqqwf3Mf8Aqj9WKr8VdirsVQj/AG2+ZxVbirsVdirsVdirsVdirsVRUP8AdL9P68VX&#xA;4q7FXYqo/wC7f+en/MvFW4pYhEgLqCFAIJHhiq714f8Afi/eMVd68P8AvxfvGKu9eH/fi/eMVWlr&#xA;UmpZa/6wxVqtp/Mv/Bf24q6tp/Mv/Bf24q6tp/Mv/Bf24q6tp/Mv/Bf24q6tp/Mv/Bf24q6tp/Mv&#xA;/Bf24q6tp/Mv/Bf24q6tp/Mv/Bf24qvE0AFA60+YxV3rw/78X7xirvXh/wB+L94xV3rw/wC/F+8Y&#xA;qp8l586jh6n2q7f3dOuKv//Z</xmpGImg:image>
               </rdf:li>
            </rdf:Alt>
         </xmp:Thumbnails>
         <xmpTPg:NPages>1</xmpTPg:NPages>
         <xmpTPg:HasVisibleTransparency>False</xmpTPg:HasVisibleTransparency>
         <xmpTPg:HasVisibleOverprint>False</xmpTPg:HasVisibleOverprint>
         <xmpTPg:MaxPageSize rdf:parseType="Resource">
            <stDim:w>10240.000400</stDim:w>
            <stDim:h>7680.000100</stDim:h>
            <stDim:unit>Points</stDim:unit>
         </xmpTPg:MaxPageSize>
         <xmpTPg:Fonts>
            <rdf:Bag>
               <rdf:li rdf:parseType="Resource">
                  <stFnt:fontName>DINPro-Bold</stFnt:fontName>
                  <stFnt:fontFamily>DIN Pro</stFnt:fontFamily>
                  <stFnt:fontFace>Bold</stFnt:fontFace>
                  <stFnt:fontType>TrueType</stFnt:fontType>
                  <stFnt:versionString>Version 7.504; 2005; Build 1020</stFnt:versionString>
                  <stFnt:composite>False</stFnt:composite>
                  <stFnt:fontFileName/>
               </rdf:li>
            </rdf:Bag>
         </xmpTPg:Fonts>
         <xmpTPg:PlateNames>
            <rdf:Seq>
               <rdf:li>Cyan</rdf:li>
               <rdf:li>Magenta</rdf:li>
               <rdf:li>Yellow</rdf:li>
               <rdf:li>Black</rdf:li>
            </rdf:Seq>
         </xmpTPg:PlateNames>
         <xmpTPg:SwatchGroups>
            <rdf:Seq>
               <rdf:li rdf:parseType="Resource">
                  <xmpG:groupName>Default Swatch Group</xmpG:groupName>
                  <xmpG:groupType>0</xmpG:groupType>
               </rdf:li>
            </rdf:Seq>
         </xmpTPg:SwatchGroups>
         <dc:format>image/svg+xml</dc:format>
         <dc:title>
            <rdf:Alt>
               <rdf:li xml:lang="x-default">GlavClub</rdf:li>
            </rdf:Alt>
         </dc:title>
         <xmpMM:DocumentID>xmp.did:954b53ab-7244-d04c-b21f-748a695a8f38</xmpMM:DocumentID>
         <xmpMM:InstanceID>xmp.iid:954b53ab-7244-d04c-b21f-748a695a8f38</xmpMM:InstanceID>
         <xmpMM:OriginalDocumentID>xmp.did:82aacf58-607c-a645-8469-3b9abc83840d</xmpMM:OriginalDocumentID>
         <xmpMM:RenditionClass>proof:pdf</xmpMM:RenditionClass>
         <xmpMM:DerivedFrom rdf:parseType="Resource">
            <stRef:instanceID>xmp.iid:47789f3a-4e46-6841-b690-507204aab288</stRef:instanceID>
            <stRef:documentID>xmp.did:47789f3a-4e46-6841-b690-507204aab288</stRef:documentID>
            <stRef:originalDocumentID>xmp.did:82aacf58-607c-a645-8469-3b9abc83840d</stRef:originalDocumentID>
            <stRef:renditionClass>proof:pdf</stRef:renditionClass>
         </xmpMM:DerivedFrom>
         <xmpMM:History>
            <rdf:Seq>
               <rdf:li rdf:parseType="Resource">
                  <stEvt:action>saved</stEvt:action>
                  <stEvt:instanceID>xmp.iid:82aacf58-607c-a645-8469-3b9abc83840d</stEvt:instanceID>
                  <stEvt:when>2018-10-21T17:28:59+03:00</stEvt:when>
                  <stEvt:softwareAgent>Adobe Illustrator CC (Windows)</stEvt:softwareAgent>
                  <stEvt:changed>/</stEvt:changed>
               </rdf:li>
               <rdf:li rdf:parseType="Resource">
                  <stEvt:action>saved</stEvt:action>
                  <stEvt:instanceID>xmp.iid:954b53ab-7244-d04c-b21f-748a695a8f38</stEvt:instanceID>
                  <stEvt:when>2020-10-06T22:47:29+03:00</stEvt:when>
                  <stEvt:softwareAgent>Adobe Illustrator CC (Windows)</stEvt:softwareAgent>
                  <stEvt:changed>/</stEvt:changed>
               </rdf:li>
            </rdf:Seq>
         </xmpMM:History>
         <pdf:Producer>Adobe PDF library 10.01</pdf:Producer>
      </rdf:Description>
   </rdf:RDF>
</x:xmpmeta>
                                                                                                    
                                                                                                    
                                                                                                    
                                                                                                    
                                                                                                    
                                                                                                    
                                                                                                    
                                                                                                    
                                                                                                    
                                                                                                    
                                                                                                    
                                                                                                    
                                                                                                    
                                                                                                    
                                                                                                    
                                                                                                    
                                                                                                    
                                                                                                    
                                                                                                    
                                                                                                    
                           
<?xpacket end="w"?>
	</metadata>
<g id="Layer_3">
</g>
<g id="Layer_2">
	<g>
		<path fill="none" stroke="#B5B5B5" stroke-width="5" stroke-miterlimit="10" d="M6938.728,547.264c0-33-27-60-60-60H3361.273
			c-33,0-60,27-60,60v6585.473c0,33,27,60,60,60h3517.455c33,0,60-27,60-60V547.264z"/>
		<g>
			<path fill="none" stroke="#B5B5B5" stroke-width="5" stroke-miterlimit="10" d="M4033.187,2642.817
				c-33,0-62.188,26.911-64.861,59.803l-25.884,318.438c-2.673,32.892,22.139,59.803,55.139,59.803H5060c33,0,87,0,120,0h1062.419
				c33,0,57.813-26.911,55.139-59.803l-25.884-318.438c-2.673-32.892-31.861-59.803-64.861-59.803H5180c-33,0-87,0-120,0H4033.187z"
				/>
			<circle fill="#C7C7C7" cx="4057.179" cy="2759.444" r="33.09"/>
			<circle fill="#C7C7C7" cx="4043.179" cy="2861.839" r="33.09"/>
			<circle fill="#C7C7C7" cx="4162.179" cy="2759.444" r="33.09"/>
			<circle fill="#C7C7C7" cx="4264.179" cy="2759.444" r="33.09"/>
			<circle fill="#C7C7C7" cx="5989" cy="2759.444" r="33.09"/>
			<circle fill="#C7C7C7" cx="6094" cy="2759.444" r="33.09"/>
			<circle fill="#C7C7C7" cx="6196" cy="2759.444" r="33.09"/>
			<circle fill="#C7C7C7" cx="6212.499" cy="2861.839" r="33.09"/>
			<circle fill="#C7C7C7" cx="4448.153" cy="2759.444" r="33.09"/>
			<circle fill="#C7C7C7" cx="4553.153" cy="2759.444" r="33.09"/>
			<circle fill="#C7C7C7" cx="4655.153" cy="2759.444" r="33.09"/>
			<circle fill="#C7C7C7" cx="4759.913" cy="2759.444" r="33.09"/>
			<circle fill="#C7C7C7" cx="4935.76" cy="2759.444" r="33.09"/>
			<circle fill="#C7C7C7" cx="5040.76" cy="2759.444" r="33.09"/>
			<circle fill="#C7C7C7" cx="5247.519" cy="2759.444" r="33.09"/>
			<circle fill="#C7C7C7" cx="5352.519" cy="2759.444" r="33.09"/>
			<circle fill="#C7C7C7" cx="5142.76" cy="2759.444" r="33.09"/>
			<circle fill="#C7C7C7" cx="5528.034" cy="2759.444" r="33.09"/>
			<circle fill="#C7C7C7" cx="5633.034" cy="2759.444" r="33.09"/>
			<circle fill="#C7C7C7" cx="5735.034" cy="2759.444" r="33.09"/>
			<circle fill="#C7C7C7" cx="5839.793" cy="2759.444" r="33.09"/>
			<path fill="none" stroke="#D1D1D1" stroke-width="5" stroke-miterlimit="10" d="M4146.813,2980.438
				c-10.574,0-19.225-8.651-19.225-19.225v-107.836c0-10.573,8.651-19.225,19.225-19.225h139.342
				c10.574,0,19.225,8.651,19.225,19.225v107.836c0,10.573-8.651,19.225-19.225,19.225H4146.813L4146.813,2980.438z"/>
			<path fill="none" stroke="#D1D1D1" stroke-width="5" stroke-miterlimit="10" d="M4928.609,2980.438
				c-10.574,0-19.225-8.651-19.225-19.225v-107.836c0-10.573,8.651-19.225,19.225-19.225h139.342
				c10.574,0,19.225,8.651,19.225,19.225v107.836c0,10.573-8.651,19.225-19.225,19.225H4928.609L4928.609,2980.438z"/>
			<path fill="none" stroke="#D1D1D1" stroke-width="5" stroke-miterlimit="10" d="M4450.393,2980.438
				c-10.574,0-19.225-8.651-19.225-19.225v-107.836c0-10.573,8.651-19.225,19.225-19.225H4750.3
				c10.574,0,19.225,8.651,19.225,19.225v107.836c0,10.573-8.651,19.225-19.225,19.225H4450.393L4450.393,2980.438z"/>
			<path fill="none" stroke="#D1D1D1" stroke-width="5" stroke-miterlimit="10" d="M5218.223,2980.438
				c-10.574,0-19.225-8.651-19.225-19.225v-107.836c0-10.573,8.651-19.225,19.225-19.225h139.342
				c10.573,0,19.225,8.651,19.225,19.225v107.836c0,10.573-8.651,19.225-19.225,19.225H5218.223L5218.223,2980.438z"/>
			<path fill="none" stroke="#D1D1D1" stroke-width="5" stroke-miterlimit="10" d="M5975.134,2980.438
				c-10.573,0-19.225-8.651-19.225-19.225v-107.836c0-10.573,8.651-19.225,19.225-19.225h139.342
				c10.574,0,19.225,8.651,19.225,19.225v107.836c0,10.573-8.651,19.225-19.225,19.225H5975.134L5975.134,2980.438z"/>
			<path fill="none" stroke="#D1D1D1" stroke-width="5" stroke-miterlimit="10" d="M5521.802,2980.438
				c-10.574,0-19.225-8.651-19.225-19.225v-107.836c0-10.573,8.651-19.225,19.225-19.225h299.908
				c10.573,0,19.225,8.651,19.225,19.225v107.836c0,10.573-8.651,19.225-19.225,19.225H5521.802L5521.802,2980.438z"/>
		</g>
		<g>
			<path fill="#F5F5F5" d="M6463.524,6482.975c-33,0-60-27-60-60v-52c0-33-27-60-60-60H5180c-33,0-60,0.003-60,0.003
				c0,0.007,0,0.007,0,0.003c0,0-27-0.006-60-0.006H3896.476c-33,0-60,27-60,60v52c0,33-27,60-60,60h-360c-33,0-60,27-60,60v92.962
				c0,33,27,60,60,60h692c33,0,60,27,60,60v212c0,33,27,60,60,60h826.875c33,0,61.046,0,62.325,0s29.324,0,62.324,0h831.524
				c33,0,60-27,60-60v-212c0-33,27-60,60-60h692c33,0,60-27,60-60v-92.962c0-33-27-60-60-60H6463.524z"/>
			<g>
				<text transform="matrix(1 0 0 1 5029.5366 6669.4561)" fill="#8A8A8A" font-family="'DINPro-Bold'" font-size="72">Сцена</text>
			</g>
		</g>
		<g>
			<path fill="none" stroke="#B5B5B5" stroke-width="5" stroke-miterlimit="10" d="M6257.961,3740.757
				c-2.44-32.91,19.192-59.836,48.073-59.836c28.88,0,50.022-26.885,46.984-59.745l-36.95-399.562
				c-3.039-32.86-32.525-59.745-65.525-59.745H3989.458c-33,0-62.326,26.9-65.168,59.777l-34.549,399.613
				c-2.842,32.877,18.461,59.777,47.341,59.777c28.88,0,50.474,26.923,47.985,59.829L3833,5751.945
				c-2.488,32.906-31.524,59.829-64.524,59.829h-332c-33,0-60,27-60,60v311.201c0,33,27,60,60,60H5060c33,0,87,0,120,0h1623.524
				c33,0,60-27,60-60v-311.201c0-33-27-60-60-60h-332c-33,0-61.997-26.926-64.437-59.836L6257.961,3740.757z"/>
			<g>
				<text transform="matrix(1 0 0 1 4758.8921 4864.6021)" fill="#8A8A8A" font-family="'DINPro-Bold'" font-size="72">Танцевальный партер</text>
			</g>
			<circle fill="#C7C7C7" cx="5132.819" cy="4969.828" r="33.09"/>
		</g>
		<g>
			<path fill="none" stroke="#B5B5B5" stroke-width="5" stroke-miterlimit="10" d="M3891.526,3818.614
				c2.723-32.888-22.05-59.796-55.05-59.796h-400c-33,0-60,27-60,60v1860.955c0,33,27,60,60,60h236c33,0,62.228-26.908,64.95-59.796
				L3891.526,3818.614z"/>
			<circle fill="#C7C7C7" cx="3796.481" cy="3853.919" r="33.09"/>
			<circle fill="#C7C7C7" cx="3789.664" cy="3950.533" r="33.09"/>
			<circle fill="#C7C7C7" cx="3782.846" cy="4047.146" r="33.09"/>
			<circle fill="#C7C7C7" cx="3776.028" cy="4143.76" r="33.09"/>
			<circle fill="#C7C7C7" cx="3769.21" cy="4240.373" r="33.09"/>
			<circle fill="#C7C7C7" cx="3762.392" cy="4336.987" r="33.09"/>
			<circle fill="#C7C7C7" cx="3755.574" cy="4433.6" r="33.09"/>
			<circle fill="#C7C7C7" cx="3748.757" cy="4530.213" r="33.09"/>
			<circle fill="#C7C7C7" cx="3740.029" cy="4634.419" r="33.09"/>
			<circle fill="#C7C7C7" cx="3733.211" cy="4731.033" r="33.09"/>
			<circle fill="#C7C7C7" cx="3726.393" cy="4827.646" r="33.09"/>
			<circle fill="#C7C7C7" cx="3719.576" cy="4924.26" r="33.09"/>
			<circle fill="#C7C7C7" cx="3712.758" cy="5020.873" r="33.09"/>
			<circle fill="#C7C7C7" cx="3705.94" cy="5117.487" r="33.09"/>
			<circle fill="#C7C7C7" cx="3699.122" cy="5214.1" r="33.09"/>
			<circle fill="#C7C7C7" cx="3692.304" cy="5310.713" r="33.09"/>
			<circle fill="#C7C7C7" cx="3686.486" cy="5414.419" r="33.09"/>
			<circle fill="#C7C7C7" cx="3679.668" cy="5511.033" r="33.09"/>
			<circle fill="#C7C7C7" cx="3672.85" cy="5607.646" r="33.09"/>
			<g>
				<text transform="matrix(0 -1 1 0 3685.9858 4154.8564)" fill="#8A8A8A" font-family="'DINPro-Bold'" font-size="72">VIP Line 2</text>
			</g>
		</g>
		<g>
			<circle fill="#C7C7C7" cx="6616.487" cy="5673.826" r="33.09"/>
			<circle fill="#C7C7C7" cx="6705.858" cy="5673.826" r="33.09"/>
			<circle fill="#C7C7C7" cx="6793.929" cy="5673.826" r="33.09"/>
			<path fill="none" stroke="#B5B5B5" stroke-width="5" stroke-miterlimit="10" d="M6348.475,3818.614
				c-2.723-32.888,22.05-59.796,55.05-59.796h400c33,0,60,27,60,60v1860.955c0,33-27,60-60,60h-236
				c-33,0-62.228-26.908-64.95-59.796L6348.475,3818.614z"/>
			<circle fill="#C7C7C7" cx="6443.52" cy="3853.919" r="33.09"/>
			<circle fill="#C7C7C7" cx="6450.337" cy="3950.533" r="33.09"/>
			<circle fill="#C7C7C7" cx="6457.155" cy="4047.146" r="33.09"/>
			<circle fill="#C7C7C7" cx="6463.973" cy="4143.76" r="33.09"/>
			<circle fill="#C7C7C7" cx="6470.791" cy="4240.373" r="33.09"/>
			<circle fill="#C7C7C7" cx="6477.608" cy="4336.987" r="33.09"/>
			<circle fill="#C7C7C7" cx="6484.426" cy="4433.6" r="33.09"/>
			<circle fill="#C7C7C7" cx="6491.244" cy="4530.213" r="33.09"/>
			<circle fill="#C7C7C7" cx="6496.971" cy="4635.419" r="33.09"/>
			<circle fill="#C7C7C7" cx="6503.789" cy="4732.033" r="33.09"/>
			<circle fill="#C7C7C7" cx="6510.607" cy="4828.646" r="33.09"/>
			<circle fill="#C7C7C7" cx="6517.425" cy="4925.26" r="33.09"/>
			<circle fill="#C7C7C7" cx="6524.243" cy="5021.873" r="33.09"/>
			<circle fill="#C7C7C7" cx="6531.061" cy="5118.487" r="33.09"/>
			<circle fill="#C7C7C7" cx="6537.878" cy="5215.1" r="33.09"/>
			<circle fill="#C7C7C7" cx="6544.696" cy="5311.713" r="33.09"/>
			<circle fill="#C7C7C7" cx="6553.923" cy="5415.419" r="33.09"/>
			<circle fill="#C7C7C7" cx="6560.741" cy="5512.033" r="33.09"/>
			<g>
				<text transform="matrix(0 -1 1 0 6603.5244 4154.8564)" fill="#8A8A8A" font-family="'DINPro-Bold'" font-size="72">VIP Line 2</text>
			</g>
		</g>
		<g>
			<path fill="none" stroke="#B5B5B5" stroke-width="5" stroke-miterlimit="10" d="M3891.18,2702.583
				c2.913-32.871-21.703-59.766-54.703-59.766h-400c-33,0-60,27-60,60v918.104c0,33,27,60,60,60h308
				c33,0,62.384-26.895,65.297-59.766L3891.18,2702.583z"/>
			<circle fill="#C7C7C7" cx="3808.912" cy="2716.911" r="33.09"/>
			<circle fill="#C7C7C7" cx="3802.094" cy="2813.525" r="33.09"/>
			<circle fill="#C7C7C7" cx="3795.277" cy="2910.138" r="33.09"/>
			<circle fill="#C7C7C7" cx="3788.459" cy="3006.752" r="33.09"/>
			<circle fill="#C7C7C7" cx="3781.641" cy="3103.365" r="33.09"/>
			<circle fill="#C7C7C7" cx="3774.823" cy="3199.979" r="33.09"/>
			<circle fill="#C7C7C7" cx="3768.005" cy="3296.592" r="33.09"/>
			<circle fill="#C7C7C7" cx="3761.188" cy="3393.206" r="33.09"/>
			<g>
				<text transform="matrix(0 -1 1 0 3689.1899 3086.8213)" fill="#8A8A8A" font-family="'DINPro-Bold'" font-size="72">VIP Line 3</text>
			</g>
			<circle fill="#C7C7C7" cx="3719.309" cy="3604.245" r="33.09"/>
			<circle fill="#C7C7C7" cx="3632.449" cy="3604.245" r="33.09"/>
			<circle fill="#C7C7C7" cx="3545.588" cy="3604.245" r="33.09"/>
			<circle fill="#C7C7C7" cx="3458.728" cy="3604.245" r="33.09"/>
		</g>
		<g>
			<path fill="none" stroke="#B5B5B5" stroke-width="5" stroke-miterlimit="10" d="M6350.141,2702.583
				c-2.913-32.871,21.704-59.766,54.704-59.766h400c33,0,60,27,60,60v918.104c0,33-27,60-60,60h-308
				c-33,0-62.384-26.895-65.297-59.766L6350.141,2702.583z"/>
			<circle fill="#C7C7C7" cx="6782.094" cy="3604.245" r="33.09"/>
			<circle fill="#C7C7C7" cx="6695.234" cy="3604.245" r="33.09"/>
			<circle fill="#C7C7C7" cx="6608.374" cy="3604.245" r="33.09"/>
			<circle fill="#C7C7C7" cx="6521.514" cy="3604.245" r="33.09"/>
			<circle fill="#C7C7C7" cx="6432.408" cy="2716.911" r="33.09"/>
			<circle fill="#C7C7C7" cx="6439.226" cy="2813.525" r="33.09"/>
			<circle fill="#C7C7C7" cx="6446.044" cy="2910.138" r="33.09"/>
			<circle fill="#C7C7C7" cx="6452.862" cy="3006.752" r="33.09"/>
			<circle fill="#C7C7C7" cx="6459.68" cy="3103.365" r="33.09"/>
			<circle fill="#C7C7C7" cx="6466.498" cy="3199.979" r="33.09"/>
			<circle fill="#C7C7C7" cx="6473.315" cy="3296.592" r="33.09"/>
			<circle fill="#C7C7C7" cx="6480.133" cy="3393.206" r="33.09"/>
			<g>
				<text transform="matrix(0 -1 1 0 6603.5244 3086.8213)" fill="#8A8A8A" font-family="'DINPro-Bold'" font-size="72">VIP Line 3</text>
			</g>
		</g>
		<g>
			<path fill="none" stroke="#B5B5B5" stroke-width="5" stroke-miterlimit="10" d="M3914.58,2504.313
				c-2.42,32.911,22.6,59.839,55.6,59.839h218.058c33,0,87,0,120,0h1623.524c33,0,87,0,120,0h218.058c33,0,58.02-26.927,55.6-59.839
				l-18.602-252.997c-2.419-32.911-31.399-59.839-64.399-59.839h-315.943c-33,0-60-27-60-60v-292.629c0-33-27-60-60-60H4435.227
				c-33,0-60,27-60,60v292.629c0,33-27,60-60,60h-317.646c-33,0-61.98,26.927-64.4,59.839L3914.58,2504.313z"/>
			<circle fill="#C7C7C7" cx="4262.679" cy="2484.916" r="33.09"/>
			<circle fill="#C7C7C7" cx="4363.038" cy="2484.916" r="33.09"/>
			<circle fill="#C7C7C7" cx="4463.396" cy="2484.916" r="33.09"/>
			<circle fill="#C7C7C7" cx="4563.755" cy="2484.916" r="33.09"/>
			<circle fill="#C7C7C7" cx="4664.114" cy="2484.916" r="33.09"/>
			<circle fill="#C7C7C7" cx="4764.473" cy="2484.916" r="33.09"/>
			<circle fill="#C7C7C7" cx="4864.832" cy="2484.916" r="33.09"/>
			<circle fill="#C7C7C7" cx="4965.191" cy="2484.916" r="33.09"/>
			<circle fill="#C7C7C7" cx="5065.55" cy="2484.916" r="33.09"/>
			<circle fill="#C7C7C7" cx="5165.909" cy="2484.916" r="33.09"/>
			<circle fill="#C7C7C7" cx="5266.268" cy="2484.916" r="33.09"/>
			<circle fill="#C7C7C7" cx="5366.627" cy="2484.916" r="33.09"/>
			<circle fill="#C7C7C7" cx="5466.986" cy="2484.916" r="33.09"/>
			<circle fill="#C7C7C7" cx="5567.345" cy="2484.916" r="33.09"/>
			<circle fill="#C7C7C7" cx="5667.704" cy="2484.916" r="33.09"/>
			<circle fill="#C7C7C7" cx="5768.063" cy="2484.916" r="33.09"/>
			<circle fill="#C7C7C7" cx="5868.421" cy="2484.916" r="33.09"/>
			<circle fill="#C7C7C7" cx="5968.78" cy="2484.916" r="33.09"/>
			<g>
				<text transform="matrix(1 0 0 1 4960.7666 2371.4243)" fill="#8A8A8A" font-family="'DINPro-Bold'" font-size="72">VIP Line 2</text>
			</g>
			<g>
				<path fill="none" stroke="#B5B5B5" stroke-width="5" stroke-miterlimit="10" d="M5814.68,1894.849c0-33-27-60-60-60H4490.307
					c-33,0-60,27-60,60v234c0,33,27,60,60,60h1264.373c33,0,60-27,60-60V1894.849z"/>
				<circle fill="#C7C7C7" cx="5155.583" cy="2073.151" r="33.09"/>
				<g>
					<text transform="matrix(1 0 0 1 4940.6191 1998.9634)" fill="#8A8A8A" font-family="'DINPro-Bold'" font-size="72">VIP terminal</text>
				</g>
			</g>
		</g>
		<g>
			<path fill="none" stroke="#B5B5B5" stroke-width="5" stroke-miterlimit="10" d="M6235.476,2119.151
				c33,0.01,58.13-26.918,55.846-59.839l-59.643-859.304c-2.285-32.921-31.154-59.856-64.154-59.856H5180c-33,0-87,0-120,0h-987.524
				c-33,0-61.736,26.944-63.858,59.876l-55.284,858.017c-2.122,32.932,23.142,59.868,56.142,59.858l222.999-0.066
				c33-0.01,60-27.018,60-60.018v-292.971c0-33,27-60,60-60H5060c33,0,87,0,120,0h707.524c33,0,60,27,60,60v294.219
				c0,33,27,60.008,60,60.017L6235.476,2119.151z"/>
			<circle fill="#C7C7C7" cx="4022.589" cy="2044.141" r="33.09"/>
			<circle fill="#C7C7C7" cx="4127.589" cy="2044.141" r="33.09"/>
			<circle fill="#C7C7C7" cx="4229.589" cy="2044.141" r="33.09"/>
			<circle fill="#C7C7C7" cx="6020.589" cy="2044.141" r="33.09"/>
			<circle fill="#C7C7C7" cx="6125.589" cy="2044.141" r="33.09"/>
			<circle fill="#C7C7C7" cx="6227.589" cy="2044.141" r="33.09"/>
			<circle fill="#C7C7C7" cx="4252.254" cy="1635.031" r="33.09"/>
			<circle fill="#C7C7C7" cx="4350.204" cy="1635.031" r="33.09"/>
			<circle fill="#C7C7C7" cx="4448.153" cy="1635.031" r="33.09"/>
			<circle fill="#C7C7C7" cx="4546.103" cy="1635.031" r="33.09"/>
			<circle fill="#C7C7C7" cx="4644.053" cy="1635.031" r="33.09"/>
			<circle fill="#C7C7C7" cx="4742.002" cy="1635.031" r="33.09"/>
			<circle fill="#C7C7C7" cx="4839.952" cy="1635.031" r="33.09"/>
			<circle fill="#C7C7C7" cx="4937.901" cy="1635.031" r="33.09"/>
			<circle fill="#C7C7C7" cx="5035.851" cy="1635.031" r="33.09"/>
			<circle fill="#C7C7C7" cx="5133.801" cy="1635.031" r="33.09"/>
			<circle fill="#C7C7C7" cx="5231.75" cy="1635.031" r="33.09"/>
			<circle fill="#C7C7C7" cx="5329.7" cy="1635.031" r="33.09"/>
			<circle fill="#C7C7C7" cx="5427.649" cy="1635.031" r="33.09"/>
			<circle fill="#C7C7C7" cx="5521.649" cy="1635.031" r="33.09"/>
			<circle fill="#C7C7C7" cx="5619.326" cy="1635.031" r="33.09"/>
			<circle fill="#C7C7C7" cx="5717.003" cy="1635.031" r="33.09"/>
			<circle fill="#C7C7C7" cx="5814.68" cy="1635.031" r="33.09"/>
			<circle fill="#C7C7C7" cx="5912.356" cy="1635.031" r="33.09"/>
			<circle fill="#C7C7C7" cx="6010.033" cy="1635.031" r="33.09"/>
			<g>
				<text transform="matrix(1 0 0 1 4960.7666 1511.4243)" fill="#8A8A8A" font-family="'DINPro-Bold'" font-size="72">VIP Line 2</text>
			</g>
		</g>
		<g>
			<path fill="none" stroke="#B5B5B5" stroke-width="5" stroke-miterlimit="10" d="M5180,547.264c-33,0-87,0-120,0H3436.476
				c-33,0-60,27-60,60v1896.888c0,33,27,60,60,60h331.28c33,0,62.013-26.925,64.474-59.833l103.053-1378.334
				c2.46-32.908,31.474-59.833,64.474-59.833h2248.031c33,0,62.013,26.925,64.474,59.833l103.053,1378.334
				c2.461,32.908,31.474,59.833,64.474,59.833h323.738c33,0,60-27,60-60V607.264c0-33-27-60-60-60H5180z"/>
			<circle fill="#C7C7C7" cx="3836.184" cy="1124.971" r="33.09"/>
			<circle fill="#C7C7C7" cx="4023.265" cy="991.476" r="33.09"/>
			<circle fill="#C7C7C7" cx="4121.215" cy="991.476" r="33.09"/>
			<circle fill="#C7C7C7" cx="4219.165" cy="991.476" r="33.09"/>
			<circle fill="#C7C7C7" cx="4317.114" cy="991.476" r="33.09"/>
			<circle fill="#C7C7C7" cx="4415.064" cy="991.476" r="33.09"/>
			<circle fill="#C7C7C7" cx="4513.013" cy="991.476" r="33.09"/>
			<circle fill="#C7C7C7" cx="4610.963" cy="991.476" r="33.09"/>
			<circle fill="#C7C7C7" cx="4708.913" cy="991.476" r="33.09"/>
			<circle fill="#C7C7C7" cx="4806.862" cy="991.476" r="33.09"/>
			<circle fill="#C7C7C7" cx="4904.812" cy="991.476" r="33.09"/>
			<circle fill="#C7C7C7" cx="5002.761" cy="991.476" r="33.09"/>
			<circle fill="#C7C7C7" cx="5100.711" cy="991.476" r="33.09"/>
			<circle fill="#C7C7C7" cx="5198.661" cy="991.476" r="33.09"/>
			<circle fill="#C7C7C7" cx="5296.61" cy="991.476" r="33.09"/>
			<circle fill="#C7C7C7" cx="5390.61" cy="991.476" r="33.09"/>
			<circle fill="#C7C7C7" cx="5488.287" cy="991.476" r="33.09"/>
			<circle fill="#C7C7C7" cx="5585.963" cy="991.476" r="33.09"/>
			<circle fill="#C7C7C7" cx="5683.64" cy="991.476" r="33.09"/>
			<circle fill="#C7C7C7" cx="5781.317" cy="991.476" r="33.09"/>
			<circle fill="#C7C7C7" cx="5878.994" cy="991.476" r="33.09"/>
			<circle fill="#C7C7C7" cx="5976.67" cy="991.476" r="33.09"/>
			<circle fill="#C7C7C7" cx="6074.347" cy="991.476" r="33.09"/>
			<circle fill="#C7C7C7" cx="6172.023" cy="991.476" r="33.09"/>
			<circle fill="#C7C7C7" cx="6269.7" cy="991.476" r="33.09"/>
			<circle fill="#C7C7C7" cx="3829.366" cy="1221.584" r="33.09"/>
			<circle fill="#C7C7C7" cx="3822.548" cy="1318.198" r="33.09"/>
			<circle fill="#C7C7C7" cx="3815.73" cy="1414.811" r="33.09"/>
			<circle fill="#C7C7C7" cx="3808.912" cy="1511.424" r="33.09"/>
			<circle fill="#C7C7C7" cx="3802.094" cy="1608.038" r="33.09"/>
			<circle fill="#C7C7C7" cx="3795.277" cy="1704.651" r="33.09"/>
			<circle fill="#C7C7C7" cx="3788.459" cy="1801.265" r="33.09"/>
			<circle fill="#C7C7C7" cx="3781.641" cy="1897.878" r="33.09"/>
			<circle fill="#C7C7C7" cx="3774.823" cy="1994.491" r="33.09"/>
			<circle fill="#C7C7C7" cx="3768.005" cy="2091.105" r="33.09"/>
			<circle fill="#C7C7C7" cx="6408.381" cy="1124.971" r="33.09"/>
			<circle fill="#C7C7C7" cx="6415.199" cy="1221.584" r="33.09"/>
			<circle fill="#C7C7C7" cx="6422.017" cy="1318.198" r="33.09"/>
			<circle fill="#C7C7C7" cx="6428.834" cy="1414.811" r="33.09"/>
			<circle fill="#C7C7C7" cx="6435.652" cy="1511.424" r="33.09"/>
			<circle fill="#C7C7C7" cx="6442.47" cy="1608.038" r="33.09"/>
			<circle fill="#C7C7C7" cx="6449.288" cy="1704.651" r="33.09"/>
			<circle fill="#C7C7C7" cx="6456.106" cy="1801.265" r="33.09"/>
			<circle fill="#C7C7C7" cx="6462.924" cy="1897.878" r="33.09"/>
			<circle fill="#C7C7C7" cx="6469.742" cy="1994.491" r="33.09"/>
			<circle fill="#C7C7C7" cx="6476.56" cy="2091.105" r="33.09"/>
			<g>
				<text transform="matrix(1 0 0 1 5067.9736 745.1274)" enable-background="new    "><tspan x="0" y="0" fill="#8A8A8A" font-family="'DINPro-Bold'" font-size="72">VIP</tspan><tspan x="-44.352" y="76.4" fill="#8A8A8A" font-family="'DINPro-Bold'" font-size="72">Line 4</tspan></text>
			</g>
			<circle fill="#C7C7C7" cx="3456.269" cy="2496.916" r="33.09"/>
			<circle fill="#C7C7C7" cx="3548.088" cy="2496.916" r="33.09"/>
			<circle fill="#C7C7C7" cx="3642.588" cy="2496.916" r="33.09"/>
			<circle fill="#C7C7C7" cx="6582.599" cy="2496.916" r="33.09"/>
			<circle fill="#C7C7C7" cx="6674.418" cy="2496.916" r="33.09"/>
			<circle fill="#C7C7C7" cx="6768.918" cy="2496.916" r="33.09"/>
		</g>
	</g>
</g>
</svg>
