<?xml version="1.0" encoding="utf-8"?>
<!-- Generator: Adobe Illustrator 17.0.0, SVG Export Plug-In . SVG Version: 6.00 Build 0)  -->
<!DOCTYPE svg PUBLIC "-//W3C//DTD SVG 1.1//EN" "http://www.w3.org/Graphics/SVG/1.1/DTD/svg11.dtd">
<svg version="1.1" id="Layer_2" xmlns="http://www.w3.org/2000/svg" xmlns:xlink="http://www.w3.org/1999/xlink" x="0px" y="0px"
	 width="10240px" height="7680px" viewBox="0 0 10240 7680" enable-background="new 0 0 10240 7680" xml:space="preserve">
<path fill="#F5F5F5" d="M2426.976,3256.653h1216.492c33,0,60,27,60,60v1291.76c0,33-27,60-60,60H2426.976V3256.653z"/>
<g>
	<path fill="none" stroke="#D1D1D1" stroke-width="5" stroke-miterlimit="10" d="M2896.934,2317.427
		c0-14.876,12.171-27.047,27.047-27.047h279.62c14.876,0,27.047,12.171,27.047,27.047v446.515c0,14.876-12.171,27.048-27.047,27.048
		h-279.62c-14.876,0-27.047-12.171-27.047-27.048L2896.934,2317.427L2896.934,2317.427z"/>
	<circle fill="#C7C7C7" cx="2787.779" cy="2438.33" r="56.944"/>
	<circle fill="#C7C7C7" cx="2787.779" cy="2670.315" r="56.944"/>
	<circle fill="#C7C7C7" cx="3333.779" cy="2438.33" r="56.944"/>
	<circle fill="#C7C7C7" cx="3333.779" cy="2670.315" r="56.944"/>
	<g>
		<text transform="matrix(1 0 0 1 3031.1689 2587.1594)" fill="#8A8A8A" font-family="'DINPro'" font-size="124.9932">7</text>
	</g>
</g>
<g>
	<path fill="none" stroke="#D1D1D1" stroke-width="5" stroke-miterlimit="10" d="M5899.929,3331.598
		c14.876,0,27.047,12.171,27.047,27.047v279.62c0,14.876-12.171,27.047-27.047,27.047h-446.515
		c-14.876,0-27.048-12.171-27.048-27.047v-279.62c0-14.876,12.171-27.047,27.048-27.047L5899.929,3331.598L5899.929,3331.598z"/>
	<circle fill="#C7C7C7" cx="5776.442" cy="3222.442" r="56.944"/>
	<circle fill="#C7C7C7" cx="5576.899" cy="3222.442" r="56.944"/>
	<circle fill="#C7C7C7" cx="5776.442" cy="3783.442" r="56.944"/>
	<circle fill="#C7C7C7" cx="6068.514" cy="3498.456" r="56.944"/>
	<circle fill="#C7C7C7" cx="5576.899" cy="3783.442" r="56.944"/>
	<g>
		<text transform="matrix(1 0 0 1 5644.0483 3543.8911)" fill="#8A8A8A" font-family="'DINPro'" font-size="124.9932">9</text>
	</g>
</g>
<g>
	<path fill="none" stroke="#D1D1D1" stroke-width="5" stroke-miterlimit="10" d="M4323.929,4928.574
		c14.876,0,27.047,12.171,27.047,27.047v279.62c0,14.876-12.171,27.048-27.047,27.048h-545.953
		c-14.876,0-27.047-12.171-27.047-27.048v-279.62c0-14.876,12.171-27.047,27.047-27.047L4323.929,4928.574L4323.929,4928.574z"/>
	<circle fill="#C7C7C7" cx="4247.396" cy="5365.418" r="56.944"/>
	<circle fill="#C7C7C7" cx="4440.939" cy="5095.431" r="56.944"/>
	<circle fill="#C7C7C7" cx="3854.467" cy="5365.418" r="56.944"/>
	<circle fill="#C7C7C7" cx="4050.952" cy="5365.418" r="56.944"/>
	<g>
		<text transform="matrix(1 0 0 1 4016.4734 5140.8667)" fill="#8A8A8A" font-family="'DINPro'" font-size="124.9932">1</text>
	</g>
</g>
<g>
	<path fill="none" stroke="#D1D1D1" stroke-width="5" stroke-miterlimit="10" d="M3907.947,2317.427
		c0-14.876,12.171-27.047,27.047-27.047h279.62c14.876,0,27.048,12.171,27.048,27.047v446.515c0,14.876-12.171,27.048-27.048,27.048
		h-279.619c-14.876,0-27.047-12.171-27.047-27.048L3907.947,2317.427L3907.947,2317.427z"/>
	<circle fill="#C7C7C7" cx="3798.792" cy="2438.33" r="56.944"/>
	<circle fill="#C7C7C7" cx="3798.792" cy="2670.315" r="56.944"/>
	<circle fill="#C7C7C7" cx="4344.792" cy="2438.33" r="56.944"/>
	<circle fill="#C7C7C7" cx="4344.792" cy="2670.315" r="56.944"/>
	<g>
		<text transform="matrix(1 0 0 1 4042.1819 2587.1594)" fill="#8A8A8A" font-family="'DINPro'" font-size="124.9932">8</text>
	</g>
</g>
<g>
	<path fill="none" stroke="#D1D1D1" stroke-width="5" stroke-miterlimit="10" d="M5582.115,2317.427
		c0-14.876,12.171-27.047,27.047-27.047h279.62c14.876,0,27.047,12.171,27.047,27.047v446.515c0,14.876-12.171,27.048-27.047,27.048
		h-279.62c-14.876,0-27.047-12.171-27.047-27.048V2317.427L5582.115,2317.427z"/>
	<circle fill="#C7C7C7" cx="6018.959" cy="2438.33" r="56.944"/>
	<circle fill="#C7C7C7" cx="6018.959" cy="2670.315" r="56.944"/>
	<circle fill="#C7C7C7" cx="5748.972" cy="2900.747" r="56.944"/>
	<g>
		<text transform="matrix(1 0 0 1 5683.7266 2587.1594)" fill="#8A8A8A" font-family="'DINPro'" font-size="124.9932">10</text>
	</g>
</g>
<g>
	<path fill="none" stroke="#D1D1D1" stroke-width="5" stroke-miterlimit="10" d="M6638.22,2317.427
		c0-14.876,12.171-27.047,27.047-27.047h279.62c14.876,0,27.048,12.171,27.048,27.047v446.515c0,14.876-12.171,27.048-27.048,27.048
		h-279.62c-14.876,0-27.047-12.171-27.047-27.048L6638.22,2317.427L6638.22,2317.427z"/>
	<circle fill="#C7C7C7" cx="6529.064" cy="2438.33" r="56.944"/>
	<circle fill="#C7C7C7" cx="6529.064" cy="2670.315" r="56.944"/>
	<circle fill="#C7C7C7" cx="7075.064" cy="2438.33" r="56.944"/>
	<circle fill="#C7C7C7" cx="7075.064" cy="2670.315" r="56.944"/>
	<g>
		<text transform="matrix(1 0 0 1 6739.8325 2587.1594)" fill="#8A8A8A" font-family="'DINPro'" font-size="124.9932">11</text>
	</g>
</g>
<g>
	<path fill="none" stroke="#D1D1D1" stroke-width="5" stroke-miterlimit="10" d="M6638.22,4427.499
		c0-14.876,12.171-27.047,27.047-27.047h279.62c14.876,0,27.048,12.171,27.048,27.047v446.515c0,14.876-12.171,27.047-27.048,27.047
		h-279.62c-14.876,0-27.047-12.171-27.047-27.047L6638.22,4427.499L6638.22,4427.499z"/>
	<circle fill="#C7C7C7" cx="6529.064" cy="4548.401" r="56.944"/>
	<circle fill="#C7C7C7" cx="6529.064" cy="4780.385" r="56.944"/>
	<circle fill="#C7C7C7" cx="7075.064" cy="4548.401" r="56.944"/>
	<circle fill="#C7C7C7" cx="7075.064" cy="4780.385" r="56.944"/>
	<g>
		<text transform="matrix(1 0 0 1 6739.8325 4697.23)" fill="#8A8A8A" font-family="'DINPro'" font-size="124.9932">14</text>
	</g>
</g>
<g>
	<path fill="none" stroke="#B5B5B5" stroke-width="5" stroke-miterlimit="10" d="M5610.976,5347.475c0,33-27,60-60,60h-812
		c-33,0-60-27-60-60v-627.937c0-33,27-60,60-60h812c33,0,60,27,60,60V5347.475z"/>
	<circle fill="#C7C7C7" cx="4819.121" cy="4554.524" r="56.944"/>
	<circle fill="#C7C7C7" cx="5022.621" cy="4554.524" r="56.944"/>
	<circle fill="#C7C7C7" cx="5232.622" cy="4554.524" r="56.944"/>
	<circle fill="#C7C7C7" cx="5441.122" cy="4554.524" r="56.944"/>
	<circle fill="#C7C7C7" cx="5733.615" cy="4772.357" r="56.944"/>
	<circle fill="#C7C7C7" cx="5733.615" cy="4935.849" r="56.944"/>
	<circle fill="#C7C7C7" cx="5733.615" cy="5099.341" r="56.944"/>
	<circle fill="#C7C7C7" cx="5733.615" cy="5262.833" r="56.944"/>
	<g>
		<text transform="matrix(1 0 0 1 5050.876 5082.8335)" fill="#8A8A8A" font-family="'DINPro-Bold'" font-size="124.9932">Бар</text>
	</g>
	<g>
		<text transform="matrix(1 0 0 1 2863.3367 4035.259)" fill="#8A8A8A" font-family="'DINPro-Bold'" font-size="124.9932">Сцена</text>
	</g>
</g>
<g>
	<path fill="none" stroke="#D1D1D1" stroke-width="5" stroke-miterlimit="10" d="M6638.22,4017.894
		c0-14.876,12.171-27.047,27.047-27.047h279.62c14.876,0,27.048,12.171,27.048,27.047v223.258c0,14.876-12.171,27.048-27.048,27.048
		h-279.62c-14.876,0-27.047-12.172-27.047-27.048L6638.22,4017.894L6638.22,4017.894z"/>
	<circle fill="#C7C7C7" cx="6529.064" cy="4138.797" r="56.944"/>
	<circle fill="#C7C7C7" cx="7075.064" cy="4138.797" r="56.944"/>
	<circle fill="#C7C7C7" cx="6811.064" cy="3886.797" r="56.944"/>
	<g>
		<text transform="matrix(1 0 0 1 6739.8325 4179.626)" fill="#8A8A8A" font-family="'DINPro'" font-size="124.9932">13</text>
	</g>
</g>
<g>
	<path fill="none" stroke="#D1D1D1" stroke-width="5" stroke-miterlimit="10" d="M3900.462,3387.75
		c0-14.876,12.171-27.047,27.047-27.047h279.62c14.876,0,27.047,12.171,27.047,27.047v223.258c0,14.876-12.171,27.048-27.047,27.048
		h-279.62c-14.876,0-27.047-12.172-27.047-27.048V3387.75L3900.462,3387.75z"/>
	<circle fill="#C7C7C7" cx="4337.306" cy="3508.653" r="56.944"/>
	<circle fill="#C7C7C7" cx="4073.306" cy="3256.653" r="56.944"/>
	<circle fill="#C7C7C7" cx="4073.306" cy="3746.236" r="56.944"/>
	<g>
		<text transform="matrix(1 0 0 1 4034.6965 3549.4817)" fill="#8A8A8A" font-family="'DINPro'" font-size="124.9932">5</text>
	</g>
</g>
<g>
	<path fill="none" stroke="#D1D1D1" stroke-width="5" stroke-miterlimit="10" d="M3900.462,4223.301
		c0-14.876,12.171-27.047,27.047-27.047h279.62c14.876,0,27.047,12.171,27.047,27.047v223.258c0,14.876-12.171,27.047-27.047,27.047
		h-279.62c-14.876,0-27.047-12.171-27.047-27.047V4223.301L3900.462,4223.301z"/>
	<circle fill="#C7C7C7" cx="4337.306" cy="4344.204" r="56.944"/>
	<circle fill="#C7C7C7" cx="4073.306" cy="4092.204" r="56.944"/>
	<circle fill="#C7C7C7" cx="4073.306" cy="4581.787" r="56.944"/>
	<g>
		<text transform="matrix(1 0 0 1 4034.6965 4385.0327)" fill="#8A8A8A" font-family="'DINPro'" font-size="124.9932">4</text>
	</g>
</g>
<g>
	<path fill="none" stroke="#D1D1D1" stroke-width="5" stroke-miterlimit="10" d="M3510.983,4928.574
		c14.876,0,27.047,12.171,27.047,27.047v279.62c0,14.876-12.171,27.048-27.047,27.048h-223.258
		c-14.876,0-27.048-12.171-27.048-27.048v-279.62c0-14.876,12.171-27.047,27.048-27.047L3510.983,4928.574L3510.983,4928.574z"/>
	<circle fill="#C7C7C7" cx="3323.08" cy="5365.418" r="56.944"/>
	<circle fill="#C7C7C7" cx="3481.086" cy="5365.418" r="56.944"/>
	<g>
		<text transform="matrix(1 0 0 1 3370.814 5140.8667)" fill="#8A8A8A" font-family="'DINPro'" font-size="124.9932">2</text>
	</g>
</g>
<g>
	<path fill="none" stroke="#D1D1D1" stroke-width="5" stroke-miterlimit="10" d="M3015.591,4928.574
		c14.876,0,27.047,12.171,27.047,27.047v279.62c0,14.876-12.171,27.048-27.047,27.048h-223.258
		c-14.876,0-27.048-12.171-27.048-27.048v-279.62c0-14.876,12.172-27.047,27.048-27.047L3015.591,4928.574L3015.591,4928.574z"/>
	<circle fill="#C7C7C7" cx="2827.688" cy="5365.418" r="56.944"/>
	<circle fill="#C7C7C7" cx="2985.693" cy="5365.418" r="56.944"/>
	<g>
		<text transform="matrix(1 0 0 1 2875.4216 5140.8667)" fill="#8A8A8A" font-family="'DINPro'" font-size="124.9932">3</text>
	</g>
</g>
<g>
	<path fill="none" stroke="#D1D1D1" stroke-width="5" stroke-miterlimit="10" d="M6638.22,3310.519
		c0,14.876,12.171,27.047,27.047,27.047h279.62c14.876,0,27.048-12.171,27.048-27.047v-223.258
		c0-14.876-12.171-27.048-27.048-27.048h-279.62c-14.876,0-27.047,12.172-27.047,27.048L6638.22,3310.519L6638.22,3310.519z"/>
	<circle fill="#C7C7C7" cx="6529.064" cy="3189.616" r="56.944"/>
	<circle fill="#C7C7C7" cx="7075.064" cy="3189.616" r="56.944"/>
	<circle fill="#C7C7C7" cx="6811.064" cy="3441.616" r="56.944"/>
	<g>
		<text transform="matrix(1 0 0 1 6739.8325 3236.7864)" fill="#8A8A8A" font-family="'DINPro'" font-size="124.9932">12</text>
	</g>
</g>
<g>
	<path fill="none" stroke="#D1D1D1" stroke-width="5" stroke-miterlimit="10" d="M4560.007,4052.099
		c10.519,10.519,27.731,10.519,38.25,0l197.721-197.721c10.519-10.519,10.519-27.732,0-38.25l-157.867-157.867
		c-10.519-10.519-27.732-10.519-38.251,0l-197.721,197.721c-10.519,10.519-10.519,27.732,0,38.251L4560.007,4052.099
		L4560.007,4052.099z"/>
	<circle fill="#C7C7C7" cx="4783.411" cy="3657.712" r="56.944"/>
	<circle fill="#C7C7C7" cx="4774.926" cy="4022.579" r="56.944"/>
	<g>
		<text transform="matrix(1 0 0 1 4565.5254 3893.4534)" fill="#8A8A8A" font-family="'DINPro'" font-size="124.9932">6</text>
	</g>
</g>
<path fill="none" stroke="#B5B5B5" stroke-width="5" stroke-miterlimit="10" d="M7386.976,5522.164c0,33-27,60-60,60h-4840
	c-33,0-60-27-60-60V2153.469c0-33,27-60,60-60h4840c33,0,60,27,60,60V5522.164z"/>
<path fill="none" stroke="#B5B5B5" stroke-width="5" stroke-miterlimit="10" d="M5261.121,2093.469v516.845c0,33-27,60-60,60
	h-542.062c-33,0-60-27-60-60v-516.845"/>
<line fill="none" stroke="#B5B5B5" stroke-width="5" stroke-miterlimit="10" x1="7167.976" y1="3663.582" x2="6486.976" y2="3663.582"/>
<line fill="none" stroke="#B5B5B5" stroke-width="5" stroke-miterlimit="10" x1="7167.976" y1="5087.004" x2="6486.976" y2="5087.004"/>
</svg>
