<?xml version="1.0" encoding="utf-8"?>
<svg version="1.1" id="map-svg" xmlns="http://www.w3.org/2000/svg" xmlns:xlink="http://www.w3.org/1999/xlink" x="0px" y="0px" width="1024" height="768" viewBox="0 0 10240 7680" xml:space="preserve">
	<metadata>
		<?xpacket begin="﻿" id="W5M0MpCehiHzreSzNTczkc9d"?>
		<x:xmpmeta xmlns:x="adobe:ns:meta/" x:xmptk="Adobe XMP Core 5.5-c014 79.151739, 2013/04/03-12:12:15">
			<rdf:RDF xmlns:rdf="http://www.w3.org/1999/02/22-rdf-syntax-ns#">
				<rdf:Description rdf:about="" xmlns:xmp="http://ns.adobe.com/xap/1.0/" xmlns:xmpGImg="http://ns.adobe.com/xap/1.0/g/img/" xmlns:xmpTPg="http://ns.adobe.com/xap/1.0/t/pg/" xmlns:stDim="http://ns.adobe.com/xap/1.0/sType/Dimensions#" xmlns:stFnt="http://ns.adobe.com/xap/1.0/sType/Font#" xmlns:xmpG="http://ns.adobe.com/xap/1.0/g/" xmlns:dc="http://purl.org/dc/elements/1.1/" xmlns:xmpMM="http://ns.adobe.com/xap/1.0/mm/" xmlns:stRef="http://ns.adobe.com/xap/1.0/sType/ResourceRef#" xmlns:stEvt="http://ns.adobe.com/xap/1.0/sType/ResourceEvent#">
					<xmpTPg:MaxPageSize rdf:parseType="Resource">
						<stDim:w>10240.000397</stDim:w>
						<stDim:h>7680.000000</stDim:h>
						<stDim:unit>Points</stDim:unit>
					</xmpTPg:MaxPageSize>
					<xmpTPg:NPages>1</xmpTPg:NPages>
					<xmpTPg:HasVisibleTransparency>False</xmpTPg:HasVisibleTransparency>
					<xmpTPg:HasVisibleOverprint>False</xmpTPg:HasVisibleOverprint>
					<xmpTPg:Fonts>
						<rdf:Bag>
							<rdf:li rdf:parseType="Resource">
								<stFnt:fontName>DINPro</stFnt:fontName>
								<stFnt:fontFamily>DIN Pro</stFnt:fontFamily>
								<stFnt:fontFace>Regular</stFnt:fontFace>
								<stFnt:fontType>TrueType</stFnt:fontType>
								<stFnt:versionString>Version 7.504; 2005; Build 1021</stFnt:versionString>
								<stFnt:composite>False</stFnt:composite>
								<stFnt:fontFileName>DINPro.ttf</stFnt:fontFileName>
							</rdf:li>
						</rdf:Bag>
					</xmpTPg:Fonts>
					<xmpTPg:PlateNames>
						<rdf:Seq>
							<rdf:li>Cyan</rdf:li>
							<rdf:li>Magenta</rdf:li>
							<rdf:li>Yellow</rdf:li>
							<rdf:li>Black</rdf:li>
						</rdf:Seq>
					</xmpTPg:PlateNames>
					<xmpTPg:SwatchGroups>
						<rdf:Seq>
							<rdf:li rdf:parseType="Resource">
								<xmpG:groupName>Default Swatch Group</xmpG:groupName>
								<xmpG:groupType>0</xmpG:groupType>
							</rdf:li>
						</rdf:Seq>
					</xmpTPg:SwatchGroups>
					<dc:format>image/svg+xml</dc:format>
				</rdf:Description>
			</rdf:RDF>
		</x:xmpmeta>
		<?xpacket end="w"?>
	</metadata>
	<g id="background">
		<path id="1" fill="none" stroke="#B5B5B5" stroke-width="5" stroke-miterlimit="10" d="M7386.976,5522.164c0,33-27,60-60,60h-4840
			c-33,0-60-27-60-60V2153.469c0-33,27-60,60-60h4840c33,0,60,27,60,60V5522.164z"/>
		<g id="details">
			<path fill="#F5F5F5" d="M2426.976,3256.653h1216.492c33,0,60,27,60,60v1291.76c0,33-27,60-60,60H2426.976V3256.653z"/>
			<path fill="none" stroke="#D1D1D1" stroke-width="5" stroke-miterlimit="10" d="M4323.929,4928.574
				c14.876,0,27.047,12.171,27.047,27.047v279.62c0,14.876-12.171,27.048-27.047,27.048h-545.953
				c-14.876,0-27.047-12.171-27.047-27.048v-279.62c0-14.876,12.171-27.047,27.047-27.047L4323.929,4928.574L4323.929,4928.574z"/>
			<text transform="matrix(1 0 0 1 4016.4734 5140.8667)" fill="#8A8A8A" font-family="'DINPro'" font-size="124.9932">1</text>
			<path fill="none" stroke="#D1D1D1" stroke-width="5" stroke-miterlimit="10" d="M3510.983,4928.574
				c14.876,0,27.047,12.171,27.047,27.047v279.62c0,14.876-12.171,27.048-27.047,27.048h-223.258
				c-14.876,0-27.048-12.171-27.048-27.048v-279.62c0-14.876,12.171-27.047,27.048-27.047L3510.983,4928.574L3510.983,4928.574z"/>
			<text transform="matrix(1 0 0 1 3370.814 5140.8667)" fill="#8A8A8A" font-family="'DINPro'" font-size="124.9932">2</text>
			<path fill="none" stroke="#D1D1D1" stroke-width="5" stroke-miterlimit="10" d="M3015.591,4928.574
				c14.876,0,27.047,12.171,27.047,27.047v279.62c0,14.876-12.171,27.048-27.047,27.048h-223.258
				c-14.876,0-27.048-12.171-27.048-27.048v-279.62c0-14.876,12.172-27.047,27.048-27.047L3015.591,4928.574L3015.591,4928.574z"/>
			<text transform="matrix(1 0 0 1 2875.4216 5140.8667)" fill="#8A8A8A" font-family="'DINPro'" font-size="124.9932">3</text>
			<path fill="none" stroke="#D1D1D1" stroke-width="5" stroke-miterlimit="10" d="M3900.462,4223.301
				c0-14.876,12.171-27.047,27.047-27.047h279.62c14.876,0,27.047,12.171,27.047,27.047v223.258c0,14.876-12.171,27.047-27.047,27.047
				h-279.62c-14.876,0-27.047-12.171-27.047-27.047V4223.301L3900.462,4223.301z"/>
			<text transform="matrix(1 0 0 1 4034.6965 4385.0327)" fill="#8A8A8A" font-family="'DINPro'" font-size="124.9932">4</text>
			<path fill="none" stroke="#D1D1D1" stroke-width="5" stroke-miterlimit="10" d="M3900.462,3387.75
				c0-14.876,12.171-27.047,27.047-27.047h279.62c14.876,0,27.047,12.171,27.047,27.047v223.258c0,14.876-12.171,27.048-27.047,27.048
				h-279.62c-14.876,0-27.047-12.172-27.047-27.048V3387.75L3900.462,3387.75z"/>
			<text transform="matrix(1 0 0 1 4034.6965 3549.4817)" fill="#8A8A8A" font-family="'DINPro'" font-size="124.9932">5</text>
			<path fill="none" stroke="#D1D1D1" stroke-width="5" stroke-miterlimit="10" d="M4560.007,4052.099
				c10.519,10.519,27.731,10.519,38.25,0l197.721-197.721c10.519-10.519,10.519-27.732,0-38.25l-157.867-157.867
				c-10.519-10.519-27.732-10.519-38.251,0l-197.721,197.721c-10.519,10.519-10.519,27.732,0,38.251L4560.007,4052.099
				L4560.007,4052.099z"/>
			<text transform="matrix(1 0 0 1 4565.5254 3893.4534)" fill="#8A8A8A" font-family="'DINPro'" font-size="124.9932">6</text>
			<path fill="none" stroke="#D1D1D1" stroke-width="5" stroke-miterlimit="10" d="M2896.934,2317.427
				c0-14.876,12.171-27.047,27.047-27.047h279.62c14.876,0,27.047,12.171,27.047,27.047v446.515c0,14.876-12.171,27.048-27.047,27.048
				h-279.62c-14.876,0-27.047-12.171-27.047-27.048L2896.934,2317.427L2896.934,2317.427z"/>
			<text transform="matrix(1 0 0 1 3031.1689 2587.1594)" fill="#8A8A8A" font-family="'DINPro'" font-size="124.9932">7</text>
			<path fill="none" stroke="#D1D1D1" stroke-width="5" stroke-miterlimit="10" d="M3907.947,2317.427
				c0-14.876,12.171-27.047,27.047-27.047h279.62c14.876,0,27.048,12.171,27.048,27.047v446.515c0,14.876-12.171,27.048-27.048,27.048
				h-279.619c-14.876,0-27.047-12.171-27.047-27.048L3907.947,2317.427L3907.947,2317.427z"/>
			<text transform="matrix(1 0 0 1 4042.1819 2587.1594)" fill="#8A8A8A" font-family="'DINPro'" font-size="124.9932">8</text>
			<path fill="none" stroke="#D1D1D1" stroke-width="5" stroke-miterlimit="10" d="M5899.929,3331.598
				c14.876,0,27.047,12.171,27.047,27.047v279.62c0,14.876-12.171,27.047-27.047,27.047h-446.515
				c-14.876,0-27.048-12.171-27.048-27.047v-279.62c0-14.876,12.171-27.047,27.048-27.047L5899.929,3331.598L5899.929,3331.598z"/>
			<text transform="matrix(1 0 0 1 5644.0483 3543.8911)" fill="#8A8A8A" font-family="'DINPro'" font-size="124.9932">9</text>
			<path fill="none" stroke="#D1D1D1" stroke-width="5" stroke-miterlimit="10" d="M5582.115,2317.427
				c0-14.876,12.171-27.047,27.047-27.047h279.62c14.876,0,27.047,12.171,27.047,27.047v446.515c0,14.876-12.171,27.048-27.047,27.048
				h-279.62c-14.876,0-27.047-12.171-27.047-27.048V2317.427L5582.115,2317.427z"/>
			<text transform="matrix(1 0 0 1 5683.7266 2587.1594)" fill="#8A8A8A" font-family="'DINPro'" font-size="124.9932">10</text>
			<path fill="none" stroke="#D1D1D1" stroke-width="5" stroke-miterlimit="10" d="M6638.22,2317.427
				c0-14.876,12.171-27.047,27.047-27.047h279.62c14.876,0,27.048,12.171,27.048,27.047v446.515c0,14.876-12.171,27.048-27.048,27.048
				h-279.62c-14.876,0-27.047-12.171-27.047-27.048L6638.22,2317.427L6638.22,2317.427z"/>
			<text transform="matrix(1 0 0 1 6739.8325 2587.1594)" fill="#8A8A8A" font-family="'DINPro'" font-size="124.9932">11</text>
			<path fill="none" stroke="#D1D1D1" stroke-width="5" stroke-miterlimit="10" d="M6638.22,3310.519
				c0,14.876,12.171,27.047,27.047,27.047h279.62c14.876,0,27.048-12.171,27.048-27.047v-223.258
				c0-14.876-12.171-27.048-27.048-27.048h-279.62c-14.876,0-27.047,12.172-27.047,27.048L6638.22,3310.519L6638.22,3310.519z"/>
			<text transform="matrix(1 0 0 1 6739.8325 3236.7864)" fill="#8A8A8A" font-family="'DINPro'" font-size="124.9932">12</text>
			<path fill="none" stroke="#D1D1D1" stroke-width="5" stroke-miterlimit="10" d="M6638.22,4427.499
				c0-14.876,12.171-27.047,27.047-27.047h279.62c14.876,0,27.048,12.171,27.048,27.047v446.515c0,14.876-12.171,27.047-27.048,27.047
				h-279.62c-14.876,0-27.047-12.171-27.047-27.047L6638.22,4427.499L6638.22,4427.499z"/>
			<text transform="matrix(1 0 0 1 6739.8325 4697.23)" fill="#8A8A8A" font-family="'DINPro'" font-size="124.9932">15</text>
			<path fill="none" stroke="#B5B5B5" stroke-width="5" stroke-miterlimit="10" d="M5610.976,5347.475c0,33-27,60-60,60h-812
				c-33,0-60-27-60-60v-627.937c0-33,27-60,60-60h812c33,0,60,27,60,60V5347.475z"/>
			<text transform="matrix(1 0 0 1 5050.876 5082.8335)" fill="#8A8A8A" font-family="'DINPro-Bold'" font-size="124.9932">Бар</text>
			<path fill="none" stroke="#D1D1D1" stroke-width="5" stroke-miterlimit="10" d="M6638.22,4017.894
				c0-14.876,12.171-27.047,27.047-27.047h279.62c14.876,0,27.048,12.171,27.048,27.047v223.258c0,14.876-12.171,27.048-27.048,27.048
				h-279.62c-14.876,0-27.047-12.172-27.047-27.048L6638.22,4017.894L6638.22,4017.894z"/>
			<text transform="matrix(1 0 0 1 6739.8325 4179.626)" fill="#8A8A8A" font-family="'DINPro'" font-size="124.9932">14</text>
			<path fill="none" stroke="#B5B5B5" stroke-width="5" stroke-miterlimit="10" d="M5261.121,2093.469v516.845c0,33-27,60-60,60
				h-542.062c-33,0-60-27-60-60v-516.845"/>
			<text transform="matrix(1 0 0 1 2863.3367 4035.259)" fill="#8A8A8A" font-family="'DINPro-Bold'" font-size="124.9932">Сцена</text>
			<line fill="none" stroke="#B5B5B5" stroke-width="5" stroke-miterlimit="10" x1="7167.976" y1="3663.582" x2="6486.976" y2="3663.582"/>
			<line fill="none" stroke="#B5B5B5" stroke-width="5" stroke-miterlimit="10" x1="7167.976" y1="5087.004" x2="6486.976" y2="5087.004"/>
		</g>
	</g>
	<g id="labels">
		<text dataSectorId="1">Tweed amp Eat</text>
	</g>
</svg>
