<svg enable-background="new 0 0 8000 6000" viewBox="0 0 8000 6000" xmlns="http://www.w3.org/2000/svg"><g fill="#ddd"><circle cx="2700.6" cy="1095.3" r="70"/><circle cx="2511" cy="1854" r="70"/><circle cx="2321.4" cy="1095.3" r="70"/><circle cx="2611.4" cy="4602" r="70"/><circle cx="2321.4" cy="4602" r="70"/><circle cx="3191.4" cy="4602" r="70"/><circle cx="2901.4" cy="4602" r="70"/><circle cx="3771.4" cy="4602" r="70"/><circle cx="3481.4" cy="4602" r="70"/><circle cx="2800.6" cy="2931.9" r="70"/><circle cx="3073.8" cy="2820" r="70"/><circle cx="3073.8" cy="2285" r="70"/><circle cx="2800.6" cy="2173.1" r="70"/><circle cx="3952.4" cy="2931.9" r="70"/><circle cx="4225.6" cy="2820" r="70"/><circle cx="4225.6" cy="2285" r="70"/><circle cx="3952.4" cy="2173.1" r="70"/><circle cx="2594" cy="4031.9" r="70"/><circle cx="2867.2" cy="3920" r="70"/><circle cx="2937.2" cy="3652.5" r="70"/><circle cx="2867.2" cy="3385" r="70"/><circle cx="2594" cy="3273.1" r="70"/><circle cx="3719.9" cy="4031.9" r="70"/><circle cx="3993.1" cy="3920" r="70"/><circle cx="4063.1" cy="3652.5" r="70"/><circle cx="3993.1" cy="3385" r="70"/><circle cx="3719.9" cy="3273.1" r="70"/><circle cx="4976.9" cy="3541.2" r="70"/><circle cx="4675" cy="3541.2" r="70"/><circle cx="5250.1" cy="3429.3" r="70"/><circle cx="5320.1" cy="3161.8" r="70"/><circle cx="5250.1" cy="2894.3" r="70"/><circle cx="4976.9" cy="2782.4" r="70"/><circle cx="6130.9" cy="3541.2" r="70"/><circle cx="5829" cy="3541.2" r="70"/><circle cx="6404" cy="3429.3" r="70"/><circle cx="6474" cy="3161.8" r="70"/><circle cx="6404" cy="2894.3" r="70"/><circle cx="6130.9" cy="2782.4" r="70"/><circle cx="3345.6" cy="1095.1" r="70"/><circle cx="3156" cy="1853.9" r="70"/><circle cx="2966.4" cy="1095.1" r="70"/><circle cx="5925.6" cy="1095.1" r="70"/><circle cx="5736" cy="1853.9" r="70"/><circle cx="5546.4" cy="1095.1" r="70"/><circle cx="4635.6" cy="1095.1" r="70"/><circle cx="4446" cy="1853.9" r="70"/><circle cx="4256.4" cy="1095.1" r="70"/><circle cx="3990.6" cy="1095.1" r="70"/><circle cx="3611.4" cy="1853.9" r="70"/><circle cx="3990.6" cy="1853.9" r="70"/><circle cx="3611.4" cy="1095.1" r="70"/><circle cx="5280.6" cy="1095.1" r="70"/><circle cx="4901.4" cy="1853.9" r="70"/><circle cx="5280.6" cy="1853.9" r="70"/><circle cx="4901.4" cy="1095.1" r="70"/><circle cx="6570.6" cy="1095.1" r="70"/><circle cx="6191.4" cy="1095.1" r="70"/></g><path d="m2652.2 3850h-282.4c-31 0-56.3-25.3-56.3-56.3v-282.4c0-31.1 25.5-56.3 56.3-56.3h282.4c31.1 0 56.3 25.2 56.3 56.3v282.4c0 31.1-25.5 56.3-56.3 56.3z" fill="none" stroke="#ddd" stroke-miterlimit="10" stroke-width="10"/><path d="m3805.2 3850h-282.4c-31 0-56.3-25.3-56.3-56.3v-282.4c0-31.1 25.5-56.3 56.3-56.3h282.4c31.1 0 56.3 25.2 56.3 56.3v282.4c0 31.1-25.5 56.3-56.3 56.3z" fill="none" stroke="#ddd" stroke-miterlimit="10" stroke-width="10"/><path d="m2849.7 2750h-282.4c-31 0-56.3-25.3-56.3-56.3v-282.4c0-31.1 25.5-56.3 56.3-56.3h282.4c31.1 0 56.3 25.2 56.3 56.3v282.4c0 31.1-25.5 56.3-56.3 56.3z" fill="none" stroke="#ddd" stroke-miterlimit="10" stroke-width="10"/><path d="m4002.7 2750h-282.4c-31 0-56.3-25.3-56.3-56.3v-282.4c0-31.1 25.5-56.3 56.3-56.3h282.4c31.1 0 56.3 25.2 56.3 56.3v282.4c0 31.1-25.5 56.3-56.3 56.3z" fill="none" stroke="#ddd" stroke-miterlimit="10" stroke-width="10"/><path d="m5012.2 3359.3h-282.4c-31 0-56.3-25.3-56.3-56.3v-282.4c0-31.1 25.5-56.3 56.3-56.3h282.4c31.1 0 56.3 25.2 56.3 56.3v282.4c0 31.1-25.5 56.3-56.3 56.3z" fill="none" stroke="#ddd" stroke-miterlimit="10" stroke-width="10"/><path d="m6165.2 3359.3h-282.4c-31 0-56.3-25.3-56.3-56.3v-282.4c0-31.1 25.5-56.3 56.3-56.3h282.4c31.1 0 56.3 25.2 56.3 56.3v282.4c0 31.1-25.5 56.3-56.3 56.3z" fill="none" stroke="#ddd" stroke-miterlimit="10" stroke-width="10"/><path d="m2652.2 1672h-282.4c-31 0-56.3-25.3-56.3-56.3v-282.4c0-31.1 25.5-56.3 56.3-56.3h282.4c31.1 0 56.3 25.2 56.3 56.3v282.4c0 31.1-25.5 56.3-56.3 56.3z" fill="none" stroke="#ddd" stroke-miterlimit="10" stroke-width="10"/><path d="m3297.2 1672h-282.4c-31 0-56.3-25.3-56.3-56.3v-282.4c0-31.1 25.5-56.3 56.3-56.3h282.4c31.1 0 56.3 25.2 56.3 56.3v282.4c0 31.1-25.5 56.3-56.3 56.3z" fill="none" stroke="#ddd" stroke-miterlimit="10" stroke-width="10"/><path d="m3942.2 1672h-282.4c-31 0-56.3-25.3-56.3-56.3v-282.4c0-31.1 25.5-56.3 56.3-56.3h282.4c31.1 0 56.3 25.2 56.3 56.3v282.4c0 31.1-25.5 56.3-56.3 56.3z" fill="none" stroke="#ddd" stroke-miterlimit="10" stroke-width="10"/><path d="m4587.2 1672h-282.4c-31 0-56.3-25.3-56.3-56.3v-282.4c0-31.1 25.5-56.3 56.3-56.3h282.4c31.1 0 56.3 25.2 56.3 56.3v282.4c0 31.1-25.5 56.3-56.3 56.3z" fill="none" stroke="#ddd" stroke-miterlimit="10" stroke-width="10"/><path d="m5232.2 1672h-282.4c-31 0-56.3-25.3-56.3-56.3v-282.4c0-31.1 25.5-56.3 56.3-56.3h282.4c31.1 0 56.3 25.2 56.3 56.3v282.4c0 31.1-25.5 56.3-56.3 56.3z" fill="none" stroke="#ddd" stroke-miterlimit="10" stroke-width="10"/><path d="m5877.2 1672h-282.4c-31 0-56.3-25.3-56.3-56.3v-282.4c0-31.1 25.5-56.3 56.3-56.3h282.4c31.1 0 56.3 25.2 56.3 56.3v282.4c0 31.1-25.5 56.3-56.3 56.3z" fill="none" stroke="#ddd" stroke-miterlimit="10" stroke-width="10"/><path d="m6522.2 1672h-282.4c-31 0-56.3-25.3-56.3-56.3v-282.4c0-31.1 25.5-56.3 56.3-56.3h282.4c31.1 0 56.3 25.2 56.3 56.3v282.4c0 31.1-25.5 56.3-56.3 56.3z" fill="none" stroke="#ddd" stroke-miterlimit="10" stroke-width="10"/><path d="m1432.1 3815.6c487-489.9 484.8-1280.4-5.1-1767.4" fill="none" stroke="#ddd" stroke-miterlimit="10" stroke-width="5"/><path d="m3282.2 3082.3h-1027.3c-1.9 0-3.5-1.6-3.5-3.5v-1027.3c0-1.9 1.6-3.5 3.5-3.5h1027.3c1.9 0 3.5 1.6 3.5 3.5v1027.3c0 1.9-1.6 3.5-3.5 3.5z" fill="none"/><path d="m4434.3 3082.3h-1027.3c-1.9 0-3.5-1.6-3.5-3.5v-1027.3c0-1.9 1.6-3.5 3.5-3.5h1027.3c1.9 0 3.5 1.6 3.5 3.5v1027.3c0 1.9-1.6 3.5-3.5 3.5z" fill="none"/><path d="m4279 4169.7h-1027.3c-1.9 0-3.5-1.6-3.5-3.5v-1027.4c0-1.9 1.6-3.5 3.5-3.5h1027.3c1.9 0 3.5 1.6 3.5 3.5v1027.3c0 2-1.5 3.6-3.5 3.6z" fill="none"/><path d="m3138.3 4169.7h-1027.3c-1.9 0-3.5-1.6-3.5-3.5v-1027.4c0-1.9 1.6-3.5 3.5-3.5h1027.3c1.9 0 3.5 1.6 3.5 3.5v1027.3c0 2-1.6 3.6-3.5 3.6z" fill="none"/><path d="m5468.6 3678.9h-1027.3c-1.9 0-3.5-1.6-3.5-3.5v-1027.3c0-1.9 1.6-3.5 3.5-3.5h1027.3c1.9 0 3.5 1.6 3.5 3.5v1027.3c0 2-1.6 3.5-3.5 3.5z" fill="none"/><path d="m6635 3678.9h-1027.3c-1.9 0-3.5-1.6-3.5-3.5v-1027.3c0-1.9 1.6-3.5 3.5-3.5h1027.3c1.9 0 3.5 1.6 3.5 3.5v1027.3c0 2-1.5 3.5-3.5 3.5z" fill="none"/><path d="m3987.1 4768h-1876.1c-1.9 0-3.5-1.6-3.5-3.5v-337c0-1.9 1.6-3.5 3.5-3.5h1876.2c1.9 0 3.5 1.6 3.5 3.5v337c-.1 1.9-1.7 3.5-3.6 3.5z" fill="none"/><path d="m2824.8 1991.7h-645.3c-1.9 0-3.5-1.6-3.5-3.5v-1027.4c0-1.9 1.6-3.5 3.5-3.5h645.3c1.9 0 3.5 1.6 3.5 3.5v1027.3c0 2-1.6 3.6-3.5 3.6z" fill="none"/><path d="m3469.8 1991.7h-638c-1.9 0-3.5-1.6-3.5-3.5v-1027.4c0-1.9 1.6-3.5 3.5-3.5h638c1.9 0 3.5 1.6 3.5 3.5v1027.3c0 2-1.6 3.6-3.5 3.6z" fill="none"/><path d="m4125.2 1991.7h-648.4c-1.9 0-3.5-1.6-3.5-3.5v-1027.4c0-1.9 1.6-3.5 3.5-3.5h648.4c1.9 0 3.5 1.6 3.5 3.5v1027.3c0 2-1.6 3.6-3.5 3.6z" fill="none"/><path d="m4770.2 1991.7h-638c-1.9 0-3.5-1.6-3.5-3.5v-1027.4c0-1.9 1.6-3.5 3.5-3.5h638c1.9 0 3.5 1.6 3.5 3.5v1027.3c0 2-1.6 3.6-3.5 3.6z" fill="none"/><path d="m5410 1991.7h-632.8c-1.9 0-3.5-1.6-3.5-3.5v-1027.4c0-1.9 1.6-3.5 3.5-3.5h632.8c1.9 0 3.5 1.6 3.5 3.5v1027.3c0 2-1.6 3.6-3.5 3.6z" fill="none"/><path d="m6049.8 1991.7h-632.8c-1.9 0-3.5-1.6-3.5-3.5v-1027.4c0-1.9 1.6-3.5 3.5-3.5h632.8c1.9 0 3.5 1.6 3.5 3.5v1027.3c0 2-1.6 3.6-3.5 3.6z" fill="none"/><path d="m6689.6 1991.7h-632.8c-1.9 0-3.5-1.6-3.5-3.5v-1027.4c0-1.9 1.6-3.5 3.5-3.5h632.8c1.9 0 3.5 1.6 3.5 3.5v1027.3c0 2-1.6 3.6-3.5 3.6z" fill="none"/></svg>