<?xml version="1.0" encoding="utf-8"?>
<svg version="1.1" id="map-svg" xmlns="http://www.w3.org/2000/svg" xmlns:xlink="http://www.w3.org/1999/xlink" x="0px" y="0px" width="1024" height="768" viewBox="0 0 10240 7680" xml:space="preserve">
	<metadata>
		<?xpacket begin="﻿" id="W5M0MpCehiHzreSzNTczkc9d"?>
		<x:xmpmeta xmlns:x="adobe:ns:meta/" x:xmptk="Adobe XMP Core 5.5-c014 79.151739, 2013/04/03-12:12:15">
			<rdf:RDF xmlns:rdf="http://www.w3.org/1999/02/22-rdf-syntax-ns#">
				<rdf:Description rdf:about="" xmlns:xmp="http://ns.adobe.com/xap/1.0/" xmlns:xmpGImg="http://ns.adobe.com/xap/1.0/g/img/" xmlns:xmpTPg="http://ns.adobe.com/xap/1.0/t/pg/" xmlns:stDim="http://ns.adobe.com/xap/1.0/sType/Dimensions#" xmlns:stFnt="http://ns.adobe.com/xap/1.0/sType/Font#" xmlns:xmpG="http://ns.adobe.com/xap/1.0/g/" xmlns:dc="http://purl.org/dc/elements/1.1/" xmlns:xmpMM="http://ns.adobe.com/xap/1.0/mm/" xmlns:stRef="http://ns.adobe.com/xap/1.0/sType/ResourceRef#" xmlns:stEvt="http://ns.adobe.com/xap/1.0/sType/ResourceEvent#">
					<xmpTPg:MaxPageSize rdf:parseType="Resource">
						<stDim:w>10240.000397</stDim:w>
						<stDim:h>7680.000000</stDim:h>
						<stDim:unit>Points</stDim:unit>
					</xmpTPg:MaxPageSize>
					<xmpTPg:NPages>1</xmpTPg:NPages>
					<xmpTPg:HasVisibleTransparency>False</xmpTPg:HasVisibleTransparency>
					<xmpTPg:HasVisibleOverprint>False</xmpTPg:HasVisibleOverprint>
					<xmpTPg:Fonts>
						<rdf:Bag>
							<rdf:li rdf:parseType="Resource">
								<stFnt:fontName>DINPro</stFnt:fontName>
								<stFnt:fontFamily>DIN Pro</stFnt:fontFamily>
								<stFnt:fontFace>Regular</stFnt:fontFace>
								<stFnt:fontType>TrueType</stFnt:fontType>
								<stFnt:versionString>Version 7.504; 2005; Build 1021</stFnt:versionString>
								<stFnt:composite>False</stFnt:composite>
								<stFnt:fontFileName>DINPro.ttf</stFnt:fontFileName>
							</rdf:li>
						</rdf:Bag>
					</xmpTPg:Fonts>
					<xmpTPg:PlateNames>
						<rdf:Seq>
							<rdf:li>Cyan</rdf:li>
							<rdf:li>Magenta</rdf:li>
							<rdf:li>Yellow</rdf:li>
							<rdf:li>Black</rdf:li>
						</rdf:Seq>
					</xmpTPg:PlateNames>
					<xmpTPg:SwatchGroups>
						<rdf:Seq>
							<rdf:li rdf:parseType="Resource">
								<xmpG:groupName>Default Swatch Group</xmpG:groupName>
								<xmpG:groupType>0</xmpG:groupType>
							</rdf:li>
						</rdf:Seq>
					</xmpTPg:SwatchGroups>
					<dc:format>image/svg+xml</dc:format>
				</rdf:Description>
			</rdf:RDF>
		</x:xmpmeta>
		<?xpacket end="w"?>
	</metadata>
	<g id="background">
		<path name="parter" tc-sector="5e53e1c0c738bd2c2562faa1" id="5e53e1c0c738bd2c2562faa1" fill="none" stroke="#B5B5B5" stroke-width="5" stroke-miterlimit="10" d="M5279.356,1758.433c-22.881,0-60.321,0-83.202,0
		H3552.376c-22.88,0-41.601,18.721-41.601,41.601v524.196c0,22.881,11.676,38.901,25.945,35.602
		c14.27-3.3,30.084,12.258,35.145,34.572l293.356,1293.812c5.06,22.314-3.443,54.379-18.893,71.255l-143.428,156.661
		c-15.45,16.876-14.646,43.709,1.788,59.63l989.459,958.527c16.434,15.921,48.6,28.946,71.48,28.946h430.528
		c22.88,0,60.321,0,83.202,0h445.78c22.881,0,54.952-13.124,71.268-29.164l974.631-958.092
		c16.317-16.041,17.026-42.971,1.576-59.847l-143.427-156.661c-15.451-16.876-23.952-48.941-18.894-71.255l293.356-1293.812
		c5.059-22.314,20.875-37.871,35.145-34.572c14.271,3.3,25.945-12.721,25.945-35.602v-524.195c0-22.88-18.721-41.601-41.601-41.601
		H5279.356z"/>
		<path name="sector L" tc-sector="5e53e1c0c738bd2c2562fa9f" id="5e53e1c0c738bd2c2562fa9f" fill="none" stroke="#B5B5B5" stroke-width="5" stroke-miterlimit="10" d="M7642.209,2410.2
		c22.324,5.017,40.589-9.6,40.589-32.48v-866.654c0-22.881-18.721-41.601-41.601-41.601h-583.977
		c-22.881,0-41.601,18.72-41.601,41.601v716.744c0,22.881,18.266,45.706,40.59,50.721L7642.209,2410.2z"/>
		<path name="sector K" tc-sector="5e53e1c0c738bd2c2562fa9e" id="5e53e1c0c738bd2c2562fa9e" fill="none" stroke="#B5B5B5" stroke-width="5" stroke-miterlimit="10" d="M6698.113,3722.688
		c-22.076-6.012-35.988-29.185-30.915-51.496l279.216-1227.914c5.074-22.311,21.204-38.562,35.85-36.113
		c14.644,2.448,26.826-14.268,27.072-37.147l0.125-11.682c0.246-22.879,18.708-37.471,41.026-32.427l570.456,128.933
		c22.318,5.044,36.304,27.398,31.082,49.674l-316.197,1348.749c-5.223,22.277-27.558,35.584-49.634,29.573L6698.113,3722.688z"/>
		<path name="sector G" tc-sector="5e53e1c0c738bd2c2562fa9d" id="5e53e1c0c738bd2c2562fa9d" fill="none" stroke="#B5B5B5" stroke-width="5" stroke-miterlimit="10" d="M7698.716,2508.846
		c5.524-22.204,28.764-40.37,51.645-40.37h384.578c22.881,0,41.602,18.72,41.602,41.601v2557.353
		c0,22.881-18.721,41.601-41.602,41.601h-426.915c-22.88,0-41.602-18.721-41.602-41.601V2680.24c0-22.88,4.521-59.767,10.044-81.971
		L7698.716,2508.846z"/>
		<path name="sector F" tc-sector="5e53e1c0c738bd2c2562fa9c" id="5e53e1c0c738bd2c2562fa9c" fill="none" stroke="#B5B5B5" stroke-width="5" stroke-miterlimit="10" d="M6563.843,5347.863
		c16.041,16.317,42.479,16.507,58.752,0.423l836.612-825.279c16.273-16.084,16.464-42.594,0.424-58.911l-519.97-528.926
		c-16.041-16.317-42.479-16.507-58.752-0.423l-836.613,825.279c-16.274,16.084-16.464,42.594-0.424,58.91L6563.843,5347.863z"/>
		<path name="sector E" tc-sector="5e53e1c0c738bd2c2562fa9b" id="5e53e1c0c738bd2c2562fa9b" fill="none" stroke="#B5B5B5" stroke-width="5" stroke-miterlimit="10" d="M6291.549,5187.384
		c0-22.88-13.158-54.918-29.24-71.192l-256.393-259.475c-16.082-16.276-42.533-16.41-58.78-0.301l-127.1,126.023
		c-16.248,16.11-48.261,29.291-71.142,29.291H4733.818c-22.881,0-55.167-12.901-71.746-28.67l-136.245-129.578
		c-16.58-15.768-43.188-15.24-59.128,1.173l-253.755,261.282c-15.941,16.414-28.983,48.563-28.983,71.444v687.625
		c0,22.881,18.721,41.601,41.601,41.601h2024.387c22.88,0,41.601-18.721,41.601-41.601v-687.624h0V5187.384z"/>
		<path name="sector D" tc-sector="5e53e1c0c738bd2c2562fa9a" id="5e53e1c0c738bd2c2562fa9a" fill="none" stroke="#B5B5B5" stroke-width="5" stroke-miterlimit="10" d="M2777.542,2508.69
		c-5.86-22.117-29.375-40.213-52.256-40.213h-379.274c-22.88,0-41.601,18.72-41.601,41.601v2396.317
		c0,22.88,18.72,41.601,41.601,41.601h421.61c22.88,0,41.601-18.721,41.601-41.601V2669.864c0-22.88-4.795-59.697-10.655-81.814
		L2777.542,2508.69z"/>
		<path name="sector C" tc-sector="5e53e1c0c738bd2c2562fa99" id="5e53e1c0c738bd2c2562fa99" fill="none" stroke="#B5B5B5" stroke-width="5" stroke-miterlimit="10" d="M3011.782,4462.427
		c-16.052,16.305-15.812,42.743,0.537,58.751l838.833,823.022c16.348,16.008,42.857,15.767,58.909-0.538l520.363-528.539
		c16.053-16.305,15.811-42.743-0.536-58.751l-838.833-823.023c-16.348-16.009-42.857-15.766-58.909,0.538L3011.782,4462.427z"/>
		<path name="sector B" tc-sector="5e53e1c0c738bd2c2562fa98" id="5e53e1c0c738bd2c2562fa98" fill="none" stroke="#B5B5B5" stroke-width="5" stroke-miterlimit="10" d="M3779.839,3722.688
		c22.077-6.012,35.988-29.185,30.915-51.496L3531.54,2443.278c-5.074-22.311-23.064-38.251-39.981-35.422
		c-16.916,2.828-30.756-13.578-30.756-36.458v-13.059c0-22.881-18.25-37.43-40.555-32.332l-563.259,128.738
		c-22.306,5.098-36.282,27.495-31.06,49.772l316.196,1348.749c5.222,22.277,27.558,35.584,49.635,29.572L3779.839,3722.688z"/>
		<path name="sector A" tc-sector="5e53e1c0c738bd2c2562fa97" id="5e53e1c0c738bd2c2562fa97" fill="none" stroke="#B5B5B5" stroke-width="5" stroke-miterlimit="10" d="M3421.442,2278.531
		c22.324-5.016,40.59-27.841,40.59-50.721v-716.744c0-22.881-18.72-41.601-41.601-41.601h-583.977
		c-22.881,0-41.601,39.521-41.601,62.401v845.854c0,22.88,18.265,37.497,40.589,32.48L3421.442,2278.531z"/>
		<g id="details">
			<path fill="#F5F5F5" d="M3035.243,5110.447c0-22.881-18.72-41.601-41.601-41.601h-659.569c-22.881,0-41.601,18.721-41.601,41.601
				v291.641c0,22.88,18.72,41.601,41.601,41.601h659.569c22.88,0,41.601-18.721,41.601-41.601V5110.447z"/>
			<text transform="matrix(1 0 0 1 2574.9126 5293.6738)" fill="#8A8A8A" font-family="'DINPro-Bold'" font-size="92.9056">Бар</text>
			<path fill="#F5F5F5" d="M4928.68,6022.896c0-22.88-18.72-41.601-41.601-41.601H4227.51c-22.88,0-41.601,18.72-41.601,41.601
				v291.641c0,22.881,18.72,41.601,41.601,41.601h659.569c22.88,0,41.601-18.721,41.601-41.601V6022.896z"/>
			<text transform="matrix(1 0 0 1 4468.3506 6206.1255)" fill="#8A8A8A" font-family="'DINPro-Bold'" font-size="92.9056">Бар</text>
			<path fill="#F5F5F5" d="M6964.735,1365.463c0-22.881-18.721-41.601-41.601-41.601H3552.376c-22.88,0-41.601,18.72-41.601,41.601
				v308.366c0,22.88,18.72,41.601,41.601,41.601h3370.759c22.88,0,41.601-18.72,41.601-41.601V1365.463z"/>
			<text transform="matrix(1 0 0 1 5104.4834 1555.9863)" fill="#8A8A8A" font-family="'DINPro-Bold'" font-size="92.9056">Сцена</text>
			<text transform="matrix(1 0 0 1 4915.8872 3014.625)" fill="#8A8A8A" font-family="'DINPro-Bold'" font-size="92.9056">Танцевальный</text>
			<text transform="matrix(1 0 0 1 5087.6675 3126.1118)" fill="#8A8A8A" font-family="'DINPro-Bold'" font-size="92.9056">партер</text>
			<text transform="matrix(1.122415e-010 -1 1 1.122415e-010 7603.5278 2109.6941)" fill="#8A8A8A" font-family="'DINPro-Bold'" font-size="92.9056">Сектор L</text>
			<text transform="matrix(0.2594 -0.9658 0.9658 0.2594 7366.7568 3348.3298)" fill="#8A8A8A" font-family="'DINPro-Bold'" font-size="92.9109">Сектор K</text>
			<text transform="matrix(1.122415e-010 -1 1 1.122415e-010 8078.8501 3926.0393)" fill="#8A8A8A" font-family="'DINPro-Bold'" font-size="92.9056">Сектор G</text>
			<text transform="matrix(0.7186 -0.6955 0.6955 0.7186 6871.3711 4956.1494)" fill="#8A8A8A" font-family="'DINPro-Bold'" font-size="92.9037">Сектор F</text>
			<text transform="matrix(1 0 0 1 5030.9912 5833.4072)" fill="#8A8A8A" font-family="'DINPro-Bold'" font-size="92.9056">Сектор E</text>
			<text transform="matrix(-2.244832e-011 1 -1 -2.244832e-011 2385.5222 3543.3677)" fill="#8A8A8A" font-family="'DINPro-Bold'" font-size="92.9056">Сектор D</text>
			<text transform="matrix(0.7071 0.7071 -0.7071 0.7071 3408.4668 4763.5176)" fill="#8A8A8A" font-family="'DINPro-Bold'" font-size="92.9038">Сектор С</text>
			<text transform="matrix(0.2205 0.9754 -0.9754 0.2205 3022.8276 2963.0486)" fill="#8A8A8A" font-family="'DINPro-Bold'" font-size="92.9079">Сектор B</text>
			<text transform="matrix(-2.244832e-011 1 -1 -2.244832e-011 2873.384 1732.7813)" fill="#8A8A8A" font-family="'DINPro-Bold'" font-size="92.9056">Сектор A</text>
		</g>
	</g>
	<g id="labels">
		<text dataSectorId="5e53e1c0c738bd2c2562fa97">Сектор A</text>
		<text dataSectorId="5e53e1c0c738bd2c2562fa98">Сектор B</text>
		<text dataSectorId="5e53e1c0c738bd2c2562fa99">Сектор С</text>
		<text dataSectorId="5e53e1c0c738bd2c2562fa9a">Сектор D</text>
		<text dataSectorId="5e53e1c0c738bd2c2562fa9b">Сектор E</text>
		<text dataSectorId="5e53e1c0c738bd2c2562fa9c">Сектор F</text>
		<text dataSectorId="5e53e1c0c738bd2c2562fa9d">Сектор G</text>
		<text dataSectorId="5e53e1c0c738bd2c2562fa9e">Сектор K</text>
		<text dataSectorId="5e53e1c0c738bd2c2562fa9f">Сектор L</text>
		<text dataSectorId="5e53e1c0c738bd2c2562faa1">Танцевальный партер</text>
	</g>
</svg>
