<?xml version="1.0" encoding="utf-8"?>
<!-- Generator: Adobe Illustrator 17.0.0, SVG Export Plug-In . SVG Version: 6.00 Build 0)  -->
<!DOCTYPE svg PUBLIC "-//W3C//DTD SVG 1.1//EN" "http://www.w3.org/Graphics/SVG/1.1/DTD/svg11.dtd">
<svg version="1.1" id="Layer_2" xmlns="http://www.w3.org/2000/svg" xmlns:xlink="http://www.w3.org/1999/xlink" x="0px" y="0px"
	 width="10240px" height="7680px" viewBox="0 0 10240 7680" enable-background="new 0 0 10240 7680" xml:space="preserve">
<metadata><?xpacket begin="﻿" id="W5M0MpCehiHzreSzNTczkc9d"?>
<x:xmpmeta xmlns:x="adobe:ns:meta/" x:xmptk="Adobe XMP Core 5.5-c014 79.151739, 2013/04/03-12:12:15        ">
   <rdf:RDF xmlns:rdf="http://www.w3.org/1999/02/22-rdf-syntax-ns#">
      <rdf:Description rdf:about=""
            xmlns:xmp="http://ns.adobe.com/xap/1.0/"
            xmlns:xmpGImg="http://ns.adobe.com/xap/1.0/g/img/"
            xmlns:xmpTPg="http://ns.adobe.com/xap/1.0/t/pg/"
            xmlns:stDim="http://ns.adobe.com/xap/1.0/sType/Dimensions#"
            xmlns:stFnt="http://ns.adobe.com/xap/1.0/sType/Font#"
            xmlns:xmpG="http://ns.adobe.com/xap/1.0/g/"
            xmlns:dc="http://purl.org/dc/elements/1.1/"
            xmlns:xmpMM="http://ns.adobe.com/xap/1.0/mm/"
            xmlns:stRef="http://ns.adobe.com/xap/1.0/sType/ResourceRef#"
            xmlns:stEvt="http://ns.adobe.com/xap/1.0/sType/ResourceEvent#">
         <xmp:CreatorTool>Adobe Illustrator CC (Windows)</xmp:CreatorTool>
         <xmp:CreateDate>2020-06-06T13:45:15+03:00</xmp:CreateDate>
         <xmp:MetadataDate>2020-06-06T13:45:15+03:00</xmp:MetadataDate>
         <xmp:ModifyDate>2020-06-06T13:45:15+03:00</xmp:ModifyDate>
         <xmp:Thumbnails>
            <rdf:Alt>
               <rdf:li rdf:parseType="Resource">
                  <xmpGImg:width>256</xmpGImg:width>
                  <xmpGImg:height>256</xmpGImg:height>
                  <xmpGImg:format>JPEG</xmpGImg:format>
                  <xmpGImg:image>/9j/4AAQSkZJRgABAgEACgAKAAD/7QAsUGhvdG9zaG9wIDMuMAA4QklNA+0AAAAAABAACgAAAAEA&#xA;AQAKAAAAAQAB/+4ADkFkb2JlAGTAAAAAAf/bAIQABgQEBAUEBgUFBgkGBQYJCwgGBggLDAoKCwoK&#xA;DBAMDAwMDAwQDA4PEA8ODBMTFBQTExwbGxscHx8fHx8fHx8fHwEHBwcNDA0YEBAYGhURFRofHx8f&#xA;Hx8fHx8fHx8fHx8fHx8fHx8fHx8fHx8fHx8fHx8fHx8fHx8fHx8fHx8fHx8f/8AAEQgBAAEAAwER&#xA;AAIRAQMRAf/EAaIAAAAHAQEBAQEAAAAAAAAAAAQFAwIGAQAHCAkKCwEAAgIDAQEBAQEAAAAAAAAA&#xA;AQACAwQFBgcICQoLEAACAQMDAgQCBgcDBAIGAnMBAgMRBAAFIRIxQVEGE2EicYEUMpGhBxWxQiPB&#xA;UtHhMxZi8CRygvElQzRTkqKyY3PCNUQnk6OzNhdUZHTD0uIIJoMJChgZhJRFRqS0VtNVKBry4/PE&#xA;1OT0ZXWFlaW1xdXl9WZ2hpamtsbW5vY3R1dnd4eXp7fH1+f3OEhYaHiImKi4yNjo+Ck5SVlpeYmZ&#xA;qbnJ2en5KjpKWmp6ipqqusra6voRAAICAQIDBQUEBQYECAMDbQEAAhEDBCESMUEFURNhIgZxgZEy&#xA;obHwFMHR4SNCFVJicvEzJDRDghaSUyWiY7LCB3PSNeJEgxdUkwgJChgZJjZFGidkdFU38qOzwygp&#xA;0+PzhJSktMTU5PRldYWVpbXF1eX1RlZmdoaWprbG1ub2R1dnd4eXp7fH1+f3OEhYaHiImKi4yNjo&#xA;+DlJWWl5iZmpucnZ6fkqOkpaanqKmqq6ytrq+v/aAAwDAQACEQMRAD8A9U4q7FXYq7FXYq7FXYq7&#xA;FXYq7FXYq7FXYqwxrLzxBqUlzG7T2az3klvbGQcv3iOsHPk1PTBClR2qdthiqidK84SRWkE3riXT&#xA;wR9YS5osxa5iZSSGQvxhDg81GKqVxZ+fZ7IW3pSBYRMFcSrHI5dJQAx9V+a1KUJp8tsVR8mka/D5&#xA;cntEWQ3huWeIWsgiVVdajgA8X7tXOy8h40PQqqc1t51cagrJIUvIVgtik6hopIuCep1XiJOTuSpr&#xA;02GKsh8vWt5a6cYLouXSe49MyuZW9IzOYquSxPwU6nFUyxV2KuxV2KuxV2KuxV2KuxV2KuxV2Kux&#xA;VS+tRdg5HYhHIPyIGKu+tR/yyf8AIuT/AJpxV31qP+WT/kXJ/wA04q761H/LJ/yLk/5pxVo3cQBJ&#xA;DgDqfTk/5pxVf6yeDf8AAt/TFXesng3/AALf0xV3rJ4N/wAC39MVW/W4PFv+Bb+mKu+tweLf8C39&#xA;MVd9bg8W/wCBb+mKu+tweLf8C39MVd9bg8W/4Fv6Yq763B4t/wAC39MVd9bg8W/4Fv6Yq763B4t/&#xA;wLf0xV31uDxb/gW/pirvrcHi3/At/TFXfW4PFv8AgW/pirvrcHi3/At/TFXfW4PFv+Bb+mKu+twe&#xA;Lf8AAt/TFXfW4PFv+Bb+mKtrcRN05H/Yt/TFW/WTwb/gW/pirvWTwb/gW/pirvWTwb/gW/pirvWT&#xA;wb/gW/pirvWTwb/gW/pirvWTwb/gW/pirvWTwb/gW/pirayKxoKg+4I/WMVWWn+8kP8AxjX9QxVV&#xA;xV2KuxVZP/cyf6p/Viq/FXYq49DiqCxV2KuxV2KuxV2KqdzcRW1vLcTNxhhRpJGoTRUFSaD2GKpa&#xA;3mrQo1JnuRbspo8cwZGUkA0II8DX5b4qibDWtLv3KWdyszheZC1+zyK13HiKYqjcVdirsVdirsVd&#xA;iqtbfaPyxVXxV2KuxV2KuxV2KuxVZJ9uP/W/41OKrbT/AHkh/wCMa/qGKquKuxV2KrZQTE4G5KkA&#xA;fRiq7FXYq49MVQphk8MVd6Mn8uKu9GT+XFXejJ/LirvRk/lxV3oyfy4qte3Z0ZHQMjAhlNCCDsQQ&#xA;cVQC+WNGWQSLp0AYUoRGvYgg08fhG+Kq9ro1laSNJa2kUEjDizxoqkgnlQke+Kor0ZP5cVd6Mn8u&#xA;Ku9GT+XFXejJ/LirvRk/lxV3oyfy4qqwRspJYUxVVxV2KuxV2KuxV2KuxVZJ9uP/AFv+NTiq20/3&#xA;kh/4xr+oYqq4q7FXYql2q69Y6ZJFHchy0yu8fBa1EdC/cdAa4qqaTq9pqts1xa8vTVzGeYoeQAPu&#xA;O+Ko3FXYq7FXYq7FXYq7FXYq7FXYq7FXYq7FXYq7FXYq7FXYq7FXYq7FXYq7FXYq7FVkn24/9b/j&#xA;U4qp28iR2MUkjBUWNSzHYABRiq62u7a6j9S3kEiA0JHjiq25vrO1KC4lWMuaKD3xVXxVSuLS0uKf&#xA;WIUl4cuPNQ1Awo1K+I2OKr4oo4o1jiUJGgoqKKAAdgBiq7FXYq7FVMKHd+RPwmgoSOwPY++Kt+in&#xA;i3/BN/XFXeini3/BN/XFXeini3/BN/XFXeini3/BN/XFXeini3/BN/XFXeini3/BN/XFXeini3/B&#xA;N/XFXeini3/BN/XFXeini3/BN/XFXeini3/BN/XFXeini3/BN/XFXeivi3/BN/XFW4mLRox6lQT9&#xA;IxVdirsVdirsVdirsVdirsVWSfbj/wBb/jU4qgn+rz6ctrLy4vEoYr1GwOKqel21pp0LRxs7l25M&#xA;zAfLtiqnqmn2OoyRySPIjIOPw03Wtab4qmcEsTAIlQFAAB8Btiq6f+5k/wBU/qxVfiqxbiBmdFkV&#xA;nj+2oIJX5gYqp/XIvBvw/riqrHIrryXpirUf25P9b/jUYqvxV2KuxV2KuxV2KuxV2KuxV2KuxV2K&#xA;rIP7mP8A1R+rFVM3kQJFDt8sVXC5hMbSMwRF+0zUAH04quEyMivERIH+wQaqfpFfDFXUm/mX/gT/&#xA;AM1Yq6k38y/8Cf8AmrFXUm/mX/gT/wA1Yq6k38y/8Cf+asVdSb+Zf+BP/NWKrHMgkh5EEFyNgR+w&#xA;x8TiqAT+7j/1E/4iMVQ+pG9FhObKn1sITCDTdhvTfbfpviqvCJREglIMoUeoV2Bam9PauKoqy/vT&#xA;/q/xGKomf+5k/wBU/qxVfiqTWGhx2l7PcLceoeLAR03HLf4t8VVcVR1p/c/ScVXx/bk/1v8AjUYq&#xA;vxV2KuxV2KuxV2KuxV2KuxV2KuxV2KrIP7mP/VH6sVS9vtH54q1PYi+sZrcv6dSpD9RUb7jFVXTd&#xA;PFhbQwB/U+MsW6CpU9BiqPxV2KpPrmtXNhPDHDCriQVJau+9OK074qnCmoBIoT2xVJdP1XUp9Xlt&#xA;ZoQsK8uxBXj0Ne9cVTWb+8t/+Mh/5NtiqFkkht9LF08fP04lPEbE7AYqpaNew6jA8hg9NkbiRUkH&#xA;avXbFVLWNUg06WKP6v6hccieRUAVpt13xVNoUiCh0XjyAO/Wh3xV0/8Acyf6p/Viq/FUl0/QpbO9&#xA;numn5o6sFUVqeW/xYqgr3R5Li/jukn4BXhdkIY/3LMTT4qDkG49MVZDaf3P0nFV8f25P9b/jUYqv&#xA;xV2KuxV2KrJpoYYzJNIsUYoC7kKBU0G5xVfiq2SSOJC8jBEHVmIAH0nFV2KuxV2KuxV2KrIP7mP/&#xA;AFR+rFWOa5barPJF9RkMYUS+oRJwqStE2Cmu+/X9dQqjWsLm70lrUyhZyE5vvxZl619ifbFUTpdj&#xA;LZWkEEriRw7HatBVTsK4qmGKqN1I6ICpoSeuKoU3Ex6t+rFUO+tQJci1e4C3B4gRnqS3Sm2Kon6x&#xA;N/N+rFV0crvJFyNaSbfTG+Kq9qA1nCCKgxqCD0I44qqRQxRJwiRY068VAUfcMVakghl4+rGr8DVe&#xA;QBofEVxVfiqyf+5k/wBU/qxVfiqSadpep29/cTTzc4nDbciSxPTbtTFURQ+GKo20BEIr4nFV8f25&#xA;P9b/AI1GKr8VdirsVdiqB1rSYNW097GZ3jjcqxeOgb4GDdwfDFUmuvIlrKkqRX91EJq8viVgAX5/&#xA;DQLSjAfRt2GKtT+QLGdJEkv7ykrF3AkWlSVJAqpoKp0/oMVZLDEIoUiBLCNQoLbkgCm+Kr8Vdirs&#xA;VdiqyD+5j/1R+rFUA6tzOx64qsu7e8n0+aO1YpKxWhrxqB1FcVVdKt7y3s4I7t+cocnryoOJoK4q&#xA;mGKqN2jMg4itDiqF9GX+Q/diqFfR43u2umjdpW4DctQemSy0HTqcVRXoy/yH7sVXxRuskXIUrJtX&#xA;/jG+KttdC10lbgqX9OJTxHfYYqp6Nqv6RgeQx+myNxIrUHavXbFVLWdd/R0sUYh9TmORNeNBWm2x&#xA;xVNEbmisBTkAaHrviq2f+5k/1T+rFV+KpJpuu3N3fT27whEQMVIrVeJp8VcVRXqy/wA7fecVRlsz&#xA;NECxqa9cVXR/bk/1v+NRiq/FXYq7FXYq7FULqdrLd2MtvE/pu4ADHp1rQ07HFVLRLCexsvRncO/I&#xA;sAKkKDTYVxVH4q7FXYq7FXYqsg/uY/8AVH6sVQTyy8j8Z6+JxVTu9QntNPmuEX1XQqAGqQKmlT7Y&#xA;qqaXfS3tpBPKnpuXYGlaGincVxVMMVdiqTa7pmo3k8D2svBEFCORWhr9rbFU5AIABNT3OKpLp+l6&#xA;nDq8tzNNygbl+0SWB+zt2piqazf3lv8A8ZD/AMm2xVCR3Di3jSgK+moIIrWqjFWhdLbxEgRwxLud&#xA;gqj37DFW3nEvEuiScd0JUGnuK4qiLe4eRyrU6V2xVVn/ALmT/VP6sVX4qk9jr0d5dz2ywFKKxV61&#xA;J47fEKbYqgbvWVtr+OzMJZpHhVW5KKiYuKgHc8fTNf8AOqrILT+5+k4qvj+3J/rf8ajFV+KuxV2K&#xA;uxV2KuxV2KuxV2KuxV2KuxVZB/cx/wCqP1Yqx3WtaTTXQNGJPUErfbVaCNeRNDuR22xVHHUhbaW1&#xA;4Yi3IIRESOr9iRUbYqiNNv1vraGcR+n8ZUp1FQp6HbFUfirsVSzVtdj06aOJojIXHJiCBQVp9OKp&#xA;mpBAI6HcYqldlr8N1qL2axMvHkFkJ68etR2xVHzf3lv/AMZD/wAm2xVApG/pREKSCiU2/wAkYqh9&#xA;R00X9lLaSh1jlABK9diCP1YqrW9qYII4UVikSqikjeiigriqKtEcSEkECnf54qiJ/wC5k/1T+rFV&#xA;+KpRZarptxeXENvD6cxDEy8VHOnWpG/34quKKxBIBI3BI6HFUfaf3P0nFV8f25P9b/jUYqvxV2Ku&#xA;xV2KuxV2KuxV2KuxV2KuxV2KrIP7mP8A1R+rFUuljjdzzUNQmlQD1xV0t1bWtjNJOnqRDivp0BBr&#xA;0FDtiqtp13bXVrBJbJ6UYcr6dAOJCnag2xVHYqpzymNQQKkmmKoOZ4ZyrTQRyFN0LCtPlXFXHVYx&#xA;J6ReMSVA4chyqRUClfDFWkaGOZpkgjWV/tSAUY198VVhMZZIaihEnb3jfFVri5OkAWppcGFfTPvQ&#xA;eOKqWhR6mlq4vyS/L93yIZqU7kVxVR12LW3mgOnlhGPtcSF+Kv7VeoxVN05cF5/boOVOle+KrZ/7&#xA;mT/VP6sVX4qh4tOsoZZJYolSSQEOw9+vyxVr6kP5/wAMVV4oxGnEGvvirVJFZioBDGu5I7AeB8MV&#xA;dWb+Vf8Agj/zTirqzfyr/wAEf+acVdWb+Vf+CP8AzTirqzfyr/wR/wCacVdWb+Vf+CP/ADTirqzf&#xA;yr/wR/5pxV1Zv5V/4I/804q6s38q/wDBH/mnFXVm/lX/AII/804q6s38q/8ABH/mnFXVm/lX/gj/&#xA;AM04q6s38q/8Ef8AmnFVyLxRV68QBX5YqoNZqSTyO/tirjYwPC8MyiSN/tKfbFW47eG3WGKFAkas&#xA;aKP9U4qr4qh73+7X54qg8VSmfy5az6qNSklf1VdGVAFApHQhelT8Qr49sVTbFVWD+8i/4yf8y3xV&#xA;VtLaM2sJq/2F/wB2P4D/ACsVak+ro5UmUkdf3j/81Yq0rW7MB+9Fdq+o/wDzViqv9Vj/AJpP+Rkn&#xA;/NWKtG0iIIJcg7EepJ/zViq/0U8W/wCCb+uKu9FPFv8Agm/rirvRTxb/AIJv64q70U8W/wCCb+uK&#xA;oczxAkUf/g2/rirvXi8H/wCDb+uKoiMmrqTUKaCvWlAf44qvxV2KuxV2KuxV2KuxV2KuxV2KuxV2&#xA;KuxVZJ9uP/W/41OKr8VdiqTa7NrMc8AsEJjI+Ligb4q9GqDQYqnAGwqBXviqTafNrbatMlzGRaDl&#xA;SqgKAPs8WpviqazD95b/APGQ/wDJtsVSbUbTWZksmsXKxLGvIK/CjU+0d9xTFUfcV9Y13O1T9AxV&#xA;ZH/eL8xiqhZWmtJrMss8hNmS1KtUEH7IC12p8sVTnFXYq7FXYqkt8+uDWIhbg/VKrWgHGn7XI4q6&#xA;++tei31WnrclpUA/DzHLqR+zXFWrP616H+lU9UPIKgAAoJG4GgJ6pTFU4j+3J/rf8ajFV+KuxV2K&#xA;uxV2KuxV2KuxV2KuxV2KuxV2KrJPtx/63/GpxVfirsVQ13qVjaOiXEojaT7IIJ+k0Bp9OKonriqG&#xA;h1OwmuWtopg06V5JQ9utCRQ/RiqpN/eW/wDxkP8AybbFUMNRsrS3tkuJRG0ka8Qa+A8OmKtXYDSu&#xA;DuDT9WKoLSLCOwtorWM1VGJqKgVdixoCTtvtviqaRajZS3LW0cytOleSCvbrv02xVEYq7FXYq7FX&#xA;YqgNQNvZ2z3MhYqtPhWlSSaDFVumvbX9sJ4+arUqytSoI+WKo6P7cn+t/wAajFV+KuxV2KuxVxNA&#xA;Seg3xVDfXR/J+OKqsMwlBoKUxVUxV2Kqc0wiAqK1xVS+uj+T8cVRINQCOh3xV2KrJPtx/wCt/wAa&#xA;nFV+KrZJFjWrYqleo2OnahJHJMZA0Yp8NBUVrQ1riqPF3CAAAaDYYql9rp+mW1615H6nqNWikjiv&#xA;LrTFUe0ySSQce0hrX/jG+KoGbRLTUIrWWYsrJEi/CRutK0NQcVRFwhEpoDSgp92KrY0f1F2PUYq6&#xA;30Ozg1B71CxkYsQpI4gt1ptiqYYq7FXYq7FXYqsnghniaKZA8bfaU9MVat7aC3iEUCCOMdFHviq8&#xA;KASR+0an7qYq3irsVdirsVSSwu9ak1C4juoytsqtSq0Vf5eLU3riqvirppLuOxuHtF5XAC8ABU9d&#xA;yB32xVV0Sa/msed8pWXkeNV4krtQkbYq3rM19DYs9kpaaorQciF7kDFVC3lvJbC3e8XjOeXIEcTS&#xA;uxI7bYq3iqhqV3rUV7bR2kZa3ZVrReQJ7hjTbFU7xV1Aae3TFXYqh73+7X54qg8VS25stTfUopor&#xA;ox2qyKzxV6oEbkKU7tTv3PtiqZYqqwf3kf8Axk/5lviq2KeVYYgGoAiUH+xGKuW7kYkLJUqaNSho&#xA;etDiqKW7gVY1mlRJJNlViAWPsMVV8VdirsVdirsVUXvLWOdYHlVZn+zGTua9MVQsl3ItS0nFa0qa&#xA;AbmgxVqO9aRQ8codakclIIqDQ9MVR6ElnB7NQf8AAg4quxV2KuxV2KqbSRsJEVgXUHkoIJG3cYqx&#xA;3V5dZiKtp8QnXieSfCp5CRO7HunL5dcVTyzIUSEmgFCSfpxVEo6OoZGDKejA1BxVzuiKWdgqjqxN&#xA;AMVQ14ysI2Ugg1II3HbFUk05dY+syNevWHgOCBUA58mBpQlvsgHfxxVkKyRqsaswVmA4qSATt2xV&#xA;UxVj2rN5wF9KunKhtar6THgDR4mrXl/JIg7fte2Kp5aC5W1hF0yvchFEzICFL0+IrXtXFVR0RxRh&#xA;UYqkus6nDp00UYt/U5jkxLEbVpQdcVTZbeAgHh136n+uKpRY6rBdanJZ/ViqqWCvyJPweIxVNXjR&#xA;JIOIpWQ1/wCRbYqgU/u4/wDUT/iIxVDWGnpZfWOMryfWJnnPqEHiX6hdhtiqpeeX47+SG4aYx8VC&#xA;soFagEnY1FOuKp1irsVY5fnzqbi4Sz9IRCVVt5G4UKFgxZqgnZX4dP2a98VZEnPgvMgvQciooK96&#xA;A1xVvFUsu9BgudRS9aRlKlSyClCV6b9sVUby1juYmhk+yWVtqVqjBh19xiqH0jSoNLsltIGZ41NQ&#xA;z0r0AHQDsMVT6P7cn+t/xqMVX4q7FXYq7FUmstBa0vp7sz81YPxWlD8W/wARxVVxVuWzN7ZXFsH9&#xA;Mvxo3yNd8VVdH05tPtPQaT1GLFyegFQBQfdirer6eb+zMCv6bcgwNKjbscVUIbI2VlBbF+ZTkS3T&#xA;qa7Yq7FVLUNBa9u4LkTcFVVDLSpopr8OKpziriQCAe+w/XirsVdiqyVIDRpVVuBqpYA0PtXFWvrE&#xA;P8368VbSOEMZURQ79XAFT8ziq2b+8t/+Mh/5Ntiq23H+hREKC/pLxr48dsVSzQpdXlmnF/GRGPsl&#xA;kC/FXouwqMVTrFXYq7FXYq7FXYq7FUHqzXUdjK9onK4FONFDHruQO+2KrNFe8lsVe9TjNU0qoUle&#xA;xIxVGR/bk/1v+NRiq/FXYq7FXYq01OJr0pviqX/uvBvvH9MVRNnwo3EGu1a4qiMVdiqHvOFF5A13&#xA;pTFUNWLwb7x/TFUwSnEU6UFMVbxVZJ9uP/W/41OKr8VQ+ofWvqU31T/ejj+76dfpxVL9NGpjTm+v&#xA;158/g5U5cad6e+KqmKqWrjVzbW36P5U39XhSvbj17dcVTAetws/Wp61R6lOnL0mrT6cVVLT/AHkh&#xA;/wCMa/qGKpWl9rJ1w25iP1PkRXjtxps3PFU0unmS2leFecyoTGviwG2KoDQbvU7iKU3yFeJHpsV4&#xA;E1rXbbpiqaYq7FXYqpzXVtAVE0qxlzRAxAqfauKqU9zIkhVaUGKrUu5S4BpQmmKqy3Vs0zQLKhmX&#xA;7UYI5D6MVXR/bk/1v+NRiq/FXYq7FXYqklhca4+oXCXaFbYB6VWij+Xi1BXFVfFXTSXkdjcPZryu&#xA;AF4ACp670HfbFVXRJdQksuV8pWbkQvIcWK7UJG2Kt6zJfx2LNYqWmqK8RyYL3oMVULeS8ksLdrwF&#xA;bg8uQI4mldqjttireKqGpXGuR3tslmhNuVWtF5KTXfkabYqneKrJPtx/63/GpxVfirTukaF3YKii&#xA;rMTQAYqhnuYLi19SCQSJWnJTXfFULiqLN3bW1vG08qxhtlLGlTiq+UhntyDUFyQR0I9NsVQKO3pR&#xA;ip2RKf8AAjFW+TeJxVRhv4Zp54I5OUlsVWUV6FhyH4Yqrcm8TiqLs2JRqmtDtiqIxV2KpZq+hR6j&#xA;LFI0pjMY4kAVqK18RQ4qqXChZOI6KAB9AxVDafeW15FFc2z+pBIao9CKgGm3IA4qvttAig1Rr8Ss&#xA;1SzLGR0L1rvXfriqZR/bk/1v+NRiq/FXYq7FXYqptLEwkRXUuoPJQQSPmMVY7q1vq8hV9OmRCEKs&#xA;khIUnmjA/CCd1Vl+nFU8s2VRIzEBRQknYAb4qiUdHUMjBlPRlNR+GKud0RSzsFUdWJoB9+KoW7ZW&#xA;WNlIZTUgjcHpiqRabZarDfSSXU/qwNHxUF2PxciahaKo264qyRZYkEaM6qzgcVJAJ+QxVUxVZJ9u&#xA;P/W/41OKr8VUb21S7tZLdyQsgoSOo7jFUFa6XHp1k0SOZC78mY7e3TFUpj0SVNZGoC5Yxj1D6G9P&#xA;jHiTiqa3+jRalBBykMbRVoQKijddvoxVGeisK2kKV4xkItetFjYDFUPFbytDEyioMaf8RGKu9FvU&#xA;9Oq+pSvDkK0+WKrY9MWKWSWOFEkmoZXUAFuNaciOtK4qujhaReUZV16VVgRX6MVRVtE8anl1JxVW&#xA;xV2KpZq+ux6dLFG0RkMg5Eg0oK08DU4qqXDB5OQ6MAR9IxVC6dZW1lHHb26lYlYsASWNWapNTU9T&#xA;iqpba/FPqjWAiZaFlWQnqUrXam3TFUyj+3J/rf8AGoxVfirsVdirsVSay0FrO9muzPzVlfitN/i3&#xA;+I4qq4q3JZ/XbKe258C/Gjddwa/wxVV0fTTp9p6Bk9RixcmlAKgCg+7FW9X0839mYA/ptyDA0qNu&#xA;xxVQhsjZWUFsX5lOVW6dTXbFXYqpahoLXt3BcibgFVQy0qfh3+HFU5xVZJ9uP/W/41OKr8VQ+oXL&#xA;2tlNcInNo1qFxVAadqU2oae0ssYRlfjVa8TtXauKr8VUtW1efTre3MUQf1K1Zq0FKbbU3NcVTASm&#xA;VLOVl4GQhih6gmJjTFVS0/3kh/4xr+oYqli6C41k6h6/wci/CnxVIpSvhiqZ3UHr20sPIp6iFOQ7&#xA;VFMVQOiaQ+mpKHl9QykGgFAONf64qmeKuxV2Kqc1rbTlTNEshQ1QsAaH2riqlPbSPIWWlDiq1LSU&#xA;OCaUBriqutrbLM06xKJm2aQAcj9OKtx/ak/1v+NRiq/FXYq7FXYq4gEEHocVUPqUXi34f0xVUihS&#xA;KvGu/WuKr8VdiqyWFJAOVdulMVU/qUXi34f0xVXAAAA6DFXYqsk+1Gewbf6QRiq/FXYqpTRFouKA&#xA;DwHTFUN9Vm8PxGKouOOkaqwBpiq2b+8t/wDjIf8Ak22KqVpaWptYSYUJKLU8R4D2xVV+qWn++Y/+&#xA;BH9MVd9UtP8AfMf/AAI/pirvqlp/vmP/AIEf0xVSeKyEbMkUTFdiAqmh98VUKwf8s8X/AAIxVfCt&#xA;u8gU28dD4KMVV1t7Fq8YompsaKpocVXfVLT/AHzH/wACP6Yq76paf75j/wCBH9MVd9UtP98x/wDA&#xA;j+mKtwqq81UAKrUVRsB8IOKqmKuxV2KrJfsfMqD8iQDirvQh/wB9r9wxV3oQ/wC+1+4YqhtSubLT&#xA;7KS8nirFFTkEVS3xMFFK07nFUvXzV5VKIzXUSc9uLLuCApINAR+2vemKqsHmHyzPLHFFdQtJLXgK&#xA;UrRBITUjYcDWuKrZfMnlyNHZpVBRC5QxspKhee3JR+yR9+Kt2XmHy5e+gIJoy9yeMSFaEvx58K0p&#xA;yp2riqa+hD/vtfuGKu9CH/fa/cMVW+mglChQFZW5ADY0I64qu9CH/fa/cMVd6EP++1+4Yq70If8A&#xA;fa/cMVU3t7dpkDRIRxbYqPFcVXfVLT/fMf8AwI/piqm8EEc0DJGqNzIqqgH+7bwxVUtP95If+Ma/&#xA;qGKquKuxVp15Iy1I5Aio6iuKpLp2hvpwnkab1OYChQKCnKtT74qpalYyXYtxHL6RhnjmJoTURmvE&#xA;UI69MVTCBeUoWpFQRUdRUHFVHRdDfTppZGm9TmOIAFBStan3xVNsVdirsVaCgEkftGp+6mKt4q7F&#xA;XYqtkUlNtyCDT5EHFWvVXwb/AIFv6Yq71k8G/wCBb+mKqdwttcQtDPF6sT/aRkYg0NRsR44qgf8A&#xA;D/l311n/AEdF6icuP7k8avxqeNONfgG9MVXw6NoMMqTRafDHKmyOsFCBx47EL/Ltirf6H0LiF/R8&#xA;JVQQAYBsCvEj7PhtirodH0KGSOSHT4o5ITWJlgoVNKVBC4qjvWTwb/gW/pirvWTwb/gW/pirgeUg&#xA;YA0AIJII3JHj8sVX4q7FXYqsP98v+q361xVfiqlN/eW//GQ/8m2xV1p/vJD/AMY1/UMVX+tF6npc&#xA;19SleFRyp8sVXdMVWxyxSryjdXUbVUgiv0Yq2yhgVYVB6jFUl1zUV06SFEtxJ6lSxYsBQHoKd8VT&#xA;aGKLisipxJANDWoqMVVcVdUYq6o8cVdirQYEsB+yaH7q/wAcVbxV2KuxVZKTw+ZUH5EgHFXehD/v&#xA;tfuGKu9CH/fa/cMVd6EP++1+4Yq70If99r9wxV3oQ/77X7hirvQh/wB9r9wxV3oQ/wC+1+4Yq70I&#xA;f99r9wxV3oQ/77X7hirvQh/32v3DFXehD/vtfuGKu9CH/fa/cMVd6EP++1+4YqsTafj2UMB8vhP8&#xA;cVVsVUpv7y3/AOMh/wCTbYqpW9xEltCpO4jSv/AjFUsXTIl1k6h6548i/Cm9SKUrXpiqZXUkE9tL&#xA;AWZRKpQsBuKimKoHRLOPTY5Q0pkaUg7CgAWv9cVTeORJBVe2KtsiNTkoahqKitDireKpfq+sxaaI&#xA;uUZkaWtADSgWld/pxVqSZZuEy14SIrrXrRhUYq0n21+YxVbDr0EuqNp4jYMGZBJ2LJWu30YqmMf2&#xA;5P8AW/41GKr8VdirsVWTfYH+sv8AxIYqvxV2KuxV2KuxVjU+n+c0vb6W0vIfRmkVraOViQqBWqKG&#xA;NuPxFeh7H54qpiL8xGLUmtIyONC/xKaGjU4pXty38fuVTHRLXzFFeXUuqzxywypF6CRkniyqRJsV&#xA;UCp8MVTjFXYq7FXYq7FVFf8Aelv9l+pMVVsVUpv7y3/4yH/k22Kpen93H/qJ/wARGKt4qoQfWvrF&#xA;x6tPR5L9XoAPh4jlXf8AmriqviqLsvst88VQWs6lq1ndW6Wln9ahlVjI6hiUKeNP5uQp9OKq+h3e&#xA;pXenR3GoWwtLiTf0a78SARUVPE+x3+XTFUVcWltcKFniWQKaqGFaHFULdALKQBQACgHyxVAaPdz3&#xA;dnFcToI5HZvhAYbBiAaMAwqB0OKpytnarObhYlE7dZABy+/FV0f25P8AW/41GKr8VdirsVWTfYH+&#xA;sv8AxIYqvxV2KuxV2KuxV2KpNpia6NUmN2Sbb4qVI49fh4jFU5xV2KuxV2KuxV2KqK/70t/sv1Ji&#xA;qtiqlN/eW/8AxkP/ACbbFVK3to3toWNamNK0/wBUYqgF1KwbUzYBJOfIp6m1OQ7Yqj7iK2ggkmfl&#xA;wjUs1OtAK4qhNKu7PUVkMaOhiIDBiP2q06fLFUzjiSMUXv1riq7FXYqlOvnVwkP6P5UqfU4U5duP&#xA;Xt1xVUb1qJ61PW4L6lOnLiK/jirS/aHzxVRtjrv6ckEoP1GrUrTjw34U9+mKptH9uT/W/wCNRiq/&#xA;FXYq7FVshXgaioO1PcmgxVT43P8AN/ww/wCaMVdxuf5v+GH/ADRiruNz/N/ww/5oxV3G5/m/4Yf8&#xA;0Yq7jc/zf8MP+aMVdxuf5v8Ahh/zRiruNz/N/wAMP+aMVdxuf5v+GH/NGKu43P8AN/ww/wCaMVdx&#xA;uf5v+GH/ADRiruNz/N/ww/5oxV3G5/m/4Yf80Yq7jc/zf8MP+aMVXRxkEFqAgEAA16mpJJp4YqqY&#xA;qpTf3lv/AMZD/wAm2xVTtrm3S3iR5UVlRQylgCCBuCMVWBdJFz9ZBh9f/flVr4eOKqzXNkylWljZ&#xA;WFGBZSCDiqlbfou2UrbtFGrGrBWXc/fiqt9btP8Af0f/AAQ/rirvrdp/v6P/AIIf1xV31u0/39H/&#xA;AMEP64q763af7+j/AOCH9cVU3ksHbk0sdf8AXH9cVaDacCCJU2/yx/XFVX63af7+j/4If1xVqOeA&#xA;mQiRSC2xqP5RiqoskbGisCfAEHFV2KtNIi/aYL8zTFVKaeAICZFpyXuP5hirf1u0/wB/R/8ABD+u&#xA;Ku+t2n+/o/8Agh/XFXfW7T/f0f8AwQ/rirvrdp/v6P8A4If1xV31u0/39H/wQ/rirvrdp/v6P/gh&#xA;/XFXfW7T/f0f/BD+uKsf1xdek1D6zpF/bxxLAqpFLKePq8yWJQAqaoR1xVH6DdagLEnWLiA3TOSo&#xA;Rk+FKCgbj8Na16dsVTH63af7+j/4If1xV31u0/39H/wQ/rirvrdp/v6P/gh/XFXfW7T/AH9H/wAE&#xA;P64q763af7+j/wCCH9cVd9btP9/R/wDBD+uKrGlillhETq5VyzcSDQcGFTT3OKv/2Q==</xmpGImg:image>
               </rdf:li>
            </rdf:Alt>
         </xmp:Thumbnails>
         <xmpTPg:MaxPageSize rdf:parseType="Resource">
            <stDim:w>10240.000397</stDim:w>
            <stDim:h>7680.000122</stDim:h>
            <stDim:unit>Points</stDim:unit>
         </xmpTPg:MaxPageSize>
         <xmpTPg:NPages>1</xmpTPg:NPages>
         <xmpTPg:HasVisibleTransparency>False</xmpTPg:HasVisibleTransparency>
         <xmpTPg:HasVisibleOverprint>False</xmpTPg:HasVisibleOverprint>
         <xmpTPg:Fonts>
            <rdf:Bag>
               <rdf:li rdf:parseType="Resource">
                  <stFnt:fontName>DINPro</stFnt:fontName>
                  <stFnt:fontFamily>DIN Pro</stFnt:fontFamily>
                  <stFnt:fontFace>Regular</stFnt:fontFace>
                  <stFnt:fontType>TrueType</stFnt:fontType>
                  <stFnt:versionString>Version 7.504; 2005; Build 1021</stFnt:versionString>
                  <stFnt:composite>False</stFnt:composite>
                  <stFnt:fontFileName/>
               </rdf:li>
               <rdf:li rdf:parseType="Resource">
                  <stFnt:fontName>DINPro-Bold</stFnt:fontName>
                  <stFnt:fontFamily>DIN Pro</stFnt:fontFamily>
                  <stFnt:fontFace>Bold</stFnt:fontFace>
                  <stFnt:fontType>TrueType</stFnt:fontType>
                  <stFnt:versionString>Version 7.504; 2005; Build 1020</stFnt:versionString>
                  <stFnt:composite>False</stFnt:composite>
                  <stFnt:fontFileName/>
               </rdf:li>
            </rdf:Bag>
         </xmpTPg:Fonts>
         <xmpTPg:PlateNames>
            <rdf:Seq>
               <rdf:li>Cyan</rdf:li>
               <rdf:li>Magenta</rdf:li>
               <rdf:li>Yellow</rdf:li>
               <rdf:li>Black</rdf:li>
            </rdf:Seq>
         </xmpTPg:PlateNames>
         <xmpTPg:SwatchGroups>
            <rdf:Seq>
               <rdf:li rdf:parseType="Resource">
                  <xmpG:groupName>Default Swatch Group</xmpG:groupName>
                  <xmpG:groupType>0</xmpG:groupType>
               </rdf:li>
            </rdf:Seq>
         </xmpTPg:SwatchGroups>
         <dc:format>image/svg+xml</dc:format>
         <xmpMM:DerivedFrom rdf:parseType="Resource">
            <stRef:instanceID>xmp.iid:77213ecd-ee2c-4b4c-8185-8b685af31ded</stRef:instanceID>
            <stRef:documentID>xmp.did:77213ecd-ee2c-4b4c-8185-8b685af31ded</stRef:documentID>
            <stRef:originalDocumentID>xmp.did:82aacf58-607c-a645-8469-3b9abc83840d</stRef:originalDocumentID>
            <stRef:renditionClass>proof:pdf</stRef:renditionClass>
         </xmpMM:DerivedFrom>
         <xmpMM:DocumentID>xmp.did:c0de2db0-e762-ad4a-8c72-ef62d53d01a3</xmpMM:DocumentID>
         <xmpMM:InstanceID>xmp.iid:c0de2db0-e762-ad4a-8c72-ef62d53d01a3</xmpMM:InstanceID>
         <xmpMM:OriginalDocumentID>xmp.did:82aacf58-607c-a645-8469-3b9abc83840d</xmpMM:OriginalDocumentID>
         <xmpMM:History>
            <rdf:Seq>
               <rdf:li rdf:parseType="Resource">
                  <stEvt:action>saved</stEvt:action>
                  <stEvt:instanceID>xmp.iid:82aacf58-607c-a645-8469-3b9abc83840d</stEvt:instanceID>
                  <stEvt:when>2018-10-21T17:28:59+03:00</stEvt:when>
                  <stEvt:softwareAgent>Adobe Illustrator CC (Windows)</stEvt:softwareAgent>
                  <stEvt:changed>/</stEvt:changed>
               </rdf:li>
               <rdf:li rdf:parseType="Resource">
                  <stEvt:action>saved</stEvt:action>
                  <stEvt:instanceID>xmp.iid:c0de2db0-e762-ad4a-8c72-ef62d53d01a3</stEvt:instanceID>
                  <stEvt:when>2020-06-06T13:45:15+03:00</stEvt:when>
                  <stEvt:softwareAgent>Adobe Illustrator CC (Windows)</stEvt:softwareAgent>
                  <stEvt:changed>/</stEvt:changed>
               </rdf:li>
            </rdf:Seq>
         </xmpMM:History>
         <xmpMM:RenditionClass>proof:pdf</xmpMM:RenditionClass>
      </rdf:Description>
   </rdf:RDF>
</x:xmpmeta>
                                                                                                    
                                                                                                    
                                                                                                    
                                                                                                    
                                                                                                    
                                                                                                    
                                                                                                    
                                                                                                    
                                                                                                    
                                                                                                    
                                                                                                    
                                                                                                    
                                                                                                    
                                                                                                    
                                                                                                    
                                                                                                    
                                                                                                    
                                                                                                    
                                                                                                    
                                                                                                    
                           
<?xpacket end="w"?>
	</metadata>
<g>
	<path fill="#F5F5F5" d="M3909.197,1649.389h2400v253.161c0,27.5-22.5,50-50,50h-2300c-27.5,0-50-22.5-50-50V1649.389z"/>
	<g>
		<path fill="none" stroke="#B5B5B5" stroke-width="5" stroke-miterlimit="10" d="M4630.874,6306.55H2728.803c-27.5,0-50-22.5-50-50
			V1699.389c0-27.5,22.5-50,50-50h4782.394c27.5,0,50,22.5,50,50V6256.55l0,0c0,27.5-22.5,50-50,50H4906.874"/>
	</g>
	<g>
		<g>
			<text transform="matrix(1 0 0 1 4695.6353 1494.896)" fill="#8A8A8A" font-family="'DINPro-Bold'" font-size="136">МАЛЫЙ ЗАЛ</text>
		</g>
	</g>
	<g>
		<g>
			<g>
				<text transform="matrix(1 0 0 1 4972.3809 1852.5698)" fill="#8A8A8A" font-family="'DINPro-Bold'" font-size="92.9056">Сцена</text>
			</g>
		</g>
	</g>
	<path fill="none" stroke="#B5B5B5" stroke-width="5" stroke-miterlimit="10" d="M3446.197,2034.55"/>
	<g>
		<path fill="none" stroke="#B5B5B5" stroke-width="5" stroke-miterlimit="10" d="M5120,5288.444c0-27.5,22.5-50,50-50h1405.295
			c27.5,0,50,22.5,50,50v163.174c0,27.5-22.5,50-50,50H5170c-27.5,0-50-22.5-50-50V5288.444z"/>
		<g>
			<g>
				<g>
					<text transform="matrix(1 0 0 1 5567.1548 5399.7515)" fill="#8A8A8A" font-family="'DINPro-Bold'" font-size="92.9056">Барная стойка</text>
				</g>
			</g>
		</g>
	</g>
	<g>
		<path fill="none" stroke="#B5B5B5" stroke-width="5" stroke-miterlimit="10" d="M7233.197,5238.444v795.231c0,27.5-22.5,50-50,50
			H5170c-27.5,0-50,22.5-50,50v172.875h2391.197c27.5,0,50-22.5,50-50v-102.934c0-27.5,0-72.5,0-100v-76.751c0-27.5,0-72.5,0-100
			v-638.421H7233.197z"/>
		<g>
			<g>
				<g>
					<text transform="matrix(1 0 0 1 6274.7686 6245.8296)" fill="#8A8A8A" font-family="'DINPro-Bold'" font-size="92.9056">Бар</text>
				</g>
			</g>
		</g>
	</g>
	<g>
		<path fill="none" stroke="#B5B5B5" stroke-width="5" stroke-miterlimit="10" d="M4425.197,5639.952v616.598c0,27.5-22.5,50-50,50
			H2728.803c-27.5,0-50-22.5-50-50V5238.443h1696.394c27.5,0,50,22.5,50,50v133.807"/>
		<g>
			<g>
				<text transform="matrix(1 0 0 1 3514.8389 5979.0542)" fill="#8A8A8A" font-family="'DINPro-Bold'" font-size="92.9056">VIP</text>
			</g>
		</g>
		<g>
			<circle fill="#C7C7C7" cx="2904.924" cy="5726.802" r="47.99"/>
			<circle fill="#C7C7C7" cx="3165.23" cy="5726.802" r="47.99"/>
			<circle fill="#C7C7C7" cx="2904.924" cy="6135.326" r="47.99"/>
			<circle fill="#C7C7C7" cx="3165.23" cy="6135.326" r="47.99"/>
			<path fill="#F0F0F0" d="M2713.343,5826.814c0-13.75,11.25-25,25-25h593.468c13.75,0,25,11.25,25,25v200.102
				c0,13.75-11.25,25-25,25h-593.467c-13.75,0-25-11.25-25-25L2713.343,5826.814L2713.343,5826.814z"/>
			<g>
				<g>
					<g>
						<text transform="matrix(1 0 0 1 3012.8682 5964.6387)" fill="#8A8A8A" font-family="'DINPro'" font-size="92.9056">1</text>
					</g>
				</g>
			</g>
		</g>
		<g>
			<circle fill="#C7C7C7" cx="3334.332" cy="5422.251" r="47.99"/>
			<circle fill="#C7C7C7" cx="3798.207" cy="5422.251" r="47.99"/>
			<circle fill="#C7C7C7" cx="3562.829" cy="5652.238" r="47.99"/>
			<path fill="#F0F0F0" d="M3411.336,5317.271c0-13.75,11.25-25,25-25h252.985c13.75,0,25,11.25,25,25v231.601
				c0,13.75-11.25,25-25,25h-252.985c-13.75,0-25-11.25-25-25V5317.271z"/>
			<g>
				<g>
					<g>
						<text transform="matrix(1 0 0 1 3540.6191 5466.7412)" fill="#8A8A8A" font-family="'DINPro'" font-size="92.9056">3</text>
					</g>
				</g>
			</g>
		</g>
		<g>
			<circle fill="#C7C7C7" cx="3880.687" cy="5822.782" r="47.99"/>
			<circle fill="#C7C7C7" cx="3880.687" cy="6078.529" r="47.99"/>
			<circle fill="#C7C7C7" cx="4286.569" cy="5822.782" r="47.99"/>
			<circle fill="#C7C7C7" cx="4286.569" cy="6078.529" r="47.99"/>
			<path fill="#F0F0F0" d="M3956.762,5712.943c0-13.75,11.25-25,25-25h198.988c13.75,0,25,11.25,25,25v458.867
				c0,13.75-11.25,25-25,25h-198.988c-13.75,0-25-11.25-25-25V5712.943z"/>
			<g>
				<g>
					<g>
						<text transform="matrix(1 0 0 1 4059.0469 5975.5532)" fill="#8A8A8A" font-family="'DINPro'" font-size="92.9056">2</text>
					</g>
				</g>
			</g>
		</g>
	</g>
	<g>
		<g>
			<circle fill="#C7C7C7" cx="5201.165" cy="4698.632" r="47.99"/>
			<circle fill="#C7C7C7" cx="5201.165" cy="4956.618" r="47.99"/>
			<circle fill="#C7C7C7" cx="5615.145" cy="4698.632" r="47.99"/>
			<circle fill="#C7C7C7" cx="5615.145" cy="4956.618" r="47.99"/>
			<path fill="#F0F0F0" d="M5286.332,4567.239c0-13.75,11.25-25,25-25h192c13.75,0,25,11.25,25,25v539.447c0,13.75-11.25,25-25,25
				h-192c-13.75,0-25-11.25-25-25V4567.239z"/>
			<g>
				<g>
					<g>
						<text transform="matrix(1 0 0 1 5354.2461 4869.8838)" fill="#8A8A8A" font-family="'DINPro'" font-size="92.9056">14</text>
					</g>
				</g>
			</g>
		</g>
		<g>
			<circle fill="#C7C7C7" cx="5201.165" cy="4083.495" r="47.99"/>
			<circle fill="#C7C7C7" cx="5201.165" cy="4341.483" r="47.99"/>
			<circle fill="#C7C7C7" cx="5615.145" cy="4083.495" r="47.99"/>
			<circle fill="#C7C7C7" cx="5615.145" cy="4341.483" r="47.99"/>
			<path fill="#F0F0F0" d="M5286.332,3952.104c0-13.75,11.25-25,25-25h192c13.75,0,25,11.25,25,25v539.447c0,13.75-11.25,25-25,25
				h-192c-13.75,0-25-11.25-25-25V3952.104z"/>
			<g>
				<g>
					<g>
						<text transform="matrix(1 0 0 1 5354.2461 4261.8838)" fill="#8A8A8A" font-family="'DINPro'" font-size="92.9056">16</text>
					</g>
				</g>
			</g>
		</g>
		<g>
			<circle fill="#C7C7C7" cx="5910.629" cy="4083.495" r="47.99"/>
			<circle fill="#C7C7C7" cx="5910.629" cy="4341.483" r="47.99"/>
			<circle fill="#C7C7C7" cx="6324.607" cy="4083.495" r="47.99"/>
			<circle fill="#C7C7C7" cx="6324.607" cy="4341.483" r="47.99"/>
			<path fill="#F0F0F0" d="M5995.796,3952.104c0-13.75,11.25-25,25-25h192c13.75,0,25,11.25,25,25v539.447c0,13.75-11.25,25-25,25
				h-192c-13.75,0-25-11.25-25-25V3952.104z"/>
			<g>
				<g>
					<g>
						<text transform="matrix(1 0 0 1 6063.7109 4261.8838)" fill="#8A8A8A" font-family="'DINPro'" font-size="92.9056">17</text>
					</g>
				</g>
			</g>
		</g>
		<g>
			<circle fill="#C7C7C7" cx="5910.629" cy="4698.632" r="47.99"/>
			<circle fill="#C7C7C7" cx="5910.629" cy="4956.618" r="47.99"/>
			<circle fill="#C7C7C7" cx="6324.607" cy="4698.632" r="47.99"/>
			<circle fill="#C7C7C7" cx="6324.607" cy="4956.618" r="47.99"/>
			<path fill="#F0F0F0" d="M5995.796,4567.239c0-13.75,11.25-25,25-25h192c13.75,0,25,11.25,25,25v539.447c0,13.75-11.25,25-25,25
				h-192c-13.75,0-25-11.25-25-25V4567.239z"/>
			<g>
				<g>
					<g>
						<text transform="matrix(1 0 0 1 6063.7109 4869.8833)" fill="#8A8A8A" font-family="'DINPro'" font-size="92.9056">15</text>
					</g>
				</g>
			</g>
		</g>
	</g>
	<g>
		<path fill="none" stroke="#B5B5B5" stroke-width="5" stroke-miterlimit="10" d="M6645.197,4428.55v759.894c0,27.5,22.5,50,50,50
			h866V2375.308h-866c-27.5,0-50,22.5-50,50V4010.55"/>
		<g>
			<g>
				<text transform="matrix(1 0 0 1 6571.7124 4269.7334)" fill="#8A8A8A" font-family="'DINPro-Bold'" font-size="92.9056">VIP</text>
			</g>
		</g>
		<g>
			<circle fill="#C7C7C7" cx="7009.943" cy="4534.973" r="47.99"/>
			<circle fill="#C7C7C7" cx="7009.943" cy="4788.973" r="47.99"/>
			<circle fill="#C7C7C7" cx="7009.943" cy="5030.973" r="47.99"/>
			<circle fill="#C7C7C7" cx="7427.943" cy="4534.973" r="47.99"/>
			<circle fill="#C7C7C7" cx="7427.943" cy="4788.973" r="47.99"/>
			<circle fill="#C7C7C7" cx="7427.943" cy="5030.973" r="47.99"/>
			<path fill="#F0F0F0" d="M7103.197,4449.55c0-13.75,11.25-25,25-25h178c13.75,0,25,11.25,25,25v708c0,13.75-11.25,25-25,25h-178
				c-13.75,0-25-11.25-25-25V4449.55z"/>
			<g>
				<g>
					<g>
						<text transform="matrix(1 0 0 1 7164.1123 4834.2964)" fill="#8A8A8A" font-family="'DINPro'" font-size="92.9056">18</text>
					</g>
				</g>
			</g>
		</g>
		<g>
			<circle fill="#C7C7C7" cx="7105.868" cy="3851.232" r="47.99"/>
			<circle fill="#C7C7C7" cx="7363.868" cy="3851.232" r="47.99"/>
			<circle fill="#C7C7C7" cx="7105.868" cy="4269.733" r="47.99"/>
			<circle fill="#C7C7C7" cx="7363.868" cy="4269.733" r="47.99"/>
			<path fill="#F0F0F0" d="M6935.633,3968.472c0-13.75,11.25-25,25-25h548.47c13.75,0,25,11.25,25,25v193.02c0,13.75-11.25,25-25,25
				h-548.47c-13.75,0-25-11.25-25-25V3968.472z"/>
			<g>
				<g>
					<g>
						<text transform="matrix(1 0 0 1 7182.4053 4096.9717)" fill="#8A8A8A" font-family="'DINPro'" font-size="92.9056">19</text>
					</g>
				</g>
			</g>
		</g>
		<g>
			<circle fill="#C7C7C7" cx="7105.868" cy="3199.15" r="47.99"/>
			<circle fill="#C7C7C7" cx="7363.868" cy="3199.15" r="47.99"/>
			<circle fill="#C7C7C7" cx="7105.868" cy="3617.651" r="47.99"/>
			<circle fill="#C7C7C7" cx="7363.868" cy="3617.651" r="47.99"/>
			<path fill="#F0F0F0" d="M6935.633,3316.39c0-13.75,11.25-25,25-25h548.47c13.75,0,25,11.25,25,25v193.02c0,13.75-11.25,25-25,25
				h-548.47c-13.75,0-25-11.25-25-25V3316.39z"/>
			<g>
				<g>
					<g>
						<text transform="matrix(1 0 0 1 7182.4053 3444.8896)" fill="#8A8A8A" font-family="'DINPro'" font-size="92.9056">20</text>
					</g>
				</g>
			</g>
		</g>
		<g>
			<circle fill="#C7C7C7" cx="7105.868" cy="2560.308" r="47.99"/>
			<circle fill="#C7C7C7" cx="7363.868" cy="2553.068" r="47.99"/>
			<circle fill="#C7C7C7" cx="7105.868" cy="2971.569" r="47.99"/>
			<circle fill="#C7C7C7" cx="7363.868" cy="2971.569" r="47.99"/>
			<path fill="#F0F0F0" d="M6935.633,2670.308c0-13.75,11.25-25,25-25h548.47c13.75,0,25,11.25,25,25v193.02c0,13.75-11.25,25-25,25
				h-548.47c-13.75,0-25-11.25-25-25V2670.308z"/>
			<g>
				<g>
					<g>
						<text transform="matrix(1 0 0 1 7193.4053 2803.502)" fill="#8A8A8A" font-family="'DINPro'" font-size="92.9056">21</text>
					</g>
				</g>
			</g>
		</g>
	</g>
	<g>
		<circle fill="#C7C7C7" cx="6533.943" cy="3024.578" r="47.99"/>
		<circle fill="#C7C7C7" cx="6533.943" cy="3193.579" r="47.99"/>
		<circle fill="#C7C7C7" cx="6533.943" cy="3362.578" r="47.99"/>
		<path fill="#F0F0F0" d="M6234.4,2962.069c0-13.75,11.25-25,25-25h163c13.75,0,25,11.25,25,25v463.02c0,13.75-11.25,25-25,25h-163
			c-13.75,0-25-11.25-25-25V2962.069z"/>
		<g>
			<g>
				<g>
					<text transform="matrix(1 0 0 1 6294.3145 3230.9092)" fill="#8A8A8A" font-family="'DINPro'" font-size="92.9056">22</text>
				</g>
			</g>
		</g>
	</g>
	<g>
		<circle fill="#C7C7C7" cx="6533.943" cy="2484.579" r="47.99"/>
		<circle fill="#C7C7C7" cx="6533.943" cy="2653.579" r="47.99"/>
		<circle fill="#C7C7C7" cx="6533.943" cy="2822.579" r="47.99"/>
		<path fill="#F0F0F0" d="M6234.4,2422.069c0-13.75,11.25-25,25-25h163c13.75,0,25,11.25,25,25v463.02c0,13.75-11.25,25-25,25h-163
			c-13.75,0-25-11.25-25-25V2422.069z"/>
		<g>
			<g>
				<g>
					<text transform="matrix(1 0 0 1 6294.3145 2698.876)" fill="#8A8A8A" font-family="'DINPro'" font-size="92.9056">23</text>
				</g>
			</g>
		</g>
	</g>
	<g>
		<g>
			<circle fill="#C7C7C7" cx="3656.653" cy="3363.059" r="47.99"/>
			<circle fill="#C7C7C7" cx="3656.653" cy="3194.059" r="47.99"/>
			<circle fill="#C7C7C7" cx="3656.653" cy="3025.059" r="47.99"/>
			<path fill="#F0F0F0" d="M3743.197,2962.54c0-13.75,11.25-25,25-25h163c13.75,0,25,11.25,25,25v463.02c0,13.75-11.25,25-25,25
				h-163c-13.75,0-25-11.25-25-25V2962.54z"/>
			<g>
				<g>
					<g>
						<text transform="matrix(1 0 0 1 3795.2788 3225.0498)" fill="#8A8A8A" font-family="'DINPro'" font-size="92.9056">12</text>
					</g>
				</g>
			</g>
		</g>
		<g>
			<circle fill="#C7C7C7" cx="3656.653" cy="2817.54" r="47.99"/>
			<circle fill="#C7C7C7" cx="3656.653" cy="2648.54" r="47.99"/>
			<circle fill="#C7C7C7" cx="3656.653" cy="2485.059" r="47.99"/>
			<path fill="#F0F0F0" d="M3743.197,2422.54c0-13.75,11.25-25,25-25h163c13.75,0,25,11.25,25,25v463.02c0,13.75-11.25,25-25,25
				h-163c-13.75,0-25-11.25-25-25V2422.54z"/>
			<g>
				<g>
					<g>
						<text transform="matrix(1 0 0 1 3795.2788 2685.5308)" fill="#8A8A8A" font-family="'DINPro'" font-size="92.9056">13</text>
					</g>
				</g>
			</g>
		</g>
	</g>
	<g>
		<path fill="none" stroke="#B5B5B5" stroke-width="5" stroke-miterlimit="10" d="M4425.197,4185.495v1002.948c0,27.5-22.5,50-50,50
			H2678.803V3568.55h1696.394c27.5,0,50,22.5,50,50v416.955"/>
		<g>
			<g>
				<text transform="matrix(1 0 0 1 3473.519 4428.0796)" fill="#8A8A8A" font-family="'DINPro-Bold'" font-size="92.9056">VIP</text>
			</g>
		</g>
		<g>
			<circle fill="#C7C7C7" cx="2904.924" cy="4703.926" r="47.99"/>
			<circle fill="#C7C7C7" cx="3165.23" cy="4703.926" r="47.99"/>
			<circle fill="#C7C7C7" cx="2904.924" cy="5112.449" r="47.99"/>
			<circle fill="#C7C7C7" cx="3165.23" cy="5112.449" r="47.99"/>
			<path fill="#F0F0F0" d="M2713.343,4803.938c0-13.75,11.25-25,25-25h593.468c13.75,0,25,11.25,25,25v200.102
				c0,13.75-11.25,25-25,25h-593.467c-13.75,0-25-11.25-25-25L2713.343,4803.938L2713.343,4803.938z"/>
			<g>
				<g>
					<g>
						<text transform="matrix(1 0 0 1 3012.8682 4942.0508)" fill="#8A8A8A" font-family="'DINPro'" font-size="92.9056">4</text>
					</g>
				</g>
			</g>
		</g>
		<g>
			<circle fill="#C7C7C7" cx="3088.333" cy="4332.541" r="47.99"/>
			<circle fill="#C7C7C7" cx="2872.336" cy="4543.434" r="47.99"/>
			<path fill="#F0F0F0" d="M2713.343,4208.467c0-13.75,11.25-25,25-25h252.985c13.75,0,25,11.25,25,25v231.601
				c0,13.75-11.25,25-25,25h-252.985c-13.75,0-25-11.25-25-25V4208.467z"/>
			<g>
				<g>
					<g>
						<text transform="matrix(1 0 0 1 2842.6265 4360.0796)" fill="#8A8A8A" font-family="'DINPro'" font-size="92.9056">6</text>
					</g>
				</g>
			</g>
		</g>
		<g>
			<circle fill="#C7C7C7" cx="2786.663" cy="3753.17" r="47.99"/>
			<circle fill="#C7C7C7" cx="2786.663" cy="4008.917" r="47.99"/>
			<circle fill="#C7C7C7" cx="3202.142" cy="3753.17" r="47.99"/>
			<circle fill="#C7C7C7" cx="3202.142" cy="4008.917" r="47.99"/>
			<path fill="#F0F0F0" d="M2872.336,3651.61c0-13.75,11.25-25,25-25h198.988c13.75,0,25,11.25,25,25v458.867
				c0,13.75-11.25,25-25,25h-198.988c-13.75,0-25-11.25-25-25V3651.61z"/>
			<g>
				<g>
					<g>
						<text transform="matrix(1 0 0 1 2978.6211 3920.9375)" fill="#8A8A8A" font-family="'DINPro'" font-size="92.9056">7</text>
					</g>
				</g>
			</g>
		</g>
		<g>
			<circle fill="#C7C7C7" cx="4002.327" cy="4326.296" r="47.99"/>
			<circle fill="#C7C7C7" cx="4223.329" cy="4545.462" r="47.99"/>
			<path fill="#F0F0F0" d="M4069.336,4210.495c0-13.75,11.25-25,25-25h252.985c13.75,0,25,11.25,25,25v231.601
				c0,13.75-11.25,25-25,25h-252.985c-13.75,0-25-11.25-25-25V4210.495z"/>
			<g>
				<g>
					<g>
						<text transform="matrix(1 0 0 1 4169.9097 4359.7856)" fill="#8A8A8A" font-family="'DINPro'" font-size="92.9056">10</text>
					</g>
				</g>
			</g>
		</g>
		<g>
			<circle fill="#C7C7C7" cx="4002.327" cy="3766.804" r="47.99"/>
			<circle fill="#C7C7C7" cx="4223.329" cy="3979.97" r="47.99"/>
			<path fill="#F0F0F0" d="M4069.336,3645.005c0-13.75,11.25-25,25-25h252.985c13.75,0,25,11.25,25,25v231.601
				c0,13.75-11.25,25-25,25h-252.985c-13.75,0-25-11.25-25-25V3645.005z"/>
			<g>
				<g>
					<g>
						<text transform="matrix(1 0 0 1 4169.9097 3805.2944)" fill="#8A8A8A" font-family="'DINPro'" font-size="92.9056">11</text>
					</g>
				</g>
			</g>
		</g>
		<g>
			<circle fill="#C7C7C7" cx="3868.663" cy="4792.996" r="47.99"/>
			<circle fill="#C7C7C7" cx="3868.663" cy="5048.743" r="47.99"/>
			<circle fill="#C7C7C7" cx="4284.142" cy="4792.996" r="47.99"/>
			<circle fill="#C7C7C7" cx="4284.142" cy="5048.743" r="47.99"/>
			<path fill="#F0F0F0" d="M3954.336,4691.437c0-13.75,11.25-25,25-25h198.988c13.75,0,25,11.25,25,25v458.867
				c0,13.75-11.25,25-25,25h-198.988c-13.75,0-25-11.25-25-25V4691.437z"/>
			<g>
				<g>
					<g>
						<text transform="matrix(1 0 0 1 4059.0469 4952.5503)" fill="#8A8A8A" font-family="'DINPro'" font-size="92.9056">5</text>
					</g>
				</g>
			</g>
		</g>
	</g>
	<g>
		<path fill="none" stroke="#B5B5B5" stroke-width="5" stroke-miterlimit="10" d="M5120,5599.626c0-27.5,22.5-50,50-50h1969.197
			c27.5,0,50,22.5,50,50v392.924c0,27.5-22.5,50-50,50H5170c-27.5,0-50-22.5-50-50V5599.626z"/>
		<g>
			<g>
				<text transform="matrix(1 0 0 1 5939.9165 5783.7925)" fill="#8A8A8A" font-family="'DINPro-Bold'" font-size="92.9056">Входной</text>
			</g>
		</g>
		<circle fill="#C7C7C7" cx="6127.081" cy="5920.148" r="47.99"/>
	</g>
	<g>
		<path fill="none" stroke="#B5B5B5" stroke-width="5" stroke-miterlimit="10" d="M4112.05,2218.55c0-27.5,22.5-50,50-50h1867.06
			c27.5,0,50,22.5,50,50v1202.907c0,27.5-22.5,50-50,50H4162.05c-27.5,0-50-22.5-50-50V2218.55z"/>
		<g>
			<g>
				<text transform="matrix(1 0 0 1 4942.0103 2828.2114)" fill="#8A8A8A" font-family="'DINPro-Bold'" font-size="92.9056">Входной</text>
			</g>
		</g>
		<circle fill="#C7C7C7" cx="5153.175" cy="2964.567" r="47.99"/>
	</g>
	<g>
		<g>
			<g>
				<text transform="matrix(1 0 0 1 3364.7109 2168.5503)" fill="#8A8A8A" font-family="'DINPro-Bold'" font-size="92.9056">VIP</text>
			</g>
		</g>
		<g>
			<circle fill="#C7C7C7" cx="2848.197" cy="3036.55" r="47.99"/>
			<circle fill="#C7C7C7" cx="3098.197" cy="3036.55" r="47.99"/>
			<circle fill="#C7C7C7" cx="2848.197" cy="3450.56" r="47.99"/>
			<circle fill="#C7C7C7" cx="3098.197" cy="3450.56" r="47.99"/>
			<path fill="#F0F0F0" d="M2713.197,3150.022c0-13.75,11.25-25,25-25h470c13.75,0,25,11.25,25,25v188c0,13.75-11.25,25-25,25h-470
				c-13.75,0-25-11.25-25-25V3150.022z"/>
			<g>
				<g>
					<g>
						<text transform="matrix(1 0 0 1 2950.9883 3285.604)" fill="#8A8A8A" font-family="'DINPro'" font-size="92.9056">8</text>
					</g>
				</g>
			</g>
		</g>
		<g>
			<circle fill="#C7C7C7" cx="2848.197" cy="2316.374" r="47.99"/>
			<circle fill="#C7C7C7" cx="3098.197" cy="2316.374" r="47.99"/>
			<circle fill="#C7C7C7" cx="2848.197" cy="2729.55" r="47.99"/>
			<circle fill="#C7C7C7" cx="3098.197" cy="2729.55" r="47.99"/>
			<path fill="#F0F0F0" d="M2713.197,2427.55c0-13.75,11.25-25,25-25h470c13.75,0,25,11.25,25,25v188c0,13.75-11.25,25-25,25h-470
				c-13.75,0-25-11.25-25-25V2427.55z"/>
			<g>
				<g>
					<g>
						<text transform="matrix(1 0 0 1 2950.9883 2567.0503)" fill="#8A8A8A" font-family="'DINPro'" font-size="92.9056">9</text>
					</g>
				</g>
			</g>
		</g>
		<path fill="none" stroke="#B5B5B5" stroke-width="5" stroke-miterlimit="10" d="M3441.977,1952.55v-303.161
			c0,0-659.103,0-703.103,0s-60.071,26.161-60.071,56.161s0,1863,0,1863h763.174v-1275"/>
	</g>
</g>
</svg>
