<?xml version="1.0" encoding="utf-8"?>
<!-- Generator: Adobe Illustrator 17.0.0, SVG Export Plug-In . SVG Version: 6.00 Build 0)  -->
<!DOCTYPE svg PUBLIC "-//W3C//DTD SVG 1.1//EN" "http://www.w3.org/Graphics/SVG/1.1/DTD/svg11.dtd">
<svg version="1.1" id="Layer_2" xmlns="http://www.w3.org/2000/svg" xmlns:xlink="http://www.w3.org/1999/xlink" x="0px" y="0px"
	 width="10240px" height="7680px" viewBox="0 0 10240 7680" enable-background="new 0 0 10240 7680" xml:space="preserve">
<metadata><?xpacket begin="﻿" id="W5M0MpCehiHzreSzNTczkc9d"?>
<x:xmpmeta xmlns:x="adobe:ns:meta/" x:xmptk="Adobe XMP Core 5.5-c014 79.151739, 2013/04/03-12:12:15        ">
   <rdf:RDF xmlns:rdf="http://www.w3.org/1999/02/22-rdf-syntax-ns#">
      <rdf:Description rdf:about=""
            xmlns:xmp="http://ns.adobe.com/xap/1.0/"
            xmlns:xmpGImg="http://ns.adobe.com/xap/1.0/g/img/"
            xmlns:xmpTPg="http://ns.adobe.com/xap/1.0/t/pg/"
            xmlns:stDim="http://ns.adobe.com/xap/1.0/sType/Dimensions#"
            xmlns:stFnt="http://ns.adobe.com/xap/1.0/sType/Font#"
            xmlns:xmpG="http://ns.adobe.com/xap/1.0/g/"
            xmlns:dc="http://purl.org/dc/elements/1.1/"
            xmlns:xmpMM="http://ns.adobe.com/xap/1.0/mm/"
            xmlns:stRef="http://ns.adobe.com/xap/1.0/sType/ResourceRef#"
            xmlns:stEvt="http://ns.adobe.com/xap/1.0/sType/ResourceEvent#">
         <xmp:CreatorTool>Adobe Illustrator CC (Windows)</xmp:CreatorTool>
         <xmp:CreateDate>2020-06-06T13:47:28+03:00</xmp:CreateDate>
         <xmp:MetadataDate>2020-06-06T13:47:29+03:00</xmp:MetadataDate>
         <xmp:ModifyDate>2020-06-06T13:47:29+03:00</xmp:ModifyDate>
         <xmp:Thumbnails>
            <rdf:Alt>
               <rdf:li rdf:parseType="Resource">
                  <xmpGImg:width>256</xmpGImg:width>
                  <xmpGImg:height>196</xmpGImg:height>
                  <xmpGImg:format>JPEG</xmpGImg:format>
                  <xmpGImg:image>/9j/4AAQSkZJRgABAgEACgAKAAD/7QAsUGhvdG9zaG9wIDMuMAA4QklNA+0AAAAAABAACgAAAAEA&#xA;AQAKAAAAAQAB/+4ADkFkb2JlAGTAAAAAAf/bAIQABgQEBAUEBgUFBgkGBQYJCwgGBggLDAoKCwoK&#xA;DBAMDAwMDAwQDA4PEA8ODBMTFBQTExwbGxscHx8fHx8fHx8fHwEHBwcNDA0YEBAYGhURFRofHx8f&#xA;Hx8fHx8fHx8fHx8fHx8fHx8fHx8fHx8fHx8fHx8fHx8fHx8fHx8fHx8fHx8f/8AAEQgAxAEAAwER&#xA;AAIRAQMRAf/EAaIAAAAHAQEBAQEAAAAAAAAAAAQFAwIGAQAHCAkKCwEAAgIDAQEBAQEAAAAAAAAA&#xA;AQACAwQFBgcICQoLEAACAQMDAgQCBgcDBAIGAnMBAgMRBAAFIRIxQVEGE2EicYEUMpGhBxWxQiPB&#xA;UtHhMxZi8CRygvElQzRTkqKyY3PCNUQnk6OzNhdUZHTD0uIIJoMJChgZhJRFRqS0VtNVKBry4/PE&#xA;1OT0ZXWFlaW1xdXl9WZ2hpamtsbW5vY3R1dnd4eXp7fH1+f3OEhYaHiImKi4yNjo+Ck5SVlpeYmZ&#xA;qbnJ2en5KjpKWmp6ipqqusra6voRAAICAQIDBQUEBQYECAMDbQEAAhEDBCESMUEFURNhIgZxgZEy&#xA;obHwFMHR4SNCFVJicvEzJDRDghaSUyWiY7LCB3PSNeJEgxdUkwgJChgZJjZFGidkdFU38qOzwygp&#xA;0+PzhJSktMTU5PRldYWVpbXF1eX1RlZmdoaWprbG1ub2R1dnd4eXp7fH1+f3OEhYaHiImKi4yNjo&#xA;+DlJWWl5iZmpucnZ6fkqOkpaanqKmqq6ytrq+v/aAAwDAQACEQMRAD8A9U4q7FXYq7FUr13Sb3Uf&#xA;qX1W9azNrcLPIVBPqKoPwEArt88VSJPJnmGOSCWPX5ElgHEfDIysOYcFlkkcMftdcVU4vI/mIW7x&#xA;SeYJWYmPg49WoEYYE/3vVuQ67e2KqieR9XhsoLW21uSFYkmjZ1VxVZZC2yiQKCqtQUHX8FU90LSr&#xA;+wFy17em8muX9RjRlVTvUIrM9B7YqmmKuxV2KuxV2KuxV2KuxV2KuxV2KuxV2KuxV2KuxV2KuxV2&#xA;KuxV2KuxV2KqcKIURyo5kAlqb1I8cVXSqpQ8gDQEiorviqD4r4DFXcV8BiruK+AxV3FfAYq7ivgM&#xA;VdxXwGKu4r4DFXcV8BiruK+AxVVjVQnIABgyioG9CQDiqJxV2KuxV2KuxV2KuxV2KuxV2KuxV2Ku&#xA;xV2KuxV2KuxV2KuxV2KrIP7mP/VH6sVXP9hvkcVQeKuxV2KuxVpWVhVSCASDTfcbEYq3irsVdirs&#xA;VVU/uv8AZr/xIYqiMVdirsVdirsVdirsVdirsVdirsVdirsVdirsVdirsVdirsVdiqyD+5j/ANUf&#xA;qxVc/wBhvkcVQeKuxV2KuxVI5vJuhzTtM6zAsSzIs8qryJJ5UVhT7R6Yqm1naQ2drFaw1EUKhEDE&#xA;saDxJqcVVsVdirsVVU/uv9mv/EhiqIxV2KuxV2KuxV2KuxV2KuxV2KuxV2KuxV2KuxV2KuxV2Kux&#xA;V2KrIP7mP/VH6sVXP9hvkcVQeKuxV2KuxV2KuxV2KuxV2KqqA+l/s1/4kMVRGKuxV2KuxV2KuxV2&#xA;KuxVJtf1280ua0SDTpr6O45es8IY+kFeMVYBW6hz92KpUPO2qUjkOhXPp+mrXChJPUWQzcGRQUAa&#xA;iUfr3xVQs/OvmSWyvbqbQpYzCImt7fjKGbmzK4rwbl9mv2R/VVNNK8zX9/e20DaXNbxS+p60kquv&#xA;pgcjF9pADzRa9dq4qyHFXYq7FXYq7FXYq7FXYqsg/uY/9UfqxVczBVLHooJP0YqtrN/Kv/BH/mnF&#xA;XVm/lX/gj/zTirqzfyr/AMEf+acVdWb+Vf8Agj/zTirqzfyr/wAEf+acVdWb+Vf+CP8AzTirqzfy&#xA;r/wR/wCacVdWb+Vf+CP/ADTirqzfyr/wR/5pxVa7krxIowZKjqKFh3xVzyyeoY40DFVDMWYqPiJA&#xA;6Bv5cVdyu/8Afcf/ACMP/NGKu5Xf++4/+Rh/5oxVyyXBcq0aCgB2cnrX/JHhiq6s38q/8Ef+acVU&#xA;5J5kanpqf9kf+acVW/Wpf99r/wAEf+acVd9al/32v/BH/mnFXfWpf99r/wAEf+acVd9al/32v/BH&#xA;/mnFXfWpf99r/wAEf+acVd9al/32v/BH/mnFXfWpf99r/wAEf+acVd9al/32v/BH/mnFXfWpf99r&#xA;/wAEf+acVVqzfyr/AMEf+acVdWb+Vf8Agj/zTirqzfyr/wAEf+acVdWb+Vf+CP8AzTirTPKqliq0&#xA;AqaMa0H0Yq3B/cx/6o/Virp/7mT/AFT+rFV+KuxV2KuxVjSeYvM6QQm48uymaQlXWKaMhTT4fkD0&#xA;36YqmulXup3UlyL2wNlHG4W3LOrmRd6t8J26YqmGKuxV2KqMn943/PP/AImcVbX/AHrk/wCMcf63&#xA;xVVxV2KrQp9Vm7FVA+gn+uKrsVUZo3ZqqKimKqfoy/y/iMVd6Mv8v4jFXejL/L+IxVBaro82oW6x&#xA;LcS2jo/qLLAwVqhSN61qPiriqH07y9fWlys8upXV3RGVopmT0yWNeXEAUp2xVNfRl/l/EYq70Zf5&#xA;fxGKu9GX+X8RirYgk8MVROKuxV2KuxVZP/cyf6p/ViroP7mP/VH6sVbmBMTgbkqQB9GKtevD/vxf&#xA;vGKu9eH/AH4v3jFXevD/AL8X7xirvXh/34v3jFVC5SOaSF1ujEIn5FUYUfbocVV/Xh/34v3jFXev&#xA;D/vxfvGKu9eH/fi/eMVd68P+/F+8YqschiXXdSYwCOlQ/wDbira/71yf8Y4/1viqrirsVSiGLzSN&#xA;dZ5Z7Y6L8RWMK3rmo+EV2AoT9w99lU3xV2KrObmvBQQCRUkjcbHscVdWb+Vf+CP/ADTirqzfyr/w&#xA;R/5pxV1Zv5V/4I/804q6s38q/wDBH/mnFXVm/lX/AII/804q6s38q/8ABH/mnFXcpu6L9Db/AIgY&#xA;quVgyhh0IqPpxVvFXYq7FXYqsn/uZP8AVP6sVdB/cx/6o/Viq/FXYq7FXYq7FXYq7FXYq7FXYqsm&#xA;+wP9Zf8AiQxVQmkCTyggkNGg2ND1fviqHtWgtbVbRS5WhALP8RruaH+mKqumLFBCttHyKpUhnNTu&#xA;a4qigT6zDtxX9ZxVQGo27STRRnlJAQJF3FCffFVWC49UkcaU964quh+wf9Zv+JHFV+KuxV2KuxV2&#xA;KuxV2KqIl9O2jalfhUU+jFVKXU4IYHmnqiJQEj4upp2xVXDtJUxkBRTcgmtQD4jxxVuk38y/8Cf+&#xA;asVdSb+df+BP/NWKqdwZhbStyU0Rv2T2B/ysVVIP7mP/AFR+rFV+KuxV2KuxVj2qaFHEZ7tNXutP&#xA;WaQSFY3BjEhJr8JB2aoqB4YqjtL0eWyuGnbUrq8R41QRXDq6DiB8Yoo+I03PviqZ4q7FXYq7FVk3&#xA;2B/rL/xIYqh54w08pLcQkaEmldqv4YqhIbazvEh1BTX0g/pOVIIB2bbv0xVE6a8M8S3MLFo2qBUU&#xA;OxpiqKH983+qv62xVAzC/wD9L5pGiEj6s4qSdqVfFVuhi+ETC9KGerbx9OPI8fwxVMIfsH/Wb/iR&#xA;xVfirsVaMkYdULAO1Sqk7mnWg9sVczKo5MQqjqTsMVbxV2KuxVBXbOunBo15yKgKJ4kLsMVQOnT6&#xA;rPpryNaJHeE0+ryMCtA3Wo9sVTeKtZK7HkKgdK8RirU8/p0HGvL3piqWxXthpkcduz8BNIREJXqW&#xA;dyPhWo8Tiq9BDb2k8MKELJzYlmLbsPfFUbbes1vE3JRVFNOJ7j/WxVUpN/Mv/An/AJqxVBNqiCO6&#xA;ck0tDxkHptUn/J+L/P5YqjIJvUQHxUONiuzdKg7g4qqYqteOOReMih1PVWFRtv3xVdirsVUbu5EE&#xA;TSEGiKXNAWNFp2FPHFVAaiDJbR1NbpS0dY2oKCu++Koqk38y/wDAn/mrFVOf1VRSWUjmgI4kdXA8&#xA;cVXL/vXJ/wAY4/1viqohRkBQgp+yV6fhirkKFAYyCnYr0/DFVo/vm/1V/W2KoM29skl06SlpJHUy&#xA;oW5BTTYU7Yqq2YUM1DXbFVeH7B/1m/4kcVX4q7FUv1TQNM1Sa2mvIy8lpyMDB2Xjz48vskVrwHXF&#xA;UmtPJ3lp3ntfSuXEEqufVllC1FSoUhhUDkev9MVZTirsVdiqGkANpHU02X9WKoaSGCW2lSScwoeN&#xA;ZFPAjfxOKo6IUMgrWjDc7/sjFWp4PUoeVOPtXFUvhs7HUUjuePP0nPpGSOhVlPUV+WKuiaG5s55o&#xA;mbjHzUhlKmqj3OKphaf7yQ/8Y1/UMVVT0xVIrgSNc/WEv1S3syRdw9QSQQN/mR92Kpta77hg4ZFI&#xA;YGoIJYjfFVfFXYq7FXYqhb51RfUZwiIrFmPSlVxVA2w9Kf470Sm7f1LZS3ROIHFfaoJxVOMVUrr+&#xA;7X/jJH/ycXFVGeThcSAqGDRoCD4VfFULFc2dokdkioglDenESSWpu3Xr1xVE6eIoUFvDGEjUEgAk&#xA;9TXviqJH983+qv62xVLWeJXvmSzeN1YFpKD96QK/Direh3hu4mmMTwmrJwkFD8LEV+mmKpjD9g/6&#xA;zf8AEjiq/FXYq7FXYq7FXYq7FUFdyenpwk4luCBuI6mi1oMVSy1v473SZLmWwldS1Pqrij/C1K06&#xA;4qnkFPjovEVFF8PhXbbFVTFVCyuvrMPqek8PxMvCQUOx64qoi6+s2Fw/pPDxEi8XFCaA74qr2rKL&#xA;a3BIBZF4g9TRa7YqrYqlryuIr6lipo3wpVf31RuTiqNgJY1K8CY0qlQaddtvDFVXFXYq7FXYqhr5&#xA;isbkRCY+m9IjSjfZ23xVRWV/Ush9TUVU8mqv7nboMVR3JeXGo5EV496eNMVU7r+7X/jJH/ycXFVK&#xA;WNXuJCa/DGhovU7viqGgtbW7iivHhdZI+RiDqOa1HE8fmMVRGnFZYVuAjxlgRwkFCN8VRA/vm/1V&#xA;/W2KoY295znLyiSN2BhjoBxAG++KqlrDIjMWFKjbpiqojhAVYNXkx2UnYknsMVb9ZPBv+Bb+mKu9&#xA;ZPBv+Bb+mKu9ZPBv+Bb+mKu9ZPBv+Bb+mKu9ZPBv+Bb+mKu9ZPBv+Bb+mKu9VfBv+Bb+mKqckTm2&#xA;RAKsAKj5DFVBrW8MEiwyCCVqcZCA3Q77YqioqgyVNTyFT/sRiqleMwK0JHXpiqVXd5qcd5axQQGW&#xA;3kLfWZudPTApQ071riqKldzE4LGhU139sVQXmDRxqGj2skdr9bu7dU+rx+s8FOYVWPNCDsNz7Yqr&#xA;+WdHSxtpJHtfq1zKRG49VpSY4vgjNW2UlRUgYqtmFu0kt0WmH6OLKyBSA/MAdO9Pw+WKppaUoCta&#xA;MisKih3LHcHFURirsVdirsVQuoMqRmR68Y0ZjxFTsR2xVLrWOKG4QerNIdQczpzXaMcFHHtQfDiq&#xA;H82aAL97e4iszdXFfQkYTvAUhNWJ+EgNv2PenauKozStOWy0tK24trm4ljmuohI0oEruvIB2qaDF&#xA;UXcvbRTyS3EhjQJGOXNlFSz/AMpGKrJGRXIXmQOh9WT/AJqxVfG9m0qQGVhO68xH6slaD/ZYqrrb&#xA;RqSQXqaAku56fM++KrvRTxb/AIJv64qpytbQ8fUkKFzxQM7CreA3xVBPqVuk8du7hZpa+nGXbk1A&#xA;TsK+CnFUfbuW27UB3JPUkdT8sVVcVdirsVdirsVdirsVdiqyP7cn+t/xqMVXMoI3APhUVxVD2VvP&#xA;HDxunSWXkTyVQooTsMVUlguI7C4F06SyUkKsq8aKQaDFUTaf7yQ/8Y1/UMVVcVS57u+CXQrCJCf9&#xA;DWp+IAb8sVRduzMeT05lE58dxX4q0riqtirsVdirsVQ948qKWi4+r6b+mH2WtVpXFVBLu5eS3CtC&#xA;VFVvACSVegNFxVH4qpXX92v/ABkj/wCTi4qoXT2iSSm7KCHhFXnQivJ6dcVQt+ty08Zt3VVEoMxI&#xA;ryj4moX3JpiqLgez9WNSU+tlDTpz4V/ViqLxV2Kqc1vBMUMqBzGeSEitD4jFUungtFvrdJeJun5e&#xA;g3GpFBv8XbY4qmEKcHK1rRV/W2KquKuxVpmCqWPQbnFVJbqJmCitSaDFVbFVskiovJumKrY7iN24&#xA;rWvviqpiqyP7cn+t/wAajFXSSolORoT0xVC2Uhhh4T3Bnk5E8ytNidhtiqmjNHZTxzXBuJHEhVit&#xA;KAg0G2Koy0/3kh/4xr+oYqq4qkk9qJJZLtrSUzaezC1+KnqB1oxAHXb5/fiqaWooK8ShKKSrUqCa&#xA;mhpiqvirsVdirsVQt8SELBGkZUdljXqSKbb4qgba0S3nj9K1lUXrGe5YsCEfiAa/diqcYqpXX92v&#xA;/GSP/k4uKqNwtu00iXCCRGSP4SKioZziq3jFLL8LEcugp/biqIS2hVlk4gyqvESU+KhNaVxVVxV2&#xA;KuxVQN1BUHuOhpiqqjo5qvWgP0b4quxV2KoS4tHNybn1nCrGU9D9g174ql9lqNpPqElpGxM9uVMi&#xA;kEbMxAIr13U4qmllbPbxsjzPOWdm5P1FT0xVQltHjknnMzusxWkTfZWnhiqE0u9g1FZfqzOgFY/U&#xA;48SCUDVFfAMMVTS1haC3jiaRpWQUMjdTiqXaN5o0vV7qe2s/V9W2AaUSRsgHLoKnavtiqPuoXkKl&#xA;RWla4qlkulrez290kzUti3ERSfAxqK8wNjTjiqsyF7eV0ZXVAwYqQaFRuNsVR0EEPox/u1+yOw8M&#xA;VX+hD/vtfuGKu9CH/fa/cMVXKqqKKAB4DbFW8VdirsVdirTKrCjAEeB3xVb6EP8AvtfuGKu9CH/f&#xA;a/cMVWSwxBQQighkoaD+YYqo3CO9y/EVoifrfFUNp9hJCrR+rI4Z5W9ViCyl2Y0Bp+yTQYqmFpA1&#xA;vbpC0jTFBQyP1OKofVE1Z4ov0bJHHKJFMplUsDGAagU7k0xVWsVvFs4VvXSS7CD13jBVC9N+IPbF&#xA;Wru0NwYiJXj9J+dENOVOxxVLZ9MeS9guC8iPDWkYPwtsRuP9liqaW6lTQih4Lt9LYqrYq7FULcW0&#xA;xuPXE7CJY2U24A4knviqHhA9ZTTckVPyOKouyt5oImWWdp2LswdqCgJ6bYqoS20ySTzNOzxyceEJ&#xA;AolPDFVsKM5ZEYxsykBxSoNOu+Kou1heG3jikkMzoKNI3U4qvXjyagoQaMfHav8AHFW3dFA5sFBI&#xA;UVNKk9BiqFiaztQ0UMfBQxJCgUqevfFXNDaw2dxHAqx8kaRkXY/EDvTFVS2V2tomMjVKKei+HyxV&#xA;U9N/9+N/wv8ATFXem/8Avxv+F/piraE8ihNaAGvzr/TFV2KuxV2KuxVZK9DQtwWhZm22C08fniqA&#xA;m1iwhsWvnuWFqil2kouwXY7Fa4qjIm9UErI9B4hf6Yq1Orqin1GPxxih493A7DFVy/71yf8AGOP9&#xA;b4qhtN+rRvc21vE8Yikq7ODRmbf4ScVV4bsSXM0AjdTDSrsKK1R+ycVV8VdiqnJOiAH7VSRt4jri&#xA;qHMdpcXMdy4Ilt68GJoPi2xVEj++b/VX9bYqvxV2KoSe9K3P1URPVoy/rAfAKdq4qpRO/qpueoxV&#xA;E2V2bmNnMTw8XZOMgofhPXFVGS9Mkk8AjdPRK/vCKK1fA4qtimdCz0aTipPBdyaCtBiqKtZ/Xt45&#xA;uDR8xXg2xGKro/tyf63/ABqMVU7y0tLlEW5UMquGSpp8Xb78VQczoJ2UsAzMeIJ3PfbFVWW2tQs9&#xA;wqj6y0HFzXfjxNNvoxVE2n+8kP8AxjX9QxVVxV2KrB/fN/qr+tsVX4q7FXYq7FVh/vl/1W/WuKqE&#xA;1vOZ4BEsYtV5CZSN6duNMVXWMd0iOLjhyLsU9MH7HatcVX3X92v/ABkj/wCTi4qh7okXDUNPgT9b&#xA;4qhLqe5igLwRNPICoEQYKSCwDGrEDYb4qq8m8TiqYQmsSV8Biq/FUuktILWArbLszO9CSasfc4qo&#xA;WMP1+wRdQi9N3RGmiB+y43oCD44qmqgCVgOgVf1tiq/FXYqhLi9QXJs+D8mjL+pT4Nu1cVS+ysfR&#xA;1CS4E8ricrWF2rGpDE1UUqK8vHFU0srxLuNpER0CuyUccSeJpXFVCW9SWSe3COrQFauwopr4HFUF&#xA;pVpHpiTEPLOu8hDHm+yBaDufs4qm1rcLcW8c6qyiQcgrChGKro/tyf63/GoxVTvLa0nRBcgFVdWS&#xA;pp8Xb78VSu9060nv47qVKz27lonBIofiHbr9o4qi5bazH1i4Wn1trej778eOx4/RiqLtP95If+Ma&#xA;/qGKquKuxVYP75v9Vf1tiq/FXYq7FXYqpuCZAAeJKNQ+G6+OKpVdxXCWyaeL/jfzI4hncGoPjQeH&#xA;ucVR2nTxTJJ6col4OUYiuxHzxVWuv7tf+Mkf/JxcVU3lgS7cSui1jSgYgftP44qpW7xrNO01zC8T&#xA;sDCg4gqKdCa4q1C6LdTvLdQvA9PRjHEFadd8VRX1u0/39H/wS/1xV31u0/39H/wQ/riqBSCwgi9O&#xA;3mQKXZyGkB3b5nFXPDYzxPFcTJwahosgB2NexxVHRMjuzRsGTiqhgaior3+nFVXFXYqslaPiUZwp&#xA;I7kYqh0ihVw3rKaGtNu304qiPXh/34v3jFVkrQyJx9VR71GKqcKQxvy9ZT7VA/jiqv68P+/F+8Yq&#xA;tWSNWcswAYgqSdiOIG2KqdzFYXKqs/BwjB1BI2I+nFVCUJzZjIgBJoSwHXFVs66Yqz3CvH9ZeEoz&#xA;hhUgL88VRtp/vJD/AMY1/UMVQGsWGs3M9pLp2ofUxAX9aIoHWUNxoDXpQBu3fFUfaJcR2sSXMgmu&#xA;FUCWUKFDMBueI6VxVcyuHLKAagAgmnSvsfHFXVm/lX/gj/zTirg7hgHUDlsCDXfr4DFV+KuxVTdg&#xA;sqsxooRiSegAK4qhpNT00W4vWkUwoCwmI+yOh67jFUTA0LKTEoUE1NBSpO9dsVauv7tf+Mkf/Jxc&#xA;Vcv+9cn/ABjj/W+KquKrZWZY2ZV5soJVBsSR23xVLZ725W0+sSRtHIsRdoAamoBNNvHFV0d5c/VW&#xA;niieWQoGWBjRt6bGvcYqmKFmRWZeLEAlTvQ+G2Kt4qtCkSM3YgD6RX+uKrsVdiqkkkaAh2CtyY0J&#xA;p1Jpiq714f8Afi/eMVY1baZ5uhi9L/EMEgVfhke3VnLE1PKr/diqJNn5jaHi2uQiWgBZbdAteZJ2&#xA;LE/YIUb++KonR4dWtua6lqkV8nFViKxCFgRXkWozVrtiqZ+vD/vxfvGKuh+xXsWYj5Fjiq/FVkn2&#xA;4/8AW/41OKrbv/eSb/jG36jirrT/AHkh/wCMa/qGKquKuxV2KuxVZJ9uP/W/41OKr8Vdiqw/3y/6&#xA;rfrXFUJd2PrNFbiCFrBgy3EbCmx6AAbdcVVbFLlEcXCop5ngI604dq1xVUuv7tf+Mkf/ACcXFXL/&#xA;AL1yf8Y4/wBb4qtgvbeeaaGMkvAQsmxAqfDFW4ryCW4mt0JMsFPUBBA+Lpviq29jcwu8UYknC/u1&#xA;JoCcVXW0RWNWZAkrKOag1APcVxVfJKkYBbv0xV0cySEhe2Krg3xladADX51/pireKuxVTVQ4LMWr&#xA;yYbEjYEjscVb9FPFv+Cb+uKu9FPFv+Cb+uKoa6vdMtJoYbq5WCS45eiskhXlwpypU9uQxVZJqmix&#xA;pza+iC1C19au5NANm8cVRnop4t/wTf1xV3op4t/wTf1xV3op4t/wTf1xVTI4zqoJpUHck7lX8fli&#xA;q67/AN5Jv+MbfqOKrbb1ltol4rsij7R8P9XFVSs38q/8Ef8AmnFXVm/lX/gj/wA04q6s38q/8Ef+&#xA;acVdWb+Vf+CP/NOKupIzKWAAU12JPYjwHjiq/FXYqpSmj1rxojnlStOm9MVStLy8bTbeWKT61Izg&#xA;Ow/d/CZArn/YLU++Koj6zJ+k7aE3FFaFmMHHdj48v8+mKoy6/u1/4yR/8nFxVD3Lsty3EkVROnzf&#xA;FUNcXc0MZkVXkPJQVT7R5ELX6Biqr6sta8jU9cVVry8ltdOa5SB7qRAp9GP7bVIBp8ga4qp6Jqcu&#xA;pWC3ctnNYszECCcAPQGlae/viq17U2yN+9eXm7SUc1Ir2GKqFmDqdgrVltTMqvQfC671ocVTVBSV&#xA;hWtEXc/NsVX4q7FVkP2D/rN/xI4qvxV2KoW+0nTL9omvbWK5aEkwmVFfiWpWlRtXiMVS2w8taFxm&#xA;V9Gt4VE3JAyK4PGvFhWtPtGgGKp5irsVdiqi3+9K/wCx/U+Kt3f+8k3/ABjb9RxVdB/cx/6o/Viq&#xA;/FXYq7FXYq7FXYq7FVh/vl/1W/WuKqM1rO1xG8U5ihRGVoQoIJPQ/Riq6zt5YYEWeT15lBBlIAO5&#xA;rTFV11/dr/xkj/5OLiq3gj3UgYVoifrfFVOCCf1p/XSP0eQ9DjWvGn7WKuhgn+tTeqkf1bb0ONeX&#xA;vXFUWAAKDYDpirsVQAsZYlYCV5y8jP8AGR8NewxVz2Ms0LxGR4OVPjQ77GtMVRiCkrCtaIu5+bYq&#xA;vxV2KqPpeoS/Nk3IopoNjT+GKu+rf8Wyf8Firvq3/Fsn/BYq76t/xbJ/wWKqF/JBY2U15cTSiG3Q&#xA;ySFTU8VFTQYqhtI1bSdXR20+9ef0uPqhSfhLVoDt/knFUw+rf8Wyf8Firvq3/Fsn/BYqujhCGpYu&#xA;exbemKtXf+8k3/GNv1HFWv3PbnTtx50+im2Ku/df8Wf8lMVd+6/4s/5KYq791/xZ/wAlMVd+6/4s&#xA;/wCSmKu/df8AFn/JTFVSPjQ8eX+y5f8AG2Kuk48fi5Ur+zyr/wALiqi/1fbl6te1PVr+G+KrP9G/&#xA;4v8A+S+Ku/0b/i//AJL4quT6tzX+96inqerxr2+38PXpiq+f0OQ58+dP918609+H8cVUv9G/4v8A&#xA;+S+Ku/0b/i//AJL4q7/Rv+L/APkvirv9G/4v/wCS+Ku/0b/i/wD5L4q7/Rv+L/8Akviq9Pq+/H1f&#xA;evq1/HFVdKcRStP8qtfx3xVZJw5fFzr/AJPOn/C4qof6LU09bqa09ela79MVd/o3/F//ACXxV3+j&#xA;f8X/APJfFXf6N/xf/wAl8Vaf6pwbn63Ch5V9elO9cVWQ/o2sno+py5fveHrV5U/ap3xVU/0b/i//&#xA;AJL4q7/Rv+L/APkvirv9G/4v/wCS+Ku/0T9r1uPfn63Gn+Vy2p88Vf/Z</xmpGImg:image>
               </rdf:li>
            </rdf:Alt>
         </xmp:Thumbnails>
         <xmpTPg:MaxPageSize rdf:parseType="Resource">
            <stDim:w>10240.000397</stDim:w>
            <stDim:h>7680.000122</stDim:h>
            <stDim:unit>Points</stDim:unit>
         </xmpTPg:MaxPageSize>
         <xmpTPg:NPages>1</xmpTPg:NPages>
         <xmpTPg:HasVisibleTransparency>False</xmpTPg:HasVisibleTransparency>
         <xmpTPg:HasVisibleOverprint>False</xmpTPg:HasVisibleOverprint>
         <xmpTPg:Fonts>
            <rdf:Bag>
               <rdf:li rdf:parseType="Resource">
                  <stFnt:fontName>DINPro</stFnt:fontName>
                  <stFnt:fontFamily>DIN Pro</stFnt:fontFamily>
                  <stFnt:fontFace>Regular</stFnt:fontFace>
                  <stFnt:fontType>TrueType</stFnt:fontType>
                  <stFnt:versionString>Version 7.504; 2005; Build 1021</stFnt:versionString>
                  <stFnt:composite>False</stFnt:composite>
                  <stFnt:fontFileName/>
               </rdf:li>
               <rdf:li rdf:parseType="Resource">
                  <stFnt:fontName>DINPro-Bold</stFnt:fontName>
                  <stFnt:fontFamily>DIN Pro</stFnt:fontFamily>
                  <stFnt:fontFace>Bold</stFnt:fontFace>
                  <stFnt:fontType>TrueType</stFnt:fontType>
                  <stFnt:versionString>Version 7.504; 2005; Build 1020</stFnt:versionString>
                  <stFnt:composite>False</stFnt:composite>
                  <stFnt:fontFileName/>
               </rdf:li>
            </rdf:Bag>
         </xmpTPg:Fonts>
         <xmpTPg:PlateNames>
            <rdf:Seq>
               <rdf:li>Cyan</rdf:li>
               <rdf:li>Magenta</rdf:li>
               <rdf:li>Yellow</rdf:li>
               <rdf:li>Black</rdf:li>
            </rdf:Seq>
         </xmpTPg:PlateNames>
         <xmpTPg:SwatchGroups>
            <rdf:Seq>
               <rdf:li rdf:parseType="Resource">
                  <xmpG:groupName>Default Swatch Group</xmpG:groupName>
                  <xmpG:groupType>0</xmpG:groupType>
               </rdf:li>
            </rdf:Seq>
         </xmpTPg:SwatchGroups>
         <dc:format>image/svg+xml</dc:format>
         <xmpMM:DerivedFrom rdf:parseType="Resource">
            <stRef:instanceID>xmp.iid:ec0b0876-0d71-0441-b84d-753c89d45ec6</stRef:instanceID>
            <stRef:documentID>xmp.did:ec0b0876-0d71-0441-b84d-753c89d45ec6</stRef:documentID>
            <stRef:originalDocumentID>xmp.did:82aacf58-607c-a645-8469-3b9abc83840d</stRef:originalDocumentID>
            <stRef:renditionClass>proof:pdf</stRef:renditionClass>
         </xmpMM:DerivedFrom>
         <xmpMM:DocumentID>xmp.did:ac28d7a0-fef9-3b4e-b244-67b9164ecab2</xmpMM:DocumentID>
         <xmpMM:InstanceID>xmp.iid:ac28d7a0-fef9-3b4e-b244-67b9164ecab2</xmpMM:InstanceID>
         <xmpMM:OriginalDocumentID>xmp.did:82aacf58-607c-a645-8469-3b9abc83840d</xmpMM:OriginalDocumentID>
         <xmpMM:History>
            <rdf:Seq>
               <rdf:li rdf:parseType="Resource">
                  <stEvt:action>saved</stEvt:action>
                  <stEvt:instanceID>xmp.iid:82aacf58-607c-a645-8469-3b9abc83840d</stEvt:instanceID>
                  <stEvt:when>2018-10-21T17:28:59+03:00</stEvt:when>
                  <stEvt:softwareAgent>Adobe Illustrator CC (Windows)</stEvt:softwareAgent>
                  <stEvt:changed>/</stEvt:changed>
               </rdf:li>
               <rdf:li rdf:parseType="Resource">
                  <stEvt:action>saved</stEvt:action>
                  <stEvt:instanceID>xmp.iid:ac28d7a0-fef9-3b4e-b244-67b9164ecab2</stEvt:instanceID>
                  <stEvt:when>2020-06-06T13:47:29+03:00</stEvt:when>
                  <stEvt:softwareAgent>Adobe Illustrator CC (Windows)</stEvt:softwareAgent>
                  <stEvt:changed>/</stEvt:changed>
               </rdf:li>
            </rdf:Seq>
         </xmpMM:History>
         <xmpMM:RenditionClass>proof:pdf</xmpMM:RenditionClass>
      </rdf:Description>
   </rdf:RDF>
</x:xmpmeta>
                                                                                                    
                                                                                                    
                                                                                                    
                                                                                                    
                                                                                                    
                                                                                                    
                                                                                                    
                                                                                                    
                                                                                                    
                                                                                                    
                                                                                                    
                                                                                                    
                                                                                                    
                                                                                                    
                                                                                                    
                                                                                                    
                                                                                                    
                                                                                                    
                                                                                                    
                                                                                                    
                           
<?xpacket end="w"?>
	</metadata>
<g>
	<g>
		<path fill="none" stroke="#B5B5B5" stroke-width="5" stroke-miterlimit="10" d="M2868.947,7122.5H1315.603c-27.5,0-50-22.5-50-50
			V1410.105c0-27.5,22.5-50,50-50h136.554"/>
		<path fill="none" stroke="#B5B5B5" stroke-width="5" stroke-miterlimit="10" d="M1671.975,1360.105h2500.688c27.5,0,50,22.5,50,50
			V7072.5l0,0c0,27.5-22.5,50-50,50h-1005.84"/>
	</g>
	<g>
		<path fill="#F5F5F5" d="M1731.282,1410.105c0-27.5,22.5-50,50-50h2274.185c27.5,0,50,22.5,50,50v871.016c0,27.5-22.5,50-50,50
			H1781.282c-27.5,0-50-22.5-50-50V1410.105z"/>
		<g>
			<g>
				<g>
					<text transform="matrix(1 0 0 1 2786.3359 1899.0977)" fill="#8A8A8A" font-family="'DINPro-Bold'" font-size="92.9056">Сцена</text>
				</g>
			</g>
		</g>
	</g>
	<g>
		<g>
			<g>
				<text transform="matrix(1 0 0 1 2412.8701 1206.5894)" fill="#8A8A8A" font-family="'DINPro-Bold'" font-size="136">БОЛЬШОЙ ЗАЛ</text>
			</g>
		</g>
	</g>
	<g>
		<g>
			<text transform="matrix(1 0 0 1 2551.272 3422.2549)" fill="#8A8A8A" font-family="'DINPro-Bold'" font-size="92.9056">Танцпол</text>
		</g>
	</g>
	<circle fill="#C7C7C7" cx="2724.219" cy="3564.793" r="47.99"/>
	<g>
		<g>
			<g>
				<text transform="matrix(1 0 0 1 2762.3362 2766.374)" fill="#8A8A8A" font-family="'DINPro-Bold'" font-size="92.9056">Входной</text>
			</g>
		</g>
		<circle fill="#C7C7C7" cx="2935.284" cy="2902.73" r="47.99"/>
		<path fill="none" stroke="#B5B5B5" stroke-width="5" stroke-miterlimit="10" d="M1735.87,2522.374c0-27.5,22.5-50,50-50h2267.78
			c27.5,0,50,22.5,50,50v488c0,27.5-22.5,50-50,50H1785.87c-27.5,0-50-22.5-50-50V2522.374z"/>
	</g>
	<g>
		<path fill="none" stroke="#B5B5B5" stroke-width="5" stroke-miterlimit="10" d="M2162.87,6224.5c-27.5,0-50-22.5-50-50v-704
			c0-27.5-22.5-50-50-50h-797.267v1304h797.267c27.5,0,72.5,0,100,0h466.966c27.5,0,50-22.5,50-50v-400c0-27.5-22.5-50-50-50
			H2162.87z"/>
		<g>
			<g>
				<g>
					<text transform="matrix(1 0 0 1 1633.666 6215.7012)" fill="#8A8A8A" font-family="'DINPro-Bold'" font-size="92.9056">Бар</text>
				</g>
			</g>
		</g>
	</g>
	<g>
		<path fill="none" stroke="#B5B5B5" stroke-width="5" stroke-miterlimit="10" d="M3396.71,5470.5c0-27.5,22.5-50,50-50h775.953
			v1652c0,27.5-22.5,50-50,50H3446.71c-27.5,0-50-22.5-50-50V5470.5z"/>
		<g>
			<circle fill="#C7C7C7" cx="3537.453" cy="6676.51" r="47.99"/>
			<circle fill="#C7C7C7" cx="3537.453" cy="6795.004" r="47.99"/>
			<circle fill="#C7C7C7" cx="3897.453" cy="6676.51" r="47.99"/>
			<circle fill="#C7C7C7" cx="3897.453" cy="6795.004" r="47.99"/>
			<circle fill="#C7C7C7" cx="3655.72" cy="6911.88" r="47.99"/>
			<circle fill="#C7C7C7" cx="3782.62" cy="6911.88" r="47.99"/>
			<path fill="#F0F0F0" d="M3632.387,6637.952c0-13.75,11.25-25,25-25h113.492c13.75,0,25,11.25,25,25v162.989
				c0,13.75-11.25,25-25,25h-113.492c-13.75,0-25-11.25-25-25V6637.952z"/>
			<g>
				<g>
					<g>
						<text transform="matrix(1 0 0 1 3688.5728 6751.7549)" fill="#8A8A8A" font-family="'DINPro'" font-size="92.9056">1</text>
					</g>
				</g>
			</g>
		</g>
		<g>
			<circle fill="#C7C7C7" cx="3537.453" cy="6312.2" r="47.99"/>
			<circle fill="#C7C7C7" cx="3664.72" cy="6455.903" r="47.99"/>
			<circle fill="#C7C7C7" cx="3814.712" cy="6455.903" r="47.99"/>
			<path fill="#F0F0F0" d="M3616.73,6271.5c0-13.75,11.25-25,25-25h195.972c13.75,0,25,11.25,25,25v81.399c0,13.75-11.25,25-25,25
				H3641.73c-13.75,0-25-11.25-25-25V6271.5z"/>
			<g>
				<g>
					<g>
						<text transform="matrix(1 0 0 1 3714.1563 6345.3574)" fill="#8A8A8A" font-family="'DINPro'" font-size="92.9056">2</text>
					</g>
				</g>
			</g>
		</g>
		<g>
			<circle fill="#C7C7C7" cx="3537.453" cy="5910.69" r="47.99"/>
			<circle fill="#C7C7C7" cx="3664.72" cy="6054.394" r="47.99"/>
			<circle fill="#C7C7C7" cx="3814.712" cy="6054.394" r="47.99"/>
			<path fill="#F0F0F0" d="M3616.73,5869.99c0-13.75,11.25-25,25-25h195.972c13.75,0,25,11.25,25,25v81.399c0,13.75-11.25,25-25,25
				H3641.73c-13.75,0-25-11.25-25-25V5869.99z"/>
			<g>
				<g>
					<g>
						<text transform="matrix(1 0 0 1 3714.1563 5942.3574)" fill="#8A8A8A" font-family="'DINPro'" font-size="92.9056">3</text>
					</g>
				</g>
			</g>
		</g>
		<g>
			<circle fill="#C7C7C7" cx="3537.453" cy="5555.208" r="47.99"/>
			<circle fill="#C7C7C7" cx="3664.72" cy="5698.911" r="47.99"/>
			<circle fill="#C7C7C7" cx="3814.712" cy="5698.911" r="47.99"/>
			<path fill="#F0F0F0" d="M3616.73,5514.508c0-13.75,11.25-25,25-25h195.972c13.75,0,25,11.25,25,25v81.399c0,13.75-11.25,25-25,25
				H3641.73c-13.75,0-25-11.25-25-25V5514.508z"/>
			<g>
				<g>
					<g>
						<text transform="matrix(1 0 0 1 3714.1563 5587.5542)" fill="#8A8A8A" font-family="'DINPro'" font-size="92.9056">4</text>
					</g>
				</g>
			</g>
		</g>
	</g>
	<g>
		<path fill="none" stroke="#B5B5B5" stroke-width="5" stroke-miterlimit="10" d="M3396.71,3745.095c0-27.5,22.5-50,50-50h775.953
			V5100.5H3446.71c-27.5,0-50-22.5-50-50V3745.095z"/>
		<g>
			<g>
				<text transform="matrix(1 0 0 1 3862.7021 4397.7974)" fill="#8A8A8A" font-family="'DINPro-Bold'" font-size="92.9056">Super</text>
				<text transform="matrix(1 0 0 1 3908.5591 4531.0693)" fill="#8A8A8A" font-family="'DINPro-Bold'" font-size="92.9056">VIP</text>
			</g>
		</g>
		<g>
			<circle fill="#C7C7C7" cx="3505.166" cy="4999.417" r="47.99"/>
			<circle fill="#C7C7C7" cx="3664.166" cy="4999.417" r="47.99"/>
			<circle fill="#C7C7C7" cx="3505.166" cy="4709.417" r="47.99"/>
			<circle fill="#C7C7C7" cx="3664.166" cy="4709.417" r="47.99"/>
			<path fill="#F0F0F0" d="M3427.443,4809.5c0-13.75,11.25-25,25-25h266c13.75,0,25,11.25,25,25v90c0,13.75-11.25,25-25,25h-266
				c-13.75,0-25-11.25-25-25V4809.5z"/>
			<g>
				<g>
					<g>
						<text transform="matrix(1 0 0 1 3559.8828 4888.4844)" fill="#8A8A8A" font-family="'DINPro'" font-size="92.9056">5</text>
					</g>
				</g>
			</g>
		</g>
		<g>
			<circle fill="#C7C7C7" cx="3505.166" cy="4531.417" r="47.99"/>
			<circle fill="#C7C7C7" cx="3664.166" cy="4531.417" r="47.99"/>
			<circle fill="#C7C7C7" cx="3505.166" cy="4239.417" r="47.99"/>
			<circle fill="#C7C7C7" cx="3664.166" cy="4239.417" r="47.99"/>
			<path fill="#F0F0F0" d="M3427.443,4339.5c0-13.75,11.25-25,25-25h266c13.75,0,25,11.25,25,25v90c0,13.75-11.25,25-25,25h-266
				c-13.75,0-25-11.25-25-25V4339.5z"/>
			<g>
				<g>
					<g>
						<text transform="matrix(1 0 0 1 3559.8828 4416.4375)" fill="#8A8A8A" font-family="'DINPro'" font-size="92.9056">6</text>
					</g>
				</g>
			</g>
		</g>
		<g>
			<circle fill="#C7C7C7" cx="3505.166" cy="4069.417" r="47.99"/>
			<circle fill="#C7C7C7" cx="3664.166" cy="4069.417" r="47.99"/>
			<circle fill="#C7C7C7" cx="3505.166" cy="3784.324" r="47.99"/>
			<circle fill="#C7C7C7" cx="3664.166" cy="3784.324" r="47.99"/>
			<path fill="#F0F0F0" d="M3427.443,3877.5c0-13.75,11.25-25,25-25h266c13.75,0,25,11.25,25,25v90c0,13.75-11.25,25-25,25h-266
				c-13.75,0-25-11.25-25-25V3877.5z"/>
			<g>
				<g>
					<g>
						<text transform="matrix(1 0 0 1 3559.8828 3959.7239)" fill="#8A8A8A" font-family="'DINPro'" font-size="92.9056">7</text>
					</g>
				</g>
			</g>
		</g>
	</g>
	<g>
		<path fill="none" stroke="#B5B5B5" stroke-width="5" stroke-miterlimit="10" d="M1265.603,3695.095h797.267c27.5,0,50,22.5,50,50
			V5050.5c0,27.5-22.5,50-50,50h-797.267V3695.095z"/>
		<g>
			<g>
				<text transform="matrix(1 0 0 1 1397.814 4397.7974)" fill="#8A8A8A" font-family="'DINPro-Bold'" font-size="92.9056">Super</text>
				<text transform="matrix(1 0 0 1 1443.6709 4531.0693)" fill="#8A8A8A" font-family="'DINPro-Bold'" font-size="92.9056">VIP</text>
			</g>
		</g>
		<g>
			<circle fill="#C7C7C7" cx="1838.593" cy="4999.417" r="47.99"/>
			<circle fill="#C7C7C7" cx="1997.593" cy="4999.417" r="47.99"/>
			<circle fill="#C7C7C7" cx="1838.593" cy="4709.417" r="47.99"/>
			<circle fill="#C7C7C7" cx="1997.593" cy="4709.417" r="47.99"/>
			<path fill="#F0F0F0" d="M1760.87,4809.5c0-13.75,11.25-25,25-25h266c13.75,0,25,11.25,25,25v90c0,13.75-11.25,25-25,25h-266
				c-13.75,0-25-11.25-25-25L1760.87,4809.5L1760.87,4809.5z"/>
			<g>
				<g>
					<g>
						<text transform="matrix(1 0 0 1 1893.3093 4888.4844)" fill="#8A8A8A" font-family="'DINPro'" font-size="92.9056">8</text>
					</g>
				</g>
			</g>
		</g>
		<g>
			<circle fill="#C7C7C7" cx="1838.593" cy="4531.417" r="47.99"/>
			<circle fill="#C7C7C7" cx="1997.593" cy="4531.417" r="47.99"/>
			<circle fill="#C7C7C7" cx="1838.593" cy="4239.417" r="47.99"/>
			<circle fill="#C7C7C7" cx="1997.593" cy="4239.417" r="47.99"/>
			<path fill="#F0F0F0" d="M1760.87,4339.5c0-13.75,11.25-25,25-25h266c13.75,0,25,11.25,25,25v90c0,13.75-11.25,25-25,25h-266
				c-13.75,0-25-11.25-25-25L1760.87,4339.5L1760.87,4339.5z"/>
			<g>
				<g>
					<g>
						<text transform="matrix(1 0 0 1 1893.3093 4416.4375)" fill="#8A8A8A" font-family="'DINPro'" font-size="92.9056">9</text>
					</g>
				</g>
			</g>
		</g>
		<g>
			<circle fill="#C7C7C7" cx="1838.593" cy="4069.417" r="47.99"/>
			<circle fill="#C7C7C7" cx="1997.593" cy="4069.417" r="47.99"/>
			<circle fill="#C7C7C7" cx="1838.593" cy="3784.324" r="47.99"/>
			<circle fill="#C7C7C7" cx="1997.593" cy="3784.324" r="47.99"/>
			<path fill="#F0F0F0" d="M1760.87,3877.5c0-13.75,11.25-25,25-25h266c13.75,0,25,11.25,25,25v90c0,13.75-11.25,25-25,25h-266
				c-13.75,0-25-11.25-25-25L1760.87,3877.5L1760.87,3877.5z"/>
			<g>
				<g>
					<g>
						<text transform="matrix(1 0 0 1 1864.5994 3959.7239)" fill="#8A8A8A" font-family="'DINPro'" font-size="92.9056">10</text>
					</g>
				</g>
			</g>
		</g>
	</g>
</g>
<g>
	<path fill="#F5F5F5" d="M5594.823,2465.339h2400V2718.5c0,27.5-22.5,50-50,50h-2300c-27.5,0-50-22.5-50-50V2465.339z"/>
	<g>
		<path fill="none" stroke="#B5B5B5" stroke-width="5" stroke-miterlimit="10" d="M6316.5,7122.5H4414.429c-27.5,0-50-22.5-50-50
			V2515.339c0-27.5,22.5-50,50-50h4782.394c27.5,0,50,22.5,50,50V7072.5l0,0c0,27.5-22.5,50-50,50H6592.5"/>
	</g>
	<g>
		<g>
			<text transform="matrix(1 0 0 1 6381.2612 2310.8457)" fill="#8A8A8A" font-family="'DINPro-Bold'" font-size="136">МАЛЫЙ ЗАЛ</text>
		</g>
	</g>
	<g>
		<g>
			<g>
				<text transform="matrix(1 0 0 1 6658.0068 2668.5193)" fill="#8A8A8A" font-family="'DINPro-Bold'" font-size="92.9056">Сцена</text>
			</g>
		</g>
	</g>
	<path fill="none" stroke="#B5B5B5" stroke-width="5" stroke-miterlimit="10" d="M5131.823,2850.5"/>
	<g>
		<path fill="none" stroke="#B5B5B5" stroke-width="5" stroke-miterlimit="10" d="M6805.626,6104.394c0-27.5,22.5-50,50-50h1405.295
			c27.5,0,50,22.5,50,50v163.174c0,27.5-22.5,50-50,50H6855.626c-27.5,0-50-22.5-50-50V6104.394z"/>
		<g>
			<g>
				<g>
					<text transform="matrix(1 0 0 1 7252.7808 6215.7012)" fill="#8A8A8A" font-family="'DINPro-Bold'" font-size="92.9056">Барная стойка</text>
				</g>
			</g>
		</g>
	</g>
	<g>
		<path fill="none" stroke="#B5B5B5" stroke-width="5" stroke-miterlimit="10" d="M8918.823,6054.394v795.231c0,27.5-22.5,50-50,50
			H6855.626c-27.5,0-50,22.5-50,50V7122.5h2391.197c27.5,0,50-22.5,50-50v-102.934c0-27.5,0-72.5,0-100v-76.751c0-27.5,0-72.5,0-100
			v-638.421H8918.823z"/>
		<g>
			<g>
				<g>
					<text transform="matrix(1 0 0 1 7960.3945 7061.7793)" fill="#8A8A8A" font-family="'DINPro-Bold'" font-size="92.9056">Бар</text>
				</g>
			</g>
		</g>
	</g>
	<g>
		<path fill="none" stroke="#B5B5B5" stroke-width="5" stroke-miterlimit="10" d="M6110.823,6455.902V7072.5c0,27.5-22.5,50-50,50
			H4414.429c-27.5,0-50-22.5-50-50V6054.393h1696.394c27.5,0,50,22.5,50,50V6238.2"/>
		<g>
			<g>
				<text transform="matrix(1 0 0 1 5200.4648 6795.0039)" fill="#8A8A8A" font-family="'DINPro-Bold'" font-size="92.9056">VIP</text>
			</g>
		</g>
		<g>
			<circle fill="#C7C7C7" cx="4590.55" cy="6542.752" r="47.99"/>
			<circle fill="#C7C7C7" cx="4850.856" cy="6542.752" r="47.99"/>
			<circle fill="#C7C7C7" cx="4590.55" cy="6951.276" r="47.99"/>
			<circle fill="#C7C7C7" cx="4850.856" cy="6951.276" r="47.99"/>
			<path fill="#F0F0F0" d="M4398.969,6642.764c0-13.75,11.25-25,25-25h593.468c13.75,0,25,11.25,25,25v200.102
				c0,13.75-11.25,25-25,25H4423.97c-13.75,0-25-11.25-25-25L4398.969,6642.764L4398.969,6642.764z"/>
			<g>
				<g>
					<g>
						<text transform="matrix(1 0 0 1 4698.4941 6780.5884)" fill="#8A8A8A" font-family="'DINPro'" font-size="92.9056">1</text>
					</g>
				</g>
			</g>
		</g>
		<g>
			<circle fill="#C7C7C7" cx="5019.958" cy="6238.201" r="47.99"/>
			<circle fill="#C7C7C7" cx="5483.833" cy="6238.201" r="47.99"/>
			<circle fill="#C7C7C7" cx="5248.455" cy="6468.188" r="47.99"/>
			<path fill="#F0F0F0" d="M5096.962,6133.221c0-13.75,11.25-25,25-25h252.985c13.75,0,25,11.25,25,25v231.601
				c0,13.75-11.25,25-25,25h-252.985c-13.75,0-25-11.25-25-25V6133.221z"/>
			<g>
				<g>
					<g>
						<text transform="matrix(1 0 0 1 5226.2451 6282.6909)" fill="#8A8A8A" font-family="'DINPro'" font-size="92.9056">3</text>
					</g>
				</g>
			</g>
		</g>
		<g>
			<circle fill="#C7C7C7" cx="5566.313" cy="6638.732" r="47.99"/>
			<circle fill="#C7C7C7" cx="5566.313" cy="6894.479" r="47.99"/>
			<circle fill="#C7C7C7" cx="5972.195" cy="6638.732" r="47.99"/>
			<circle fill="#C7C7C7" cx="5972.195" cy="6894.479" r="47.99"/>
			<path fill="#F0F0F0" d="M5642.388,6528.893c0-13.75,11.25-25,25-25h198.988c13.75,0,25,11.25,25,25v458.867
				c0,13.75-11.25,25-25,25h-198.988c-13.75,0-25-11.25-25-25V6528.893z"/>
			<g>
				<g>
					<g>
						<text transform="matrix(1 0 0 1 5744.6729 6791.5029)" fill="#8A8A8A" font-family="'DINPro'" font-size="92.9056">2</text>
					</g>
				</g>
			</g>
		</g>
	</g>
	<g>
		<g>
			<circle fill="#C7C7C7" cx="6886.791" cy="5514.582" r="47.99"/>
			<circle fill="#C7C7C7" cx="6886.791" cy="5772.568" r="47.99"/>
			<circle fill="#C7C7C7" cx="7300.771" cy="5514.582" r="47.99"/>
			<circle fill="#C7C7C7" cx="7300.771" cy="5772.568" r="47.99"/>
			<path fill="#F0F0F0" d="M6971.958,5383.189c0-13.75,11.25-25,25-25h192c13.75,0,25,11.25,25,25v539.447c0,13.75-11.25,25-25,25
				h-192c-13.75,0-25-11.25-25-25V5383.189z"/>
			<g>
				<g>
					<g>
						<text transform="matrix(1 0 0 1 7039.8721 5685.8335)" fill="#8A8A8A" font-family="'DINPro'" font-size="92.9056">14</text>
					</g>
				</g>
			</g>
		</g>
		<g>
			<circle fill="#C7C7C7" cx="6886.791" cy="4899.445" r="47.99"/>
			<circle fill="#C7C7C7" cx="6886.791" cy="5157.433" r="47.99"/>
			<circle fill="#C7C7C7" cx="7300.771" cy="4899.445" r="47.99"/>
			<circle fill="#C7C7C7" cx="7300.771" cy="5157.433" r="47.99"/>
			<path fill="#F0F0F0" d="M6971.958,4768.053c0-13.75,11.25-25,25-25h192c13.75,0,25,11.25,25,25V5307.5c0,13.75-11.25,25-25,25
				h-192c-13.75,0-25-11.25-25-25V4768.053z"/>
			<g>
				<g>
					<g>
						<text transform="matrix(1 0 0 1 7039.8721 5077.8335)" fill="#8A8A8A" font-family="'DINPro'" font-size="92.9056">16</text>
					</g>
				</g>
			</g>
		</g>
		<g>
			<circle fill="#C7C7C7" cx="7596.255" cy="4899.445" r="47.99"/>
			<circle fill="#C7C7C7" cx="7596.255" cy="5157.433" r="47.99"/>
			<circle fill="#C7C7C7" cx="8010.233" cy="4899.445" r="47.99"/>
			<circle fill="#C7C7C7" cx="8010.233" cy="5157.433" r="47.99"/>
			<path fill="#F0F0F0" d="M7681.422,4768.053c0-13.75,11.25-25,25-25h192c13.75,0,25,11.25,25,25V5307.5c0,13.75-11.25,25-25,25
				h-192c-13.75,0-25-11.25-25-25V4768.053z"/>
			<g>
				<g>
					<g>
						<text transform="matrix(1 0 0 1 7749.3369 5077.8335)" fill="#8A8A8A" font-family="'DINPro'" font-size="92.9056">17</text>
					</g>
				</g>
			</g>
		</g>
		<g>
			<circle fill="#C7C7C7" cx="7596.255" cy="5514.582" r="47.99"/>
			<circle fill="#C7C7C7" cx="7596.255" cy="5772.568" r="47.99"/>
			<circle fill="#C7C7C7" cx="8010.233" cy="5514.582" r="47.99"/>
			<circle fill="#C7C7C7" cx="8010.233" cy="5772.568" r="47.99"/>
			<path fill="#F0F0F0" d="M7681.422,5383.189c0-13.75,11.25-25,25-25h192c13.75,0,25,11.25,25,25v539.447c0,13.75-11.25,25-25,25
				h-192c-13.75,0-25-11.25-25-25V5383.189z"/>
			<g>
				<g>
					<g>
						<text transform="matrix(1 0 0 1 7749.3369 5685.833)" fill="#8A8A8A" font-family="'DINPro'" font-size="92.9056">15</text>
					</g>
				</g>
			</g>
		</g>
	</g>
	<g>
		<path fill="none" stroke="#B5B5B5" stroke-width="5" stroke-miterlimit="10" d="M8330.823,5244.5v759.894c0,27.5,22.5,50,50,50
			h866V3191.258h-866c-27.5,0-50,22.5-50,50V4826.5"/>
		<g>
			<g>
				<text transform="matrix(1 0 0 1 8257.3379 5085.6831)" fill="#8A8A8A" font-family="'DINPro-Bold'" font-size="92.9056">VIP</text>
			</g>
		</g>
		<g>
			<circle fill="#C7C7C7" cx="8695.569" cy="5350.923" r="47.99"/>
			<circle fill="#C7C7C7" cx="8695.569" cy="5604.923" r="47.99"/>
			<circle fill="#C7C7C7" cx="8695.569" cy="5846.923" r="47.99"/>
			<circle fill="#C7C7C7" cx="9113.569" cy="5350.923" r="47.99"/>
			<circle fill="#C7C7C7" cx="9113.569" cy="5604.923" r="47.99"/>
			<circle fill="#C7C7C7" cx="9113.569" cy="5846.923" r="47.99"/>
			<path fill="#F0F0F0" d="M8788.823,5265.5c0-13.75,11.25-25,25-25h178c13.75,0,25,11.25,25,25v708c0,13.75-11.25,25-25,25h-178
				c-13.75,0-25-11.25-25-25V5265.5z"/>
			<g>
				<g>
					<g>
						<text transform="matrix(1 0 0 1 8849.7383 5650.2461)" fill="#8A8A8A" font-family="'DINPro'" font-size="92.9056">18</text>
					</g>
				</g>
			</g>
		</g>
		<g>
			<circle fill="#C7C7C7" cx="8791.494" cy="4667.182" r="47.99"/>
			<circle fill="#C7C7C7" cx="9049.494" cy="4667.182" r="47.99"/>
			<circle fill="#C7C7C7" cx="8791.494" cy="5085.683" r="47.99"/>
			<circle fill="#C7C7C7" cx="9049.494" cy="5085.683" r="47.99"/>
			<path fill="#F0F0F0" d="M8621.259,4784.422c0-13.75,11.25-25,25-25h548.47c13.75,0,25,11.25,25,25v193.02c0,13.75-11.25,25-25,25
				h-548.47c-13.75,0-25-11.25-25-25V4784.422z"/>
			<g>
				<g>
					<g>
						<text transform="matrix(1 0 0 1 8868.0313 4912.9214)" fill="#8A8A8A" font-family="'DINPro'" font-size="92.9056">19</text>
					</g>
				</g>
			</g>
		</g>
		<g>
			<circle fill="#C7C7C7" cx="8791.494" cy="4015.1" r="47.99"/>
			<circle fill="#C7C7C7" cx="9049.494" cy="4015.1" r="47.99"/>
			<circle fill="#C7C7C7" cx="8791.494" cy="4433.601" r="47.99"/>
			<circle fill="#C7C7C7" cx="9049.494" cy="4433.601" r="47.99"/>
			<path fill="#F0F0F0" d="M8621.259,4132.34c0-13.75,11.25-25,25-25h548.47c13.75,0,25,11.25,25,25v193.02c0,13.75-11.25,25-25,25
				h-548.47c-13.75,0-25-11.25-25-25V4132.34z"/>
			<g>
				<g>
					<g>
						<text transform="matrix(1 0 0 1 8868.0313 4260.8394)" fill="#8A8A8A" font-family="'DINPro'" font-size="92.9056">20</text>
					</g>
				</g>
			</g>
		</g>
		<g>
			<circle fill="#C7C7C7" cx="8791.494" cy="3376.258" r="47.99"/>
			<circle fill="#C7C7C7" cx="9049.494" cy="3369.018" r="47.99"/>
			<circle fill="#C7C7C7" cx="8791.494" cy="3787.519" r="47.99"/>
			<circle fill="#C7C7C7" cx="9049.494" cy="3787.519" r="47.99"/>
			<path fill="#F0F0F0" d="M8621.259,3486.258c0-13.75,11.25-25,25-25h548.47c13.75,0,25,11.25,25,25v193.02c0,13.75-11.25,25-25,25
				h-548.47c-13.75,0-25-11.25-25-25V3486.258z"/>
			<g>
				<g>
					<g>
						<text transform="matrix(1 0 0 1 8879.0313 3619.4514)" fill="#8A8A8A" font-family="'DINPro'" font-size="92.9056">21</text>
					</g>
				</g>
			</g>
		</g>
	</g>
	<g>
		<circle fill="#C7C7C7" cx="8219.569" cy="3840.528" r="47.99"/>
		<circle fill="#C7C7C7" cx="8219.569" cy="4009.529" r="47.99"/>
		<circle fill="#C7C7C7" cx="8219.569" cy="4178.528" r="47.99"/>
		<path fill="#F0F0F0" d="M7920.026,3778.019c0-13.75,11.25-25,25-25h163c13.75,0,25,11.25,25,25v463.02c0,13.75-11.25,25-25,25
			h-163c-13.75,0-25-11.25-25-25V3778.019z"/>
		<g>
			<g>
				<g>
					<text transform="matrix(1 0 0 1 7979.9404 4046.8586)" fill="#8A8A8A" font-family="'DINPro'" font-size="92.9056">22</text>
				</g>
			</g>
		</g>
	</g>
	<g>
		<circle fill="#C7C7C7" cx="8219.569" cy="3300.529" r="47.99"/>
		<circle fill="#C7C7C7" cx="8219.569" cy="3469.529" r="47.99"/>
		<circle fill="#C7C7C7" cx="8219.569" cy="3638.529" r="47.99"/>
		<path fill="#F0F0F0" d="M7920.026,3238.019c0-13.75,11.25-25,25-25h163c13.75,0,25,11.25,25,25v463.02c0,13.75-11.25,25-25,25
			h-163c-13.75,0-25-11.25-25-25V3238.019z"/>
		<g>
			<g>
				<g>
					<text transform="matrix(1 0 0 1 7979.9404 3514.8254)" fill="#8A8A8A" font-family="'DINPro'" font-size="92.9056">23</text>
				</g>
			</g>
		</g>
	</g>
	<g>
		<g>
			<circle fill="#C7C7C7" cx="5342.279" cy="4179.009" r="47.99"/>
			<circle fill="#C7C7C7" cx="5342.279" cy="4010.009" r="47.99"/>
			<circle fill="#C7C7C7" cx="5342.279" cy="3841.009" r="47.99"/>
			<path fill="#F0F0F0" d="M5428.823,3778.49c0-13.75,11.25-25,25-25h163c13.75,0,25,11.25,25,25v463.02c0,13.75-11.25,25-25,25
				h-163c-13.75,0-25-11.25-25-25V3778.49z"/>
			<g>
				<g>
					<g>
						<text transform="matrix(1 0 0 1 5480.9048 4040.9995)" fill="#8A8A8A" font-family="'DINPro'" font-size="92.9056">12</text>
					</g>
				</g>
			</g>
		</g>
		<g>
			<circle fill="#C7C7C7" cx="5342.279" cy="3633.49" r="47.99"/>
			<circle fill="#C7C7C7" cx="5342.279" cy="3464.49" r="47.99"/>
			<circle fill="#C7C7C7" cx="5342.279" cy="3301.009" r="47.99"/>
			<path fill="#F0F0F0" d="M5428.823,3238.49c0-13.75,11.25-25,25-25h163c13.75,0,25,11.25,25,25v463.02c0,13.75-11.25,25-25,25
				h-163c-13.75,0-25-11.25-25-25V3238.49z"/>
			<g>
				<g>
					<g>
						<text transform="matrix(1 0 0 1 5480.9048 3501.4805)" fill="#8A8A8A" font-family="'DINPro'" font-size="92.9056">13</text>
					</g>
				</g>
			</g>
		</g>
	</g>
	<g>
		<path fill="none" stroke="#B5B5B5" stroke-width="5" stroke-miterlimit="10" d="M6110.823,5001.445v1002.948c0,27.5-22.5,50-50,50
			H4364.429V4384.5h1696.394c27.5,0,50,22.5,50,50v416.955"/>
		<g>
			<g>
				<text transform="matrix(1 0 0 1 5159.145 5244.0293)" fill="#8A8A8A" font-family="'DINPro-Bold'" font-size="92.9056">VIP</text>
			</g>
		</g>
		<g>
			<circle fill="#C7C7C7" cx="4590.55" cy="5519.876" r="47.99"/>
			<circle fill="#C7C7C7" cx="4850.856" cy="5519.876" r="47.99"/>
			<circle fill="#C7C7C7" cx="4590.55" cy="5928.399" r="47.99"/>
			<circle fill="#C7C7C7" cx="4850.856" cy="5928.399" r="47.99"/>
			<path fill="#F0F0F0" d="M4398.969,5619.888c0-13.75,11.25-25,25-25h593.468c13.75,0,25,11.25,25,25v200.102
				c0,13.75-11.25,25-25,25H4423.97c-13.75,0-25-11.25-25-25L4398.969,5619.888L4398.969,5619.888z"/>
			<g>
				<g>
					<g>
						<text transform="matrix(1 0 0 1 4698.4941 5758.0005)" fill="#8A8A8A" font-family="'DINPro'" font-size="92.9056">4</text>
					</g>
				</g>
			</g>
		</g>
		<g>
			<circle fill="#C7C7C7" cx="4773.959" cy="5148.49" r="47.99"/>
			<circle fill="#C7C7C7" cx="4557.962" cy="5359.384" r="47.99"/>
			<path fill="#F0F0F0" d="M4398.969,5024.417c0-13.75,11.25-25,25-25h252.985c13.75,0,25,11.25,25,25v231.601
				c0,13.75-11.25,25-25,25h-252.985c-13.75,0-25-11.25-25-25V5024.417z"/>
			<g>
				<g>
					<g>
						<text transform="matrix(1 0 0 1 4528.2524 5176.0293)" fill="#8A8A8A" font-family="'DINPro'" font-size="92.9056">6</text>
					</g>
				</g>
			</g>
		</g>
		<g>
			<circle fill="#C7C7C7" cx="4472.289" cy="4569.12" r="47.99"/>
			<circle fill="#C7C7C7" cx="4472.289" cy="4824.867" r="47.99"/>
			<circle fill="#C7C7C7" cx="4887.768" cy="4569.12" r="47.99"/>
			<circle fill="#C7C7C7" cx="4887.768" cy="4824.867" r="47.99"/>
			<path fill="#F0F0F0" d="M4557.962,4467.56c0-13.75,11.25-25,25-25h198.988c13.75,0,25,11.25,25,25v458.867
				c0,13.75-11.25,25-25,25h-198.988c-13.75,0-25-11.25-25-25V4467.56z"/>
			<g>
				<g>
					<g>
						<text transform="matrix(1 0 0 1 4664.2471 4736.8872)" fill="#8A8A8A" font-family="'DINPro'" font-size="92.9056">7</text>
					</g>
				</g>
			</g>
		</g>
		<g>
			<circle fill="#C7C7C7" cx="5687.953" cy="5142.246" r="47.99"/>
			<circle fill="#C7C7C7" cx="5908.955" cy="5361.412" r="47.99"/>
			<path fill="#F0F0F0" d="M5754.962,5026.445c0-13.75,11.25-25,25-25h252.985c13.75,0,25,11.25,25,25v231.601
				c0,13.75-11.25,25-25,25h-252.985c-13.75,0-25-11.25-25-25V5026.445z"/>
			<g>
				<g>
					<g>
						<text transform="matrix(1 0 0 1 5855.5356 5175.7354)" fill="#8A8A8A" font-family="'DINPro'" font-size="92.9056">10</text>
					</g>
				</g>
			</g>
		</g>
		<g>
			<circle fill="#C7C7C7" cx="5687.953" cy="4582.754" r="47.99"/>
			<circle fill="#C7C7C7" cx="5908.955" cy="4795.92" r="47.99"/>
			<path fill="#F0F0F0" d="M5754.962,4460.955c0-13.75,11.25-25,25-25h252.985c13.75,0,25,11.25,25,25v231.601
				c0,13.75-11.25,25-25,25h-252.985c-13.75,0-25-11.25-25-25V4460.955z"/>
			<g>
				<g>
					<g>
						<text transform="matrix(1 0 0 1 5855.5356 4621.2441)" fill="#8A8A8A" font-family="'DINPro'" font-size="92.9056">11</text>
					</g>
				</g>
			</g>
		</g>
		<g>
			<circle fill="#C7C7C7" cx="5554.289" cy="5608.946" r="47.99"/>
			<circle fill="#C7C7C7" cx="5554.289" cy="5864.693" r="47.99"/>
			<circle fill="#C7C7C7" cx="5969.768" cy="5608.946" r="47.99"/>
			<circle fill="#C7C7C7" cx="5969.768" cy="5864.693" r="47.99"/>
			<path fill="#F0F0F0" d="M5639.962,5507.386c0-13.75,11.25-25,25-25h198.988c13.75,0,25,11.25,25,25v458.867
				c0,13.75-11.25,25-25,25h-198.988c-13.75,0-25-11.25-25-25V5507.386z"/>
			<g>
				<g>
					<g>
						<text transform="matrix(1 0 0 1 5744.6729 5768.5)" fill="#8A8A8A" font-family="'DINPro'" font-size="92.9056">5</text>
					</g>
				</g>
			</g>
		</g>
	</g>
	<g>
		<path fill="none" stroke="#B5B5B5" stroke-width="5" stroke-miterlimit="10" d="M6805.626,6415.576c0-27.5,22.5-50,50-50h1969.197
			c27.5,0,50,22.5,50,50V6808.5c0,27.5-22.5,50-50,50H6855.626c-27.5,0-50-22.5-50-50V6415.576z"/>
		<g>
			<g>
				<text transform="matrix(1 0 0 1 7625.5425 6599.7422)" fill="#8A8A8A" font-family="'DINPro-Bold'" font-size="92.9056">Входной</text>
			</g>
		</g>
		<circle fill="#C7C7C7" cx="7812.707" cy="6736.098" r="47.99"/>
	</g>
	<g>
		<path fill="none" stroke="#B5B5B5" stroke-width="5" stroke-miterlimit="10" d="M5797.676,3034.5c0-27.5,22.5-50,50-50h1867.06
			c27.5,0,50,22.5,50,50v1202.907c0,27.5-22.5,50-50,50h-1867.06c-27.5,0-50-22.5-50-50V3034.5z"/>
		<g>
			<g>
				<text transform="matrix(1 0 0 1 6627.6362 3644.1611)" fill="#8A8A8A" font-family="'DINPro-Bold'" font-size="92.9056">Входной</text>
			</g>
		</g>
		<circle fill="#C7C7C7" cx="6838.801" cy="3780.517" r="47.99"/>
	</g>
	<g>
		<g>
			<g>
				<text transform="matrix(1 0 0 1 5050.3369 2984.5)" fill="#8A8A8A" font-family="'DINPro-Bold'" font-size="92.9056">VIP</text>
			</g>
		</g>
		<g>
			<circle fill="#C7C7C7" cx="4533.823" cy="3852.5" r="47.99"/>
			<circle fill="#C7C7C7" cx="4783.823" cy="3852.5" r="47.99"/>
			<circle fill="#C7C7C7" cx="4533.823" cy="4266.51" r="47.99"/>
			<circle fill="#C7C7C7" cx="4783.823" cy="4266.51" r="47.99"/>
			<path fill="#F0F0F0" d="M4398.823,3965.972c0-13.75,11.25-25,25-25h470c13.75,0,25,11.25,25,25v188c0,13.75-11.25,25-25,25h-470
				c-13.75,0-25-11.25-25-25V3965.972z"/>
			<g>
				<g>
					<g>
						<text transform="matrix(1 0 0 1 4636.6143 4101.5537)" fill="#8A8A8A" font-family="'DINPro'" font-size="92.9056">8</text>
					</g>
				</g>
			</g>
		</g>
		<g>
			<circle fill="#C7C7C7" cx="4533.823" cy="3132.324" r="47.99"/>
			<circle fill="#C7C7C7" cx="4783.823" cy="3132.324" r="47.99"/>
			<circle fill="#C7C7C7" cx="4533.823" cy="3545.5" r="47.99"/>
			<circle fill="#C7C7C7" cx="4783.823" cy="3545.5" r="47.99"/>
			<path fill="#F0F0F0" d="M4398.823,3243.5c0-13.75,11.25-25,25-25h470c13.75,0,25,11.25,25,25v188c0,13.75-11.25,25-25,25h-470
				c-13.75,0-25-11.25-25-25V3243.5z"/>
			<g>
				<g>
					<g>
						<text transform="matrix(1 0 0 1 4636.6143 3383)" fill="#8A8A8A" font-family="'DINPro'" font-size="92.9056">9</text>
					</g>
				</g>
			</g>
		</g>
		<path fill="none" stroke="#B5B5B5" stroke-width="5" stroke-miterlimit="10" d="M5127.603,2768.5v-303.161
			c0,0-659.103,0-703.103,0s-60.071,26.161-60.071,56.161s0,1863,0,1863h763.174v-1275"/>
	</g>
</g>
</svg>
