<?xml version="1.0" encoding="utf-8"?>
<!-- Generator: Adobe Illustrator 17.0.0, SVG Export Plug-In . SVG Version: 6.00 Build 0)  -->
<!DOCTYPE svg PUBLIC "-//W3C//DTD SVG 1.1//EN" "http://www.w3.org/Graphics/SVG/1.1/DTD/svg11.dtd">
<svg version="1.1" id="Layer_2" xmlns="http://www.w3.org/2000/svg" xmlns:xlink="http://www.w3.org/1999/xlink" x="0px" y="0px"
	 width="10240px" height="7680px" viewBox="0 0 10240 7680" enable-background="new 0 0 10240 7680" xml:space="preserve">
<metadata><?xpacket begin="﻿" id="W5M0MpCehiHzreSzNTczkc9d"?>
<x:xmpmeta xmlns:x="adobe:ns:meta/" x:xmptk="Adobe XMP Core 5.5-c014 79.151739, 2013/04/03-12:12:15        ">
   <rdf:RDF xmlns:rdf="http://www.w3.org/1999/02/22-rdf-syntax-ns#">
      <rdf:Description rdf:about=""
            xmlns:xmp="http://ns.adobe.com/xap/1.0/"
            xmlns:xmpGImg="http://ns.adobe.com/xap/1.0/g/img/"
            xmlns:xmpTPg="http://ns.adobe.com/xap/1.0/t/pg/"
            xmlns:stDim="http://ns.adobe.com/xap/1.0/sType/Dimensions#"
            xmlns:stFnt="http://ns.adobe.com/xap/1.0/sType/Font#"
            xmlns:xmpG="http://ns.adobe.com/xap/1.0/g/"
            xmlns:dc="http://purl.org/dc/elements/1.1/"
            xmlns:xmpMM="http://ns.adobe.com/xap/1.0/mm/"
            xmlns:stRef="http://ns.adobe.com/xap/1.0/sType/ResourceRef#"
            xmlns:stEvt="http://ns.adobe.com/xap/1.0/sType/ResourceEvent#">
         <xmp:CreatorTool>Adobe Illustrator CC (Windows)</xmp:CreatorTool>
         <xmp:CreateDate>2020-06-06T13:46:25+03:00</xmp:CreateDate>
         <xmp:MetadataDate>2020-06-06T13:46:25+03:00</xmp:MetadataDate>
         <xmp:ModifyDate>2020-06-06T13:46:25+03:00</xmp:ModifyDate>
         <xmp:Thumbnails>
            <rdf:Alt>
               <rdf:li rdf:parseType="Resource">
                  <xmpGImg:width>128</xmpGImg:width>
                  <xmpGImg:height>256</xmpGImg:height>
                  <xmpGImg:format>JPEG</xmpGImg:format>
                  <xmpGImg:image>/9j/4AAQSkZJRgABAgEACgAKAAD/7QAsUGhvdG9zaG9wIDMuMAA4QklNA+0AAAAAABAACgAAAAEA&#xA;AQAKAAAAAQAB/+4ADkFkb2JlAGTAAAAAAf/bAIQABgQEBAUEBgUFBgkGBQYJCwgGBggLDAoKCwoK&#xA;DBAMDAwMDAwQDA4PEA8ODBMTFBQTExwbGxscHx8fHx8fHx8fHwEHBwcNDA0YEBAYGhURFRofHx8f&#xA;Hx8fHx8fHx8fHx8fHx8fHx8fHx8fHx8fHx8fHx8fHx8fHx8fHx8fHx8fHx8f/8AAEQgBAACAAwER&#xA;AAIRAQMRAf/EAaIAAAAHAQEBAQEAAAAAAAAAAAQFAwIGAQAHCAkKCwEAAgIDAQEBAQEAAAAAAAAA&#xA;AQACAwQFBgcICQoLEAACAQMDAgQCBgcDBAIGAnMBAgMRBAAFIRIxQVEGE2EicYEUMpGhBxWxQiPB&#xA;UtHhMxZi8CRygvElQzRTkqKyY3PCNUQnk6OzNhdUZHTD0uIIJoMJChgZhJRFRqS0VtNVKBry4/PE&#xA;1OT0ZXWFlaW1xdXl9WZ2hpamtsbW5vY3R1dnd4eXp7fH1+f3OEhYaHiImKi4yNjo+Ck5SVlpeYmZ&#xA;qbnJ2en5KjpKWmp6ipqqusra6voRAAICAQIDBQUEBQYECAMDbQEAAhEDBCESMUEFURNhIgZxgZEy&#xA;obHwFMHR4SNCFVJicvEzJDRDghaSUyWiY7LCB3PSNeJEgxdUkwgJChgZJjZFGidkdFU38qOzwygp&#xA;0+PzhJSktMTU5PRldYWVpbXF1eX1RlZmdoaWprbG1ub2R1dnd4eXp7fH1+f3OEhYaHiImKi4yNjo&#xA;+DlJWWl5iZmpucnZ6fkqOkpaanqKmqq6ytrq+v/aAAwDAQACEQMRAD8A9U4q7FXYq7FXYq7FWG3X&#xA;lzzbLLeGK9VI5bp5YP38oIRvV4HZfh9P1EPDoePyxVuPQfOcNytxBepylkZ5o3mldFEjEsoUruFB&#xA;4ilPoxVDL5c87PD6ct0oCoFI+tTfvCFgQgsEqv8Acs1f8qnicVRun+WfMFvLqE1xdrNJdwNEnGSR&#xA;DzBHBmcLy8RXsOmKqdp5f84pFLFPfI0UsCW6gTS8kAdWLhqbsAzr2rt0xVkuj2t1a6Zb291J6s8a&#xA;8Xk5M9dzT4m3O2KozFXYq7FXYqpqZXUMGUBgCBxJpX6cVVMVUZZJEOxUg9BQ/wBcVWfWJf8AJ+4/&#xA;1xV31iX/ACfuP9cVd9Yl/wAn7j/XFXfWJf8AJ+4/1xV31iX/ACfuP9cVd9Yl/wAn7j/XFXfWJf8A&#xA;J+4/1xV31iX/ACfuP9cVd9Yl/wAn7j/XFXfWJf8AJ+4/1xV31iX/ACfuP9cVd9Yl/wAn7j/XFVYM&#xA;4K8iCGNNhSm1fE+GKug/uY/9UfqxVfiqhc9VxVRxV2KuxV2KuxV2KuxV2KuxV2KuxV2KolusX+t/&#xA;xqcVbg/uY/8AVH6sVX4qoXPVcVUcVdirsVdirsVUYb2znDGGeOUIxRyjqwDg0Kmh6+2KqqujEhWB&#xA;I60NaYq3irsVdirsVdiqJbrF/rf8anFW4P7mP/VH6sVX4qoXPVcVUcVdirsVdirsVSGbyT5fmuku&#xA;pIpDIjBlHqyFaqxZdidgCTQDFUbpGgaXpHrCwjMYnKmQF2f7IoKcifHFUxxV2KuxV2KuxVEt1i/1&#xA;v+NTircH9zH/AKo/Viq/FVC56riqjirsVdirsVdirsVdirsVdirsVdirsVRLdYv9b/jU4q3B/cx/&#xA;6o/Viq/FVOaIvSh6eOKqf1d/EYq76u/iMVd9XfxGKu+rv4jFXfV38Rirvq7+IxV31d/EYq76u/iM&#xA;Vd9XfxGKu+rv4jFXfV38Rirvq7+IxVVcUaIf5X/GpxV0H9zH/qj9WKr8VWOWLqgPEEEkildqePzx&#xA;V3pv/vxv+F/pirvTf/fjf8L/AExV3pv/AL8b/hf6Yq703/343/C/0xV3pv8A78b/AIX+mKu9N/8A&#xA;fjf8L/TFXem/+/G/4X+mKu9N/wDfjf8AC/0xV3pv/vxv+F/pirvTf/fjf8L/AExV3pv/AL8b/hf6&#xA;Yq703/3430hf6Yqt5chC38xr96HFV0H9zH/qj9WKr8VWH++X/Vb9a4qvxV2KuxV2KrJ5GigkkVDI&#xA;yKzKg6sQK079cVYnB+YMn1dZLvQtQgk4lmVYmdAakKochKltqbd8VRK+dJJru0httHvmjuZo42uJ&#xA;ImREjkJHqdD06702xVk2KuxV2KuxV2KqKf3dv9H/ABA4qvg/uY/9UfqxVfiqw/3y/wCq361xVfir&#xA;sVdirsVdiqB1i7vbW2WS0h9aQsARQtQU60WhxVFwPI8EbyLwkZQXT+Ukbj6MVX4q7FXYq7FXYqop&#xA;/d2/0f8AEDiq+D+5j/1R+rFV+KrXRiwZSAQCNxXrT3HhirVJv5l/4E/81Yq6k38y/wDAn/mrFXUm&#xA;/mX/AIE/81Yq6k38y/8AAn/mrFXUm/mX/gT/AM1Yq6k38y/8Cf8AmrFXUm/mX/gT/wA1Yq6k38y/&#xA;8Cf+asVdSb+Zf+BP/NWKupN/Mv8AwJ/5qxV1Jv5l/wCBP/NWKupN/Mv/AAJ/5qxVoqF9FR0U0H0K&#xA;cVbg/uY/9UfqxVfirsVdirsVdirsVdirsVdirsVdirsVdirsVWSfbj/1v+NTiroP7mP/AFR+rFV+&#xA;KuxV2KuxV2KobU7CDUdPubGf+6uY2iYihI5CnIVBFR1GKscvPJkKrGqa7e2Q+JIY1mVI6OxbiqAK&#xA;PhDUWnTbFUx0/wArpZX8d2NQvJvSBVYZZS0ZBjCfEvc7Vr44qneKuxV2KuxV2KuxVZJ9uP8A1v8A&#xA;jU4qsgmQwRkBqcR+y3h8sVX+sng3/At/TFXesng3/At/TFXesng3/At/TFVyurdK1HYgg/jireKu&#xA;xVA6lo9tqBiMxYekTTiaVBpUGvyxVHYq7FXYqtaRQabk+wJ/UMVa9ZPBv+Bb+mKu9ZPBv+Bb+mKu&#xA;9ZPBv+Bb+mKrWkUyRDcEsaVUj9lvEYq60/3kh/4xr+oYqq4qhtSjMtlLEHMbSDiHHUHFUkaOB9PT&#xA;SRqC/XEcsV5DkQByK8a8qAODiqd2a8Y4E5mQpGVZz1JXiK4qicVdirsVdirsVdiqV6xbNdQPAkxi&#xA;b1A1RWhAUChp88VQdzEl6LeOC/Jeyok5UgtzAG5odm+eKp+rBlDDodxireKqU395b/8AGQ/8m2xV&#xA;1p/vJD/xjX9QxVVxVDajLHDZyTSAlYhyovU9v44qkDfolIV10QSfWJHKFeRpy48a/wAv2Up0xVPr&#xA;N0kjgkSoWSMuA3X4uJxVFYq7FXYq7FXYq7FUs1a7hs4mnkVnrIECrt1QHevyxVBz3en2QhmWKQ/p&#xA;AiZz3+yq1378QNhiqfKoVQo6DbFW8VUpv7y3/wCMh/5NtirrT/eSH/jGv6hiqriqhfzmCzlmEfql&#xA;Fr6fjiqWPqzjREufqQPJuHoU+ADf4qU6bYqmVvKZVglKGMvEWMZ/Zrx2xVEYq7FXYq7FXYq7FUt1&#xA;a8a0tZJBALjlKqlDuB8INT18MVUb/VnhSyf6kZDMA/EjdDtsNvtb4qnGKuxVSm/vLf8A4yH/AJNt&#xA;iqA1Gyub3Qlt7a7axlKRt9ZUkFQtGO6sp3A8cVSCyh125me2XzdbzzFgY1gWFpCqRsGqorT4mBNP&#xA;wxVls6yLAqoWYigLftGg6mmKpaIdW/SLSGVvqXpBVg47+ryqW5Ur9n3xVMYA4Kc614t169VxVXxV&#xA;2KuxV2KuxV2KoScS+o/CtOW9P9UeGKoK0XV+dx9a+wZT9WCcto6CnKo61riqL1KzurzSpbWC4a0u&#xA;JUAW4WoZDUGoKlT+OKsWgh16e/8Aq0HnG1kchTHbxJE8hUDkRxLM1ONDWp64qy7g0YtEZzIyNxaR&#xA;urERsKmnjiq+0/3kh/4xr/xEYqlml+UfL2l3jXljaLFcMoTnVm4gCnwhiQu3hiqY39v9Zs5YOfpi&#xA;RaFx2xVLJNEB0VLP63RVfn637J6/DSvTfxxVMreH0Vgh5F/TiK8z1NOIriqIxV2KuxV2KuxV2Kpb&#xA;q1gL22kiM3oASqxY9DRQKHceOKqV/oonSyQ3Zj+rgKGPVum43+1tiqb4qlVl5W0Ky1D9IW1qFugH&#xA;CuSzcfUZnbiCSFqXPTtt0xVMJv7y3/4yH/k22KutP95If+Ma/qGKquKobUokms5IXJVZRxqvUd/4&#xA;YqkbQ6a8A0MXD/WYh9ZPw/skla/y0qelcVTuzRI44I0JKxxlAW6/DxGKorFXYq7FXYq7FXYqlerW&#xA;kV5C0DuyfvA4Zd+iAbg/PFUA8WmakscUM8n+45vq8mxryUCo3pv7jFWRKwZQw6HfFW8VUpv7y3/4&#xA;yH/k22KutP8AeSH/AIxr+oYqq4qhtSlENlLMUMnpjkEGxOKpK13app66wLP/AEmQ+iWqK8Kk/bpX&#xA;jUffiqdWbB44JApT1Iy/BuorxNMVROKuxV2KuxV2KuxVK9Yu1s4HuDEZT6gWgNAKqNyaHwxVB3Nz&#xA;a2K28kVmwN8fUlAop5EDrtu2Kp+qhVCjoNhireKqU395b/8AGQ/8m2xVq3iYQRgSMAFWg+Hw+WKr&#xA;/Tf/AH43/C/0xV3pv/vxv+F/pirvTf8A343/AAv9MVbVKEkksTtU06fRTFV2KuxV2KuxV2KuxVaY&#xA;9yVYrXrSm/3g4q16b/78b/hf6Yq703/343/C/wBMVd6b/wC/G/4X+mKrHjPqREuWoxoDT+VvADFX&#xA;QzQ+jH+8X7I7jwxVf68P+/F+8Yq714f9+L94xV3rw/78X7xiq5WVhVSGHiDXFW8VdirsVdirsVdi&#xA;rTSIv2mC/M0xVb68P+/F+8Yq714f9+L94xV3rw/78X7xiq1pI2eMKwJ5HYEH9k4q60/3kh/4xr+o&#xA;Yqq4q7FXYqsO0w91NfoIp+vFV+KuxV2KuxV2KuxVC3U8kFvczRx+rIm6oO/wjFUPa6jcz2cU0kXo&#xA;u1aqQexpUVxV2lanPewxyyQtAZCwMMgKuvFiNwQPDFUyxVSm/vLf/jIf+TbYq60/3kh/4xr+oYqq&#xA;4q7FXYqsP98v+q361xVfirsVdirsVdirsVWR/bk/1v8AjUYqgNXh1aSSD6hIEUE+rWntQmvUYq5o&#xA;dW/TIkVwNPpum38vSnWvLFUyxVSm/vLf/jIf+TbYq60/3kh/4xr+oYqq4q7FXYqsP98v+q361xVf&#xA;irsVdirsVdirsVQt09ylvctbKHnB/dqe54riqHtZ9Sezie6UxzGvIAU2rtUdsVa0qfUZYo2u1KSk&#xA;tzSlKAMQu1Xp8NO+KpniqlN/eW//ABkP/JtsVdaf7yQ/8Y1/UMVVGZVUsxoqipPsMVSyw8z6BfpE&#xA;1rfRv65AiVqozEllA4OFbco1NsVTTFVh/vl/1W/WuKr8VdirsVdirsVdiqyP7cn+t/xqMVQOradd&#xA;3jwNb3BgERJYb71pvt3GKubTrs6yL0XBFuBT0d/5aUp0pXfFUxxVSm/vLf8A4yH/AJNtirrT/eSH&#xA;/jGv6hiqqQCCCKg7EHpTFUst/LHl+3mjmg0+CKSJg6MiBaMoIDUGxIqaE9MVTPFWmRWpWtR0IJH6&#xA;sVW+ini3/BN/XFXeini3/BN/XFXAcZAoJIYE7kncEePzxVfirsVdiqFurh7e3uZkjMroahB3+FcV&#xA;ULTUp57OOdovSZ61U17HqK4q1pOp3F7BFLLEITIWrH8WwDEA/EEO4Fd1GKpliqlN/eW//GQ/8m2x&#xA;V1p/vJD/AMY1/UMVVcVdirsVdirsVdiqw/3y/wCq361xVfirsVdiqyP7cn+t/wAajFUBq8OrSPB9&#xA;RdVVSfVrT2pWvUYq4waqNZEiso0+m67fy9Kda8sVTLFVKb+8t/8AjIf+TbYqstJohawguoIRaio8&#xA;Biqr68P+/F+8Yq714f8Afi/eMVd68P8AvxfvGKu9eH/fi/eMVd68P+/F+8Yq714f9+L94xVoMHlD&#xA;KaqqkE9tyOn3YqqYq7FXYqhbqWeK3uZII/VmXdE61PFewxVCR6neLpQu7mIxyKruyKKEqgrsGO1f&#xA;fFV9xf3Y017i2j9WX4Sq0rse9B4Yqi7GWea0ikuE9OZhV03FD8jiq6b+8t/+Mh/5Ntiq6D+5j/1R&#xA;+rFV+KuxV2KuxV2KuxV2KuxV2KuxVC3Vt9at7m35mP1Ph5jt8K4qlvO00qK20+d3kdySHAFAGNOh&#xA;PSuKuaS11NbrTIXeORDUuQKHg1D0PSuKprY2v1W0it+Zk9MU5nviq6b+8t/+Mh/5NtirUM0QiQF1&#xA;BCgEEjwxVf68P+/F+8Yq714f9+L94xV3rw/78X7xirvXh/34v3jFXevD/vxfvGKu9eH/AH4v3jFX&#xA;evD/AL8X7xiq5XRq8WDU60NcVbxVZ60P86/eMVU1ubdXk5SoKtUVYD9kYqtkk02R0eRoXeM1RmKk&#xA;qfYnpirkk02N3kRoUkk3d1Kgt8yOuKqn1u0/39H/AMEP64qsaaGSWARurkOSQpBoODCu3zxV/9k=</xmpGImg:image>
               </rdf:li>
            </rdf:Alt>
         </xmp:Thumbnails>
         <xmpTPg:MaxPageSize rdf:parseType="Resource">
            <stDim:w>10240.000397</stDim:w>
            <stDim:h>7680.000122</stDim:h>
            <stDim:unit>Points</stDim:unit>
         </xmpTPg:MaxPageSize>
         <xmpTPg:NPages>1</xmpTPg:NPages>
         <xmpTPg:HasVisibleTransparency>False</xmpTPg:HasVisibleTransparency>
         <xmpTPg:HasVisibleOverprint>False</xmpTPg:HasVisibleOverprint>
         <xmpTPg:Fonts>
            <rdf:Bag>
               <rdf:li rdf:parseType="Resource">
                  <stFnt:fontName>DINPro</stFnt:fontName>
                  <stFnt:fontFamily>DIN Pro</stFnt:fontFamily>
                  <stFnt:fontFace>Regular</stFnt:fontFace>
                  <stFnt:fontType>TrueType</stFnt:fontType>
                  <stFnt:versionString>Version 7.504; 2005; Build 1021</stFnt:versionString>
                  <stFnt:composite>False</stFnt:composite>
                  <stFnt:fontFileName/>
               </rdf:li>
               <rdf:li rdf:parseType="Resource">
                  <stFnt:fontName>DINPro-Bold</stFnt:fontName>
                  <stFnt:fontFamily>DIN Pro</stFnt:fontFamily>
                  <stFnt:fontFace>Bold</stFnt:fontFace>
                  <stFnt:fontType>TrueType</stFnt:fontType>
                  <stFnt:versionString>Version 7.504; 2005; Build 1020</stFnt:versionString>
                  <stFnt:composite>False</stFnt:composite>
                  <stFnt:fontFileName/>
               </rdf:li>
            </rdf:Bag>
         </xmpTPg:Fonts>
         <xmpTPg:PlateNames>
            <rdf:Seq>
               <rdf:li>Cyan</rdf:li>
               <rdf:li>Magenta</rdf:li>
               <rdf:li>Yellow</rdf:li>
               <rdf:li>Black</rdf:li>
            </rdf:Seq>
         </xmpTPg:PlateNames>
         <xmpTPg:SwatchGroups>
            <rdf:Seq>
               <rdf:li rdf:parseType="Resource">
                  <xmpG:groupName>Default Swatch Group</xmpG:groupName>
                  <xmpG:groupType>0</xmpG:groupType>
               </rdf:li>
            </rdf:Seq>
         </xmpTPg:SwatchGroups>
         <dc:format>image/svg+xml</dc:format>
         <xmpMM:DerivedFrom rdf:parseType="Resource">
            <stRef:instanceID>xmp.iid:2998dad7-3435-5945-92d2-0e4cea048dd3</stRef:instanceID>
            <stRef:documentID>xmp.did:2998dad7-3435-5945-92d2-0e4cea048dd3</stRef:documentID>
            <stRef:originalDocumentID>xmp.did:82aacf58-607c-a645-8469-3b9abc83840d</stRef:originalDocumentID>
            <stRef:renditionClass>proof:pdf</stRef:renditionClass>
         </xmpMM:DerivedFrom>
         <xmpMM:DocumentID>xmp.did:ec0b0876-0d71-0441-b84d-753c89d45ec6</xmpMM:DocumentID>
         <xmpMM:InstanceID>xmp.iid:ec0b0876-0d71-0441-b84d-753c89d45ec6</xmpMM:InstanceID>
         <xmpMM:OriginalDocumentID>xmp.did:82aacf58-607c-a645-8469-3b9abc83840d</xmpMM:OriginalDocumentID>
         <xmpMM:History>
            <rdf:Seq>
               <rdf:li rdf:parseType="Resource">
                  <stEvt:action>saved</stEvt:action>
                  <stEvt:instanceID>xmp.iid:82aacf58-607c-a645-8469-3b9abc83840d</stEvt:instanceID>
                  <stEvt:when>2018-10-21T17:28:59+03:00</stEvt:when>
                  <stEvt:softwareAgent>Adobe Illustrator CC (Windows)</stEvt:softwareAgent>
                  <stEvt:changed>/</stEvt:changed>
               </rdf:li>
               <rdf:li rdf:parseType="Resource">
                  <stEvt:action>saved</stEvt:action>
                  <stEvt:instanceID>xmp.iid:ec0b0876-0d71-0441-b84d-753c89d45ec6</stEvt:instanceID>
                  <stEvt:when>2020-06-06T13:46:25+03:00</stEvt:when>
                  <stEvt:softwareAgent>Adobe Illustrator CC (Windows)</stEvt:softwareAgent>
                  <stEvt:changed>/</stEvt:changed>
               </rdf:li>
            </rdf:Seq>
         </xmpMM:History>
         <xmpMM:RenditionClass>proof:pdf</xmpMM:RenditionClass>
      </rdf:Description>
   </rdf:RDF>
</x:xmpmeta>
                                                                                                    
                                                                                                    
                                                                                                    
                                                                                                    
                                                                                                    
                                                                                                    
                                                                                                    
                                                                                                    
                                                                                                    
                                                                                                    
                                                                                                    
                                                                                                    
                                                                                                    
                                                                                                    
                                                                                                    
                                                                                                    
                                                                                                    
                                                                                                    
                                                                                                    
                                                                                                    
                           
<?xpacket end="w"?>
	</metadata>
<g>
	<g>
		<path fill="none" stroke="#B5B5B5" stroke-width="5" stroke-miterlimit="10" d="M5244.814,6858.678H3691.47c-27.5,0-50-22.5-50-50
			V1146.283c0-27.5,22.5-50,50-50h136.554"/>
		<path fill="none" stroke="#B5B5B5" stroke-width="5" stroke-miterlimit="10" d="M4047.842,1096.283H6548.53c27.5,0,50,22.5,50,50
			v5662.395l0,0c0,27.5-22.5,50-50,50H5542.69"/>
	</g>
	<g>
		<path fill="#F5F5F5" d="M4107.149,1146.283c0-27.5,22.5-50,50-50h2274.185c27.5,0,50,22.5,50,50v871.016c0,27.5-22.5,50-50,50
			H4157.149c-27.5,0-50-22.5-50-50V1146.283z"/>
		<g>
			<g>
				<g>
					<text transform="matrix(1 0 0 1 5162.2031 1635.2761)" fill="#8A8A8A" font-family="'DINPro-Bold'" font-size="92.9056">Сцена</text>
				</g>
			</g>
		</g>
	</g>
	<g>
		<g>
			<g>
				<text transform="matrix(1 0 0 1 4788.7373 942.7678)" fill="#8A8A8A" font-family="'DINPro-Bold'" font-size="136">БОЛЬШОЙ ЗАЛ</text>
			</g>
		</g>
	</g>
	<g>
		<g>
			<text transform="matrix(1 0 0 1 4927.1392 3158.4333)" fill="#8A8A8A" font-family="'DINPro-Bold'" font-size="92.9056">Танцпол</text>
		</g>
	</g>
	<circle fill="#C7C7C7" cx="5100.086" cy="3300.971" r="47.99"/>
	<g>
		<g>
			<g>
				<text transform="matrix(1 0 0 1 5138.2031 2502.5522)" fill="#8A8A8A" font-family="'DINPro-Bold'" font-size="92.9056">Входной</text>
			</g>
		</g>
		<circle fill="#C7C7C7" cx="5311.151" cy="2638.908" r="47.99"/>
		<path fill="none" stroke="#B5B5B5" stroke-width="5" stroke-miterlimit="10" d="M4111.737,2258.552c0-27.5,22.5-50,50-50h2267.78
			c27.5,0,50,22.5,50,50v488c0,27.5-22.5,50-50,50h-2267.78c-27.5,0-50-22.5-50-50V2258.552z"/>
	</g>
	<g>
		<path fill="none" stroke="#B5B5B5" stroke-width="5" stroke-miterlimit="10" d="M4538.737,5960.678c-27.5,0-50-22.5-50-50v-704
			c0-27.5-22.5-50-50-50H3641.47v1304h797.267c27.5,0,72.5,0,100,0h466.966c27.5,0,50-22.5,50-50v-400c0-27.5-22.5-50-50-50
			H4538.737z"/>
		<g>
			<g>
				<g>
					<text transform="matrix(1 0 0 1 4009.5332 5951.8799)" fill="#8A8A8A" font-family="'DINPro-Bold'" font-size="92.9056">Бар</text>
				</g>
			</g>
		</g>
	</g>
	<g>
		<path fill="none" stroke="#B5B5B5" stroke-width="5" stroke-miterlimit="10" d="M5772.577,5206.678c0-27.5,22.5-50,50-50h775.953
			v1652c0,27.5-22.5,50-50,50h-725.953c-27.5,0-50-22.5-50-50V5206.678z"/>
		<g>
			<circle fill="#C7C7C7" cx="5913.32" cy="6412.688" r="47.99"/>
			<circle fill="#C7C7C7" cx="5913.32" cy="6531.182" r="47.99"/>
			<circle fill="#C7C7C7" cx="6273.32" cy="6412.688" r="47.99"/>
			<circle fill="#C7C7C7" cx="6273.32" cy="6531.182" r="47.99"/>
			<circle fill="#C7C7C7" cx="6031.587" cy="6648.058" r="47.99"/>
			<circle fill="#C7C7C7" cx="6158.487" cy="6648.058" r="47.99"/>
			<path fill="#F0F0F0" d="M6008.254,6374.13c0-13.75,11.25-25,25-25h113.492c13.75,0,25,11.25,25,25v162.989
				c0,13.75-11.25,25-25,25h-113.492c-13.75,0-25-11.25-25-25V6374.13z"/>
			<g>
				<g>
					<g>
						<text transform="matrix(1 0 0 1 6064.4399 6487.9336)" fill="#8A8A8A" font-family="'DINPro'" font-size="92.9056">1</text>
					</g>
				</g>
			</g>
		</g>
		<g>
			<circle fill="#C7C7C7" cx="5913.32" cy="6048.378" r="47.99"/>
			<circle fill="#C7C7C7" cx="6040.587" cy="6192.081" r="47.99"/>
			<circle fill="#C7C7C7" cx="6190.579" cy="6192.081" r="47.99"/>
			<path fill="#F0F0F0" d="M5992.597,6007.678c0-13.75,11.25-25,25-25h195.972c13.75,0,25,11.25,25,25v81.399
				c0,13.75-11.25,25-25,25h-195.972c-13.75,0-25-11.25-25-25V6007.678z"/>
			<g>
				<g>
					<g>
						<text transform="matrix(1 0 0 1 6090.0234 6081.5361)" fill="#8A8A8A" font-family="'DINPro'" font-size="92.9056">2</text>
					</g>
				</g>
			</g>
		</g>
		<g>
			<circle fill="#C7C7C7" cx="5913.32" cy="5646.868" r="47.99"/>
			<circle fill="#C7C7C7" cx="6040.587" cy="5790.572" r="47.99"/>
			<circle fill="#C7C7C7" cx="6190.579" cy="5790.572" r="47.99"/>
			<path fill="#F0F0F0" d="M5992.597,5606.168c0-13.75,11.25-25,25-25h195.972c13.75,0,25,11.25,25,25v81.399
				c0,13.75-11.25,25-25,25h-195.972c-13.75,0-25-11.25-25-25V5606.168z"/>
			<g>
				<g>
					<g>
						<text transform="matrix(1 0 0 1 6090.0234 5678.5361)" fill="#8A8A8A" font-family="'DINPro'" font-size="92.9056">3</text>
					</g>
				</g>
			</g>
		</g>
		<g>
			<circle fill="#C7C7C7" cx="5913.32" cy="5291.386" r="47.99"/>
			<circle fill="#C7C7C7" cx="6040.587" cy="5435.089" r="47.99"/>
			<circle fill="#C7C7C7" cx="6190.579" cy="5435.089" r="47.99"/>
			<path fill="#F0F0F0" d="M5992.597,5250.686c0-13.75,11.25-25,25-25h195.972c13.75,0,25,11.25,25,25v81.399
				c0,13.75-11.25,25-25,25h-195.972c-13.75,0-25-11.25-25-25V5250.686z"/>
			<g>
				<g>
					<g>
						<text transform="matrix(1 0 0 1 6090.0234 5323.7329)" fill="#8A8A8A" font-family="'DINPro'" font-size="92.9056">4</text>
					</g>
				</g>
			</g>
		</g>
	</g>
	<g>
		<path fill="none" stroke="#B5B5B5" stroke-width="5" stroke-miterlimit="10" d="M5772.577,3481.273c0-27.5,22.5-50,50-50h775.953
			v1405.405h-775.953c-27.5,0-50-22.5-50-50V3481.273z"/>
		<g>
			<g>
				<text transform="matrix(1 0 0 1 6238.5693 4133.9756)" fill="#8A8A8A" font-family="'DINPro-Bold'" font-size="92.9056">Super</text>
				<text transform="matrix(1 0 0 1 6284.4263 4267.248)" fill="#8A8A8A" font-family="'DINPro-Bold'" font-size="92.9056">VIP</text>
			</g>
		</g>
		<g>
			<circle fill="#C7C7C7" cx="5881.033" cy="4735.595" r="47.99"/>
			<circle fill="#C7C7C7" cx="6040.033" cy="4735.595" r="47.99"/>
			<circle fill="#C7C7C7" cx="5881.033" cy="4445.595" r="47.99"/>
			<circle fill="#C7C7C7" cx="6040.033" cy="4445.595" r="47.99"/>
			<path fill="#F0F0F0" d="M5803.311,4545.678c0-13.75,11.25-25,25-25h266c13.75,0,25,11.25,25,25v90c0,13.75-11.25,25-25,25h-266
				c-13.75,0-25-11.25-25-25V4545.678z"/>
			<g>
				<g>
					<g>
						<text transform="matrix(1 0 0 1 5935.75 4624.6631)" fill="#8A8A8A" font-family="'DINPro'" font-size="92.9056">5</text>
					</g>
				</g>
			</g>
		</g>
		<g>
			<circle fill="#C7C7C7" cx="5881.033" cy="4267.595" r="47.99"/>
			<circle fill="#C7C7C7" cx="6040.033" cy="4267.595" r="47.99"/>
			<circle fill="#C7C7C7" cx="5881.033" cy="3975.595" r="47.99"/>
			<circle fill="#C7C7C7" cx="6040.033" cy="3975.595" r="47.99"/>
			<path fill="#F0F0F0" d="M5803.311,4075.678c0-13.75,11.25-25,25-25h266c13.75,0,25,11.25,25,25v90c0,13.75-11.25,25-25,25h-266
				c-13.75,0-25-11.25-25-25V4075.678z"/>
			<g>
				<g>
					<g>
						<text transform="matrix(1 0 0 1 5935.75 4152.6162)" fill="#8A8A8A" font-family="'DINPro'" font-size="92.9056">6</text>
					</g>
				</g>
			</g>
		</g>
		<g>
			<circle fill="#C7C7C7" cx="5881.033" cy="3805.595" r="47.99"/>
			<circle fill="#C7C7C7" cx="6040.033" cy="3805.595" r="47.99"/>
			<circle fill="#C7C7C7" cx="5881.033" cy="3520.502" r="47.99"/>
			<circle fill="#C7C7C7" cx="6040.033" cy="3520.502" r="47.99"/>
			<path fill="#F0F0F0" d="M5803.311,3613.678c0-13.75,11.25-25,25-25h266c13.75,0,25,11.25,25,25v90c0,13.75-11.25,25-25,25h-266
				c-13.75,0-25-11.25-25-25V3613.678z"/>
			<g>
				<g>
					<g>
						<text transform="matrix(1 0 0 1 5935.75 3695.9023)" fill="#8A8A8A" font-family="'DINPro'" font-size="92.9056">7</text>
					</g>
				</g>
			</g>
		</g>
	</g>
	<g>
		<path fill="none" stroke="#B5B5B5" stroke-width="5" stroke-miterlimit="10" d="M3641.47,3431.273h797.267c27.5,0,50,22.5,50,50
			v1305.405c0,27.5-22.5,50-50,50H3641.47V3431.273z"/>
		<g>
			<g>
				<text transform="matrix(1 0 0 1 3773.6812 4133.9756)" fill="#8A8A8A" font-family="'DINPro-Bold'" font-size="92.9056">Super</text>
				<text transform="matrix(1 0 0 1 3819.5381 4267.248)" fill="#8A8A8A" font-family="'DINPro-Bold'" font-size="92.9056">VIP</text>
			</g>
		</g>
		<g>
			<circle fill="#C7C7C7" cx="4214.46" cy="4735.595" r="47.99"/>
			<circle fill="#C7C7C7" cx="4373.46" cy="4735.595" r="47.99"/>
			<circle fill="#C7C7C7" cx="4214.46" cy="4445.595" r="47.99"/>
			<circle fill="#C7C7C7" cx="4373.46" cy="4445.595" r="47.99"/>
			<path fill="#F0F0F0" d="M4136.737,4545.678c0-13.75,11.25-25,25-25h266c13.75,0,25,11.25,25,25v90c0,13.75-11.25,25-25,25h-266
				c-13.75,0-25-11.25-25-25V4545.678L4136.737,4545.678z"/>
			<g>
				<g>
					<g>
						<text transform="matrix(1 0 0 1 4269.1763 4624.6631)" fill="#8A8A8A" font-family="'DINPro'" font-size="92.9056">8</text>
					</g>
				</g>
			</g>
		</g>
		<g>
			<circle fill="#C7C7C7" cx="4214.46" cy="4267.595" r="47.99"/>
			<circle fill="#C7C7C7" cx="4373.46" cy="4267.595" r="47.99"/>
			<circle fill="#C7C7C7" cx="4214.46" cy="3975.595" r="47.99"/>
			<circle fill="#C7C7C7" cx="4373.46" cy="3975.595" r="47.99"/>
			<path fill="#F0F0F0" d="M4136.737,4075.678c0-13.75,11.25-25,25-25h266c13.75,0,25,11.25,25,25v90c0,13.75-11.25,25-25,25h-266
				c-13.75,0-25-11.25-25-25V4075.678L4136.737,4075.678z"/>
			<g>
				<g>
					<g>
						<text transform="matrix(1 0 0 1 4269.1763 4152.6162)" fill="#8A8A8A" font-family="'DINPro'" font-size="92.9056">9</text>
					</g>
				</g>
			</g>
		</g>
		<g>
			<circle fill="#C7C7C7" cx="4214.46" cy="3805.595" r="47.99"/>
			<circle fill="#C7C7C7" cx="4373.46" cy="3805.595" r="47.99"/>
			<circle fill="#C7C7C7" cx="4214.46" cy="3520.502" r="47.99"/>
			<circle fill="#C7C7C7" cx="4373.46" cy="3520.502" r="47.99"/>
			<path fill="#F0F0F0" d="M4136.737,3613.678c0-13.75,11.25-25,25-25h266c13.75,0,25,11.25,25,25v90c0,13.75-11.25,25-25,25h-266
				c-13.75,0-25-11.25-25-25V3613.678L4136.737,3613.678z"/>
			<g>
				<g>
					<g>
						<text transform="matrix(1 0 0 1 4240.4663 3695.9023)" fill="#8A8A8A" font-family="'DINPro'" font-size="92.9056">10</text>
					</g>
				</g>
			</g>
		</g>
	</g>
</g>
</svg>
