<?xml version="1.0" encoding="utf-8"?>
<svg version="1.1" id="map-svg" xmlns="http://www.w3.org/2000/svg" xmlns:xlink="http://www.w3.org/1999/xlink" x="0px" y="0px" width="1024" height="768" viewBox="0 0 10240 7680" xml:space="preserve">
	<metadata>
		<?xpacket begin="﻿" id="W5M0MpCehiHzreSzNTczkc9d"?>
        <x:xmpmeta xmlns:x="adobe:ns:meta/" x:xmptk="Adobe XMP Core 5.5-c014 79.151739, 2013/04/03-12:12:15">
			<rdf:RDF xmlns:rdf="http://www.w3.org/1999/02/22-rdf-syntax-ns#">
				<rdf:Description rdf:about="" xmlns:xmp="http://ns.adobe.com/xap/1.0/" xmlns:xmpGImg="http://ns.adobe.com/xap/1.0/g/img/" xmlns:xmpTPg="http://ns.adobe.com/xap/1.0/t/pg/" xmlns:stDim="http://ns.adobe.com/xap/1.0/sType/Dimensions#" xmlns:stFnt="http://ns.adobe.com/xap/1.0/sType/Font#" xmlns:xmpG="http://ns.adobe.com/xap/1.0/g/" xmlns:dc="http://purl.org/dc/elements/1.1/" xmlns:xmpMM="http://ns.adobe.com/xap/1.0/mm/" xmlns:stRef="http://ns.adobe.com/xap/1.0/sType/ResourceRef#" xmlns:stEvt="http://ns.adobe.com/xap/1.0/sType/ResourceEvent#">
					<xmpTPg:MaxPageSize rdf:parseType="Resource">
						<stDim:w>10240.000397</stDim:w>
                        <stDim:h>7680.000000</stDim:h>
                        <stDim:unit>Points</stDim:unit>
					</xmpTPg:MaxPageSize>
                    <xmpTPg:NPages>1</xmpTPg:NPages>
                    <xmpTPg:HasVisibleTransparency>False</xmpTPg:HasVisibleTransparency>
                    <xmpTPg:HasVisibleOverprint>False</xmpTPg:HasVisibleOverprint>
                    <xmpTPg:Fonts>
						<rdf:Bag>
							<rdf:li rdf:parseType="Resource">
								<stFnt:fontName>DINPro</stFnt:fontName>
                                <stFnt:fontFamily>DIN Pro</stFnt:fontFamily>
                                <stFnt:fontFace>Regular</stFnt:fontFace>
                                <stFnt:fontType>TrueType</stFnt:fontType>
                                <stFnt:versionString>Version 7.504; 2005; Build 1021</stFnt:versionString>
                                <stFnt:composite>False</stFnt:composite>
                                <stFnt:fontFileName>DINPro.ttf</stFnt:fontFileName>
							</rdf:li>
						</rdf:Bag>
					</xmpTPg:Fonts>
                    <xmpTPg:PlateNames>
						<rdf:Seq>
							<rdf:li>Cyan</rdf:li>
                            <rdf:li>Magenta</rdf:li>
                            <rdf:li>Yellow</rdf:li>
                            <rdf:li>Black</rdf:li>
						</rdf:Seq>
					</xmpTPg:PlateNames>
                    <xmpTPg:SwatchGroups>
						<rdf:Seq>
							<rdf:li rdf:parseType="Resource">
								<xmpG:groupName>Default Swatch Group</xmpG:groupName>
                                <xmpG:groupType>0</xmpG:groupType>
							</rdf:li>
						</rdf:Seq>
					</xmpTPg:SwatchGroups>
                    <dc:format>image/svg+xml</dc:format>
				</rdf:Description>
			</rdf:RDF>
		</x:xmpmeta>
        <?xpacket end="w"?>
	</metadata>
    <g id="background">
        <path name="Танцевальный партер" tc-sector="5b61bc3c6e55b20b34430ff7" id="5b61bc3c6e55b20b34430ff7" d="m3480.388 4615.566c0-27.5 22.5-50 50-50h2605.092c27.5 0 50 22.5 50 50v895.212c0 27.5-22.5 50-50 50h-2605.092c-27.5 0-50-22.5-50-50z" fill="none" stroke="#b5b5b5" stroke-miterlimit="10" stroke-width="5"/>
        <path name="2-ой этаж" tc-sector="5b61bc3c6e55b20b34430ff6" id="5b61bc3c6e55b20b34430ff6" d="m2248.715 1398.64c0-23.071 9.124-50 50-50s1488.531 0 1488.531 0 0 272.561 0 297.416 17.015 50 50 50 1870.42 0 1901.918 0c31.499 0 62.478-14.858 62.478-50s0-297.416 0-297.416 1504.13 0 1558.796 0c54.667 0 56.64 50 56.64 50v4752.837c0 27.5-22.5 50-50 50h-1054.562c-27.5 0-50-22.5-50-50v-1611.724c0-27.5-22.5-50-50-50h-2758.349c-27.5 0-50 22.5-50 50l-.89 1611.724c0 27.5-22.5 50-50 50h-1054.562c-27.5 0-50-22.5-50-50 0 0 0-4729.766 0-4752.837z" fill="none" stroke="#b5b5b5" stroke-miterlimit="10" stroke-width="5"/>
        <g id="details">
            <path d="m2201.896 6548.233c-27.5 0-50-22.5-50-50v-5174.593c0-27.5 22.5-50 50-50h5262c27.5 0 50 22.5 50 50v5174.593c0 27.5-22.5 50-50 50z" fill="none" stroke="#b5b5b5" stroke-miterlimit="10" stroke-width="5"/>
            <path d="m3844.622 5682.758c0-27.5 22.5-50 50-50h1922.587c27.5 0 50 22.5 50 50v554.212c0 27.5-22.5 50-50 50h-1922.587c-27.5 0-50-22.5-50-50z" fill="#f5f5f5"/>
            <path d="m3836.653 1398.64c0-27.5 22.5-50 50-50h1817.406c27.5 0 50 22.5 50 50v198.06c0 27.5-22.5 50-50 50h-1817.406c-27.5 0-50-22.5-50-50z" fill="none" stroke="#b5b5b5" stroke-miterlimit="10" stroke-width="5"/>

            <path d="m2860.658 4689.867c0-13.75 11.25-25 25-25h163.511c13.75 0 25 11.25 25 25v163.606c0 13.75-11.25 25-25 25h-163.511c-13.75 0-25-11.25-25-25z" fill="#f0f0f0"/>
            <path d="m2638.635 4127.547c0-13.75 11.25-25 25-25h163.511c13.75 0 25 11.25 25 25v163.606c0 13.75-11.25 25-25 25h-163.511c-13.75 0-25-11.25-25-25z" fill="#f0f0f0"/>
            <path d="m2908.648 3041.088c0 13.75-11.25 25-25 25h-163.511c-13.75 0-25-11.25-25-25v-387.814c0-13.75 11.25-25 25-25h163.511c13.75 0 25 11.25 25 25z" fill="#f0f0f0"/>
            <path d="m2908.648 2423.284c0 13.75-11.25 25-25 25h-163.511c-13.75 0-25-11.25-25-25v-387.814c0-13.75 11.25-25 25-25h163.511c13.75 0 25 11.25 25 25z" fill="#f0f0f0"/>
            <path d="m6605.969 2035.47c0-13.75 11.25-25 25-25h163.511c13.75 0 25 11.25 25 25v387.813c0 13.75-11.25 25-25 25h-163.511c-13.75 0-25-11.25-25-25z" fill="#f0f0f0"/>
            <path d="m6605.969 3076.574c0-13.75 11.25-25 25-25h163.511c13.75 0 25 11.25 25 25v387.814c0 13.75-11.25 25-25 25h-163.511c-13.75 0-25-11.25-25-25z" fill="#f0f0f0"/>
            <path d="m6591.969 4116.574c0-13.75 11.25-25 25-25h163.511c13.75 0 25 11.25 25 25v387.813c0 13.75-11.25 25-25 25h-163.511c-13.75 0-25-11.25-25-25z" fill="#f0f0f0"/>
            <path d="m6591.969 4841.442c0-13.75 11.25-25 25-25h163.511c13.75 0 25 11.25 25 25v387.813c0 13.75-11.25 25-25 25h-163.511c-13.75 0-25-11.25-25-25z" fill="#f0f0f0"/>
            <path d="m3475.719 4127.547c0-13.75 11.25-25 25-25h163.511c13.75 0 25 11.25 25 25v163.606c0 13.75-11.25 25-25 25h-163.511c-13.75 0-25-11.25-25-25z" fill="#f0f0f0"/>
            <path d="m4768.849 4127.547c0-13.75 11.25-25 25-25h163.511c13.75 0 25 11.25 25 25v163.606c0 13.75-11.25 25-25 25h-163.511c-13.75 0-25-11.25-25-25z" fill="#f0f0f0"/>
            <path d="m5971.969 4127.547c0-13.75 11.25-25 25-25h163.511c13.75 0 25 11.25 25 25v163.606c0 13.75-11.25 25-25 25h-163.511c-13.75 0-25-11.25-25-25z" fill="#f0f0f0"/>
            <circle cx="3637.808" cy="3066.088" fill="#f0f0f0" r="345.035"/>
            <circle cx="4807.925" cy="2642.343" fill="#f0f0f0" r="345.035"/>
            <circle cx="6041.048" cy="3072.245" fill="#f0f0f0" r="345.035"/>
            <text transform="matrix(1 0 0 1 4699.624 6005.7876)" fill="#8A8A8A" font-family="'DINPro-Bold'" font-size="92.9056">Сцена</text>
            <text transform="matrix(1 0 0 1 4350.396 5035.3486)" fill="#8A8A8A" font-family="'DINPro-Bold'" font-size="92.9056">Танцевальный партер</text>
            <text transform="matrix(1 0 0 1 2338.615 6462.4219)" fill="#8A8A8A" font-family="'DINPro-Bold'" font-size="92.9056">1 этаж</text>
            <text transform="matrix(1 0 0 1 2338.6152 6142.4551)" fill="#8A8A8A" font-family="'DINPro-Bold'" font-size="92.9056">2 этаж</text>
            <text transform="matrix(1 0 0 1 4709.9351 1551.1636)" fill="#8A8A8A" font-family="'DINPro-Bold'" font-size="92.9056">Бар</text>
            <text transform="matrix(1 0 0 1 2940.5671 4803.3867)" fill="#8A8A8A" font-family="'DINPro'" font-size="92.9056">1</text>
            <text transform="matrix(1 0 0 1 4827.1094 4240.3301)" fill="#8A8A8A" font-family="'DINPro'" font-size="92.9056">13</text>
            <text transform="matrix(1 0 0 1 3533.9795 4240.3301)" fill="#8A8A8A" font-family="'DINPro'" font-size="92.9056">12</text>
            <text transform="matrix(1 0 0 1 2721.1423 4240.3301)" fill="#8A8A8A" font-family="'DINPro'" font-size="92.9056">2</text>
            <text transform="matrix(1 0 0 1 6674.478 5073.1719)" fill="#8A8A8A" font-family="'DINPro'" font-size="92.9056">8</text>
            <text transform="matrix(1 0 0 1 6674.478 4338.3301)" fill="#8A8A8A" font-family="'DINPro'" font-size="92.9056">7</text>
            <text transform="matrix(1 0 0 1 6688.4775 3300.3301)" fill="#8A8A8A" font-family="'DINPro'" font-size="92.9056">6</text>
            <text transform="matrix(1 0 0 1 6688.4775 2259.8296)" fill="#8A8A8A" font-family="'DINPro'" font-size="92.9056">5</text>
            <text transform="matrix(1 0 0 1 2781.1448 2259.8296)" fill="#8A8A8A" font-family="'DINPro'" font-size="92.9056">4</text>
            <text transform="matrix(1 0 0 1 2781.1448 2881.8296)" fill="#8A8A8A" font-family="'DINPro'" font-size="92.9056">3</text>
            <text transform="matrix(1 0 0 1 6030.23 4240.3301)" fill="#8A8A8A" font-family="'DINPro'" font-size="92.9056">14</text>
            <text transform="matrix(1 0 0 1 3613.5601 3105.6211)" fill="#8A8A8A" font-family="'DINPro'" font-size="92.9056">9</text>
            <text transform="matrix(1 0 0 1 4764.4307 2688.5793)" fill="#8A8A8A" font-family="'DINPro'" font-size="92.9056">10</text>
            <text transform="matrix(1 0 0 1 6003.0527 3107.5837)" fill="#8A8A8A" font-family="'DINPro'" font-size="92.9056">11</text>
        </g>
    </g>
    <g id="labels">
		<text dataSectorId="5b61bc3c6e55b20b34430ff7">Танцевальный партер</text>
		<text dataSectorId="5b61bc3c6e55b20b34430ff6">2-ой этаж</text>
    </g>

</svg>
