<?xml version="1.0" encoding="utf-8"?>
<svg version="1.1" id="map-svg" xmlns="http://www.w3.org/2000/svg" xmlns:xlink="http://www.w3.org/1999/xlink" x="0px" y="0px" width="1024" height="768" viewBox="0 0 10240 7680" xml:space="preserve">
	<metadata>
		<?xpacket begin="﻿" id="W5M0MpCehiHzreSzNTczkc9d"?>
		<x:xmpmeta xmlns:x="adobe:ns:meta/" x:xmptk="Adobe XMP Core 5.5-c014 79.151739, 2013/04/03-12:12:15">
			<rdf:RDF xmlns:rdf="http://www.w3.org/1999/02/22-rdf-syntax-ns#">
				<rdf:Description rdf:about="" xmlns:xmp="http://ns.adobe.com/xap/1.0/" xmlns:xmpGImg="http://ns.adobe.com/xap/1.0/g/img/" xmlns:xmpTPg="http://ns.adobe.com/xap/1.0/t/pg/" xmlns:stDim="http://ns.adobe.com/xap/1.0/sType/Dimensions#" xmlns:stFnt="http://ns.adobe.com/xap/1.0/sType/Font#" xmlns:xmpG="http://ns.adobe.com/xap/1.0/g/" xmlns:dc="http://purl.org/dc/elements/1.1/" xmlns:xmpMM="http://ns.adobe.com/xap/1.0/mm/" xmlns:stRef="http://ns.adobe.com/xap/1.0/sType/ResourceRef#" xmlns:stEvt="http://ns.adobe.com/xap/1.0/sType/ResourceEvent#">
					<xmpTPg:MaxPageSize rdf:parseType="Resource">
						<stDim:w>10240.000397</stDim:w>
						<stDim:h>7680.000000</stDim:h>
						<stDim:unit>Points</stDim:unit>
					</xmpTPg:MaxPageSize>
					<xmpTPg:NPages>1</xmpTPg:NPages>
					<xmpTPg:HasVisibleTransparency>False</xmpTPg:HasVisibleTransparency>
					<xmpTPg:HasVisibleOverprint>False</xmpTPg:HasVisibleOverprint>
					<xmpTPg:Fonts>
						<rdf:Bag>
							<rdf:li rdf:parseType="Resource">
								<stFnt:fontName>DINPro</stFnt:fontName>
								<stFnt:fontFamily>DIN Pro</stFnt:fontFamily>
								<stFnt:fontFace>Regular</stFnt:fontFace>
								<stFnt:fontType>TrueType</stFnt:fontType>
								<stFnt:versionString>Version 7.504; 2005; Build 1021</stFnt:versionString>
								<stFnt:composite>False</stFnt:composite>
								<stFnt:fontFileName>DINPro.ttf</stFnt:fontFileName>
							</rdf:li>
						</rdf:Bag>
					</xmpTPg:Fonts>
					<xmpTPg:PlateNames>
						<rdf:Seq>
							<rdf:li>Cyan</rdf:li>
							<rdf:li>Magenta</rdf:li>
							<rdf:li>Yellow</rdf:li>
							<rdf:li>Black</rdf:li>
						</rdf:Seq>
					</xmpTPg:PlateNames>
					<xmpTPg:SwatchGroups>
						<rdf:Seq>
							<rdf:li rdf:parseType="Resource">
								<xmpG:groupName>Default Swatch Group</xmpG:groupName>
								<xmpG:groupType>0</xmpG:groupType>
							</rdf:li>
						</rdf:Seq>
					</xmpTPg:SwatchGroups>
					<dc:format>image/svg+xml</dc:format>
				</rdf:Description>
			</rdf:RDF>
		</x:xmpmeta>
		<?xpacket end="w"?>
	</metadata>
	<g id="background">
		<path name="Танцевальный партер" tc-sector="5df1fcf296772bd14f09650d" id="5df1fcf296772bd14f09650d" fill="none" stroke="#B5B5B5" stroke-width="5" stroke-miterlimit="10" d="M6257.961,3740.757
			c-2.44-32.91,19.192-59.836,48.073-59.836c28.88,0,50.023-26.885,46.984-59.745l-36.95-399.562
			c-3.039-32.86-32.525-59.745-65.525-59.745H3989.458c-33,0-62.326,26.9-65.168,59.777l-34.549,399.613
			c-2.842,32.877,18.461,59.777,47.341,59.777c28.88,0,50.473,26.923,47.985,59.829L3833,5751.945
			c-2.488,32.906-31.524,59.829-64.524,59.829h-332c-33,0-60,27-60,60v311.201c0,33,27,60,60,60H5060c33,0,87,0,120,0h1623.524
			c33,0,60-27,60-60v-311.201c0-33-27-60-60-60h-332c-33,0-61.997-26.926-64.437-59.835L6257.961,3740.757z"/>
		<path name="VIP Line 2" tc-sector="5df1fcf296772bd14f096513" id="5df1fcf296772bd14f096513" fill="none" stroke="#B5B5B5" stroke-width="5" stroke-miterlimit="10" d="M3891.526,3818.614
			c2.723-32.887-22.05-59.795-55.05-59.795h-400c-33,0-60,27-60,60v1860.956c0,33,27,60,60,60h236c33,0,62.228-26.908,64.95-59.795
			L3891.526,3818.614z"/>
		<path name="VIP Line 2" tc-sector="5df1fcf296772bd14f096513" id="5df1fcf296772bd14f096513" fill="none" stroke="#B5B5B5" stroke-width="5" stroke-miterlimit="10" d="M6348.475,3818.614
			c-2.723-32.887,22.05-59.795,55.05-59.795h400c33,0,60,27,60,60v1860.956c0,33-27,60-60,60h-236
			c-33,0-62.228-26.908-64.95-59.795L6348.475,3818.614z"/>
		<path name="VIP Line 2" tc-sector="5df1fcf296772bd14f096513" id="5df1fcf296772bd14f096513" fill="none" stroke="#B5B5B5" stroke-width="5" stroke-miterlimit="10" d="M3914.58,2504.313
			c-2.42,32.911,22.6,59.839,55.6,59.839h218.058c33,0,87,0,120,0h1623.524c33,0,87,0,120,0h218.058c33,0,58.02-26.927,55.6-59.839
			l-18.602-252.997c-2.419-32.911-31.399-59.838-64.399-59.838h-315.943c-33,0-60-27-60-60v-292.63c0-33-27-60-60-60H4435.227
			c-33,0-60,27-60,60v292.63c0,33-27,60-60,60h-317.646c-33,0-61.98,26.927-64.4,59.838L3914.58,2504.313z"/>
		<path name="VIP Line 3" tc-sector="5df1fcf296772bd14f096514" id="5df1fcf296772bd14f096514" fill="none" stroke="#B5B5B5" stroke-width="5" stroke-miterlimit="10" d="M3891.18,2702.583
				c2.913-32.871-21.703-59.766-54.703-59.766h-400c-33,0-60,27-60,60v918.104c0,33,27,60,60,60h308
				c33,0,62.384-26.895,65.297-59.766L3891.18,2702.583z"/>
		<path name="VIP Line 3" tc-sector="5df1fcf296772bd14f096514" id="5df1fcf296772bd14f096514" fill="none" stroke="#B5B5B5" stroke-width="5" stroke-miterlimit="10" d="M6350.141,2702.583
				c-2.913-32.871,21.704-59.766,54.704-59.766h400c33,0,60,27,60,60v918.104c0,33-27,60-60,60h-308
				c-33,0-62.383-26.895-65.297-59.766L6350.141,2702.583z"/>
		<path name="VIP Line 3" tc-sector="5df1fcf296772bd14f096514" id="5df1fcf296772bd14f096514" fill="none" stroke="#B5B5B5" stroke-width="5" stroke-miterlimit="10" d="M6235.476,2119.151
				c33,0.01,58.131-26.918,55.846-59.839l-59.643-859.304c-2.285-32.921-31.154-59.856-64.154-59.856H5180c-33,0-87,0-120,0
				h-987.524c-33,0-61.736,26.944-63.858,59.876l-55.284,858.017c-2.122,32.932,23.142,59.868,56.142,59.858l222.999-0.066
				c33-0.01,60-27.018,60-60.018v-292.971c0-33,27-60,60-60H5060c33,0,87,0,120,0h707.524c33,0,60,27,60,60v294.219
				c0,33,27,60.008,60,60.017L6235.476,2119.151z"/>
		<path name="VIP Line 4" tc-sector="5df1fcf296772bd14f096515" id="5df1fcf296772bd14f096515" fill="none" stroke="#B5B5B5" stroke-width="5" stroke-miterlimit="10" d="M5180,547.264c-33,0-87,0-120,0H3436.476
				c-33,0-60,27-60,60v1896.888c0,33,27,60,60,60h331.28c33,0,62.013-26.925,64.474-59.833l103.053-1378.334
				c2.46-32.908,31.473-59.833,64.473-59.833h2248.031c33,0,62.013,26.925,64.474,59.833l103.053,1378.334
				c2.46,32.908,31.474,59.833,64.474,59.833h323.738c33,0,60-27,60-60V607.264c0-33-27-60-60-60H5180z"/>
		<g id="details">
			<path fill="none" stroke="#B5B5B5" stroke-width="5" stroke-miterlimit="10" d="M6938.728,547.264c0-33-27-60-60-60H3361.273
				c-33,0-60,27-60,60v6585.473c0,33,27,60,60,60h3517.455c33,0,60-27,60-60V547.264z"/>
			<text transform="matrix(1 0 0 1 4758.8921 4864.6021)" fill="#8A8A8A" font-family="'DINPro-Bold'" font-size="72">Танцевальный партер</text>
			<path fill="none" stroke="#B5B5B5" stroke-width="5" stroke-miterlimit="10" d="M4033.187,2642.817
				c-33,0-62.188,26.911-64.861,59.803l-25.884,318.438c-2.674,32.892,22.139,59.803,55.139,59.803H5060c33,0,87,0,120,0h1062.419
				c33,0,57.813-26.911,55.139-59.803l-25.884-318.438c-2.673-32.892-31.861-59.803-64.861-59.803H5180c-33,0-87,0-120,0H4033.187z"/>
			<path fill="none" stroke="#D1D1D1" stroke-width="5" stroke-miterlimit="10" d="M4146.813,2980.438
				c-10.574,0-19.225-8.651-19.225-19.225v-107.836c0-10.574,8.651-19.225,19.225-19.225h139.342
				c10.574,0,19.225,8.651,19.225,19.225v107.836c0,10.573-8.651,19.225-19.225,19.225H4146.813L4146.813,2980.438z"/>
			<path fill="none" stroke="#D1D1D1" stroke-width="5" stroke-miterlimit="10" d="M4928.609,2980.438
				c-10.574,0-19.225-8.651-19.225-19.225v-107.836c0-10.574,8.651-19.225,19.225-19.225h139.342
				c10.574,0,19.225,8.651,19.225,19.225v107.836c0,10.573-8.651,19.225-19.225,19.225H4928.609L4928.609,2980.438z"/>
			<path fill="none" stroke="#D1D1D1" stroke-width="5" stroke-miterlimit="10" d="M4450.393,2980.438
				c-10.574,0-19.225-8.651-19.225-19.225v-107.836c0-10.574,8.651-19.225,19.225-19.225H4750.3
				c10.574,0,19.225,8.651,19.225,19.225v107.836c0,10.573-8.651,19.225-19.225,19.225H4450.393L4450.393,2980.438z"/>
			<path fill="none" stroke="#D1D1D1" stroke-width="5" stroke-miterlimit="10" d="M5218.223,2980.438
				c-10.574,0-19.225-8.651-19.225-19.225v-107.836c0-10.574,8.651-19.225,19.225-19.225h139.342
				c10.573,0,19.225,8.651,19.225,19.225v107.836c0,10.573-8.651,19.225-19.225,19.225H5218.223L5218.223,2980.438z"/>
			<path fill="none" stroke="#D1D1D1" stroke-width="5" stroke-miterlimit="10" d="M5975.134,2980.438
				c-10.573,0-19.225-8.651-19.225-19.225v-107.836c0-10.574,8.651-19.225,19.225-19.225h139.342
				c10.574,0,19.225,8.651,19.225,19.225v107.836c0,10.573-8.651,19.225-19.225,19.225H5975.134L5975.134,2980.438z"/>
			<path fill="none" stroke="#D1D1D1" stroke-width="5" stroke-miterlimit="10" d="M5521.802,2980.438
				c-10.574,0-19.225-8.651-19.225-19.225v-107.836c0-10.574,8.651-19.225,19.225-19.225h299.908
				c10.573,0,19.225,8.651,19.225,19.225v107.836c0,10.573-8.651,19.225-19.225,19.225H5521.802L5521.802,2980.438z"/>
			<path fill="#F5F5F5" d="M6463.524,6482.975c-33,0-60-27-60-60v-52c0-33-27-60-60-60H5180c-33,0-60,0.003-60,0.006
				c0,0.003,0,0.003,0,0s-27-0.006-60-0.006H3896.476c-33,0-60,27-60,60v52c0,33-27,60-60,60h-360c-33,0-60,27-60,60v92.962
				c0,33,27,60,60,60h692c33,0,60,27,60,60v212c0,33,27,60,60,60h826.875c33,0,61.046,0,62.325,0s29.324,0,62.324,0h831.524
				c33,0,60-27,60-60v-212c0-33,27-60,60-60h692c33,0,60-27,60-60v-92.962c0-33-27-60-60-60H6463.524z"/>
			<text transform="matrix(4.489659e-011 -1 1 4.489659e-011 3685.9858 4154.8564)" fill="#8A8A8A" font-family="'DINPro-Bold'" font-size="72">VIP Line 2</text>
			<text transform="matrix(4.489659e-011 -1 1 4.489659e-011 6603.5244 4154.8564)" fill="#8A8A8A" font-family="'DINPro-Bold'" font-size="72">VIP Line 2</text>
			<text transform="matrix(1 0 0 1 4960.7666 2371.4243)" fill="#8A8A8A" font-family="'DINPro-Bold'" font-size="72">VIP Line 2</text>
			<text transform="matrix(4.489659e-011 -1 1 4.489659e-011 3689.1899 3086.8213)" fill="#8A8A8A" font-family="'DINPro-Bold'" font-size="72">VIP Line 3</text>
			<text transform="matrix(4.489659e-011 -1 1 4.489659e-011 6603.5244 3086.8213)" fill="#8A8A8A" font-family="'DINPro-Bold'" font-size="72">VIP Line 3</text>
			<text transform="matrix(1 0 0 1 4960.7666 1511.4243)" fill="#8A8A8A" font-family="'DINPro-Bold'" font-size="72">VIP Line 3</text>
			<text transform="matrix(1 0 0 1 5067.9736 745.1274)" enable-background="new">
				<tspan x="0" y="0" fill="#8A8A8A" font-family="'DINPro-Bold'" font-size="72">VIP</tspan>
				<tspan x="-44.352" y="76.4" fill="#8A8A8A" font-family="'DINPro-Bold'" font-size="72">Line 4</tspan>
			</text>
			<g>
				<path fill="none" stroke="#B5B5B5" stroke-width="5" stroke-miterlimit="10" d="M3414.476,3859.751c0-33,27-60,60-60h29.765
					c33,0,60,27,60,60v1354.329c0,33-27,60-60,60h-29.765c-33,0-60-27-60-60V3859.751z"/>
				<text transform="matrix(4.489659e-011 -1 1 4.489659e-011 3514.998 4638.2207)" fill="#8A8A8A" font-family="'DINPro-Bold'" font-size="72">VIP terminal</text>
<!--				<circle fill="#C7C7C7" cx="3491.818" cy="4731.611" r="33.09"/>-->
				<path fill="none" stroke="#B5B5B5" stroke-width="5" stroke-miterlimit="10" d="M6674.122,3859.751c0-33,27-60,60-60h29.766
					c33,0,60,27,60,60v1354.329c0,33-27,60-60,60h-29.766c-33,0-60-27-60-60V3859.751z"/>
				<text transform="matrix(4.489659e-011 -1 1 4.489659e-011 6774.644 4638.2207)" fill="#8A8A8A" font-family="'DINPro-Bold'" font-size="72">VIP terminal</text>
<!--				<circle fill="#C7C7C7" cx="6751.463" cy="4731.611" r="33.09"/>-->
				<path fill="none" stroke="#B5B5B5" stroke-width="5" stroke-miterlimit="10" d="M5814.68,1894.849c0-33-27-60-60-60H4490.307
					c-33,0-60,27-60,60v234c0,33,27,60,60,60h1264.373c33,0,60-27,60-60V1894.849z"/>
				<text transform="matrix(1 0 0 1 4940.6191 1998.9634)" fill="#8A8A8A" font-family="'DINPro-Bold'" font-size="72">VIP terminal</text>
<!--				<circle fill="#C7C7C7" cx="5155.583" cy="2073.151" r="33.09"/>-->

				<path fill="none" stroke="#B5B5B5" stroke-width="5" stroke-miterlimit="10" d="M3414.476,2730.152c0-33,27-60,60-60h29.765
					c33,0,60,27,60,60v666c0,33-27,60-60,60h-29.765c-33,0-60-27-60-60V2730.152z"/>
				<text transform="matrix(4.489659e-011 -1 1 4.489659e-011 3514.998 3211.373)" fill="#8A8A8A" font-family="'DINPro-Bold'" font-size="72">VIP terminal</text>
<!--				<circle fill="#C7C7C7" cx="3491.818" cy="3284.245" r="33.09"/>-->
				<path fill="none" stroke="#B5B5B5" stroke-width="5" stroke-miterlimit="10" d="M6675.759,2730.152c0-33,27-60,60-60h29.766
					c33,0,60,27,60,60v666c0,33-27,60-60,60h-29.766c-33,0-60-27-60-60V2730.152z"/>
				<text transform="matrix(4.489659e-011 -1 1 4.489659e-011 6776.2808 3211.373)" fill="#8A8A8A" font-family="'DINPro-Bold'" font-size="72">VIP terminal</text>
<!--				<circle fill="#C7C7C7" cx="6753.101" cy="3284.245" r="33.09"/>-->
				<path fill="none" stroke="#B5B5B5" stroke-width="5" stroke-miterlimit="10" d="M6183.99,1248.319
					c-2.52-32.904-31.582-59.825-64.582-59.825H4125.577c-33,0-62.067,26.921-64.593,59.824l-3.414,44.467
					c-2.526,32.903,22.407,59.824,55.406,59.824h2019c33,0,57.938-26.921,55.419-59.825L6183.99,1248.319z"/>
				<text transform="matrix(1 0 0 1 4917.8555 1297.1519)" fill="#8A8A8A" font-family="'DINPro-Bold'" font-size="72">VIP terminal</text>
<!--				<circle fill="#C7C7C7" cx="4833.925" cy="1270.552" r="33.09"/>-->
			</g>
		</g>
	</g>
	<g id="labels">
		<text dataSectorId="5df1fcf296772bd14f09650d">Танцевальный партер</text>
		<text dataSectorId="5df1fcf296772bd14f09650e">Ложа 1</text>
		<text dataSectorId="5df1fcf296772bd14f09650f">Ложа 2</text>
		<text dataSectorId="5df1fcf296772bd14f096510">Ложа 3</text>
		<text dataSectorId="5df1fcf296772bd14f096511">Ложа 4</text>
		<text dataSectorId="5df1fcf296772bd14f096512">Ложа 5</text>
		<text dataSectorId="5df1fcf296772bd14f096513">VIP Line 2</text>
		<text dataSectorId="5df1fcf296772bd14f096514">VIP Line 3</text>
		<text dataSectorId="5df1fcf296772bd14f096515">VIP Line 4</text>
	</g>
	<g id="seats">
		<g dataSectorId="5df1fcf296772bd14f09650d" dataComponent="svg__sector" dataElId="1">
			<g dataComponent="svg__row" dataName="1" dataElId="1">
				<circle fill="#C7C7C7" cx="5132.819" cy="4969.828" r="48" dataComponent="svg__seat" dataName="5df1fcf296772bd14f09650d" />
			</g>
		</g>
		<g dataSectorId="5df1fcf296772bd14f09650e" dataComponent="svg__sector" dataElId="2">
			<g dataComponent="svg__row" dataName="1" dataElId="1">
				<circle fill="#C7C7C7" cx="5989" cy="2759.444" r="33.09" dataComponent="svg__seat" dataName="4"/>
				<circle fill="#C7C7C7" cx="6094" cy="2759.444" r="33.09" dataComponent="svg__seat" dataName="3"/>
				<circle fill="#C7C7C7" cx="6196" cy="2759.444" r="33.09" dataComponent="svg__seat" dataName="2"/>
				<circle fill="#C7C7C7" cx="6212.499" cy="2861.839" r="33.09" dataComponent="svg__seat" dataName="1"/>
			</g>
		</g>
		<g dataSectorId="5df1fcf296772bd14f09650f" dataComponent="svg__sector" dataElId="3">
			<g dataComponent="svg__row" dataName="1" dataElId="1">
				<circle fill="#C7C7C7" cx="5528.034" cy="2759.444" r="33.09" dataComponent="svg__seat" dataName="4"/>
				<circle fill="#C7C7C7" cx="5633.034" cy="2759.444" r="33.09" dataComponent="svg__seat" dataName="3"/>
				<circle fill="#C7C7C7" cx="5735.034" cy="2759.444" r="33.09" dataComponent="svg__seat" dataName="2"/>
				<circle fill="#C7C7C7" cx="5839.793" cy="2759.444" r="33.09" dataComponent="svg__seat" dataName="1"/>
			</g>
		</g>
		<g dataSectorId="5df1fcf296772bd14f096510" dataComponent="svg__sector" dataElId="4">
			<g dataComponent="svg__row" dataName="1" dataElId="1">
				<circle fill="#C7C7C7" cx="4935.76" cy="2759.444" r="33.09" dataComponent="svg__seat" dataName="5"/>
				<circle fill="#C7C7C7" cx="5040.76" cy="2759.444" r="33.09" dataComponent="svg__seat" dataName="4"/>
				<circle fill="#C7C7C7" cx="5142.76" cy="2759.444" r="33.09" dataComponent="svg__seat" dataName="3"/>
				<circle fill="#C7C7C7" cx="5247.519" cy="2759.444" r="33.09" dataComponent="svg__seat" dataName="2"/>
				<circle fill="#C7C7C7" cx="5352.519" cy="2759.444" r="33.09" dataComponent="svg__seat" dataName="1"/>
			</g>
		</g>
		<g dataSectorId="5df1fcf296772bd14f096511" dataComponent="svg__sector" dataElId="5">
			<g dataComponent="svg__row" dataName="1" dataElId="1">
				<circle fill="#C7C7C7" cx="4448.153" cy="2759.444" r="33.09" dataComponent="svg__seat" dataName="4"/>
				<circle fill="#C7C7C7" cx="4553.153" cy="2759.444" r="33.09" dataComponent="svg__seat" dataName="3"/>
				<circle fill="#C7C7C7" cx="4655.153" cy="2759.444" r="33.09" dataComponent="svg__seat" dataName="2"/>
				<circle fill="#C7C7C7" cx="4759.913" cy="2759.444" r="33.09" dataComponent="svg__seat" dataName="1"/>
			</g>
		</g>
		<g dataSectorId="5df1fcf296772bd14f096512" dataComponent="svg__sector" dataElId="6">
			<g dataComponent="svg__row" dataName="1" dataElId="1">
				<circle fill="#C7C7C7" cx="4043.179" cy="2861.839" r="33.09" dataComponent="svg__seat" dataName="4"/>
				<circle fill="#C7C7C7" cx="4057.179" cy="2759.444" r="33.09" dataComponent="svg__seat" dataName="3"/>
				<circle fill="#C7C7C7" cx="4162.179" cy="2759.444" r="33.09" dataComponent="svg__seat" dataName="2"/>
				<circle fill="#C7C7C7" cx="4264.179" cy="2759.444" r="33.09" dataComponent="svg__seat" dataName="1"/>
			</g>
		</g>
		<g dataSectorId="5df1fcf296772bd14f096513" dataComponent="svg__sector" dataElId="7">
			<g dataComponent="svg__row" dataName="1" dataElId="1">
				<circle fill="#C7C7C7" cx="6793.929" cy="5673.826" r="33.09" dataComponent="svg__seat" dataName="1"/>
				<circle fill="#C7C7C7" cx="6705.858" cy="5673.826" r="33.09" dataComponent="svg__seat" dataName="2"/>
				<circle fill="#C7C7C7" cx="6616.487" cy="5673.826" r="33.09" dataComponent="svg__seat" dataName="3"/>
				<circle fill="#C7C7C7" cx="6560.741" cy="5512.033" r="33.09" dataComponent="svg__seat" dataName="4"/>
				<circle fill="#C7C7C7" cx="6553.923" cy="5415.419" r="33.09" dataComponent="svg__seat" dataName="5"/>
				<circle fill="#C7C7C7" cx="6544.696" cy="5311.713" r="33.09" dataComponent="svg__seat" dataName="6"/>
				<circle fill="#C7C7C7" cx="6537.878" cy="5215.1" r="33.09" dataComponent="svg__seat" dataName="7"/>
				<circle fill="#C7C7C7" cx="6531.061" cy="5118.487" r="33.09" dataComponent="svg__seat" dataName="8"/>
				<circle fill="#C7C7C7" cx="6524.243" cy="5021.873" r="33.09" dataComponent="svg__seat" dataName="9"/>
				<circle fill="#C7C7C7" cx="6517.425" cy="4925.26" r="33.09" dataComponent="svg__seat" dataName="10"/>
				<circle fill="#C7C7C7" cx="6510.607" cy="4828.646" r="33.09" dataComponent="svg__seat" dataName="11"/>
				<circle fill="#C7C7C7" cx="6503.789" cy="4732.033" r="33.09" dataComponent="svg__seat" dataName="12"/>
				<circle fill="#C7C7C7" cx="6496.971" cy="4635.419" r="33.09" dataComponent="svg__seat" dataName="13"/>
				<circle fill="#C7C7C7" cx="6491.244" cy="4530.213" r="33.09" dataComponent="svg__seat" dataName="14"/>
				<circle fill="#C7C7C7" cx="6484.426" cy="4433.6" r="33.09" dataComponent="svg__seat" dataName="15"/>
				<circle fill="#C7C7C7" cx="6477.608" cy="4336.987" r="33.09" dataComponent="svg__seat" dataName="16"/>
				<circle fill="#C7C7C7" cx="6470.791" cy="4240.373" r="33.09" dataComponent="svg__seat" dataName="17"/>
				<circle fill="#C7C7C7" cx="6463.973" cy="4143.76" r="33.09" dataComponent="svg__seat" dataName="18"/>
				<circle fill="#C7C7C7" cx="6457.155" cy="4047.146" r="33.09" dataComponent="svg__seat" dataName="19"/>
				<circle fill="#C7C7C7" cx="6450.337" cy="3950.533" r="33.09" dataComponent="svg__seat" dataName="20"/>
				<circle fill="#C7C7C7" cx="6443.52" cy="3853.919" r="33.09" dataComponent="svg__seat" dataName="21"/>
				<circle fill="#C7C7C7" cx="5968.78" cy="2484.916" r="33.09" dataComponent="svg__seat" dataName="22"/>
				<circle fill="#C7C7C7" cx="5868.421" cy="2484.916" r="33.09" dataComponent="svg__seat" dataName="23"/>
				<circle fill="#C7C7C7" cx="5768.063" cy="2484.916" r="33.09" dataComponent="svg__seat" dataName="24"/>
				<circle fill="#C7C7C7" cx="5667.704" cy="2484.916" r="33.09" dataComponent="svg__seat" dataName="25"/>
				<circle fill="#C7C7C7" cx="5567.345" cy="2484.916" r="33.09" dataComponent="svg__seat" dataName="26"/>
				<circle fill="#C7C7C7" cx="5466.986" cy="2484.916" r="33.09" dataComponent="svg__seat" dataName="27"/>
				<circle fill="#C7C7C7" cx="5366.627" cy="2484.916" r="33.09" dataComponent="svg__seat" dataName="28"/>
				<circle fill="#C7C7C7" cx="5266.268" cy="2484.916" r="33.09" dataComponent="svg__seat" dataName="29"/>
				<circle fill="#C7C7C7" cx="5165.909" cy="2484.916" r="33.09" dataComponent="svg__seat" dataName="30"/>
				<circle fill="#C7C7C7" cx="5065.55" cy="2484.916" r="33.09" dataComponent="svg__seat" dataName="31"/>
				<circle fill="#C7C7C7" cx="4965.191" cy="2484.916" r="33.09" dataComponent="svg__seat" dataName="32"/>
				<circle fill="#C7C7C7" cx="4864.832" cy="2484.916" r="33.09" dataComponent="svg__seat" dataName="33"/>
				<circle fill="#C7C7C7" cx="4764.473" cy="2484.916" r="33.09" dataComponent="svg__seat" dataName="34"/>
				<circle fill="#C7C7C7" cx="4664.114" cy="2484.916" r="33.09" dataComponent="svg__seat" dataName="35"/>
				<circle fill="#C7C7C7" cx="4563.755" cy="2484.916" r="33.09" dataComponent="svg__seat" dataName="36"/>
				<circle fill="#C7C7C7" cx="4463.396" cy="2484.916" r="33.09" dataComponent="svg__seat" dataName="37"/>
				<circle fill="#C7C7C7" cx="4363.038" cy="2484.916" r="33.09" dataComponent="svg__seat" dataName="38"/>
				<circle fill="#C7C7C7" cx="4262.678" cy="2484.916" r="33.09" dataComponent="svg__seat" dataName="39"/>
				<circle fill="#C7C7C7" cx="3796.481" cy="3853.919" r="33.09" dataComponent="svg__seat" dataName="40"/>
				<circle fill="#C7C7C7" cx="3789.664" cy="3950.533" r="33.09" dataComponent="svg__seat" dataName="41"/>
				<circle fill="#C7C7C7" cx="3782.846" cy="4047.146" r="33.09" dataComponent="svg__seat" dataName="42"/>
				<circle fill="#C7C7C7" cx="3776.028" cy="4143.76" r="33.09" dataComponent="svg__seat" dataName="43"/>
				<circle fill="#C7C7C7" cx="3769.21" cy="4240.373" r="33.09" dataComponent="svg__seat" dataName="44"/>
				<circle fill="#C7C7C7" cx="3762.392" cy="4336.987" r="33.09" dataComponent="svg__seat" dataName="45"/>
				<circle fill="#C7C7C7" cx="3755.574" cy="4433.6" r="33.09" dataComponent="svg__seat" dataName="46"/>
				<circle fill="#C7C7C7" cx="3748.757" cy="4530.213" r="33.09" dataComponent="svg__seat" dataName="47"/>
				<circle fill="#C7C7C7" cx="3740.029" cy="4634.419" r="33.09" dataComponent="svg__seat" dataName="48"/>
				<circle fill="#C7C7C7" cx="3733.211" cy="4731.033" r="33.09" dataComponent="svg__seat" dataName="49"/>
				<circle fill="#C7C7C7" cx="3726.393" cy="4827.646" r="33.09" dataComponent="svg__seat" dataName="50"/>
				<circle fill="#C7C7C7" cx="3719.576" cy="4924.26" r="33.09" dataComponent="svg__seat" dataName="51"/>
				<circle fill="#C7C7C7" cx="3712.758" cy="5020.873" r="33.09" dataComponent="svg__seat" dataName="52"/>
				<circle fill="#C7C7C7" cx="3705.94" cy="5117.487" r="33.09" dataComponent="svg__seat" dataName="53"/>
				<circle fill="#C7C7C7" cx="3699.122" cy="5214.1" r="33.09" dataComponent="svg__seat" dataName="54"/>
				<circle fill="#C7C7C7" cx="3692.304" cy="5310.713" r="33.09" dataComponent="svg__seat" dataName="55"/>
				<circle fill="#C7C7C7" cx="3686.486" cy="5414.419" r="33.09" dataComponent="svg__seat" dataName="56"/>
				<circle fill="#C7C7C7" cx="3679.668" cy="5511.033" r="33.09" dataComponent="svg__seat" dataName="57"/>
				<circle fill="#C7C7C7" cx="3672.85" cy="5607.646" r="33.09" dataComponent="svg__seat" dataName="58"/>
			</g>
		</g>
		<g dataSectorId="5df1fcf296772bd14f096514" dataComponent="svg__sector" dataElId="8">
			<g dataComponent="svg__row" dataName="1" dataElId="1">
				<circle fill="#C7C7C7" cx="6782.094" cy="3604.245" r="33.09" dataComponent="svg__seat" dataName="1"/>
				<circle fill="#C7C7C7" cx="6695.234" cy="3604.245" r="33.09" dataComponent="svg__seat" dataName="2"/>
				<circle fill="#C7C7C7" cx="6608.374" cy="3604.245" r="33.09" dataComponent="svg__seat" dataName="3"/>
				<circle fill="#C7C7C7" cx="6521.514" cy="3604.245" r="33.09" dataComponent="svg__seat" dataName="4"/>
				<circle fill="#C7C7C7" cx="6480.133" cy="3393.206" r="33.09" dataComponent="svg__seat" dataName="5"/>
				<circle fill="#C7C7C7" cx="6473.315" cy="3296.592" r="33.09" dataComponent="svg__seat" dataName="6"/>
				<circle fill="#C7C7C7" cx="6466.498" cy="3199.979" r="33.09" dataComponent="svg__seat" dataName="7"/>
				<circle fill="#C7C7C7" cx="6459.68" cy="3103.365" r="33.09" dataComponent="svg__seat" dataName="8"/>
				<circle fill="#C7C7C7" cx="6452.862" cy="3006.752" r="33.09" dataComponent="svg__seat" dataName="9"/>
				<circle fill="#C7C7C7" cx="6446.044" cy="2910.138" r="33.09" dataComponent="svg__seat" dataName="10"/>
				<circle fill="#C7C7C7" cx="6439.226" cy="2813.525" r="33.09" dataComponent="svg__seat" dataName="11"/>
				<circle fill="#C7C7C7" cx="6432.408" cy="2716.911" r="33.09" dataComponent="svg__seat" dataName="12"/>
				<circle fill="#C7C7C7" cx="6227.589" cy="2044.141" r="33.09" dataComponent="svg__seat" dataName="13"/>
				<circle fill="#C7C7C7" cx="6125.589" cy="2044.141" r="33.09" dataComponent="svg__seat" dataName="14"/>
				<circle fill="#C7C7C7" cx="6020.589" cy="2044.141" r="33.09" dataComponent="svg__seat" dataName="15"/>
				<circle fill="#C7C7C7" cx="6010.033" cy="1635.031" r="33.09" dataComponent="svg__seat" dataName="16"/>
				<circle fill="#C7C7C7" cx="5912.356" cy="1635.031" r="33.09" dataComponent="svg__seat" dataName="17"/>
				<circle fill="#C7C7C7" cx="5814.68" cy="1635.031" r="33.09" dataComponent="svg__seat" dataName="18"/>
				<circle fill="#C7C7C7" cx="5717.003" cy="1635.031" r="33.09" dataComponent="svg__seat" dataName="19"/>
				<circle fill="#C7C7C7" cx="5619.326" cy="1635.031" r="33.09" dataComponent="svg__seat" dataName="20"/>
				<circle fill="#C7C7C7" cx="5521.649" cy="1635.031" r="33.09" dataComponent="svg__seat" dataName="21"/>
				<circle fill="#C7C7C7" cx="5427.649" cy="1635.031" r="33.09" dataComponent="svg__seat" dataName="22"/>
				<circle fill="#C7C7C7" cx="5329.7" cy="1635.031" r="33.09" dataComponent="svg__seat" dataName="23"/>
				<circle fill="#C7C7C7" cx="5231.75" cy="1635.031" r="33.09" dataComponent="svg__seat" dataName="24"/>
				<circle fill="#C7C7C7" cx="5133.801" cy="1635.031" r="33.09" dataComponent="svg__seat" dataName="25"/>
				<circle fill="#C7C7C7" cx="5035.851" cy="1635.031" r="33.09" dataComponent="svg__seat" dataName="26"/>
				<circle fill="#C7C7C7" cx="4937.901" cy="1635.031" r="33.09" dataComponent="svg__seat" dataName="27"/>
				<circle fill="#C7C7C7" cx="4839.952" cy="1635.031" r="33.09" dataComponent="svg__seat" dataName="28"/>
				<circle fill="#C7C7C7" cx="4742.002" cy="1635.031" r="33.09" dataComponent="svg__seat" dataName="29"/>
				<circle fill="#C7C7C7" cx="4644.053" cy="1635.031" r="33.09" dataComponent="svg__seat" dataName="30"/>
				<circle fill="#C7C7C7" cx="4546.103" cy="1635.031" r="33.09" dataComponent="svg__seat" dataName="31"/>
				<circle fill="#C7C7C7" cx="4448.153" cy="1635.031" r="33.09" dataComponent="svg__seat" dataName="32"/>
				<circle fill="#C7C7C7" cx="4350.204" cy="1635.031" r="33.09" dataComponent="svg__seat" dataName="33"/>
				<circle fill="#C7C7C7" cx="4252.254" cy="1635.031" r="33.09" dataComponent="svg__seat" dataName="34"/>
				<circle fill="#C7C7C7" cx="4229.589" cy="2044.141" r="33.09" dataComponent="svg__seat" dataName="35"/>
				<circle fill="#C7C7C7" cx="4127.589" cy="2044.141" r="33.09" dataComponent="svg__seat" dataName="36"/>
				<circle fill="#C7C7C7" cx="4022.589" cy="2044.141" r="33.09" dataComponent="svg__seat" dataName="37"/>
				<circle fill="#C7C7C7" cx="3808.912" cy="2716.911" r="33.09" dataComponent="svg__seat" dataName="38"/>
				<circle fill="#C7C7C7" cx="3802.094" cy="2813.525" r="33.09" dataComponent="svg__seat" dataName="39"/>
				<circle fill="#C7C7C7" cx="3795.277" cy="2910.138" r="33.09" dataComponent="svg__seat" dataName="40"/>
				<circle fill="#C7C7C7" cx="3788.459" cy="3006.752" r="33.09" dataComponent="svg__seat" dataName="41"/>
				<circle fill="#C7C7C7" cx="3781.641" cy="3103.365" r="33.09" dataComponent="svg__seat" dataName="42"/>
				<circle fill="#C7C7C7" cx="3774.823" cy="3199.979" r="33.09" dataComponent="svg__seat" dataName="43"/>
				<circle fill="#C7C7C7" cx="3768.005" cy="3296.592" r="33.09" dataComponent="svg__seat" dataName="44"/>
				<circle fill="#C7C7C7" cx="3761.188" cy="3393.206" r="33.09" dataComponent="svg__seat" dataName="45"/>
				<circle fill="#C7C7C7" cx="3719.309" cy="3604.245" r="33.09" dataComponent="svg__seat" dataName="46"/>
				<circle fill="#C7C7C7" cx="3632.449" cy="3604.245" r="33.09" dataComponent="svg__seat" dataName="47"/>
				<circle fill="#C7C7C7" cx="3545.588" cy="3604.245" r="33.09" dataComponent="svg__seat" dataName="48"/>
				<circle fill="#C7C7C7" cx="3458.728" cy="3604.245" r="33.09" dataComponent="svg__seat" dataName="49"/>
			</g>
		</g>
		<g dataSectorId="5df1fcf296772bd14f096515" dataComponent="svg__sector" dataElId="9">
			<g dataComponent="svg__row" dataName="1" dataElId="1">
				<circle fill="#C7C7C7" cx="6768.918" cy="2496.916" r="33.09" dataComponent="svg__seat" dataName="1"/>
				<circle fill="#C7C7C7" cx="6674.418" cy="2496.916" r="33.09" dataComponent="svg__seat" dataName="2"/>
				<circle fill="#C7C7C7" cx="6582.599" cy="2496.916" r="33.09" dataComponent="svg__seat" dataName="3"/>
				<circle fill="#C7C7C7" cx="6476.56" cy="2091.105" r="33.09" dataComponent="svg__seat" dataName="4"/>
				<circle fill="#C7C7C7" cx="6469.742" cy="1994.491" r="33.09" dataComponent="svg__seat" dataName="5"/>
				<circle fill="#C7C7C7" cx="6462.924" cy="1897.878" r="33.09" dataComponent="svg__seat" dataName="6"/>
				<circle fill="#C7C7C7" cx="6456.106" cy="1801.265" r="33.09" dataComponent="svg__seat" dataName="7"/>
				<circle fill="#C7C7C7" cx="6449.288" cy="1704.651" r="33.09" dataComponent="svg__seat" dataName="8"/>
				<circle fill="#C7C7C7" cx="6442.47" cy="1608.038" r="33.09" dataComponent="svg__seat" dataName="9"/>
				<circle fill="#C7C7C7" cx="6435.652" cy="1511.424" r="33.09" dataComponent="svg__seat" dataName="10"/>
				<circle fill="#C7C7C7" cx="6428.834" cy="1414.811" r="33.09" dataComponent="svg__seat" dataName="11"/>
				<circle fill="#C7C7C7" cx="6422.017" cy="1318.198" r="33.09" dataComponent="svg__seat" dataName="12"/>
				<circle fill="#C7C7C7" cx="6415.199" cy="1221.584" r="33.09" dataComponent="svg__seat" dataName="13"/>
				<circle fill="#C7C7C7" cx="6408.381" cy="1124.971" r="33.09" dataComponent="svg__seat" dataName="14"/>
				<circle fill="#C7C7C7" cx="6269.7" cy="991.476" r="33.09" dataComponent="svg__seat" dataName="15"/>
				<circle fill="#C7C7C7" cx="6172.023" cy="991.476" r="33.09" dataComponent="svg__seat" dataName="16"/>
				<circle fill="#C7C7C7" cx="6074.347" cy="991.476" r="33.09" dataComponent="svg__seat" dataName="17"/>
				<circle fill="#C7C7C7" cx="5976.67" cy="991.476" r="33.09" dataComponent="svg__seat" dataName="18"/>
				<circle fill="#C7C7C7" cx="5878.994" cy="991.476" r="33.09" dataComponent="svg__seat" dataName="19"/>
				<circle fill="#C7C7C7" cx="5781.317" cy="991.476" r="33.09" dataComponent="svg__seat" dataName="20"/>
				<circle fill="#C7C7C7" cx="5683.64" cy="991.476" r="33.09" dataComponent="svg__seat" dataName="21"/>
				<circle fill="#C7C7C7" cx="5585.963" cy="991.476" r="33.09" dataComponent="svg__seat" dataName="22"/>
				<circle fill="#C7C7C7" cx="5488.287" cy="991.476" r="33.09" dataComponent="svg__seat" dataName="23"/>
				<circle fill="#C7C7C7" cx="5390.61" cy="991.476" r="33.09" dataComponent="svg__seat" dataName="24"/>
				<circle fill="#C7C7C7" cx="5296.61" cy="991.476" r="33.09" dataComponent="svg__seat" dataName="25"/>
				<circle fill="#C7C7C7" cx="5198.661" cy="991.476" r="33.09" dataComponent="svg__seat" dataName="26"/>
				<circle fill="#C7C7C7" cx="5100.711" cy="991.476" r="33.09" dataComponent="svg__seat" dataName="27"/>
				<circle fill="#C7C7C7" cx="5002.761" cy="991.476" r="33.09" dataComponent="svg__seat" dataName="28"/>
				<circle fill="#C7C7C7" cx="4904.812" cy="991.476" r="33.09" dataComponent="svg__seat" dataName="29"/>
				<circle fill="#C7C7C7" cx="4806.862" cy="991.476" r="33.09" dataComponent="svg__seat" dataName="30"/>
				<circle fill="#C7C7C7" cx="4708.913" cy="991.476" r="33.09" dataComponent="svg__seat" dataName="31"/>
				<circle fill="#C7C7C7" cx="4610.963" cy="991.476" r="33.09" dataComponent="svg__seat" dataName="32"/>
				<circle fill="#C7C7C7" cx="4513.013" cy="991.476" r="33.09" dataComponent="svg__seat" dataName="33"/>
				<circle fill="#C7C7C7" cx="4415.064" cy="991.476" r="33.09" dataComponent="svg__seat" dataName="34"/>
				<circle fill="#C7C7C7" cx="4317.114" cy="991.476" r="33.09" dataComponent="svg__seat" dataName="35"/>
				<circle fill="#C7C7C7" cx="4219.165" cy="991.476" r="33.09" dataComponent="svg__seat" dataName="36"/>
				<circle fill="#C7C7C7" cx="4121.215" cy="991.476" r="33.09" dataComponent="svg__seat" dataName="37"/>
				<circle fill="#C7C7C7" cx="4023.265" cy="991.476" r="33.09" dataComponent="svg__seat" dataName="38"/>
				<circle fill="#C7C7C7" cx="3836.184" cy="1124.971" r="33.09" dataComponent="svg__seat" dataName="39"/>
				<circle fill="#C7C7C7" cx="3829.366" cy="1221.584" r="33.09" dataComponent="svg__seat" dataName="40"/>
				<circle fill="#C7C7C7" cx="3822.548" cy="1318.198" r="33.09" dataComponent="svg__seat" dataName="41"/>
				<circle fill="#C7C7C7" cx="3815.73" cy="1414.811" r="33.09" dataComponent="svg__seat" dataName="42"/>
				<circle fill="#C7C7C7" cx="3808.912" cy="1511.424" r="33.09" dataComponent="svg__seat" dataName="43"/>
				<circle fill="#C7C7C7" cx="3802.094" cy="1608.038" r="33.09" dataComponent="svg__seat" dataName="44"/>
				<circle fill="#C7C7C7" cx="3795.277" cy="1704.651" r="33.09" dataComponent="svg__seat" dataName="45"/>
				<circle fill="#C7C7C7" cx="3788.459" cy="1801.265" r="33.09" dataComponent="svg__seat" dataName="46"/>
				<circle fill="#C7C7C7" cx="3781.641" cy="1897.878" r="33.09" dataComponent="svg__seat" dataName="47"/>
				<circle fill="#C7C7C7" cx="3774.823" cy="1994.491" r="33.09" dataComponent="svg__seat" dataName="48"/>
				<circle fill="#C7C7C7" cx="3768.005" cy="2091.105" r="33.09" dataComponent="svg__seat" dataName="49"/>
				<circle fill="#C7C7C7" cx="3642.588" cy="2496.916" r="33.09" dataComponent="svg__seat" dataName="50"/>
				<circle fill="#C7C7C7" cx="3548.088" cy="2496.916" r="33.09" dataComponent="svg__seat" dataName="51"/>
				<circle fill="#C7C7C7" cx="3456.27" cy="2496.916" r="33.09" dataComponent="svg__seat" dataName="52"/>
			</g>
		</g>
	</g>
</svg>
