<?xml version="1.0" encoding="utf-8"?>
<svg version="1.1" id="map-svg" xmlns="http://www.w3.org/2000/svg" xmlns:xlink="http://www.w3.org/1999/xlink" x="0px" y="0px" width="1024" height="768" viewBox="0 0 10240 7680" xml:space="preserve">
	<metadata>
		<?xpacket begin="﻿" id="W5M0MpCehiHzreSzNTczkc9d"?>
        <x:xmpmeta xmlns:x="adobe:ns:meta/" x:xmptk="Adobe XMP Core 5.5-c014 79.151739, 2013/04/03-12:12:15">
			<rdf:RDF xmlns:rdf="http://www.w3.org/1999/02/22-rdf-syntax-ns#">
				<rdf:Description rdf:about="" xmlns:xmp="http://ns.adobe.com/xap/1.0/" xmlns:xmpGImg="http://ns.adobe.com/xap/1.0/g/img/" xmlns:xmpTPg="http://ns.adobe.com/xap/1.0/t/pg/" xmlns:stDim="http://ns.adobe.com/xap/1.0/sType/Dimensions#" xmlns:stFnt="http://ns.adobe.com/xap/1.0/sType/Font#" xmlns:xmpG="http://ns.adobe.com/xap/1.0/g/" xmlns:dc="http://purl.org/dc/elements/1.1/" xmlns:xmpMM="http://ns.adobe.com/xap/1.0/mm/" xmlns:stRef="http://ns.adobe.com/xap/1.0/sType/ResourceRef#" xmlns:stEvt="http://ns.adobe.com/xap/1.0/sType/ResourceEvent#">
					<xmpTPg:MaxPageSize rdf:parseType="Resource">
						<stDim:w>10240.000397</stDim:w>
                        <stDim:h>7680.000000</stDim:h>
                        <stDim:unit>Points</stDim:unit>
					</xmpTPg:MaxPageSize>
                    <xmpTPg:NPages>1</xmpTPg:NPages>
                    <xmpTPg:HasVisibleTransparency>False</xmpTPg:HasVisibleTransparency>
                    <xmpTPg:HasVisibleOverprint>False</xmpTPg:HasVisibleOverprint>
                    <xmpTPg:Fonts>
						<rdf:Bag>
							<rdf:li rdf:parseType="Resource">
								<stFnt:fontName>DINPro</stFnt:fontName>
                                <stFnt:fontFamily>DIN Pro</stFnt:fontFamily>
                                <stFnt:fontFace>Regular</stFnt:fontFace>
                                <stFnt:fontType>TrueType</stFnt:fontType>
                                <stFnt:versionString>Version 7.504; 2005; Build 1021</stFnt:versionString>
                                <stFnt:composite>False</stFnt:composite>
                                <stFnt:fontFileName>DINPro.ttf</stFnt:fontFileName>
							</rdf:li>
						</rdf:Bag>
					</xmpTPg:Fonts>
                    <xmpTPg:PlateNames>
						<rdf:Seq>
							<rdf:li>Cyan</rdf:li>
                            <rdf:li>Magenta</rdf:li>
                            <rdf:li>Yellow</rdf:li>
                            <rdf:li>Black</rdf:li>
						</rdf:Seq>
					</xmpTPg:PlateNames>
                    <xmpTPg:SwatchGroups>
						<rdf:Seq>
							<rdf:li rdf:parseType="Resource">
								<xmpG:groupName>Default Swatch Group</xmpG:groupName>
                                <xmpG:groupType>0</xmpG:groupType>
							</rdf:li>
						</rdf:Seq>
					</xmpTPg:SwatchGroups>
                    <dc:format>image/svg+xml</dc:format>
				</rdf:Description>
			</rdf:RDF>
		</x:xmpmeta>
        <?xpacket end="w"?>
	</metadata>
    <g id="background">
        <path id="1" name="Ложа 3" fill="none" stroke="#B5B5B5" stroke-width="5" stroke-miterlimit="10" d="M6215.478,4273.222h-711.284
			c-22.611,0-40.941-18.33-40.941-40.941v-550.588c0-22.611,18.33-40.941,40.941-40.941h711.284
			c22.611,0,40.941,18.33,40.941,40.941v550.588C6256.419,4254.893,6238.089,4273.222,6215.478,4273.222z"/>
        <path id="2" name="Ложа 5" fill="none" stroke="#B5B5B5" stroke-width="5" stroke-miterlimit="10" d="M6294.566,4326.311h-790.372
			c-22.611,0-40.941,18.33-40.941,40.941v632.471c0,22.611,18.33,40.941,40.941,40.941H6041.4c5.716,0,11.37-1.197,16.596-3.515
			l324.624-143.942c19.739-8.752,29.299-31.327,21.819-51.583c-23.037-62.39-64.966-211.18-68.896-475.002
			C6335.211,4344.252,6316.938,4326.311,6294.566,4326.311z"/>
        <path id="3" name="Ложа 1" fill="none" stroke="#B5B5B5" stroke-width="5" stroke-miterlimit="10" d="M5463.253,2511.823v1034.899
			c0,22.611,18.33,40.941,40.941,40.941h686.094c22.611,0,40.941-18.33,40.941-40.941v-529.47c0-10.858-4.313-21.272-11.991-28.95
			L5959.935,2729c-7.678-7.678-11.991-18.092-11.991-28.95v-188.227c0-22.611-18.33-40.941-40.941-40.941h-402.809
			C5481.583,2470.882,5463.253,2489.212,5463.253,2511.823z"/>
        <path id="4" name="Ложа 4" fill="none" stroke="#B5B5B5" stroke-width="5" stroke-miterlimit="10" d="M8373.747,4273.222h711.284
			c22.61,0,40.94-18.33,40.94-40.941v-550.588c0-22.611-18.33-40.941-40.94-40.941h-711.284c-22.611,0-40.941,18.33-40.941,40.941
			v550.588C8332.806,4254.893,8351.136,4273.222,8373.747,4273.222z"/>
        <path id="5" name="Центральная ложа" fill="none" stroke="#B5B5B5" stroke-width="5" stroke-miterlimit="10" d="M7293.978,5466.604
			c528.104,0,761.08-394.284,820.79-516.967c9.639-19.805,33.182-28.472,53.338-19.592l351.083,154.667
			c21.561,9.498,30.693,35.194,19.925,56.148c-86.425,168.166-471.727,822.697-1233.348,822.697l0,0
			c-855.647,0-1195.784-654.455-1268.229-820.269c-9.035-20.678,0.362-44.76,21.012-53.858l361.226-159.136
			c20.324-8.954,44.1-0.086,53.541,20.016c57.976,123.448,284.62,516.292,821.157,516.292H7293.978z"/>
        <path id="6" name="Ложа 6" fill="none" stroke="#B5B5B5" stroke-width="5" stroke-miterlimit="10" d="M8294.659,4326.311h790.372
			c22.61,0,40.94,18.33,40.94,40.941v632.471c0,22.611-18.33,40.941-40.94,40.941h-537.207c-5.717,0-11.369-1.197-16.596-3.515
			l-324.624-143.942c-19.739-8.752-29.298-31.327-21.819-51.583c23.037-62.39,64.966-211.18,68.896-475.002
			C8254.014,4344.252,8272.286,4326.311,8294.659,4326.311z"/>
        <path id="7" name="Ложа 2" fill="none" stroke="#B5B5B5" stroke-width="5" stroke-miterlimit="10" d="M9125.972,2511.823v1034.899
			c0,22.611-18.33,40.941-40.94,40.941h-686.095c-22.61,0-40.94-18.33-40.94-40.941v-529.47c0-10.858,4.313-21.272,11.991-28.95
			L8629.29,2729c7.678-7.678,11.991-18.092,11.991-28.95v-188.227c0-22.611,18.33-40.941,40.941-40.941h402.809
			C9107.642,2470.882,9125.972,2489.212,9125.972,2511.823z"/>
        <path id="8" name="1 ярус, левая сторона" fill="none" stroke="#B5B5B5" stroke-width="5" stroke-miterlimit="10" d="M1813.499,4232.029L1813.499,4232.029
			c-22.611,0-40.941-18.33-40.941-40.941V2656.5c0-22.611-18.33-40.941-40.941-40.941h-618.645
			c-22.611,0-40.941,18.33-40.941,40.941v2059.471c0,22.611,18.33,40.941,40.941,40.941h368.763
			c22.611,0,40.941-18.33,40.941-40.941v-14.731c0-22.611,18.33-40.941,40.941-40.941h249.882c22.611,0,40.941-18.33,40.941-40.941
			v-346.387C1854.44,4250.359,1836.11,4232.029,1813.499,4232.029z"/>
        <path id="9" name="Бельэтаж" fill="none" stroke="#B5B5B5" stroke-width="5" stroke-miterlimit="10" d="M4438.25,4812.475h-49.512
			c-22.611,0-40.941-18.33-40.941-40.941v-14.588c0-22.611-18.33-40.941-40.941-40.941h-223.148
			c-15.703,0-30.051,8.973-36.857,23.125c-253.388,526.827-718.488,522.697-882.477,522.697c-166.354,0-166.349,0-363.29,0
			c-194.141,0-658.861,4.13-912.233-522.696c-6.806-14.152-21.153-23.125-36.857-23.125h-223.148
			c-22.611,0-40.941,18.33-40.941,40.941v14.588c0,22.611-18.33,40.941-40.941,40.941h-49.502c-8.658,0-17.092,2.745-24.092,7.839
			l-106.886,77.794c-14.915,10.855-20.747,30.349-14.198,47.594c58.792,154.832,377.001,864.268,1271.9,864.268
			c182.009,0,546.003-5.18,675.829-5.18c912.365,0,1229.428-701.45,1288.097-855.624c6.578-17.285,0.783-36.829-14.174-47.705
			l-111.608-81.156C4455.331,4815.215,4446.902,4812.475,4438.25,4812.475z"/>
        <path id="10" name="Партер" fill="none" stroke="#B5B5B5" stroke-width="5" stroke-miterlimit="10" d="M2922.022,2772.265
			c272.629,0,631.447-45.69,887.011-153.526c5.004-2.112,10.384-3.18,15.815-3.18h237.321c22.611,0,40.941,18.33,40.941,40.941
			v1486.975c0,22.611-18.33,40.941-40.941,40.941h-3.907c-22.611,0-40.941,18.33-40.941,40.941v428.949
			c0,5.398-1.071,10.738-3.14,15.723c-27.302,65.8-236.545,523.095-778.747,523.095c-85.412,0-439.765,0-535.765,0
			c-534.263,0-749.484-456.508-777.969-522.924c-2.19-5.105-3.32-10.596-3.32-16.151v-428.692c0-22.611-18.33-40.941-40.941-40.941
			h-3.908c-22.611,0-40.941-18.33-40.941-40.941V2656.5c0-22.611,18.33-40.941,40.941-40.941h237.309
			c5.519,0,10.975,1.13,16.055,3.287C2380.646,2726.604,2649.484,2772.265,2922.022,2772.265"/>
        <path id="11" name="1 ярус, правая сторона" fill="none" stroke="#B5B5B5" stroke-width="5" stroke-miterlimit="10" d="M4110.75,4232.029L4110.75,4232.029
			c22.611,0,40.941-18.33,40.941-40.941V2656.5c0-22.611,18.33-40.941,40.941-40.941h618.646c22.611,0,40.941,18.33,40.941,40.941
			v2059.471c0,22.611-18.33,40.941-40.941,40.941h-368.763c-22.611,0-40.941-18.33-40.941-40.941v-14.731
			c0-22.611-18.33-40.941-40.941-40.941H4110.75c-22.611,0-40.941-18.33-40.941-40.941v-346.387
			C4069.81,4250.359,4088.139,4232.029,4110.75,4232.029z"/>
		<g id="details">
            <path fill="#8A8A8A" d="M9005.054,3183.591v11.912h-50.391v14.568h17.739c8.398,0,15.013,0.729,19.84,2.186
					c4.828,1.457,8.171,3.514,10.026,6.17c1.857,2.657,2.785,6.185,2.785,10.583v4.713h-10.627v-1.714c0-1.656-0.3-3.07-0.899-4.242
					c-0.6-1.17-1.685-2.256-3.257-3.256c-1.57-0.999-3.899-1.742-6.984-2.228c-3.085-0.485-6.941-0.729-11.569-0.729h-27.681
					v-37.964H9005.054z"/>
            <path fill="#8A8A8A" d="M8982.687,3134.229c4.285,0,7.756,0.357,10.412,1.071c2.657,0.715,4.985,2.043,6.984,3.985
					c3.657,3.543,5.485,8.171,5.485,13.883c0,5.656-1.828,10.255-5.485,13.797c-2.057,1.943-4.413,3.271-7.07,3.985
					c-2.656,0.715-6.098,1.071-10.326,1.071c-4.228,0-7.655-0.356-10.284-1.071c-2.627-0.714-4.971-2.042-7.027-3.985
					c-3.655-3.542-5.484-8.142-5.484-13.797c0-5.828,1.829-10.456,5.484-13.883c2.057-1.941,4.4-3.27,7.027-3.985
					C8975.031,3134.587,8978.459,3134.229,8982.687,3134.229z M8982.687,3145.37c-5.541,0-9.141,0.857-10.798,2.571
					c-1.313,1.315-1.972,3.057-1.972,5.228c0,2.114,0.658,3.828,1.972,5.142c1.657,1.714,5.257,2.571,10.798,2.571
					c5.6,0,9.228-0.857,10.884-2.571c1.314-1.313,1.971-3.027,1.971-5.142c0-2.171-0.656-3.913-1.971-5.228
					C8991.914,3146.227,8988.286,3145.37,8982.687,3145.37z"/>
            <path fill="#8A8A8A" d="M9005.054,3065.67v13.026l-23.396,14.483l-21.253-13.797v-12.769l20.824,14.654L9005.054,3065.67z
					 M9005.054,3093.265v11.227h-44.648v-11.227H9005.054z M9005.054,3118.974v13.112l-23.824-15.683l-20.824,14.654v-12.769
					l21.253-13.712L9005.054,3118.974z"/>
            <path fill="#8A8A8A" d="M9005.054,3026.592v10.883h-3.856c1.543,1.543,2.644,3.128,3.3,4.756c0.655,1.628,0.985,3.7,0.985,6.213
					c0,4.97-1.313,8.771-3.942,11.398c-2.571,2.457-5.913,3.685-10.026,3.685c-3.771,0-6.869-1.314-9.299-3.942
					c-2.428-2.627-3.642-6.456-3.642-11.483v-10.37h-2.229c-2.456,0-4.242,0.658-5.356,1.971c-1.113,1.315-1.671,3.428-1.671,6.342
					c0,3.485,1.285,6.341,3.856,8.57l-6.941,7.027c-2.399-2.17-4.056-4.441-4.971-6.813c-0.913-2.37-1.371-5.442-1.371-9.212
					c0-12.684,5.257-19.025,15.769-19.025H9005.054z M8988.6,3037.732h-2.399v8.484c0,4.4,1.714,6.599,5.142,6.599
					c3.372,0,5.057-2.256,5.057-6.77c0-2.914-0.714-5.113-2.143-6.599C8993.285,3038.304,8991.399,3037.732,8988.6,3037.732z"/>
            <path fill="#8A8A8A" d="M9005.054,2958.805v37.107h-10.026l-26.481-22.796c-2.513-2.113-4.97-3.171-7.37-3.171
					c-2.284,0-4.127,0.643-5.527,1.928c-1.399,1.286-2.1,3.1-2.1,5.442c0,2.114,0.615,3.886,1.843,5.313
					c1.229,1.429,3.214,2.143,5.956,2.143v11.141c-5.427,0-9.755-1.757-12.983-5.271c-3.228-3.514-4.842-7.955-4.842-13.326
					c0-5.485,1.6-9.941,4.799-13.369c3.2-3.428,7.514-5.142,12.94-5.142c2.742,0,5.057,0.486,6.941,1.457
					c1.886,0.972,4.229,2.656,7.027,5.056l19.797,17.054v-23.567H9005.054z"/>
            <path fill="#8A8A8A" d="M9005.054,4773.757v11.912h-50.391v14.568h17.739c8.398,0,15.013,0.729,19.84,2.186
					c4.828,1.457,8.171,3.514,10.026,6.171c1.857,2.656,2.785,6.185,2.785,10.583v4.714h-10.627v-1.715
					c0-1.656-0.3-3.07-0.899-4.242c-0.6-1.17-1.685-2.256-3.257-3.256c-1.57-0.999-3.899-1.742-6.984-2.229
					c-3.085-0.484-6.941-0.729-11.569-0.729h-27.681v-37.964H9005.054z"/>
            <path fill="#8A8A8A" d="M8982.687,4724.396c4.285,0,7.756,0.357,10.412,1.071c2.657,0.715,4.985,2.043,6.984,3.984
					c3.657,3.543,5.485,8.172,5.485,13.884c0,5.655-1.828,10.255-5.485,13.798c-2.057,1.942-4.413,3.271-7.07,3.984
					c-2.656,0.715-6.098,1.071-10.326,1.071c-4.228,0-7.655-0.356-10.284-1.071c-2.627-0.714-4.971-2.042-7.027-3.984
					c-3.655-3.543-5.484-8.143-5.484-13.798c0-5.827,1.829-10.456,5.484-13.884c2.057-1.941,4.4-3.27,7.027-3.984
					C8975.031,4724.753,8978.459,4724.396,8982.687,4724.396z M8982.687,4735.536c-5.541,0-9.141,0.856-10.798,2.571
					c-1.313,1.314-1.972,3.057-1.972,5.228c0,2.114,0.658,3.828,1.972,5.142c1.657,1.715,5.257,2.571,10.798,2.571
					c5.6,0,9.228-0.856,10.884-2.571c1.314-1.313,1.971-3.027,1.971-5.142c0-2.171-0.656-3.913-1.971-5.228
					C8991.914,4736.393,8988.286,4735.536,8982.687,4735.536z"/>
            <path fill="#8A8A8A" d="M9005.054,4655.836v13.025l-23.396,14.483l-21.253-13.798v-12.769l20.824,14.654L9005.054,4655.836z
					 M9005.054,4683.431v11.227h-44.648v-11.227H9005.054z M9005.054,4709.141v13.111l-23.824-15.683l-20.824,14.654v-12.769
					l21.253-13.713L9005.054,4709.141z"/>
            <path fill="#8A8A8A" d="M9005.054,4616.758v10.883h-3.856c1.543,1.543,2.644,3.129,3.3,4.757c0.655,1.628,0.985,3.7,0.985,6.214
					c0,4.97-1.313,8.77-3.942,11.397c-2.571,2.457-5.913,3.685-10.026,3.685c-3.771,0-6.869-1.313-9.299-3.941
					c-2.428-2.627-3.642-6.456-3.642-11.484v-10.369h-2.229c-2.456,0-4.242,0.658-5.356,1.971c-1.113,1.315-1.671,3.428-1.671,6.342
					c0,3.486,1.285,6.342,3.856,8.57l-6.941,7.027c-2.399-2.171-4.056-4.441-4.971-6.813c-0.913-2.37-1.371-5.442-1.371-9.212
					c0-12.684,5.257-19.025,15.769-19.025H9005.054z M8988.6,4627.898h-2.399v8.484c0,4.4,1.714,6.599,5.142,6.599
					c3.372,0,5.057-2.257,5.057-6.771c0-2.914-0.714-5.112-2.143-6.599C8993.285,4628.471,8991.399,4627.898,8988.6,4627.898z"/>
            <path fill="#8A8A8A" d="M8986.543,4548.971c5.885,0,10.527,1.787,13.926,5.356c3.4,3.571,5.1,8.128,5.1,13.669
					c0,5.543-1.672,10.1-5.014,13.669c-3.343,3.571-7.955,5.356-13.841,5.356c-3.884,0-9.312-1.715-16.282-5.143l-26.396-12.854
					v-12.169l25.195,12.684c-0.514-1.256-0.771-2.771-0.771-4.543c0-4.34,1.657-8.098,4.97-11.269
					C8976.745,4550.557,8981.116,4548.971,8986.543,4548.971z M8986.629,4560.111c-2.686,0-4.843,0.729-6.471,2.186
					s-2.442,3.357-2.442,5.699c0,2.344,0.801,4.242,2.399,5.699c1.601,1.457,3.771,2.186,6.514,2.186
					c2.742,0,4.914-0.729,6.513-2.186c1.601-1.457,2.399-3.355,2.399-5.699c0-2.342-0.799-4.242-2.399-5.699
					C8991.543,4560.84,8989.371,4560.111,8986.629,4560.111z"/>
            <path fill="#F5F5F5" d="M7238.864,2716.5c0,0,487.375,16.478,874.07-151.352c5.272-2.288,10.954-3.476,16.701-3.436l247.077,1.762
                c22.725,0.162,41.232-18.215,41.232-40.94v-248.152c0-22.611-18.329-40.941-40.94-40.941H7241.091h-8.471H6188.365
                c-22.611,0-40.941,18.33-40.941,40.941v248.152c0,22.725,18.508,41.102,41.233,40.94l247.062-1.762
                c5.756-0.041,11.45,1.149,16.728,3.447c385.448,167.818,782.4,151.34,782.4,151.34H7238.864z"/>
            <path fill="#8A8A8A" d="M7209.927,2452.115c-1.086,6.228-3.629,10.998-7.627,14.312c-4,3.313-8.913,4.971-14.74,4.971
                c-6.513,0-11.97-2.143-16.368-6.428c-2.8-2.799-4.529-5.87-5.186-9.213c-0.657-3.342-0.985-8.469-0.985-15.383
                c0-6.912,0.328-12.04,0.985-15.383c0.656-3.342,2.386-6.412,5.186-9.213c4.398-4.284,9.855-6.427,16.368-6.427
                c5.827,0,10.74,1.657,14.74,4.971c3.998,3.313,6.541,8.085,7.627,14.312h-12.169c-1.371-5.771-4.771-8.656-10.198-8.656
                c-3.257,0-5.8,1.059-7.627,3.171c-1.144,1.315-1.929,3.101-2.357,5.356c-0.428,2.258-0.643,6.213-0.643,11.869
                s0.215,9.613,0.643,11.869c0.429,2.258,1.214,4.043,2.357,5.356c1.827,2.114,4.37,3.171,7.627,3.171
                c5.484,0,8.912-2.885,10.284-8.655H7209.927z"/>
            <path fill="#8A8A8A" d="M7262.032,2481.852h-10.627v-10.97h-32.137v-44.648h11.227v34.793h14.312v-34.793h11.227v34.793h5.999
                V2481.852z"/>
            <path fill="#8A8A8A" d="M7306.509,2452.029h-27.938c0,2.972,0.856,5.371,2.571,7.198c1.714,1.829,4.113,2.742,7.198,2.742
                c2.284,0,4.156-0.327,5.613-0.985c1.457-0.656,2.957-1.728,4.499-3.214l6.771,6.6c-2.399,2.457-4.872,4.241-7.413,5.355
                c-2.543,1.114-5.729,1.672-9.556,1.672c-2.857,0-5.441-0.358-7.756-1.071c-2.313-0.714-4.471-1.899-6.47-3.557
                c-2.001-1.656-3.571-4.028-4.714-7.113c-1.144-3.085-1.714-6.798-1.714-11.141c0-7.142,1.771-12.727,5.313-16.754
                c3.542-4.028,8.255-6.042,14.141-6.042c6.112,0,10.884,1.985,14.312,5.956c3.428,3.972,5.142,9.185,5.142,15.64V2452.029z
                 M7295.54,2444.402c-0.058-1.942-0.4-3.542-1.028-4.8c-1.371-3.085-3.856-4.627-7.455-4.627c-3.6,0-6.085,1.542-7.456,4.627
                c-0.629,1.258-0.973,2.857-1.028,4.8H7295.54z"/>
            <path fill="#8A8A8A" d="M7353.471,2470.882h-11.227v-17.911h-14.312v17.911h-11.227v-44.648h11.227v16.882h14.312v-16.882
                h11.227V2470.882z"/>
            <path fill="#8A8A8A" d="M7399.663,2470.882h-10.884v-3.856c-1.543,1.543-3.128,2.644-4.756,3.3
                c-1.629,0.655-3.7,0.985-6.214,0.985c-4.97,0-8.771-1.313-11.397-3.942c-2.457-2.571-3.686-5.913-3.686-10.026
                c0-3.771,1.314-6.869,3.942-9.299c2.627-2.428,6.456-3.642,11.483-3.642h10.37v-2.229c0-2.456-0.658-4.242-1.972-5.356
                c-1.314-1.113-3.428-1.671-6.342-1.671c-3.485,0-6.341,1.285-8.569,3.856l-7.027-6.941c2.171-2.399,4.441-4.056,6.813-4.971
                c2.37-0.913,5.441-1.371,9.212-1.371c12.684,0,19.025,5.257,19.025,15.769V2470.882z M7388.522,2454.428v-2.399h-8.484
                c-4.4,0-6.599,1.714-6.599,5.142c0,3.372,2.256,5.057,6.77,5.057c2.914,0,5.113-0.714,6.6-2.143
                C7387.95,2459.114,7388.522,2457.228,7388.522,2454.428z"/>
            <path fill="#8A8A8A" d="M6989.34,1812.071h-123.707v-33.427l75.996-88.28c7.044-8.38,10.57-16.571,10.57-24.57
				c0-7.616-2.143-13.759-6.428-18.428c-4.286-4.665-10.335-7-18.143-7c-7.048,0-12.954,2.05-17.713,6.143
				c-4.763,4.099-7.143,10.714-7.143,19.856h-37.141c0-18.093,5.856-32.521,17.57-43.283c11.714-10.759,26.521-16.143,44.426-16.143
				c18.285,0,33.142,5.335,44.569,15.999c11.428,10.67,17.142,25.048,17.142,43.141c0,9.143-1.62,16.856-4.856,23.142
				c-3.241,6.286-8.856,14.098-16.856,23.428l-56.854,65.996h78.566V1812.071z"/>
            <path fill="#8A8A8A" d="M7127.045,1661.508c21.142,0,37.569,6.571,49.283,19.714c11.714,13.142,17.57,31.618,17.57,55.425
				c0,24.763-5.812,43.811-17.428,57.14c-11.619,13.335-28.097,19.999-49.426,19.999c-10.285,0-19.048-1.526-26.284-4.571
				c-7.24-3.044-14.763-8.187-22.57-15.428l24.856-24.569c4.379,4.384,8.329,7.477,11.856,9.285
				c3.521,1.812,7.664,2.714,12.428,2.714c17.329,0,27.142-10.57,29.427-31.713h-43.712v-25.427h43.712
				c-2.857-19.999-12.763-29.998-29.713-29.998c-7.999,0-15.999,3.999-23.998,11.999l-24.856-24.57
				c7.808-7.236,15.33-12.379,22.57-15.428C7107.998,1663.035,7116.76,1661.508,7127.045,1661.508z"/>
            <path fill="#8A8A8A" d="M7333.036,1696.078h-42.854v115.993h-37.427v-115.993h-43.712v-32.855h123.993V1696.078z"/>
            <path fill="#8A8A8A" d="M7468.172,1812.071h-36.283v-12.856c-5.143,5.143-10.429,8.812-15.856,10.999
				c-5.429,2.188-12.334,3.286-20.714,3.286c-16.57,0-29.239-4.38-37.997-13.143c-8.191-8.57-12.285-19.713-12.285-33.427
				c0-12.57,4.379-22.9,13.142-30.998c8.759-8.093,21.521-12.143,38.284-12.143h34.569v-7.428c0-8.188-2.192-14.142-6.571-17.856
				c-4.384-3.714-11.428-5.57-21.142-5.57c-11.62,0-21.142,4.285-28.57,12.855l-23.427-23.141c7.236-8,14.808-13.522,22.713-16.571
				c7.901-3.044,18.142-4.571,30.713-4.571c42.283,0,63.425,17.526,63.425,52.569V1812.071z M7431.032,1757.217v-7.999h-28.284
				c-14.669,0-21.999,5.714-21.999,17.142c0,11.24,7.522,16.856,22.57,16.856c9.714,0,17.044-2.38,21.999-7.143
				C7429.125,1772.837,7431.032,1766.552,7431.032,1757.217z"/>
            <path fill="#8A8A8A" d="M7529.311,1812.071h-43.712l52.283-79.424l-48.854-69.425h42.568l45.713,70.853L7529.311,1812.071z
				 M7615.02,1812.071h-37.426v-148.849h37.426V1812.071z M7707.016,1812.071h-43.426l-48.283-77.996l45.996-70.853h42.57
				l-48.855,69.425L7707.016,1812.071z"/>
            <path fill="#8A8A8A" d="M5657.401,4048.597v11.912h-50.391v14.568h17.739c8.398,0,15.013,0.729,19.84,2.186
					c4.828,1.457,8.171,3.514,10.026,6.171c1.857,2.656,2.785,6.185,2.785,10.583v4.714h-10.627v-1.715
					c0-1.656-0.3-3.07-0.899-4.242c-0.6-1.17-1.685-2.256-3.257-3.256c-1.57-0.999-3.899-1.742-6.984-2.229
					c-3.085-0.484-6.941-0.729-11.569-0.729h-27.681v-37.964H5657.401z"/>
            <path fill="#8A8A8A" d="M5635.034,3999.235c4.285,0,7.756,0.357,10.412,1.071c2.657,0.715,4.985,2.043,6.984,3.984
					c3.657,3.543,5.485,8.172,5.485,13.884c0,5.655-1.828,10.255-5.485,13.798c-2.057,1.942-4.413,3.271-7.07,3.984
					c-2.656,0.715-6.098,1.071-10.326,1.071c-4.228,0-7.655-0.356-10.284-1.071c-2.627-0.714-4.971-2.042-7.027-3.984
					c-3.655-3.543-5.484-8.143-5.484-13.798c0-5.827,1.829-10.456,5.484-13.884c2.057-1.941,4.4-3.27,7.027-3.984
					C5627.378,3999.593,5630.806,3999.235,5635.034,3999.235z M5635.034,4010.376c-5.541,0-9.141,0.856-10.798,2.571
					c-1.313,1.314-1.972,3.057-1.972,5.228c0,2.114,0.658,3.828,1.972,5.142c1.657,1.715,5.257,2.571,10.798,2.571
					c5.6,0,9.228-0.856,10.884-2.571c1.314-1.313,1.971-3.027,1.971-5.142c0-2.171-0.656-3.913-1.971-5.228
					C5644.261,4011.232,5640.633,4010.376,5635.034,4010.376z"/>
            <path fill="#8A8A8A" d="M5657.401,3930.676v13.025l-23.396,14.483l-21.253-13.798v-12.769l20.824,14.654L5657.401,3930.676z
					 M5657.401,3958.271v11.227h-44.648v-11.227H5657.401z M5657.401,3983.98v13.111l-23.824-15.683l-20.824,14.654v-12.769
					l21.253-13.713L5657.401,3983.98z"/>
            <path fill="#8A8A8A" d="M5657.401,3891.598v10.883h-3.856c1.543,1.543,2.644,3.129,3.3,4.757c0.655,1.628,0.985,3.7,0.985,6.214
					c0,4.97-1.313,8.77-3.942,11.397c-2.571,2.457-5.913,3.685-10.026,3.685c-3.771,0-6.869-1.313-9.299-3.941
					c-2.428-2.627-3.642-6.456-3.642-11.484v-10.369h-2.229c-2.456,0-4.242,0.658-5.356,1.971c-1.113,1.315-1.671,3.428-1.671,6.342
					c0,3.486,1.285,6.342,3.856,8.57l-6.941,7.027c-2.399-2.171-4.056-4.441-4.971-6.813c-0.913-2.37-1.371-5.442-1.371-9.212
					c0-12.684,5.257-19.025,15.769-19.025H5657.401z M5640.947,3902.738h-2.399v8.484c0,4.4,1.714,6.599,5.142,6.599
					c3.372,0,5.057-2.257,5.057-6.771c0-2.914-0.714-5.112-2.143-6.599C5645.632,3903.311,5643.747,3902.738,5640.947,3902.738z"/>
            <path fill="#8A8A8A" d="M5639.747,3823.554c5.828,0,10.313,1.843,13.455,5.528c3.143,3.685,4.714,8.299,4.714,13.84
					c0,5.428-1.5,10.014-4.5,13.754c-2.999,3.743-7.498,5.643-13.497,5.699v-11.141c2.629-0.057,4.614-0.87,5.956-2.442
					c1.343-1.571,2.014-3.526,2.014-5.87c0-2.456-0.741-4.442-2.228-5.956c-1.485-1.513-3.57-2.271-6.257-2.271
					c-2.57,0-4.612,0.758-6.127,2.271c-1.514,1.514-2.271,3.614-2.271,6.299v1.628h-9.684v-1.628c0-2.571-0.699-4.5-2.1-5.785
					c-1.399-1.286-3.242-1.928-5.527-1.928c-2.456,0-4.371,0.715-5.742,2.143c-1.371,1.429-2.057,3.2-2.057,5.313
					s0.657,3.871,1.972,5.27c1.314,1.401,3.114,2.158,5.398,2.271v11.141c-5.313-0.113-9.541-1.941-12.684-5.484
					c-3.141-3.542-4.713-7.94-4.713-13.197c0-5.428,1.628-9.884,4.885-13.369c3.257-3.484,7.456-5.228,12.598-5.228
					c5.827,0,9.998,2.343,12.512,7.027C5628.664,3826.183,5633.292,3823.554,5639.747,3823.554z"/>
            <path fill="#8A8A8A" d="M5657.401,4773.757v11.912h-50.391v14.568h17.739c8.398,0,15.013,0.729,19.84,2.186
					c4.828,1.457,8.171,3.514,10.026,6.171c1.857,2.656,2.785,6.185,2.785,10.583v4.714h-10.627v-1.715
					c0-1.656-0.3-3.07-0.899-4.242c-0.6-1.17-1.685-2.256-3.257-3.256c-1.57-0.999-3.899-1.742-6.984-2.229
					c-3.085-0.484-6.941-0.729-11.569-0.729h-27.681v-37.964H5657.401z"/>
            <path fill="#8A8A8A" d="M5635.034,4724.396c4.285,0,7.756,0.357,10.412,1.071c2.657,0.715,4.985,2.043,6.984,3.984
					c3.657,3.543,5.485,8.172,5.485,13.884c0,5.655-1.828,10.255-5.485,13.798c-2.057,1.942-4.413,3.271-7.07,3.984
					c-2.656,0.715-6.098,1.071-10.326,1.071c-4.228,0-7.655-0.356-10.284-1.071c-2.627-0.714-4.971-2.042-7.027-3.984
					c-3.655-3.543-5.484-8.143-5.484-13.798c0-5.827,1.829-10.456,5.484-13.884c2.057-1.941,4.4-3.27,7.027-3.984
					C5627.378,4724.753,5630.806,4724.396,5635.034,4724.396z M5635.034,4735.536c-5.541,0-9.141,0.856-10.798,2.571
					c-1.313,1.314-1.972,3.057-1.972,5.228c0,2.114,0.658,3.828,1.972,5.142c1.657,1.715,5.257,2.571,10.798,2.571
					c5.6,0,9.228-0.856,10.884-2.571c1.314-1.313,1.971-3.027,1.971-5.142c0-2.171-0.656-3.913-1.971-5.228
					C5644.261,4736.393,5640.633,4735.536,5635.034,4735.536z"/>
            <path fill="#8A8A8A" d="M5657.401,4655.836v13.025l-23.396,14.483l-21.253-13.798v-12.769l20.824,14.654L5657.401,4655.836z
					 M5657.401,4683.431v11.227h-44.648v-11.227H5657.401z M5657.401,4709.141v13.111l-23.824-15.683l-20.824,14.654v-12.769
					l21.253-13.713L5657.401,4709.141z"/>
            <path fill="#8A8A8A" d="M5657.401,4616.758v10.883h-3.856c1.543,1.543,2.644,3.129,3.3,4.757c0.655,1.628,0.985,3.7,0.985,6.214
					c0,4.97-1.313,8.77-3.942,11.397c-2.571,2.457-5.913,3.685-10.026,3.685c-3.771,0-6.869-1.313-9.299-3.941
					c-2.428-2.627-3.642-6.456-3.642-11.484v-10.369h-2.229c-2.456,0-4.242,0.658-5.356,1.971c-1.113,1.315-1.671,3.428-1.671,6.342
					c0,3.486,1.285,6.342,3.856,8.57l-6.941,7.027c-2.399-2.171-4.056-4.441-4.971-6.813c-0.913-2.37-1.371-5.442-1.371-9.212
					c0-12.684,5.257-19.025,15.769-19.025H5657.401z M5640.947,4627.898h-2.399v8.484c0,4.4,1.714,6.599,5.142,6.599
					c3.372,0,5.057-2.257,5.057-6.771c0-2.914-0.714-5.112-2.143-6.599C5645.632,4628.471,5643.747,4627.898,5640.947,4627.898z"/>
            <path fill="#8A8A8A" d="M5636.833,4548.8c3.714,0,6.8,0.372,9.255,1.114c2.457,0.743,4.743,2.172,6.856,4.285
					c3.313,3.313,4.971,7.798,4.971,13.454c0,5.827-1.629,10.37-4.886,13.626c-2.913,2.914-7.141,4.572-12.683,4.971v-11.141
					c5.027-0.629,7.541-3.113,7.541-7.456c0-2.228-0.656-3.998-1.971-5.313c-1.599-1.599-4.628-2.399-9.084-2.399
					c-7.312,0-10.97,2.485-10.97,7.456c0,3.828,1.658,6.285,4.971,7.37v10.198h-34.451v-34.794h10.027v24.681h13.111
					c-2.057-2.17-3.085-5.227-3.085-9.17c0-4.854,1.371-8.654,4.113-11.396C5624.208,4550.629,5629.634,4548.8,5636.833,4548.8z"/>
            <path fill="#8A8A8A" d="M5657.401,3183.591v11.912h-50.391v14.568h17.739c8.398,0,15.013,0.729,19.84,2.186
					c4.828,1.457,8.171,3.514,10.026,6.17c1.857,2.657,2.785,6.185,2.785,10.583v4.713h-10.627v-1.714c0-1.656-0.3-3.07-0.899-4.242
					c-0.6-1.17-1.685-2.256-3.257-3.256c-1.57-0.999-3.899-1.742-6.984-2.228c-3.085-0.485-6.941-0.729-11.569-0.729h-27.681
					v-37.964H5657.401z"/>
            <path fill="#8A8A8A" d="M5635.034,3134.229c4.285,0,7.756,0.357,10.412,1.071c2.657,0.715,4.985,2.043,6.984,3.985
					c3.657,3.543,5.485,8.171,5.485,13.883c0,5.656-1.828,10.255-5.485,13.797c-2.057,1.943-4.413,3.271-7.07,3.985
					c-2.656,0.715-6.098,1.071-10.326,1.071c-4.228,0-7.655-0.356-10.284-1.071c-2.627-0.714-4.971-2.042-7.027-3.985
					c-3.655-3.542-5.484-8.142-5.484-13.797c0-5.828,1.829-10.456,5.484-13.883c2.057-1.941,4.4-3.27,7.027-3.985
					C5627.378,3134.587,5630.806,3134.229,5635.034,3134.229z M5635.034,3145.37c-5.541,0-9.141,0.857-10.798,2.571
					c-1.313,1.315-1.972,3.057-1.972,5.228c0,2.114,0.658,3.828,1.972,5.142c1.657,1.714,5.257,2.571,10.798,2.571
					c5.6,0,9.228-0.857,10.884-2.571c1.314-1.313,1.971-3.027,1.971-5.142c0-2.171-0.656-3.913-1.971-5.228
					C5644.261,3146.227,5640.633,3145.37,5635.034,3145.37z"/>
            <path fill="#8A8A8A" d="M5657.401,3065.67v13.026l-23.396,14.483l-21.253-13.797v-12.769l20.824,14.654L5657.401,3065.67z
					 M5657.401,3093.265v11.227h-44.648v-11.227H5657.401z M5657.401,3118.974v13.112l-23.824-15.683l-20.824,14.654v-12.769
					l21.253-13.712L5657.401,3118.974z"/>
            <path fill="#8A8A8A" d="M5657.401,3026.592v10.883h-3.856c1.543,1.543,2.644,3.128,3.3,4.756c0.655,1.628,0.985,3.7,0.985,6.213
					c0,4.97-1.313,8.771-3.942,11.398c-2.571,2.457-5.913,3.685-10.026,3.685c-3.771,0-6.869-1.314-9.299-3.942
					c-2.428-2.627-3.642-6.456-3.642-11.483v-10.37h-2.229c-2.456,0-4.242,0.658-5.356,1.971c-1.113,1.315-1.671,3.428-1.671,6.342
					c0,3.485,1.285,6.341,3.856,8.57l-6.941,7.027c-2.399-2.17-4.056-4.441-4.971-6.813c-0.913-2.37-1.371-5.442-1.371-9.212
					c0-12.684,5.257-19.025,15.769-19.025H5657.401z M5640.947,3037.732h-2.399v8.484c0,4.4,1.714,6.599,5.142,6.599
					c3.372,0,5.057-2.256,5.057-6.77c0-2.914-0.714-5.113-2.143-6.599C5645.632,3038.304,5643.747,3037.732,5640.947,3037.732z"/>
            <path fill="#8A8A8A" d="M5657.401,2968.575v11.141h-49.02l10.798,12.426h-11.998l-10.798-12.426v-11.141H5657.401z"/>
            <path fill="#8A8A8A" d="M9005.054,4048.597v11.912h-50.391v14.568h17.739c8.398,0,15.013,0.729,19.84,2.186
					c4.828,1.457,8.171,3.514,10.026,6.171c1.857,2.656,2.785,6.185,2.785,10.583v4.714h-10.627v-1.715
					c0-1.656-0.3-3.07-0.899-4.242c-0.6-1.17-1.685-2.256-3.257-3.256c-1.57-0.999-3.899-1.742-6.984-2.229
					c-3.085-0.484-6.941-0.729-11.569-0.729h-27.681v-37.964H9005.054z"/>
            <path fill="#8A8A8A" d="M8982.687,3999.235c4.285,0,7.756,0.357,10.412,1.071c2.657,0.715,4.985,2.043,6.984,3.984
					c3.657,3.543,5.485,8.172,5.485,13.884c0,5.655-1.828,10.255-5.485,13.798c-2.057,1.942-4.413,3.271-7.07,3.984
					c-2.656,0.715-6.098,1.071-10.326,1.071c-4.228,0-7.655-0.356-10.284-1.071c-2.627-0.714-4.971-2.042-7.027-3.984
					c-3.655-3.543-5.484-8.143-5.484-13.798c0-5.827,1.829-10.456,5.484-13.884c2.057-1.941,4.4-3.27,7.027-3.984
					C8975.031,3999.593,8978.459,3999.235,8982.687,3999.235z M8982.687,4010.376c-5.541,0-9.141,0.856-10.798,2.571
					c-1.313,1.314-1.972,3.057-1.972,5.228c0,2.114,0.658,3.828,1.972,5.142c1.657,1.715,5.257,2.571,10.798,2.571
					c5.6,0,9.228-0.856,10.884-2.571c1.314-1.313,1.971-3.027,1.971-5.142c0-2.171-0.656-3.913-1.971-5.228
					C8991.914,4011.232,8988.286,4010.376,8982.687,4010.376z"/>
            <path fill="#8A8A8A" d="M9005.054,3930.676v13.025l-23.396,14.483l-21.253-13.798v-12.769l20.824,14.654L9005.054,3930.676z
					 M9005.054,3958.271v11.227h-44.648v-11.227H9005.054z M9005.054,3983.98v13.111l-23.824-15.683l-20.824,14.654v-12.769
					l21.253-13.713L9005.054,3983.98z"/>
            <path fill="#8A8A8A" d="M9005.054,3891.598v10.883h-3.856c1.543,1.543,2.644,3.129,3.3,4.757c0.655,1.628,0.985,3.7,0.985,6.214
					c0,4.97-1.313,8.77-3.942,11.397c-2.571,2.457-5.913,3.685-10.026,3.685c-3.771,0-6.869-1.313-9.299-3.941
					c-2.428-2.627-3.642-6.456-3.642-11.484v-10.369h-2.229c-2.456,0-4.242,0.658-5.356,1.971c-1.113,1.315-1.671,3.428-1.671,6.342
					c0,3.486,1.285,6.342,3.856,8.57l-6.941,7.027c-2.399-2.171-4.056-4.441-4.971-6.813c-0.913-2.37-1.371-5.442-1.371-9.212
					c0-12.684,5.257-19.025,15.769-19.025H9005.054z M8988.6,3902.738h-2.399v8.484c0,4.4,1.714,6.599,5.142,6.599
					c3.372,0,5.057-2.257,5.057-6.771c0-2.914-0.714-5.112-2.143-6.599C8993.285,3903.311,8991.399,3902.738,8988.6,3902.738z"/>
            <path fill="#8A8A8A" d="M8996.398,3822.097v5.57h8.655v10.712h-8.655v24.938h-10.541l-41.821-20.91v-12.17l41.821,20.91v-12.769
					h-11.398v-10.712h11.398v-5.57H8996.398z"/>
            <path fill="#8A8A8A" d="M6994.415,5834.437l-11.007-3.273l3.86-12.979l-38.443-11.432l17.392-58.486l11.418,3.396l-14.363,48.301
				l19.797,5.887l14.362-48.301l11.418,3.396l-14.362,48.301l6.817,2.027L6994.415,5834.437z"/>
            <path fill="#8A8A8A" d="M7047.889,5813.742l-27.19-6.417c-0.683,2.892-0.399,5.424,0.849,7.597
				c1.248,2.174,3.374,3.614,6.377,4.322c2.223,0.524,4.121,0.636,5.689,0.33c1.568-0.304,3.274-1.002,5.117-2.095l5.073,7.978
				c-2.899,1.841-5.716,3.01-8.444,3.511c-2.73,0.5-5.959,0.311-9.684-0.568c-2.781-0.656-5.215-1.598-7.303-2.824
				c-2.088-1.226-3.916-2.874-5.48-4.947c-1.566-2.071-2.551-4.74-2.954-8.005c-0.404-3.266-0.106-7.011,0.891-11.237
				c1.64-6.95,4.646-11.979,9.02-15.085c4.372-3.107,9.422-3.984,15.149-2.633c5.949,1.403,10.137,4.432,12.562,9.084
				c2.424,4.652,2.896,10.119,1.412,16.402L7047.889,5813.742z M7038.965,5803.799c0.391-1.902,0.424-3.539,0.102-4.906
				c-0.626-3.318-2.691-5.391-6.193-6.217c-3.504-0.827-6.277,0.104-8.32,2.792c-0.9,1.079-1.602,2.558-2.103,4.435
				L7038.965,5803.799z"/>
            <path fill="#8A8A8A" d="M7091.42,5841.229l-11.038-2.049l3.27-17.61l-14.071-2.612l-3.27,17.61l-11.038-2.05l8.15-43.898
				l11.038,2.049l-3.082,16.6l14.071,2.612l3.081-16.599l11.039,2.049L7091.42,5841.229z"/>
            <path fill="#8A8A8A" d="M7140.844,5813.337l-12.724-1.828l-4.949,34.439l-11.112-1.597l4.949-34.439l-12.979-1.865l1.402-9.755
				l36.814,5.29L7140.844,5813.337z"/>
            <path fill="#8A8A8A" d="M7183.94,5830.438c-0.48,4.603-1.158,8.353-2.033,11.247c-0.877,2.896-2.385,5.238-4.523,7.025
				c-2.836,2.405-6.555,3.367-11.157,2.888s-8.028-2.33-10.278-5.552l-2.104,20.202l-11.081-1.154l6.321-60.689l10.74,1.119
				l-0.436,4.177c3.109-2.835,6.967-4.014,11.568-3.534c4.604,0.479,8.045,2.188,10.323,5.125c1.724,2.19,2.717,4.793,2.978,7.806
				C7184.518,5822.112,7184.413,5825.893,7183.94,5830.438z M7172.075,5834.329c0.309-1.317,0.57-3,0.783-5.045
				c0.213-2.046,0.305-3.745,0.273-5.099c-0.031-1.353-0.225-2.68-0.576-3.98c-0.354-1.3-1.023-2.317-2.009-3.053
				c-0.987-0.733-2.276-1.185-3.866-1.351c-1.592-0.165-2.945,0.01-4.061,0.525c-1.117,0.517-1.982,1.374-2.595,2.573
				c-0.614,1.2-1.075,2.459-1.384,3.776c-0.311,1.317-0.571,2.999-0.785,5.045c-0.213,2.045-0.303,3.746-0.271,5.098
				c0.031,1.354,0.221,2.694,0.571,4.023c0.349,1.328,1.017,2.36,2.005,3.095c0.984,0.735,2.273,1.185,3.865,1.351
				c1.59,0.166,2.943-0.009,4.061-0.524s1.982-1.388,2.6-2.616C7171.301,5836.919,7171.764,5835.646,7172.075,5834.329z"/>
            <path fill="#8A8A8A" d="M7227.374,5855.793l-10.861-0.697l0.247-3.848c-1.638,1.44-3.291,2.438-4.958,2.987
				c-1.667,0.551-3.756,0.747-6.264,0.586c-4.96-0.318-8.668-1.872-11.121-4.664c-2.288-2.723-3.299-6.137-3.036-10.242
				c0.241-3.763,1.751-6.771,4.529-9.026c2.777-2.255,6.676-3.222,11.693-2.899l10.349,0.664l0.143-2.224
				c0.156-2.451-0.385-4.275-1.625-5.472c-1.24-1.195-3.313-1.887-6.221-2.073c-3.479-0.224-6.411,0.877-8.799,3.3l-6.569-7.378
				c2.319-2.255,4.692-3.763,7.118-4.523c2.423-0.76,5.518-1.021,9.281-0.778c12.656,0.812,18.648,6.464,17.977,16.954
				L7227.374,5855.793z M7217.309,5838.659l0.154-2.395l-8.467-0.543c-4.392-0.282-6.695,1.288-6.915,4.709
				c-0.216,3.364,1.929,5.19,6.433,5.479c2.908,0.188,5.147-0.385,6.723-1.715
				C7216.438,5843.299,7217.129,5841.453,7217.309,5838.659z"/>
            <path fill="#8A8A8A" d="M7277.168,5857.36l-11.137-0.291l0.908-34.782l-10.708-0.279l-0.28,10.708
				c-0.236,9.081-1.572,15.334-4.004,18.756c-2.434,3.423-6.078,5.07-10.932,4.943l-5.312-0.139l0.258-9.852l1.37,0.035
				c1.199,0.031,2.146-0.072,2.838-0.312c0.691-0.239,1.465-0.847,2.319-1.825c0.853-0.977,1.497-2.661,1.933-5.05
				c0.434-2.39,0.7-5.497,0.801-9.324l0.473-18.076l32.639,0.854L7277.168,5857.36z"/>
            <path fill="#8A8A8A" d="M7322.891,5832.538c2.768,2.603,4.17,6.018,4.21,10.245c0.04,4.229-1.313,7.683-4.06,10.364
				c-2.746,2.683-6.291,4.044-10.632,4.085l-21.509,0.201l-0.418-44.646l11.227-0.105l0.15,16.11l10.283-0.096
				C7316.542,5828.655,7320.125,5829.937,7322.891,5832.538z M7310.168,5837.456l-8.57,0.08l0.104,11.055l8.57-0.08
				c1.77-0.017,3.179-0.529,4.228-1.539c1.047-1.009,1.563-2.371,1.547-4.086c-0.015-1.656-0.557-2.979-1.622-3.97
				C7313.357,5837.928,7311.938,5837.439,7310.168,5837.456z"/>
            <path fill="#8A8A8A" d="M7374.235,5855.171l-11.216,0.497l-0.792-17.894l-14.298,0.633l0.792,17.894l-11.215,0.497l-1.976-44.605
				l11.216-0.497l0.746,16.866l14.299-0.633l-0.748-16.866l11.217-0.497L7374.235,5855.171z"/>
            <path fill="#8A8A8A" d="M7421.639,5851.562l-10.85,0.877l-0.311-3.844c-1.412,1.662-2.904,2.887-4.475,3.672
				s-3.608,1.28-6.113,1.483c-4.955,0.4-8.848-0.603-11.679-3.011c-2.656-2.364-4.149-5.597-4.481-9.697
				c-0.304-3.758,0.756-6.952,3.18-9.586c2.424-2.631,6.142-4.15,11.153-4.556l10.335-0.836l-0.179-2.221
				c-0.198-2.448-0.997-4.175-2.396-5.18c-1.4-1.005-3.552-1.39-6.456-1.154c-3.475,0.28-6.217,1.792-8.23,4.534l-7.564-6.353
				c1.971-2.566,4.101-4.4,6.391-5.504c2.289-1.101,5.313-1.805,9.072-2.108c12.642-1.022,19.387,3.706,20.234,14.184
				L7421.639,5851.562z M7409.208,5836.06l-0.193-2.392l-8.457,0.684c-4.385,0.354-6.438,2.24-6.162,5.657
				c0.271,3.36,2.656,4.858,7.156,4.494c2.904-0.234,5.037-1.123,6.404-2.667C7409.016,5840.776,7409.434,5838.851,7409.208,5836.06
				z"/>
            <path fill="#8A8A8A" d="M7443.758,5849.2l-12.596,1.483l6.801-19.181c-2.666-0.663-4.865-1.986-6.594-3.97
				c-1.73-1.981-2.768-4.448-3.115-7.398c-0.475-4.028,0.51-7.51,2.955-10.444c2.444-2.934,5.822-4.655,10.135-5.163l21.533-2.536
				l5.223,44.343l-11.064,1.303l-1.854-15.745l-5.958,0.701L7443.758,5849.2z M7454.319,5823.105l-1.293-10.979l-8.682,1.022
				c-1.816,0.214-3.189,0.88-4.122,1.995c-0.934,1.117-1.299,2.526-1.099,4.229c0.193,1.646,0.873,2.903,2.041,3.772
				c1.166,0.869,2.656,1.197,4.473,0.982L7454.319,5823.105z"/>
            <path fill="#8A8A8A" d="M7538.002,5835.122l-10.973,1.924l-6.009-34.271l-10.552,1.85l1.85,10.552
				c1.569,8.947,1.5,15.341-0.205,19.177c-1.706,3.838-4.95,6.176-9.732,7.014l-5.234,0.918l-1.701-9.707l1.351-0.237
				c1.182-0.207,2.088-0.496,2.719-0.868c0.632-0.371,1.269-1.121,1.911-2.249c0.643-1.127,0.94-2.905,0.893-5.333
				c-0.049-2.428-0.403-5.526-1.064-9.297l-3.122-17.812l32.161-5.638L7538.002,5835.122z"/>
            <path fill="#8A8A8A" d="M7582.096,5802.852c0.917,4.187,1.311,7.653,1.182,10.401c-0.131,2.748-0.93,5.307-2.398,7.675
				c-2.679,4.33-6.809,7.105-12.389,8.328c-5.524,1.21-10.408,0.409-14.65-2.405c-2.338-1.594-4.141-3.611-5.406-6.054
				c-1.267-2.442-2.351-5.728-3.256-9.858c-0.904-4.13-1.289-7.555-1.154-10.275c0.136-2.719,0.932-5.292,2.39-7.717
				c2.678-4.329,6.779-7.1,12.305-8.31c5.692-1.247,10.604-0.45,14.735,2.387c2.336,1.594,4.135,3.599,5.396,6.012
				C7580.11,5795.45,7581.192,5798.723,7582.096,5802.852z M7571.213,5805.235c-1.186-5.412-2.793-8.745-4.822-9.997
				c-1.564-1.002-3.407-1.271-5.527-0.808c-2.065,0.453-3.6,1.462-4.602,3.025c-1.319,1.986-1.387,5.686-0.201,11.099
				c1.198,5.47,2.812,8.83,4.84,10.081c1.564,1.004,3.38,1.278,5.445,0.825c2.12-0.464,3.682-1.478,4.685-3.044
				C7572.35,5814.433,7572.412,5810.706,7571.213,5805.235z"/>
            <path fill="#8A8A8A" d="M7603.504,5820.664l-12.65,3.445l8.87-27.107l-19.612-16.242l12.32-3.355l18.814,16.902
				L7603.504,5820.664z M7628.31,5813.907l-10.831,2.95l-11.734-43.079l10.832-2.95L7628.31,5813.907z M7654.935,5806.655
				l-12.568,3.424l-20.122-18.768l7.727-24.132l12.32-3.356l-8.666,23.944L7654.935,5806.655z"/>
            <path fill="#8A8A8A" d="M7693.864,5793.489l-10.33,3.428l-1.215-3.66c-0.979,1.95-2.136,3.494-3.475,4.63
				s-3.201,2.101-5.586,2.893c-4.719,1.565-8.738,1.516-12.061-0.151c-3.141-1.667-5.359-4.452-6.654-8.356
				c-1.188-3.578-0.918-6.933,0.812-10.066c1.729-3.132,4.979-5.49,9.752-7.073l9.842-3.267l-0.702-2.114
				c-0.773-2.331-1.96-3.819-3.558-4.463c-1.6-0.644-3.78-0.507-6.545,0.411c-3.309,1.098-5.615,3.218-6.92,6.359l-8.855-4.375
				c1.305-2.961,2.938-5.248,4.9-6.863c1.962-1.613,4.732-3.016,8.312-4.203c12.037-3.995,19.712-1.003,23.022,8.974
				L7693.864,5793.489z M7678.108,5781.382l-0.756-2.277l-8.053,2.672c-4.176,1.386-5.723,3.705-4.644,6.959
				c1.062,3.2,3.733,4.088,8.019,2.666c2.766-0.918,4.627-2.287,5.588-4.111C7679.041,5786.009,7678.989,5784.039,7678.108,5781.382
				z"/>
            <path fill="none" stroke="#B5B5B5" stroke-width="5" stroke-miterlimit="10" d="M9280.887,6253.676H5284.481
                c-30.102,0-54.503-24.402-54.503-54.503V2050.298c0-30.101,24.402-54.504,54.503-54.504h3996.405
                c30.101,0,54.503,24.402,54.503,54.504v4148.875C9335.39,6229.274,9310.987,6253.676,9280.887,6253.676z"/>

            <path fill="#F5F5F5" d="M2924.031,2716.5c0,0,487.376,16.478,874.07-151.352c5.272-2.288,10.954-3.476,16.701-3.436l247.076,1.762
                c22.725,0.162,41.233-18.215,41.233-40.94v-248.152c0-22.611-18.33-40.941-40.941-40.941H2926.258h-8.471H1873.532
                c-22.611,0-40.941,18.33-40.941,40.941v248.152c0,22.725,18.508,41.102,41.233,40.94l247.062-1.762
                c5.756-0.041,11.45,1.149,16.728,3.447c385.448,167.818,782.4,151.34,782.4,151.34H2924.031z"/>
            <path fill="#8A8A8A" d="M2907.2,2452.115c-1.087,6.228-3.629,10.998-7.628,14.312s-8.912,4.971-14.74,4.971
					c-6.513,0-11.97-2.143-16.368-6.428c-2.8-2.799-4.528-5.87-5.185-9.213c-0.657-3.342-0.985-8.469-0.985-15.383
					c0-6.912,0.328-12.04,0.985-15.383c0.656-3.342,2.385-6.412,5.185-9.213c4.398-4.284,9.855-6.427,16.368-6.427
					c5.828,0,10.741,1.657,14.74,4.971s6.541,8.085,7.628,14.312h-12.17c-1.371-5.771-4.771-8.656-10.198-8.656
					c-3.256,0-5.799,1.059-7.627,3.171c-1.144,1.315-1.928,3.101-2.356,5.356c-0.429,2.258-0.643,6.213-0.643,11.869
					s0.214,9.613,0.643,11.869c0.429,2.258,1.213,4.043,2.356,5.356c1.828,2.114,4.371,3.171,7.627,3.171
					c5.485,0,8.913-2.885,10.284-8.655H2907.2z"/>
            <path fill="#8A8A8A" d="M2959.303,2481.852h-10.626v-10.97h-32.137v-44.648h11.227v34.793h14.312v-34.793h11.227v34.793h5.998
					V2481.852z"/>
            <path fill="#8A8A8A" d="M3003.782,2452.029h-27.938c0,2.972,0.857,5.371,2.571,7.198c1.714,1.829,4.113,2.742,7.198,2.742
					c2.285,0,4.157-0.327,5.613-0.985c1.457-0.656,2.957-1.728,4.5-3.214l6.77,6.6c-2.399,2.457-4.871,4.241-7.413,5.355
					s-5.728,1.672-9.555,1.672c-2.857,0-5.442-0.358-7.756-1.071c-2.313-0.714-4.471-1.899-6.471-3.557
					c-2-1.656-3.571-4.028-4.713-7.113c-1.144-3.085-1.714-6.798-1.714-11.141c0-7.142,1.77-12.727,5.313-16.754
					c3.541-4.028,8.255-6.042,14.14-6.042c6.113,0,10.884,1.985,14.312,5.956c3.428,3.972,5.143,9.185,5.143,15.64V2452.029z
					 M2992.812,2444.402c-0.058-1.942-0.4-3.542-1.028-4.8c-1.371-3.085-3.856-4.627-7.456-4.627s-6.084,1.542-7.456,4.627
					c-0.629,1.258-0.972,2.857-1.028,4.8H2992.812z"/>
            <path fill="#8A8A8A" d="M3050.744,2470.882h-11.227v-17.911h-14.312v17.911h-11.227v-44.648h11.227v16.882h14.312v-16.882
					h11.227V2470.882z"/>
            <path fill="#8A8A8A" d="M3096.934,2470.882h-10.883v-3.856c-1.543,1.543-3.129,2.644-4.757,3.3
					c-1.628,0.655-3.699,0.985-6.213,0.985c-4.971,0-8.771-1.313-11.398-3.942c-2.457-2.571-3.685-5.913-3.685-10.026
					c0-3.771,1.313-6.869,3.942-9.299c2.627-2.428,6.455-3.642,11.483-3.642h10.369v-2.229c0-2.456-0.657-4.242-1.971-5.356
					c-1.315-1.113-3.428-1.671-6.342-1.671c-3.485,0-6.342,1.285-8.57,3.856l-7.026-6.941c2.17-2.399,4.441-4.056,6.812-4.971
					c2.37-0.913,5.442-1.371,9.213-1.371c12.684,0,19.024,5.257,19.024,15.769V2470.882z M3085.793,2454.428v-2.399h-8.484
					c-4.399,0-6.599,1.714-6.599,5.142c0,3.372,2.257,5.057,6.771,5.057c2.914,0,5.112-0.714,6.599-2.143
					C3085.222,2459.114,3085.793,2457.228,3085.793,2454.428z"/>
            <path fill="#8A8A8A" d="M2654.846,1812.071h-37.142v-163.42l-41.426,35.998v-39.997l41.426-35.998h37.142V1812.071z"/>
            <path fill="#8A8A8A" d="M2825.121,1661.508c21.142,0,37.569,6.571,49.282,19.714c11.714,13.142,17.571,31.618,17.571,55.425
				c0,24.763-5.812,43.811-17.428,57.14c-11.62,13.335-28.097,19.999-49.426,19.999c-10.285,0-19.048-1.526-26.284-4.571
				c-7.241-3.044-14.763-8.187-22.57-15.428l24.855-24.569c4.379,4.384,8.33,7.477,11.856,9.285
				c3.522,1.812,7.665,2.714,12.428,2.714c17.33,0,27.142-10.57,29.427-31.713h-43.711v-25.427h43.711
				c-2.856-19.999-12.763-29.998-29.712-29.998c-8,0-15.999,3.999-23.999,11.999l-24.855-24.57
				c7.808-7.236,15.329-12.379,22.57-15.428C2806.073,1663.035,2814.835,1661.508,2825.121,1661.508z"/>
            <path fill="#8A8A8A" d="M3031.111,1696.078h-42.854v115.993h-37.427v-115.993h-43.712v-32.855h123.993V1696.078z"/>
            <path fill="#8A8A8A" d="M3166.247,1812.071h-36.283v-12.856c-5.143,5.143-10.428,8.812-15.856,10.999
				c-5.428,2.188-12.334,3.286-20.713,3.286c-16.57,0-29.239-4.38-37.998-13.143c-8.191-8.57-12.285-19.713-12.285-33.427
				c0-12.57,4.38-22.9,13.143-30.998c8.758-8.093,21.521-12.143,38.283-12.143h34.569v-7.428c0-8.188-2.191-14.142-6.57-17.856
				c-4.384-3.714-11.429-5.57-21.143-5.57c-11.619,0-21.142,4.285-28.569,12.855l-23.428-23.141
				c7.236-8,14.808-13.522,22.714-16.571c7.901-3.044,18.142-4.571,30.712-4.571c42.283,0,63.425,17.526,63.425,52.569V1812.071z
				 M3129.106,1757.217v-7.999h-28.284c-14.669,0-21.998,5.714-21.998,17.142c0,11.24,7.521,16.856,22.569,16.856
				c9.714,0,17.044-2.38,21.999-7.143C3127.2,1772.837,3129.106,1766.552,3129.106,1757.217z"/>
            <path fill="#8A8A8A" d="M3227.385,1812.071h-43.712l52.283-79.424l-48.854-69.425h42.569l45.712,70.853L3227.385,1812.071z
				 M3313.094,1812.071h-37.426v-148.849h37.426V1812.071z M3405.09,1812.071h-43.426l-48.283-77.996l45.996-70.853h42.57
				l-48.855,69.425L3405.09,1812.071z"/>
            <path fill="#8A8A8A" d="M1294.611,2847.431h-11.141v-49.02l-12.426,10.798v-11.998l12.426-10.798h11.141V2847.431z"/>
            <path fill="#8A8A8A" d="M1343.801,2847.431h-12.683l8.998-18.254c-2.571-0.971-4.6-2.541-6.084-4.713
					c-1.486-2.171-2.228-4.742-2.228-7.713c0-4.057,1.384-7.398,4.156-10.027c2.771-2.627,6.327-3.941,10.669-3.941h21.682v44.648
					h-11.141v-15.854h-5.999L1343.801,2847.431z M1357.341,2822.75v-11.056h-8.741c-1.829,0-3.271,0.501-4.328,1.5
					c-1.058,1-1.585,2.356-1.585,4.07c0,1.658,0.527,2.986,1.585,3.985c1.056,1,2.499,1.5,4.328,1.5H1357.341z"/>
            <path fill="#8A8A8A" d="M1418.101,2825.063c0,4.628-0.287,8.428-0.857,11.397c-0.572,2.972-1.829,5.457-3.771,7.456
					c-2.571,2.687-6.17,4.028-10.798,4.028c-4.628,0-8.227-1.485-10.798-4.457v20.311h-11.141v-61.017h10.798v4.199
					c2.798-3.142,6.513-4.714,11.141-4.714c4.627,0,8.227,1.343,10.798,4.028c1.942,2,3.199,4.485,3.771,7.455
					C1417.814,2816.723,1418.101,2820.493,1418.101,2825.063z M1406.703,2830.162c0.171-1.342,0.257-3.042,0.257-5.099
					s-0.085-3.756-0.257-5.1c-0.171-1.341-0.501-2.642-0.985-3.898c-0.486-1.257-1.258-2.199-2.314-2.828
					c-1.058-0.628-2.386-0.943-3.985-0.943c-1.6,0-2.928,0.315-3.985,0.943c-1.058,0.629-1.829,1.571-2.314,2.828
					c-0.486,1.257-0.814,2.558-0.985,3.898c-0.171,1.344-0.257,3.043-0.257,5.1s0.085,3.757,0.257,5.099
					c0.171,1.344,0.5,2.657,0.985,3.942c0.485,1.285,1.256,2.243,2.314,2.871c1.057,0.629,2.385,0.942,3.985,0.942
					c1.599,0,2.927-0.313,3.985-0.942c1.056-0.628,1.828-1.586,2.314-2.871C1406.202,2832.819,1406.531,2831.506,1406.703,2830.162z
					"/>
            <path fill="#8A8A8A" d="M1463.607,2802.782l-19.111,51.847c-1.2,3.199-2.814,5.528-4.842,6.984
					c-2.029,1.457-4.728,2.186-8.099,2.186h-4.371v-10.026h2.571c1.657,0,2.856-0.271,3.6-0.814
					c0.742-0.543,1.399-1.614,1.971-3.214l1.885-5.484l-15.254-41.478h11.741l9.255,27.595l8.913-27.595H1463.607z"/>
            <path fill="#8A8A8A" d="M1501.827,2841.86c-3.886,4.058-8.799,6.085-14.74,6.085c-1.885,0-3.714-0.215-5.485-0.644
					c-1.771-0.428-3.556-1.17-5.356-2.228c-1.8-1.057-3.357-2.428-4.67-4.114c-1.315-1.684-2.386-3.884-3.214-6.599
					c-0.829-2.713-1.243-5.812-1.243-9.298c0-3.484,0.414-6.584,1.243-9.299c0.828-2.713,1.899-4.897,3.214-6.556
					c1.313-1.656,2.871-3.027,4.67-4.113c1.8-1.085,3.584-1.828,5.356-2.229c1.771-0.398,3.6-0.6,5.485-0.6
					c5.999,0,10.912,2.001,14.74,5.999l-7.541,7.541c-2.172-2.342-4.572-3.514-7.199-3.514c-2.628,0-4.743,0.973-6.342,2.914
					c-1.658,2.057-2.485,5.343-2.485,9.855c0,4.571,0.828,7.884,2.485,9.941c1.599,1.942,3.713,2.913,6.342,2.913
					c2.627,0,5.027-1.17,7.199-3.514L1501.827,2841.86z"/>
            <path fill="#8A8A8A" d="M1522.309,2852.145l-12.255,9.427v-26.31h12.255V2852.145z"/>
            <path fill="#8A8A8A" d="M1304.895,2950.269h-11.141v-34.794h-10.712v10.713c0,9.084-1.172,15.369-3.514,18.854
					c-2.343,3.485-5.942,5.228-10.798,5.228h-5.313v-9.855h1.371c1.2,0,2.143-0.128,2.828-0.386
					c0.686-0.257,1.442-0.885,2.271-1.885c0.828-0.999,1.428-2.7,1.8-5.1c0.371-2.399,0.557-5.513,0.557-9.341v-18.082h32.651
					V2950.269z"/>
            <path fill="#8A8A8A" d="M1354.085,2931.415h-27.938c0,2.972,0.857,5.371,2.571,7.198c1.714,1.829,4.113,2.742,7.198,2.742
					c2.285,0,4.157-0.327,5.613-0.985c1.457-0.656,2.957-1.728,4.5-3.214l6.77,6.6c-2.399,2.457-4.872,4.241-7.413,5.355
					c-2.542,1.114-5.728,1.672-9.555,1.672c-2.857,0-5.442-0.358-7.756-1.071c-2.313-0.714-4.471-1.899-6.47-3.557
					c-2-1.656-3.571-4.028-4.713-7.113c-1.144-3.085-1.714-6.798-1.714-11.141c0-7.142,1.77-12.727,5.313-16.754
					c3.542-4.028,8.255-6.042,14.14-6.042c6.113,0,10.884,1.985,14.312,5.956c3.428,3.972,5.142,9.185,5.142,15.64V2931.415z
					 M1343.116,2923.788c-0.058-1.942-0.4-3.542-1.028-4.8c-1.371-3.085-3.856-4.627-7.456-4.627c-3.6,0-6.084,1.542-7.456,4.627
					c-0.629,1.258-0.972,2.857-1.028,4.8H1343.116z"/>
            <path fill="#8A8A8A" d="M1400.79,2937.414c0,3.941-1.229,7.07-3.685,9.384c-2.457,2.313-5.799,3.471-10.027,3.471h-22.795
					v-44.648h22.024c4.17,0,7.512,1.113,10.027,3.342c2.513,2.229,3.771,5.199,3.771,8.913c0,4.113-1.885,7.256-5.656,9.427
					C1398.676,2929.474,1400.79,2932.844,1400.79,2937.414z M1383.65,2913.847h-8.312v9.599h8.312c3.6,0,5.399-1.629,5.399-4.885
					C1389.049,2915.419,1387.25,2913.847,1383.65,2913.847z M1389.735,2936.813c0-1.656-0.486-2.941-1.457-3.856
					c-0.972-0.913-2.343-1.371-4.114-1.371h-8.827v10.456h8.827c1.714,0,3.07-0.472,4.071-1.414
					C1389.234,2939.685,1389.735,2938.414,1389.735,2936.813z"/>
            <path fill="#8A8A8A" d="M1445.266,2950.269h-10.883v-3.856c-1.543,1.543-3.128,2.644-4.756,3.3
					c-1.628,0.655-3.7,0.985-6.213,0.985c-4.97,0-8.771-1.313-11.398-3.942c-2.457-2.571-3.685-5.913-3.685-10.026
					c0-3.771,1.314-6.869,3.942-9.299c2.627-2.428,6.456-3.642,11.483-3.642h10.37v-2.229c0-2.456-0.658-4.242-1.971-5.356
					c-1.315-1.113-3.428-1.671-6.342-1.671c-3.485,0-6.341,1.285-8.57,3.856l-7.027-6.941c2.17-2.399,4.441-4.056,6.813-4.971
					c2.37-0.913,5.442-1.371,9.212-1.371c12.684,0,19.025,5.257,19.025,15.769V2950.269z M1434.125,2933.814v-2.399h-8.484
					c-4.4,0-6.599,1.714-6.599,5.142c0,3.372,2.256,5.057,6.77,5.057c2.914,0,5.113-0.714,6.599-2.143
					C1433.554,2938.5,1434.125,2936.614,1434.125,2933.814z"/>
            <path fill="#8A8A8A" d="M1466.176,2950.269h-12.683l8.998-18.254c-2.571-0.971-4.6-2.541-6.084-4.713
					c-1.486-2.171-2.228-4.742-2.228-7.713c0-4.057,1.384-7.398,4.156-10.027c2.771-2.627,6.327-3.941,10.669-3.941h21.682v44.648
					h-11.141v-15.854h-5.999L1466.176,2950.269z M1479.717,2925.588v-11.056h-8.741c-1.829,0-3.271,0.501-4.328,1.5
					c-1.058,1-1.585,2.356-1.585,4.07c0,1.658,0.527,2.986,1.585,3.985c1.056,1,2.499,1.5,4.328,1.5H1479.717z"/>
            <path fill="#8A8A8A" d="M1300.953,3047.536c-3.886,4.058-8.799,6.085-14.74,6.085c-1.885,0-3.714-0.215-5.485-0.644
					c-1.771-0.428-3.556-1.17-5.356-2.228c-1.8-1.057-3.357-2.428-4.67-4.114c-1.315-1.684-2.386-3.884-3.214-6.599
					c-0.829-2.713-1.243-5.812-1.243-9.298c0-3.484,0.414-6.584,1.243-9.299c0.828-2.713,1.899-4.897,3.214-6.556
					c1.313-1.656,2.871-3.027,4.67-4.113c1.8-1.085,3.584-1.828,5.356-2.229c1.771-0.398,3.6-0.6,5.485-0.6
					c5.999,0,10.912,2.001,14.74,5.999l-7.542,7.541c-2.172-2.342-4.572-3.514-7.199-3.514c-2.628,0-4.743,0.973-6.342,2.914
					c-1.658,2.057-2.485,5.343-2.485,9.855c0,4.571,0.828,7.884,2.485,9.941c1.599,1.942,3.713,2.913,6.342,2.913
					c2.627,0,5.027-1.17,7.199-3.514L1300.953,3047.536z"/>
            <path fill="#8A8A8A" d="M1341.487,3018.312h-12.854v34.794h-11.227v-34.794h-13.112v-9.854h37.193V3018.312z"/>
            <path fill="#8A8A8A" d="M1384.166,3030.739c0,4.285-0.357,7.756-1.071,10.412c-0.715,2.657-2.043,4.985-3.985,6.984
					c-3.543,3.657-8.171,5.485-13.883,5.485c-5.656,0-10.255-1.828-13.797-5.485c-1.943-2.057-3.271-4.413-3.985-7.07
					c-0.715-2.656-1.071-6.098-1.071-10.326c0-4.228,0.356-7.655,1.071-10.284c0.714-2.627,2.042-4.971,3.985-7.027
					c3.542-3.655,8.142-5.484,13.797-5.484c5.828,0,10.456,1.829,13.883,5.484c1.941,2.057,3.27,4.4,3.985,7.027
					C1383.808,3023.084,1384.166,3026.512,1384.166,3030.739z M1373.025,3030.739c0-5.541-0.857-9.141-2.571-10.798
					c-1.315-1.313-3.057-1.972-5.228-1.972c-2.114,0-3.828,0.658-5.142,1.972c-1.714,1.657-2.571,5.257-2.571,10.798
					c0,5.6,0.857,9.228,2.571,10.884c1.313,1.314,3.027,1.971,5.142,1.971c2.171,0,3.913-0.656,5.228-1.971
					C1372.168,3039.967,1373.025,3036.339,1373.025,3030.739z"/>
            <path fill="#8A8A8A" d="M1432.157,3030.739c0,4.628-0.287,8.428-0.857,11.397c-0.572,2.972-1.829,5.457-3.771,7.456
					c-2.571,2.687-6.17,4.028-10.798,4.028c-4.628,0-8.227-1.485-10.798-4.457v20.311h-11.141v-61.017h10.798v4.199
					c2.798-3.142,6.513-4.714,11.141-4.714c4.627,0,8.227,1.343,10.798,4.028c1.942,2,3.199,4.485,3.771,7.455
					C1431.87,3022.398,1432.157,3026.169,1432.157,3030.739z M1420.759,3035.838c0.171-1.342,0.257-3.042,0.257-5.099
					s-0.085-3.756-0.257-5.1c-0.171-1.341-0.501-2.642-0.985-3.898c-0.486-1.257-1.258-2.199-2.314-2.828
					c-1.058-0.628-2.386-0.943-3.985-0.943c-1.6,0-2.928,0.315-3.985,0.943c-1.058,0.629-1.829,1.571-2.314,2.828
					c-0.486,1.257-0.814,2.558-0.985,3.898c-0.171,1.344-0.257,3.043-0.257,5.1s0.085,3.757,0.257,5.099
					c0.171,1.344,0.5,2.657,0.985,3.942c0.485,1.285,1.256,2.243,2.314,2.871c1.057,0.629,2.385,0.942,3.985,0.942
					c1.599,0,2.927-0.313,3.985-0.942c1.056-0.628,1.828-1.586,2.314-2.871C1420.258,3038.495,1420.587,3037.182,1420.759,3035.838z
					"/>
            <path fill="#8A8A8A" d="M1478.69,3030.739c0,4.285-0.357,7.756-1.071,10.412c-0.715,2.657-2.043,4.985-3.985,6.984
					c-3.543,3.657-8.171,5.485-13.883,5.485c-5.656,0-10.255-1.828-13.797-5.485c-1.943-2.057-3.271-4.413-3.985-7.07
					c-0.715-2.656-1.071-6.098-1.071-10.326c0-4.228,0.356-7.655,1.071-10.284c0.714-2.627,2.042-4.971,3.985-7.027
					c3.542-3.655,8.142-5.484,13.797-5.484c5.828,0,10.456,1.829,13.883,5.484c1.941,2.057,3.27,4.4,3.985,7.027
					C1478.333,3023.084,1478.69,3026.512,1478.69,3030.739z M1467.55,3030.739c0-5.541-0.857-9.141-2.571-10.798
					c-1.315-1.313-3.057-1.972-5.228-1.972c-2.114,0-3.828,0.658-5.142,1.972c-1.714,1.657-2.571,5.257-2.571,10.798
					c0,5.6,0.857,9.228,2.571,10.884c1.313,1.314,3.027,1.971,5.142,1.971c2.171,0,3.913-0.656,5.228-1.971
					C1466.693,3039.967,1467.55,3036.339,1467.55,3030.739z"/>
            <path fill="#8A8A8A" d="M1525.995,3053.106h-11.227v-17.911h-14.311v17.911h-11.227v-44.648h11.227v16.882h14.311v-16.882
					h11.227V3053.106z"/>
            <path fill="#8A8A8A" d="M1572.188,3053.106h-10.884v-3.856c-1.543,1.543-3.128,2.644-4.757,3.3
					c-1.628,0.655-3.699,0.985-6.213,0.985c-4.971,0-8.771-1.313-11.397-3.942c-2.457-2.571-3.686-5.913-3.686-10.026
					c0-3.771,1.313-6.869,3.942-9.299c2.627-2.428,6.455-3.642,11.483-3.642h10.369v-2.229c0-2.456-0.657-4.242-1.971-5.356
					c-1.314-1.113-3.428-1.671-6.342-1.671c-3.485,0-6.342,1.285-8.569,3.856l-7.027-6.941c2.17-2.399,4.441-4.056,6.812-4.971
					c2.37-0.913,5.442-1.371,9.213-1.371c12.684,0,19.025,5.257,19.025,15.769V3053.106z M1561.046,3036.652v-2.399h-8.483
					c-4.4,0-6.599,1.714-6.599,5.142c0,3.372,2.256,5.057,6.77,5.057c2.914,0,5.112-0.714,6.599-2.143
					C1560.475,3041.338,1561.046,3039.452,1561.046,3036.652z"/>
            <path fill="#8A8A8A" d="M1214.179,3240.265h-4.147v-36.407l-7.661,6.74v-4.724l7.661-6.625h4.147V3240.265z"/>
            <path fill="#8A8A8A" d="M1221.726,3440.029h-22.64v-3.687l16.188-20.565c1.536-1.996,2.305-4.012,2.305-6.048
					c0-2.227-0.634-4.013-1.901-5.357c-1.268-1.344-3.016-2.016-5.242-2.016c-2.074,0-3.783,0.615-5.127,1.843
					c-1.345,1.229-2.017,3.092-2.017,5.588h-4.147c0-3.264,1.037-5.934,3.111-8.007c2.073-2.074,4.8-3.111,8.18-3.111
					c3.379,0,6.106,1.008,8.18,3.024c2.074,2.016,3.111,4.695,3.111,8.036c0,1.575-0.25,2.977-0.749,4.205
					c-0.5,1.229-1.345,2.592-2.535,4.09l-14.344,18.318h17.628V3440.029z"/>
            <path fill="#8A8A8A" d="M1221.668,3632.148c0,3.649-1.134,6.491-3.398,8.526c-2.267,2.036-5.147,3.053-8.642,3.053
					c-3.418,0-6.241-0.912-8.468-2.736c-2.228-1.824-3.419-4.522-3.571-8.094h4.147c0.152,2.419,0.969,4.215,2.448,5.386
					c1.478,1.172,3.292,1.757,5.443,1.757c2.266,0,4.147-0.71,5.646-2.131c1.498-1.42,2.247-3.36,2.247-5.818
					c0-5.3-2.688-7.95-8.065-7.95h-0.864v-3.629h0.864c2.457,0,4.292-0.643,5.502-1.93c1.209-1.287,1.814-3.12,1.814-5.501
					c0-2.381-0.673-4.224-2.017-5.53c-1.345-1.305-3.053-1.958-5.127-1.958c-2.151,0-3.869,0.615-5.155,1.843
					c-1.287,1.229-2.026,2.9-2.218,5.012h-4.148c0.23-3.264,1.412-5.837,3.543-7.719c2.132-1.881,4.791-2.823,7.979-2.823
					c3.342,0,6.058,1.018,8.151,3.053c2.093,2.036,3.14,4.724,3.14,8.065c0,4.378-1.844,7.412-5.53,9.102
					C1219.574,3623.7,1221.668,3627.041,1221.668,3632.148z"/>
            <path fill="#8A8A8A" d="M1222.936,3833.491h-5.012V3840h-4.091v-6.509h-16.359v-3.745l14.805-30.762h4.436l-14.805,30.762
					h11.924v-11.637h4.091v11.637h5.012V3833.491z"/>
            <path fill="#8A8A8A" d="M1221.783,4033.038c0,2.459-0.212,4.551-0.634,6.279c-0.423,1.729-1.306,3.265-2.65,4.608
					c-2.035,2.036-4.762,3.054-8.18,3.054c-3.534,0-6.279-0.979-8.237-2.938c-1.69-1.728-2.65-4.108-2.881-7.143h4.147
					c0.538,4.263,2.861,6.394,6.971,6.394c2.111,0,3.802-0.633,5.069-1.9c1.498-1.498,2.247-4.282,2.247-8.354
					c0-1.42-0.087-2.658-0.26-3.715s-0.489-2.093-0.95-3.111c-0.461-1.017-1.172-1.795-2.132-2.333
					c-0.96-0.537-2.151-0.807-3.571-0.807c-1.767,0-3.236,0.366-4.407,1.095c-1.172,0.73-1.968,1.709-2.391,2.938h-3.744v-21.545
					h20.738v3.687h-16.994v13.019c1.689-1.881,4.148-2.822,7.374-2.822c2.995,0,5.357,0.864,7.086,2.593
					C1220.649,4024.302,1221.783,4027.969,1221.783,4033.038z"/>
            <path fill="#8A8A8A" d="M1221.668,4237.355c0,3.533-1.037,6.442-3.111,8.727c-2.073,2.286-4.819,3.428-8.237,3.428
                c-3.456,0-6.222-1.074-8.295-3.226c-2.074-2.15-3.111-5.012-3.111-8.584c0-2.688,0.864-5.76,2.593-9.217l10.081-20.335h4.263
                l-9.159,18.435c1.268-0.576,2.707-0.864,4.32-0.864c3.188,0,5.761,1.085,7.719,3.255
                C1220.688,4231.144,1221.668,4233.938,1221.668,4237.355z M1217.521,4237.528c0-2.381-0.644-4.358-1.93-5.934
                c-1.287-1.574-3.063-2.362-5.329-2.362c-2.188,0-3.937,0.749-5.242,2.247c-1.306,1.497-1.959,3.514-1.959,6.049
                c0,2.496,0.653,4.503,1.959,6.02c1.306,1.518,3.054,2.275,5.242,2.275c2.189,0,3.946-0.758,5.271-2.275
                C1216.857,4242.031,1217.521,4240.024,1217.521,4237.528z"/>
            <path fill="#8A8A8A" d="M1222.302,4408.776l-14.229,37.329h-4.379l14.229-37.329h-14.287v6.452h-4.09v-10.139h22.755V4408.776z"/>
            <path fill="#8A8A8A" d="M2833.113,5526.485c3.569,3.514,5.356,8.099,5.356,13.754c0,5.656-1.787,10.241-5.356,13.755
					c-3.571,3.514-8.385,5.271-14.44,5.271h-24.424v-61.018h40.364v10.627h-28.452v12.341h12.512
					C2824.728,5521.215,2829.542,5522.972,2833.113,5526.485z M2826.557,5540.239c0-2.513-0.758-4.542-2.271-6.084
					c-1.515-1.543-3.586-2.314-6.213-2.314h-11.912v16.797h11.912c2.627,0,4.698-0.756,6.213-2.271
					C2825.799,5544.854,2826.557,5542.811,2826.557,5540.239z"/>
            <path fill="#8A8A8A" d="M2886.117,5540.411h-27.938c0,2.972,0.857,5.371,2.571,7.198c1.714,1.829,4.113,2.742,7.198,2.742
					c2.285,0,4.157-0.327,5.613-0.985c1.457-0.656,2.957-1.728,4.5-3.214l6.77,6.6c-2.399,2.457-4.871,4.241-7.413,5.355
					s-5.728,1.672-9.555,1.672c-2.857,0-5.442-0.358-7.756-1.071c-2.313-0.714-4.471-1.899-6.471-3.557
					c-2-1.656-3.571-4.028-4.713-7.113c-1.144-3.085-1.714-6.798-1.714-11.141c0-7.142,1.77-12.727,5.313-16.754
					c3.541-4.028,8.255-6.042,14.14-6.042c6.113,0,10.884,1.985,14.312,5.956c3.428,3.972,5.143,9.185,5.143,15.64V5540.411z
					 M2875.147,5532.784c-0.058-1.942-0.4-3.542-1.028-4.8c-1.371-3.085-3.856-4.627-7.456-4.627s-6.084,1.542-7.456,4.627
					c-0.629,1.258-0.972,2.857-1.028,4.8H2875.147z"/>
            <path fill="#8A8A8A" d="M2931.108,5559.265h-11.141v-34.794h-10.712v10.713c0,9.084-1.172,15.369-3.514,18.854
					c-2.344,3.485-5.942,5.228-10.798,5.228h-5.313v-9.855h1.371c1.199,0,2.143-0.128,2.828-0.386
					c0.686-0.257,1.442-0.885,2.271-1.885c0.828-0.999,1.428-2.7,1.8-5.1c0.371-2.399,0.558-5.513,0.558-9.341v-18.082h32.65
					V5559.265z"/>
            <path fill="#8A8A8A" d="M2975.757,5534.669c2.742,2.629,4.113,6.057,4.113,10.284c0,4.229-1.386,7.67-4.156,10.326
					c-2.772,2.657-6.328,3.985-10.67,3.985h-21.51v-44.648h11.227v16.111h10.283
					C2969.443,5530.728,2973.014,5532.042,2975.757,5534.669z M2962.988,5539.469h-8.569v11.055h8.569
					c1.771,0,3.185-0.499,4.242-1.5c1.057-0.999,1.585-2.356,1.585-4.07c0-1.656-0.528-2.984-1.585-3.985
					C2966.172,5539.969,2964.758,5539.469,2962.988,5539.469z"/>
            <path fill="#8A8A8A" d="M2999.325,5514.102c6.341,0,11.269,1.971,14.782,5.913s5.271,9.484,5.271,16.626
					c0,7.428-1.743,13.141-5.228,17.14c-3.485,3.999-8.428,5.999-14.825,5.999c-3.086,0-5.714-0.458-7.885-1.372
					c-2.172-0.913-4.428-2.455-6.771-4.627l7.456-7.37c1.313,1.314,2.499,2.242,3.557,2.785c1.057,0.543,2.299,0.813,3.728,0.813
					c5.198,0,8.142-3.17,8.827-9.512h-13.111v-7.628h13.111c-0.856-5.998-3.828-8.998-8.912-8.998c-2.4,0-4.8,1.2-7.199,3.6
					l-7.456-7.37c2.343-2.171,4.599-3.713,6.771-4.628C2993.611,5514.56,2996.239,5514.102,2999.325,5514.102z"/>
            <path fill="#8A8A8A" d="M3061.113,5524.471h-12.854v34.794h-11.227v-34.794h-13.111v-9.854h37.192V5524.471z"/>
            <path fill="#8A8A8A" d="M3101.649,5559.265h-10.884v-3.856c-1.543,1.543-3.128,2.644-4.756,3.3
					c-1.629,0.655-3.7,0.985-6.214,0.985c-4.97,0-8.771-1.313-11.397-3.942c-2.457-2.571-3.686-5.913-3.686-10.026
					c0-3.771,1.314-6.869,3.942-9.299c2.627-2.428,6.456-3.642,11.483-3.642h10.37v-2.229c0-2.456-0.658-4.242-1.972-5.356
					c-1.314-1.113-3.428-1.671-6.342-1.671c-3.485,0-6.341,1.285-8.569,3.856l-7.027-6.941c2.171-2.399,4.441-4.056,6.813-4.971
					c2.37-0.913,5.441-1.371,9.212-1.371c12.684,0,19.025,5.257,19.025,15.769V5559.265z M3090.508,5542.811v-2.399h-8.484
					c-4.4,0-6.599,1.714-6.599,5.142c0,3.372,2.256,5.057,6.77,5.057c2.914,0,5.113-0.714,6.6-2.143
					C3089.936,5547.496,3090.508,5545.61,3090.508,5542.811z"/>
            <path fill="#8A8A8A" d="M3119.988,5559.265h-13.111l15.683-23.824l-14.654-20.824h12.769l13.712,21.253L3119.988,5559.265z
					 M3145.698,5559.265h-11.227v-44.648h11.227V5559.265z M3173.292,5559.265h-13.026l-14.482-23.396l13.797-21.253h12.77
					l-14.654,20.824L3173.292,5559.265z"/>
            <path fill="#8A8A8A" d="M1726.642,4866.21h-4.147v-36.407l-7.661,6.74v-4.724l7.661-6.625h4.147V4866.21z"/>
            <path fill="#8A8A8A" d="M1608.188,4995.505h-22.64v-3.688l16.188-20.565c1.536-1.996,2.305-4.012,2.305-6.048
					c0-2.228-0.634-4.013-1.901-5.357c-1.268-1.344-3.016-2.017-5.242-2.017c-2.074,0-3.783,0.615-5.127,1.844
					c-1.345,1.229-2.017,3.092-2.017,5.588h-4.147c0-3.264,1.037-5.934,3.111-8.008c2.073-2.073,4.8-3.11,8.18-3.11
					c3.379,0,6.106,1.008,8.18,3.024c2.074,2.016,3.111,4.694,3.111,8.036c0,1.575-0.25,2.977-0.749,4.205
					c-0.5,1.229-1.345,2.592-2.535,4.09l-14.344,18.318h17.628V4995.505z"/>
            <path fill="#8A8A8A" d="M4247.189,4866.21h-4.147v-36.407l-7.661,6.74v-4.724l7.661-6.625h4.147V4866.21z"/>
            <path fill="#8A8A8A" d="M4386.032,4995.505h-22.64v-3.688l16.188-20.565c1.536-1.996,2.305-4.012,2.305-6.048
					c0-2.228-0.634-4.013-1.901-5.357c-1.268-1.344-3.016-2.017-5.242-2.017c-2.074,0-3.783,0.615-5.127,1.844
					c-1.345,1.229-2.017,3.092-2.017,5.588h-4.147c0-3.264,1.037-5.934,3.111-8.008c2.073-2.073,4.8-3.11,8.18-3.11
					c3.379,0,6.106,1.008,8.18,3.024c2.074,2.016,3.111,4.694,3.111,8.036c0,1.575-0.25,2.977-0.749,4.205
					c-0.5,1.229-1.345,2.592-2.535,4.09l-14.344,18.318h17.628V4995.505z"/>
            <path fill="#8A8A8A" d="M2888.731,2967.823h-11.912v-50.391h-20.653v50.391h-11.912v-61.018h44.478V2967.823z"/>
            <path fill="#8A8A8A" d="M2935.865,2967.823h-10.884v-3.856c-1.543,1.543-3.128,2.644-4.756,3.3
					c-1.629,0.655-3.7,0.985-6.214,0.985c-4.97,0-8.771-1.313-11.397-3.942c-2.457-2.571-3.686-5.913-3.686-10.026
					c0-3.771,1.314-6.869,3.942-9.299c2.627-2.428,6.456-3.642,11.483-3.642h10.37v-2.229c0-2.456-0.658-4.242-1.972-5.356
					c-1.314-1.113-3.428-1.671-6.342-1.671c-3.485,0-6.341,1.285-8.569,3.856l-7.027-6.941c2.171-2.399,4.441-4.056,6.813-4.971
					c2.37-0.913,5.441-1.371,9.212-1.371c12.684,0,19.025,5.257,19.025,15.769V2967.823z M2924.724,2951.369v-2.399h-8.484
					c-4.4,0-6.599,1.714-6.599,5.142c0,3.372,2.256,5.057,6.77,5.057c2.914,0,5.113-0.714,6.6-2.143
					C2924.152,2956.055,2924.724,2954.169,2924.724,2951.369z"/>
            <path fill="#8A8A8A" d="M2985.227,2945.456c0,4.628-0.287,8.428-0.857,11.397c-0.571,2.972-1.829,5.457-3.771,7.456
					c-2.571,2.687-6.171,4.028-10.798,4.028c-4.628,0-8.228-1.485-10.798-4.457v20.311h-11.142v-61.017h10.799v4.199
					c2.798-3.142,6.513-4.714,11.141-4.714c4.627,0,8.227,1.343,10.798,4.028c1.941,2,3.199,4.485,3.771,7.455
					C2984.94,2937.115,2985.227,2940.886,2985.227,2945.456z M2973.829,2950.555c0.172-1.342,0.257-3.042,0.257-5.099
					s-0.085-3.756-0.257-5.1c-0.171-1.341-0.501-2.642-0.985-3.898c-0.486-1.257-1.258-2.199-2.313-2.828
					c-1.059-0.628-2.387-0.943-3.985-0.943c-1.601,0-2.929,0.315-3.985,0.943c-1.058,0.629-1.829,1.571-2.313,2.828
					c-0.486,1.257-0.814,2.558-0.985,3.898c-0.172,1.344-0.257,3.043-0.257,5.1s0.085,3.757,0.257,5.099
					c0.171,1.344,0.499,2.657,0.985,3.942c0.484,1.285,1.256,2.243,2.313,2.871c1.057,0.629,2.385,0.942,3.985,0.942
					c1.599,0,2.927-0.313,3.985-0.942c1.056-0.628,1.827-1.586,2.313-2.871C2973.328,2953.212,2973.658,2951.898,2973.829,2950.555z
					"/>
            <path fill="#8A8A8A" d="M3027.305,2933.029h-12.854v34.794h-11.227v-34.794h-13.111v-9.854h37.192V2933.029z"/>
            <path fill="#8A8A8A" d="M3070.754,2948.97h-27.938c0,2.972,0.856,5.371,2.571,7.198c1.714,1.829,4.113,2.742,7.198,2.742
					c2.284,0,4.156-0.327,5.613-0.985c1.457-0.656,2.957-1.728,4.499-3.214l6.771,6.6c-2.399,2.457-4.872,4.241-7.413,5.355
					c-2.543,1.114-5.729,1.672-9.556,1.672c-2.857,0-5.441-0.358-7.756-1.071c-2.313-0.714-4.471-1.899-6.47-3.557
					c-2.001-1.656-3.571-4.028-4.714-7.113c-1.144-3.085-1.714-6.798-1.714-11.141c0-7.142,1.771-12.727,5.313-16.754
					c3.542-4.028,8.255-6.042,14.141-6.042c6.112,0,10.884,1.985,14.312,5.956c3.428,3.972,5.142,9.185,5.142,15.64V2948.97z
					 M3059.785,2941.343c-0.058-1.942-0.4-3.542-1.028-4.8c-1.371-3.085-3.856-4.627-7.455-4.627c-3.6,0-6.085,1.542-7.456,4.627
					c-0.629,1.258-0.973,2.857-1.028,4.8H3059.785z"/>
            <path fill="#8A8A8A" d="M3118.402,2945.456c0,4.628-0.286,8.428-0.856,11.397c-0.572,2.972-1.829,5.457-3.771,7.456
					c-2.57,2.687-6.17,4.028-10.798,4.028s-8.227-1.485-10.798-4.457v20.311h-11.141v-61.017h10.798v4.199
					c2.799-3.142,6.513-4.714,11.141-4.714s8.228,1.343,10.798,4.028c1.942,2,3.199,4.485,3.771,7.455
					C3118.116,2937.115,3118.402,2940.886,3118.402,2945.456z M3107.004,2950.555c0.171-1.342,0.257-3.042,0.257-5.099
					s-0.086-3.756-0.257-5.1c-0.172-1.341-0.501-2.642-0.985-3.898c-0.486-1.257-1.258-2.199-2.314-2.828
					c-1.058-0.628-2.386-0.943-3.985-0.943s-2.928,0.315-3.984,0.943c-1.058,0.629-1.829,1.571-2.314,2.828
					s-0.813,2.558-0.985,3.898c-0.171,1.344-0.257,3.043-0.257,5.1s0.086,3.757,0.257,5.099c0.172,1.344,0.5,2.657,0.985,3.942
					s1.257,2.243,2.314,2.871c1.057,0.629,2.385,0.942,3.984,0.942s2.928-0.313,3.985-0.942c1.057-0.628,1.828-1.586,2.314-2.871
					C3106.503,2953.212,3106.833,2951.898,3107.004,2950.555z"/>
            <path fill="none" stroke="#B5B5B5" stroke-width="5" stroke-miterlimit="10" d="M4935.754,6253.676H939.349
                c-30.101,0-54.503-24.402-54.503-54.503V2050.298c0-30.101,24.402-54.504,54.503-54.504h3996.405
                c30.102,0,54.503,24.402,54.503,54.504v4148.875C4990.258,6229.274,4965.856,6253.676,4935.754,6253.676z"/>
            <path fill="#8A8A8A" d="M4327.661,2847.431h-11.141v-49.02l-12.426,10.798v-11.998l12.426-10.798h11.141V2847.431z"/>
            <path fill="#8A8A8A" d="M4376.851,2847.431h-12.683l8.998-18.254c-2.571-0.971-4.6-2.541-6.084-4.713
					c-1.486-2.171-2.228-4.742-2.228-7.713c0-4.057,1.384-7.398,4.156-10.027c2.771-2.627,6.327-3.941,10.669-3.941h21.682v44.648
					h-11.141v-15.854h-5.999L4376.851,2847.431z M4390.391,2822.75v-11.056h-8.741c-1.829,0-3.271,0.501-4.328,1.5
					c-1.058,1-1.585,2.356-1.585,4.07c0,1.658,0.527,2.986,1.585,3.985c1.056,1,2.499,1.5,4.328,1.5H4390.391z"/>
            <path fill="#8A8A8A" d="M4451.15,2825.063c0,4.628-0.287,8.428-0.857,11.397c-0.572,2.972-1.829,5.457-3.771,7.456
					c-2.571,2.687-6.17,4.028-10.798,4.028c-4.628,0-8.227-1.485-10.798-4.457v20.311h-11.141v-61.017h10.798v4.199
					c2.798-3.142,6.513-4.714,11.141-4.714c4.627,0,8.227,1.343,10.798,4.028c1.942,2,3.199,4.485,3.771,7.455
					C4450.864,2816.723,4451.15,2820.493,4451.15,2825.063z M4439.752,2830.162c0.171-1.342,0.257-3.042,0.257-5.099
					s-0.085-3.756-0.257-5.1c-0.171-1.341-0.501-2.642-0.985-3.898c-0.486-1.257-1.258-2.199-2.314-2.828
					c-1.058-0.628-2.386-0.943-3.985-0.943c-1.6,0-2.928,0.315-3.985,0.943c-1.058,0.629-1.829,1.571-2.314,2.828
					c-0.486,1.257-0.814,2.558-0.985,3.898c-0.171,1.344-0.257,3.043-0.257,5.1s0.085,3.757,0.257,5.099
					c0.171,1.344,0.5,2.657,0.985,3.942c0.485,1.285,1.256,2.243,2.314,2.871c1.057,0.629,2.385,0.942,3.985,0.942
					c1.599,0,2.927-0.313,3.985-0.942c1.056-0.628,1.828-1.586,2.314-2.871C4439.251,2832.819,4439.581,2831.506,4439.752,2830.162z
					"/>
            <path fill="#8A8A8A" d="M4496.657,2802.782l-19.111,51.847c-1.2,3.199-2.814,5.528-4.842,6.984
					c-2.029,1.457-4.728,2.186-8.099,2.186h-4.371v-10.026h2.571c1.657,0,2.856-0.271,3.6-0.814
					c0.742-0.543,1.399-1.614,1.971-3.214l1.885-5.484l-15.254-41.478h11.741l9.255,27.595l8.913-27.595H4496.657z"/>
            <path fill="#8A8A8A" d="M4534.877,2841.86c-3.886,4.058-8.799,6.085-14.74,6.085c-1.885,0-3.714-0.215-5.485-0.644
					c-1.771-0.428-3.556-1.17-5.356-2.228c-1.8-1.057-3.357-2.428-4.67-4.114c-1.315-1.684-2.386-3.884-3.214-6.599
					c-0.829-2.713-1.243-5.812-1.243-9.298c0-3.484,0.414-6.584,1.243-9.299c0.828-2.713,1.899-4.897,3.214-6.556
					c1.313-1.656,2.871-3.027,4.67-4.113c1.8-1.085,3.584-1.828,5.356-2.229c1.771-0.398,3.6-0.6,5.485-0.6
					c5.999,0,10.912,2.001,14.74,5.999l-7.541,7.541c-2.172-2.342-4.572-3.514-7.199-3.514c-2.628,0-4.743,0.973-6.342,2.914
					c-1.658,2.057-2.485,5.343-2.485,9.855c0,4.571,0.828,7.884,2.485,9.941c1.599,1.942,3.713,2.913,6.342,2.913
					c2.627,0,5.027-1.17,7.199-3.514L4534.877,2841.86z"/>
            <path fill="#8A8A8A" d="M4555.358,2852.145l-12.255,9.427v-26.31h12.255V2852.145z"/>
            <path fill="#8A8A8A" d="M4338.202,2950.269h-11.227v-34.794h-14.312v34.794h-11.227v-44.648h36.765V2950.269z"/>
            <path fill="#8A8A8A" d="M4387.563,2927.901c0,4.628-0.287,8.428-0.857,11.397c-0.572,2.972-1.829,5.457-3.771,7.456
					c-2.571,2.687-6.17,4.028-10.798,4.028c-4.628,0-8.227-1.485-10.798-4.457v20.311h-11.141v-61.017h10.798v4.199
					c2.798-3.142,6.513-4.714,11.141-4.714c4.627,0,8.227,1.343,10.798,4.028c1.942,2,3.199,4.485,3.771,7.455
					C4387.277,2919.561,4387.563,2923.331,4387.563,2927.901z M4376.166,2933c0.171-1.342,0.257-3.042,0.257-5.099
					s-0.085-3.756-0.257-5.1c-0.171-1.341-0.501-2.642-0.985-3.898c-0.486-1.257-1.258-2.199-2.314-2.828
					c-1.058-0.628-2.386-0.943-3.985-0.943c-1.6,0-2.928,0.315-3.985,0.943c-1.058,0.629-1.829,1.571-2.314,2.828
					c-0.486,1.257-0.814,2.558-0.985,3.898c-0.171,1.344-0.257,3.043-0.257,5.1s0.085,3.757,0.257,5.099
					c0.171,1.344,0.5,2.657,0.985,3.942c0.485,1.285,1.256,2.243,2.314,2.871c1.057,0.629,2.385,0.942,3.985,0.942
					c1.599,0,2.927-0.313,3.985-0.942c1.056-0.628,1.828-1.586,2.314-2.871C4375.665,2935.657,4375.994,2934.344,4376.166,2933z"/>
            <path fill="#8A8A8A" d="M4431.955,2950.269h-10.883v-3.856c-1.543,1.543-3.128,2.644-4.756,3.3
					c-1.628,0.655-3.7,0.985-6.213,0.985c-4.97,0-8.771-1.313-11.398-3.942c-2.457-2.571-3.685-5.913-3.685-10.026
					c0-3.771,1.314-6.869,3.942-9.299c2.627-2.428,6.456-3.642,11.483-3.642h10.37v-2.229c0-2.456-0.658-4.242-1.971-5.356
					c-1.315-1.113-3.428-1.671-6.342-1.671c-3.485,0-6.341,1.285-8.57,3.856l-7.027-6.941c2.17-2.399,4.441-4.056,6.813-4.971
					c2.37-0.913,5.442-1.371,9.212-1.371c12.684,0,19.025,5.257,19.025,15.769V2950.269z M4420.814,2933.814v-2.399h-8.484
					c-4.4,0-6.599,1.714-6.599,5.142c0,3.372,2.256,5.057,6.77,5.057c2.914,0,5.113-0.714,6.599-2.143
					C4420.242,2938.5,4420.814,2936.614,4420.814,2933.814z"/>
            <path fill="#8A8A8A" d="M4480.374,2937.414c0,3.941-1.229,7.07-3.685,9.384c-2.457,2.313-5.799,3.471-10.027,3.471h-22.795
					v-44.648h22.024c4.17,0,7.512,1.113,10.027,3.342c2.513,2.229,3.771,5.199,3.771,8.913c0,4.113-1.885,7.256-5.656,9.427
					C4478.26,2929.474,4480.374,2932.844,4480.374,2937.414z M4463.234,2913.847h-8.312v9.599h8.312c3.6,0,5.399-1.629,5.399-4.885
					C4468.633,2915.419,4466.834,2913.847,4463.234,2913.847z M4469.319,2936.813c0-1.656-0.486-2.941-1.457-3.856
					c-0.972-0.913-2.343-1.371-4.114-1.371h-8.827v10.456h8.827c1.714,0,3.07-0.472,4.071-1.414
					C4468.818,2939.685,4469.319,2938.414,4469.319,2936.813z"/>
            <path fill="#8A8A8A" d="M4524.851,2950.269h-10.884v-3.856c-1.543,1.543-3.128,2.644-4.756,3.3
					c-1.628,0.655-3.7,0.985-6.213,0.985c-4.97,0-8.771-1.313-11.398-3.942c-2.457-2.571-3.685-5.913-3.685-10.026
					c0-3.771,1.314-6.869,3.942-9.299c2.627-2.428,6.456-3.642,11.483-3.642h10.37v-2.229c0-2.456-0.658-4.242-1.971-5.356
					c-1.315-1.113-3.428-1.671-6.342-1.671c-3.485,0-6.341,1.285-8.57,3.856l-7.027-6.941c2.17-2.399,4.441-4.056,6.813-4.971
					c2.37-0.913,5.442-1.371,9.212-1.371c12.684,0,19.025,5.257,19.025,15.769V2950.269z M4513.709,2933.814v-2.399h-8.484
					c-4.4,0-6.599,1.714-6.599,5.142c0,3.372,2.256,5.057,6.77,5.057c2.914,0,5.113-0.714,6.599-2.143
					C4513.138,2938.5,4513.709,2936.614,4513.709,2933.814z"/>
            <path fill="#8A8A8A" d="M4545.761,2950.269h-12.684l8.998-18.254c-2.57-0.971-4.6-2.541-6.084-4.713
					c-1.486-2.171-2.229-4.742-2.229-7.713c0-4.057,1.385-7.398,4.156-10.027c2.771-2.627,6.327-3.941,10.67-3.941h21.682v44.648
					h-11.142v-15.854h-5.998L4545.761,2950.269z M4559.301,2925.588v-11.056h-8.741c-1.829,0-3.271,0.501-4.328,1.5
					c-1.058,1-1.585,2.356-1.585,4.07c0,1.658,0.527,2.986,1.585,3.985c1.057,1,2.499,1.5,4.328,1.5H4559.301z"/>
            <path fill="#8A8A8A" d="M4334.002,3047.536c-3.886,4.058-8.799,6.085-14.74,6.085c-1.885,0-3.714-0.215-5.485-0.644
					c-1.771-0.428-3.556-1.17-5.356-2.228c-1.8-1.057-3.357-2.428-4.67-4.114c-1.315-1.684-2.386-3.884-3.214-6.599
					c-0.829-2.713-1.243-5.812-1.243-9.298c0-3.484,0.414-6.584,1.243-9.299c0.828-2.713,1.899-4.897,3.214-6.556
					c1.313-1.656,2.871-3.027,4.67-4.113c1.8-1.085,3.584-1.828,5.356-2.229c1.771-0.398,3.6-0.6,5.485-0.6
					c5.999,0,10.912,2.001,14.74,5.999l-7.542,7.541c-2.172-2.342-4.572-3.514-7.199-3.514c-2.628,0-4.743,0.973-6.342,2.914
					c-1.658,2.057-2.485,5.343-2.485,9.855c0,4.571,0.828,7.884,2.485,9.941c1.599,1.942,3.713,2.913,6.342,2.913
					c2.627,0,5.027-1.17,7.199-3.514L4334.002,3047.536z"/>
            <path fill="#8A8A8A" d="M4374.537,3018.312h-12.854v34.794h-11.227v-34.794h-13.112v-9.854h37.193V3018.312z"/>
            <path fill="#8A8A8A" d="M4417.215,3030.739c0,4.285-0.357,7.756-1.071,10.412c-0.715,2.657-2.043,4.985-3.985,6.984
					c-3.543,3.657-8.171,5.485-13.883,5.485c-5.656,0-10.255-1.828-13.797-5.485c-1.943-2.057-3.271-4.413-3.985-7.07
					c-0.715-2.656-1.071-6.098-1.071-10.326c0-4.228,0.356-7.655,1.071-10.284c0.714-2.627,2.042-4.971,3.985-7.027
					c3.542-3.655,8.142-5.484,13.797-5.484c5.828,0,10.456,1.829,13.883,5.484c1.941,2.057,3.27,4.4,3.985,7.027
					C4416.858,3023.084,4417.215,3026.512,4417.215,3030.739z M4406.075,3030.739c0-5.541-0.857-9.141-2.571-10.798
					c-1.315-1.313-3.057-1.972-5.228-1.972c-2.114,0-3.828,0.658-5.142,1.972c-1.714,1.657-2.571,5.257-2.571,10.798
					c0,5.6,0.857,9.228,2.571,10.884c1.313,1.314,3.027,1.971,5.142,1.971c2.171,0,3.913-0.656,5.228-1.971
					C4405.218,3039.967,4406.075,3036.339,4406.075,3030.739z"/>
            <path fill="#8A8A8A" d="M4465.207,3030.739c0,4.628-0.287,8.428-0.857,11.397c-0.572,2.972-1.829,5.457-3.771,7.456
					c-2.571,2.687-6.17,4.028-10.798,4.028c-4.628,0-8.227-1.485-10.798-4.457v20.311h-11.141v-61.017h10.798v4.199
					c2.798-3.142,6.513-4.714,11.141-4.714c4.627,0,8.227,1.343,10.798,4.028c1.942,2,3.199,4.485,3.771,7.455
					C4464.92,3022.398,4465.207,3026.169,4465.207,3030.739z M4453.809,3035.838c0.171-1.342,0.257-3.042,0.257-5.099
					s-0.085-3.756-0.257-5.1c-0.171-1.341-0.501-2.642-0.985-3.898c-0.486-1.257-1.258-2.199-2.314-2.828
					c-1.058-0.628-2.386-0.943-3.985-0.943c-1.6,0-2.928,0.315-3.985,0.943c-1.058,0.629-1.829,1.571-2.314,2.828
					c-0.486,1.257-0.814,2.558-0.985,3.898c-0.171,1.344-0.257,3.043-0.257,5.1s0.085,3.757,0.257,5.099
					c0.171,1.344,0.5,2.657,0.985,3.942c0.485,1.285,1.256,2.243,2.314,2.871c1.057,0.629,2.385,0.942,3.985,0.942
					c1.599,0,2.927-0.313,3.985-0.942c1.056-0.628,1.828-1.586,2.314-2.871C4453.308,3038.495,4453.637,3037.182,4453.809,3035.838z
					"/>
            <path fill="#8A8A8A" d="M4511.74,3030.739c0,4.285-0.357,7.756-1.071,10.412c-0.715,2.657-2.043,4.985-3.985,6.984
					c-3.543,3.657-8.171,5.485-13.883,5.485c-5.656,0-10.255-1.828-13.797-5.485c-1.943-2.057-3.271-4.413-3.985-7.07
					c-0.715-2.656-1.071-6.098-1.071-10.326c0-4.228,0.356-7.655,1.071-10.284c0.714-2.627,2.042-4.971,3.985-7.027
					c3.542-3.655,8.142-5.484,13.797-5.484c5.828,0,10.456,1.829,13.883,5.484c1.941,2.057,3.27,4.4,3.985,7.027
					C4511.383,3023.084,4511.74,3026.512,4511.74,3030.739z M4500.6,3030.739c0-5.541-0.857-9.141-2.571-10.798
					c-1.315-1.313-3.057-1.972-5.228-1.972c-2.114,0-3.828,0.658-5.142,1.972c-1.714,1.657-2.571,5.257-2.571,10.798
					c0,5.6,0.857,9.228,2.571,10.884c1.313,1.314,3.027,1.971,5.142,1.971c2.171,0,3.913-0.656,5.228-1.971
					C4499.743,3039.967,4500.6,3036.339,4500.6,3030.739z"/>
            <path fill="#8A8A8A" d="M4559.045,3053.106h-11.227v-17.911h-14.311v17.911h-11.227v-44.648h11.227v16.882h14.311v-16.882
					h11.227V3053.106z"/>
            <path fill="#8A8A8A" d="M4605.237,3053.106h-10.884v-3.856c-1.543,1.543-3.128,2.644-4.757,3.3
					c-1.628,0.655-3.699,0.985-6.213,0.985c-4.971,0-8.771-1.313-11.397-3.942c-2.457-2.571-3.686-5.913-3.686-10.026
					c0-3.771,1.313-6.869,3.942-9.299c2.627-2.428,6.455-3.642,11.483-3.642h10.369v-2.229c0-2.456-0.657-4.242-1.971-5.356
					c-1.314-1.113-3.428-1.671-6.342-1.671c-3.485,0-6.342,1.285-8.569,3.856l-7.027-6.941c2.17-2.399,4.441-4.056,6.812-4.971
					c2.37-0.913,5.442-1.371,9.213-1.371c12.684,0,19.025,5.257,19.025,15.769V3053.106z M4594.096,3036.652v-2.399h-8.483
					c-4.4,0-6.599,1.714-6.599,5.142c0,3.372,2.256,5.057,6.77,5.057c2.914,0,5.112-0.714,6.599-2.143
					C4593.524,3041.338,4594.096,3039.452,4594.096,3036.652z"/>
            <path fill="#8A8A8A" d="M4733.887,3240.265h-4.147v-36.407l-7.661,6.74v-4.724l7.661-6.625h4.147V3240.265z"/>
            <path fill="#8A8A8A" d="M4741.434,3440.029h-22.64v-3.687l16.188-20.565c1.536-1.996,2.305-4.012,2.305-6.048
					c0-2.227-0.634-4.013-1.901-5.357c-1.268-1.344-3.016-2.016-5.242-2.016c-2.074,0-3.783,0.615-5.127,1.843
					c-1.345,1.229-2.017,3.092-2.017,5.588h-4.147c0-3.264,1.037-5.934,3.111-8.007c2.073-2.074,4.8-3.111,8.18-3.111
					c3.379,0,6.106,1.008,8.18,3.024c2.074,2.016,3.111,4.695,3.111,8.036c0,1.575-0.25,2.977-0.749,4.205
					c-0.5,1.229-1.345,2.592-2.535,4.09l-14.344,18.318h17.628V3440.029z"/>
            <path fill="#8A8A8A" d="M4741.376,3632.148c0,3.649-1.134,6.491-3.398,8.526c-2.267,2.036-5.147,3.053-8.642,3.053
					c-3.418,0-6.241-0.912-8.468-2.736c-2.228-1.824-3.419-4.522-3.571-8.094h4.147c0.152,2.419,0.969,4.215,2.448,5.386
					c1.478,1.172,3.292,1.757,5.443,1.757c2.266,0,4.147-0.71,5.646-2.131c1.498-1.42,2.247-3.36,2.247-5.818
					c0-5.3-2.688-7.95-8.065-7.95h-0.864v-3.629h0.864c2.457,0,4.292-0.643,5.502-1.93c1.209-1.287,1.814-3.12,1.814-5.501
					c0-2.381-0.673-4.224-2.017-5.53c-1.345-1.305-3.053-1.958-5.127-1.958c-2.151,0-3.869,0.615-5.155,1.843
					c-1.287,1.229-2.026,2.9-2.218,5.012h-4.148c0.23-3.264,1.412-5.837,3.543-7.719c2.132-1.881,4.791-2.823,7.979-2.823
					c3.342,0,6.058,1.018,8.151,3.053c2.093,2.036,3.14,4.724,3.14,8.065c0,4.378-1.844,7.412-5.53,9.102
					C4739.282,3623.7,4741.376,3627.041,4741.376,3632.148z"/>
            <path fill="#8A8A8A" d="M4742.644,3833.491h-5.012V3840h-4.091v-6.509h-16.359v-3.745l14.805-30.762h4.436l-14.805,30.762
					h11.924v-11.637h4.091v11.637h5.012V3833.491z"/>
            <path fill="#8A8A8A" d="M4741.491,4033.038c0,2.459-0.212,4.551-0.634,6.279c-0.423,1.729-1.306,3.265-2.65,4.608
					c-2.035,2.036-4.762,3.054-8.18,3.054c-3.534,0-6.279-0.979-8.237-2.938c-1.69-1.728-2.65-4.108-2.881-7.143h4.147
					c0.538,4.263,2.861,6.394,6.971,6.394c2.111,0,3.802-0.633,5.069-1.9c1.498-1.498,2.247-4.282,2.247-8.354
					c0-1.42-0.087-2.658-0.26-3.715s-0.489-2.093-0.95-3.111c-0.461-1.017-1.172-1.795-2.132-2.333
					c-0.96-0.537-2.151-0.807-3.571-0.807c-1.767,0-3.236,0.366-4.407,1.095c-1.172,0.73-1.968,1.709-2.391,2.938h-3.744v-21.545
					h20.738v3.687h-16.994v13.019c1.689-1.881,4.148-2.822,7.374-2.822c2.995,0,5.357,0.864,7.086,2.593
					C4740.357,4024.302,4741.491,4027.969,4741.491,4033.038z"/>
            <path fill="#8A8A8A" d="M4741.376,4237.355c0,3.533-1.037,6.442-3.111,8.727c-2.073,2.286-4.819,3.428-8.237,3.428
					c-3.456,0-6.222-1.074-8.295-3.226c-2.074-2.15-3.111-5.012-3.111-8.584c0-2.688,0.864-5.76,2.593-9.217l10.081-20.335h4.263
					l-9.159,18.435c1.268-0.576,2.707-0.864,4.32-0.864c3.188,0,5.761,1.085,7.719,3.255
					C4740.396,4231.144,4741.376,4233.938,4741.376,4237.355z M4737.229,4237.528c0-2.381-0.644-4.358-1.93-5.934
					c-1.287-1.574-3.063-2.362-5.329-2.362c-2.188,0-3.937,0.749-5.242,2.247c-1.306,1.497-1.959,3.514-1.959,6.049
					c0,2.496,0.653,4.503,1.959,6.02c1.306,1.518,3.054,2.275,5.242,2.275c2.189,0,3.946-0.758,5.271-2.275
					C4736.565,4242.031,4737.229,4240.024,4737.229,4237.528z"/>
            <path fill="#8A8A8A" d="M4742.01,4408.776l-14.229,37.329h-4.379l14.229-37.329h-14.287v6.452h-4.09v-10.139h22.755V4408.776z"/>
            <path fill="#8A8A8A" d="M2971.826,3222.295h-4.147v-36.407l-7.661,6.74v-4.724l7.661-6.625h4.147V3222.295z"/>
            <path fill="#8A8A8A" d="M2979.373,3395.471h-22.64v-3.687l16.188-20.565c1.536-1.996,2.305-4.012,2.305-6.048
			c0-2.227-0.634-4.013-1.901-5.357c-1.268-1.344-3.016-2.016-5.242-2.016c-2.074,0-3.783,0.615-5.127,1.843
			c-1.345,1.229-2.017,3.092-2.017,5.588h-4.147c0-3.264,1.037-5.934,3.111-8.007c2.073-2.074,4.8-3.111,8.18-3.111
			c3.379,0,6.106,1.008,8.18,3.024c2.074,2.016,3.111,4.695,3.111,8.036c0,1.575-0.25,2.977-0.749,4.205
			c-0.5,1.229-1.345,2.592-2.535,4.09l-14.344,18.318h17.628V3395.471z"/>
            <path fill="#8A8A8A" d="M2979.315,3557.472c0,3.649-1.134,6.491-3.398,8.526c-2.267,2.036-5.147,3.053-8.642,3.053
			c-3.418,0-6.241-0.912-8.468-2.736c-2.228-1.824-3.419-4.522-3.571-8.094h4.147c0.152,2.419,0.969,4.215,2.448,5.386
			c1.478,1.172,3.292,1.757,5.443,1.757c2.266,0,4.147-0.71,5.646-2.131c1.498-1.42,2.247-3.36,2.247-5.818
			c0-5.3-2.688-7.95-8.065-7.95h-0.864v-3.629h0.864c2.457,0,4.292-0.643,5.502-1.93c1.209-1.287,1.814-3.12,1.814-5.501
			c0-2.381-0.673-4.224-2.017-5.53c-1.345-1.305-3.053-1.958-5.127-1.958c-2.151,0-3.869,0.615-5.155,1.843
			c-1.287,1.229-2.026,2.9-2.218,5.012h-4.148c0.23-3.264,1.412-5.837,3.543-7.719c2.132-1.881,4.791-2.823,7.979-2.823
			c3.342,0,6.058,1.018,8.151,3.053c2.093,2.036,3.14,4.724,3.14,8.065c0,4.378-1.844,7.412-5.53,9.102
			C2977.221,3549.024,2979.315,3552.365,2979.315,3557.472z"/>
            <path fill="#8A8A8A" d="M2980.583,3735.315h-5.012v6.509h-4.091v-6.509h-16.359v-3.745l14.805-30.762h4.436l-14.805,30.762h11.924
			v-11.637h4.091v11.637h5.012V3735.315z"/>
            <path fill="#8A8A8A" d="M2979.43,3901.463c0,2.459-0.212,4.551-0.634,6.279c-0.423,1.729-1.306,3.265-2.65,4.608
			c-2.035,2.036-4.762,3.054-8.18,3.054c-3.534,0-6.279-0.979-8.237-2.938c-1.69-1.728-2.65-4.108-2.881-7.143h4.147
			c0.538,4.263,2.861,6.394,6.971,6.394c2.111,0,3.802-0.633,5.069-1.9c1.498-1.498,2.247-4.282,2.247-8.354
			c0-1.42-0.087-2.658-0.26-3.715s-0.489-2.093-0.95-3.111c-0.461-1.017-1.172-1.795-2.132-2.333
			c-0.96-0.537-2.151-0.807-3.571-0.807c-1.767,0-3.236,0.366-4.407,1.095c-1.172,0.73-1.968,1.709-2.391,2.938h-3.744v-21.545
			h20.738v3.687h-16.994v13.019c1.689-1.881,4.148-2.822,7.374-2.822c2.995,0,5.357,0.864,7.086,2.593
			C2978.296,3892.727,2979.43,3896.394,2979.43,3901.463z"/>
            <path fill="#8A8A8A" d="M2979.315,4076.368c0,3.534-1.037,6.443-3.111,8.728c-2.073,2.285-4.819,3.428-8.237,3.428
			c-3.456,0-6.222-1.075-8.295-3.227c-2.074-2.15-3.111-5.012-3.111-8.583c0-2.688,0.864-5.761,2.593-9.217l10.081-20.335h4.263
			l-9.159,18.434c1.268-0.576,2.707-0.864,4.32-0.864c3.188,0,5.761,1.086,7.719,3.255
			C2978.335,4070.156,2979.315,4072.95,2979.315,4076.368z M2975.167,4076.541c0-2.381-0.644-4.358-1.93-5.934
			c-1.287-1.574-3.063-2.361-5.329-2.361c-2.188,0-3.937,0.748-5.242,2.246s-1.959,3.514-1.959,6.049
			c0,2.497,0.653,4.503,1.959,6.02c1.306,1.518,3.054,2.275,5.242,2.275c2.189,0,3.946-0.758,5.271-2.275
			C2974.504,4081.044,2975.167,4079.038,2975.167,4076.541z"/>
            <path fill="#8A8A8A" d="M2979.949,4224.025l-14.229,37.329h-4.379l14.229-37.329h-14.287v6.452h-4.09v-10.139h22.755V4224.025z"/>
            <path fill="#8A8A8A" d="M2979.949,4423.239c0,3.419-1.152,6.213-3.457,8.382c-2.304,2.17-5.185,3.255-8.641,3.255
			s-6.337-1.085-8.641-3.255c-2.305-2.169-3.457-4.963-3.457-8.382c0-4.301,2.055-7.623,6.164-9.966
			c-3.571-2.035-5.357-5.069-5.357-9.102c0-3.188,1.066-5.818,3.197-7.893c2.132-2.073,4.829-3.11,8.094-3.11
			c3.264,0,5.962,1.037,8.094,3.11c2.132,2.074,3.197,4.705,3.197,7.893c0,4.032-1.767,7.066-5.3,9.102
			C2977.913,4415.577,2979.949,4418.899,2979.949,4423.239z M2973.525,4428.885c1.518-1.536,2.276-3.437,2.276-5.703
			c0-2.266-0.759-4.167-2.276-5.703c-1.518-1.535-3.408-2.304-5.674-2.304c-2.267,0-4.157,0.769-5.674,2.304
			c-1.518,1.536-2.275,3.438-2.275,5.703c0,2.267,0.758,4.167,2.275,5.703c1.517,1.536,3.407,2.304,5.674,2.304
			C2970.117,4431.188,2972.007,4430.421,2973.525,4428.885z M2973.007,4409.5c1.324-1.362,1.987-3.12,1.987-5.271
			s-0.663-3.918-1.987-5.3c-1.325-1.383-3.045-2.074-5.156-2.074c-2.112,0-3.831,0.691-5.155,2.074
			c-1.325,1.382-1.988,3.149-1.988,5.3s0.663,3.908,1.988,5.271c1.324,1.363,3.043,2.045,5.155,2.045
			C2969.962,4411.545,2971.682,4410.863,2973.007,4409.5z"/>
            <path fill="#8A8A8A" d="M2979.142,4578.154c0,2.689-0.864,5.761-2.593,9.218l-10.081,20.335h-4.32l9.217-18.435
			c-1.267,0.576-2.727,0.864-4.378,0.864c-3.149,0-5.703-1.084-7.661-3.255c-1.959-2.169-2.938-4.963-2.938-8.382
			c0-3.532,1.037-6.441,3.111-8.727c2.073-2.285,4.818-3.428,8.237-3.428c3.456,0,6.222,1.075,8.296,3.226
			C2978.105,4571.723,2979.142,4574.583,2979.142,4578.154z M2974.995,4578.327c0-2.495-0.663-4.502-1.987-6.02
			c-1.325-1.517-3.082-2.275-5.271-2.275c-2.188,0-3.937,0.759-5.242,2.275c-1.306,1.518-1.958,3.524-1.958,6.02
			c0,2.382,0.633,4.359,1.9,5.934c1.268,1.575,3.033,2.362,5.3,2.362c2.189,0,3.946-0.749,5.271-2.247
			C2974.332,4582.879,2974.995,4580.862,2974.995,4578.327z"/>
            <path fill="#8A8A8A" d="M2956.792,4780.883h-4.147v-36.406l-7.661,6.739v-4.724l7.661-6.625h4.147V4780.883z"/>
            <path fill="#8A8A8A" d="M2994.12,4769.938c0,3.342-1.065,6.059-3.197,8.152s-4.811,3.139-8.036,3.139
			c-3.265,0-5.953-1.037-8.064-3.11c-2.113-2.073-3.169-4.8-3.169-8.181v-19.125c0-3.379,1.056-6.105,3.169-8.18
			c2.111-2.074,4.8-3.111,8.064-3.111c3.226,0,5.904,1.047,8.036,3.141s3.197,4.81,3.197,8.15V4769.938z M2989.972,4769.707v-18.664
			c0-2.305-0.625-4.186-1.872-5.645c-1.249-1.459-2.987-2.189-5.214-2.189c-2.228,0-3.966,0.73-5.213,2.189
			c-1.249,1.459-1.873,3.34-1.873,5.645v18.664c0,2.305,0.624,4.188,1.873,5.646c1.247,1.459,2.985,2.188,5.213,2.188
			c2.227,0,3.965-0.729,5.214-2.188C2989.347,4773.895,2989.972,4772.012,2989.972,4769.707z"/>
        </g>
    </g>
    <g id="labels">
        <text dataSectorId="1">Ложа 3</text>
        <text dataSectorId="2">Ложа 5</text>
        <text dataSectorId="3">Ложа 1</text>
        <text dataSectorId="4">Ложа 4</text>
        <text dataSectorId="5">Центральная ложа</text>
        <text dataSectorId="6">Ложа 6</text>
        <text dataSectorId="7">Ложа 2</text>
        <text dataSectorId="8">1 ярус, левая сторона</text>
        <text dataSectorId="9">Бельэтаж</text>
        <text dataSectorId="10">Партер</text>
        <text dataSectorId="11">1 ярус, правая сторона</text>
    </g>
</svg>
