<?xml version="1.0" encoding="utf-8"?>
<svg version="1.1" id="Layer_2" xmlns="http://www.w3.org/2000/svg" xmlns:xlink="http://www.w3.org/1999/xlink" x="0px" y="0px" width="1024" height="768" viewBox="0 0 10240 7680" xml:space="preserve">
	<metadata>
		<?xpacket begin="﻿" id="W5M0MpCehiHzreSzNTczkc9d"?>
		<x:xmpmeta xmlns:x="adobe:ns:meta/" x:xmptk="Adobe XMP Core 5.5-c014 79.151739, 2013/04/03-12:12:15">
			<rdf:RDF xmlns:rdf="http://www.w3.org/1999/02/22-rdf-syntax-ns#">
				<rdf:Description rdf:about="" xmlns:xmp="http://ns.adobe.com/xap/1.0/" xmlns:xmpGImg="http://ns.adobe.com/xap/1.0/g/img/" xmlns:xmpTPg="http://ns.adobe.com/xap/1.0/t/pg/" xmlns:stDim="http://ns.adobe.com/xap/1.0/sType/Dimensions#" xmlns:stFnt="http://ns.adobe.com/xap/1.0/sType/Font#" xmlns:xmpG="http://ns.adobe.com/xap/1.0/g/" xmlns:dc="http://purl.org/dc/elements/1.1/" xmlns:xmpMM="http://ns.adobe.com/xap/1.0/mm/" xmlns:stRef="http://ns.adobe.com/xap/1.0/sType/ResourceRef#" xmlns:stEvt="http://ns.adobe.com/xap/1.0/sType/ResourceEvent#">
					<xmpTPg:MaxPageSize rdf:parseType="Resource">
						<stDim:w>10240.000397</stDim:w>
						<stDim:h>7680.000000</stDim:h>
						<stDim:unit>Points</stDim:unit>
					</xmpTPg:MaxPageSize>
					<xmpTPg:NPages>1</xmpTPg:NPages>
					<xmpTPg:HasVisibleTransparency>False</xmpTPg:HasVisibleTransparency>
					<xmpTPg:HasVisibleOverprint>False</xmpTPg:HasVisibleOverprint>
					<xmpTPg:Fonts>
						<rdf:Bag>
							<rdf:li rdf:parseType="Resource">
								<stFnt:fontName>DINPro</stFnt:fontName>
								<stFnt:fontFamily>DIN Pro</stFnt:fontFamily>
								<stFnt:fontFace>Regular</stFnt:fontFace>
								<stFnt:fontType>TrueType</stFnt:fontType>
								<stFnt:versionString>Version 7.504; 2005; Build 1021</stFnt:versionString>
								<stFnt:composite>False</stFnt:composite>
								<stFnt:fontFileName>DINPro.ttf</stFnt:fontFileName>
							</rdf:li>
						</rdf:Bag>
					</xmpTPg:Fonts>
					<xmpTPg:PlateNames>
						<rdf:Seq>
							<rdf:li>Cyan</rdf:li>
							<rdf:li>Magenta</rdf:li>
							<rdf:li>Yellow</rdf:li>
							<rdf:li>Black</rdf:li>
						</rdf:Seq>
					</xmpTPg:PlateNames>
					<xmpTPg:SwatchGroups>
						<rdf:Seq>
							<rdf:li rdf:parseType="Resource">
								<xmpG:groupName>Default Swatch Group</xmpG:groupName>
								<xmpG:groupType>0</xmpG:groupType>
							</rdf:li>
						</rdf:Seq>
					</xmpTPg:SwatchGroups>
					<dc:format>image/svg+xml</dc:format>
				</rdf:Description>
			</rdf:RDF>
		</x:xmpmeta>
		<?xpacket end="w"?>
	</metadata>
	<g id="background">
		<path fill="none" stroke="#B5B5B5" stroke-width="5" stroke-miterlimit="10" tc-sector="5ca34934c0c751007b77d4d9" id="5ca34934c0c751007b77d4d9" d="M7340.408,2692.278c27.5,0,50,22.5,50,50
			c0,0-173.908,1892.425-2245.908,1892.425H2044.538c-27.5,0-50-22.5-50-50V2742.278c0-27.5,22.5-50,50-50H7340.408z"/>
		<path fill="none" stroke="#B5B5B5" stroke-width="5" stroke-miterlimit="10" tc-sector="5ca34934c0c751007b77d4da" id="5ca34934c0c751007b77d4da" d="M1994.538,4810.042c0,0,0,1498.524,0,1537.528
			s7.47,39.004,31.472,39.004s900.09,0,900.09,0s0-576.058,0-603.06c0-27.003,6-84.009,54.005-84.009c48.005,0,4479.448,0,4530.453,0
			c51.005,0,63.006,33.952,63.006,57.48s0,650.591,0,650.591s789.079,0,804.081,0c15.001,0,30.003,0,30.003-30.003
			s0-3537.073,0-3573.073s1.941-112.222-104.604-112.222s-681.623,0-740.083,0s-62.918,28.168-66.461,60.222
			c-29.52,267.113-230.655,960.806-654.433,1356.183c-382.255,356.637-809.184,640.844-1788.755,640.844c-728,0-2921.568,0-3005.568,0
			C1994.538,4749.527,1994.538,4793.02,1994.538,4810.042z"/>
		<g id="details">
			<path fill="#F5F5F5" d="M6860.5,1582.5c27.5,0,50,22.5,50,50v864c0,27.5-22.5,50-50,50H2788.39c-27.5,0-50-22.5-50-50v-864
				c0-27.5,22.5-50,50-50H6860.5z"/>
			<text transform="matrix(1 0 0 1 4635.4019 2127.0869)" fill="#8A8A8A" font-family="'DINPro'" font-size="169.3936">Сцена</text>
			<text transform="matrix(1 0 0 1 3669.2595 3663.4905)" fill="#8A8A8A" font-family="'DINPro'" font-size="169.3936">Танцевальный партер</text>
			<path fill="none" stroke="#B5B5B5" stroke-width="5" stroke-miterlimit="10" d="M8446.5,1582.5c27.5,0,50,22.5,50,50v4832.217
				c0,27.5-22.5,50-50,50H1907.418c-27.5,0-50-22.5-50-50V1632.5c0-27.5,22.5-50,50-50H8446.5z"/>
			<path fill="#F0F0F0" d="M2460.826,5878.213c13.75,0,25,11.25,25,25v356.255c0,13.75-11.25,25-25,25h-106.399
				c-13.75,0-25-11.25-25-25v-356.255c0-13.75,11.25-25,25-25H2460.826z"/>
			<path fill="none" stroke="#B5B5B5" stroke-width="5" stroke-miterlimit="10" d="M7446.555,5799.848c13.75,0,25,11.25,25,25v664.87
				c0,13.75-11.25,25-25,25H3056.287c-13.75,0-25-11.25-25-25v-664.87c0-13.75,11.25-25,25-25H7446.555z"/>
			<text transform="matrix(1 0 0 1 2378.4099 6115.1802)" fill="#8A8A8A" font-family="'DINPro'" font-size="110">8</text>
			<path fill="#F0F0F0" d="M6084.485,4833.595c12.945-4.636,27.329,2.162,31.965,15.106l90.891,253.773
				c4.636,12.944-2.162,27.329-15.106,31.965l-210.952,75.554c-12.945,4.636-27.329-2.162-31.965-15.106l-90.891-253.773
				c-4.636-12.945,2.162-27.33,15.106-31.966L6084.485,4833.595z"/>
			<text transform="matrix(0.9414 -0.3372 0.3372 0.9414 6021.1621 5071.1255)" fill="#8A8A8A" font-family="'DINPro'" font-size="109.9966">1</text>
			<path fill="#F0F0F0" d="M8126.716,4749.527c13.75-0.008,25.007,11.235,25.015,24.985l0.164,269.559
				c0.008,13.75-11.235,25.007-24.985,25.015l-77.605,0.136c-13.75,0.008-25.007-11.235-25.015-24.985l-0.163-269.559
				c-0.009-13.75,11.234-25.007,24.984-25.015L8126.716,4749.527z"/>
			<text transform="matrix(1 -6.056442e-004 6.056442e-004 1 8060.1348 4951.8838)" fill="#8A8A8A" font-family="'DINPro'" font-size="110">6</text>
			<path fill="#F0F0F0" d="M8126.716,5700.622c13.75-0.008,25.007,11.235,25.015,24.985l0.164,269.559
				c0.008,13.75-11.235,25.007-24.985,25.015l-77.605,0.136c-13.75,0.008-25.007-11.235-25.015-24.985l-0.163-269.559
				c-0.009-13.75,11.234-25.007,24.984-25.015L8126.716,5700.622z"/>
			<text transform="matrix(1 -6.056442e-004 6.056442e-004 1 8060.1348 5902.979)" fill="#8A8A8A" font-family="'DINPro'" font-size="110">7</text>
			<path fill="#F0F0F0" d="M6892.971,4412.948c11.125-8.08,26.839-5.588,34.919,5.538l158.401,218.107
				c8.08,11.125,5.588,26.839-5.537,34.919l-98.795,69.161c-11.125,8.08-26.839,5.588-34.919-5.537l-158.401-218.108
				c-8.08-11.125-5.588-26.839,5.538-34.919L6892.971,4412.948z"/>
			<text transform="matrix(0.8091 -0.5876 0.5876 0.8091 6940.9395 4636.2061)" fill="#8A8A8A" font-family="'DINPro'" font-size="109.9954">2</text>
			<path fill="#F0F0F0" d="M8072.457,3855.008c13.75-0.082,25.066,11.102,25.148,24.851l1.599,269.554
				c0.082,13.75-11.102,25.066-24.852,25.148l-120.589-1.38c-13.75,0.082-25.066-11.102-25.148-24.851l-1.599-269.554
				c-0.082-13.75,11.102-25.066,24.851-25.148L8072.457,3855.008z"/>
			<text transform="matrix(1 -0.0059 0.0059 1 7981.3154 4064.3853)" fill="#8A8A8A" font-family="'DINPro'" font-size="110">5</text>
			<path fill="#F0F0F0" d="M8072.457,3011.924c13.75-0.082,25.066,11.102,25.148,24.851l1.599,269.554
				c0.082,13.75-11.102,25.066-24.852,25.148l-120.589-1.38c-13.75,0.082-25.066-11.102-25.148-24.851l-1.599-269.554
				c-0.082-13.75,11.102-25.066,24.851-25.148L8072.457,3011.924z"/>
			<text transform="matrix(1 -0.0059 0.0059 1 7981.3154 3221.301)" fill="#8A8A8A" font-family="'DINPro'" font-size="110">4</text>
			<circle fill="#F0F0F0" cx="7390.408" cy="3823.091" r="124.563"/>
			<text transform="matrix(1 -0.0059 0.0059 1 7363.3154 3862.697)" fill="#8A8A8A" font-family="'DINPro'" font-size="110">3</text>
			<text transform="matrix(1 0 0 1 5190.4609 6218.418)" fill="#8A8A8A" font-family="'DINPro'" font-size="133.9952">Бар</text>
		</g>
	</g>
	<g id="labels">
		<text dataSectorId="5ca34934c0c751007b77d4d9">Танцевальный партер</text>
		<text dataSectorId="5ca34934c0c751007b77d4da">Столы</text>
	</g>
	<g id="seats">
		<g dataSectorId="5ca34934c0c751007b77d4d9" dataComponent="svg__sector" dataElId="1">
			<g dataComponent="svg__row" dataName="1" dataElId="1">
				<circle fill="#C7C7C7" cx="4517.573" cy="3806.028" r="48" dataComponent="svg__seat" dataName="5ca34934c0c751007b77d4d9" />
			</g>
		</g>
		<g dataSectorId="5ca34934c0c751007b77d4da" dataComponent="svg__sector" dataElId="2">
			<g dataComponent="svg__row" dataName="1" dataElId="1">
				<circle fill="#C7C7C7" cx="5778.064" cy="5003.293" r="48" dataComponent="svg__seat" dataName="1"/>
				<circle fill="#C7C7C7" cx="5844.827" cy="5189.698" r="48" dataComponent="svg__seat" dataName="2"/>
				<circle fill="#C7C7C7" cx="5911.589" cy="5376.104" r="48" dataComponent="svg__seat" dataName="3"/>
				<circle fill="#C7C7C7" cx="6060.337" cy="5322.828" r="48" dataComponent="svg__seat" dataName="4"/>
				<circle fill="#C7C7C7" cx="6209.084" cy="5269.553" r="48" dataComponent="svg__seat" dataName="5"/>
				<circle fill="#C7C7C7" cx="6357.832" cy="5216.278" r="48" dataComponent="svg__seat" dataName="6"/>
				<circle fill="#C7C7C7" cx="6291.069" cy="5029.874" r="48" dataComponent="svg__seat" dataName="7"/>
				<circle fill="#C7C7C7" cx="6224.307" cy="4843.468" r="48" dataComponent="svg__seat" dataName="8"/>
			</g>
			<g dataComponent="svg__row" dataName="2" dataElId="2">
				<circle fill="#C7C7C7" cx="6725.717" cy="4613.764" r="48" dataComponent="svg__seat" dataName="1"/>
				<circle fill="#C7C7C7" cx="6842.068" cy="4773.972" r="48" dataComponent="svg__seat" dataName="2"/>
				<circle fill="#C7C7C7" cx="7029.952" cy="4383.22" r="48" dataComponent="svg__seat" dataName="3"/>
				<circle fill="#C7C7C7" cx="7146.303" cy="4543.428" r="48" dataComponent="svg__seat" dataName="4"/>
			</g>
			<g dataComponent="svg__row" dataName="3" dataElId="3">
				<circle fill="#C7C7C7" cx="7270.29" cy="4023.912" r="48" dataComponent="svg__seat" dataName="1"/>
				<circle fill="#C7C7C7" cx="7514.971" cy="3641.431" r="48" dataComponent="svg__seat" dataName="2"/>
			</g>
			<g dataComponent="svg__row" dataName="4" dataElId="4">
				<circle fill="#C7C7C7" cx="7819.506" cy="3077.627" r="48" dataComponent="svg__seat" dataName="1"/>
				<circle fill="#C7C7C7" cx="7820.68" cy="3275.624" r="48" dataComponent="svg__seat" dataName="2"/>
				<circle fill="#C7C7C7" cx="8201.093" cy="3067.603" r="48" dataComponent="svg__seat" dataName="3"/>
				<circle fill="#C7C7C7" cx="8202.268" cy="3265.599" r="48" dataComponent="svg__seat" dataName="4"/>
			</g>
			<g dataComponent="svg__row" dataName="5" dataElId="5">
				<circle fill="#C7C7C7" cx="7819.506" cy="3920.712" r="48" dataComponent="svg__seat" dataName="1"/>
				<circle fill="#C7C7C7" cx="7820.68" cy="4118.708" r="48" dataComponent="svg__seat" dataName="2"/>
				<circle fill="#C7C7C7" cx="8201.093" cy="3910.687" r="48" dataComponent="svg__seat" dataName="3"/>
				<circle fill="#C7C7C7" cx="8202.268" cy="4108.683" r="48" dataComponent="svg__seat" dataName="4"/>
			</g>
			<g dataComponent="svg__row" dataName="6" dataElId="6">
				<circle fill="#C7C7C7" cx="7927.523" cy="4806.177" r="48" dataComponent="svg__seat" dataName="1"/>
				<circle fill="#C7C7C7" cx="7927.643" cy="5004.177" r="48" dataComponent="svg__seat" dataName="2"/>
				<circle fill="#C7C7C7" cx="8255.055" cy="4805.89" r="48" dataComponent="svg__seat" dataName="3"/>
				<circle fill="#C7C7C7" cx="8255.175" cy="5003.89" r="48" dataComponent="svg__seat" dataName="4"/>
				<circle fill="#C7C7C7" cx="8255.295" cy="5201.89" r="48" dataComponent="svg__seat" dataName="5"/>
				<circle fill="#C7C7C7" cx="8097.295" cy="5201.985" r="48" dataComponent="svg__seat" dataName="6"/>
				<circle fill="#C7C7C7" cx="7927.763" cy="5202.177" r="48" dataComponent="svg__seat" dataName="7"/>
			</g>
			<g dataComponent="svg__row" dataName="7" dataElId="7">
				<circle fill="#C7C7C7" cx="7927.763" cy="6153.272" r="48" dataComponent="svg__seat" dataName="1"/>
				<circle fill="#C7C7C7" cx="8097.295" cy="6153.081" r="48" dataComponent="svg__seat" dataName="2"/>
				<circle fill="#C7C7C7" cx="8255.295" cy="6152.985" r="48" dataComponent="svg__seat" dataName="3"/>
				<circle fill="#C7C7C7" cx="8255.175" cy="5954.985" r="48" dataComponent="svg__seat" dataName="4"/>
				<circle fill="#C7C7C7" cx="8255.055" cy="5756.985" r="48" dataComponent="svg__seat" dataName="5"/>
			</g>
			<g dataComponent="svg__row" dataName="8" dataElId="8">
				<circle fill="#C7C7C7" cx="2237.322" cy="5952.941" r="48" dataComponent="svg__seat" dataName="1"/>
				<circle fill="#C7C7C7" cx="2237.322" cy="6183.929" r="48" dataComponent="svg__seat" dataName="2"/>
				<circle fill="#C7C7C7" cx="2589.805" cy="5952.941" r="48" dataComponent="svg__seat" dataName="3"/>
				<circle fill="#C7C7C7" cx="2589.805" cy="6183.929" r="48" dataComponent="svg__seat" dataName="4"/>
			</g>
		</g>
	</g>
</svg>
